<?xml version="1.0" encoding="utf-8"?>
<!-- Generator: Adobe Illustrator 24.1.1, SVG Export Plug-In . SVG Version: 6.00 Build 0)  -->
<svg version="1.1" id="Layer_1" xmlns="http://www.w3.org/2000/svg" xmlns:xlink="http://www.w3.org/1999/xlink" x="0px" y="0px"
	 viewBox="0 0 497.3 535" style="enable-background:new 0 0 497.3 535;" xml:space="preserve">
<style type="text/css">
	.st0{opacity:0.2;enable-background:new    ;}
	.st1{fill:#F9F9F9;}
	.st2{fill:#C8C8C8;}
	.st3{fill:#D2D214;}
	.st4{opacity:0.1;enable-background:new    ;}
	.st5{fill:#FFD54F;}
	.st6{fill:#546E7A;}
	.st7{fill:#FFCE43;}
	.st8{fill:#37474F;}
	.st9{fill:#FFB300;}
	.st10{fill:#FFB92C;}
	.st11{fill:#DD971B;}
</style>
<path class="st0" d="M24.5,9.5H381c8.3,0,15,6.7,15,15V520c0,8.3-6.7,15-15,15H24.5c-8.3,0-15-6.7-15-15V24.5
	C9.5,16.2,16.2,9.5,24.5,9.5z"/>
<g>
	<path class="st1" d="M15,0h356.5c8.3,0,15,6.7,15,15v495.5c0,8.3-6.7,15-15,15H15c-8.3,0-15-6.7-15-15V15C0,6.7,6.7,0,15,0z"/>
	<g>
		<g>
			<path class="st2" d="M110.2,368.9H60.5c-1,0-1.8-0.8-1.8-1.8v-49.7c0-1,0.8-1.8,1.8-1.8h36.4c0.5,0,0.9-0.2,1.2-0.5l4.1-3.9
				c1.2-1.1,0.4-3.1-1.2-3.1H53c-1,0-1.8,0.8-1.8,1.8v64.8c0,1,0.8,1.8,1.8,1.8h64.8c1,0,1.8-0.8,1.8-1.8v-26.5c0-1-0.8-1.8-1.8-1.8
				h-3.9c-1,0-1.8,0.8-1.8,1.8v19C112,368.1,111.2,368.9,110.2,368.9z"/>
			<path class="st3" d="M126.4,317.1c0.6,0.6,0.9,1.4,0.9,2.2c0,0.8-0.3,1.7-0.9,2.3l-36.6,36.6c-1.3,1.3-3.3,1.3-4.5,0l-22.5-22.5
				c-0.6-0.6-0.9-1.4-0.9-2.3s0.3-1.7,0.9-2.3l3.9-3.9c1.2-1.2,3.3-1.3,4.5,0l16.3,16h0.1l30.3-30.1c1.2-1.2,3.2-1.2,4.5,0
				L126.4,317.1z"/>
		</g>
		<g>
			<path class="st2" d="M110.2,469.3H60.5c-1,0-1.8-0.8-1.8-1.8v-49.7c0-1,0.8-1.8,1.8-1.8h36.4c0.5,0,0.9-0.2,1.2-0.5l4.1-3.9
				c1.2-1.1,0.4-3.1-1.2-3.1H53c-1,0-1.8,0.8-1.8,1.8V475c0,1,0.8,1.8,1.8,1.8h64.8c1,0,1.8-0.8,1.8-1.8v-26.5c0-1-0.8-1.8-1.8-1.8
				h-3.9c-1,0-1.8,0.8-1.8,1.8v19C112,468.5,111.2,469.3,110.2,469.3z"/>
			<path class="st3" d="M126.4,417.5c0.6,0.6,0.9,1.4,0.9,2.2c0,0.8-0.3,1.7-0.9,2.3l-36.6,36.6c-1.3,1.3-3.3,1.3-4.5,0l-22.5-22.5
				c-0.6-0.6-0.9-1.4-0.9-2.3s0.3-1.7,0.9-2.3l3.9-3.9c1.2-1.2,3.3-1.3,4.5,0l16.3,16h0.1l30.3-30.1c1.2-1.2,3.2-1.2,4.5,0
				L126.4,417.5z"/>
		</g>
		<g>
			<path class="st2" d="M110.2,164.6H60.5c-1,0-1.8-0.8-1.8-1.8v-49.7c0-1,0.8-1.8,1.8-1.8h36.4c0.5,0,0.9-0.2,1.2-0.5l4.1-3.9
				c1.2-1.1,0.4-3.1-1.2-3.1H53c-1,0-1.8,0.8-1.8,1.8v64.8c0,1,0.8,1.8,1.8,1.8h64.8c1,0,1.8-0.8,1.8-1.8v-26.5c0-1-0.8-1.8-1.8-1.8
				h-3.9c-1,0-1.8,0.8-1.8,1.8v19C112,163.8,111.2,164.6,110.2,164.6z"/>
			<path class="st3" d="M126.4,112.8c0.6,0.6,0.9,1.4,0.9,2.2c0,0.8-0.3,1.7-0.9,2.3L89.8,154c-1.3,1.3-3.3,1.3-4.5,0l-22.5-22.5
				c-0.6-0.6-0.9-1.4-0.9-2.3c0-0.9,0.3-1.7,0.9-2.3l3.9-3.9c1.2-1.2,3.3-1.3,4.5,0l16.3,16h0.1l30.3-30.1c1.2-1.2,3.2-1.2,4.5,0
				L126.4,112.8z"/>
		</g>
		<g>
			<path class="st2" d="M112,263.2c0,1-0.8,1.8-1.8,1.8H60.5c-1,0-1.8-0.8-1.8-1.8v-49.7c0-1,0.8-1.8,1.8-1.8h36.4
				c0.5,0,0.9-0.2,1.2-0.5l4.1-3.9c1.2-1.1,0.4-3.1-1.2-3.1H53c-1,0-1.8,0.8-1.8,1.8v64.8c0,1,0.8,1.8,1.8,1.8h64.8
				c1,0,1.8-0.8,1.8-1.8v-26.5c0-1-0.8-1.8-1.8-1.8h-3.9c-1,0-1.8,0.8-1.8,1.8L112,263.2L112,263.2z"/>
			<path class="st3" d="M126.4,213.3c0.6,0.6,0.9,1.4,0.9,2.2s-0.3,1.7-0.9,2.3l-36.6,36.6c-1.3,1.3-3.3,1.3-4.5,0l-22.5-22.5
				c-0.6-0.6-0.9-1.4-0.9-2.3c0-0.9,0.3-1.7,0.9-2.3l3.9-3.9c1.2-1.2,3.3-1.3,4.5,0l16.3,16h0.1l30.3-30.1c1.2-1.2,3.2-1.2,4.5,0
				L126.4,213.3z"/>
		</g>
	</g>
	<g>
		<path class="st2" d="M340.6,240.2H159.1c-2.3,0-4.2-1.9-4.2-4.2v-5c0-2.3,1.9-4.2,4.2-4.2h181.5c2.3,0,4.2,1.9,4.2,4.2v4.9
			C344.8,238.3,342.9,240.2,340.6,240.2z"/>
		<path class="st2" d="M292.3,209.5H159.1c-2.3,0-4.2-1.9-4.2-4.2v-4.9c0-2.3,1.9-4.2,4.2-4.2h133.2c2.3,0,4.2,1.9,4.2,4.2v4.9
			C296.5,207.6,294.6,209.5,292.3,209.5z"/>
		<path class="st2" d="M340.6,270.8H159.1c-2.3,0-4.2-1.9-4.2-4.2v-4.9c0-2.3,1.9-4.2,4.2-4.2h181.5c2.3,0,4.2,1.9,4.2,4.2v4.9
			C344.8,268.9,342.9,270.8,340.6,270.8z"/>
		<path class="st2" d="M340.6,178.8H159.1c-2.3,0-4.2-1.9-4.2-4.2v-4.9c0-2.3,1.9-4.2,4.2-4.2h181.5c2.3,0,4.2,1.9,4.2,4.2v4.9
			C344.8,176.9,342.9,178.8,340.6,178.8z"/>
		<path class="st2" d="M340.6,148.2H159.1c-2.3,0-4.2-1.9-4.2-4.2v-5c0-2.3,1.9-4.2,4.2-4.2h181.5c2.3,0,4.2,1.9,4.2,4.2v4.9
			C344.8,146.3,342.9,148.2,340.6,148.2z"/>
		<path class="st2" d="M245.6,117.5h-86.5c-2.3,0-4.2-1.9-4.2-4.2v-4.9c0-2.3,1.9-4.2,4.2-4.2h86.5c2.3,0,4.2,1.9,4.2,4.2v4.9
			C249.8,115.6,248,117.5,245.6,117.5z"/>
		<path class="st2" d="M340.6,443.9H159.1c-2.3,0-4.2-1.9-4.2-4.2v-4.9c0-2.3,1.9-4.2,4.2-4.2h181.5c2.3,0,4.2,1.9,4.2,4.2v4.9
			C344.8,442.1,342.9,443.9,340.6,443.9z"/>
		<path class="st2" d="M281.8,413.3H159.1c-2.3,0-4.2-1.9-4.2-4.2v-4.9c0-2.3,1.9-4.2,4.2-4.2h122.7c2.3,0,4.2,1.9,4.2,4.2v4.9
			C286,411.4,284.1,413.3,281.8,413.3z"/>
		<path class="st2" d="M297.9,474.6H159.1c-2.3,0-4.2-1.9-4.2-4.2v-4.9c0-2.3,1.9-4.2,4.2-4.2h138.8c2.3,0,4.2,1.9,4.2,4.2v4.9
			C302.1,472.7,300.2,474.6,297.9,474.6z"/>
		<path class="st2" d="M340.6,382.6H159.1c-2.3,0-4.2-1.9-4.2-4.2v-4.9c0-2.3,1.9-4.2,4.2-4.2h181.5c2.3,0,4.2,1.9,4.2,4.2v4.9
			C344.8,380.7,342.9,382.6,340.6,382.6z"/>
		<path class="st2" d="M340.6,351.9H159.1c-2.3,0-4.2-1.9-4.2-4.2v-4.9c0-2.3,1.9-4.2,4.2-4.2h181.5c2.3,0,4.2,1.9,4.2,4.2v4.9
			C344.8,350.1,342.9,351.9,340.6,351.9z"/>
		<path class="st2" d="M245.6,321.3h-86.5c-2.3,0-4.2-1.9-4.2-4.2v-4.9c0-2.3,1.9-4.2,4.2-4.2h86.5c2.3,0,4.2,1.9,4.2,4.2v4.9
			C249.8,319.4,248,321.3,245.6,321.3z"/>
		<path class="st2" d="M215,65.9H55.9c-2.6,0-4.7-2.1-4.7-4.7v-4.6c0-2.6,2.1-4.7,4.7-4.7H215c2.6,0,4.7,2.1,4.7,4.7v4.6
			C219.8,63.8,217.6,65.9,215,65.9z"/>
	</g>
</g>
<path class="st4" d="M489.7,117.6c-0.3-0.2-0.5-0.4-0.7-0.5c-0.1-0.2-0.2-0.3-0.3-0.4c-3.4-2.3-4.7-2.9-5.2-3h-0.1
	c-0.1-0.5-0.3-0.7-0.3-0.7c0.8,0.2,1.3-0.8,1.3-0.8c5.8-8.9-9.4-17.9-9.4-17.9s-14.4-10.4-20.2-1.6c-0.1,0-0.8,0.8-0.3,1.5
	c-0.2,0-2.3-0.4-6,5c-3.9,5.7-29.3,38-47.9,65.9c-18.4,27.6-51,77.5-51.7,78.5l-0.1-0.1c-0.2-0.1-0.4-0.1-0.5,0.1l-9,13.6
	c-0.7,1.1-0.4,2.6,0.7,3.3L216.4,465.2c-9,17.6-18.3,37.5-25.5,54.6h0.1c-1.6,3.7-3.5,8.3-4.7,11.5c-0.1,0.3,0,0.7,0.3,0.9
	s0.7,0.2,1-0.1c4.3-4.4,10.6-10.8,13-13.3h-0.1c11.4-12.1,36-40.9,36-40.9c48.6-58.6,95-128.6,137.8-194.8l1.1,0.8
	c1.1,0.7,2.6,0.4,3.3-0.7l9-13.6c0.1-0.2,0.1-0.4-0.1-0.5V269c0,0,33.4-50.4,51.8-78.5c17.6-27.1,36.4-61.5,41.1-69.2
	c1.1,0.9,2.4,2.2,3.3,3.9c0.1,0,0.1,0,0.1,0c-0.1,0-0.1,0.1-0.1,0.1c0.8,1.5,1.1,3.4,0.4,5.6c-2.1,6.5-24.7,43-24.7,43
	s-6.5,19.1-8.5,26c-2.1,6.9-41.8,63.4-41.8,63.4c-2,2.4-4.2,5.2-11.8,9.6c-4.1,2.4-8.1,13.5-8.1,13.5s-0.8,6.9,6.1,1.9
	c6.9-4.9,33.4-44.1,33.4-44.1s62.6-94.3,68.3-113.7C497.1,130.5,499.1,124.2,489.7,117.6z"/>
<g>
	<path class="st5" d="M447.4,94.2L476,113c0.8,0.2,1.3-0.8,1.3-0.8c5.8-8.9-9.4-17.9-9.4-17.9s-14.4-10.4-20.2-1.6
		C447.6,92.7,446.9,93.5,447.4,94.2z"/>
	<path class="st5" d="M361.1,256.3l-10.5,15.9l-17.7-11.7c-1.1-0.7-1.4-2.2-0.7-3.3l9-13.6c0.1-0.2,0.3-0.2,0.5-0.1L361.1,256.3z"/>
	<path class="st6" d="M350.7,272.2L217.9,473.9l-9.6-6.3c34.9-68.7,81.5-139.9,125.9-206.2L350.7,272.2z"/>
	<path class="st7" d="M208.2,467.6c-9,17.6-17.2,35.1-24.4,52.2l5.3,3.5c12.9-13.4,25.7-27.8,38.4-43L208.2,467.6z"/>
	<path class="st8" d="M186.4,513.9c0.1-0.3-4.9,11.4-7.2,17.4c-0.1,0.3,0,0.7,0.3,0.9s0.7,0.2,1-0.1c4.3-4.4,10.6-10.8,13-13.3
		L186.4,513.9z"/>
	<path d="M227.2,480.6l0.6-0.7L227.2,480.6z"/>
	<path class="st6" d="M461.7,103.6L361.1,256.3l-19.3-12.7c0,0,33.1-50.6,51.7-78.5s44-60.2,47.9-65.9c3.9-5.7,6-5,6-5
		C451.5,96.9,456.6,100.2,461.7,103.6z"/>
	<path class="st9" d="M476.2,113.7c0,0,0.1,0,0.2,0C476.3,113.7,476.3,113.8,476.2,113.7C476.2,113.8,476.2,113.7,476.2,113.7z"/>
	<path class="st10" d="M421.7,244.2c0,0-26.5,39.2-33.4,44.1c-6.9,5-6.1-1.9-6.1-1.9s4-11.1,8.1-13.5c7.6-4.4,9.8-7.2,11.8-9.6
		c0,0,39.7-56.5,41.8-63.4c2-6.9,8.5-26,8.5-26s22.6-36.5,24.7-43c0.7-2.2,0.4-4.1-0.4-5.6c1.5-2.5,3.3-5.5,4.9-8.4
		c0.3,0.2,0.6,0.4,1,0.7c9.4,6.6,7.4,12.9,7.4,12.9C484.3,149.9,421.7,244.2,421.7,244.2z"/>
	<path d="M183.6,520.2l0.5-0.8L183.6,520.2z"/>
	<path class="st8" d="M380.5,269l-19.3-12.7l100.5-152.7c5.1,3.4,10.2,6.7,14.3,9.4c0,0,0.2,0.2,0.3,0.7c0.2,0.9,0,3-2.4,6.8
		c-0.1,0.2-0.3,0.4-0.4,0.7c-4.6,7.5-23.5,42.1-41.2,69.3C413.9,218.6,380.5,269,380.5,269z"/>
	<path class="st8" d="M227.5,480.2l-9.6-6.3l132.8-201.7l16.5,10.9C323.8,350.1,276.8,421,227.5,480.2z"/>
	<path class="st9" d="M380.6,269.6l-9,13.6c-0.7,1.1-2.2,1.4-3.3,0.7l-17.7-11.7l10.5-15.9l19.4,12.8
		C380.7,269.2,380.7,269.4,380.6,269.6z"/>
	<path class="st11" d="M476.7,125.2c-0.9-1.8-2.3-3.1-3.4-4c0.2-0.3,0.3-0.5,0.4-0.7c2.3-3.6,2.6-5.7,2.5-6.7c0.1,0,0.1-0.1,0.2-0.1
		c0.5,0.1,1.8,0.7,5.2,3C483.4,118.3,479,125.3,476.7,125.2z"/>
</g>
</svg>
