<?xml version="1.0" encoding="utf-8"?>
<!-- Generator: Adobe Illustrator 24.1.1, SVG Export Plug-In . SVG Version: 6.00 Build 0)  -->
<svg version="1.1" id="Ñëîé_1" xmlns="http://www.w3.org/2000/svg" xmlns:xlink="http://www.w3.org/1999/xlink" x="0px" y="0px"
	 viewBox="0 0 1516.5 1133.6" style="enable-background:new 0 0 1516.5 1133.6;" xml:space="preserve">
<style type="text/css">
	.st0{opacity:0.3;fill:#CBE0FF;enable-background:new    ;}
	.st1{fill:url(#SVGID_1_);}
	.st2{fill:#F5FCFF;}
	.st3{fill:#2C4482;}
	.st4{fill:#DFF1F7;}
	.st5{fill:#3A73D6;}
	.st6{fill:#29ABE2;}
	.st7{fill:#0071BC;}
	.st8{fill:#1B1464;}
	.st9{fill:#83B5E5;}
	.st10{fill:#B0CCF4;}
	.st11{fill:#2E3192;}
	.st12{fill:#2855C6;}
	.st13{fill:#0000FF;}
	.st14{opacity:0.4;fill:#CBE0FF;enable-background:new    ;}
	.st15{fill:#2186D8;}
	.st16{fill:#24C8E3;}
	.st17{fill:#EFF8FF;}
	.st18{fill:#95B2CE;}
	.st19{fill:#D3830F;}
	.st20{fill:#FFDB2C;}
	.st21{fill:#8C6239;}
	.st22{fill:#C69C6D;}
	.st23{fill:#DFEBF7;}
	.st24{fill:#FFFFFF;}
	.st25{fill:url(#SVGID_2_);}
	.st26{fill:#F49F64;}
	.st27{fill:#3FAA3F;}
	.st28{fill:#132147;}
	.st29{fill:url(#SVGID_3_);}
	.st30{fill:#8AE3F3;}
	.st31{fill:url(#SVGID_4_);}
	.st32{fill:#E6F4FB;}
	.st33{fill:#6CBDE0;}
	.st34{opacity:0.2;fill:#CBE0FF;enable-background:new    ;}
	.st35{fill:#629DF4;}
	.st36{fill:url(#SVGID_5_);}
	.st37{fill:#8C8CEA;}
	.st38{fill:url(#SVGID_6_);}
	.st39{fill:url(#SVGID_7_);}
	.st40{fill:url(#SVGID_8_);}
	.st41{fill:url(#SVGID_9_);}
	.st42{fill:url(#SVGID_10_);}
	.st43{fill:url(#SVGID_11_);}
	.st44{fill:url(#SVGID_12_);}
	.st45{fill:url(#SVGID_13_);}
	.st46{fill:#78CAED;}
	.st47{fill:#0C0C4C;}
	.st48{fill:#F4DE5B;}
	.st49{fill:#73EBFF;}
	.st50{fill:#24C5FE;}
	.st51{fill:#FFCE00;}
	.st52{fill:#8EC1FE;}
	.st53{fill:#54A2EF;}
	.st54{fill:#0A0447;}
	.st55{fill:#44387C;}
	.st56{fill:#D6276E;}
	.st57{fill:url(#SVGID_14_);}
	.st58{fill:url(#SVGID_15_);}
	.st59{fill:url(#SVGID_16_);}
	.st60{fill:url(#SVGID_17_);}
	.st61{fill:#EFEFEF;}
	.st62{fill:url(#SVGID_18_);}
	.st63{fill:url(#SVGID_19_);}
	.st64{fill:url(#SVGID_20_);}
	.st65{fill:url(#SVGID_21_);}
	.st66{fill:url(#SVGID_22_);}
	.st67{fill:url(#SVGID_23_);}
</style>
<g>
	<g>
		<polygon class="st0" points="565.1,958.8 363.1,1070.3 464.5,1133.6 671,1016.9 		"/>
		
			<linearGradient id="SVGID_1_" gradientUnits="userSpaceOnUse" x1="453.5" y1="264.4" x2="722.2" y2="264.4" gradientTransform="matrix(-1 0 0 1 1114.5 774)">
			<stop  offset="0" style="stop-color:#4FA6F7"/>
			<stop  offset="1" style="stop-color:#4F3DD6"/>
		</linearGradient>
		<polygon class="st1" points="661,1008.9 568.9,962 392.3,1054.2 392.3,1059.5 482.9,1114.8 661,1014.2 		"/>
		<polygon class="st2" points="568.9,956.7 392.3,1054.2 482.9,1109.5 661,1008.9 		"/>
		<polygon class="st3" points="568.8,963.7 419.7,1046.1 499.3,1093.1 648.5,1008.9 		"/>
		<path class="st4" d="M438,1075.7c0,3.6,4.9,6.5,10.9,6.5s10.9-2.9,10.9-6.5s-4.9-6.5-10.9-6.5S438,1072.1,438,1075.7z"/>
	</g>
	<polygon class="st0" points="309.6,856.7 185.1,927.2 325.6,1007 448.4,936.9 	"/>
	<path class="st0" d="M455.4,839.3c-4.9,7.5-5,13.1-2.7,17.6l0,0l0,0c0.8,1.6,1.9,3,3.2,4.3l0,0c0.6,0.6,1.3,1.2,2,1.8
		c0.1,0,0.2,0.1,0.3,0.2c0.6,0.5,1.4,1.1,2.1,1.6c0.1,0.1,0.3,0.2,0.6,0.4c0.1,0.1,0.2,0.1,0.3,0.2c0.2,0.1,0.4,0.2,0.7,0.4
		c0.2,0.1,0.4,0.2,0.6,0.3c0.3,0.2,0.6,0.3,0.9,0.5c0.2,0.2,0.5,0.3,0.8,0.5c0.4,0.2,0.7,0.4,1.1,0.6c0.3,0.1,0.7,0.3,1,0.5
		c0.5,0.3,0.9,0.5,1.4,0.8c0.4,0.2,0.7,0.4,1.1,0.6c0.5,0.3,1.1,0.6,1.6,0.9c0.4,0.2,0.8,0.5,1.2,0.7c0.6,0.3,1.1,0.6,1.7,0.9
		c0.5,0.3,1,0.5,1.5,0.8c0.6,0.3,1.1,0.6,1.7,0.9c0.6,0.4,1.2,0.7,1.8,1c0.4,0.2,0.9,0.5,1.3,0.7c1.5,0.8,3.1,1.6,4.7,2.5
		c0.4,0.2,0.8,0.4,1.2,0.6c0.6,0.4,1.3,0.7,2,1.1c0.7,0.4,1.3,0.7,2,1.1c0.8,0.4,1.7,0.9,2.5,1.3c0.5,0.3,1.1,0.6,1.6,0.9
		c0.9,0.5,1.7,0.9,2.6,1.4c0.6,0.3,1.2,0.7,1.8,1c0.8,0.4,1.7,0.9,2.5,1.3c0.6,0.3,1.3,0.7,1.9,1c0.9,0.4,1.8,0.9,2.7,1.4
		c0.6,0.3,1.1,0.6,1.7,0.9c0.9,0.5,1.9,1,2.8,1.5c0.6,0.3,1.2,0.6,1.8,0.9c0.9,0.5,1.9,1,2.8,1.5c0.5,0.3,1,0.5,1.5,0.8
		c1.1,0.6,2.1,1.1,3.2,1.7c0.1,0,0.3,0.1,0.4,0.2c4.3,2.2,8.5,4.4,12.6,6.5h0.1c1.1,0.6,2.2,1.2,3.3,1.7c0.3,0.2,0.7,0.4,1.1,0.6
		c1,0.5,2,1,3,1.5c0.5,0.2,0.9,0.4,1.3,0.6c0.9,0.5,1.9,0.9,2.8,1.4c0.5,0.2,0.9,0.4,1.3,0.6c0.9,0.4,1.8,0.9,2.7,1.3
		c0.4,0.2,0.9,0.4,1.3,0.6c0.9,0.4,1.7,0.8,2.5,1.2c0.5,0.2,0.9,0.4,1.3,0.6c0.7,0.4,1.5,0.7,2.3,1.1c0.4,0.2,0.7,0.3,1.1,0.5
		c0.8,0.4,1.6,0.8,2.3,1.1c0.2,0.1,0.5,0.3,0.8,0.4c0.7,0.3,1.5,0.7,2.2,1c0.1,0,0.1,0.1,0.2,0.1c5,2.3,8.7,3.8,10.4,4.2
		c38.6,8.4,63.4-14.5,57.1-31.7c-27.5-74.5-98-83.2-131.3-74.1c-4.6,1.2-13.3,5.1-21.7,9.4l0,0c-1.1,0.6-2.2,1.2-3.3,1.8l0,0
		C464.5,831.4,457.3,836.1,455.4,839.3z"/>
	<polygon class="st0" points="1316.3,395 1141.3,487.8 1342.3,608.1 1516.5,507.5 	"/>
	<g>
		<path class="st5" d="M487,834.4c-6.5,10.7-2.5,16.9,3.9,21.8c3.1,2.4,79.6,46.5,88.7,48.6c30.6,7.1,50.3-12.4,45.3-27.1
			c-21.9-63.6-77.9-71.1-104.4-63.3C512.6,816.7,490.1,828.9,487,834.4z"/>
		<path class="st3" d="M484.8,849.3c1.2,2.6,3.4,4.8,6,6.8c2.8,2.2,65.5,38.4,84.3,46.9c-2.4-9-8.9-27.4-26.9-41
			C525,844.4,498.3,846.6,484.8,849.3z"/>
		<path class="st3" d="M503.2,822.5c-3.5,1.9-7,4-9.8,6c14.5-3.7,24.2-0.2,28,1.6c1.1,0.5,2.4,0.3,3.3-0.5c1.7-1.4,1.3-4-0.6-5
			C520.7,823,514.4,821.3,503.2,822.5z"/>
	</g>
	<polygon class="st6" points="1502.2,479 1316,371.7 1316,393.6 1501.8,502.1 	"/>
	<polygon class="st7" points="1316.3,395 1180.3,473.1 1366,580.5 1501.8,502.1 	"/>
	<polygon class="st8" points="1316.7,371.9 1180.6,450.2 1366.4,557.5 1502.2,479 	"/>
	<polygon class="st9" points="1497.1,482 1366.4,557.5 1367.3,574.2 1497.2,499.6 	"/>
	<polygon class="st10" points="1366.4,557.5 1190.2,455.8 1190.2,472 1367.3,574.2 	"/>
	<g>
		<polygon class="st11" points="1365.5,580.1 1365.4,582.4 1501.8,503.6 1502.2,479 1365.9,557 1365.8,559.3 1500.2,482.2 
			1499.8,502.5 		"/>
	</g>
	<polygon class="st5" points="1228.4,422.3 1209.2,433.3 1396.2,541.3 1414,529.4 	"/>
	<polygon class="st12" points="1414,529.4 1394.8,540.5 1395.5,565.5 1414,554.8 	"/>
	<g>
		<polygon class="st11" points="1365.9,557 1180.6,450.2 1180.6,452.3 1365.8,559.3 		"/>
	</g>
	<g>
		<polygon class="st13" points="1365.5,580.1 1180.3,473.1 1180.3,475.3 1365.4,582.4 		"/>
	</g>
	<g>
		<path class="st14" d="M1061.7,674.7l-54.4,31.5l0.8,6.5L1289.5,875l214.6-122.4l-306.4-156.5l-43.7,25.3l-6.5-3.8l-24.9,14
			c-7.9-7.6-23.5-9.1-33.3-3c-4.1,2.5-6.7,7-7.1,12.3c-0.4,4.2,0.7,8.4,2.8,11.8l-28.3,16v2.8L1061.7,674.7z M1093.2,641.8
			c0.1-0.8,0.4-2.9,1.9-3.8c4.7-2.9,12-2.6,16.8-0.4l-17.2,9.7C1093.6,646,1093.1,643.9,1093.2,641.8z"/>
		<g>
			<polygon class="st15" points="1231.7,596.8 1040.7,700.4 1041.5,706.9 1295.1,853.2 1485,743 1484.2,736.5 			"/>
			<polygon class="st16" points="1230.9,590.3 1040.7,700.4 1294.3,846.7 1484.2,736.5 			"/>
			<polygon class="st17" points="1218.9,605.6 1067.3,693.4 1282.2,817.4 1433.6,729.6 			"/>
			<g>
				<g>
					<path class="st18" d="M1149.2,694.5c0.8,1.5,2.7,2,4.2,1.1l72.3-42c1.5-0.8,2-2.7,1.1-4.2c-0.8-1.5-2.7-2-4.2-1.1l-72.3,42
						C1148.8,691.2,1148.3,693.1,1149.2,694.5z"/>
				</g>
				<g>
					<path class="st18" d="M1161.5,701.6L1161.5,701.6c0.8,1.5,2.7,2,4.2,1.1l72.3-42c1.5-0.8,2-2.7,1.1-4.2l0,0
						c-0.8-1.5-2.7-2-4.2-1.1l-72.3,42C1161.1,698.3,1160.6,700.2,1161.5,701.6z"/>
				</g>
				<g>
					<path class="st18" d="M1167.2,729.9L1167.2,729.9c0.8,1.5,2.7,2,4.2,1.1l108.2-62.8c1.5-0.8,2-2.7,1.1-4.2l0,0
						c-0.8-1.5-2.7-2-4.2-1.1l-108.2,62.8C1166.8,726.5,1166.3,728.4,1167.2,729.9z"/>
				</g>
				<g>
					<path class="st18" d="M1180.1,736.7c0.8,1.5,2.7,2,4.2,1.1l107.9-62.6c1.5-0.8,2-2.7,1.1-4.2l0,0c-0.8-1.5-2.7-2-4.2-1.1
						l-107.9,62.6C1179.7,733.3,1179.2,735.2,1180.1,736.7z"/>
				</g>
				<g>
					<path class="st18" d="M1203.9,751L1203.9,751c0.8,1.5,2.7,2,4.2,1.1l105.8-61.4c1.5-0.8,2-2.7,1.1-4.2l0,0
						c-0.8-1.5-2.7-2-4.2-1.1L1205,746.8C1203.5,747.7,1203,749.6,1203.9,751z"/>
				</g>
				<g>
					<path class="st18" d="M1216.8,757.3L1216.8,757.3c0.8,1.5,2.7,2,4.2,1.1l106.4-61.7c1.5-0.8,2-2.7,1.1-4.2
						c-0.8-1.5-2.7-2-4.2-1.1l-106.4,61.7C1216.4,754,1215.9,755.9,1216.8,757.3z"/>
				</g>
				<g>
					<path class="st18" d="M1192.5,743.5c0.8,1.5,2.7,2,4.2,1.1l64.4-37.4c1.5-0.8,2-2.7,1.1-4.2c-0.8-1.5-2.7-2-4.2-1.1l-64.4,37.4
						C1192.1,740.2,1191.6,742.1,1192.5,743.5z"/>
				</g>
				<g>
					<path class="st18" d="M1274.3,696L1274.3,696c0.8,1.5,2.7,2,4.2,1.1l23.3-13.5c1.5-0.8,2-2.7,1.1-4.2l0,0
						c-0.8-1.5-2.7-2-4.2-1.1l-23.3,13.5C1273.9,692.7,1273.4,694.6,1274.3,696z"/>
				</g>
				<g>
					<path class="st18" d="M1240,771.9L1240,771.9c0.8,1.5,2.7,2,4.2,1.1l48.2-28c1.5-0.8,2-2.7,1.1-4.2l0,0c-0.8-1.5-2.7-2-4.2-1.1
						l-48.2,28C1239.7,768.6,1239.2,770.5,1240,771.9z"/>
				</g>
				<g>
					<path class="st18" d="M1300.8,736.7c0.8,1.5,2.7,2,4.2,1.1l46.6-27c1.5-0.8,2-2.7,1.1-4.2c-0.8-1.5-2.7-2-4.2-1.1l-46.6,27
						C1300.4,733.3,1299.9,735.2,1300.8,736.7z"/>
				</g>
				<g>
					<path class="st18" d="M1228.4,764.6c0.8,1.5,2.7,2,4.2,1.1l64.4-37.4c1.5-0.8,2-2.7,1.1-4.2c-0.8-1.5-2.7-2-4.2-1.1l-64.4,37.4
						C1228,761.2,1227.5,763.1,1228.4,764.6z"/>
				</g>
				<g>
					<path class="st18" d="M1310.2,717.1L1310.2,717.1c0.8,1.5,2.7,2,4.2,1.1l25-14.5c1.5-0.8,2-2.7,1.1-4.2l0,0
						c-0.8-1.5-2.7-2-4.2-1.1l-25,14.5C1309.8,713.8,1309.3,715.7,1310.2,717.1z"/>
				</g>
				<g>
					<path class="st18" d="M1263.3,785.4L1263.3,785.4c0.8,1.5,2.7,2,4.2,1.1L1289,774c1.5-0.8,2-2.7,1.1-4.2l0,0
						c-0.8-1.5-2.7-2-4.2-1.1l-21.5,12.5C1262.9,782,1262.4,783.9,1263.3,785.4z"/>
				</g>
				<g>
					<path class="st18" d="M1298.2,765.1L1298.2,765.1c0.8,1.5,2.7,2,4.2,1.1l72.5-42.1c1.5-0.8,2-2.7,1.1-4.2l0,0
						c-0.8-1.5-2.7-2-4.2-1.1l-72.5,42.1C1297.8,761.8,1297.3,763.7,1298.2,765.1z"/>
				</g>
				<g>
					<path class="st18" d="M1252.1,778.9c0.8,1.5,2.7,2,4.2,1.1l62.8-36.4c1.5-0.8,2-2.7,1.1-4.2c-0.8-1.5-2.7-2-4.2-1.1l-62.8,36.4
						C1251.7,775.5,1251.2,777.4,1252.1,778.9z"/>
				</g>
				<g>
					<path class="st18" d="M1332.3,732.4L1332.3,732.4c0.8,1.5,2.7,2,4.2,1.1l27.2-15.8c1.5-0.8,2-2.7,1.1-4.2l0,0
						c-0.8-1.5-2.7-2-4.2-1.1l-27.2,15.8C1331.9,729,1331.4,730.9,1332.3,732.4z"/>
				</g>
			</g>
			<polygon class="st19" points="1180.7,614.5 1090,662.9 1090,665.6 1127.4,689.4 1219.8,637.7 1219.8,634.9 			"/>
			<g>
				<path class="st20" d="M1115.4,635.1c-0.5,5.9,1.7,11.8,5.7,15.3l7.3-8.3c-1.4-1.2-2.2-3.7-2-6.1c0.1-0.8,0.4-2.9,1.9-3.8
					c5.9-3.7,16.3-2.2,20,1.7l8-7.6c-7.7-8.1-23.8-9.7-33.8-3.5C1118.5,625.3,1115.9,629.8,1115.4,635.1z"/>
			</g>
			<polygon class="st20" points="1180.7,611.7 1090,662.9 1127.4,686.6 1219.8,634.9 			"/>
		</g>
	</g>
	<g>
		<polygon class="st0" points="907.8,817.4 639.9,967.1 859,1091.5 1145.8,927.7 		"/>
		<polygon class="st21" points="942,823.3 681.9,943.8 681.9,951.7 878.7,1063.4 1128.4,920.8 1128.4,913 		"/>
		<polygon class="st22" points="942,815.5 681.9,943.8 878.7,1055.6 1128.4,913 		"/>
		<polygon class="st9" points="953.9,831.5 699.5,898 699.5,943.8 878.7,1045.6 1110.4,913.3 1111.4,868.4 		"/>
		<polygon class="st10" points="877.8,851.4 699.5,898 699.5,943.8 877.8,1045.1 		"/>
		<polygon class="st23" points="939.9,770 831.6,857.2 993.6,956.6 1111.4,868.4 		"/>
		<polygon class="st24" points="831.6,857.2 699.5,898 875.8,1003.6 993.6,956.6 		"/>
		<g>
			<path class="st18" d="M880.8,844.2c0.8,1.1,2.3,1.3,3.4,0.5l56.7-41.2c1.1-0.8,1.3-2.3,0.5-3.4c-0.8-1.1-2.3-1.3-3.4-0.5
				l-56.7,41.2C880.2,841.6,879.9,843.1,880.8,844.2z"/>
		</g>
		<g>
			<path class="st18" d="M879.6,867.6c0.8,1.1,2.3,1.3,3.4,0.5l85.2-61.8c1.1-0.8,1.3-2.3,0.5-3.4c-0.8-1.1-2.3-1.3-3.4-0.5
				l-85.2,61.8C879,865,878.7,866.5,879.6,867.6z"/>
		</g>
		<g>
			<path class="st18" d="M892.7,875.8c0.8,1.1,2.3,1.3,3.4,0.5l87.3-63.3c1.1-0.8,1.3-2.3,0.5-3.4c-0.8-1.1-2.3-1.3-3.4-0.5
				l-87.3,63.4C892.1,873.3,891.9,874.8,892.7,875.8z"/>
		</g>
		<g>
			<path class="st18" d="M904.1,884.6c0.8,1.1,2.3,1.3,3.4,0.5l87.3-63.3c1.1-0.8,1.3-2.3,0.5-3.4c-0.8-1.1-2.3-1.3-3.4-0.5
				l-87.3,63.3C903.5,882,903.3,883.5,904.1,884.6z"/>
		</g>
		<g>
			<path class="st18" d="M928.1,900.7c0.8,1.1,2.3,1.3,3.4,0.5l87.3-63.3c1.1-0.8,1.3-2.3,0.5-3.4s-2.3-1.3-3.4-0.5l-87.2,63.3
				C927.6,898.1,927.3,899.6,928.1,900.7z"/>
		</g>
		<g>
			<path class="st18" d="M945.4,909.6c0.8,1.1,2.3,1.3,3.4,0.5l87.3-63.3c1.1-0.8,1.3-2.3,0.5-3.4c-0.8-1.1-2.3-1.3-3.4-0.5
				l-87.3,63.3C944.8,907,944.5,908.6,945.4,909.6z"/>
		</g>
		
			<linearGradient id="SVGID_2_" gradientUnits="userSpaceOnUse" x1="153.5001" y1="115.4372" x2="304.4894" y2="115.4372" gradientTransform="matrix(-1 0 0 1 1114.5 774)">
			<stop  offset="0" style="stop-color:#5C1F8E"/>
			<stop  offset="1" style="stop-color:#515CA5"/>
		</linearGradient>
		<path class="st25" d="M811.6,851L811.6,851L811.6,851c0.2,0.2,0.3,0.2,0.6,0.4l140,88.3l8.8-11.2l-142.1-89.1
			c-1.7-0.7-4.8,0.2-7.1,3.1S809.4,849.2,811.6,851L811.6,851z"/>
		<path class="st26" d="M953.3,930.6c-2.1,2.9-3.4,7.5-1.1,8.9c0.9,0.6,15.9,1.8,15.9,1.8s-6.7-12.6-7.1-12.9
			C958.9,926.9,955.4,927.9,953.3,930.6z"/>
		<path class="st27" d="M963.2,937.3c-0.9,1.2-1,2.6-1,3.5c3.1,0.3,5.8,0.5,5.8,0.5s-1.4-2.7-3-5.6
			C964.4,936.1,963.7,936.6,963.2,937.3z"/>
	</g>
	<g>
		<path class="st28" d="M323.4,861.9l-83.9,41.8l0.1,8.5c0,1.7,0.8,3.3,2.3,4.1l107.4,62c3.9,2.3,8.8,2.3,12.7,0l74.7-43.1
			c1.8-1,2.8-2.8,2.8-4.8v-7.7L323.4,861.9z"/>
		<path class="st3" d="M241.7,907.8l108.8,62.8c3.2,1.9,7.2,1.9,10.4,0l76.5-44.2c2.8-1.6,2.8-5.6,0-7.2L328,856
			c-2.8-1.6-6.1-1.6-8.9,0l-77.4,44.5C239,902.1,239,906,241.7,907.8z"/>
		
			<linearGradient id="SVGID_3_" gradientUnits="userSpaceOnUse" x1="779.2334" y1="94.2297" x2="858.4689" y2="139.6992" gradientTransform="matrix(-1 0 0 1 1114.5 774)">
			<stop  offset="0" style="stop-color:#4FE0D6"/>
			<stop  offset="1" style="stop-color:#4FABE2"/>
		</linearGradient>
		<polygon class="st29" points="272.3,915.5 343.9,875 323.6,863.2 252.6,904.1 		"/>
		<polygon class="st30" points="323.6,863.2 252.6,904.1 272.3,915.5 343.9,875 		"/>
		
			<linearGradient id="SVGID_4_" gradientUnits="userSpaceOnUse" x1="755.8" y1="146.6" x2="794.7" y2="146.6" gradientTransform="matrix(-1 0 0 1 1114.5 774)">
			<stop  offset="0" style="stop-color:#EEFFFF"/>
			<stop  offset="1" style="stop-color:#C6DCF4"/>
		</linearGradient>
		<path class="st31" d="M319.8,920.8l20-11.3l18.9,10.9l-20,11.3L319.8,920.8z M339.7,911.9l-15.7,8.9l14.7,8.4l15.7-8.9
			L339.7,911.9z"/>
		<polygon class="st13" points="304.8,910.9 284.4,922.5 301.5,932.3 321.9,920.8 		"/>
		<g>
			<polygon class="st32" points="356,881.6 339.3,891.1 356.4,900.9 373.1,891.5 			"/>
			<g>
				<polygon class="st32" points="408.4,911.9 391.8,921.3 410.2,931.9 426.6,922.4 				"/>
				<polygon class="st32" points="339.7,911.1 321.9,921.2 338.7,930.8 356.5,920.7 				"/>
				<polygon class="st32" points="357,920.9 339.2,930.9 359.1,942.4 376.1,931.9 				"/>
				<polygon class="st32" points="322.6,901.2 304.8,911.3 321.9,921.2 339.7,911.1 				"/>
				<polygon class="st32" points="339.3,891.8 322.6,901.2 339.7,911.1 356.4,901.6 				"/>
				<polygon class="st32" points="373.2,911.3 356.5,920.7 375.1,931.4 391.8,922 				"/>
				<polygon class="st32" points="356.4,901.6 339.7,911.1 356.5,920.7 373.2,911.3 				"/>
				<polygon class="st32" points="389.8,901.2 373.2,910.6 391.8,921.3 408.4,911.9 				"/>
				<polygon class="st32" points="321.9,921.2 301.5,932.7 318.3,942.4 338.7,930.8 				"/>
				<polygon class="st32" points="338.7,930.8 318.3,942.4 336.8,953.1 357.3,941.5 				"/>
				<polygon class="st32" points="357.3,941.5 336.8,953.1 355.7,964 376.1,952.3 				"/>
				<polygon class="st32" points="375.1,931.4 357.3,941.5 376.1,952.3 393.7,942.1 				"/>
				<polygon class="st32" points="373.1,891.5 356.4,900.9 373.2,910.6 389.8,901.2 				"/>
				<polygon class="st32" points="391.8,921.3 375.1,930.7 393.7,941.4 410.2,931.9 				"/>
			</g>
		</g>
		<path class="st3" d="M304.8,909.7l-22.5,12.8l19.2,11.1l0,0l16.8,9.7l0,0l18.6,10.7l0,0l18.9,10.9l22.5-13l17.6-10.2l0,0l16.5-9.5
			l16.4-9.5L408.5,911l0,0l-18.6-10.7l0,0l-16.8-9.7l0,0l-17.1-9.9l-16.7,9.5l0,0l-16.7,9.4l0,0L304.8,909.7L304.8,909.7z
			 M330.1,906.4l7.5,4.3l-15.7,8.9l-6.9-3.9l-8.1-4.7l15.7-8.9L330.1,906.4z M373.3,912.2l4.2,2.4l12.2,7l-14.5,8.2l-7.8-4.5l-8.7-5
			l6.7-3.8L373.3,912.2z M364,915l-7.3,4.1l-14.7-8.4l6.8-3.8l7.7-4.4l10.1,5.8l4.5,2.6L364,915z M372.9,931.1l-9,5.1l-6.6,3.7
			l-8.1-4.6l-8.4-4.8l15.7-8.9l13.6,7.8L372.9,931.1z M338.7,929.2L338.7,929.2L338.7,929.2l-14.7-8.4l15.7-8.9l0,0l0,0l14.7,8.4
			L338.7,929.2z M354.2,901.2l-7.5,4.2l-7,4l-8.2-4.7l-6.7-3.9l14.5-8.2L354.2,901.2z M370.9,891.9l-14.5,8.2l-15-8.6l14.6-8.3
			L370.9,891.9z M387.7,901.4l-14.5,8.2l-7.3-4.2l-7.3-4.2l12.3-7l2.2-1.2L387.7,901.4z M406.3,912.1l-14.5,8.2l-6-3.4l-10.5-6
			l14.5-8.2L406.3,912.1z M410.2,931l-4.5-2.6l-11.8-6.8l14.5-8.2l16.1,9.3L410.2,931z M393.7,940.4l-7.3-4.2l-9.1-5.2l14.5-8.2
			l11.1,6.4l5.2,3L393.7,940.4z M376.1,950.6l-16.6-9.5l6.7-3.8l9-5.1l11.9,6.9l4.5,2.6L376.1,950.6z M339,952.7l18.3-10.4l16.6,9.6
			l-18.2,10.5L339,952.7z M320.4,942.1l18.3-10.4l7.7,4.4l8.7,5l-18.3,10.4L320.4,942.1z M303.6,932.3l18.3-10.3l14.7,8.4
			l-18.3,10.4L303.6,932.3z M304.8,912.2l7.8,4.5l7.2,4.1l-17.9,10.1l-0.4,0.2l-14.9-8.6L304.8,912.2z"/>
		<polygon class="st33" points="323.6,863.2 252.6,904.1 255.4,905.7 323.6,866.5 341.1,876.6 343.9,875 		"/>
	</g>
	<g>
		<g>
			<polygon class="st34" points="269.3,619.1 0,771 116.4,843.7 386.2,691.3 			"/>
			<polygon class="st35" points="75.8,650.1 34.4,778.9 275.2,653.8 257.3,545.1 			"/>
			
				<linearGradient id="SVGID_5_" gradientUnits="userSpaceOnUse" x1="775.3" y1="-31.75" x2="1080.1" y2="-31.75" gradientTransform="matrix(-1 0 0 1 1114.5 774)">
				<stop  offset="0" style="stop-color:#4FA6F7"/>
				<stop  offset="1" style="stop-color:#4F3DD6"/>
			</linearGradient>
			<polygon class="st36" points="108.8,822.3 339.2,688.8 259.9,662.2 34.4,778.9 			"/>
			<polygon class="st23" points="311.3,513.9 75.8,650.1 110.7,822.8 340.7,689.4 			"/>
			<g>
				<polygon class="st37" points="191.4,646.3 174.4,656.2 177.1,672.3 194.1,662.5 				"/>
				<polygon class="st37" points="213.9,633.4 196.9,643.2 199.6,659.3 216.6,649.5 				"/>
				<polygon class="st37" points="238.1,619.4 221.1,629.2 223.8,645.4 240.8,635.5 				"/>
				<polygon class="st37" points="195.2,669 178.2,678.8 181.3,696.5 198.3,686.7 				"/>
				<polygon class="st37" points="217.7,656 200.7,665.8 203.8,683.5 220.8,673.7 				"/>
				<polygon class="st37" points="265,628.7 248,638.5 251,656.2 268,646.4 				"/>
				<polygon class="st37" points="241.9,642 224.9,651.8 228,669.5 245,659.7 				"/>
				<polygon class="st37" points="269.2,653.2 252.2,663 254.9,679.2 271.9,669.4 				"/>
				<polygon class="st37" points="221.9,680.5 204.9,690.3 207.7,706.5 224.7,696.7 				"/>
				<polygon class="st37" points="246.1,666.5 229.1,676.3 231.9,692.5 248.9,682.7 				"/>
				<polygon class="st37" points="199.4,693.5 182.4,703.3 185.2,719.5 202.2,709.6 				"/>
				<polygon class="st37" points="203.4,716.8 186.4,726.6 189.2,742.8 206.2,733 				"/>
				<polygon class="st37" points="261.1,606.1 244.1,615.9 246.9,632.1 263.9,622.2 				"/>
				<polygon class="st37" points="273.1,676.5 256.2,686.4 258.9,702.5 275.9,692.7 				"/>
				<polygon class="st37" points="250.1,689.8 233.1,699.7 235.9,715.8 252.9,706 				"/>
				<polygon class="st37" points="225.9,703.8 208.9,713.6 211.7,729.8 228.7,720 				"/>
				<polygon class="st37" points="293.8,664.6 278.6,673.4 281.4,689.6 296.6,680.8 				"/>
				<polygon class="st37" points="285.7,616.8 270.4,625.6 273.4,643.3 288.7,634.5 				"/>
				<polygon class="st37" points="281.8,594.1 266.5,602.9 269.3,619.1 284.6,610.3 				"/>
				<polygon class="st37" points="289.9,641.3 274.6,650.1 277.4,666.2 292.6,657.4 				"/>
			</g>
			<g>
				
					<linearGradient id="SVGID_6_" gradientUnits="userSpaceOnUse" x1="951.8591" y1="-109.4392" x2="966.5376" y2="-11.5832" gradientTransform="matrix(-1 0 0 1 1114.5 774)">
					<stop  offset="0" style="stop-color:#D1426B"/>
					<stop  offset="1" style="stop-color:#BF00A5"/>
				</linearGradient>
				<polygon class="st38" points="171.1,675.8 168.4,659.6 151.8,669.2 154.6,685.3 				"/>
				
					<linearGradient id="SVGID_7_" gradientUnits="userSpaceOnUse" x1="957.7515" y1="-110.3229" x2="972.4299" y2="-12.4672" gradientTransform="matrix(-1 0 0 1 1114.5 774)">
					<stop  offset="0" style="stop-color:#D1426B"/>
					<stop  offset="1" style="stop-color:#BF00A5"/>
				</linearGradient>
				<polygon class="st39" points="153.5,720 136.5,729.8 139.2,746 156.2,736.2 				"/>
				
					<linearGradient id="SVGID_8_" gradientUnits="userSpaceOnUse" x1="965.1965" y1="-111.4399" x2="979.8749" y2="-13.584" gradientTransform="matrix(-1 0 0 1 1114.5 774)">
					<stop  offset="0" style="stop-color:#D1426B"/>
					<stop  offset="1" style="stop-color:#BF00A5"/>
				</linearGradient>
				<polygon class="st40" points="149.3,695.5 132.3,705.3 135.3,723 152.3,713.2 				"/>
				
					<linearGradient id="SVGID_9_" gradientUnits="userSpaceOnUse" x1="972.5413" y1="-112.5415" x2="987.2197" y2="-14.6856" gradientTransform="matrix(-1 0 0 1 1114.5 774)">
					<stop  offset="0" style="stop-color:#D1426B"/>
					<stop  offset="1" style="stop-color:#BF00A5"/>
				</linearGradient>
				<polygon class="st41" points="148.2,689 145.4,672.9 128.4,682.7 131.2,698.8 				"/>
				
					<linearGradient id="SVGID_10_" gradientUnits="userSpaceOnUse" x1="944.4655" y1="-108.33" x2="959.1439" y2="-10.4744" gradientTransform="matrix(-1 0 0 1 1114.5 774)">
					<stop  offset="0" style="stop-color:#D1426B"/>
					<stop  offset="1" style="stop-color:#BF00A5"/>
				</linearGradient>
				<polygon class="st42" points="175.3,700 172.2,682.3 155.7,691.8 158.7,709.5 				"/>
				
					<linearGradient id="SVGID_11_" gradientUnits="userSpaceOnUse" x1="937.0277" y1="-107.2148" x2="951.7063" y2="-9.3584" gradientTransform="matrix(-1 0 0 1 1114.5 774)">
					<stop  offset="0" style="stop-color:#D1426B"/>
					<stop  offset="1" style="stop-color:#BF00A5"/>
				</linearGradient>
				<polygon class="st43" points="159.9,716.3 162.6,732.5 179.2,722.9 176.4,706.8 				"/>
				
					<linearGradient id="SVGID_12_" gradientUnits="userSpaceOnUse" x1="929.7465" y1="-106.1228" x2="944.4251" y2="-8.2663" gradientTransform="matrix(-1 0 0 1 1114.5 774)">
					<stop  offset="0" style="stop-color:#D1426B"/>
					<stop  offset="1" style="stop-color:#BF00A5"/>
				</linearGradient>
				<polygon class="st44" points="163.8,739.6 166.6,755.8 183.2,746.2 180.4,730.1 				"/>
				
					<linearGradient id="SVGID_13_" gradientUnits="userSpaceOnUse" x1="950.4141" y1="-109.2226" x2="965.0925" y2="-11.3665" gradientTransform="matrix(-1 0 0 1 1114.5 774)">
					<stop  offset="0" style="stop-color:#D1426B"/>
					<stop  offset="1" style="stop-color:#BF00A5"/>
				</linearGradient>
				<polygon class="st45" points="140.5,753.2 143.2,769.3 160.2,759.5 157.4,743.3 				"/>
			</g>
			<polygon class="st46" points="311.3,513.9 75.8,650.1 82.5,683.3 317,547.9 			"/>
			<path class="st47" d="M271.6,556.9c0.2,2.8,2.2,4.9,4.4,4.7s3.8-2.7,3.5-5.5c-0.2-2.8-2.2-4.9-4.4-4.7
				C272.9,551.6,271.3,554,271.6,556.9z"/>
			<path class="st47" d="M246.6,573.4c0.2,2.8,2.2,4.9,4.4,4.7s3.8-2.7,3.5-5.5c-0.2-2.8-2.2-4.9-4.4-4.7
				C247.9,568.1,246.3,570.5,246.6,573.4z"/>
			<path class="st47" d="M222.1,587.5c0.2,2.8,2.2,4.9,4.4,4.7s3.8-2.7,3.5-5.5c-0.2-2.8-2.2-4.9-4.4-4.7S221.8,584.7,222.1,587.5z"
				/>
			<path class="st47" d="M197.5,601.7c0.2,2.8,2.2,4.9,4.4,4.7s3.8-2.7,3.5-5.5c-0.2-2.8-2.2-4.9-4.4-4.7S197.2,598.9,197.5,601.7z"
				/>
			<path class="st47" d="M172.8,616c0.2,2.8,2.2,4.9,4.4,4.7s3.8-2.7,3.5-5.5c-0.2-2.8-2.2-4.9-4.4-4.7S172.5,613.1,172.8,616z"/>
			<path class="st47" d="M148.1,630.2c0.2,2.8,2.2,4.9,4.4,4.7s3.8-2.7,3.5-5.5c-0.2-2.8-2.2-4.9-4.4-4.7
				C149.5,624.9,147.9,627.3,148.1,630.2z"/>
			<path class="st47" d="M123.9,644.2c0.2,2.8,2.2,4.9,4.4,4.7c2.2-0.2,3.8-2.7,3.5-5.5c-0.2-2.8-2.2-4.9-4.4-4.7
				S123.6,641.3,123.9,644.2z"/>
			<path class="st47" d="M99.3,658.4c0.2,2.8,2.2,4.9,4.4,4.7s3.8-2.7,3.5-5.5c-0.2-2.8-2.2-4.9-4.4-4.7
				C100.6,653.1,99.1,655.5,99.3,658.4z"/>
			<path class="st47" d="M296.1,544.8c0.2,2.8,2.2,4.9,4.4,4.7s3.8-2.7,3.5-5.5c-0.2-2.8-2.2-4.9-4.4-4.7S295.8,541.9,296.1,544.8z"
				/>
			<g>
				<g>
					<path class="st48" d="M280.4,515.4c-0.9,3.5-1,10.2-0.6,16.3l4.8-2.3c-0.3-5.5-0.1-9.8,0.6-12.8c0.2-0.9,1.6-0.9,1.9-0.9
						c2.7,0,8.3,2.8,10.2,12.9c0.5,2.8,0.6,8.7,0.4,13.3c0,1.3,1,2.4,2.3,2.5c1.4,0.1,2.5-0.9,2.6-2.3c0.2-4.7,0.1-11.1-0.5-14.4
						c-2.2-11.5-9.1-16.8-14.9-16.9c0,0-0.1,0-0.2,0C283.7,510.8,281.1,512.6,280.4,515.4z"/>
				</g>
				<g>
					<path class="st48" d="M255.9,527.5c-0.8,3.5-0.9,12.7-0.5,18.8l5.1-3c-0.3-5.5-0.5-11.6,0.2-14.6c0.2-0.9,1.6-0.9,1.9-0.9
						c2.7,0,8.3,2.8,10.2,12.9c0.5,2.8,0.6,8.7,0.4,13.3c0,1.3,1,2.4,2.3,2.5l0,0c1.4,0.1,2.5-0.9,2.6-2.3
						c0.2-4.7,0.1-11.1-0.5-14.4c-2.2-11.5-9.1-16.7-14.9-16.9c0,0-0.1,0-0.2,0C259.2,522.9,256.6,524.7,255.9,527.5z"/>
				</g>
				<g>
					<path class="st48" d="M230.3,544c-0.9,3.5-1.5,11.4-1.1,17.5l4.9-2.9c-0.3-5.5,0.2-10.4,0.9-13.4c0.2-0.9,1.6-0.9,1.9-0.9
						c2.7,0,8.3,2.8,10.2,12.9c0.5,2.8,0.6,8.7,0.4,13.3c0,1.3,1,2.4,2.3,2.5c1.4,0.1,2.5-0.9,2.6-2.3c0.2-4.7,0.1-11.1-0.5-14.4
						c-2.2-11.5-9.1-16.7-14.9-16.9C233.6,539.3,230.9,541.1,230.3,544z"/>
				</g>
				<g>
					<path class="st48" d="M206.2,558.1c-0.9,3.4-1.5,11.1-1.1,17.2l5.2-3.4c-0.3-5.5-0.1-9.6,0.6-12.6c0.3-0.9,1.7-0.9,2-0.9
						c2.7,0,8.3,2.8,10.2,12.9c0.5,2.8,0.6,8.7,0.4,13.3c0,1.3,1,2.4,2.3,2.5c1.4,0.1,2.5-0.9,2.6-2.3c0.2-4.7,0.1-11.1-0.5-14.4
						c-2.2-11.5-9.1-16.7-14.9-16.9C209.6,553.4,206.9,555.2,206.2,558.1z"/>
				</g>
				<g>
					<path class="st48" d="M181.8,572.3c-0.9,3.5-0.9,10.8-0.5,16.9l4.6-2.7c-0.3-5.5-0.1-10,0.6-13c0.2-0.9,1.6-0.9,1.9-0.9
						c2.7,0,8.3,2.8,10.2,12.9c0.5,2.8,0.6,8.7,0.4,13.3c0,1.3,1,2.4,2.3,2.5c1.4,0.1,2.5-0.9,2.6-2.3c0.2-4.7,0.1-11.1-0.5-14.4
						c-2.2-11.5-9.1-16.7-14.9-16.9C185,567.6,182.4,569.4,181.8,572.3z"/>
				</g>
				<g>
					<path class="st48" d="M157,586.6c-0.9,3.4-1.5,11.2-1.1,17.3l5-2.9c-0.4-5.5,0.1-10.2,0.8-13.2c0.2-0.9,1.6-0.9,1.9-0.9
						c2.7,0,8.3,2.8,10.2,12.9c0.5,2.8,0.6,8.7,0.4,13.3c0,1.3,1,2.4,2.3,2.5c1.4,0.1,2.5-0.9,2.6-2.3c0.2-4.7,0.1-11.1-0.5-14.4
						c-2.2-11.5-9.1-16.7-14.9-16.9C160.3,581.9,157.6,583.7,157,586.6z"/>
				</g>
				<g>
					<path class="st48" d="M132.4,600c-0.8,3.4-0.8,11.6-0.4,17.7l4.8-2.8c-0.3-5.5-0.3-10.8,0.4-13.8c0.2-0.9,1.6-0.9,1.9-0.9
						c2.7,0,8.3,2.8,10.2,12.9c0.5,2.8,0.6,8.7,0.4,13.3c0,1.3,1,2.4,2.3,2.5c1.4,0.1,2.5-0.9,2.6-2.3c0.2-4.7,0.1-11.1-0.5-14.4
						c-2.2-11.5-9.1-16.7-14.9-16.9C135.8,595.2,133.1,597,132.4,600z"/>
				</g>
				<g>
					<path class="st48" d="M108.2,613.5c-0.9,3.4-1.5,12.8-1.1,18.9l4-2.5c0.7-0.5,1.1-1.3,1.1-2.2c-0.3-5.1-0.1-10.3,0.6-13
						c0.2-0.9,1.6-0.9,1.9-0.9c2.7,0,8.3,2.8,10.2,12.9c0.5,2.8,0.6,8.7,0.4,13.3c0,1.3,1,2.4,2.3,2.5l0,0c1.4,0.1,2.5-0.9,2.6-2.3
						c0.2-4.7,0.1-11.1-0.5-14.4c-2.2-11.5-9.1-16.7-14.9-16.9C111.4,608.8,108.7,610.6,108.2,613.5z"/>
				</g>
				<g>
					<path class="st48" d="M83.7,628.6c-0.8,3.4-1.6,11.6-1.2,17.7l5.4-3.1c-0.4-5.5-0.2-10.4,0.5-13.4c0.2-0.9,1.6-0.9,1.9-0.9
						c2.7,0,8.3,2.8,10.2,12.9c0.5,2.8,0.6,8.7,0.4,13.3c0,1.3,1,2.4,2.3,2.5c1.4,0.1,2.5-0.9,2.6-2.3c0.2-4.7,0.1-11.1-0.5-14.4
						c-2.2-11.5-9.1-16.7-14.9-16.9C87,623.9,84.3,625.7,83.7,628.6z"/>
				</g>
			</g>
		</g>
	</g>
	<g>
		<ellipse class="st0" cx="400.1" cy="831.5" rx="66.6" ry="30.7"/>
		<g>
			<path class="st49" d="M335.5,722.6c-2.5,6.3-2.7,42.7-0.3,50c1.6,4.7,3.6,11,9.2,17.5c8,9.3,18.1,13.1,25.2,14.7l2.6-11.5
				c-5.4-1.2-13-4-18.9-10.9c-4.1-4.8-5.6-9.4-6.9-13.5c-1.6-5.2-1.3-37.7,0.1-42.3c0.5-1.4,1.7-4.5,4.5-6.6
				c1.9-1.4,4.1-2.1,8.1-2.5c7.6-0.8,15.9,0,24.6,2.3l3-11.3c-10-2.7-19.7-3.6-28.8-2.7c-4.6,0.5-9.5,1.4-14,4.8
				C338.4,714.8,336.3,720.4,335.5,722.6z"/>
		</g>
		<path class="st50" d="M466.7,723.9h-102v101.3c0,15.6,22.8,28.3,51,28.3s51-12.7,51-28.3V723.9z"/>
		<ellipse class="st49" cx="415.7" cy="723.9" rx="51" ry="28.3"/>
		<ellipse class="st28" cx="415.7" cy="723.9" rx="44.3" ry="22.3"/>
		<ellipse class="st51" cx="416.7" cy="733" rx="35.6" ry="13.9"/>
	</g>
	<path class="st52" d="M204.3,400.8c0.8,21.8,14.7,32,30.9,22.7c7.8-4.5,105.3-60.3,107.7-61.7c26.6-15.2,28.5-39.7,27.9-56.3
		c-0.6-16.7-11.1-24.4-23.5-17.3c-2.5,1.4-4.8,3.3-7,5.6c0-0.5,0-1.1,0-1.6c-0.8-21.8-14.7-32-30.9-22.7c-1.7,1-3.4,2.2-5,3.5
		c-7.3-12.3-20.5-15.8-35.2-7.4c-21.7,12.4-38.3,46-37.2,75.1c0.1,1.3,0.2,2.5,0.3,3.7c0,0.1-0.1,0.1-0.1,0.1
		C216,353.8,203.5,379,204.3,400.8z"/>
	<path class="st16" d="M1060.5,372.6c0,12.5,10.4,20.8,23.2,18.6c12.8-2.2,23.2-14,23.2-26.5c0-1-0.1-1.9-0.2-2.8l40.9-24.1
		c4.9,5.6,12.8,8.4,21.7,6.9c15.1-2.6,27.2-16.5,27.2-31.1s-12.2-24.4-27.2-21.8c-5.7,1-11,3.6-15.4,7.3l-15.4-10.7
		c3.2-5.8,5.1-12.2,5.1-18.7c0-18.9-15.8-31.5-35.2-28.2c-19.5,3.4-35.2,21.4-35.2,40.3s15.8,31.5,35.2,28.2
		c8.1-1.4,15.6-5.4,21.5-10.9l15.3,10.7c-2,4.1-3.2,8.6-3.2,13.1c0,1.6,0.1,3,0.4,4.4l-40.8,24.1c-4.3-4.3-10.8-6.4-18-5.2
		C1070.8,348.4,1060.4,360.3,1060.5,372.6z"/>
	<g>
		<g>
			<polygon class="st0" points="840.7,333 362,638.1 708.6,838.2 1213.2,543 			"/>
			<polygon class="st3" points="745.5,784.3 744.7,797.4 745.5,797.8 1180,543.5 1180,530 880.1,370.4 			"/>
			<polygon class="st53" points="438.7,245.9 434.1,248.5 434.1,602.4 445,610.8 769.8,413.4 			"/>
			<polygon class="st5" points="867.7,0 434.1,248.5 445,256.6 769.8,413.4 869.3,348.8 880.1,7.2 			"/>
			<polygon class="st35" points="880.1,370.4 445,610.8 445,624.3 744.7,797.4 745.5,784.3 			"/>
			<polygon class="st5" points="880.1,356.9 445,610.8 745.5,784.3 1180,530 			"/>
			<polygon class="st24" points="878.6,378.6 488.2,604.9 640.9,693.1 1029.1,465.9 			"/>
			<polygon class="st54" points="880.1,7.2 445,256.6 445,610.8 880.1,356.9 			"/>
			<polygon class="st55" points="866.6,35.1 458.5,268.3 458.5,579.2 866.6,341 			"/>
			<polygon class="st3" points="920.3,547 775.8,630.7 880.1,690.9 1024.6,607.2 			"/>
			<g>
				<path class="st5" d="M989.3,586.6l-73.7,42.9l35.7,20.6l0.2-0.1l73.9-42.8l-35.9-20.7L989.3,586.6z M917.3,629.5l72.3-42.1
					l34.2,19.8l-72.5,42L917.3,629.5z"/>
			</g>
			<g>
				<path class="st5" d="M916.2,629.2l-71.6,41.7l35.5,20.5l0.2-0.1l71.8-41.6l-35.7-20.6L916.2,629.2z M846.3,670.9l70.2-40.9
					l34,19.7l-70.4,40.8L846.3,670.9z"/>
			</g>
			<g>
				<g>
					<path class="st5" d="M877.2,377.8l-391.9,227l0.6,0.4L639.7,694l0.2-0.1l389.6-228l-152.1-88.3L877.2,377.8z M486.9,604.8
						l390.5-226.3l150.4,87.4L639.7,693.1L486.9,604.8z"/>
				</g>
				<g>
					<path class="st5" d="M697.4,504.7l-29.3,17.2l25.9,15l29.3-17.2L697.4,504.7z M669.8,521.9l27.7-16.2l24.2,14l-16.6,9.7
						l-11.1,6.5L669.8,521.9z"/>
				</g>
				<g>
					<path class="st5" d="M801.7,443.7l-26.4,15.4l25.9,15l26.4-15.4L801.7,443.7z M777,459.2l24.7-14.5l24.2,14l-11.4,6.7
						l-13.3,7.8L777,459.2z"/>
				</g>
				<g>
					<path class="st5" d="M724.4,488.9l-27.8,16.3l25.9,15l27.8-16.3L724.4,488.9z M698.2,505.2l26.2-15.3l24.2,14l-16.3,9.5l0,0
						l-9.8,5.8L698.2,505.2z"/>
				</g>
				<g>
					<path class="st5" d="M776.1,458.6l-27,15.8l25.9,15l27-15.8L776.1,458.6z M750.9,474.5l25.3-14.8l24.2,14l-25.3,14.8
						L750.9,474.5z"/>
				</g>
				<g>
					<path class="st5" d="M901.2,444l-27.7,16.3l27.8,16.1l27.8-16.3L901.2,444z M875.1,460.3l26.1-15.3l26.2,15.1l-26.1,15.3
						L875.1,460.3z"/>
				</g>
				<g>
					<path class="st5" d="M895.1,418.2l-28,16.4l26.1,15.1l28-16.4L895.1,418.2z M868.8,434.6l26.3-15.4l24.4,14.1l-26.3,15.4
						L868.8,434.6z"/>
				</g>
				<g>
					<path class="st5" d="M831.4,426.3l-30.6,17.9l25.9,15l30.6-17.9L831.4,426.3z M802.6,444.2l28.9-16.9l24.2,14l-14.1,8.3
						l-14.8,8.6L802.6,444.2z"/>
				</g>
				<g>
					<path class="st5" d="M859.7,409.8l-29.1,17l25.9,15l29.1-17L859.7,409.8z M832.3,426.7l27.4-16l24.2,14l-16.2,9.5l-11.2,6.6
						L832.3,426.7z"/>
				</g>
				<g>
					<path class="st5" d="M874.3,459.8l-28.2,16.5l27.8,16.1l28.2-16.5L874.3,459.8z M847.7,476.3l26.5-15.5l26.2,15.1l-26.5,15.5
						L847.7,476.3z"/>
				</g>
				<path class="st5" d="M600.1,590.7l-29.4,17.2l26.1,15.1l29.4-17.2L600.1,590.7z M572.4,608l27.7-16.2l24.4,14.1l-27.7,16.2
					L572.4,608z"/>
				<path class="st5" d="M633.5,600.6l-30.6,17.9l27.9,16.1l30.6-17.9L633.5,600.6z M604.5,618.5l29-17l26.2,15.1l-29,17
					L604.5,618.5z"/>
				<g>
					<path class="st5" d="M698.7,593.9l-27.3,16l28.6,16.5l27.3-16L698.7,593.9z M685.2,602.7L685.2,602.7l13.5-7.9l27,15.6
						l-25.7,15l-27-15.6L685.2,602.7z"/>
				</g>
				<path class="st5" d="M668.9,521.4l-29.5,17.3l25.9,15l29.5-17.3L668.9,521.4z M641.1,538.7l27.9-16.3l24.2,14l-27.9,16.3
					L641.1,538.7z"/>
				<g>
					<path class="st5" d="M614.4,553.2l-26.9,15.7l25.9,15l11.7-6.8l0,0l15.2-8.9L614.4,553.2z M589.3,569l25.2-14.7l24.2,14
						L613.5,583L589.3,569z"/>
				</g>
				<g>
					<path class="st5" d="M562.7,583.5l-30,17.5l25.9,15l30-17.5L562.7,583.5z M534.4,601.1l28.3-16.6l24.2,14l-28.3,16.6
						L534.4,601.1z"/>
				</g>
				<path class="st5" d="M640.2,538.2l-26.6,15.6l25.9,15l26.6-15.6L640.2,538.2z M615.3,553.8l24.9-14.6l24.2,14l-24.9,14.6
					L615.3,553.8z"/>
				<g>
					<path class="st5" d="M588.4,568.5L561.8,584l25.9,15l26.6-15.5L588.4,568.5z M563.5,584l25-14.5l24.2,14l-12.7,7.4l-12.2,7.1
						L563.5,584z"/>
				</g>
				<g>
					<path class="st5" d="M764.4,524l-25.2,14.7l27.8,16.1l25.2-14.7L764.4,524z M758,528.8L758,528.8l6.3-3.7l26.2,15.1l-23.4,13.7
						l-26.2-15.1L758,528.8z"/>
				</g>
				<path class="st5" d="M705.3,529.2l-29.4,17.2l26.1,15.1l29.4-17.2L705.3,529.2z M677.6,546.5l27.7-16.2l24.4,14.1L702,560.6
					L677.6,546.5z"/>
				<g>
					<path class="st5" d="M732.5,513.3l-28.1,16.4l26.1,15.1l28.1-16.4L732.5,513.3z M706.1,529.7l26.4-15.5l24.4,14.1l-26.4,15.5
						L706.1,529.7z"/>
				</g>
				<g>
					<path class="st5" d="M846.9,475.8l-26.6,15.6l27.8,16.1l26.6-15.6L846.9,475.8z M821.9,491.4l24.9-14.6l26.2,15.1l-24.9,14.6
						L821.9,491.4z"/>
				</g>
				<g>
					<path class="st5" d="M760.5,497l-28.8,16.7l26.1,15.1l28.8-16.8L760.5,497z M733.4,513.8l27.1-15.9l24.4,14.1l-20.8,12.2
						l-6.3,3.7L733.4,513.8z"/>
				</g>
				<g>
					<path class="st5" d="M867.9,434.1l-27,15.8L867,465l27-15.8L867.9,434.1z M842.5,449.9l25.4-14.8l24.4,14.1L874,459.9l-7,4.1
						L842.5,449.9z"/>
				</g>
				<path class="st5" d="M652.3,560.2l-28.2,16.5l26.1,15.1l28.2-16.5L652.3,560.2z M625.8,576.7l26.5-15.5l24.4,14.1l-26.5,15.5
					L625.8,576.7z"/>
				<g>
					<path class="st5" d="M841.7,449.4l-27.8,16.3l26.1,15.1l27.8-16.3L841.7,449.4z M815.6,465.7l26.2-15.3l24.4,14.1L840,479.8
						L815.6,465.7z"/>
				</g>
				<g>
					<path class="st5" d="M814.7,465.2l-27.1,15.9l26.1,15.1l27.1-15.9L814.7,465.2z M789.3,481.1l25.5-14.9l24.4,14.1l-25.5,14.9
						L789.3,481.1z"/>
				</g>
				<g>
					<path class="st5" d="M788.5,480.6l-28.9,16.8l26.1,15.1l28.8-16.8L788.5,480.6z M761.3,497.5l27.1-15.9l24.4,14.1l-27.1,15.9
						L761.3,497.5z"/>
				</g>
				<path class="st5" d="M676.7,546l-25.2,14.7l26.1,15.1l25.2-14.8L676.7,546z M653.1,560.7l23.6-13.8l24.4,14.1l-23.5,13.8
					L653.1,560.7z"/>
				<g>
					<path class="st5" d="M726.4,577.7l-28.5,16.7l28.6,16.5l28.5-16.7L726.4,577.7z M699.5,594.3l26.9-15.7l27,15.6l-26.9,15.7
						L699.5,594.3z"/>
				</g>
				<g>
					<path class="st5" d="M740.1,538.3l-28.7,16.8l27.8,16.1l28.7-16.8L740.1,538.3z M713,555.1l27-15.8l26.2,15.1l-27,15.8
						L713,555.1z"/>
				</g>
				<g>
					<path class="st5" d="M785.5,511.7l-21.9,12.8l27.8,16.1l30.1-17.6l-27.9-16L785.5,511.7L785.5,511.7z M793.6,507.9l26.2,15.1
						l-28.4,16.6l-26.2-15.1L793.6,507.9z"/>
				</g>
				<g>
					<path class="st5" d="M821.2,490.8l-28.3,16.6l27.8,16.1l28.3-16.6L821.2,490.8z M794.5,507.4l26.7-15.6l26.2,15.1l-26.7,15.6
						L794.5,507.4z"/>
				</g>
				<path class="st5" d="M624.9,576.2l-25.6,15l26.1,15.1l25.6-15L624.9,576.2z M601,591.3l24-14l24.4,14.1l-24,14L601,591.3z"/>
				<g>
					<path class="st5" d="M712.1,554.6l-27.2,15.9l27.9,16.1l27.2-15.9L712.1,554.6z M686.6,570.5l25.6-14.9l26.2,15.1l-25.6,14.9
						L686.6,570.5z"/>
				</g>
				<g>
					<path class="st5" d="M658,586.3l-25.2,14.8l27.8,16.1l25.2-14.8L658,586.3z M634.4,601.1l23.6-13.8l26.2,15.1l-23.6,13.8
						L634.4,601.1z"/>
				</g>
				<g>
					<path class="st5" d="M685.8,570l-28.7,16.8l27.8,16.1l28.7-16.8L685.8,570z M658.8,586.8l27-15.8l26.2,15.1l-27,15.8
						L658.8,586.8z"/>
				</g>
				<g>
					<path class="st5" d="M750,474l-26.4,15.3l25.9,15l26.4-15.4L750,474z M725.3,489.4l24.7-14.5l24.2,14l-24.7,14.5L725.3,489.4z"
						/>
				</g>
				<path class="st5" d="M571.5,607.4l-40.6,23.8l26.1,15.1l0.2-0.1l40.4-23.7L571.5,607.4z M532.6,631.3l39-22.8l24.4,14.1
					l-39,22.8L532.6,631.3z"/>
				<path class="st5" d="M533.6,600.5l-27.7,16.2l25.9,15l27.7-16.2L533.6,600.5z M507.6,616.8l26.1-15.2l24.2,14l-26.1,15.2
					L507.6,616.8z"/>
				<path class="st5" d="M603.5,618.1l-47.3,27.7l27.8,16.1l0.2-0.1l47.4-27.7L603.7,618L603.5,618.1z M557.8,645.9l45.9-26.9
					l26.2,15.1L584,661L557.8,645.9z"/>
				<path class="st5" d="M512.9,588.9l-27.6,16l21.4,12.4l27.7-16.2l-21.3-12.3L512.9,588.9z M487,605l26.2-15.2l19.6,11.3
					l-26.1,15.2L487,605z"/>
				<g>
					<path class="st5" d="M542.1,571.9l-29.9,17.3l21.3,12.3l30-17.5l-21.1-12.2L542.1,571.9z M514,589.2l28.4-16.5l19.5,11.3
						l-28.3,16.6L514,589.2z"/>
				</g>
				<g>
					<path class="st5" d="M594.1,541.9l-26.8,15.5l21,12.1l26.9-15.7l-20.9-12.1L594.1,541.9z M569,557.4l25.3-14.7l19.3,11.1
						l-25.2,14.7L569,557.4z"/>
				</g>
				<path class="st5" d="M630.5,633.7l-47.3,27.7l28.6,16.5l0.2-0.1l60.3-35.3L643.7,626L630.5,633.7z M584.8,661.5l58.9-34.5
					l27,15.6l-13.7,8L611.8,677L584.8,661.5z"/>
				<g>
					<path class="st5" d="M921.8,495.7L894,512l28.6,16.5l27.8-16.3L921.8,495.7z M895.6,511.9l26.2-15.3l27,15.6l-26.2,15.3
						L895.6,511.9z"/>
				</g>
				<g>
					<path class="st5" d="M752.6,562.4l-27,15.8l28.6,16.5l27-15.8L752.6,562.4z M739.3,571L739.3,571l13.2-7.7l27,15.6l-25.3,14.8
						l-27-15.6L739.3,571z"/>
				</g>
				<g>
					<path class="st5" d="M1001,449.3l-26.6,15.6l28.6,16.5l26.5-15.5L1001,449.3z M975.9,464.9l25-14.6l26.9,15.6l-24.9,14.6
						L975.9,464.9z"/>
				</g>
				<g>
					<path class="st5" d="M649,510.1l-29.5,17.1l20.8,12l29.5-17.3L649.1,510L649,510.1z M621.1,527.1l28-16.2l19,11l-27.9,16.3
						L621.1,527.1z"/>
				</g>
				<g>
					<path class="st5" d="M948,480.4l-27,15.8l28.6,16.5l27-15.8L948,480.4z M922.6,496.1l25.4-14.8l27,15.6l-25.4,14.8L922.6,496.1
						z"/>
				</g>
				<g>
					<path class="st5" d="M720.6,613.3l-31.8,18.6l28.7,16.6l0.2-0.1l31.6-18.5L720.6,613.3z M690.5,631.9l30.1-17.6l27,15.6
						l-30.1,17.6L690.5,631.9z"/>
				</g>
				<g>
					<path class="st5" d="M689.7,631.4l-33.3,19.5l28.7,16.6l0.2-0.1l33.1-19.4L689.7,631.4z M658.1,650.9l31.6-18.5l27,15.6
						l-31.6,18.5L658.1,650.9z"/>
				</g>
				<g>
					<path class="st5" d="M862.3,530.4l-142.6,83.4l28.7,16.6l0.2-0.1L891,547L862.3,530.4z M721.5,613.8l140.9-82.4l27,15.6
						l-140.9,82.4L721.5,613.8z"/>
				</g>
				<g>
					<path class="st5" d="M894.9,511.5l-33.2,19.4l28.6,16.5l0.2-0.1l33-19.3L894.9,511.5z M863.2,530.9l31.6-18.5l27,15.6
						l-31.6,18.5L863.2,530.9z"/>
				</g>
				<g>
					<path class="st5" d="M975.2,464.5l-28,16.4l28.6,16.5l28-16.4L975.2,464.5z M948.8,480.8l26.3-15.4l27,15.6l-26.3,15.4
						L948.8,480.8z"/>
				</g>
				<g>
					<path class="st5" d="M973.3,433.4L914.1,468l28.6,16.5l59.1-34.6L973.3,433.4z M915.7,467.8l57.5-33.6l26.9,15.6l-57.4,33.6
						L915.7,467.8z"/>
				</g>
				<g>
					<path class="st5" d="M914.9,467.4l-29.2,17.1l28.6,16.5l29.2-17.1L914.9,467.4z M887.3,484.5l27.6-16.1l27,15.6l-27.6,16.1
						L887.3,484.5z"/>
				</g>
				<g>
					<path class="st5" d="M886.5,484L861,499l28.6,16.5l25.6-15L886.5,484z M862.5,499l24-14l27,15.6l-24,14L862.5,499z"/>
				</g>
				<g>
					<path class="st5" d="M946.4,417.6l-45.9,26.9l27.8,16.1l0.2-0.1l45.6-26.7L946.4,417.6z M902,444.5l44.3-25.9l26.1,15.2
						l-44.2,25.8L902,444.5z"/>
				</g>
				<g>
					<path class="st5" d="M779.4,546.7l-27.6,16.2l28.6,16.5l27.6-16.2L779.4,546.7z M753.4,562.8l26-15.2l27,15.6l-26,15.2
						L753.4,562.8z"/>
				</g>
				<g>
					<path class="st5" d="M806.8,530.7l-28.2,16.5l28.6,16.5l28.2-16.5L806.8,530.7z M791.6,540.5L791.6,540.5l15.2-8.9l27,15.6
						l-26.6,15.5l-27-15.6L791.6,540.5z"/>
				</g>
				<g>
					<path class="st5" d="M921.1,403l-26.9,15.7l26.1,15.1l26.8-15.7L921.1,403z M896,418.7l25.2-14.7l24.3,14.1l-25.2,14.7
						L896,418.7z"/>
				</g>
				<g>
					<path class="st5" d="M861.8,498.5l-28,16.4l28.6,16.5l28-16.4L861.8,498.5z M835.4,514.8l26.3-15.4l27,15.6l-26.3,15.4
						L835.4,514.8z"/>
				</g>
				<g>
					<path class="st5" d="M834.6,514.4L806,531.1l28.6,16.5l28.6-16.7L834.6,514.4z M807.6,531.1l27-15.8l27,15.6l-27,15.8
						L807.6,531.1z"/>
				</g>
				<g>
					<path class="st5" d="M896.2,388.5l-37.3,21.8l25.9,15l37.2-21.8L896.2,388.5z M860.5,410.3l35.6-20.8l24.2,14l-35.5,20.8
						L860.5,410.3z"/>
				</g>
				<g>
					<path class="st5" d="M730.5,462.7L704,478.1l20.4,11.8l26.4-15.4L730.5,462.7z M705.6,478l24.9-14.4l18.6,10.8l-24.7,14.5
						L705.6,478z"/>
				</g>
				<g>
					<path class="st5" d="M756.8,447.6l-27.1,15.7L750,475l27-15.8L756.8,447.6z M731.4,463.2l25.4-14.7l18.5,10.7L750,474
						L731.4,463.2z"/>
				</g>
				<g>
					<path class="st5" d="M782.5,432.7L755.9,448l20.2,11.6l26.4-15.4L782.5,432.7z M757.6,448l24.8-14.4l18.4,10.6l-24.7,14.5
						L757.6,448z"/>
				</g>
				<g>
					<path class="st5" d="M704.8,477.6l-27.9,16.2l20.5,11.9l27.8-16.3L704.8,477.6z M678.6,493.8l26.3-15.2l18.7,10.8l-26.2,15.3
						L678.6,493.8z"/>
				</g>
				<g>
					<path class="st5" d="M812.3,415.3l-30.7,17.8l20.1,11.6l30.6-17.9L812.3,415.3z M783.2,433.2l29.1-16.8l18.3,10.5l-28.9,16.9
						L783.2,433.2z"/>
				</g>
				<g>
					<path class="st5" d="M677.8,493.4l-29.5,17.1l20.7,11.9l29.3-17.2L677.8,493.4z M649.9,510.4l27.8-16.1l18.9,10.9l-27.7,16.2
						L649.9,510.4z"/>
				</g>
				<g>
					
						<rect x="849.6" y="393.9" transform="matrix(0.4969 -0.8678 0.8678 0.4969 76.1767 941.4529)" class="st5" width="0.9" height="22.3"/>
				</g>
			</g>
		</g>
		<g>
			<g>
				<g>
					<path class="st56" d="M488.4,298.3c1.2,2.2,4,2.9,6.1,1.7L633,220.8c2.1-1.2,2.9-4,1.6-6.1s-4-2.8-6.1-1.6L490,292.3
						C487.9,293.5,487.1,296.2,488.4,298.3z"/>
				</g>
				<g>
					<path class="st56" d="M759.4,143.5L759.4,143.5c1.2,2.2,4,2.9,6.1,1.7l67.4-38.5c2.2-1.2,2.9-4,1.7-6.1l0,0
						c-1.2-2.2-4-2.9-6.1-1.7l-67.4,38.5C758.9,138.6,758.2,141.4,759.4,143.5z"/>
				</g>
				<g>
					<path class="st50" d="M653.4,204L653.4,204c1.2,2.2,4,2.9,6.1,1.7l74.5-42.6c2.2-1.2,2.9-4,1.7-6.1l0,0c-1.2-2.2-4-2.9-6.1-1.7
						l-74.5,42.6C653,199.2,652.2,201.9,653.4,204z"/>
				</g>
				<g>
					<path class="st50" d="M640.4,237.8L640.4,237.8c1.2,2.2,4,2.9,6.1,1.7l186.4-106.4c2.2-1.2,2.9-4,1.7-6.1
						c-1.2-2.2-4-2.9-6.1-1.7L642.1,231.8C640,233,639.2,235.7,640.4,237.8z"/>
				</g>
				<g>
					<path class="st24" d="M490.7,322.4c0.9,2.8,4,4,6.5,2.6l118-67.4c2.1-1.3,2.9-4.1,1.6-6.2s-4-2.8-6.1-1.6l-118,67.4
						C490.9,318.2,490,320.3,490.7,322.4z"/>
				</g>
				<g>
					<path class="st24" d="M494.9,370.9c0,3.5,3.7,5.6,6.7,3.9l128.5-73.4c2.2-1.2,2.9-4,1.7-6.1c-1.2-2.2-4-2.9-6.1-1.7L497.2,367
						C495.8,367.8,494.9,369.2,494.9,370.9z"/>
				</g>
				<g>
					<path class="st24" d="M759.4,222.3L759.4,222.3c1.2,2.2,4,2.9,6.1,1.7l67.4-38.5c2.2-1.2,2.9-4,1.7-6.1l0,0
						c-1.2-2.2-4-2.9-6.1-1.7l-67.4,38.5C758.9,217.4,758.2,220.1,759.4,222.3z"/>
				</g>
				<g>
					<path class="st56" d="M653.4,282.8L653.4,282.8c1.2,2.2,4,2.9,6.1,1.7l74.5-42.6c2.2-1.2,2.9-4,1.7-6.1l0,0
						c-1.2-2.2-4-2.9-6.1-1.7l-74.5,42.6C653,278,652.2,280.7,653.4,282.8z"/>
				</g>
				<g>
					<path class="st50" d="M492.2,346.4L492.2,346.4c0,3.5,3.7,5.6,6.7,3.9l334-190.8c2.2-1.2,2.9-4,1.7-6.1c-1.2-2.2-4-2.9-6.1-1.7
						l-334,190.8C493.1,343.3,492.3,344.8,492.2,346.4z"/>
				</g>
			</g>
			<g>
				<g>
					<path class="st50" d="M488.4,402.2c1.2,2.2,4,2.9,6.1,1.7L633,324.7c2.1-1.2,2.9-4,1.6-6.1s-4-2.8-6.1-1.6L490,396.2
						C487.9,397.4,487.1,400.1,488.4,402.2z"/>
				</g>
				<g>
					<path class="st56" d="M759.4,247.3L759.4,247.3c1.2,2.2,4,2.9,6.1,1.7l67.4-38.5c2.2-1.2,2.9-4,1.7-6.1l0,0
						c-1.2-2.2-4-2.9-6.1-1.7l-67.4,38.6C758.9,242.5,758.2,245.2,759.4,247.3z"/>
				</g>
				<g>
					<path class="st24" d="M653.4,307.9L653.4,307.9c1.2,2.2,4,2.9,6.1,1.7L734,267c2.2-1.2,2.9-4,1.7-6.1l0,0
						c-1.2-2.2-4-2.9-6.1-1.7l-74.5,42.6C653,303,652.2,305.8,653.4,307.9z"/>
				</g>
				<g>
					<path class="st50" d="M640.4,341.7L640.4,341.7c1.2,2.2,4,2.9,6.1,1.7L832.9,237c2.2-1.2,2.9-4,1.7-6.1c-1.2-2.2-4-2.9-6.1-1.7
						L642.1,335.6C640,336.9,639.2,339.6,640.4,341.7z"/>
				</g>
				<g>
					<path class="st56" d="M490.7,426.2c0.9,2.8,4,4,6.5,2.6l118-67.4c2.1-1.3,2.9-4.1,1.6-6.2s-4-2.8-6.1-1.6l-118,67.4
						C490.9,422,490,424.2,490.7,426.2z"/>
				</g>
				<g>
					<path class="st24" d="M494.9,474.7c0,3.5,3.7,5.6,6.7,3.9l128.5-73.4c2.2-1.2,2.9-4,1.7-6.1c-1.2-2.2-4-2.9-6.1-1.7
						l-128.5,73.4C495.8,471.6,494.9,473.1,494.9,474.7z"/>
				</g>
				<g>
					<path class="st56" d="M759.4,326.1L759.4,326.1c1.2,2.2,4,2.9,6.1,1.7l67.4-38.5c2.2-1.2,2.9-4,1.7-6.1l0,0
						c-1.2-2.2-4-2.9-6.1-1.7l-67.4,38.6C758.9,321.3,758.2,324,759.4,326.1z"/>
				</g>
				<g>
					<path class="st50" d="M653.4,386.7L653.4,386.7c1.2,2.2,4,2.9,6.1,1.7l74.5-42.6c2.2-1.2,2.9-4,1.7-6.1l0,0
						c-1.2-2.2-4-2.9-6.1-1.7l-74.5,42.6C653,381.8,652.2,384.5,653.4,386.7z"/>
				</g>
				<g>
					<path class="st50" d="M640.4,420.5L640.4,420.5c1.2,2.2,4,2.9,6.1,1.7l186.4-106.4c2.2-1.2,2.9-4,1.7-6.1
						c-1.2-2.2-4-2.9-6.1-1.7L642.1,414.4C640,415.7,639.2,418.4,640.4,420.5z"/>
				</g>
				<g>
					<path class="st56" d="M494.9,501.2c0,3.5,3.7,5.6,6.7,3.9l113.6-64.9c2.2-1.2,2.9-4,1.7-6.1c-1.2-2.2-4-2.9-6.1-1.7
						l-113.6,64.9C495.8,498,494.9,499.5,494.9,501.2z"/>
				</g>
				<g>
					<path class="st24" d="M492.2,450.3L492.2,450.3c0,3.5,3.7,5.6,6.7,3.9l334-190.8c2.2-1.2,2.9-4,1.7-6.1c-1.2-2.2-4-2.9-6.1-1.7
						l-334,190.8C493.1,447.2,492.3,448.6,492.2,450.3z"/>
				</g>
			</g>
		</g>
		<g>
			
				<linearGradient id="SVGID_14_" gradientUnits="userSpaceOnUse" x1="480.4098" y1="-537.3505" x2="714.1759" y2="-213.6428" gradientTransform="matrix(-1 0 0 1 1114.5 774)">
				<stop  offset="0" style="stop-color:#EEFFFF"/>
				<stop  offset="1" style="stop-color:#C6DCF4"/>
			</linearGradient>
			<path class="st57" d="M564.4,491.5L368.1,606c-2.8,1.6-6.3-0.4-6.3-3.6V456.2c0-1.5,0.8-2.9,2.1-3.6l196.3-112.2
				c2.7-1.6,6.2,0.4,6.2,3.6v143.9C566.4,489.4,565.6,490.7,564.4,491.5z"/>
			<path class="st13" d="M361.7,456.2v21L566.4,360v-16c0-3.2-3.4-5.2-6.2-3.6L363.9,452.6C362.6,453.3,361.8,454.7,361.7,456.2
				L361.7,456.2z"/>
			
				<linearGradient id="SVGID_15_" gradientUnits="userSpaceOnUse" x1="558.2121" y1="-416.45" x2="564.4731" y2="-416.45" gradientTransform="matrix(-1 0 0 1 1114.5 774)">
				<stop  offset="0" style="stop-color:#EEFFFF"/>
				<stop  offset="1" style="stop-color:#C6DCF4"/>
			</linearGradient>
			<path class="st58" d="M555.4,353.6c1.2,0.7,1.2,3-0.1,5.2c-1.2,2.2-3.2,3.4-4.4,2.7s-1.2-3,0.1-5.2S554.2,352.9,555.4,353.6z"/>
			
				<linearGradient id="SVGID_16_" gradientUnits="userSpaceOnUse" x1="568.1058" y1="-411.45" x2="574.3668" y2="-411.45" gradientTransform="matrix(-1 0 0 1 1114.5 774)">
				<stop  offset="0" style="stop-color:#EEFFFF"/>
				<stop  offset="1" style="stop-color:#C6DCF4"/>
			</linearGradient>
			<path class="st59" d="M545.5,358.6c1.2,0.7,1.2,3-0.1,5.2c-1.2,2.2-3.2,3.4-4.4,2.7s-1.2-3,0.1-5.2
				C542.4,359.1,544.3,357.9,545.5,358.6z"/>
			
				<linearGradient id="SVGID_17_" gradientUnits="userSpaceOnUse" x1="578.3678" y1="-405.65" x2="584.6287" y2="-405.65" gradientTransform="matrix(-1 0 0 1 1114.5 774)">
				<stop  offset="0" style="stop-color:#EEFFFF"/>
				<stop  offset="1" style="stop-color:#C6DCF4"/>
			</linearGradient>
			<path class="st60" d="M535.3,364.4c1.2,0.7,1.2,3-0.1,5.2c-1.2,2.2-3.2,3.4-4.4,2.7s-1.2-3,0.1-5.2
				C532.1,364.9,534.1,363.7,535.3,364.4z"/>
			<g>
				<path class="st61" d="M370,455.7L370,455.7c0.3,0.5,1,0.7,1.5,0.4l16.9-9.7c0.5-0.3,0.7-1,0.4-1.5s-1-0.7-1.5-0.4l-16.9,9.7
					C369.9,454.5,369.7,455.2,370,455.7z"/>
			</g>
			<g>
				<path class="st61" d="M370,460.7L370,460.7c0.3,0.5,1,0.7,1.5,0.4l16.9-9.7c0.5-0.3,0.7-1,0.4-1.5s-1-0.7-1.5-0.4l-16.9,9.7
					C369.9,459.5,369.7,460.2,370,460.7z"/>
			</g>
			<g>
				<path class="st61" d="M370,465.7L370,465.7c0.3,0.5,1,0.7,1.5,0.4l16.9-9.7c0.5-0.3,0.7-1,0.4-1.5s-1-0.7-1.5-0.4l-16.9,9.7
					C369.9,464.5,369.7,465.2,370,465.7z"/>
			</g>
			
				<linearGradient id="SVGID_18_" gradientUnits="userSpaceOnUse" x1="573" y1="-291.9719" x2="723.5" y2="-291.9719" gradientTransform="matrix(-1 0 0 1 1114.5 774)">
				<stop  offset="0" style="stop-color:#4F3DD6"/>
				<stop  offset="1" style="stop-color:#5927CF"/>
			</linearGradient>
			<path class="st62" d="M524.7,473.6L410,540.5c-8.4,4.9-19-1.2-19-10.9v-6.8c0-14.9,8-28.7,21-36.1l110.6-63.2
				c8.4-4.8,18.9,1.3,18.9,11v9.9C541.5,456.5,535.1,467.6,524.7,473.6z"/>
			<g>
				
					<linearGradient id="SVGID_19_" gradientUnits="userSpaceOnUse" x1="596.9929" y1="-315.85" x2="610.7485" y2="-315.85" gradientTransform="matrix(-1 0 0 1 1114.5 774)">
					<stop  offset="0" style="stop-color:#EEFFFF"/>
					<stop  offset="1" style="stop-color:#C6DCF4"/>
				</linearGradient>
				<path class="st63" d="M515.6,449.5c2.6,1.5,2.5,6.6-0.3,11.4c-2.7,4.8-7.1,7.4-9.7,5.9s-2.5-6.6,0.3-11.4S513,448,515.6,449.5z"
					/>
				
					<linearGradient id="SVGID_20_" gradientUnits="userSpaceOnUse" x1="618.7222" y1="-304.7689" x2="632.4778" y2="-304.7689" gradientTransform="matrix(-1 0 0 1 1114.5 774)">
					<stop  offset="0" style="stop-color:#EEFFFF"/>
					<stop  offset="1" style="stop-color:#C6DCF4"/>
				</linearGradient>
				<path class="st64" d="M493.9,460.6c2.6,1.5,2.5,6.6-0.3,11.4c-2.7,4.8-7.1,7.4-9.7,5.9s-2.5-6.6,0.3-11.4
					C486.9,461.7,491.3,459,493.9,460.6z"/>
				
					<linearGradient id="SVGID_21_" gradientUnits="userSpaceOnUse" x1="641.2894" y1="-292.1456" x2="655.045" y2="-292.1456" gradientTransform="matrix(-1 0 0 1 1114.5 774)">
					<stop  offset="0" style="stop-color:#EEFFFF"/>
					<stop  offset="1" style="stop-color:#C6DCF4"/>
				</linearGradient>
				<path class="st65" d="M471.3,473.2c2.6,1.5,2.5,6.6-0.3,11.4c-2.7,4.8-7.1,7.4-9.7,5.9s-2.5-6.6,0.3-11.4
					C464.4,474.4,468.7,471.7,471.3,473.2z"/>
				
					<linearGradient id="SVGID_22_" gradientUnits="userSpaceOnUse" x1="663.2222" y1="-279.85" x2="676.9778" y2="-279.85" gradientTransform="matrix(-1 0 0 1 1114.5 774)">
					<stop  offset="0" style="stop-color:#EEFFFF"/>
					<stop  offset="1" style="stop-color:#C6DCF4"/>
				</linearGradient>
				<path class="st66" d="M449.4,485.5c2.6,1.5,2.5,6.6-0.3,11.4c-2.7,4.8-7.1,7.4-9.7,5.9s-2.5-6.6,0.3-11.4
					C442.4,486.6,446.8,484,449.4,485.5z"/>
				
					<linearGradient id="SVGID_23_" gradientUnits="userSpaceOnUse" x1="685.7847" y1="-267.2456" x2="699.5457" y2="-267.2456" gradientTransform="matrix(-1 0 0 1 1114.5 774)">
					<stop  offset="0" style="stop-color:#EEFFFF"/>
					<stop  offset="1" style="stop-color:#C6DCF4"/>
				</linearGradient>
				<path class="st67" d="M426.8,498.1c2.6,1.5,2.4,6.6-0.3,11.4s-7.1,7.4-9.7,5.9s-2.5-6.6,0.3-11.4
					C419.9,499.3,424.2,496.6,426.8,498.1z"/>
			</g>
		</g>
	</g>
</g>
</svg>
