<svg xmlns="http://www.w3.org/2000/svg" viewBox="0 0 90 100">
    <path fill="#DCDCDC" d="M75.9,25.9v-0.1l0,0c0,0,0-0.1,0-0.2l0,0v-0.1l0,0v-0.1l0,0c0,0,0-0.1-0.1-0.1l0,0c0,0,0-0.1-0.1-0.1l0,0c0,0,0-0.1-0.1-0.1l0,0L75.5,25L51.3,0.5l-0.1-0.1l0,0c0,0-0.1,0-0.1-0.1l0,0L51,0.2l0,0c0,0-0.1,0-0.1-0.1l0,0h-0.1l0,0h-0.1l0,0c0,0-0.1,0-0.2,0l0,0h-0.1l0,0h-45C2.4,0,0,2.4,0,5.4v89.2c0,3,2.4,5.4,5.4,5.4h65.1c3,0,5.4-2.4,5.4-5.4V25.9L75.9,25.9z"/>
    <g fill="#FAFAFA">
        <path d="M70.5,96.4H5.4c-1,0-1.8-0.8-1.8-1.8V5.4c0-1,0.8-1.8,1.8-1.8h42.8v18.7c0,3,2.4,5.4,5.4,5.4h18.7v66.9C72.3,95.6,71.5,96.4,70.5,96.4z"/>
        <path d="M51.8,6.1l9,9l9,9H53.6c-1,0-1.8-0.8-1.8-1.8V6.1z"/>
    </g>
    <path fill="#006EC8" d="M86.4,76.5H15.3c-2,0-3.6-1.6-3.6-3.6V44c0-2,1.6-3.6,3.6-3.6h71.1c2,0,3.6,1.6,3.6,3.6v28.9C90,74.9,88.4,76.5,86.4,76.5z"/>
    <g fill="#FFFFFF">
        <path class="st3" d="M68.5,49.9c2,0,3.8,1,4.9,2.2l-2,2.3c-0.8-0.8-1.6-1.2-2.8-1.2c-2.3,0-4.1,2-4.1,5.3c0,3.4,1.6,5.4,4,5.4c1.4,0,2.3-0.6,3.1-1.5l2,2.3c-1.4,1.6-3.2,2.4-5.2,2.4c-4.3,0-7.8-2.9-7.8-8.4C60.6,53.1,64.2,49.9,68.5,49.9z"/>
        <path class="st3" d="M43.3,58.4c0-5.4,3.1-8.5,7.5-8.5c4.5,0,7.5,3.1,7.5,8.5s-3,8.6-7.5,8.6C46.4,67,43.3,63.7,43.3,58.4zM54.5,58.4c0-3.3-1.4-5.3-3.7-5.3c-2.2,0-3.7,2-3.7,5.3s1.4,5.4,3.7,5.4C53.1,63.8,54.5,61.7,54.5,58.4z"/>
        <path class="st3" d="M28.1,50.2h4.7c5.1,0,8.3,2.5,8.3,8.2s-3.2,8.3-8.1,8.3h-4.9V50.2z M32.5,63.7c2.8,0,4.7-1.4,4.7-5.3s-1.9-5.2-4.7-5.2h-0.7v10.5H32.5z"/>
    </g>
</svg>
