<svg xmlns="http://www.w3.org/2000/svg" viewBox="0 0 100 100" fill="#D20000">
    <path d="M100,76.9v-7.7H76.9V53.8h-7.7L46.2,34.6v16.5l3.8,2.7h-3.8L23.1,34.6v16.5l3.8,2.7h-3.8L0,34.6V100h100v-7.7H76.9v-3.8H100v-7.7H76.9v-3.8H100z M23.1,90.4c0,1.1-0.9,1.9-1.9,1.9H9.6c-1.1,0-1.9-0.9-1.9-1.9v-7.7c0-1.1,0.9-1.9,1.9-1.9h11.5c1.1,0,1.9,0.9,1.9,1.9V90.4z M23.1,71.2c0,1.1-0.9,1.9-1.9,1.9H9.6c-1.1,0-1.9-0.9-1.9-1.9v-7.7c0-1.1,0.9-1.9,1.9-1.9h11.5c1.1,0,1.9,0.9,1.9,1.9V71.2z M46.2,90.4c0,1.1-0.9,1.9-1.9,1.9H32.7c-1.1,0-1.9-0.9-1.9-1.9v-7.7c0-1.1,0.9-1.9,1.9-1.9h11.5	c1.1,0,1.9,0.9,1.9,1.9V90.4z M46.2,71.2c0,1.1-0.9,1.9-1.9,1.9H32.7c-1.1,0-1.9-0.9-1.9-1.9v-7.7c0-1.1,0.9-1.9,1.9-1.9h11.5c1.1,0,1.9,0.9,1.9,1.9V71.2z M69.2,90.4c0,1.1-0.9,1.9-1.9,1.9H55.8c-1.1,0-1.9-0.9-1.9-1.9v-7.7c0-1.1,0.9-1.9,1.9-1.9h11.5c1.1,0,1.9,0.9,1.9,1.9V90.4z M69.2,71.2c0,1.1-0.9,1.9-1.9,1.9H55.8c-1.1,0-1.9-0.9-1.9-1.9v-7.7c0-1.1,0.9-1.9,1.9-1.9h11.5c1.1,0,1.9,0.9,1.9,1.9V71.2z"/>
    <polygon points="85.5,11.5 80.8,65.4 100,65.4 95.2,11.5 "/>
    <polygon points="72.3,19.2 69.2,50 80.8,50 77.7,19.2 "/>
    <polygon points="77.3,15.4 76.9,11.5 73.1,11.5 72.7,15.4 "/>
    <polygon points="94.9,7.7 94.2,0 86.5,0 85.9,7.7 "/>
</svg>
