<?xml version="1.0" encoding="utf-8"?>
<!-- Generator: Adobe Illustrator 24.1.1, SVG Export Plug-In . SVG Version: 6.00 Build 0)  -->
<svg version="1.1" id="WhatsApp_Logo" xmlns="http://www.w3.org/2000/svg" xmlns:xlink="http://www.w3.org/1999/xlink" x="0px"
	 y="0px" viewBox="0 0 100 100" style="enable-background:new 0 0 100 100;" xml:space="preserve">
<style type="text/css">
	.st0{fill:#F0F0F0;}
	.st1{fill:url(#SVGID_1_);}
	.st2{fill-rule:evenodd;clip-rule:evenodd;fill:#FFFFFF;}
</style>
<path class="st0" d="M0,100l7.1-25.7c-4.4-7.5-6.6-16-6.6-24.8C0.4,22.2,22.8,0,50.2,0C63.5,0,76,5.2,85.4,14.5
	c9.4,9.4,14.6,21.8,14.6,35.1c0,27.3-22.3,49.6-49.8,49.6l0,0l0,0c-8.3,0-16.5-2.1-23.8-6L0,100z"/>
<linearGradient id="SVGID_1_" gradientUnits="userSpaceOnUse" x1="76.4267" y1="84.1868" x2="17.8735" y2="13.3783" gradientTransform="matrix(1 0 0 -1 0 102)">
	<stop  offset="0" style="stop-color:#60D66A"/>
	<stop  offset="1" style="stop-color:#20B038"/>
</linearGradient>
<path class="st1" d="M27.6,84.1l1.5,0.9c6.4,3.8,13.6,5.7,21.1,5.7l0,0c22.8,0,41.4-18.5,41.4-41.2c0-11-4.3-21.4-12.1-29.1
	s-18.2-12-29.3-12C27.4,8.4,8.8,26.8,8.8,49.6c0,7.8,2.2,15.4,6.3,21.9l1,1.6L12,88.2L27.6,84.1z"/>
<path id="f1" class="st2" d="M37.8,28.8c-0.9-2.1-1.9-2.1-2.8-2.1c-0.7,0-1.6,0-2.4,0c-0.8,0-2.2,0.3-3.3,1.5
	c-1.1,1.2-4.4,4.2-4.4,10.3s4.5,12,5.1,12.8S38.6,65,51.3,70c10.5,4.1,12.6,3.3,14.9,3.1c2.3-0.2,7.4-3,8.4-5.9s1-5.4,0.7-5.9
	s-1.1-0.8-2.4-1.4s-7.4-3.6-8.5-4s-2-0.6-2.8,0.6c-0.8,1.2-3.2,4-3.9,4.9c-0.7,0.8-1.5,0.9-2.7,0.3c-1.2-0.6-5.3-1.9-10-6.1
	c-3.7-3.3-6.2-7.3-6.9-8.6c-0.7-1.2-0.1-1.9,0.5-2.5s1.2-1.4,1.9-2.2c0.6-0.7,0.8-1.2,1.2-2.1c0.4-0.8,0.2-1.6-0.1-2.2
	S38.9,31.3,37.8,28.8z"/>
</svg>
