<svg xmlns="http://www.w3.org/2000/svg" viewBox="0 0 144 100">
    <g fill="#FFA032">
        <path d="M109.3,23.2L109.3,23.2c-8.8,0-16.9,3.3-23,8.8c-1.2-1-2.4-2-3.7-2.9c-3.8,6.3-8.3,10.9-12.8,14.1c3.1,2,5.1,5.6,5.1,9.6V100h23V52.8c0-6.4,5.1-11.5,11.5-11.5l0,0c6.4,0,11.5,5.1,11.5,11.5V100h23V57.7C143.9,38.7,128.4,23.2,109.3,23.2z"/>
        <path d="M45.8,50.6L45.8,50.6c-7,0-12.9-1.7-15.9-2.7c-0.9,3.1-1.4,6.4-1.4,9.9V100h23V52.8c0-0.9,0.1-1.8,0.3-2.7C49.8,50.4,47.8,50.6,45.8,50.6z"/>
    </g>
    <path fill="#464646" d="M71.6,18.2L95.5,0c0,0-0.3,0-0.6,0h-0.6l0,0C85.7,0.1,37.6,1.9,0.9,28.4l0,0L0,29.1h3.8L3.6,48.5C-1.3,61.8,7,77.6,7,77.6c1-20-2.6-29.2-2.6-29.2l0.3-19.3H28l1.3,14.5c0,0,32.8,14.6,51.2-19C80.7,24.6,75.5,18.8,71.6,18.2z"/>
</svg>
