<svg xmlns="http://www.w3.org/2000/svg" viewBox="0 0 90 100">
<path fill="#DCDCDC" d="M75.9,25.9v-0.1l0,0c0,0,0-0.1,0-0.2l0,0v-0.1l0,0v-0.1l0,0c0,0,0-0.1-0.1-0.1l0,0c0,0,0-0.1-0.1-0.1l0,0c0,0,0-0.1-0.1-0.1l0,0L75.5,25L51.3,0.5l-0.1-0.1l0,0c0,0-0.1,0-0.1-0.1l0,0L51,0.2l0,0c0,0-0.1,0-0.1-0.1l0,0h-0.1l0,0h-0.1l0,0c0,0-0.1,0-0.2,0l0,0h-0.1l0,0h-45C2.4,0,0,2.4,0,5.4v89.2c0,3,2.4,5.4,5.4,5.4h65.1c3,0,5.4-2.4,5.4-5.4V25.9L75.9,25.9z"/>
    <g fill="#FAFAFA">
        <path d="M70.5,96.4H5.4c-1,0-1.8-0.8-1.8-1.8V5.4c0-1,0.8-1.8,1.8-1.8h42.8v18.7c0,3,2.4,5.4,5.4,5.4h18.7v66.9C72.3,95.6,71.5,96.4,70.5,96.4z"/>
        <path d="M51.8,6.1l9,9l9,9H53.6c-1,0-1.8-0.8-1.8-1.8V6.1z"/>
    </g>
    <path fill="#64B41E" d="M86.4,76.5h-71c-2,0-3.6-1.6-3.6-3.6V44c0-2,1.6-3.6,3.6-3.6h71c2,0,3.6,1.6,3.6,3.6v28.9C90,74.9,88.4,76.5,86.4,76.5z"/>
    <g fill="#FFFFFF">
        <path d="M60.5,62.1c1.2,1,2.7,1.7,4,1.7c1.5,0,2.3-0.6,2.3-1.6c0-1-0.9-1.4-2.4-2l-2.1-0.9c-1.7-0.7-3.3-2.1-3.3-4.5c0-2.7,2.5-4.9,5.9-4.9c1.9,0,3.9,0.8,5.3,2.2l-1.9,2.3c-1.1-0.8-2.1-1.3-3.4-1.3c-1.3,0-2.1,0.6-2.1,1.5c0,1,1.1,1.4,2.5,1.9l2.1,0.9c2,0.8,3.3,2.2,3.3,4.5c0,2.7-2.3,5.1-6.2,5.1c-2.2,0-4.4-0.8-6.1-2.4L60.5,62.1z"/>
        <polygon points="47.1,50.2 50.8,50.2 50.8,63.6 57.3,63.6 57.3,66.7 47.1,66.7 "/>
        <path d="M35.7,58.2l-4.3-8h4.2l1.4,3.1c0.4,0.8,0.7,1.6,1.2,2.7h0.1c0.4-1,0.7-1.9,1-2.7l1.3-3.1h4l-4.3,8.2l4.5,8.3h-4.1l-1.6-3.4c-0.4-0.9-0.8-1.7-1.2-2.7h-0.1c-0.4,1-0.8,1.8-1.1,2.7l-1.5,3.4h-4L35.7,58.2z"/>
    </g>
</svg>
