<svg xmlns="http://www.w3.org/2000/svg" viewBox="0 0 74.2 74.2" fill="#ffffff">
    <path d="M37.1,6.7c9.9,0,11.1,0,15,0.2c3.6,0.2,5.6,0.8,6.9,1.3c1.7,0.7,3,1.5,4.3,2.8s2.1,2.5,2.8,4.3c0.5,1.3,1.1,3.3,1.3,6.9c0.2,3.9,0.2,5.1,0.2,15s0,11.1-0.2,15c-0.2,3.6-0.8,5.6-1.3,6.9c-0.7,1.7-1.5,3-2.8,4.3c-1.3,1.3-2.5,2.1-4.3,2.8c-1.3,0.5-3.3,1.1-6.9,1.3c-3.9,0.2-5.1,0.2-15,0.2s-11.1,0-15-0.2c-3.6-0.2-5.6-0.8-6.9-1.3c-1.7-0.7-3-1.5-4.3-2.8c-1.3-1.3-2.1-2.5-2.8-4.3c-0.5-1.3-1.1-3.3-1.3-6.9c-0.2-3.9-0.2-5.1-0.2-15s0-11.1,0.2-15c0.2-3.6,0.8-5.6,1.3-6.9c0.7-1.7,1.5-3,2.8-4.3c1.3-1.3,2.5-2.1,4.3-2.8c1.3-0.5,3.3-1.1,6.9-1.3C26,6.8,27.2,6.7,37.1,6.7M37.1,0C27,0,25.7,0,21.8,0.2c-4,0.2-6.7,0.8-9,1.7c-2.4,1-4.5,2.2-6.6,4.3s-3.3,4.1-4.3,6.6c-0.9,2.4-1.5,5.1-1.7,9C0,25.8,0,27,0,37.1s0,11.4,0.2,15.3c0.2,4,0.8,6.7,1.7,9c1,2.4,2.2,4.5,4.3,6.6s4.1,3.3,6.6,4.3c2.4,0.9,5.1,1.5,9,1.7c4,0.2,5.2,0.2,15.3,0.2s11.4,0,15.3-0.2c4-0.2,6.7-0.8,9-1.7c2.4-1,4.5-2.2,6.6-4.3c2.1-2.1,3.3-4.1,4.3-6.6c0.9-2.4,1.5-5.1,1.7-9c0.2-4,0.2-5.2,0.2-15.3s0-11.4-0.2-15.3c-0.2-4-0.8-6.7-1.7-9c-1-2.4-2.2-4.5-4.3-6.6c-2.1-2.1-4.1-3.3-6.6-4.3c-2.4-0.9-5.1-1.5-9-1.7C48.5,0.1,47.2,0,37.1,0L37.1,0z"/>
    <path d="M37.1,18.1C26.6,18.1,18,26.6,18,37.2s8.6,19.1,19.1,19.1s19.1-8.6,19.1-19.1S47.6,18.1,37.1,18.1z M37.1,49.6c-6.8,0-12.4-5.5-12.4-12.4c0-6.8,5.5-12.4,12.4-12.4c6.8,0,12.4,5.5,12.4,12.4C49.5,44,43.9,49.6,37.1,49.6z"/>
    <circle cx="57" cy="17.3" r="4.5"/>
</svg>
