<svg xmlns="http://www.w3.org/2000/svg" viewBox="0 0 85 100">
    <path fill="#DCDCDC" d="M77.2,29.7v-0.1l0,0v-0.1l0,0v-0.1l0,0v-0.1l0,0c0,0,0-0.1-0.1-0.1l0,0c0,0,0-0.1-0.1-0.1l0,0c0,0,0-0.1-0.1-0.1l0,0l-0.1-0.1L53.9,5.7l-0.1-0.1l0,0l-5.1-5.1l-0.1-0.1l0,0c0,0-0.1,0-0.1-0.1l0,0l-0.1-0.1c0,0-0.1,0-0.1-0.1l0,0h-0.1l0,0h-0.1l0,0H48h-0.2l0,0H5.1C2.3,0,0,2.3,0,5.1v84.5c0,2.8,2.3,5.1,5.1,5.1h0.1v0.1c0,2.8,2.3,5.1,5.1,5.1H72c2.8,0,5.1-2.3,5.1-5.1L77.2,29.7C77.2,29.8,77.2,29.7,77.2,29.7z"/>
    <g fill="#FAFAFA">
        <path d="M73.7,91.4c0,2.8-2.3,5.1-5.1,5.1H10.4c-0.9,0-1.7-0.8-1.7-1.7v-0.1h58.1c2.8,0,5.1-2.3,5.1-5.1V28.4l1.8,1.8V91.4z"/>
        <path d="M49.1,5.8l8.5,8.5l8.5,8.5H50.8c-0.9,0-1.7-0.8-1.7-1.7V5.8z"/>
        <path d="M66.8,91.3H5.1c-0.9,0-1.7-0.8-1.7-1.7V5.1c0-0.9,0.8-1.7,1.7-1.7h40.5v17.7c0,2.8,2.3,5.1,5.1,5.1h17.7v63.4C68.5,90.6,67.7,91.3,66.8,91.3z"/>
    </g>
    <path fill="#B01116" d="M81.6,72.5H14.3c-1.9,0-3.4-1.5-3.4-3.4V41.7c0-1.9,1.5-3.4,3.4-3.4h67.3c1.9,0,3.4,1.5,3.4,3.4v27.4C85,71,83.5,72.5,81.6,72.5z"/>
    <g fill="#FFFFFF">
        <path d="M57.7,60.4c1.1,0.8,2.1,1.2,3.1,1.2c1,0,1.5-0.4,1.5-1c0-0.8-1.2-1.2-2.4-1.6c-1.4-0.5-3.1-1.5-3.1-3.5c0-2.2,1.8-3.7,4.5-3.7c1.8,0,3.2,0.7,4.2,1.5l-1.6,2.1c-0.9-0.6-1.7-1-2.5-1c-0.9,0-1.3,0.3-1.3,0.9c0,0.8,1.1,1,2.3,1.5c1.5,0.5,3.2,1.4,3.2,3.6c0,2.2-1.7,3.8-4.9,3.8c-1.6,0-3.4-0.7-4.5-1.7L57.7,60.4z"/>
        <polygon points="49.7,50.2 47.2,50.2 49.3,46.6 52.7,46.6"/>
        <path d="M49.1,51.8c3,0,5.8,2.3,5.8,6.2c0,4-2.8,6.2-5.8,6.2c-3,0-5.8-2.3-5.8-6.2C43.4,54,46.1,51.8,49.1,51.8zM49.1,61.4c1.4,0,2.2-1.3,2.2-3.4c0-2.1-0.7-3.4-2.2-3.4c-1.5,0-2.2,1.3-2.2,3.4S47.7,61.4,49.1,61.4z"/>
        <path d="M30.3,48.3H36c3.4,0,6.1,1.2,6.1,5c0,3.7-2.8,5.3-6.1,5.3h-2.2v5.3h-3.5V48.3z M35.8,55.8c1.9,0,2.9-0.9,2.9-2.5s-1-2.2-2.9-2.2h-1.9v4.7L35.8,55.8L35.8,55.8z"/>
    </g>
</svg>
