<svg xmlns="http://www.w3.org/2000/svg" viewBox="0 0 120 100" fill="rgb(80,80,80)">
    <polyline points="32.5,93.8 32.5,81.3 120,81.3 120,93.8 32.5,93.8 "/>
    <polyline points="32.5,56.3 32.5,43.8 120,43.8 120,56.3 32.5,56.3 "/>
    <polyline points="32.5,18.8 32.5,6.3 120,6.3 120,18.8 32.5,18.8 "/>
    <polyline points="0,81.3 0,75 18.8,75 18.8,100 0,100 0,93.8 12.5,93.8 12.5,90.6 6.3,90.6 6.3,84.4 12.5,84.4 12.5,81.3 0,81.3 "/>
    <path d="M14.1,37.5c2.6,0,4.7,2.1,4.7,4.7c0,1.3-0.5,2.4-1.3,3.3L7,56.3h11.8v6.3H0v-5.8l12.5-13H0v-6.3H14.1z"/>
    <polyline points="6.3,25 6.3,6.3 0,6.3 0,0 12.5,0 12.5,25 6.3,25 "/>
</svg>
