<svg xmlns="http://www.w3.org/2000/svg" viewBox="0 0 344 100">
    <path fill="#AAE1FA" d="M337.5,22.9C331.5,0.6,283.9-6,231.2,8.2c-13,3.5-25,7.9-35.8,12.9l5.9,0.5c8.7-3.5,18.1-6.7,28.1-9.4c49.6-13.3,93.8-8.9,98.8,9.7s-31.1,44.5-80.7,57.8s-93.8,8.9-98.8-9.7c-1.7-6.4,1.4-13.6,8.1-20.8l-0.2-1.9c-8.5,9.1-12.4,18.5-10.2,26.8c6,22.3,53.5,28.8,106.3,14.7C305.5,74.6,343.4,45.1,337.5,22.9z"/>
    <g fill="#00AFF0">
        <path d="M343.3,23.7c-5.6-20.9-45.2-29-92.1-20.2c45.3-7.9,82.9-0.1,88.3,19.7c4.3,16-13.6,35.7-43.4,50.9l0,0c-5.1,2.6-10.5,5-16.2,7.3c-8.3,3.3-17.2,6.3-26.6,8.8c-42.2,11.2-81.2,9.4-99-2.9c16.7,14.4,57.7,17.2,102.2,5.2c11.4-3,22.1-6.8,31.8-11.1h34.5v-7.3h-19.5C331.2,58.8,347.6,39.6,343.3,23.7z"/>
        <path d="M279,33.8h44v-7.3h-47.6c-4,0-7.3,3.3-7.3,7.3v37.4c2.5-0.9,4.9-1.8,7.3-2.8v-31C275.3,35.4,276.9,33.8,279,33.8z"/>
        <path d="M259.5,74.1h-42.8c-2,0-3.7-1.6-3.7-3.7v-9.2c0-2,1.6-3.7,3.7-3.7H246v-7.3h-29.3c-2,0-3.7-1.6-3.7-3.7v-9.2c0-2,1.6-3.7,3.7-3.7h44v-7.3H213c-4,0-7.3,3.3-7.3,7.3v40.3c0,4,3.3,7.3,7.3,7.3h18.2c5.2-1,10.5-2.3,15.9-3.7C251.3,76.6,255.4,75.4,259.5,74.1z"/>
        <path d="M198.3,26.5h-55v7.3h20.2c2,0,3.7,1.6,3.7,3.7v44h7.3v-44c0-2,1.6-3.7,3.7-3.7h20.2L198.3,26.5L198.3,26.5z"/>
    </g>
    <g fill="#0073BE">
        <path d="M127.6,28.1l-19.1,29.3l-19-29.3c-0.7-1-1.8-1.7-3.1-1.7h-5.3v55h7.3V37.7l15.4,23.7c0.7,1,1.8,1.7,3.1,1.7h3.4c1.2,0,2.4-0.6,3.1-1.7l15.4-23.7v43.7h7.3v-55h-5.3C129.5,26.5,128.3,27.1,127.6,28.1z"/>
        <rect x="64.6" y="26.5" width="7.3" height="55"/>
        <path d="M55,39.3v-5.5c0-4-3.3-7.3-7.3-7.3H7.3c-4,0-7.3,3.3-7.3,7.3v16.5c0,4,3.3,7.3,7.3,7.3H44c2,0,3.7,1.6,3.7,3.7v9.2c0,2-1.6,3.7-3.7,3.7H11c-2,0-3.7-1.6-3.7-3.7v-1.8H0v5.5c0,4,3.3,7.3,7.3,7.3h40.3c4,0,7.3-3.3,7.3-7.3V57.6c0-4-3.3-7.3-7.3-7.3H11c-2,0-3.7-1.6-3.7-3.7v-9.2c0-2,1.6-3.7,3.7-3.7h33c2,0,3.7,1.6,3.7,3.7v1.8H55V39.3z"/>
    </g>
</svg>
