<svg xmlns="http://www.w3.org/2000/svg" viewBox="0 0 100 100">
    <path fill="#006EA0" d="M44.8,18.7h15.7L77.6,1.5c2-2,5.3-2.1,7.4,0l0,0L98.5,15c2,2,2,5.3,0,7.4l-12,12H44.8v10.4c0,2.9-2.3,5.2-5.2,5.2s-5.2-2.3-5.2-5.2V29.2C34.3,23.4,39,18.7,44.8,18.7"/>
    <path fill="#00506E" d="M13.5,44.8v20.9l-12,11.9c-2,2-2,5.3,0,7.4L15,98.5c2,2,5.3,2.1,7.4,0l0,0l22.4-22.4h20.9c2.9,0,5.2-2.3,5.2-5.2v-5.2h5.2c2.9,0,5.2-2.3,5.2-5.2v-5.2h5.2c2.9,0,5.2-2.3,5.2-5.2v-5.2H55.2V50c0,5.8-4.7,10.4-10.4,10.4H34.3c-5.8,0-10.4-4.7-10.4-10.4V34.4L13.5,44.8z"/>
</svg>
