<svg xmlns="http://www.w3.org/2000/svg" viewBox="0 0 100 100">
    <circle fill="#1DA1F2" cx="50" cy="50" r="50"/>
    <path fill="#FFFFFF" d="M40.9,76.4C63,76.4,75.1,58,75.1,42.1c0-0.5,0-1,0-1.6c2.4-1.7,4.4-3.8,6-6.2c-2.2,1-4.5,1.6-6.9,1.9c2.5-1.5,4.4-3.9,5.3-6.7c-2.3,1.4-4.9,2.4-7.7,2.9c-2.2-2.3-5.3-3.8-8.8-3.8c-6.6,0-12,5.4-12,12.1c0,0.9,0.1,1.9,0.3,2.7c-10-0.5-18.9-5.3-24.8-12.6c-1,1.8-1.6,3.9-1.6,6.1c0,4.2,2.1,7.9,5.4,10c-2-0.1-3.8-0.6-5.5-1.5c0,0.1,0,0.1,0,0.2c0,5.8,4.2,10.7,9.7,11.8c-1,0.3-2.1,0.4-3.2,0.4c-0.8,0-1.5-0.1-2.3-0.2c1.5,4.8,6,8.3,11.3,8.4c-4.1,3.2-9.3,5.2-15,5.2c-1,0-1.9-0.1-2.9-0.2C27.7,74.4,34,76.4,40.9,76.4"/>
</svg>
