<svg xmlns="http://www.w3.org/2000/svg" viewBox="0 0 110 100" fill="#00506E">
    <path d="M27.5,15C17.8,15,7.3,17,0,22.5v73.3c0,1.3,1.3,2.5,2.5,2.5c0.5,0,0.8-0.4,1.3-0.4c6.8-3.2,16.5-5.4,23.8-5.4c9.8,0,20.3,2,27.5,7.5c6.8-4.3,19-7.5,27.5-7.5c8.3,0,16.8,1.5,23.8,5.3c0.5,0.3,0.8,0.2,1.3,0.2c1.3,0,2.5-1.3,2.5-2.5v-73c-3-2.3-6.3-3.8-10-5v10V55v30c-5.5-1.8-11.5-2.5-17.5-2.5C74,82.5,61.8,85.8,55,90V55V32.5v-10C47.8,17,37.3,15,27.5,15L27.5,15z"/>
    <polyline points="90,0 65,22.5 65,77.5 90,55 90,0 "/>
</svg>
