<svg xmlns="http://www.w3.org/2000/svg" viewBox="0 0 100 100" fill="rgb(255, 150,30)">
    <path d="M50,22.7c15.1,0,27.3,12.2,27.3,27.3c0,10.1-5.5,18.9-13.6,23.6v8.2c0,2.5-2,4.5-4.5,4.5H40.9c-2.5,0-4.5-2-4.5-4.5v-8.2C28.2,68.9,22.7,60.1,22.7,50C22.7,34.9,34.9,22.7,50,22.7"/>
    <path d="M59.1,90.9v4.5c0,2.5-2,4.5-4.5,4.5h-9.1c-2.5,0-4.5-2-4.5-4.5v-4.5H59.1"/>
    <polyline points="86.4,45.5 100,45.5 100,54.5 86.4,54.5 86.4,45.5 "/>
    <polyline points="0,45.5 13.6,45.5 13.6,54.5 0,54.5 0,45.5 "/>
    <polyline points="54.5,0 54.5,13.6 45.5,13.6 45.5,0 54.5,0 "/>
    <polyline points="17.8,11.4 27.5,21.1 21,27.5 11.4,17.9 17.8,11.4 "/>
    <polygon points="72.5,21 82.1,11.4 88.6,17.9 79,27.5 "/>
</svg>
