<svg xmlns="http://www.w3.org/2000/svg" viewBox="0 0 90 100">
    <g fill="#646464">
        <rect x="17.5" y="17.4" width="34" height="10"/>
        <rect x="17.5" y="35.8" width="47" height="10"/>
        <rect x="17.5" y="54.2" width="55" height="10"/>
        <rect x="17.5" y="72.6" width="55" height="10"/>
    </g>
    <path fill="#00506E" d="M80,100H10c-5.5,0-10-4.5-10-10V10C0,4.5,4.5,0,10,0h70c5.5,0,10,4.5,10,10v80C90,95.5,85.5,100,80,100z M75,10H15c-2.8,0-5,2.2-5,5v70c0,2.8,2.2,5,5,5h60c2.8,0,5-2.2,5-5V15C80,12.2,77.8,10,75,10z"/>
</svg>
