<svg xmlns="http://www.w3.org/2000/svg" viewBox="0 0 200 100">
    <path fill="#8C8C8C" d="M183,100H90.5c-9.4,0-17-7.6-17-17V44.8c0-9.4,7.6-17,17-17H183c9.4,0,17,7.6,17,17V83C200,92.4,192.4,100,183,100z M137.2,66.4L137.2,66.4h-26.1v3.9c5.9,0.5,7.3,1.5,7.3,8V88c-2.2,0.5-4.5,1.1-7,1.1c-12.7,0-17.1-11-17.1-25.6c0-13.9,5.4-24.9,16.7-24.9s12.4,9.6,13.1,16.1h4.6V36.6c-4.1-1-11.6-1.9-17.8-1.9C94.6,34.8,80,44.3,80,63.9C80,85.1,94.6,93,109,93c6.9,0,14.9-1.3,22.3-4.3V78.3c0-6.6,0.8-7.6,5.9-8V66.4z M170.8,75.1c1,2.6,3.2,7,3.2,10.2c0,3.4-2.5,3.8-6.6,3.8V93h26.2v-4c-3.8-0.6-5.5-2.4-8.5-10.1l-12.7-32.3c-2.2-5.8-3.3-9.9-3.8-11.8H161c-0.8,3.3-2.2,6.9-3.5,10.3l-14.1,38c-1.5,4.1-2.9,5.8-6.6,5.9v4h18.7v-4c-4.1,0-6.6-0.5-6.6-4c0-2.3,1.9-7.1,2.8-9.9C151.7,75.1,170.8,75.1,170.8,75.1z M153.2,70.3l7.1-20.6c0.2-0.6,0.2-0.7,0.5-0.7s0.3,0.2,0.5,0.7l7.7,20.6H153.2z"/>
    <g fill="#1E1E1E">
        <path d="M51.1,47.2c0-6.9-1.3-7.9-7.3-8.4v-4h27.5v4c-5.9,0.5-7.3,1.5-7.3,8.4v33.4c0,6.9,1.3,7.9,7.3,8.4v4H43.8v-4c5.9-0.5,7.3-1.5,7.3-8.4V47.2z"/>
        <path d="M36.9,52.1h-4.6c-0.8-5.9-3.7-13.4-12.8-13.4c-6.1,0-8.4,3.9-8.4,7.8c0,12.9,28.6,8.3,28.6,28.5c0,12.6-9.4,18.1-22.2,18.1c-5.7,0-12.3-0.8-16.4-2.2L0,73.4h4.6c1.5,5.9,3.9,15.7,14.6,15.7c7.3,0,10.3-4.5,10.3-9.4c0-13.6-28.6-9-28.6-28.3C1,42,8.1,34.8,20.9,34.8c5.5,0,10.2,0.8,16,2.3V52.1z"/>
    </g>
    <circle fill="#D20000" cx="57.6" cy="11.8" r="11.8"/>
</svg>
