<svg xmlns="http://www.w3.org/2000/svg" viewBox="0 0 85 100">
    <path fill="#DCDCDC" d="M77.2,29.7c0,0,0-0.1,0-0.1v0c0,0,0-0.1,0-0.1c0,0,0,0,0,0c0,0,0-0.1,0-0.1c0,0,0,0,0,0c0,0,0-0.1,0-0.1c0,0,0,0,0,0c0,0,0-0.1-0.1-0.1c0,0,0,0,0,0c0,0,0-0.1-0.1-0.1c0,0,0,0,0,0c0,0,0-0.1-0.1-0.1c0,0,0,0,0,0c0,0-0.1-0.1-0.1-0.1L53.9,5.7c0,0-0.1-0.1-0.1-0.1l0,0l-5.1-5.1c0,0-0.1-0.1-0.1-0.1c0,0,0,0,0,0c0,0-0.1,0-0.1-0.1c0,0,0,0,0,0c0,0-0.1-0.1-0.1-0.1c0,0-0.1,0-0.1-0.1c0,0,0,0,0,0c0,0-0.1,0-0.1,0c0,0,0,0,0,0c0,0-0.1,0-0.1,0h0c0,0-0.1,0-0.1,0h-0.2c0,0,0,0,0,0H5.1C2.3,0,0,2.3,0,5.1v84.5c0,2.8,2.3,5.1,5.1,5.1h0.1v0.1c0,2.8,2.3,5.1,5.1,5.1h61.7c2.8,0,5.1-2.3,5.1-5.1L77.2,29.7C77.2,29.8,77.2,29.7,77.2,29.7z"/>
    <g fill="#FAFAFA">
        <path d="M73.7,91.4c0,2.8-2.3,5.1-5.1,5.1H10.4c-0.9,0-1.7-0.8-1.7-1.7v-0.1h58.1c2.8,0,5.1-2.3,5.1-5.1V28.4l1.8,1.8V91.4z"/>
        <path d="M49.1,5.8l8.5,8.5l8.5,8.5H50.8c-0.9,0-1.7-0.8-1.7-1.7V5.8z"/>
        <path d="M66.8,91.3H5.1c-0.9,0-1.7-0.8-1.7-1.7V5.1c0-0.9,0.8-1.7,1.7-1.7h40.5v17.7c0,2.8,2.3,5.1,5.1,5.1h17.7v63.4C68.5,90.6,67.7,91.3,66.8,91.3z"/>
    </g>
    <path fill="#00648C" d="M81.6,72.5H14.2c-1.9,0-3.4-1.5-3.4-3.4V41.7c0-1.9,1.5-3.4,3.4-3.4h67.4c1.9,0,3.4,1.5,3.4,3.4v27.4C85,71,83.5,72.5,81.6,72.5z"/>
    <g fill="#FFFFFF">
        <path d="M36.5,59.5h-4.8l-1,3.7h-3.6L32,47.5h4.2l4.9,15.6h-3.7L36.5,59.5z M35.7,56.7l-0.4-1.4c-0.4-1.6-0.8-3.4-1.3-5H34c-0.4,1.7-0.8,3.5-1.2,5l-0.4,1.4H35.7z"/>
        <path d="M42.8,47.5h4.4c4.8,0,7.9,2.4,7.9,7.7s-3.1,7.9-7.7,7.9h-4.6V47.5z M47,60.3c2.6,0,4.4-1.3,4.4-5s-1.8-4.9-4.4-4.9h-0.7v9.9H47z"/>
        <path d="M59,58.8c1.1,1,2.5,1.6,3.8,1.6c1.5,0,2.2-0.6,2.2-1.5c0-1-0.9-1.3-2.2-1.9l-2-0.9c-1.6-0.7-3.2-2-3.2-4.3c0-2.6,2.3-4.6,5.6-4.6c1.8,0,3.7,0.7,5,2.1l-1.8,2.2c-1-0.8-2-1.2-3.3-1.2c-1.2,0-2,0.5-2,1.4c0,1,1,1.3,2.4,1.8l2,0.8c1.9,0.8,3.1,2,3.1,4.2c0,2.6-2.2,4.8-5.9,4.8c-2,0-4.2-0.8-5.8-2.2L59,58.8z"/>
    </g>
</svg>
