<svg xmlns="http://www.w3.org/2000/svg" viewBox="0 0 142 100" fill="#FFFFFF">
    <path d="M140.7,21.6c0,0-1.4-9.8-5.6-14.1c-5.4-5.7-11.5-5.7-14.2-6C100.9,0,71,0,71,0S41.2,0,21.3,1.4c-2.8,0.3-8.8,0.4-14.2,6c-4.3,4.3-5.6,14.1-5.6,14.1S0,33.1,0,44.6v10.8c0,11.5,1.4,23,1.4,23S2.8,88.2,7,92.5c5.4,5.7,12.5,5.5,15.7,6.1C34.1,99.7,71,100,71,100s29.8,0,49.7-1.5c2.8-0.3,8.8-0.4,14.2-6c4.3-4.3,5.6-14.1,5.6-14.1s1.4-11.5,1.4-23V44.6C142.1,33.1,140.7,21.6,140.7,21.6z M56.3,68.4V28.5l38.4,20L56.3,68.4z"/>
</svg>
