<svg xmlns="http://www.w3.org/2000/svg" viewBox="0 0 95 100">
    <path fill="#006EA0" d="M61.2,44.1c12.3,0,22.1,9.8,22.1,22.1c0,4.3-1.2,8.4-3.4,11.8L95,93.2l-6.8,6.8L72.9,84.9c-3.4,2.1-7.4,3.3-11.7,3.3c-12.3,0-22.1-9.8-22.1-22.1S48.9,44.1,61.2,44.1 M61.2,53.9c-6.8,0-12.3,5.5-12.3,12.3s5.5,12.3,12.3,12.3c6.8,0,12.3-5.5,12.3-12.3S68,53.9,61.2,53.9"/>
    <path fill="#00506E" d="M19.6,58.9v9.8h9.8c0.7,7.6,3.9,14.4,8.9,19.6H9.8c-5.4,0-9.8-4.4-9.8-9.8V9.8C0,4.4,4.4,0,9.8,0h68.7c5.4,0,9.8,4.4,9.8,9.8v39.4c-5.6-8.9-15.6-14.9-27-14.9c-6.2,0-12.1,1.8-17,4.9H19.6V49h14.7c-1.8,2.9-3.2,6.3-4.1,9.8H19.6M68.7,29.4v-9.8h-49v9.8H68.7z"/>
</svg>
