<svg xmlns="http://www.w3.org/2000/svg" viewBox="0 0 85 100">
    <path fill="#DCDCDC" d="M77.2,29.7v-0.1l0,0v-0.1l0,0v-0.1l0,0v-0.1l0,0c0,0,0-0.1-0.1-0.1l0,0c0,0,0-0.1-0.1-0.1l0,0c0,0,0-0.1-0.1-0.1l0,0l-0.1-0.1L53.9,5.7l-0.1-0.1l0,0l-5.1-5.1l-0.1-0.1l0,0c0,0-0.1,0-0.1-0.1l0,0l-0.1-0.1c0,0-0.1,0-0.1-0.1l0,0h-0.1l0,0h-0.1l0,0H48h-0.2l0,0H5.1C2.3,0,0,2.3,0,5.1v84.5c0,2.8,2.3,5.1,5.1,5.1h0.1v0.1c0,2.8,2.3,5.1,5.1,5.1H72c2.8,0,5.1-2.3,5.1-5.1L77.2,29.7C77.2,29.8,77.2,29.7,77.2,29.7z"/>
    <g fill="#FAFAFA">
        <path d="M73.7,91.4c0,2.8-2.3,5.1-5.1,5.1H10.4c-0.9,0-1.7-0.8-1.7-1.7v-0.1h58.1c2.8,0,5.1-2.3,5.1-5.1V28.4l1.8,1.8V91.4z"/>
        <path d="M49.1,5.8l8.5,8.5l8.5,8.5H50.8c-0.9,0-1.7-0.8-1.7-1.7V5.8z"/>
        <path d="M66.8,91.3H5.1c-0.9,0-1.7-0.8-1.7-1.7V5.1c0-0.9,0.8-1.7,1.7-1.7h40.5v17.7c0,2.8,2.3,5.1,5.1,5.1h17.7v63.4C68.5,90.6,67.7,91.3,66.8,91.3z"/>
    </g>
    <path fill="#64B41E" d="M81.6,72.5H14.3c-1.9,0-3.4-1.5-3.4-3.4V41.7c0-1.9,1.5-3.4,3.4-3.4h67.3c1.9,0,3.4,1.5,3.4,3.4v27.4C85,71,83.5,72.5,81.6,72.5z"/>
    <g fill="#FFFFFF">
        <path class="st3" d="M27.9,59.5h-4.8l-1,3.7h-3.6l4.9-15.6h4.2l4.9,15.6h-3.7L27.9,59.5z M27.2,56.7l-0.4-1.4c-0.4-1.6-0.8-3.4-1.3-5h-0.1c-0.4,1.7-0.8,3.5-1.2,5l-0.4,1.4H27.2z"/>
        <path class="st3" d="M40.9,47.3c2.2,0,3.8,1,4.9,2l-1.9,2.2c-0.8-0.7-1.5-1.2-2.9-1.2c-2.4,0-4.1,1.9-4.1,5c0,3.2,1.5,5.1,4.4,5.1c0.6,0,1.3-0.2,1.7-0.5v-2.7h-2.6v-2.9H46v7.2c-1.1,1-3.1,1.9-5.2,1.9c-4.2,0-7.6-2.8-7.6-8C33.2,50.3,36.7,47.3,40.9,47.3z"/>
        <path class="st3" d="M57.7,63.2l-3-5.6h-1.9v5.6h-3.5V47.6h5.6c3.3,0,6,1.2,6,4.9c0,2.3-1.1,3.8-2.8,4.5l3.5,6.2L57.7,63.2L57.7,63.2z M52.7,54.8h1.8c1.8,0,2.8-0.8,2.8-2.3c0-1.5-1-2.1-2.8-2.1h-1.8V54.8z"/>
        <path class="st3" d="M63.2,55.3c0-5.1,2.9-8,7.1-8c4.2,0,7.1,2.9,7.1,8c0,5.1-2.9,8.2-7.1,8.2C66.1,63.5,63.2,60.4,63.2,55.3zM73.7,55.3c0-3.1-1.3-5-3.5-5c-2.1,0-3.5,1.9-3.5,5c0,3.1,1.4,5.1,3.5,5.1C72.4,60.5,73.7,58.5,73.7,55.3z"/>
    </g>
</svg>
