<svg xmlns="http://www.w3.org/2000/svg" viewBox="0 0 91 100">
    <polyline fill="#646464" points="54.6,54.5 61.4,54.5 61.4,67.4 72.5,73.8 69.1,79.7 54.6,71.3 54.6,54.5 	"/>
    <path fill="#960000" d="M72.8,31.8H9.1v50h21.2c-2-4.1-3-8.8-3-13.6c0-17.6,14.3-31.8,31.9-31.8c4.9,0,9.5,1.1,13.7,3V31.8 M9.1,90.9C4,90.9,0,86.8,0,81.8V18.2c0-5,4-9.1,9.1-9.1h4.5V0h9.1v9.1h36.4V0h9.1v9.1h4.6c5,0,9.1,4.1,9.1,9.1v27.7c5.6,5.7,9.1,13.6,9.1,22.3C91,85.8,76.7,100,59.2,100c-8.7,0-16.6-3.5-22.3-9.1H9.1 M59.2,46.1c-12.2,0-22.1,9.9-22.1,22l0,0c0,12.2,9.9,22,22.1,22c12.2,0,22.1-9.9,22.1-22l0,0C81.2,56,71.3,46.1,59.2,46.1z"/>
</svg>
