<svg xmlns="http://www.w3.org/2000/svg" viewBox="0 0 100 100">
    <path fill="#00506E" d="M100,11.1C100,5,95,0,88.9,0H11.1C5,0,0,5,0,11.1v77.8C0,95,5,100,11.1,100h77.8c6.1,0,11.1-5,11.1-11.1M88.9,88.9H11.1V11.1h77.8V88.9"/>
    <g fill="#B4B4B4">
        <polyline points="22.2,55.6 50,55.6 50,77.8 22.2,77.8 22.2,55.6 "/>
        <polyline points="55.6,22.2 77.8,22.2 77.8,38.9 55.6,38.9 55.6,22.2 "/>
    </g>
    <g fill="#00C800">
        <polyline points="22.2,22.2 50,22.2 50,50 22.2,50 22.2,22.2 "/>
        <rect x="55.6" y="44.4" width="22.2" height="33.3"/>
    </g>
</svg>
