<svg xmlns="http://www.w3.org/2000/svg" viewBox="0 0 100 100" fill="rgb(0,80,110)">
    <path d="M88.2,54.9c0.2-1.6,0.4-3.2,0.4-4.9s-0.2-3.3-0.4-5L99,36.8c1-0.7,1.2-2.1,0.6-3.2L89.4,16.4c-0.6-1.1-2-1.6-3.1-1.1l-12.8,5c-2.7-2-5.4-3.6-8.7-4.9L62.9,2.1C62.7,0.9,61.6,0,60.3,0H39.7c-1.3,0-2.4,0.9-2.6,2.1l-1.9,13.3c-3.2,1.3-6,2.9-8.7,4.9l-12.8-5c-1.1-0.5-2.5,0-3.1,1.1L0.4,33.6C-0.3,34.8,0,36.1,1,36.8L11.8,45c-0.2,1.7-0.4,3.3-0.4,5s0.2,3.3,0.4,4.9L1,63.2c-1,0.7-1.3,2.1-0.6,3.2l10.3,17.3c0.6,1.1,2,1.5,3.1,1.1l12.8-5c2.7,2,5.4,3.7,8.7,4.9L37.2,98c0.2,1.2,1.3,2.1,2.6,2.1h20.6c1.3,0,2.4-0.9,2.6-2.1l1.9-13.3c3.2-1.3,6-3,8.7-4.9l12.8,5c1.1,0.4,2.5,0,3.1-1.1l10.3-17.3c0.6-1.1,0.4-2.5-0.6-3.2L88.2,54.9z M50,67.5c-9.7,0-17.5-7.8-17.5-17.5S40.3,32.5,50,32.5S67.5,40.3,67.5,50S59.7,67.5,50,67.5"/>
</svg>
