<svg xmlns="http://www.w3.org/2000/svg" viewBox="0 0 90 100">
<path fill="#DCDCDC" d="M75.9,25.9v-0.1l0,0c0,0,0-0.1,0-0.2l0,0v-0.1l0,0v-0.1l0,0c0,0,0-0.1-0.1-0.1l0,0c0,0,0-0.1-0.1-0.1l0,0c0,0,0-0.1-0.1-0.1l0,0L75.5,25L51.3,0.5l-0.1-0.1l0,0c0,0-0.1,0-0.1-0.1l0,0L51,0.2l0,0c0,0-0.1,0-0.1-0.1l0,0h-0.1l0,0h-0.1l0,0c0,0-0.1,0-0.2,0l0,0h-0.1l0,0h-45C2.4,0,0,2.4,0,5.4v89.2c0,3,2.4,5.4,5.4,5.4h65.1c3,0,5.4-2.4,5.4-5.4V25.9L75.9,25.9z"/>
    <g fill="#FAFAFA">
        <path d="M70.5,96.4H5.4c-1,0-1.8-0.8-1.8-1.8V5.4c0-1,0.8-1.8,1.8-1.8h42.8v18.7c0,3,2.4,5.4,5.4,5.4h18.7v66.9C72.3,95.6,71.5,96.4,70.5,96.4z"/>
        <path d="M51.8,6.1l9,9l9,9H53.6c-1,0-1.8-0.8-1.8-1.8V6.1z"/>
    </g>
    <path fill="#D20000" d="M86.4,76.5h-71c-2,0-3.6-1.6-3.6-3.6V44c0-2,1.6-3.6,3.6-3.6h71c2,0,3.6,1.6,3.6,3.6v28.9C90,74.9,88.4,76.5,86.4,76.5z"/>
    <g fill="#FFFFFF">
        <polygon points="61.3,50.2 71.8,50.2 71.8,53.3 65.1,53.3 65.1,57.2 70.8,57.2 70.8,60.3 65.1,60.3 65.1,66.8 		61.3,66.7 	"/>
        <path d="M45.3,50.2H50c5.1,0,8.3,2.5,8.3,8.2s-3.2,8.3-8.1,8.3h-4.9C45.3,66.7,45.3,50.2,45.3,50.2z M49.8,63.7c2.8,0,4.7-1.4,4.7-5.3s-1.9-5.2-4.7-5.2h-0.7v10.5H49.8z"/>
        <path d="M30,50.2h6c3.6,0,6.4,1.3,6.4,5.3c0,3.9-3,5.6-6.4,5.6h-2.3v5.6H30V50.2z M35.8,58.1c2,0,3-0.9,3-2.6c0-1.7-1.1-2.3-3-2.3h-2v5L35.8,58.1L35.8,58.1z"/>
    </g>
</svg>
