<svg xmlns="http://www.w3.org/2000/svg" viewBox="0 0 117 100">
    <g fill="#00506E">
        <path d="M11.1,22.2v66.7h83.3V100H11.1C0,100,0,88.9,0,88.9V22.2H11.1"/>
        <path d="M117,0v66.7c0,0,0,11.1-11.1,11.1H33.7c0,0-11.1,0-11.1-11.1V0H117 M105.9,11.1H33.7v55.6h72.2L105.9,11.1"/>
    </g>
    <g fill="#006EA0">
        <polyline points="67,22.2 44.8,22.2 44.8,50 67,50 67,22.2 "/>
        <polyline points="94.8,22.2 72.6,22.2 72.6,33.3 94.8,33.3 94.8,22.2 "/>
        <rect x="72.6" y="38.9" width="22.2" height="11.1"/>
    </g>
</svg>
