<svg xmlns="http://www.w3.org/2000/svg" viewBox="0 0 100 100" fill="#00648C">
    <path d="M57.7,92.3c0,2.1-1.7,3.8-3.8,3.8h-7.7c-2.1,0-3.8-1.7-3.8-3.8H0c0,4.2,3.4,7.7,7.7,7.7h84.6c4.2,0,7.7-3.4,7.7-7.7H57.7z"/>
    <path d="M65.4,30.8H7.7c-2.1,0-3.8,1.7-3.8,3.8v53.8h3.8V36.5c0-1.1,0.9-1.9,1.9-1.9h55.8V30.8z"/>
    <rect x="92.3" y="38.5" width="3.8" height="50"/>
    <path d="M30.8,53.8v3.8c0,2.1-1.7,3.8-3.8,3.8v3.8c2.1,0,3.8,1.7,3.8,3.8v3.8c0,4.3,3.4,7.7,7.7,7.7h3.8v-3.8h-3.8c-2.1,0-3.8-1.7-3.8-3.8v-3.8c0-2.3-1-4.4-2.6-5.8c1.6-1.4,2.6-3.5,2.6-5.8v-3.8c0-2.1,1.7-3.8,3.8-3.8h3.8v-3.8h-3.8C34.2,46.2,30.8,49.6,30.8,53.8z"/>
    <path d="M73.1,61.5c-2.1,0-3.8-1.7-3.8-3.8v-3.8c0-4.3-3.4-7.7-7.7-7.7h-3.8V50h3.8c2.1,0,3.8,1.7,3.8,3.8v3.8c0,2.3,1,4.4,2.6,5.8c-1.6,1.4-2.6,3.5-2.6,5.8v3.8c0,2.1-1.7,3.8-3.8,3.8h-3.8v3.8h3.8c4.3,0,7.7-3.4,7.7-7.7v-3.8c0-2.1,1.7-3.8,3.8-3.8L73.1,61.5L73.1,61.5z"/>
    <path d="M71.2,26.9h9.6c1.1,0,1.9,0.9,1.9,1.9v7.7c0,1.1-0.9,1.9-1.9,1.9h-9.6c-1.1,0-1.9-0.9-1.9-1.9v-7.7C69.2,27.8,70.1,26.9,71.2,26.9z M71.2,29.8v5.8c0,0.5,0.4,1,1,1h7.7c0.5,0,1-0.4,1-1v-5.8c0-0.5-0.4-1-1-1h-7.7C71.6,28.8,71.2,29.3,71.2,29.8z"/>
    <path d="M94.6,34.6h-6.5c-0.8,0-1.5-0.7-1.5-1.5v-4.6c0-0.8,0.7-1.5,1.5-1.5h6.5c0.8,0,1.5,0.7,1.5,1.5v4.6C96.2,33.9,95.5,34.6,94.6,34.6z M94.4,32.1v-2.7c0-0.5-0.4-1-1-1h-4.2c-0.5,0-1,0.4-1,1v2.7c0,0.5,0.4,1,1,1h4.2C94,33.1,94.4,32.6,94.4,32.1z"/>
    <path d="M66.3,23.1H54.8c-1.6,0-2.9-1.3-2.9-2.9v-9.6c0-1.6,1.3-2.9,2.9-2.9h11.5c1.6,0,2.9,1.3,2.9,2.9v9.6C69.2,21.8,67.9,23.1,66.3,23.1z M66.3,18.7v-6.5c0-0.8-0.7-1.5-1.5-1.5h-8.5c-0.8,0-1.5,0.7-1.5,1.5v6.5c0,0.8,0.7,1.5,1.5,1.5h8.5C65.7,20.2,66.3,19.5,66.3,18.7z"/>
    <path d="M96.2,23.1H76.9c-2.1,0-3.8-1.7-3.8-3.8V3.8c0-2.1,1.7-3.8,3.8-3.8h19.2c2.1,0,3.8,1.7,3.8,3.8v15.4C100,21.4,98.3,23.1,96.2,23.1z M96.6,17.8V5.3c0-1.1-0.9-1.9-1.9-1.9H78.4c-1.1,0-1.9,0.9-1.9,1.9v12.5c0,1.1,0.9,1.9,1.9,1.9h16.3C95.8,19.7,96.6,18.9,96.6,17.8z"/>
</svg>
