<svg xmlns="http://www.w3.org/2000/svg" viewBox="0 0 110 100">
    <path fill="#00506E" d="M100,70V10H10v60H100 M100,0c5.5,0,10,4.5,10,10v60c0,5.5-4.5,10-10,10H65v10h10v10H35V90h10V80H10C4.4,80,0,75.5,0,70V10C0,4.5,4.4,0,10,0H100"/>
    <g fill="#00D200">
        <polyline points="20,20 65,20 65,45 20,45 20,20 "/>
        <polyline points="90,35 90,60 70,60 70,35 90,35 "/>
    </g>
    <g fill="#969696">
        <polyline points="70,20 90,20 90,30 70,30 70,20 "/>
        <polyline points="20,50 40,50 40,60 20,60 20,50 "/>
        <rect x="45" y="50" width="20" height="10"/>
    </g>    
</svg>
