<svg xmlns="http://www.w3.org/2000/svg" viewBox="0 0 100 100">
    <radialGradient id="gradiente" cx="9.2813" cy="5.4687" r="105.698" gradientTransform="matrix(1 0 0 -1 0 102)" gradientUnits="userSpaceOnUse">
        <stop  offset="0" style="stop-color:#FFD676"/>
        <stop  offset="0.2463" style="stop-color:#F2A454"/>
        <stop  offset="0.3793" style="stop-color:#F05C3C"/>
        <stop  offset="0.6995" style="stop-color:#C22F86"/>
        <stop  offset="0.9673" style="stop-color:#6666AD"/>
        <stop  offset="0.997" style="stop-color:#5C6CB2"/>
    </radialGradient>
    <path fill="url(#gradiente)" d="M78.8,100H21.3C9.5,100,0,90.5,0,78.8V21.3C0,9.5,9.5,0,21.3,0h57.5C90.5,0,100,9.5,100,21.3v57.5C100,90.5,90.5,100,78.8,100z"/>
    <g fill="#FFFFFF">
        <path d="M50,19.5c9.9,0,11.1,0,15,0.2c3.6,0.2,5.6,0.8,6.9,1.3c1.7,0.7,3,1.5,4.3,2.8s2.1,2.5,2.8,4.3c0.5,1.3,1.1,3.3,1.3,6.9c0.2,3.9,0.2,5.1,0.2,15s0,11.1-0.2,15c-0.2,3.6-0.8,5.6-1.3,6.9c-0.7,1.7-1.5,3-2.8,4.3s-2.5,2.1-4.3,2.8c-1.3,0.5-3.3,1.1-6.9,1.3c-3.9,0.2-5.1,0.2-15,0.2s-11.1,0-15-0.2c-3.6-0.2-5.6-0.8-6.9-1.3c-1.7-0.7-3-1.5-4.3-2.8c-1.3-1.3-2.1-2.5-2.8-4.3c-0.5-1.3-1.1-3.3-1.3-6.9c-0.2-3.9-0.2-5.1-0.2-15s0-11.1,0.2-15c0.2-3.6,0.8-5.6,1.3-6.9c0.7-1.7,1.5-3,2.8-4.3c1.3-1.3,2.5-2.1,4.3-2.8c1.3-0.5,3.3-1.1,6.9-1.3C38.9,19.6,40.1,19.5,50,19.5 M50,12.8c-10.1,0-11.4,0-15.3,0.2c-4,0.2-6.7,0.8-9,1.7c-2.4,1-4.5,2.2-6.6,4.3s-3.3,4.1-4.3,6.6c-0.9,2.4-1.5,5.1-1.7,9c-0.2,4-0.2,5.2-0.2,15.3s0,11.4,0.2,15.3c0.2,4,0.8,6.7,1.7,9c1,2.4,2.2,4.5,4.3,6.6s4.1,3.3,6.6,4.3c2.4,0.9,5.1,1.5,9,1.7C38.7,87,39.9,87,50,87s11.4,0,15.3-0.2c4-0.2,6.7-0.8,9-1.7c2.4-1,4.5-2.2,6.6-4.3c2.1-2.1,3.3-4.1,4.3-6.6c0.9-2.4,1.5-5.1,1.7-9c0.2-4,0.2-5.2,0.2-15.3s0-11.4-0.2-15.3c-0.2-4-0.8-6.7-1.7-9c-1-2.4-2.2-4.5-4.3-6.6c-2.1-2.1-4.1-3.3-6.6-4.3c-2.4-0.9-5.1-1.5-9-1.7C61.4,12.9,60.1,12.8,50,12.8L50,12.8z"/>
        <path d="M50,30.9c-10.5,0-19.1,8.5-19.1,19.1S39.5,69.1,50,69.1S69.1,60.5,69.1,50S60.5,30.9,50,30.9z M50,62.4c-6.8,0-12.4-5.5-12.4-12.4c0-6.8,5.5-12.4,12.4-12.4c6.8,0,12.4,5.5,12.4,12.4C62.4,56.8,56.8,62.4,50,62.4z"/>
        <circle cx="69.9" cy="30.1" r="4.5"/>
    </g>
</svg>
