<svg xmlns="http://www.w3.org/2000/svg" viewBox="0 0 85 100">
<path fill="#DCDCDC" d="M77.2,29.7v-0.1l0,0v-0.1l0,0v-0.1l0,0v-0.1l0,0c0,0,0-0.1-0.1-0.1l0,0c0,0,0-0.1-0.1-0.1l0,0c0,0,0-0.1-0.1-0.1l0,0l-0.1-0.1L53.9,5.7l-0.1-0.1l0,0l-5.1-5.1l-0.1-0.1l0,0c0,0-0.1,0-0.1-0.1l0,0l-0.1-0.1c0,0-0.1,0-0.1-0.1l0,0h-0.1l0,0h-0.1l0,0H48h-0.2l0,0H5.1C2.3,0,0,2.3,0,5.1v84.5c0,2.8,2.3,5.1,5.1,5.1h0.1v0.1c0,2.8,2.3,5.1,5.1,5.1H72c2.8,0,5.1-2.3,5.1-5.1L77.2,29.7C77.2,29.8,77.2,29.7,77.2,29.7z"/>
    <g fill="#FAFAFA">
        <path d="M73.7,91.4c0,2.8-2.3,5.1-5.1,5.1H10.4c-0.9,0-1.7-0.8-1.7-1.7v-0.1h58.1c2.8,0,5.1-2.3,5.1-5.1V28.4l1.8,1.8V91.4z"/>
        <path d="M49.1,5.8l8.5,8.5l8.5,8.5H50.8c-0.9,0-1.7-0.8-1.7-1.7V5.8z"/>
        <path d="M66.8,91.3H5.1c-0.9,0-1.7-0.8-1.7-1.7V5.1c0-0.9,0.8-1.7,1.7-1.7h40.5v17.7c0,2.8,2.3,5.1,5.1,5.1h17.7v63.4C68.5,90.6,67.7,91.3,66.8,91.3z"/>
    </g>
    <path fill="#00A096" d="M81.6,72.5H14.3c-1.9,0-3.4-1.5-3.4-3.4V41.7c0-1.9,1.5-3.4,3.4-3.4h67.3c1.9,0,3.4,1.5,3.4,3.4v27.4C85,71,83.5,72.5,81.6,72.5z"/>
    <g fill="#FFFFFF">
        <polygon points="50.9,47.6 60.7,47.6 60.7,50.6 54.5,50.6 54.5,53.7 59.8,53.7 59.8,56.6 54.5,56.6 54.5,60.3 60.9,60.2 60.9,63.2 50.9,63.2 	"/>
        <path d="M42.6,47.3c2.2,0,3.8,1,4.9,2l-1.9,2.2c-0.8-0.7-1.5-1.2-2.9-1.2c-2.4,0-4.1,1.9-4.1,5c0,3.2,1.5,5.1,4.4,5.1c0.6,0,1.3-0.2,1.7-0.5v-2.7H42v-2.9h5.7v7.2c-1.1,1-3.1,1.9-5.2,1.9c-4.2,0-7.6-2.8-7.6-8C35,50.3,38.4,47.3,42.6,47.3z"/>
    </g>
</svg>
