<svg xmlns="http://www.w3.org/2000/svg" viewBox="0 0 100 100">
    <g fill="#4A555C">
        <path d="M99.1,65.5H85.3c-0.5,0-0.9,0.4-0.9,0.9V99c0,0.5,0.4,0.9,0.9,0.9H99c0.5,0,0.9-0.4,0.9-0.9V66.5C100,65.9,99.6,65.5,99.1,65.5z"/>
        <path d="M78,71.8H64.2c-0.5,0-0.9,0.4-0.9,0.9V99c0,0.5,0.4,0.9,0.9,0.9H78c0.5,0,0.9-0.4,0.9-0.9V72.7C78.9,72.2,78.5,71.8,78,71.8z"/>
        <path d="M56.9,81.2H43.1c-0.5,0-0.9,0.4-0.9,0.9V99c0,0.5,0.4,0.9,0.9,0.9h13.7c0.5,0,0.9-0.4,0.9-0.9V82.1C57.8,81.6,57.4,81.2,56.9,81.2z"/>
        <path d="M35.8,71.8H22c-0.5,0-0.9,0.4-0.9,0.9V99c0,0.5,0.4,0.9,0.9,0.9h13.7c0.5,0,0.9-0.4,0.9-0.9V72.7C36.7,72.2,36.3,71.8,35.8,71.8z"/>
        <path d="M14.7,87.5H0.9c-0.5,0-0.9,0.4-0.9,0.9v10.7c0,0.5,0.4,0.9,0.9,0.9h13.7c0.5,0,0.9-0.4,0.9-0.9V88.4C15.6,87.9,15.2,87.5,14.7,87.5z"/>
        <path d="M34.8,28.6L30.6,29c-0.3,0-0.5,0.2-0.7,0.4c-0.3,0.5-0.7,1-1.1,1.4c-0.2,0.2-0.3,0.5-0.2,0.8l0.7,4.2c0.1,0.4-0.1,0.8-0.5,1l-2.7,1.5c-0.3,0.2-0.8,0.2-1.1-0.1l-3.3-2.7c-0.2-0.2-0.5-0.2-0.8-0.2c-0.6,0.1-1.2,0.2-1.8,0.2c-0.3,0-0.5,0.2-0.7,0.4l-2.5,3.5c-0.2,0.3-0.6,0.5-1,0.4l-3-0.8c-0.4-0.1-0.7-0.4-0.7-0.8L11,33.9c0-0.3-0.2-0.5-0.4-0.7c-0.5-0.3-1-0.7-1.4-1.1c-0.2-0.2-0.5-0.3-0.8-0.2l-4.2,0.7c-0.4,0.1-0.8-0.1-1-0.5l-1.5-2.7c-0.2-0.3-0.2-0.8,0.1-1.1L4.5,25c0.2-0.2,0.2-0.5,0.2-0.8c-0.1-0.6-0.2-1.2-0.2-1.8c0-0.3-0.2-0.5-0.4-0.7l-3.4-2.5c-0.3-0.2-0.5-0.6-0.4-1l0.8-3c0.1-0.4,0.4-0.7,0.8-0.7l4.2-0.4c0.3,0,0.5-0.2,0.7-0.4c0.3-0.5,0.7-1,1.1-1.4c0.2-0.2,0.3-0.5,0.2-0.8l-0.7-4c-0.1-0.4,0.1-0.8,0.5-1L10.5,5c0.3-0.2,0.8-0.2,1.1,0.1l3.3,2.7C15.1,8,15.4,8,15.7,8c0.6-0.1,1.2-0.2,1.8-0.2c0.3,0,0.5-0.2,0.7-0.4l2.5-3.5c0.2-0.3,0.6-0.5,1-0.4l3,0.8c0.4,0.1,0.7,0.4,0.7,0.8l0.4,4.2c0,0.3,0.2,0.5,0.4,0.7c0.5,0.3,1,0.7,1.4,1.1c0.2,0.2,0.5,0.3,0.8,0.2l4.2-0.7c0.4-0.1,0.8,0.1,1,0.5l1.5,2.7c0.2,0.3,0.2,0.8-0.1,1.1l-2.7,3.3c-0.2,0.2-0.2,0.5-0.2,0.8c0.1,0.6,0.2,1.2,0.2,1.8c0,0.3,0.2,0.5,0.4,0.7l3.4,2.5c0.3,0.2,0.5,0.6,0.4,1l-0.8,3C35.5,28.2,35.2,28.5,34.8,28.6z M18.3,10c-6.4,0-11.6,5.2-11.6,11.6s5.2,11.6,11.6,11.6S29.9,28,29.9,21.6S24.7,10,18.3,10z"/>
        <path d="M18.3,11.6c-5.5,0-10,4.5-10,10s4.5,10,10,10s10-4.5,10-10S23.8,11.6,18.3,11.6z M18.3,29.5c-4.3,0-7.8-3.5-7.8-7.8s3.5-7.8,7.8-7.8s7.8,3.5,7.8,7.8S22.6,29.5,18.3,29.5z"/>
        <path d="M18.3,16.3c-2.9,0-5.3,2.4-5.3,5.3s2.4,5.3,5.3,5.3s5.3-2.4,5.3-5.3C23.6,18.7,21.3,16.3,18.3,16.3zM18.3,24.8c-1.7,0-3.1-1.4-3.1-3.1s1.4-3.1,3.1-3.1s3.1,1.4,3.1,3.1S20,24.8,18.3,24.8z"/>
        <path d="M32.6,48.8L25.4,56c-0.2,0.2-0.6,0.2-0.9,0L12.9,44.3c-0.2-0.2-0.6-0.2-0.9,0L0.5,56C0.2,56.3,0,56.7,0,57.1v8.1c0,1.4,1.7,2.1,2.7,1.1l9.4-9.4c0.2-0.2,0.6-0.2,0.9,0l11.6,11.7c0.2,0.2,0.6,0.2,0.9,0l11.8-11.9C35.4,54.2,33.8,51.6,32.6,48.8z"/>
        <path d="M66.1,34c-0.2,0.2-0.6,0.2-0.9,0l-8.5-8.5c-0.2-0.2-0.6-0.2-0.9,0l-7.3,7.3c-0.1,0.5-0.1,1.1-0.1,1.7c0,3.2,0.9,6.1,2.3,8.6l5-5.1c0.2-0.2,0.6-0.2,0.9,0l8.5,8.5c0.2,0.2,0.6,0.2,0.9,0l16.2-16.3c-0.8-3.1-2.3-5.8-4.5-8L66.1,34z"/>
        <path d="M99.5,13c0.3-0.3,0.5-0.7,0.5-1.1V3.8c0-1.4-1.7-2.1-2.7-1.1L91,9c2.1,2.1,3.9,4.5,5.5,7.1L99.5,13z"/>
    </g>
    <g fill="#B01116">
	   <path d="M98.9,38L94,39.6c-0.5,0.2-0.9,0.6-1,1.2c-0.2,0.7-0.3,1.4-0.5,2.1c-0.2,0.5-0.1,1.1,0.3,1.5l3.4,3.8c0.4,0.5,0.5,1.2,0.2,1.8l-2,3.5c-0.3,0.6-1,0.9-1.7,0.8l-5-1c-0.5-0.1-1.1,0.1-1.5,0.5c-0.5,0.5-1,1-1.5,1.5c-0.4,0.4-0.6,0.9-0.5,1.5l1,5c0.1,0.7-0.2,1.3-0.7,1.7l-3.5,2c-0.6,0.3-1.3,0.3-1.8-0.2l-3.8-3.4c-0.4-0.4-1-0.5-1.5-0.3c-0.7,0.2-1.4,0.4-2,0.6c-0.5,0.1-1,0.5-1.2,1l-1.6,4.9c-0.2,0.6-0.8,1.1-1.5,1.1h-4c-0.7,0-1.3-0.4-1.5-1.1L60.5,63c-0.2-0.5-0.6-0.9-1.2-1c-0.7-0.2-1.4-0.3-2-0.6c-0.5-0.2-1.1-0.1-1.5,0.3L52,65.2c-0.5,0.4-1.2,0.5-1.8,0.2l-3.5-2c-0.6-0.3-0.9-1-0.7-1.7l1-5c0.1-0.5-0.1-1.1-0.5-1.5c-0.5-0.5-1-1-1.5-1.5c-0.4-0.4-0.9-0.6-1.5-0.5l-5,1c-0.7,0.1-1.3-0.2-1.7-0.8l-2-3.5c-0.3-0.6-0.3-1.3,0.2-1.8l3.4-3.8c0.4-0.4,0.5-1,0.3-1.5c-0.2-0.7-0.4-1.4-0.5-2.1c-0.1-0.5-0.5-1-1-1.2L32.3,38c-0.6-0.2-1.1-0.8-1.1-1.5v-4c0-0.7,0.4-1.3,1.1-1.5l4.9-1.6c0.5-0.2,0.9-0.6,1-1.2c0.2-0.7,0.3-1.4,0.5-2.1c0.2-0.5,0.1-1.1-0.3-1.5L35,20.8c-0.4-0.5-0.5-1.2-0.2-1.8l2-3.5c0.3-0.6,1-0.9,1.7-0.8l5,1c0.5,0.1,1.1-0.1,1.5-0.5c0.5-0.5,1-1,1.5-1.5c0.4-0.4,0.6-0.9,0.5-1.5l-1-5c-0.1-0.7,0.2-1.3,0.7-1.7l3.5-2c0.6-0.3,1.3-0.3,1.8,0.2l3.8,3.4c0.4,0.4,1,0.5,1.5,0.3c0.7-0.2,1.4-0.4,2-0.6c0.5-0.1,1-0.5,1.2-1l1.6-4.9C62.4,0.4,63,0,63.6,0h4c0.7,0,1.3,0.4,1.5,1.1L70.7,6c0.2,0.5,0.6,0.9,1.2,1c0.7,0.2,1.4,0.3,2,0.6c0.5,0.2,1.1,0.1,1.5-0.3l3.8-3.4c0.5-0.4,1.2-0.5,1.8-0.2l3.5,2c0.6,0.3,0.9,1,0.7,1.7l-1,5c-0.1,0.5,0.1,1.1,0.5,1.5c0.5,0.5,1,1,1.5,1.5c0.4,0.4,0.9,0.6,1.5,0.5l5-1c0.7-0.1,1.3,0.2,1.7,0.8l2,3.5c0.3,0.6,0.3,1.3-0.2,1.8l-3.4,3.8c-0.4,0.4-0.5,1-0.3,1.5c0.2,0.7,0.4,1.4,0.5,2.1c0.1,0.5,0.5,1,1,1.2l4.9,1.6c0.6,0.2,1.1,0.8,1.1,1.5v4C100,37.2,99.6,37.8,98.9,38z M65.6,9.4c-13.8,0-25,11.2-25,25.1s11.2,25.1,25,25.1s25-11.2,25-25.1S79.4,9.4,65.6,9.4z"/>
        <path d="M87.5,34.5c0,12.1-9.8,21.9-21.9,21.9s-21.9-9.8-21.9-21.9s9.8-21.9,21.9-21.9S87.5,22.4,87.5,34.5zM65.6,15.7c-10.4,0-18.7,8.4-18.7,18.8s8.4,18.8,18.7,18.8s18.7-8.4,18.7-18.8S76,15.7,65.6,15.7z"/>
    </g>
</svg>
