<?xml version="1.0" encoding="utf-8"?>
<!-- Generator: Adobe Illustrator 24.1.1, SVG Export Plug-In . SVG Version: 6.00 Build 0)  -->
<svg version="1.1" id="Layer_1" xmlns="http://www.w3.org/2000/svg" xmlns:xlink="http://www.w3.org/1999/xlink" x="0px" y="0px"
	 viewBox="0 0 110 100" style="enable-background:new 0 0 110 100;" xml:space="preserve">
<style type="text/css">
	.st0{fill:#3C3C3C;}
</style>
<path class="st0" d="M44,72.2v-5.6H5.6L5.5,88.9c0,6.2,4.9,11.1,11,11.1h77c6.1,0,11-4.9,11-11.1V66.7H66v5.6L44,72.2L44,72.2z"/>
<path class="st0" d="M99,22.2H76.9V11.1L65.9,0h-22l-11,11.1v11.1H11c-6.1,0-11,5-11,11.1V50c0,6.2,4.9,11.1,11,11.1h33V50h22v11.1
	h33c6.1,0,11-5,11-11.1V33.3C110,27.2,105.1,22.2,99,22.2z M66,22.2H44V11.1h22V22.2z"/>
</svg>
