<svg xmlns="http://www.w3.org/2000/svg" viewBox="0 0 120 100" fill="rgb(80,80,80)">
    <polyline points="32.5,93.8 32.5,81.3 120,81.3 120,93.8 32.5,93.8 "/>
    <polyline points="32.5,56.3 32.5,43.8 120,43.8 120,56.3 32.5,56.3 "/>
    <polyline points="32.5,18.8 32.5,6.3 120,6.3 120,18.8 32.5,18.8 "/>
    <path d="M10,2.5c5.5,0,10,4.5,10,10s-4.5,10-10,10S0,18,0,12.5S4.5,2.5,10,2.5"/>
    <path d="M10,40c5.5,0,10,4.5,10,10s-4.5,10-10,10S0,55.5,0,50S4.5,40,10,40"/>
    <circle cx="10" cy="87.5" r="10"/>
</svg>
