<svg xmlns="http://www.w3.org/2000/svg" viewBox="0 0 88 100" fill="#FF911E">
    <path d="M5.7,13.6L0,19.4L12.6,32c-4.3,6.5-6.9,14.2-6.9,22.6c0,22.6,18.4,40.9,41.1,40.9c8.4,0,16.2-2.5,22.9-6.8L81.1,100l5.7-5.8L51.6,59.1L5.7,13.6 M46.9,86.4c-17.7,0-32-14.2-32-31.8c0-5.8,1.6-11.4,4.3-15.9L62.9,82C58.3,84.8,52.7,86.4,46.9,86.4"/>
    <polygon points="42.3,38.4 51.4,47.5 51.4,31.8 42.3,31.8 "/>
    <rect x="33.1" width="27.4" height="9.1"/>
    <path d="M79,16.1l-6.5,6.5c-7.1-5.6-16-9-25.7-9c-8.4,0-16.1,2.5-22.6,6.8l6.6,6.5c4.7-2.7,10.2-4.3,16-4.3c17.7,0,32,14.2,32,31.8c0,5.8-1.6,11.2-4.3,15.9l6.6,6.5c4.3-6.4,6.9-14.1,6.9-22.5c0-9.6-3.4-18.5-9-25.5l6.5-6.5L79,16.1z"/>
</svg>
