<svg xmlns="http://www.w3.org/2000/svg" viewBox="0 0 100 100" fill="#00506E">
    <path d="M50,0C22.4,0,0,22.4,0,50s22.4,50,50,50s50-22.4,50-50S77.6,0,50,0z M50,90c-9.3,0-17.9-3.2-24.6-8.6c2.1-4.5,15.2-8.9,24.6-8.9s22.5,4.4,24.6,8.9C67.9,86.8,59.3,90,50,90z M81.8,74.2C74.6,65.5,57.3,62.5,50,62.5s-24.6,3-31.8,11.7C13.1,67.5,10,59.1,10,50c0-22,18-40,40-40s40,18,40,40C90,59.1,86.9,67.5,81.8,74.2z"/>
    <path d="M50,20c-9.7,0-17.5,7.8-17.5,17.5S40.3,55,50,55s17.5-7.8,17.5-17.5S59.7,20,50,20z M50,45c-4.1,0-7.5-3.4-7.5-7.5S45.9,30,50,30s7.5,3.4,7.5,7.5S54.1,45,50,45z"/>
</svg>
