<svg xmlns="http://www.w3.org/2000/svg" viewBox="0 0 100 100" fill="#ffffff">
    <path d="M100,80.8c0,10.6-8.6,19.2-19.2,19.2H17.3C7.7,100,0,92.3,0,82.7c0-9.6,7.7-17.3,17.3-17.3c0.7,0,1.3,0,1.9,0.1c0,0,0-0.1,0-0.1c0-10.6,8.6-19.2,19.2-19.2c2,0,3.9,0.3,5.8,0.9c3.3-7.3,10.7-12.4,19.2-12.4c11.7,0,21.2,9.5,21.2,21.2c0,2.1-0.3,4.1-0.9,6C92.9,63.2,100,71.2,100,80.8z M80.8,65.4c-1.1,0-2.1,0.1-3.2,0.3c2-2.8,3.2-6.2,3.2-9.9c0-9.6-7.7-17.3-17.3-17.3c-8.4,0-15.3,5.9-17,13.8c-2.3-1.4-5.1-2.3-8-2.3c-8.5,0-15.4,6.9-15.4,15.4c0,2,0.4,4,1.1,5.8c-2-1.2-4.4-1.9-6.9-1.9c-7.4,0-13.5,6-13.5,13.5c0,7.4,6,13.5,13.5,13.5h63.5c8.5,0,15.4-6.9,15.4-15.4S89.3,65.4,80.8,65.4z"/>
    <rect x="11.5" y="57.7" width="3.8" height="3.8"/>
    <rect x="11.5" y="50" width="3.8" height="3.8"/>
    <rect x="11.5" y="42.3" width="3.8" height="3.8"/>
    <rect x="88.5" y="53.8" width="3.8" height="3.8"/>
    <rect x="88.5" y="46.2" width="3.8" height="3.8"/>
    <rect x="88.5" y="38.5" width="3.8" height="3.8"/>
    <rect x="88.5" y="30.8" width="3.8" height="3.8"/>
    <path d="M23.1,0H3.8C1.7,0,0,1.7,0,3.8v30.8c0,2.1,1.7,3.8,3.8,3.8h19.2c2.1,0,3.8-1.7,3.8-3.8V3.8C26.9,1.7,25.2,0,23.1,0z M13.5,36.5c-1.1,0-1.9-0.9-1.9-1.9c0-1.1,0.9-1.9,1.9-1.9c1.1,0,1.9,0.9,1.9,1.9C15.4,35.7,14.5,36.5,13.5,36.5z M21.2,30.8H5.8c-1.1,0-1.9-0.9-1.9-1.9V5.8c0-1.1,0.9-1.9,1.9-1.9h15.4c1.1,0,1.9,0.9,1.9,1.9v23.1C23.1,29.9,22.2,30.8,21.2,30.8z"/>
    <path d="M46.2,34.6c0,2.1-1.7,3.8-3.8,3.8s-3.8-1.7-3.8-3.8s1.7-3.8,3.8-3.8S46.2,32.5,46.2,34.6z M42.3,32.7c-1.1,0-1.9,0.9-1.9,1.9c0,1.1,0.9,1.9,1.9,1.9s1.9-0.9,1.9-1.9C44.2,33.6,43.4,32.7,42.3,32.7z"/>
    <path d="M42.3,25c0,3.2-2.6,5.8-5.8,5.8c-3.2,0-5.8-2.6-5.8-5.8s2.6-5.8,5.8-5.8C39.7,19.2,42.3,21.8,42.3,25zM36.5,22.1c-1.6,0-2.9,1.3-2.9,2.9s1.3,2.9,2.9,2.9s2.9-1.3,2.9-2.9S38.1,22.1,36.5,22.1z"/>
    <path d="M53.8,9.6c0,5.3-4.3,9.6-9.6,9.6s-9.6-4.3-9.6-9.6S38.9,0,44.2,0S53.8,4.3,53.8,9.6z M44.2,3.8c-3.2,0-5.8,2.6-5.8,5.8s2.6,5.8,5.8,5.8S50,12.8,50,9.6S47.4,3.8,44.2,3.8z"/>
    <path d="M96.2,26.9H61.5c-2.1,0-3.8-1.7-3.8-3.8V3.8c0-2.1,1.7-3.8,3.8-3.8h34.6c2.1,0,3.8,1.7,3.8,3.8v19.2C100,25.2,98.3,26.9,96.2,26.9z M96.2,21.2V5.8c0-1.1-0.9-1.9-1.9-1.9H63.5c-1.1,0-1.9,0.9-1.9,1.9v15.4c0,1.1,0.9,1.9,1.9,1.9h30.8C95.3,23.1,96.2,22.2,96.2,21.2z"/>
</svg>
