<?xml version="1.0" encoding="utf-8"?>
<!-- Generator: Adobe Illustrator 24.0.2, SVG Export Plug-In . SVG Version: 6.00 Build 0)  -->
<svg version="1.1" id="Layer_1" xmlns="http://www.w3.org/2000/svg" xmlns:xlink="http://www.w3.org/1999/xlink" x="0px" y="0px"
	 viewBox="0 0 158 100" style="enable-background:new 0 0 158 100;" xml:space="preserve">
<style type="text/css">
	.st0{fill:#FFFFFF;}
</style>
<g>
	<path class="st0" d="M101.2,6.6c1.6,0,5.2,1.9,8.1,1.9c3.3,0,5.1-2.4,6.1-7.3L111,0c-0.6,1.5-1.2,2.3-2.6,2.3
		c-1.6,0-5.2-1.9-8.1-1.9c-3.4,0-5.1,2.5-6.2,7.3l4.5,1.2C99.3,7.3,99.9,6.6,101.2,6.6z"/>
	<path class="st0" d="M109.3,11.1h-9.2L85.4,45.8h10l2.5-6.1h13.3l2.5,6.1h10.2L109.3,11.1z M100.7,32.2l3.9-9.8l3.8,9.8H100.7z"/>
	<path class="st0" d="M139.2,10.7c-10.6,0-18.6,8-18.6,17.9v0.1c0,9.9,7.9,17.8,18.5,17.8c10.6,0,18.6-8,18.6-17.9v-0.1
		C157.7,18.6,149.8,10.7,139.2,10.7z M148,28.7c0,5-3.5,9.2-8.8,9.2c-5.2,0-8.8-4.3-8.8-9.3v-0.1c0-5,3.5-9.2,8.7-9.2
		C144.4,19.3,148,23.6,148,28.7L148,28.7z"/>
	<path class="st0" d="M92,69.6V50.5h-9.7v19.4c0,4.8-2.5,7.1-6.3,7.1c-3.8,0-6.3-2.4-6.3-7.3V50.5h-9.7v19.3
		c0,10.8,6.1,15.7,15.9,15.7C85.6,85.6,92,80.7,92,69.6z"/>
	<polygon class="st0" points="94.2,50.5 94.2,85.1 120.4,85.1 120.4,76.8 103.8,76.8 103.8,50.5 	"/>
	<path class="st0" d="M139.2,49.8c-10.6,0-18.6,8-18.6,17.9v0.1c0,9.9,7.9,17.8,18.5,17.8c10.6,0,18.6-8,18.6-17.9v-0.1
		C157.7,57.7,149.8,49.8,139.2,49.8z M148,67.8c0,5-3.5,9.2-8.8,9.2c-5.2,0-8.8-4.3-8.8-9.3v-0.1c0-5,3.5-9.2,8.7-9.2
		C144.4,58.4,148,62.7,148,67.8L148,67.8z"/>
	<path class="st0" d="M5.5,96h2.2v1.4C7.1,97.8,6.4,98,5.6,98c-1.8,0-3-1.3-3-3.2v0c0-1.7,1.3-3.1,2.9-3.1c1.2,0,1.8,0.4,2.6,1
		L9.4,91c-1-0.9-2.1-1.4-3.9-1.4c-3,0-5.2,2.3-5.2,5.2v0c0,3,2.1,5.1,5.2,5.1c1.8,0,3.2-0.7,4.3-1.6v-4.3H5.5V96z"/>
	<path class="st0" d="M16.4,89.7c-3.1,0-5.3,2.3-5.3,5.2v0c0,2.8,2.2,5.1,5.3,5.1s5.3-2.3,5.3-5.2v0C21.7,92,19.5,89.7,16.4,89.7z
		 M19.4,94.9c0,1.7-1.2,3.1-3,3.1c-1.8,0-3-1.4-3-3.1v0c0-1.7,1.2-3.1,3-3.1C18.1,91.7,19.4,93.1,19.4,94.9L19.4,94.9z"/>
	<polygon class="st0" points="26.5,96.8 23.9,89.8 21.5,89.8 25.5,99.8 27.5,99.8 31.5,89.8 29.1,89.8 	"/>
	<path class="st0" d="M49.8,93.2L49.8,93.2c0-1-0.3-1.8-0.9-2.3c-0.7-0.7-1.6-1-2.9-1h-4.6v10h2.2v-3.2h1.7l2.1,3.2h2.6l-2.4-3.6
		C49,95.8,49.8,94.8,49.8,93.2z M47.6,93.3c0,0.8-0.6,1.4-1.7,1.4h-2.2v-2.9h2.2C47,91.8,47.6,92.3,47.6,93.3L47.6,93.3z"/>
	<polygon class="st0" points="57.9,96 53.2,89.8 51.2,89.8 51.2,99.8 53.4,99.8 53.4,93.5 58.2,99.8 60.1,99.8 60.1,89.8 57.9,89.8 
			"/>
	<path class="st0" d="M66.7,89.7c-3.1,0-5.3,2.3-5.3,5.2v0c0,2.8,2.2,5.1,5.3,5.1c3.1,0,5.3-2.3,5.3-5.2v0
		C72,92,69.8,89.7,66.7,89.7z M69.7,94.8c0,1.7-1.2,3.1-3,3.1c-1.8,0-3-1.4-3-3.1v0c0-1.7,1.2-3.1,3-3.1
		C68.4,91.7,69.7,93.1,69.7,94.8L69.7,94.8z"/>
	<polygon class="st0" points="103.1,95.8 107.8,95.8 107.8,93.8 103.1,93.8 103.1,91.8 108.4,91.8 108.4,89.8 100.9,89.8 
		100.9,99.8 108.5,99.8 108.5,97.9 103.1,97.9 	"/>
	<path class="st0" d="M114,93.9c-1.7-0.4-2.2-0.7-2.2-1.3v0c0-0.5,0.4-0.9,1.3-0.9c0.8,0,1.7,0.4,2.6,1l1.1-1.7
		c-1-0.8-2.3-1.3-3.7-1.3c-2,0-3.5,1.2-3.5,3v0c0,2,1.3,2.5,3.3,3.1c1.7,0.4,2,0.7,2,1.3v0c0,0.6-0.5,0.9-1.4,0.9
		c-1.1,0-2.1-0.5-3-1.2l-1.3,1.6c1.2,1.1,2.7,1.6,4.2,1.6c2.2,0,3.7-1.1,3.7-3.1v0C117.2,95.1,116,94.4,114,93.9z"/>
	<polygon class="st0" points="126.3,89.8 118,89.8 118,91.9 121,91.9 121,99.8 123.2,99.8 123.2,91.9 126.3,91.9 	"/>
	<path class="st0" d="M128.9,89.8l-4.2,10h2.2l0.9-2.2h4.2l0.9,2.2h2.3l-4.2-10H128.9z M128.6,95.6l1.3-3.2l1.3,3.2H128.6z"/>
	<path class="st0" d="M140.6,89.8h-3.9v10h3.9c3.1,0,5.3-2.2,5.3-5v0C145.9,92,143.7,89.8,140.6,89.8z M143.6,94.9c0,1.8-1.2,3-3,3
		h-1.7v-6h1.7C142.4,91.8,143.6,93.1,143.6,94.9L143.6,94.9z"/>
	<path class="st0" d="M152.4,89.7c-3.1,0-5.3,2.3-5.3,5.2v0c0,2.8,2.2,5.1,5.3,5.1c3.1,0,5.3-2.3,5.3-5.2v0
		C157.7,92,155.5,89.7,152.4,89.7z M155.4,94.9c0,1.7-1.2,3.1-3,3.1c-1.8,0-3-1.4-3-3.1v0c0-1.7,1.2-3.1,3-3.1
		C154.2,91.7,155.4,93.1,155.4,94.9L155.4,94.9z"/>
	<polygon class="st0" points="34.9,95.8 39.6,95.8 39.6,93.8 34.9,93.8 34.9,91.8 40.2,91.8 40.2,89.8 32.7,89.8 32.7,99.8 
		40.3,99.8 40.3,97.9 34.9,97.9 	"/>
	<path class="st0" d="M79.8,89.8h-3.9v10h3.9c3.1,0,5.3-2.2,5.3-5v0C85.1,92,82.9,89.8,79.8,89.8z M82.8,94.9c0,1.8-1.2,3-3,3h-1.7
		v-6h1.7C81.6,91.8,82.8,93.1,82.8,94.9L82.8,94.9z"/>
	<path class="st0" d="M91.7,89.7c-3.1,0-5.3,2.3-5.3,5.2v0c0,2.8,2.2,5.1,5.3,5.1c3.1,0,5.3-2.3,5.3-5.2v0
		C97,92,94.8,89.7,91.7,89.7z M94.7,94.9c0,1.7-1.2,3.1-3,3.1s-3-1.4-3-3.1v0c0-1.7,1.2-3.1,3-3.1C93.4,91.7,94.7,93.1,94.7,94.9
		L94.7,94.9z"/>
	<path class="st0" d="M3.9,51.3c4.7-5.1,12.8-6.2,20.6-6.8c4.2-0.3,8.3-0.4,12.5-0.6c7.8-0.3,15.8-1.3,20.5-6.4
		c0.9-1,1.7-2.1,2.3-3.5V31c-0.6,1.3-1.4,2.5-2.3,3.5c-4.7,5.1-12.7,6.1-20.5,6.4c-4.2,0.2-8.3,0.3-12.5,0.6
		c-7.8,0.6-15.8,1.7-20.6,6.8c-1,1.1-1.8,2.3-2.5,3.8C0.5,54.1,0.3,56,0.3,58v2.9c0-2,0.2-3.9,1.1-5.8C2.1,53.6,2.9,52.4,3.9,51.3z"
		/>
	<path class="st0" d="M3.9,57.4c4.7-5.1,12.8-6.2,20.6-6.8c4.2-0.3,8.3-0.4,12.5-0.6c7.9-0.3,15.8-1.3,20.5-6.4
		c0.3-0.4,0.7-0.8,1-1.2l0,0c0,0,0,0,0,0c0.2-0.3,0.4-0.6,0.6-0.8c0.1-0.1,0.1-0.2,0.2-0.3c0.1-0.1,0.1-0.2,0.2-0.3
		c0.1-0.3,0.3-0.5,0.4-0.8v3.1c3.7,2.2,8.1,3.2,12.7,3.2c8.4,0,13.9-4.2,13.9-11.2v-0.1c0-6.4-4.9-9-12.8-10.7c-4.8-1.1-6-1.8-6-3.3
		v-0.1c0-1.2,1.1-2.2,3.4-2.2c3.1,0,6.5,1.2,9.6,3.4l4.8-6.7c-3.7-3-8.3-4.6-14.2-4.6c-5.4,0-9.4,2-11.5,5.1v3
		c-0.1,0.3-0.3,0.6-0.5,0.9c-0.1,0.1-0.1,0.2-0.2,0.3c-0.1,0.1-0.2,0.3-0.3,0.4c-0.1,0.1-0.2,0.3-0.3,0.4c-0.1,0.1-0.1,0.2-0.2,0.3
		c-0.1,0.2-0.2,0.3-0.4,0.5c-0.2,0.2-0.4,0.4-0.6,0.6c-4.7,5.1-12.7,5.9-20.5,6.2c-4.2,0.2-8.3,0.5-12.5,0.9
		c-1.9,0.2-3.8,0.3-5.7,0.6v-3.2c1.9-0.3,3.8-0.4,5.7-0.6c4.2-0.3,8.3-0.6,12.5-0.9c7.8-0.3,15.8-1.1,20.5-6.2
		c0.9-1,1.7-2.1,2.3-3.5v-2.9c-0.6,1.3-1.4,2.5-2.3,3.5c-4.7,5.1-12.7,6.1-20.5,6.4c-4.2,0.2-8.3,0.3-12.5,0.6
		c-1.9,0.2-3.8,0.3-5.7,0.6v-3.2c1.9-0.3,3.8-0.4,5.7-0.6c4.2-0.3,8.3-0.4,12.5-0.6c7.9-0.4,15.8-1.3,20.5-6.4
		c0.9-1,1.7-2.1,2.3-3.5V6.7c-0.6,1.3-1.4,2.5-2.3,3.5c-4.7,5.1-12.7,6.3-20.5,6.7c-0.5,0-8.8,0.3-12.5,0.6
		c-1.9,0.2-3.8,0.3-5.7,0.6v0c-0.4,0.1-0.8,0.1-1.3,0.2c-0.2,0-0.5,0.1-0.7,0.1c-0.2,0-0.4,0.1-0.5,0.1c-0.2,0-0.4,0.1-0.6,0.1
		c-4.6,0.9-8.8,2.4-11.7,5.6c-1,1.1-1.8,2.3-2.5,3.8c-0.9,1.9-1.1,3.9-1.1,5.8v0v0.1v2.5v0v0.1v3.1v0v0.1v2.8v0v0.1v3.1v0v0.1v2.8v0
		v0.1c0-0.2,0-0.3,0-0.5c0-0.1,0-0.2,0-0.2c0-0.1,0-0.2,0-0.3c0-0.2,0-0.3,0-0.5c0,0,0,0,0,0c0.1-0.7,0.2-1.4,0.3-2.1
		c0.2-0.7,0.4-1.4,0.7-2.1c0.7-1.5,1.5-2.7,2.5-3.8c3.7-3.9,8.8-5.4,14.8-6.3c1.9-0.3,3.9-0.4,5.8-0.6c4.2-0.3,8.3-0.4,12.5-0.6
		c7.8-0.3,15.8-1.3,20.5-6.4c0.5-0.6,1-1.2,1.5-1.9c0.1-0.1,0.2-0.3,0.3-0.4c0.1-0.1,0.1-0.2,0.2-0.3c0.2-0.3,0.3-0.5,0.4-0.8v3.2
		c-0.1,0.3-0.3,0.5-0.4,0.8c-0.1,0.2-0.3,0.4-0.4,0.6c-0.5,0.8-1,1.4-1.6,2.1c-4.7,5.1-12.7,6.1-20.5,6.4c-4,0.2-8,0.3-12,0.6
		c-0.2,0-0.3,0-0.5,0c-7.8,0.6-15.8,1.7-20.6,6.8c-1,1.1-1.8,2.3-2.5,3.8c-0.9,1.9-1.1,3.9-1.1,5.8v2.9c0-2,0.2-3.9,1.1-5.8
		c0.7-1.5,1.5-2.7,2.5-3.8c4.7-5.1,12.8-6.2,20.6-6.8c4.2-0.3,8.3-0.4,12.5-0.6c7.9-0.3,15.8-1.3,20.5-6.4c0.9-1,1.7-2.1,2.3-3.5
		v-0.3c2.2,2.8,6.3,4.1,11.2,5.2c4.7,1.1,5.8,1.9,5.8,3.3v0.1c0,1.5-1.4,2.4-3.9,2.4c-4,0-7.8-1.4-11.2-4.1l-1.9,2.3v0.5
		c-0.6,1.3-1.4,2.5-2.3,3.5c-0.2,0.2-0.4,0.4-0.5,0.5l0,0c-4.8,4.7-12.5,5.5-20,5.9c-4.2,0.2-8.3,0.3-12.5,0.6
		c-7.8,0.6-15.8,1.7-20.6,6.8c-1,1.1-1.8,2.3-2.5,3.8c-0.9,1.9-1.1,3.9-1.1,5.8V67c0-2,0.2-3.9,1.1-5.8C2.1,59.7,2.9,58.5,3.9,57.4z
		 M15.4,20.9l0.4-1.5l0.4,1.3l1.4-0.3l-1.1,1.1l0.4,1.3l-1.1-0.6l-1.1,1.1l0.4-1.5L14,21.2L15.4,20.9z M0.9,31c0,0,0.2-0.3,0.4-0.6
		c0.1-0.5,0.2-1.2,0.2-1.2s0,0.3,0.1,0.7C1.8,29.5,2.1,29,2.1,29l-0.4,1.6c0,0,0,0,0,0.1C1.8,31,2.1,32,2.1,32l-0.6-0.5l-0.6,2.1
		c0,0,0.2-1.7,0.3-2.3L0.9,31z M2.4,38.8c0,0-0.3-0.1-0.6-0.2l-0.6,2.3c0,0,0.1-1.8,0.2-2.4c0,0,0,0,0,0c-0.2-0.1-0.4-0.2-0.4-0.2
		s0.3-0.7,0.5-1c0.1-0.8,0.2-1.7,0.2-1.7S1.9,36,2,36.6c0.3-0.5,0.7-1.1,0.7-1.1l-0.5,2C2.3,38.2,2.5,38.8,2.4,38.8z M8.2,34.2
		c-3,1.8-5.5,0.4-5.7-2.8c-0.2-3.1,2.1-6.7,5.1-8.5c3-1.8,5.5-0.4,5.7,2.8C13.5,28.9,11.2,32.4,8.2,34.2z M17,31.2l-1.2-0.7
		l-1.2,1.2l0.5-1.6l-1.2-0.7l1.5-0.3l0.5-1.6l0.5,1.4l1.5-0.3l-1.2,1.2L17,31.2z"/>
	<path class="st0" d="M29.4,62.7L29.4,62.7c0-2.5-0.5-4.5-1.5-6.2c2.7-0.1,5.3-0.2,8-0.4L23.5,85.1h10L36,79h13.3l2.5,6.1H62
		L49,54.3c3.3-1,6.3-2.6,8.5-5c0.9-1,1.7-2.1,2.3-3.5v-2.6c-0.6,1.3-1.4,2.5-2.3,3.5c-2.5,2.7-5.9,4.2-9.7,5.1
		c-0.4,0.1-0.7,0.2-1.1,0.2c-0.1,0-0.1,0-0.2,0c-0.4,0.1-0.7,0.1-1.1,0.2c-0.1,0-0.1,0-0.2,0c-0.4,0.1-0.8,0.1-1.2,0.2
		c-0.1,0-0.1,0-0.2,0c-0.4,0.1-0.8,0.1-1.2,0.1c-0.1,0-0.1,0-0.2,0c-0.4,0-0.8,0.1-1.2,0.1c0,0-0.1,0-0.1,0c-0.4,0-0.9,0.1-1.3,0.1
		c0,0,0,0,0,0c-0.9,0.1-1.8,0.1-2.8,0.2c0,0,0,0-0.1,0c-4.2,0.2-8.3,0.3-12.5,0.6c-7.8,0.6-15.8,1.7-20.6,6.8
		c-1,1.1-1.8,2.3-2.5,3.8c-0.2,0.5-0.4,1-0.5,1.5c0,0.1-0.1,0.3-0.1,0.4c0,0.1-0.1,0.2-0.1,0.3c0,0.2-0.1,0.3-0.1,0.5
		c0,0.1,0,0.2-0.1,0.3c0,0.2-0.1,0.3-0.1,0.5c0,0.1,0,0.2,0,0.2c-0.1,0.5-0.1,0.9-0.1,1.4c0,0,0,0.1,0,0.1c0,0.2,0,0.5,0,0.7
		c0,0,0,0,0,0c0,0,0,0,0,0v2.9c0,0,0,0,0,0v12.1h9.5V75.1h4.7C23.1,75.1,29.4,70.8,29.4,62.7z M38.8,71.6l3.9-9.8l3.8,9.8H38.8z
		 M9.8,67.6v-8.1c0.9-0.4,1.9-0.7,2.8-1h1.6c3.4,0,5.5,1.6,5.5,4.5v0.1c0,2.7-2.1,4.5-5.5,4.5H9.8z"/>
	<path class="st0" d="M11.7,24.7c-0.1,0-0.1,0.1-0.2,0.1c0,0,0,0,0,0c0,0,0,0-0.1,0c0-0.1-0.1,0-0.1-0.1c-0.1,0-0.1,0-0.2-0.1
		c-0.1,0-0.1,0-0.1,0c-0.1,0-0.2,0-0.3,0c-0.1,0.1-0.2,0.2-0.3,0.1c0,0-0.1,0.1-0.1,0.1c0,0-0.2,0-0.2,0c0,0,0,0,0,0
		c0,0,0,0.1-0.1,0.1c0,0-0.1,0.1-0.1,0c0,0,0-0.1,0-0.1c0-0.1,0-0.1,0-0.1c0,0,0,0,0,0c0,0,0,0,0,0c-0.1,0-0.1,0.1-0.1,0.1
		c0,0,0,0,0-0.1c0,0,0,0,0,0c0,0,0,0,0,0c0,0,0,0,0,0c0,0,0,0,0,0c0,0,0,0,0,0c0,0,0,0,0,0c0,0,0,0,0,0c0,0,0,0,0,0c0,0,0,0,0,0
		c0,0,0,0,0,0c0,0,0,0,0,0c0,0,0,0,0,0c0,0,0,0,0,0c0,0,0,0,0,0c0,0,0,0,0,0c-0.1,0-0.2,0-0.2,0.1c0,0-0.1,0-0.1,0c0,0,0,0,0-0.1
		c-0.1,0.1-0.2,0.1-0.3,0c0,0,0,0-0.1,0c0,0,0-0.1,0-0.1c0-0.1,0-0.2,0-0.2c0,0,0,0-0.1,0c0,0,0,0,0-0.1c0,0,0,0,0,0
		c0-0.1-0.1-0.2-0.1-0.3c0,0,0,0,0,0c0-0.1-0.1-0.1-0.1-0.1c0,0.1-0.1,0.2-0.1,0.4c0,0.1,0,0.2-0.1,0.3c-0.1,0-0.1,0.1-0.2,0.1
		c0,0-0.1,0.1-0.1,0.1c0,0-0.1,0-0.1,0c0,0,0,0,0,0c0,0,0,0,0,0c0,0,0,0,0,0c0,0,0,0,0,0c-0.1,0.1-0.1,0.1-0.2,0.1c0,0,0,0-0.1,0
		c0,0,0,0.1,0,0.1c0,0,0.1,0,0,0.1c-0.1,0-0.2,0.1-0.2,0.1c0,0-0.1,0.1-0.1,0.1c0,0-0.1,0-0.1,0.1c0,0,0,0,0,0c0,0,0,0-0.1,0
		c0,0,0,0,0,0.1c0,0,0,0,0,0c0,0,0,0-0.1,0.1c0,0,0,0,0,0c-0.1,0.1-0.1,0-0.2,0c0,0,0-0.1,0-0.1c-0.1,0,0-0.2,0-0.3
		c0,0,0-0.1,0.1-0.1c0,0,0,0,0,0c0,0,0,0,0,0c0,0-0.1,0-0.1,0c0,0,0-0.1,0-0.1c0,0,0,0,0,0c0,0,0,0,0,0c0,0-0.1,0-0.1,0.1
		c0,0,0,0.1,0,0.1c0,0,0,0,0,0c0,0,0,0-0.1,0c0,0-0.1,0.1-0.1,0.1c0,0,0,0-0.1,0.1c0,0-0.1,0-0.1,0c0,0-0.1,0.1-0.1,0.1
		c0,0,0,0.1,0,0.1c0,0,0,0,0,0c0,0-0.1,0,0-0.1c0,0,0,0-0.1,0c0,0,0,0,0,0c0,0,0,0,0,0c0,0-0.1,0.1-0.1,0c0,0-0.1,0-0.1,0.1
		c0,0,0,0,0,0c0,0.1,0.1,0.1,0.1,0.1c0,0.1,0,0.1,0,0.2c0,0,0,0,0,0.1c0,0,0.1,0,0.1-0.1c0,0,0,0,0,0.1c-0.1,0-0.1,0.1-0.1,0.1
		c0,0,0,0,0,0.1c0,0,0,0,0,0.1c0,0-0.1,0.1-0.1,0.1c0,0,0,0,0,0c0,0,0,0,0,0.1c0,0,0,0,0,0c0,0,0,0,0,0.1c0,0,0,0.1-0.1,0.1
		c0,0,0,0,0-0.1c0,0,0,0,0,0c-0.1,0-0.1,0.1-0.2,0.1c0,0-0.1,0-0.1,0c0,0,0,0,0,0c0-0.1,0-0.2-0.1-0.1c0,0,0,0,0-0.1
		C5.1,26.8,5,26.8,5,26.9c0,0,0,0-0.1,0c0,0,0,0.1,0,0.1c-0.1,0.1-0.2,0.1-0.3,0.2c0,0,0,0.1,0,0.1c0,0,0.1,0,0.1-0.1
		c0,0,0,0.1,0,0.1c0,0,0,0-0.1,0c0,0-0.1,0.1-0.1,0.1c0,0.1,0,0.1,0,0.2c0,0,0.1,0,0.1,0c0,0,0,0,0,0.1c0,0,0.1,0.1,0,0.1
		c0,0.2,0,0.4-0.1,0.6c0,0,0,0-0.1,0c0,0,0,0,0,0c0,0,0,0-0.1,0c0,0,0,0,0,0c0,0-0.1,0.1-0.1,0.1c0,0-0.1,0.1-0.1,0.1
		c-0.1,0-0.1,0.1-0.1,0.1c0,0.1-0.1,0.1-0.1,0.1c0,0.1-0.1,0.2,0,0.3c-0.1,0.1-0.2,0.2-0.1,0.2c0,0,0,0-0.1,0c0,0,0,0,0,0.1
		c0,0,0,0,0.1,0c0,0,0,0,0,0c0,0,0,0.1,0.1,0.1c0,0,0.1,0,0.1,0.1c0,0,0,0.1,0,0.1c0.1,0,0.1-0.1,0.2-0.1c0,0,0,0,0,0.1
		c0.1,0,0.1-0.1,0.2-0.1c0-0.1,0.1-0.1,0.1-0.2c0,0,0,0,0,0c0,0,0,0,0,0c0,0.1,0,0.2,0,0.3c0,0,0,0,0,0c0,0,0,0,0,0
		c0.1-0.1,0.2-0.1,0.3-0.2c0,0,0,0,0,0c0.1-0.1,0.1-0.1,0.2-0.2c0,0,0,0,0.1,0c0-0.1,0.1-0.1,0.1-0.1c0-0.1,0.1-0.1,0.1-0.2
		c0.1-0.1,0.1-0.1,0.2-0.1c0,0,0,0,0,0c0,0.1,0,0.2,0,0.3c0,0.1,0,0.1,0,0.2c0,0,0,0,0,0c0,0,0,0,0,0.1c0,0,0,0,0,0c0,0,0,0,0.1,0
		c0,0,0,0,0,0c0.1,0,0.1,0,0.1-0.1c0,0,0.1,0,0.1,0c0,0.1,0.1,0,0.2,0c0,0,0.1,0,0.1,0.1c0.1,0,0.1-0.1,0.2-0.1c0,0,0.1,0,0.1,0
		c0,0.1,0,0.1,0.1,0.2c0,0,0,0.1,0,0.1c0,0,0,0-0.1,0c0,0,0.1,0,0.1,0.1c0,0,0,0.1,0,0.2c0.1-0.1,0.3-0.1,0.4-0.2c0,0,0,0,0,0.1
		c-0.1,0.1,0,0.2,0.1,0.2c0,0,0,0,0,0c0,0,0,0.1,0.1,0.1c0,0-0.1,0.2,0,0.2c0,0.1-0.1,0.1-0.1,0.2c0,0,0,0,0,0c0,0-0.1,0.1-0.1,0.1
		c0,0,0,0,0,0c0,0.1,0.1,0.1,0,0.2c0,0,0,0.1,0,0.1c0,0,0,0,0,0.1c0.1,0,0.3-0.1,0.3-0.2c0,0.1,0.2-0.1,0.1,0c0,0,0,0,0,0
		c0,0,0,0.1,0,0.1c0,0,0,0.1,0.1,0.2C7.9,31,8,30.9,8,30.9c0,0,0,0.1,0,0.2c0,0,0,0.1,0,0.1c0,0,0,0,0,0c0,0,0,0,0,0
		c0.1-0.1,0.1,0.1,0.1,0.1c0,0.1,0,0.1,0,0.1c0,0.1-0.1,0.1-0.1,0.2c0,0-0.1,0.1-0.1,0.1c0,0,0,0,0,0.1c-0.1,0.1-0.1,0.1-0.2,0.2
		c0,0,0,0,0,0c-0.1,0.1-0.1,0.2-0.2,0.3c0,0.1-0.1,0.2-0.1,0.2c0,0,0,0.1-0.1,0.1c0,0,0,0,0,0c0,0,0,0,0.1,0c0,0,0,0,0-0.1
		c0.1,0,0.2,0,0.2,0c0,0,0,0,0,0c0,0,0.1-0.1,0.1-0.1c0,0,0.1,0.1,0.2,0c0,0,0,0,0,0c0.1,0,0.2,0,0.2,0.1c0,0,0.1,0,0.1,0
		c0,0,0,0,0,0c0,0,0,0,0,0c0,0-0.1,0.1-0.1,0.1c0.1-0.1,0,0.1,0.1,0.1c0,0,0.1-0.1,0.1-0.2c0-0.1,0.1-0.2,0.1-0.3c0,0,0,0,0,0
		c0-0.1,0.2-0.2,0.2-0.4c0,0,0.1-0.2,0.1-0.2c0,0,0-0.1,0-0.1c0.1-0.2,0.2-0.3,0.3-0.5c0-0.1,0.1-0.2,0-0.3c0,0,0,0,0,0
		c0,0,0,0,0-0.1c0,0,0,0,0,0c0,0,0,0,0-0.1c0,0,0,0,0,0c0,0,0-0.1,0-0.1c0,0,0,0,0,0c0-0.1,0-0.1,0.1-0.1c0,0,0,0,0-0.1
		c0.1-0.1,0.1-0.2,0.2-0.2c0-0.1,0.1-0.1,0.1-0.2c0,0,0.1-0.1,0.1-0.1c0,0,0,0,0,0c0,0,0,0,0-0.1c0.1-0.1,0.1,0,0.2-0.1
		c0,0,0,0,0-0.1c0,0,0,0,0,0c0,0,0.1-0.1,0.1-0.1c0,0,0.1,0,0.1-0.1c0,0,0,0,0,0c0,0,0,0,0,0c0,0,0,0,0.1,0c0,0,0,0,0,0
		c0,0,0,0,0.1,0c0,0,0,0,0,0c0,0,0,0,0,0c0,0,0,0,0,0.1c0.1-0.1,0.3-0.2,0.4-0.3c0,0,0-0.1,0-0.1c0-0.1,0.1-0.2,0.2-0.2
		c0,0,0-0.1,0-0.1c0-0.1,0-0.1,0.1-0.2c0,0,0,0,0,0c0.1-0.1,0.1-0.2,0.1-0.3c0-0.1,0-0.3,0.1-0.4c0,0,0,0,0-0.1c0-0.1,0-0.3,0-0.4
		c-0.1-0.1,0-0.4,0-0.5c0,0,0,0,0,0c0,0,0-0.1,0.1-0.1c0,0,0,0,0,0c0.2-0.2,0.2-0.6,0.4-0.8c0,0,0,0,0-0.1c0-0.1,0.1-0.1,0.1-0.2
		c0.1-0.2,0.2-0.5,0.2-0.7C11.8,24.9,11.8,24.8,11.7,24.7z"/>
</g>
</svg>
