<?xml version="1.0" encoding="utf-8"?>
<!-- Generator: Adobe Illustrator 24.1.1, SVG Export Plug-In . SVG Version: 6.00 Build 0)  -->
<svg version="1.1" id="Layer_1" xmlns="http://www.w3.org/2000/svg" xmlns:xlink="http://www.w3.org/1999/xlink" x="0px" y="0px"
	 viewBox="0 0 722.6 134.3" style="enable-background:new 0 0 722.6 134.3;" xml:space="preserve">
<style type="text/css">
	.st0{fill:#4A555C;}
	.st1{fill:#B01117;}
</style>
<g>
	<g>
		<polygon class="st0" points="16,52 16,88.8 0,88.8 0,0 57.6,0 57.6,14.1 16,14.1 16,37.9 54,37.9 54,52 		"/>
		<path class="st0" d="M300.3,65.8c0,15.7-10.9,24-27.2,24c-16.2,0-27.1-8.9-27.1-24.6V49.6c0-15.6,10.9-24.7,27.1-24.7
			c16.4,0,27.2,8.3,27.2,24.1v1.1h-14c0-9-4.9-12.6-13.3-12.6c-8.2,0-13,4.3-13,13.4v13.1c0,9.1,4.8,13.4,13,13.4
			c8.4,0,13.3-3.6,13.3-12.5h14V65.8z"/>
		<path class="st0" d="M106.1,88.8v-7.3l-6.6,3.6c-5.8,3.1-10.4,4.5-16.6,4.5c-11.2,0-18.7-7.3-18.7-17.9
			c0-13.1,10.3-19.2,23.3-19.2h18.7v-3.7c0-8.1-4.7-12-12.9-12c-8.6,0-13.6,3.6-13.6,11H65.7v-0.8c0-14.2,11.2-22.2,27.6-22.2
			c17.2,0,27.1,8.6,27.1,23.6v40.4L106.1,88.8L106.1,88.8z M106.1,62.7H89.4c-8.7,0-10.7,4.1-10.7,8.2c0,4.4,2.7,7,7.5,7
			c3.9,0,7.3-1.2,10.9-3.1l9.1-4.9V62.7z"/>
		<path class="st0" d="M161.8,88.8c-14.6,0-24-7.3-24-21.6v-29h-9.6V25.9h9.6V8.8h14.8v17.1h17.4v12.3h-17.4v28.2
			c0,7.4,3.3,9.9,10.4,9.9h7.4v12.5L161.8,88.8L161.8,88.8z"/>
		<path class="st0" d="M233.4,68.9c0,12.8-11,20.9-27.6,20.9c-16.2,0-27.8-8.8-27.8-24.2V50.7c0-15.9,11.6-25.8,27.8-25.8
			c16.4,0,27.7,9.4,27.7,26V62h-41.7v3.1c0,8.9,6,12.9,14.2,12.9c8.1,0,13.6-2.9,13.6-9.7h13.8L233.4,68.9L233.4,68.9z M219.9,50.7
			c0-9-5.3-13.8-14-13.8c-8.8,0-14.2,4.9-14.2,14v1.5h28.1L219.9,50.7L219.9,50.7z"/>
	</g>
	<g>
		<polygon class="st1" points="107.2,127.7 107.2,106 99.8,106 99.8,101.9 119.3,101.9 119.3,106 112,106 112,127.7 		"/>
		<path class="st1" d="M131.1,127.7v-2.1l-1.9,1c-1.7,0.9-3,1.3-4.8,1.3c-3.3,0-5.4-2.1-5.4-5.2c0-3.8,3-5.6,6.8-5.6h5.4v-1.1
			c0-2.4-1.4-3.5-3.7-3.5c-2.5,0-3.9,1-3.9,3.2h-4.1v-0.2c0-4.1,3.3-6.4,8-6.4c5,0,7.9,2.5,7.9,6.9v11.7L131.1,127.7L131.1,127.7z
			 M131.1,120.1h-4.8c-2.5,0-3.1,1.2-3.1,2.4c0,1.3,0.8,2,2.2,2c1.1,0,2.1-0.3,3.2-0.9l2.6-1.4L131.1,120.1L131.1,120.1z"/>
		<path class="st1" d="M151.4,134.1v-8.4l-2.1,1.1c-1.4,0.8-2.7,1.1-4.1,1.1c-3.8,0-6.3-2.5-6.3-6.2v-6.1c0-3.7,2.6-6.3,6.3-6.3
			c1.3,0,2.6,0.3,4,1.1l2.1,1.1v-2h4.1v24.6L151.4,134.1L151.4,134.1z M151.4,115.3l-2.9-1.6c-0.8-0.4-1.6-0.7-2.6-0.7
			c-1.7,0-2.9,1.2-2.9,3v5.2c0,1.8,1.1,3,2.9,3c1,0,1.8-0.3,2.6-0.7l2.9-1.6V115.3z"/>
		<path class="st1" d="M171.5,127.7v-2.1l-1.9,1.1c-1.3,0.8-2.6,1.2-4.1,1.2c-3.6,0-5.8-2.4-5.8-5.9v-12.5h4.2v12
			c0,1.6,0.9,2.7,2.4,2.7c0.9,0,1.6-0.3,2.4-0.8l2.7-1.6v-12.3h4.2v18.3L171.5,127.7L171.5,127.7z"/>
		<path class="st1" d="M191.5,127.7v-2.1l-1.9,1c-1.7,0.9-3,1.3-4.8,1.3c-3.3,0-5.4-2.1-5.4-5.2c0-3.8,3-5.6,6.8-5.6h5.4v-1.1
			c0-2.4-1.4-3.5-3.7-3.5c-2.5,0-3.9,1-3.9,3.2h-4.1v-0.2c0-4.1,3.3-6.4,8-6.4c5,0,7.9,2.5,7.9,6.9v11.7L191.5,127.7L191.5,127.7z
			 M191.5,120.1h-4.9c-2.5,0-3.1,1.2-3.1,2.4c0,1.3,0.8,2,2.2,2c1.1,0,2.1-0.3,3.1-0.9l2.6-1.4L191.5,120.1L191.5,120.1z"/>
		<path class="st1" d="M199.8,127.7v-18.3h4.2v2.6l0.8-0.8c1.4-1.3,2.7-1.9,4.5-1.9h1.1v4.3h-1c-1.6,0-2.6,0.3-3.8,1.3L204,116v11.7
			C204,127.7,199.8,127.7,199.8,127.7z"/>
		<path class="st1" d="M217.6,104.5c0,1.3-1,2-2.4,2c-1.4,0-2.4-0.7-2.4-2v-0.8c0-1.3,1-2,2.4-2c1.4,0,2.4,0.7,2.4,2V104.5z
			 M213.1,109.4h4.3v18.3h-4.3V109.4z"/>
		<path class="st1" d="M230.1,127.7c-4.2,0-7-2.1-7-6.3V113h-2.8v-3.6h2.8v-4.9h4.3v4.9h5.1v3.6h-5.1v8.2c0,2.2,1,2.9,3,2.9h2.1v3.6
			L230.1,127.7L230.1,127.7z"/>
		<path class="st1" d="M240.5,104.5c0,1.3-1,2-2.4,2c-1.4,0-2.4-0.7-2.4-2v-0.8c0-1.3,1-2,2.4-2c1.4,0,2.4,0.7,2.4,2V104.5z
			 M235.9,109.4h4.3v18.3h-4.3V109.4z"/>
		<path class="st1" d="M256.3,127.7v-12c0-1.4-0.8-2.7-2.4-2.7c-0.9,0-1.6,0.3-2.4,0.8l-2.7,1.6v12.3h-4.2v-18.3h4.2v2.2l1.9-1.2
			c1.4-0.9,2.7-1.1,4.1-1.2c3.6,0,5.7,2.4,5.7,5.9v12.5L256.3,127.7L256.3,127.7z"/>
		<path class="st1" d="M268.5,121.1c-0.8,0-1.3,0.4-1.3,1.2c0,0.7,0.5,1.1,1.2,1.1h7.1c4.2,0,6.5,1.6,6.5,5c0,3.8-3.4,5.9-8.4,5.9
			c-5.6,0-8.1-2.5-8.1-6.9v-1.8c-1.1-0.5-1.8-1.6-1.8-3.3c0-2,1-3.2,2.5-3.5c0,0-1.3-1-1.3-3.5c0-3.9,2.7-5.8,6.7-5.8h10.6v3.5h-2.6
			c0,0,0.9,0.7,0.9,2.5c0,3.5-2.6,5.6-6.6,5.6L268.5,121.1L268.5,121.1z M273.2,118c2.2,0,3.5-0.8,3.5-2.7c0-1.8-1.1-2.7-3.1-2.7
			H272c-2,0-3.2,0.6-3.2,2.7c0,1.8,1.1,2.6,3.1,2.6H273.2z M269.2,126.5v0.8c0,2.5,1,3.9,4.3,3.9c2.9,0,4.4-0.8,4.4-2.6
			c0-1.6-1.2-2-3.1-2H269.2z"/>
		<path class="st1" d="M296.4,127.7v-2.1l-1.9,1c-1.7,0.9-3,1.3-4.8,1.3c-3.3,0-5.4-2.1-5.4-5.2c0-3.8,3-5.6,6.8-5.6h5.4v-1.1
			c0-2.4-1.4-3.5-3.7-3.5c-2.5,0-4,1-4,3.2h-4.1v-0.2c0-4.1,3.3-6.4,8-6.4c5,0,7.9,2.5,7.9,6.9v11.7L296.4,127.7L296.4,127.7z
			 M296.4,120.1h-4.9c-2.5,0-3.1,1.2-3.1,2.4c0,1.3,0.8,2,2.2,2c1.1,0,2.1-0.3,3.1-0.9l2.6-1.4L296.4,120.1L296.4,120.1z"/>
	</g>
</g>
<polygon class="st0" points="363.2,67.2 340.8,94 340.8,134.3 336.3,134.3 336.3,0 340.8,0 340.8,40.3 "/>
<g>
	<g>
		<path class="st0" d="M430.1,41.9c0,5.6-1.8,10-5.3,13c-3.5,3-8.3,4.6-14.4,4.6c-5.9,0-10.7-1.6-14.4-4.9s-5.6-8.3-5.6-14.9v-9.7
			c0-6.7,1.9-11.7,5.6-15c3.7-3.3,8.5-5,14.5-5c6.1,0,10.8,1.5,14.4,4.6c3.5,3.1,5.3,7.4,5.3,13v0.8h-8.8c0-7.2-3.6-10.8-10.8-10.8
			c-7.6,0-11.4,4.3-11.4,12.8V39c0,8.6,3.8,12.8,11.4,12.8c3.5,0,6.1-0.9,8-2.7c1.9-1.8,2.8-4.5,2.8-8.1h8.8V41.9z"/>
		<path class="st0" d="M467,48c0,3.5-1.4,6.2-4.1,8.3c-2.7,2.1-6.4,3.1-10.9,3.1c-4.5,0-8.1-1.2-10.9-3.5c-2.8-2.3-4.2-5.6-4.2-9.7
			v-8.1c0-4.3,1.4-7.7,4.2-10.2s6.4-3.8,10.9-3.8c4.5,0,8.2,1.3,10.9,3.8c2.7,2.5,4.1,6,4.1,10.4v6h-22.7v1.7c0,2.3,0.7,4.1,2.1,5.3
			c1.4,1.2,3.3,1.8,5.6,1.8c4.9,0,7.4-1.8,7.4-5.3h7.5V48z M459.7,38.1c0-2.4-0.7-4.3-2-5.6s-3.2-1.9-5.6-1.9c-2.4,0-4.3,0.7-5.7,2
			s-2,3.2-2,5.6V39h15.3V38.1z"/>
		<path class="st0" d="M496.4,58.8V36.3c0-1.4-0.4-2.6-1.2-3.6c-0.8-1-1.9-1.5-3.4-1.5c-1.3,0-2.8,0.5-4.5,1.5l-5,3v23h-7.9V24.6
			h7.8v4l3.6-2.2c2.2-1.4,4.8-2.1,7.6-2.2c3.3,0,6,1,7.9,3c1.9,2,2.9,4.7,2.9,8v23.5H496.4z"/>
		<path class="st0" d="M527.1,58.8c-4.1,0-7.3-1-9.6-3c-2.3-2-3.5-4.9-3.5-8.7V31.2h-5.2v-6.7h5.2v-9.3h8v9.3h9.5v6.7h-9.5v15.3
			c0,1.9,0.5,3.3,1.4,4.2s2.3,1.2,4.3,1.2h4v6.8H527.1z"/>
		<path class="st0" d="M538,58.8V24.6h7.9v4.9l1.5-1.5c2.6-2.4,5.4-3.6,8.4-3.6h2v8h-1.9c-2.8,0-5.2,0.8-7.2,2.3l-2.7,2.2v21.9H538z
			"/>
		<path class="st0" d="M584.3,58.8v-4l-3.6,1.9c-3.1,1.6-6.1,2.5-9,2.5c-3,0-5.5-0.9-7.4-2.7s-2.8-4.1-2.8-7c0-3.4,1.2-6,3.5-7.8
			s5.4-2.7,9.1-2.7h10.2v-2c0-4.4-2.3-6.6-7-6.6c-4.9,0-7.4,2-7.4,6h-7.7V36c0-3.8,1.4-6.8,4.1-8.9c2.7-2.1,6.4-3.2,10.9-3.2
			c4.7,0,8.3,1.1,10.9,3.4c2.6,2.2,3.9,5.4,3.9,9.5v22H584.3z M584.3,44.6h-9.1c-3.9,0-5.8,1.5-5.8,4.5c0,1.2,0.4,2.2,1.1,2.8
			c0.7,0.7,1.7,1,3,1c1.8,0,3.8-0.6,5.9-1.7l4.9-2.7V44.6z"/>
		<path class="st0" d="M599.8,58.8V10.5h8.1v48.3H599.8z"/>
	</g>
	<g>
		<path class="st1" d="M413.4,123.6v-3.7l-4,2.1c-2.4,1.3-4.9,2-7.7,2c-3.5,0-6.3-1.1-8.5-3.2c-2.2-2.1-3.2-5-3.2-8.5v-11.5
			c0-3.5,1.1-6.3,3.3-8.5c2.2-2.2,5.1-3.3,8.6-3.3c2.6,0,5.1,0.7,7.5,2l3.9,2.1V75.3h7.7v48.3H413.4z M413.3,100.5l-5.5-3
			c-1.6-0.9-3.2-1.3-4.8-1.3c-1.6,0-3,0.5-3.9,1.5c-1,1-1.5,2.4-1.5,4.1v9.7c0,1.7,0.5,3.1,1.5,4.1c1,1,2.3,1.5,3.9,1.5
			c1.5,0,3.1-0.5,4.8-1.4l5.5-3V100.5z"/>
		<path class="st1" d="M458.6,112.9c0,3.5-1.4,6.2-4.1,8.3c-2.7,2.1-6.4,3.1-10.9,3.1c-4.5,0-8.1-1.2-10.9-3.5
			c-2.8-2.3-4.2-5.6-4.2-9.7v-8.1c0-4.3,1.4-7.7,4.2-10.2c2.8-2.5,6.4-3.8,10.9-3.8c4.5,0,8.2,1.3,10.9,3.8c2.7,2.5,4.1,6,4.1,10.4
			v6H436v1.7c0,2.3,0.7,4.1,2.1,5.3c1.4,1.2,3.3,1.8,5.6,1.8c4.9,0,7.4-1.8,7.4-5.3h7.5V112.9z M451.3,102.9c0-2.4-0.7-4.3-2-5.6
			s-3.2-1.9-5.6-1.9c-2.4,0-4.3,0.7-5.7,2s-2,3.2-2,5.6v0.8h15.3V102.9z"/>
		<path class="st1" d="M485.2,123.6V75.3h32.1V83h-23.4v12.3h21v7.7h-21v12.9h23.6v7.7H485.2z"/>
		<path class="st1" d="M532.2,123.6l-11.8-34.2h8.6l7.9,25.1l7.9-25.1h8.2l-11.9,34.2H532.2z"/>
		<path class="st1" d="M586.8,112.9c0,3.5-1.4,6.2-4.1,8.3c-2.7,2.1-6.4,3.1-10.9,3.1c-4.5,0-8.1-1.2-10.9-3.5
			c-2.8-2.3-4.2-5.6-4.2-9.7v-8.1c0-4.3,1.4-7.7,4.2-10.2c2.8-2.5,6.4-3.8,10.9-3.8c4.5,0,8.2,1.3,10.9,3.8c2.7,2.5,4.1,6,4.1,10.4
			v6h-22.7v1.7c0,2.3,0.7,4.1,2.1,5.3c1.4,1.2,3.3,1.8,5.6,1.8c4.9,0,7.4-1.8,7.4-5.3h7.5V112.9z M579.4,102.9c0-2.4-0.7-4.3-2-5.6
			s-3.2-1.9-5.6-1.9c-2.4,0-4.3,0.7-5.7,2s-2,3.2-2,5.6v0.8h15.3V102.9z"/>
		<path class="st1" d="M616.2,123.6v-22.4c0-1.4-0.4-2.6-1.2-3.6c-0.8-1-1.9-1.5-3.4-1.5c-1.3,0-2.8,0.5-4.5,1.5l-5,3v23h-7.9V89.4
			h7.8v4l3.6-2.2c2.2-1.4,4.8-2.1,7.6-2.2c3.3,0,6,1,7.9,3c1.9,2,2.9,4.7,2.9,8v23.5H616.2z"/>
		<path class="st1" d="M646.9,123.6c-4.1,0-7.3-1-9.6-3c-2.3-2-3.5-4.9-3.5-8.7V96.1h-5.2v-6.7h5.2v-9.3h8v9.3h9.5v6.7h-9.5v15.3
			c0,1.9,0.5,3.3,1.4,4.2c0.9,0.8,2.3,1.2,4.3,1.2h4v6.8H646.9z"/>
		<path class="st1" d="M686.6,110.4c0,4.2-1.4,7.6-4.3,10.2s-6.6,3.8-11.2,3.8s-8.3-1.3-11.2-3.8c-2.9-2.5-4.3-5.9-4.3-10.2v-7.5
			c0-4.3,1.4-7.7,4.3-10.2c2.9-2.5,6.6-3.8,11.2-3.8s8.3,1.3,11.2,3.8c2.9,2.5,4.3,5.9,4.3,10.2V110.4z M679,103.7
			c0-2.5-0.7-4.5-2.2-5.9c-1.4-1.4-3.4-2.1-5.7-2.1s-4.3,0.7-5.7,2.1c-1.4,1.4-2.2,3.4-2.2,5.9v5.9c0,2.5,0.7,4.5,2.2,5.9
			c1.4,1.4,3.4,2.1,5.7,2.1s4.3-0.7,5.7-2.1c1.4-1.4,2.2-3.4,2.2-5.9V103.7z"/>
		<path class="st1" d="M714.7,100.5c0-3.5-2.3-5.3-6.9-5.3c-2.1,0-3.8,0.4-4.9,1.2c-1.2,0.8-1.8,1.8-1.8,3c0,1.4,0.7,2.5,2.2,3.1
			c1.5,0.6,3.3,1,5.4,1.3c2.1,0.2,4.2,0.5,6.3,0.9c2.1,0.4,3.9,1.3,5.4,2.8s2.2,3.4,2.2,6c0,3.3-1.3,5.9-4,7.8
			c-2.7,1.9-6.3,2.8-10.8,2.8c-4.7,0-8.4-1-11-3c-2.6-2-3.9-4.7-3.9-8.2v-0.4h7.9c0,3.5,2.4,5.3,7.1,5.3c2.2,0,3.9-0.4,5.2-1.2
			c1.2-0.8,1.8-1.8,1.8-3c0-1.1-0.5-1.9-1.6-2.5s-2.4-1-4-1.1c-1.6-0.1-3.3-0.4-5.2-0.7c-1.8-0.3-3.6-0.8-5.2-1.3
			c-1.6-0.5-2.9-1.5-4-3c-1.1-1.4-1.6-3.2-1.6-5.5c0-3.3,1.3-5.9,3.9-7.9c2.6-1.9,6.1-2.9,10.6-2.9c4.6,0,8.2,1,10.7,3
			s3.8,4.7,3.8,8.2v0.4H714.7z"/>
	</g>
</g>
</svg>
