<?xml version="1.0" encoding="utf-8"?>
<!-- Generator: Adobe Illustrator 24.0.2, SVG Export Plug-In . SVG Version: 6.00 Build 0)  -->
<svg version="1.1" id="Layer_1" xmlns="http://www.w3.org/2000/svg" xmlns:xlink="http://www.w3.org/1999/xlink" x="0px" y="0px"
	 viewBox="0 0 101.4 97.3" style="enable-background:new 0 0 101.4 97.3;" xml:space="preserve">
<style type="text/css">
	.st0{fill:#FFFFFF;}
	.st1{fill:#9696CC;}
	.st2{fill:#DCDCDC;}
	.st3{fill:#51A4FF;}
</style>
<g>
	<circle class="st0" cx="47.7" cy="49.6" r="47.7"/>
	<path class="st0" d="M17.7,10v76.7c1.5,1.2,3,2.3,4.6,3.3h50.7c1.6-1,3.2-2.1,4.6-3.3V10H17.7z"/>
	<rect x="23.8" y="76.3" class="st1" width="47.8" height="8.7"/>
	<rect x="23.8" y="61.3" class="st1" width="47.8" height="8.7"/>
	<rect x="23.8" y="46.3" class="st1" width="21.5" height="8.7"/>
	<rect x="23.8" y="31.3" class="st1" width="24" height="8.7"/>
	<rect x="23.8" y="16.3" class="st1" width="36.8" height="8.7"/>
	<path class="st2" d="M47.7,97.3c9.3,0,18-2.7,25.4-7.3H22.4C29.7,94.6,38.4,97.3,47.7,97.3z"/>
	<path class="st2" d="M77.7,0h-60c-5.5,0-10,4.5-10,10v65.6c2.7,4.2,6.1,7.9,10,11.1V10h60v76.7c3.9-3.1,7.3-6.9,10-11.1V10
		C87.7,4.5,83.3,0,77.7,0z"/>
	<g>
		<path class="st3" d="M100.5,10.3l-6.8-6.8c-1.1-1.1-3-1.1-4.1,0l-5.3,5.3l10.9,10.9l5.3-5.3C101.7,13.3,101.7,11.4,100.5,10.3z"/>
		<path class="st3" d="M89.1,25.8l3-3L81.2,11.9l-1.9,1.9C83.2,17.2,86.5,21.2,89.1,25.8z"/>
		<path class="st3" d="M49,55h10.9l29.2-29.2c-2.6-4.5-5.9-8.6-9.8-12L49,44.1V55z"/>
	</g>
</g>
</svg>
