<?xml version="1.0" encoding="utf-8"?>
<!-- Generator: Adobe Illustrator 24.1.1, SVG Export Plug-In . SVG Version: 6.00 Build 0)  -->
<svg version="1.1" id="Layer_1" xmlns="http://www.w3.org/2000/svg" xmlns:xlink="http://www.w3.org/1999/xlink" x="0px" y="0px"
	 viewBox="0 0 325 100" style="enable-background:new 0 0 325 100;" xml:space="preserve">
<style type="text/css">
	.st0{fill:#4A555C;}
	.st1{fill:#D20000;}
</style>
<g>
	<path class="st0" d="M321.9,93.2v-1.5l-1.3,0.7c-1.2,0.6-2.3,0.9-3.4,0.9c-1.1,0-2-0.3-2.8-1c-0.7-0.7-1.1-1.5-1.1-2.6
		c0-1.3,0.4-2.2,1.3-2.9c0.9-0.7,2-1,3.4-1h3.8v-0.8c0-1.6-0.9-2.5-2.6-2.5c-1.8,0-2.8,0.7-2.8,2.2h-2.9v-0.2c0-1.4,0.5-2.5,1.5-3.3
		c1-0.8,2.4-1.2,4.1-1.2c1.7,0,3.1,0.4,4.1,1.3c1,0.8,1.4,2,1.4,3.5v8.2H321.9z M321.9,88h-3.4c-1.5,0-2.2,0.6-2.2,1.7
		c0,0.5,0.1,0.8,0.4,1.1c0.3,0.3,0.6,0.4,1.1,0.4c0.7,0,1.4-0.2,2.2-0.6l1.8-1V88z"/>
	<path class="st0" d="M302.3,88.6c-0.6,0-0.9,0.3-0.9,0.8c0,0.5,0.3,0.8,0.8,0.8h4.9c3.1,0,4.6,1.2,4.6,3.5c0,1.3-0.5,2.3-1.6,3
		c-1.1,0.7-2.5,1.1-4.3,1.1c-3.8,0-5.7-1.6-5.7-4.9v-1.3c-0.8-0.4-1.3-1.1-1.3-2.3c0-0.7,0.2-1.2,0.5-1.6c0.3-0.4,0.7-0.7,1.2-0.8
		c-0.1,0-0.1-0.1-0.3-0.2c-0.1-0.1-0.2-0.4-0.4-0.8c-0.2-0.4-0.3-0.9-0.3-1.4c0-1.3,0.4-2.3,1.3-3c0.8-0.7,2-1.1,3.4-1.1h7.4v2.5
		h-1.8c0.4,0.3,0.6,0.9,0.6,1.7c0,1.2-0.4,2.2-1.2,2.9c-0.8,0.7-2,1.1-3.4,1.1H302.3z M305.7,86.5c1.6,0,2.4-0.6,2.4-1.9
		c0-1.2-0.7-1.9-2.2-1.9h-1.1c-0.7,0-1.3,0.1-1.7,0.4c-0.4,0.3-0.6,0.8-0.6,1.5c0,1.2,0.7,1.8,2.2,1.8H305.7z M302.9,92.4V93
		c0,0.9,0.2,1.6,0.7,2c0.5,0.4,1.2,0.7,2.4,0.7c2.1,0,3.1-0.6,3.1-1.8c0-1-0.7-1.4-2.2-1.4H302.9z"/>
	<path class="st0" d="M293.8,93.2v-8.4c0-0.5-0.1-1-0.4-1.3c-0.3-0.4-0.7-0.5-1.3-0.5c-0.5,0-1,0.2-1.7,0.6l-1.9,1.1v8.6h-2.9V80.5
		h2.9V82l1.4-0.8c0.8-0.5,1.8-0.8,2.8-0.8c1.2,0,2.2,0.4,2.9,1.1c0.7,0.8,1.1,1.8,1.1,3v8.8H293.8z"/>
	<rect x="279.6" y="80.5" class="st0" width="3" height="12.8"/>
	<path class="st0" d="M282.7,77c0,0.4-0.2,0.8-0.5,1c-0.3,0.2-0.7,0.4-1.2,0.4c-0.5,0-0.9-0.1-1.2-0.4c-0.3-0.2-0.5-0.6-0.5-1v-0.5
		c0-0.5,0.2-0.8,0.5-1c0.3-0.2,0.7-0.4,1.2-0.4c0.5,0,0.9,0.1,1.2,0.4s0.5,0.6,0.5,1V77z"/>
	<path class="st0" d="M275.5,93.2c-1.5,0-2.7-0.4-3.6-1.1c-0.9-0.8-1.3-1.8-1.3-3.3V83h-1.9v-2.5h1.9V77h3v3.5h3.5V83h-3.5v5.7
		c0,0.7,0.2,1.2,0.5,1.6c0.3,0.3,0.9,0.5,1.6,0.5h1.5v2.5H275.5z"/>
	<rect x="263.6" y="80.5" class="st0" width="3" height="12.8"/>
	<path class="st0" d="M266.7,77c0,0.4-0.2,0.8-0.5,1c-0.3,0.2-0.7,0.4-1.2,0.4c-0.5,0-0.9-0.1-1.2-0.4c-0.3-0.2-0.5-0.6-0.5-1v-0.5
		c0-0.5,0.2-0.8,0.5-1c0.3-0.2,0.7-0.4,1.2-0.4c0.5,0,0.9,0.1,1.2,0.4s0.5,0.6,0.5,1V77z"/>
	<path class="st0" d="M254.2,93.2V80.5h2.9v1.8l0.6-0.6c1-0.9,2-1.4,3.2-1.4h0.8v3h-0.7c-1,0-1.9,0.3-2.7,0.9l-1,0.8v8.2H254.2z"/>
	<path class="st0" d="M248.4,93.2v-1.5l-1.3,0.7c-1.2,0.6-2.3,0.9-3.4,0.9c-1.1,0-2-0.3-2.8-1c-0.7-0.7-1.1-1.5-1.1-2.6
		c0-1.3,0.4-2.2,1.3-2.9c0.9-0.7,2-1,3.4-1h3.8v-0.8c0-1.6-0.9-2.5-2.6-2.5c-1.8,0-2.8,0.7-2.8,2.2h-2.9v-0.2c0-1.4,0.5-2.5,1.5-3.3
		c1-0.8,2.4-1.2,4.1-1.2c1.7,0,3.1,0.4,4.1,1.3c1,0.8,1.4,2,1.4,3.5v8.2H248.4z M248.4,88H245c-1.5,0-2.2,0.6-2.2,1.7
		c0,0.5,0.1,0.8,0.4,1.1c0.3,0.3,0.6,0.4,1.1,0.4c0.7,0,1.4-0.2,2.2-0.6l1.8-1V88z"/>
	<path class="st0" d="M234.4,93.2v-1.5l-1.4,0.8c-0.9,0.6-1.8,0.8-2.8,0.8c-1.2,0-2.2-0.4-2.9-1.1c-0.7-0.8-1.1-1.8-1.1-3v-8.8h3
		v8.4c0,0.6,0.2,1,0.5,1.4c0.3,0.3,0.7,0.5,1.2,0.5c0.5,0,1-0.2,1.7-0.6l1.9-1.1v-8.6h2.9v12.8H234.4z"/>
	<path class="st0" d="M220.4,97.7v-5.9l-1.5,0.8c-0.9,0.5-1.9,0.8-2.9,0.8c-1.3,0-2.4-0.4-3.2-1.2c-0.8-0.8-1.2-1.9-1.2-3.2v-4.3
		c0-1.3,0.4-2.4,1.2-3.2c0.8-0.8,1.9-1.2,3.2-1.2c0.9,0,1.9,0.3,2.8,0.8l1.5,0.8v-1.4h2.9v17.2H220.4z M220.4,84.6l-2-1.1
		c-0.6-0.3-1.2-0.5-1.8-0.5c-0.6,0-1.1,0.2-1.5,0.6c-0.4,0.4-0.5,0.9-0.5,1.5v3.6c0,0.6,0.2,1.1,0.5,1.5c0.4,0.4,0.9,0.6,1.5,0.6
		c0.6,0,1.2-0.2,1.8-0.5l2-1.1V84.6z"/>
	<path class="st0" d="M206.1,93.2v-1.5l-1.3,0.7c-1.2,0.6-2.3,0.9-3.4,0.9c-1.1,0-2-0.3-2.8-1c-0.7-0.7-1.1-1.5-1.1-2.6
		c0-1.3,0.4-2.2,1.3-2.9c0.9-0.7,2-1,3.4-1h3.8v-0.8c0-1.6-0.9-2.5-2.6-2.5c-1.8,0-2.8,0.7-2.8,2.2h-2.9v-0.2c0-1.4,0.5-2.5,1.5-3.3
		c1-0.8,2.4-1.2,4.1-1.2c1.7,0,3.1,0.4,4.1,1.3c1,0.8,1.4,2,1.4,3.5v8.2H206.1z M206.1,88h-3.4c-1.5,0-2.2,0.6-2.2,1.7
		c0,0.5,0.1,0.8,0.4,1.1c0.3,0.3,0.6,0.4,1.1,0.4c0.7,0,1.4-0.2,2.2-0.6l1.8-1V88z"/>
	<polygon class="st0" points="189.4,93.2 189.4,78 184.3,78 184.3,75.2 197.8,75.2 197.8,78 192.8,78 192.8,93.2 	"/>
	<path class="st0" d="M175.3,88.6c0,1.6-0.5,2.8-1.5,3.6c-1,0.8-2.3,1.3-4,1.3c-1.7,0-3-0.4-4-1.3c-1-0.9-1.5-2.1-1.5-3.7v-3.2
		c0-1.6,0.5-2.8,1.5-3.7c1-0.9,2.3-1.3,4-1.3c1.7,0,3,0.4,4,1.3c1,0.8,1.5,2.1,1.5,3.6v0.2h-2.8c0-1.7-0.9-2.6-2.7-2.6
		c-1.8,0-2.6,0.9-2.6,2.7v2.7c0,1.8,0.9,2.7,2.6,2.7c1.8,0,2.7-0.8,2.7-2.5h2.8V88.6z"/>
	<path class="st0" d="M161.7,89.2c0,1.3-0.5,2.3-1.5,3.1c-1,0.8-2.4,1.2-4.1,1.2c-1.7,0-3-0.4-4.1-1.3c-1-0.9-1.6-2.1-1.6-3.6v-3
		c0-1.6,0.5-2.9,1.6-3.8c1.1-0.9,2.4-1.4,4.1-1.4c1.7,0,3.1,0.5,4.1,1.4c1,0.9,1.5,2.2,1.5,3.9v2.3h-8.5v0.6c0,0.9,0.3,1.5,0.8,2
		c0.5,0.4,1.2,0.7,2.1,0.7c1.8,0,2.8-0.7,2.8-2h2.8V89.2z M159,85.5c0-0.9-0.3-1.6-0.8-2.1c-0.5-0.5-1.2-0.7-2.1-0.7
		c-0.9,0-1.6,0.2-2.1,0.7s-0.8,1.2-0.8,2.1v0.3h5.7V85.5z"/>
	<path class="st0" d="M147.2,93.2c-1.5,0-2.7-0.4-3.6-1.1c-0.9-0.8-1.3-1.8-1.3-3.3V83h-1.9v-2.5h1.9V77h3v3.5h3.5V83h-3.5v5.7
		c0,0.7,0.2,1.2,0.5,1.6c0.3,0.3,0.9,0.5,1.6,0.5h1.5v2.5H147.2z"/>
	<path class="st0" d="M135.8,93.2v-1.5l-1.3,0.7c-1.2,0.6-2.3,0.9-3.4,0.9c-1.1,0-2-0.3-2.8-1c-0.7-0.7-1.1-1.5-1.1-2.6
		c0-1.3,0.4-2.2,1.3-2.9c0.9-0.7,2-1,3.4-1h3.8v-0.8c0-1.6-0.9-2.5-2.6-2.5c-1.8,0-2.8,0.7-2.8,2.2h-2.9v-0.2c0-1.4,0.5-2.5,1.5-3.3
		c1-0.8,2.4-1.2,4.1-1.2c1.7,0,3.1,0.4,4.1,1.3c1,0.8,1.4,2,1.4,3.5v8.2H135.8z M135.8,88h-3.4c-1.5,0-2.2,0.6-2.2,1.7
		c0,0.5,0.1,0.8,0.4,1.1c0.3,0.3,0.6,0.4,1.1,0.4c0.7,0,1.4-0.2,2.2-0.6l1.8-1V88z"/>
	<polygon class="st0" points="117.5,85.8 117.5,93.2 114.3,93.2 114.3,75.2 126,75.2 126,78.1 117.5,78.1 117.5,82.9 125.3,82.9 
		125.3,85.8 	"/>
</g>
<g>
	<rect x="267.5" y="36.4" class="st1" width="4.5" height="27.1"/>
	<path class="st1" d="M258.8,63.5v-2.2l-2,1.1c-1.7,0.9-3.4,1.4-5.1,1.4c-1.7,0-3.1-0.5-4.1-1.5c-1.1-1-1.6-2.3-1.6-3.9
		c0-1.9,0.7-3.4,2-4.4c1.3-1,3-1.5,5.1-1.5h5.7v-1.1c0-2.4-1.3-3.7-3.9-3.7c-2.8,0-4.1,1.1-4.1,3.3h-4.3v-0.3c0-2.1,0.8-3.8,2.3-5
		c1.5-1.2,3.6-1.8,6.1-1.8c2.6,0,4.7,0.6,6.1,1.9s2.2,3,2.2,5.3v12.3H258.8z M258.8,55.5h-5.1c-2.2,0-3.3,0.8-3.3,2.5
		c0,0.7,0.2,1.2,0.6,1.6c0.4,0.4,1,0.6,1.7,0.6c1,0,2.1-0.3,3.3-0.9l2.8-1.5V55.5z"/>
	<rect x="237.6" y="44.3" class="st1" width="4.5" height="19.2"/>
	<path class="st1" d="M242.4,39.1c0,0.7-0.2,1.2-0.7,1.5c-0.5,0.4-1.1,0.5-1.8,0.5c-0.7,0-1.3-0.2-1.8-0.5c-0.5-0.4-0.7-0.9-0.7-1.5
		v-0.8c0-0.7,0.2-1.2,0.7-1.6c0.5-0.4,1.1-0.5,1.8-0.5c0.8,0,1.4,0.2,1.8,0.5c0.5,0.4,0.7,0.9,0.7,1.6V39.1z"/>
	<path class="st1" d="M223.6,63.5V44.3h4.4V47l0.8-0.8c1.4-1.4,3-2,4.7-2h1.1v4.5h-1.1c-1.6,0-2.9,0.4-4,1.3l-1.5,1.2v12.3H223.6z"
		/>
	<path class="st1" d="M217.5,63.5c-2.3,0-4.1-0.6-5.4-1.7c-1.3-1.1-1.9-2.8-1.9-4.9v-8.8h-2.9v-3.7h2.9v-5.2h4.5v5.2h5.3v3.7h-5.3
		v8.6c0,1.1,0.3,1.9,0.8,2.3c0.5,0.5,1.3,0.7,2.4,0.7h2.3v3.8H217.5z"/>
	<path class="st1" d="M200.5,50.5c0-2-1.3-3-3.9-3c-1.2,0-2.1,0.2-2.8,0.7s-1,1-1,1.7c0,0.8,0.4,1.4,1.2,1.7c0.8,0.4,1.8,0.6,3,0.7
		c1.2,0.1,2.4,0.3,3.5,0.5c1.2,0.2,2.2,0.7,3,1.5c0.8,0.8,1.2,1.9,1.2,3.4c0,1.9-0.7,3.3-2.2,4.4c-1.5,1.1-3.5,1.6-6.1,1.6
		c-2.6,0-4.7-0.6-6.2-1.7c-1.5-1.1-2.2-2.6-2.2-4.6v-0.2h4.4c0,2,1.3,3,4,3c1.2,0,2.2-0.2,2.9-0.7c0.7-0.4,1-1,1-1.7
		c0-0.6-0.3-1.1-0.9-1.4c-0.6-0.3-1.3-0.5-2.2-0.6c-0.9-0.1-1.9-0.2-2.9-0.4c-1-0.2-2-0.4-2.9-0.7c-0.9-0.3-1.6-0.9-2.2-1.7
		c-0.6-0.8-0.9-1.8-0.9-3.1c0-1.9,0.7-3.3,2.2-4.4c1.5-1.1,3.4-1.6,6-1.6c2.6,0,4.6,0.6,6,1.7s2.1,2.7,2.1,4.6v0.2H200.5z"/>
	<path class="st1" d="M180,63.5v-2.2l-2,1.2c-1.3,0.8-2.8,1.2-4.3,1.2c-1.9,0-3.3-0.6-4.4-1.7c-1.1-1.1-1.6-2.6-1.6-4.5V44.3h4.4
		v12.6c0,0.8,0.2,1.5,0.7,2c0.5,0.5,1.1,0.8,1.9,0.8c0.7,0,1.6-0.3,2.5-0.8l2.8-1.6v-13h4.4v19.2H180z"/>
	<path class="st1" d="M158.9,63.5v-2.1l-2.2,1.2c-1.3,0.8-2.8,1.1-4.3,1.1c-2,0-3.6-0.6-4.8-1.8c-1.2-1.2-1.8-2.8-1.8-4.7v-6.4
		c0-1.9,0.6-3.5,1.9-4.8c1.2-1.2,2.8-1.9,4.8-1.9c1.5,0,2.9,0.4,4.2,1.1l2.2,1.2v-10h4.3v27.1H158.9z M158.8,50.5l-3.1-1.7
		c-0.9-0.5-1.8-0.7-2.7-0.7c-0.9,0-1.7,0.3-2.2,0.9c-0.5,0.6-0.8,1.3-0.8,2.3v5.5c0,1,0.3,1.7,0.8,2.3c0.5,0.6,1.3,0.9,2.2,0.9
		c0.8,0,1.7-0.3,2.7-0.8l3.1-1.7V50.5z"/>
	<path class="st1" d="M137.3,63.5V50.9c0-0.8-0.2-1.5-0.7-2c-0.4-0.5-1.1-0.8-1.9-0.8c-0.7,0-1.6,0.3-2.5,0.8l-2.8,1.7v12.9H125
		V44.3h4.4v2.3l2-1.2c1.3-0.8,2.7-1.2,4.3-1.2c1.9,0,3.3,0.6,4.4,1.7c1.1,1.1,1.6,2.6,1.6,4.5v13.2H137.3z"/>
	<rect x="115.2" y="36.4" class="st1" width="5" height="27.1"/>
	<path class="st1" d="M274.2,21.9c0,2.4-0.8,4.3-2.4,5.7c-1.6,1.4-3.7,2.1-6.3,2.1c-2.6,0-4.7-0.7-6.3-2.1c-1.6-1.4-2.4-3.3-2.4-5.7
		v-4.2c0-2.4,0.8-4.3,2.4-5.7c1.6-1.4,3.7-2.1,6.3-2.1c2.6,0,4.7,0.7,6.3,2.1c1.6,1.4,2.4,3.3,2.4,5.7V21.9z M270,18.1
		c0-1.4-0.4-2.5-1.2-3.3c-0.8-0.8-1.9-1.2-3.2-1.2c-1.3,0-2.4,0.4-3.2,1.2c-0.8,0.8-1.2,1.9-1.2,3.3v3.3c0,1.4,0.4,2.5,1.2,3.3
		c0.8,0.8,1.9,1.2,3.2,1.2c1.3,0,2.4-0.4,3.2-1.2c0.8-0.8,1.2-1.9,1.2-3.3V18.1z"/>
	<path class="st1" d="M248.6,29.3v-2.2l-2,1.1c-1.7,0.9-3.4,1.4-5.1,1.4c-1.7,0-3.1-0.5-4.1-1.5c-1.1-1-1.6-2.3-1.6-3.9
		c0-1.9,0.7-3.4,2-4.4c1.3-1,3-1.5,5.1-1.5h5.7v-1.1c0-2.4-1.3-3.7-3.9-3.7c-2.8,0-4.1,1.1-4.1,3.3h-4.3v-0.3c0-2.1,0.8-3.8,2.3-5
		s3.6-1.8,6.1-1.8c2.6,0,4.7,0.6,6.1,1.9c1.4,1.3,2.2,3,2.2,5.3v12.3H248.6z M248.6,21.4h-5.1c-2.2,0-3.3,0.8-3.3,2.5
		c0,0.7,0.2,1.2,0.6,1.6c0.4,0.4,1,0.6,1.7,0.6c1,0,2.1-0.3,3.3-0.9l2.8-1.5V21.4z"/>
	<path class="st1" d="M252.4,2.5c0,1.6-0.4,2.8-1.2,3.8c-0.8,1-1.9,1.4-3.3,1.4c-0.8,0-1.6-0.2-2.2-0.6c-0.7-0.4-1.2-0.7-1.7-1.1
		c-0.5-0.4-1-0.5-1.4-0.5c-1,0-1.5,0.7-1.5,2.1h-3.5V7.3c0-1.5,0.4-2.8,1.2-3.7c0.8-1,1.9-1.4,3.3-1.4c0.8,0,1.6,0.2,2.2,0.5
		c0.6,0.4,1.2,0.7,1.7,1.1c0.5,0.4,1,0.5,1.4,0.5c1,0,1.5-0.7,1.5-2.1h3.5V2.5z"/>
	<path class="st1" d="M221.5,32.3l1.5-2.7c-2.2-0.2-3.9-0.9-5.2-2.2s-1.9-3-1.9-5.2v-4.8c0-2.4,0.8-4.2,2.3-5.5s3.5-2,6-2
		c2.5,0,4.6,0.6,6.1,1.9c1.5,1.3,2.2,3.1,2.2,5.4v0.3h-4.3c0-2.6-1.3-3.9-4-3.9c-2.6,0-4,1.4-4,4.1v4c0,2.7,1.3,4.1,4,4.1
		c2.7,0,4-1.3,4-3.8h4.3v0.3c0,2.1-0.6,3.8-1.8,5c-1.2,1.2-2.9,2-5,2.2l-0.7,1.2c0.9,0,1.7,0.2,2.2,0.6c0.5,0.4,0.8,1,0.8,1.8
		c0,0.9-0.4,1.7-1.1,2.3c-0.7,0.6-1.7,0.9-3.1,0.9c-1.3,0-2.3-0.3-3-0.8c-0.7-0.5-1-1.2-1-2.1v-0.1h2.7c0,0.6,0.4,0.9,1.3,0.9
		c0.9,0,1.3-0.3,1.3-1c0-0.7-0.6-1-1.9-1H221.5z"/>
	<path class="st1" d="M207.4,29.3v-2.2l-2,1.2c-1.3,0.8-2.8,1.2-4.3,1.2c-1.9,0-3.3-0.6-4.4-1.7c-1.1-1.1-1.6-2.6-1.6-4.5V10.1h4.4
		v12.6c0,0.8,0.2,1.5,0.7,2c0.5,0.5,1.1,0.8,1.9,0.8c0.7,0,1.6-0.3,2.5-0.8l2.8-1.6v-13h4.4v19.2H207.4z"/>
	<path class="st1" d="M186.3,29.3v-2.1l-2.2,1.2c-1.3,0.8-2.8,1.1-4.3,1.1c-2,0-3.6-0.6-4.8-1.8c-1.2-1.2-1.8-2.8-1.8-4.7v-6.4
		c0-1.9,0.6-3.5,1.9-4.8c1.2-1.2,2.8-1.9,4.8-1.9c1.5,0,2.9,0.4,4.2,1.1l2.2,1.2v-10h4.3v27.1H186.3z M186.3,16.3l-3.1-1.7
		c-0.9-0.5-1.8-0.7-2.7-0.7c-0.9,0-1.7,0.3-2.2,0.9c-0.5,0.6-0.8,1.3-0.8,2.3v5.5c0,1,0.3,1.7,0.8,2.3c0.5,0.6,1.3,0.9,2.2,0.9
		c0.8,0,1.7-0.3,2.7-0.8l3.1-1.7V16.3z"/>
	<path class="st1" d="M169.4,21.9c0,2.4-0.8,4.3-2.4,5.7c-1.6,1.4-3.7,2.1-6.3,2.1c-2.6,0-4.7-0.7-6.3-2.1c-1.6-1.4-2.4-3.3-2.4-5.7
		v-4.2c0-2.4,0.8-4.3,2.4-5.7c1.6-1.4,3.7-2.1,6.3-2.1c2.6,0,4.7,0.7,6.3,2.1c1.6,1.4,2.4,3.3,2.4,5.7V21.9z M165.2,18.1
		c0-1.4-0.4-2.5-1.2-3.3c-0.8-0.8-1.9-1.2-3.2-1.2c-1.3,0-2.4,0.4-3.2,1.2c-0.8,0.8-1.2,1.9-1.2,3.3v3.3c0,1.4,0.4,2.5,1.2,3.3
		c0.8,0.8,1.9,1.2,3.2,1.2c1.3,0,2.4-0.4,3.2-1.2c0.8-0.8,1.2-1.9,1.2-3.3V18.1z"/>
	<path class="st1" d="M138.6,29.3V10.1h4.4v2.7l0.8-0.8c1.4-1.4,3-2,4.7-2h1.1v4.5h-1.1c-1.6,0-2.9,0.4-4,1.3l-1.5,1.2v12.3H138.6z"
		/>
	<path class="st1" d="M115.2,29.3V2.2h11.4c2.5,0,4.5,0.7,6.1,2.2c1.6,1.5,2.4,3.5,2.4,6.2c0,2.6-0.9,4.7-2.6,6.2s-3.8,2.3-6.1,2.3
		H120v10.2H115.2z M126,14.9c1.3,0,2.3-0.4,3.1-1.2c0.8-0.8,1.2-1.8,1.2-3.2c0-1.3-0.4-2.4-1.1-3.1c-0.7-0.7-1.7-1.1-3-1.1H120v8.5
		H126z"/>
</g>
<g>
	<path class="st1" d="M100,76.9v-7.7H76.9V53.8h-7.7L46.2,34.6v16.5l3.8,2.7h-3.8L23.1,34.6v16.5l3.8,2.7h-3.8L0,34.6V100h100v-7.7
		H76.9v-3.8H100v-7.7H76.9v-3.8H100z M23.1,90.4c0,1.1-0.9,1.9-1.9,1.9H9.6c-1.1,0-1.9-0.9-1.9-1.9v-7.7c0-1.1,0.9-1.9,1.9-1.9h11.5
		c1.1,0,1.9,0.9,1.9,1.9V90.4z M23.1,71.2c0,1.1-0.9,1.9-1.9,1.9H9.6c-1.1,0-1.9-0.9-1.9-1.9v-7.7c0-1.1,0.9-1.9,1.9-1.9h11.5
		c1.1,0,1.9,0.9,1.9,1.9V71.2z M46.2,90.4c0,1.1-0.9,1.9-1.9,1.9H32.7c-1.1,0-1.9-0.9-1.9-1.9v-7.7c0-1.1,0.9-1.9,1.9-1.9h11.5
		c1.1,0,1.9,0.9,1.9,1.9V90.4z M46.2,71.2c0,1.1-0.9,1.9-1.9,1.9H32.7c-1.1,0-1.9-0.9-1.9-1.9v-7.7c0-1.1,0.9-1.9,1.9-1.9h11.5
		c1.1,0,1.9,0.9,1.9,1.9V71.2z M69.2,90.4c0,1.1-0.9,1.9-1.9,1.9H55.8c-1.1,0-1.9-0.9-1.9-1.9v-7.7c0-1.1,0.9-1.9,1.9-1.9h11.5
		c1.1,0,1.9,0.9,1.9,1.9V90.4z M69.2,71.2c0,1.1-0.9,1.9-1.9,1.9H55.8c-1.1,0-1.9-0.9-1.9-1.9v-7.7c0-1.1,0.9-1.9,1.9-1.9h11.5
		c1.1,0,1.9,0.9,1.9,1.9V71.2z"/>
	<polygon class="st1" points="85.5,11.5 80.8,65.4 100,65.4 95.2,11.5 	"/>
	<polygon class="st1" points="72.3,19.2 69.2,50 80.8,50 77.7,19.2 	"/>
	<polygon class="st1" points="77.3,15.4 76.9,11.5 73.1,11.5 72.7,15.4 	"/>
	<polygon class="st1" points="94.9,7.7 94.2,0 86.5,0 85.9,7.7 	"/>
</g>
</svg>
