<?xml version="1.0" encoding="utf-8"?>
<!-- Generator: Adobe Illustrator 24.1.1, SVG Export Plug-In . SVG Version: 6.00 Build 0)  -->
<svg version="1.1" id="Layer_1" xmlns="http://www.w3.org/2000/svg" xmlns:xlink="http://www.w3.org/1999/xlink" x="0px" y="0px"
	 viewBox="0 0 275 100" style="enable-background:new 0 0 275 100;" xml:space="preserve">
<style type="text/css">
	.st0{fill:#D12026;}
</style>
<g>
	<g>
		<rect x="267.5" y="53.5" class="st0" width="4.5" height="27.1"/>
		<path class="st0" d="M258.8,80.5v-2.2l-2,1.1c-1.7,0.9-3.4,1.4-5.1,1.4c-1.7,0-3.1-0.5-4.1-1.5c-1.1-1-1.6-2.3-1.6-3.9
			c0-1.9,0.7-3.4,2-4.4c1.3-1,3-1.5,5.1-1.5h5.7v-1.1c0-2.4-1.3-3.7-3.9-3.7c-2.8,0-4.1,1.1-4.1,3.3h-4.3v-0.3c0-2.1,0.8-3.8,2.3-5
			c1.5-1.2,3.6-1.8,6.1-1.8c2.6,0,4.7,0.6,6.1,1.9c1.4,1.3,2.2,3,2.2,5.3v12.3H258.8z M258.8,72.6h-5.1c-2.2,0-3.3,0.8-3.3,2.5
			c0,0.7,0.2,1.2,0.6,1.6c0.4,0.4,1,0.6,1.7,0.6c1,0,2.1-0.3,3.3-0.9l2.8-1.5V72.6z"/>
		<rect x="237.6" y="61.4" class="st0" width="4.5" height="19.2"/>
		<path class="st0" d="M242.4,56.2c0,0.7-0.2,1.2-0.7,1.5c-0.5,0.4-1.1,0.5-1.8,0.5c-0.7,0-1.3-0.2-1.8-0.5
			c-0.5-0.4-0.7-0.9-0.7-1.5v-0.8c0-0.7,0.2-1.2,0.7-1.6c0.5-0.4,1.1-0.5,1.8-0.5c0.8,0,1.4,0.2,1.8,0.5c0.5,0.4,0.7,0.9,0.7,1.6
			V56.2z"/>
		<path class="st0" d="M223.6,80.5V61.4h4.4v2.7l0.8-0.8c1.4-1.4,3-2,4.7-2h1.1v4.5h-1.1c-1.6,0-2.9,0.4-4,1.3l-1.5,1.2v12.3H223.6z
			"/>
		<path class="st0" d="M217.5,80.5c-2.3,0-4.1-0.6-5.4-1.7c-1.3-1.1-1.9-2.8-1.9-4.9v-8.8h-2.9v-3.7h2.9v-5.2h4.5v5.2h5.3v3.7h-5.3
			v8.6c0,1.1,0.3,1.9,0.8,2.3c0.5,0.5,1.3,0.7,2.4,0.7h2.3v3.8H217.5z"/>
		<path class="st0" d="M200.5,67.6c0-2-1.3-3-3.9-3c-1.2,0-2.1,0.2-2.8,0.7c-0.7,0.4-1,1-1,1.7c0,0.8,0.4,1.4,1.2,1.7
			c0.8,0.4,1.8,0.6,3,0.7c1.2,0.1,2.4,0.3,3.5,0.5c1.2,0.2,2.2,0.7,3,1.5c0.8,0.8,1.2,1.9,1.2,3.4c0,1.9-0.7,3.3-2.2,4.4
			c-1.5,1.1-3.5,1.6-6.1,1.6c-2.6,0-4.7-0.6-6.2-1.7c-1.5-1.1-2.2-2.6-2.2-4.6v-0.2h4.4c0,2,1.3,3,4,3c1.2,0,2.2-0.2,2.9-0.7
			c0.7-0.4,1-1,1-1.7c0-0.6-0.3-1.1-0.9-1.4c-0.6-0.3-1.3-0.5-2.2-0.6c-0.9-0.1-1.9-0.2-2.9-0.4c-1-0.2-2-0.4-2.9-0.7
			c-0.9-0.3-1.6-0.9-2.2-1.7c-0.6-0.8-0.9-1.8-0.9-3.1c0-1.9,0.7-3.3,2.2-4.4c1.5-1.1,3.4-1.6,6-1.6c2.6,0,4.6,0.6,6,1.7
			c1.4,1.1,2.1,2.7,2.1,4.6v0.2H200.5z"/>
		<path class="st0" d="M180,80.5v-2.2l-2,1.2c-1.3,0.8-2.8,1.2-4.3,1.2c-1.9,0-3.3-0.6-4.4-1.7c-1.1-1.1-1.6-2.6-1.6-4.5V61.4h4.4
			V74c0,0.8,0.2,1.5,0.7,2c0.5,0.5,1.1,0.8,1.9,0.8c0.7,0,1.6-0.3,2.5-0.8l2.8-1.6v-13h4.4v19.2H180z"/>
		<path class="st0" d="M158.9,80.5v-2.1l-2.2,1.2c-1.3,0.8-2.8,1.1-4.3,1.1c-2,0-3.6-0.6-4.8-1.8c-1.2-1.2-1.8-2.8-1.8-4.7v-6.4
			c0-1.9,0.6-3.5,1.9-4.8c1.2-1.2,2.8-1.9,4.8-1.9c1.5,0,2.9,0.4,4.2,1.1l2.2,1.2v-10h4.3v27.1H158.9z M158.8,67.5l-3.1-1.7
			c-0.9-0.5-1.8-0.7-2.7-0.7c-0.9,0-1.7,0.3-2.2,0.9c-0.5,0.6-0.8,1.3-0.8,2.3v5.5c0,1,0.3,1.7,0.8,2.3c0.5,0.6,1.3,0.9,2.2,0.9
			c0.8,0,1.7-0.3,2.7-0.8l3.1-1.7V67.5z"/>
		<path class="st0" d="M137.3,80.5V67.9c0-0.8-0.2-1.5-0.7-2s-1.1-0.8-1.9-0.8c-0.7,0-1.6,0.3-2.5,0.8l-2.8,1.7v12.9H125V61.4h4.4
			v2.3l2-1.2c1.3-0.8,2.7-1.2,4.3-1.2c1.9,0,3.3,0.6,4.4,1.7c1.1,1.1,1.6,2.6,1.6,4.5v13.2H137.3z"/>
		<rect x="115.2" y="53.5" class="st0" width="5" height="27.1"/>
		<path class="st0" d="M274.2,38.9c0,2.4-0.8,4.3-2.4,5.7s-3.7,2.1-6.3,2.1c-2.6,0-4.7-0.7-6.3-2.1s-2.4-3.3-2.4-5.7v-4.2
			c0-2.4,0.8-4.3,2.4-5.7c1.6-1.4,3.7-2.1,6.3-2.1c2.6,0,4.7,0.7,6.3,2.1c1.6,1.4,2.4,3.3,2.4,5.7V38.9z M270,35.2
			c0-1.4-0.4-2.5-1.2-3.3c-0.8-0.8-1.9-1.2-3.2-1.2c-1.3,0-2.4,0.4-3.2,1.2c-0.8,0.8-1.2,1.9-1.2,3.3v3.3c0,1.4,0.4,2.5,1.2,3.3
			c0.8,0.8,1.9,1.2,3.2,1.2c1.3,0,2.4-0.4,3.2-1.2c0.8-0.8,1.2-1.9,1.2-3.3V35.2z"/>
		<path class="st0" d="M248.6,46.4v-2.2l-2,1.1c-1.7,0.9-3.4,1.4-5.1,1.4c-1.7,0-3.1-0.5-4.1-1.5c-1.1-1-1.6-2.3-1.6-3.9
			c0-1.9,0.7-3.4,2-4.4c1.3-1,3-1.5,5.1-1.5h5.7v-1.1c0-2.4-1.3-3.7-3.9-3.7c-2.8,0-4.1,1.1-4.1,3.3h-4.3v-0.3c0-2.1,0.8-3.8,2.3-5
			c1.5-1.2,3.6-1.8,6.1-1.8c2.6,0,4.7,0.6,6.1,1.9c1.4,1.3,2.2,3,2.2,5.3v12.3H248.6z M248.6,38.4h-5.1c-2.2,0-3.3,0.8-3.3,2.5
			c0,0.7,0.2,1.2,0.6,1.6c0.4,0.4,1,0.6,1.7,0.6c1,0,2.1-0.3,3.3-0.9l2.8-1.5V38.4z"/>
		<path class="st0" d="M252.4,19.5c0,1.6-0.4,2.8-1.2,3.8c-0.8,1-1.9,1.4-3.3,1.4c-0.8,0-1.6-0.2-2.2-0.6s-1.2-0.7-1.7-1.1
			c-0.5-0.4-1-0.5-1.4-0.5c-1,0-1.5,0.7-1.5,2.1h-3.5v-0.3c0-1.5,0.4-2.8,1.2-3.7c0.8-1,1.9-1.4,3.3-1.4c0.8,0,1.6,0.2,2.2,0.5
			c0.6,0.4,1.2,0.7,1.7,1.1c0.5,0.4,1,0.5,1.4,0.5c1,0,1.5-0.7,1.5-2.1h3.5V19.5z"/>
		<path class="st0" d="M221.5,49.3l1.5-2.7c-2.2-0.2-3.9-0.9-5.2-2.2s-1.9-3-1.9-5.2v-4.8c0-2.4,0.8-4.2,2.3-5.5s3.5-2,6-2
			c2.5,0,4.6,0.6,6.1,1.9c1.5,1.3,2.2,3.1,2.2,5.4v0.3h-4.3c0-2.6-1.3-3.9-4-3.9c-2.6,0-4,1.4-4,4.1v4c0,2.7,1.3,4.1,4,4.1
			c2.7,0,4-1.3,4-3.8h4.3v0.3c0,2.1-0.6,3.8-1.8,5c-1.2,1.2-2.9,2-5,2.2l-0.7,1.2c0.9,0,1.7,0.2,2.2,0.6c0.5,0.4,0.8,1,0.8,1.8
			c0,0.9-0.4,1.7-1.1,2.3c-0.7,0.6-1.7,0.9-3.1,0.9c-1.3,0-2.3-0.3-3-0.8c-0.7-0.5-1-1.2-1-2.1v-0.1h2.7c0,0.6,0.4,0.9,1.3,0.9
			c0.9,0,1.3-0.3,1.3-1c0-0.7-0.6-1-1.9-1H221.5z"/>
		<path class="st0" d="M207.4,46.4v-2.2l-2,1.2c-1.3,0.8-2.8,1.2-4.3,1.2c-1.9,0-3.3-0.6-4.4-1.7c-1.1-1.1-1.6-2.6-1.6-4.5V27.2h4.4
			v12.6c0,0.8,0.2,1.5,0.7,2c0.5,0.5,1.1,0.8,1.9,0.8c0.7,0,1.6-0.3,2.5-0.8l2.8-1.6v-13h4.4v19.2H207.4z"/>
		<path class="st0" d="M186.3,46.4v-2.1l-2.2,1.2c-1.3,0.8-2.8,1.1-4.3,1.1c-2,0-3.6-0.6-4.8-1.8c-1.2-1.2-1.8-2.8-1.8-4.7v-6.4
			c0-1.9,0.6-3.5,1.9-4.8c1.2-1.2,2.8-1.9,4.8-1.9c1.5,0,2.9,0.4,4.2,1.1l2.2,1.2v-10h4.3v27.1H186.3z M186.3,33.4l-3.1-1.7
			c-0.9-0.5-1.8-0.7-2.7-0.7c-0.9,0-1.7,0.3-2.2,0.9c-0.5,0.6-0.8,1.3-0.8,2.3v5.5c0,1,0.3,1.7,0.8,2.3c0.5,0.6,1.3,0.9,2.2,0.9
			c0.8,0,1.7-0.3,2.7-0.8l3.1-1.7V33.4z"/>
		<path class="st0" d="M169.4,38.9c0,2.4-0.8,4.3-2.4,5.7c-1.6,1.4-3.7,2.1-6.3,2.1c-2.6,0-4.7-0.7-6.3-2.1s-2.4-3.3-2.4-5.7v-4.2
			c0-2.4,0.8-4.3,2.4-5.7c1.6-1.4,3.7-2.1,6.3-2.1c2.6,0,4.7,0.7,6.3,2.1c1.6,1.4,2.4,3.3,2.4,5.7V38.9z M165.2,35.2
			c0-1.4-0.4-2.5-1.2-3.3c-0.8-0.8-1.9-1.2-3.2-1.2c-1.3,0-2.4,0.4-3.2,1.2c-0.8,0.8-1.2,1.9-1.2,3.3v3.3c0,1.4,0.4,2.5,1.2,3.3
			c0.8,0.8,1.9,1.2,3.2,1.2c1.3,0,2.4-0.4,3.2-1.2c0.8-0.8,1.2-1.9,1.2-3.3V35.2z"/>
		<path class="st0" d="M138.6,46.4V27.2h4.4v2.7l0.8-0.8c1.4-1.4,3-2,4.7-2h1.1v4.5h-1.1c-1.6,0-2.9,0.4-4,1.3l-1.5,1.2v12.3H138.6z
			"/>
		<path class="st0" d="M115.2,46.4V19.3h11.4c2.5,0,4.5,0.7,6.1,2.2c1.6,1.5,2.4,3.5,2.4,6.2c0,2.6-0.9,4.7-2.6,6.2
			c-1.7,1.5-3.8,2.3-6.1,2.3H120v10.2H115.2z M126,32c1.3,0,2.3-0.4,3.1-1.2c0.8-0.8,1.2-1.8,1.2-3.2c0-1.3-0.4-2.4-1.1-3.1
			c-0.7-0.7-1.7-1.1-3-1.1H120V32H126z"/>
	</g>
	<g>
		<path class="st0" d="M100,76.9v-7.7H76.9V53.8h-7.7L46.2,34.6v16.5l3.8,2.7h-3.8L23.1,34.6v16.5l3.8,2.7h-3.8L0,34.6V100h100v-7.7
			H76.9v-3.8H100v-7.7H76.9v-3.8H100z M23.1,90.4c0,1.1-0.9,1.9-1.9,1.9H9.6c-1.1,0-1.9-0.9-1.9-1.9v-7.7c0-1.1,0.9-1.9,1.9-1.9
			h11.5c1.1,0,1.9,0.9,1.9,1.9V90.4z M23.1,71.2c0,1.1-0.9,1.9-1.9,1.9H9.6c-1.1,0-1.9-0.9-1.9-1.9v-7.7c0-1.1,0.9-1.9,1.9-1.9h11.5
			c1.1,0,1.9,0.9,1.9,1.9V71.2z M46.2,90.4c0,1.1-0.9,1.9-1.9,1.9H32.7c-1.1,0-1.9-0.9-1.9-1.9v-7.7c0-1.1,0.9-1.9,1.9-1.9h11.5
			c1.1,0,1.9,0.9,1.9,1.9V90.4z M46.2,71.2c0,1.1-0.9,1.9-1.9,1.9H32.7c-1.1,0-1.9-0.9-1.9-1.9v-7.7c0-1.1,0.9-1.9,1.9-1.9h11.5
			c1.1,0,1.9,0.9,1.9,1.9V71.2z M69.2,90.4c0,1.1-0.9,1.9-1.9,1.9H55.8c-1.1,0-1.9-0.9-1.9-1.9v-7.7c0-1.1,0.9-1.9,1.9-1.9h11.5
			c1.1,0,1.9,0.9,1.9,1.9V90.4z M69.2,71.2c0,1.1-0.9,1.9-1.9,1.9H55.8c-1.1,0-1.9-0.9-1.9-1.9v-7.7c0-1.1,0.9-1.9,1.9-1.9h11.5
			c1.1,0,1.9,0.9,1.9,1.9V71.2z"/>
		<polygon class="st0" points="85.5,11.5 80.8,65.4 100,65.4 95.2,11.5 		"/>
		<polygon class="st0" points="72.3,19.2 69.2,50 80.8,50 77.7,19.2 		"/>
		<polygon class="st0" points="77.3,15.4 76.9,11.5 73.1,11.5 72.7,15.4 		"/>
		<polygon class="st0" points="94.9,7.7 94.2,0 86.5,0 85.9,7.7 		"/>
	</g>
</g>
</svg>
