<?xml version="1.0" encoding="utf-8"?>
<!-- Generator: Adobe Illustrator 24.1.1, SVG Export Plug-In . SVG Version: 6.00 Build 0)  -->
<svg version="1.1" id="Layer_1" xmlns="http://www.w3.org/2000/svg" xmlns:xlink="http://www.w3.org/1999/xlink" x="0px" y="0px"
	 viewBox="0 0 328 100" style="enable-background:new 0 0 328 100;" xml:space="preserve">
<style type="text/css">
	.st0{fill:#4A555C;}
	.st1{fill:#6EB41E;}
	.st2{fill:#A5C800;}
</style>
<g>
	<path class="st0" d="M321.9,76.2v-1.5l-1.3,0.7c-1.2,0.6-2.3,0.9-3.4,0.9c-1.1,0-2-0.3-2.8-1c-0.7-0.7-1.1-1.5-1.1-2.6
		c0-1.3,0.4-2.2,1.3-2.9c0.9-0.7,2-1,3.4-1h3.8v-0.8c0-1.6-0.9-2.5-2.6-2.5c-1.8,0-2.8,0.7-2.8,2.2h-2.9v-0.2c0-1.4,0.5-2.5,1.5-3.3
		c1-0.8,2.4-1.2,4.1-1.2c1.7,0,3.1,0.4,4.1,1.3c1,0.8,1.4,2,1.4,3.5v8.2H321.9z M321.9,70.9h-3.4c-1.5,0-2.2,0.6-2.2,1.7
		c0,0.5,0.1,0.8,0.4,1.1c0.3,0.3,0.6,0.4,1.1,0.4c0.7,0,1.4-0.2,2.2-0.6l1.8-1V70.9z"/>
	<path class="st0" d="M302.3,71.6c-0.6,0-0.9,0.3-0.9,0.8c0,0.5,0.3,0.8,0.8,0.8h4.9c3.1,0,4.6,1.2,4.6,3.5c0,1.3-0.5,2.3-1.6,3
		c-1.1,0.7-2.5,1.1-4.3,1.1c-3.8,0-5.7-1.6-5.7-4.9v-1.3c-0.8-0.4-1.3-1.1-1.3-2.3c0-0.7,0.2-1.2,0.5-1.6c0.3-0.4,0.7-0.7,1.2-0.8
		c-0.1,0-0.1-0.1-0.3-0.2c-0.1-0.1-0.2-0.4-0.4-0.8c-0.2-0.4-0.3-0.9-0.3-1.4c0-1.3,0.4-2.3,1.3-3c0.8-0.7,2-1.1,3.4-1.1h7.4v2.5
		h-1.8c0.4,0.3,0.6,0.9,0.6,1.7c0,1.2-0.4,2.2-1.2,2.9c-0.8,0.7-2,1.1-3.4,1.1H302.3z M305.7,69.4c1.6,0,2.4-0.6,2.4-1.9
		c0-1.2-0.7-1.9-2.2-1.9h-1.1c-0.7,0-1.3,0.1-1.7,0.4c-0.4,0.3-0.6,0.8-0.6,1.5c0,1.2,0.7,1.8,2.2,1.8H305.7z M302.9,75.4v0.5
		c0,0.9,0.2,1.6,0.7,2c0.5,0.4,1.2,0.7,2.4,0.7c2.1,0,3.1-0.6,3.1-1.8c0-1-0.7-1.4-2.2-1.4H302.9z"/>
	<path class="st0" d="M293.8,76.2v-8.4c0-0.5-0.1-1-0.4-1.3c-0.3-0.4-0.7-0.5-1.3-0.5c-0.5,0-1,0.2-1.7,0.6l-1.9,1.1v8.6h-2.9V63.4
		h2.9v1.5l1.4-0.8c0.8-0.5,1.8-0.8,2.8-0.8c1.2,0,2.2,0.4,2.9,1.1c0.7,0.8,1.1,1.8,1.1,3v8.8H293.8z"/>
	<rect x="279.6" y="63.4" class="st0" width="3" height="12.8"/>
	<path class="st0" d="M282.7,60c0,0.4-0.2,0.8-0.5,1c-0.3,0.2-0.7,0.4-1.2,0.4c-0.5,0-0.9-0.1-1.2-0.4c-0.3-0.2-0.5-0.6-0.5-1v-0.5
		c0-0.5,0.2-0.8,0.5-1c0.3-0.2,0.7-0.4,1.2-0.4c0.5,0,0.9,0.1,1.2,0.4s0.5,0.6,0.5,1V60z"/>
	<path class="st0" d="M275.5,76.2c-1.5,0-2.7-0.4-3.6-1.1c-0.9-0.8-1.3-1.8-1.3-3.3v-5.9h-1.9v-2.5h1.9v-3.5h3v3.5h3.5v2.5h-3.5v5.7
		c0,0.7,0.2,1.2,0.5,1.6c0.3,0.3,0.9,0.5,1.6,0.5h1.5v2.5H275.5z"/>
	<rect x="263.6" y="63.4" class="st0" width="3" height="12.8"/>
	<path class="st0" d="M266.7,60c0,0.4-0.2,0.8-0.5,1c-0.3,0.2-0.7,0.4-1.2,0.4c-0.5,0-0.9-0.1-1.2-0.4c-0.3-0.2-0.5-0.6-0.5-1v-0.5
		c0-0.5,0.2-0.8,0.5-1c0.3-0.2,0.7-0.4,1.2-0.4c0.5,0,0.9,0.1,1.2,0.4s0.5,0.6,0.5,1V60z"/>
	<path class="st0" d="M254.2,76.2V63.4h2.9v1.8l0.6-0.6c1-0.9,2-1.4,3.2-1.4h0.8v3h-0.7c-1,0-1.9,0.3-2.7,0.9l-1,0.8v8.2H254.2z"/>
	<path class="st0" d="M248.4,76.2v-1.5l-1.3,0.7c-1.2,0.6-2.3,0.9-3.4,0.9c-1.1,0-2-0.3-2.8-1c-0.7-0.7-1.1-1.5-1.1-2.6
		c0-1.3,0.4-2.2,1.3-2.9c0.9-0.7,2-1,3.4-1h3.8v-0.8c0-1.6-0.9-2.5-2.6-2.5c-1.8,0-2.8,0.7-2.8,2.2h-2.9v-0.2c0-1.4,0.5-2.5,1.5-3.3
		c1-0.8,2.4-1.2,4.1-1.2c1.7,0,3.1,0.4,4.1,1.3c1,0.8,1.4,2,1.4,3.5v8.2H248.4z M248.4,70.9H245c-1.5,0-2.2,0.6-2.2,1.7
		c0,0.5,0.1,0.8,0.4,1.1c0.3,0.3,0.6,0.4,1.1,0.4c0.7,0,1.4-0.2,2.2-0.6l1.8-1V70.9z"/>
	<path class="st0" d="M234.4,76.2v-1.5l-1.4,0.8c-0.9,0.6-1.8,0.8-2.8,0.8c-1.2,0-2.2-0.4-2.9-1.1c-0.7-0.8-1.1-1.8-1.1-3v-8.8h3
		v8.4c0,0.6,0.2,1,0.5,1.4c0.3,0.3,0.7,0.5,1.2,0.5c0.5,0,1-0.2,1.7-0.6l1.9-1.1v-8.6h2.9v12.8H234.4z"/>
	<path class="st0" d="M220.4,80.7v-5.9l-1.5,0.8c-0.9,0.5-1.9,0.8-2.9,0.8c-1.3,0-2.4-0.4-3.2-1.2c-0.8-0.8-1.2-1.9-1.2-3.2v-4.3
		c0-1.3,0.4-2.4,1.2-3.2c0.8-0.8,1.9-1.2,3.2-1.2c0.9,0,1.9,0.3,2.8,0.8l1.5,0.8v-1.4h2.9v17.2H220.4z M220.4,67.5l-2-1.1
		c-0.6-0.3-1.2-0.5-1.8-0.5c-0.6,0-1.1,0.2-1.5,0.6c-0.4,0.4-0.5,0.9-0.5,1.5v3.6c0,0.6,0.2,1.1,0.5,1.5c0.4,0.4,0.9,0.6,1.5,0.6
		c0.6,0,1.2-0.2,1.8-0.5l2-1.1V67.5z"/>
	<path class="st0" d="M206.1,76.2v-1.5l-1.3,0.7c-1.2,0.6-2.3,0.9-3.4,0.9c-1.1,0-2-0.3-2.8-1c-0.7-0.7-1.1-1.5-1.1-2.6
		c0-1.3,0.4-2.2,1.3-2.9c0.9-0.7,2-1,3.4-1h3.8v-0.8c0-1.6-0.9-2.5-2.6-2.5c-1.8,0-2.8,0.7-2.8,2.2h-2.9v-0.2c0-1.4,0.5-2.5,1.5-3.3
		c1-0.8,2.4-1.2,4.1-1.2c1.7,0,3.1,0.4,4.1,1.3c1,0.8,1.4,2,1.4,3.5v8.2H206.1z M206.1,70.9h-3.4c-1.5,0-2.2,0.6-2.2,1.7
		c0,0.5,0.1,0.8,0.4,1.1c0.3,0.3,0.6,0.4,1.1,0.4c0.7,0,1.4-0.2,2.2-0.6l1.8-1V70.9z"/>
	<polygon class="st0" points="189.4,76.2 189.4,61 184.3,61 184.3,58.1 197.8,58.1 197.8,61 192.8,61 192.8,76.2 	"/>
	<path class="st0" d="M175.3,71.5c0,1.6-0.5,2.8-1.5,3.6c-1,0.8-2.3,1.3-4,1.3c-1.7,0-3-0.4-4-1.3c-1-0.9-1.5-2.1-1.5-3.7v-3.2
		c0-1.6,0.5-2.8,1.5-3.7c1-0.9,2.3-1.3,4-1.3c1.7,0,3,0.4,4,1.3c1,0.8,1.5,2.1,1.5,3.6v0.2h-2.8c0-1.7-0.9-2.6-2.7-2.6
		c-1.8,0-2.6,0.9-2.6,2.7v2.7c0,1.8,0.9,2.7,2.6,2.7c1.8,0,2.7-0.8,2.7-2.5h2.8V71.5z"/>
	<path class="st0" d="M161.7,72.2c0,1.3-0.5,2.3-1.5,3.1c-1,0.8-2.4,1.2-4.1,1.2c-1.7,0-3-0.4-4.1-1.3c-1-0.9-1.6-2.1-1.6-3.6v-3
		c0-1.6,0.5-2.9,1.6-3.8c1.1-0.9,2.4-1.4,4.1-1.4c1.7,0,3.1,0.5,4.1,1.4c1,0.9,1.5,2.2,1.5,3.9v2.3h-8.5v0.6c0,0.9,0.3,1.5,0.8,2
		c0.5,0.4,1.2,0.7,2.1,0.7c1.8,0,2.8-0.7,2.8-2h2.8V72.2z M159,68.5c0-0.9-0.3-1.6-0.8-2.1c-0.5-0.5-1.2-0.7-2.1-0.7
		c-0.9,0-1.6,0.2-2.1,0.7s-0.8,1.2-0.8,2.1v0.3h5.7V68.5z"/>
	<path class="st0" d="M147.2,76.2c-1.5,0-2.7-0.4-3.6-1.1c-0.9-0.8-1.3-1.8-1.3-3.3v-5.9h-1.9v-2.5h1.9v-3.5h3v3.5h3.5v2.5h-3.5v5.7
		c0,0.7,0.2,1.2,0.5,1.6c0.3,0.3,0.9,0.5,1.6,0.5h1.5v2.5H147.2z"/>
	<path class="st0" d="M135.8,76.2v-1.5l-1.3,0.7c-1.2,0.6-2.3,0.9-3.4,0.9c-1.1,0-2-0.3-2.8-1c-0.7-0.7-1.1-1.5-1.1-2.6
		c0-1.3,0.4-2.2,1.3-2.9c0.9-0.7,2-1,3.4-1h3.8v-0.8c0-1.6-0.9-2.5-2.6-2.5c-1.8,0-2.8,0.7-2.8,2.2h-2.9v-0.2c0-1.4,0.5-2.5,1.5-3.3
		c1-0.8,2.4-1.2,4.1-1.2c1.7,0,3.1,0.4,4.1,1.3c1,0.8,1.4,2,1.4,3.5v8.2H135.8z M135.8,70.9h-3.4c-1.5,0-2.2,0.6-2.2,1.7
		c0,0.5,0.1,0.8,0.4,1.1c0.3,0.3,0.6,0.4,1.1,0.4c0.7,0,1.4-0.2,2.2-0.6l1.8-1V70.9z"/>
	<polygon class="st0" points="117.5,68.7 117.5,76.2 114.3,76.2 114.3,58.1 126,58.1 126,61 117.5,61 117.5,65.9 125.3,65.9 
		125.3,68.7 	"/>
</g>
<g>
	<path class="st1" d="M327.9,39c0,2.4-0.8,4.3-2.4,5.7s-3.7,2.1-6.3,2.1c-2.6,0-4.7-0.7-6.3-2.1s-2.4-3.3-2.4-5.7v-4.2
		c0-2.4,0.8-4.3,2.4-5.7c1.6-1.4,3.7-2.1,6.3-2.1c2.6,0,4.7,0.7,6.3,2.1c1.6,1.4,2.4,3.3,2.4,5.7V39z M323.6,35.3
		c0-1.4-0.4-2.5-1.2-3.3c-0.8-0.8-1.9-1.2-3.2-1.2c-1.3,0-2.4,0.4-3.2,1.2c-0.8,0.8-1.2,1.9-1.2,3.3v3.3c0,1.4,0.4,2.5,1.2,3.3
		c0.8,0.8,1.9,1.2,3.2,1.2c1.3,0,2.4-0.4,3.2-1.2c0.8-0.8,1.2-1.9,1.2-3.3V35.3z"/>
	<rect x="301.8" y="27.3" class="st1" width="4.5" height="19.2"/>
	<path class="st1" d="M306.5,22.1c0,0.7-0.2,1.2-0.7,1.5c-0.5,0.4-1.1,0.5-1.8,0.5c-0.7,0-1.3-0.2-1.8-0.5c-0.5-0.4-0.7-0.9-0.7-1.5
		v-0.8c0-0.7,0.2-1.2,0.7-1.6c0.5-0.4,1.1-0.5,1.8-0.5c0.8,0,1.4,0.2,1.8,0.5c0.5,0.4,0.7,0.9,0.7,1.6V22.1z"/>
	<path class="st1" d="M297.7,39.4c0,2.4-0.7,4.2-2.2,5.4c-1.5,1.3-3.5,1.9-6.1,1.9c-2.5,0-4.5-0.7-6-2s-2.2-3.2-2.2-5.5v-4.8
		c0-2.4,0.8-4.2,2.3-5.5s3.5-2,6-2c2.5,0,4.6,0.6,6.1,1.9c1.5,1.3,2.2,3.1,2.2,5.4v0.3h-4.3c0-2.6-1.3-3.9-4-3.9c-2.6,0-4,1.4-4,4.1
		v4c0,2.7,1.3,4.1,4,4.1c2.7,0,4-1.3,4-3.8h4.3V39.4z"/>
	<path class="st1" d="M277.3,39c0,2.4-0.8,4.3-2.4,5.7s-3.7,2.1-6.3,2.1c-2.6,0-4.7-0.7-6.3-2.1S260,41.4,260,39v-4.2
		c0-2.4,0.8-4.3,2.4-5.7c1.6-1.4,3.7-2.1,6.3-2.1c2.6,0,4.7,0.7,6.3,2.1c1.6,1.4,2.4,3.3,2.4,5.7V39z M273.1,35.3
		c0-1.4-0.4-2.5-1.2-3.3c-0.8-0.8-1.9-1.2-3.2-1.2c-1.3,0-2.4,0.4-3.2,1.2c-0.8,0.8-1.2,1.9-1.2,3.3v3.3c0,1.4,0.4,2.5,1.2,3.3
		c0.8,0.8,1.9,1.2,3.2,1.2c1.3,0,2.4-0.4,3.2-1.2c0.8-0.8,1.2-1.9,1.2-3.3V35.3z"/>
	<polygon class="st1" points="265.3,24.7 269.2,19.4 274.8,19.4 270.1,24.7 	"/>
	<path class="st1" d="M243.1,39.5c-0.9,0-1.3,0.4-1.3,1.3c0,0.8,0.4,1.2,1.2,1.2h7.4c4.6,0,6.9,1.8,6.9,5.3c0,2-0.8,3.5-2.4,4.5
		c-1.6,1.1-3.7,1.6-6.4,1.6c-5.7,0-8.6-2.4-8.6-7.3v-1.9c-1.3-0.6-1.9-1.7-1.9-3.4c0-1,0.2-1.8,0.7-2.4c0.5-0.6,1.1-1.1,1.9-1.3
		c-0.1-0.1-0.2-0.2-0.4-0.4c-0.2-0.2-0.4-0.6-0.6-1.2s-0.4-1.3-0.4-2.1c0-2,0.6-3.5,1.9-4.6c1.3-1.1,3-1.6,5.1-1.6h11.1V31h-2.7
		c0.6,0.5,0.9,1.4,0.9,2.6c0,1.8-0.6,3.3-1.9,4.3c-1.2,1.1-2.9,1.6-5.1,1.6H243.1z M248.1,36.3c2.4,0,3.6-0.9,3.6-2.8
		c0-1.9-1.1-2.8-3.3-2.8h-1.7c-1.1,0-2,0.2-2.5,0.6c-0.6,0.4-0.8,1.2-0.8,2.2c0,1.8,1.1,2.8,3.3,2.8H248.1z M243.9,45.2V46
		c0,1.4,0.3,2.4,1,3.1c0.7,0.7,1.9,1,3.5,1c3.1,0,4.7-0.9,4.7-2.7c0-1.4-1.1-2.1-3.3-2.1H243.9z"/>
	<path class="st1" d="M235.1,40.4c0,1.9-0.8,3.5-2.3,4.6c-1.5,1.2-3.6,1.7-6.1,1.7c-2.5,0-4.6-0.7-6.1-2c-1.6-1.3-2.3-3.1-2.3-5.4
		v-4.5c0-2.4,0.8-4.3,2.4-5.7c1.6-1.4,3.6-2.1,6.1-2.1c2.5,0,4.6,0.7,6.1,2.1c1.5,1.4,2.3,3.3,2.3,5.8v3.4h-12.7v0.9
		c0,1.3,0.4,2.3,1.2,2.9c0.8,0.7,1.8,1,3.1,1c2.8,0,4.1-1,4.1-2.9h4.2V40.4z M231,34.8c0-1.4-0.4-2.4-1.1-3.1
		c-0.8-0.7-1.8-1.1-3.1-1.1c-1.4,0-2.4,0.4-3.2,1.1c-0.8,0.7-1.1,1.8-1.1,3.1v0.5h8.6V34.8z"/>
	<path class="st1" d="M209.7,46.4V33.8c0-0.8-0.2-1.5-0.7-2c-0.4-0.5-1.1-0.8-1.9-0.8c-0.7,0-1.6,0.3-2.5,0.8l-2.8,1.7v12.9h-4.4
		V27.3h4.4v2.3l2-1.2c1.3-0.8,2.7-1.2,4.3-1.2c1.9,0,3.3,0.6,4.4,1.7c1.1,1.1,1.6,2.6,1.6,4.5v13.2H209.7z"/>
	<path class="st1" d="M193.3,39c0,2.4-0.8,4.3-2.4,5.7s-3.7,2.1-6.3,2.1c-2.6,0-4.7-0.7-6.3-2.1s-2.4-3.3-2.4-5.7v-4.2
		c0-2.4,0.8-4.3,2.4-5.7c1.6-1.4,3.7-2.1,6.3-2.1c2.6,0,4.7,0.7,6.3,2.1c1.6,1.4,2.4,3.3,2.4,5.7V39z M189,35.3
		c0-1.4-0.4-2.5-1.2-3.3c-0.8-0.8-1.9-1.2-3.2-1.2c-1.3,0-2.4,0.4-3.2,1.2c-0.8,0.8-1.2,1.9-1.2,3.3v3.3c0,1.4,0.4,2.5,1.2,3.3
		c0.8,0.8,1.9,1.2,3.2,1.2c1.3,0,2.4-0.4,3.2-1.2c0.8-0.8,1.2-1.9,1.2-3.3V35.3z"/>
	<path class="st1" d="M162.4,46.4V27.3h4.4V30l0.8-0.8c1.4-1.4,3-2,4.7-2h1.1v4.5h-1.1c-1.6,0-2.9,0.4-4,1.3l-1.5,1.2v12.3H162.4z"
		/>
	<path class="st1" d="M145.1,39.5c-0.9,0-1.3,0.4-1.3,1.3c0,0.8,0.4,1.2,1.2,1.2h7.4c4.6,0,6.9,1.8,6.9,5.3c0,2-0.8,3.5-2.4,4.5
		c-1.6,1.1-3.7,1.6-6.4,1.6c-5.7,0-8.6-2.4-8.6-7.3v-1.9c-1.3-0.6-1.9-1.7-1.9-3.4c0-1,0.2-1.8,0.7-2.4c0.5-0.6,1.1-1.1,1.9-1.3
		c-0.1-0.1-0.2-0.2-0.4-0.4s-0.4-0.6-0.6-1.2s-0.4-1.3-0.4-2.1c0-2,0.6-3.5,1.9-4.6c1.3-1.1,3-1.6,5.1-1.6h11.1V31h-2.7
		c0.6,0.5,0.9,1.4,0.9,2.6c0,1.8-0.6,3.3-1.9,4.3c-1.2,1.1-2.9,1.6-5.1,1.6H145.1z M150.1,36.3c2.4,0,3.6-0.9,3.6-2.8
		c0-1.9-1.1-2.8-3.3-2.8h-1.7c-1.1,0-2,0.2-2.5,0.6c-0.6,0.4-0.8,1.2-0.8,2.2c0,1.8,1.1,2.8,3.3,2.8H150.1z M145.9,45.2V46
		c0,1.4,0.3,2.4,1,3.1c0.7,0.7,1.9,1,3.5,1c3.1,0,4.7-0.9,4.7-2.7c0-1.4-1.1-2.1-3.3-2.1H145.9z"/>
	<path class="st1" d="M132.9,46.4l-1.7-5.1h-10.7l-1.7,5.1h-5.2l9.4-27.1h6l9.4,27.1H132.9z M125.8,24.6l-4.2,12.6h8.5L125.8,24.6z"
		/>
</g>
<path class="st2" d="M73.1,23.1C24.5,53.6,19.2,88.5,19.2,88.5C42.3,88.5,100,76.9,100,0C0,0,0,84.6,0,100
	C23.6,33.2,73.1,23.1,73.1,23.1z"/>
</svg>
