<svg xmlns="http://www.w3.org/2000/svg" viewBox="0 0 152 100">
    <path fill="#B01116" d="M115.5,27.6c0.1-3.6,1.7-5.1,6.9-5.1h28.5V12.4h-26.7c-12.6,0-19.8,5.4-19.8,15.7c0,20,36.5,15.9,36.5,26.5c0,3.6-1.9,5.6-6.9,5.6H96.7c3.8-4.6,6.1-10.6,6.1-17.4c0-17.1-11.1-31.6-29.9-31.6c-17,0-29.1,12.8-29.1,31.9v4.7H30.9c-10,0-19.9-6.5-19.9-18.8c0-12.3,9.9-18.8,19.9-18.8h8.2V0H29C15.5,0,0,10.4,0,29c0,18.6,15.5,29,29,29h14.8V100h10.6V57.9h20.2V47.8H54.4V45c0-15.9,8.4-23.7,18.5-23.7c11.3,0,19.3,8.3,19.3,20.2c0,10.2-5.5,16.8-14.2,18.7H64.5v10.1h69.5c10.2,0,17.9-5.2,17.9-16.2C152,33.4,115.4,37.6,115.5,27.6"/>
    <path d="M73.4,85.4c-0.6,0.3-1.7,0.5-3.2,0.5c-3.4,0-5.9-1.9-5.9-5.4c0-3.4,2.5-5.6,6.3-5.6c1.5,0,2.4,0.3,2.8,0.5L73,76.5c-0.6-0.3-1.4-0.4-2.4-0.4c-2.8,0-4.7,1.6-4.7,4.4c0,2.6,1.7,4.3,4.6,4.3c0.9,0,1.9-0.2,2.5-0.4L73.4,85.4z"/>
    <path d="M75.9,82.2c0,1.9,1.4,2.7,3,2.7c1.1,0,1.8-0.2,2.4-0.4l0.3,1c-0.5,0.2-1.5,0.5-2.9,0.5c-2.7,0-4.2-1.6-4.2-3.9c0-2.3,1.5-4.2,4-4.2c2.8,0,3.6,2.2,3.6,3.6c0,0.3,0,0.5-0.1,0.7H75.9z M80.5,81.2c0-0.9-0.4-2.3-2.2-2.3c-1.6,0-2.3,1.3-2.4,2.3H80.5z"/>
    <path d="M84,80.2c0-0.8,0-1.4-0.1-2.1h1.4l0.1,1.3h0c0.4-0.7,1.4-1.4,2.8-1.4c1.2,0,3,0.6,3,3.3v4.6h-1.6v-4.4c0-1.2-0.5-2.3-2-2.3c-1,0-1.8,0.6-2.1,1.4c-0.1,0.2-0.1,0.4-0.1,0.6v4.6H84V80.2z"/>
    <path d="M95.6,75.9v2.2h2.2v1.1h-2.2v4.2c0,1,0.3,1.5,1.2,1.5c0.4,0,0.7,0,0.9-0.1l0.1,1c-0.3,0.1-0.8,0.2-1.4,0.2c-0.7,0-1.3-0.2-1.7-0.6c-0.4-0.4-0.6-1.1-0.6-2v-4.2h-1.3v-1.1h1.3v-1.8L95.6,75.9z"/>
    <path d="M99.6,80.5c0-0.9,0-1.7-0.1-2.4h1.4l0.1,1.5h0.1c0.4-1,1.3-1.7,2.4-1.7c0.2,0,0.3,0,0.4,0v1.3c-0.2,0-0.3,0-0.5,0c-1.1,0-1.9,0.7-2.1,1.8c0,0.2-0.1,0.4-0.1,0.7v4.1h-1.5V80.5z"/>
    <path d="M113.1,81.9c0,2.8-2.2,4.1-4.3,4.1c-2.3,0-4.1-1.5-4.1-4c0-2.6,1.9-4.1,4.3-4.1C111.4,77.9,113.1,79.5,113.1,81.9M106.2,82c0,1.7,1.1,3,2.6,3c1.5,0,2.6-1.3,2.6-3c0-1.3-0.7-3-2.6-3C107,79,106.2,80.5,106.2,82"/>
    <path d="M65,89.2c0.7-0.1,1.7-0.2,3-0.2c1.5,0,2.7,0.3,3.4,0.9c0.7,0.5,1,1.3,1,2.2c0,1-0.3,1.7-0.9,2.3c-0.8,0.8-2.2,1.2-3.7,1.2c-0.5,0-0.9,0-1.2-0.1v4.3H65V89.2z M66.5,94.3c0.3,0.1,0.8,0.1,1.3,0.1c1.9,0,3-0.8,3-2.3c0-1.4-1.1-2.1-2.8-2.1c-0.7,0-1.2,0-1.5,0.1V94.3z"/>
    <path d="M78.7,99.7l-0.1-1h-0.1c-0.5,0.6-1.4,1.1-2.6,1.1c-1.7,0-2.6-1.1-2.6-2.2c0-1.9,1.8-2.9,5.2-2.9v-0.2c0-0.6-0.2-1.8-2-1.8c-0.8,0-1.6,0.2-2.2,0.6l-0.4-0.9c0.7-0.4,1.7-0.7,2.8-0.7c2.6,0,3.3,1.6,3.3,3.1v2.9c0,0.7,0,1.3,0.1,1.8H78.7z M78.5,95.8c-1.7,0-3.6,0.2-3.6,1.7c0,0.9,0.7,1.3,1.5,1.3c1.1,0,1.8-0.6,2.1-1.3c0.1-0.1,0.1-0.3,0.1-0.4V95.8z"/>
    <path d="M89.7,97.6c0,0.8,0,1.5,0.1,2.1h-1.4l-0.1-1.3h0c-0.4,0.6-1.3,1.4-2.8,1.4c-1.4,0-3-0.7-3-3.4V92H84v4.3c0,1.5,0.5,2.4,1.9,2.4c1,0,1.8-0.7,2.1-1.3c0.1-0.2,0.1-0.5,0.1-0.7V92h1.6V97.6z"/>
    <rect x="92.3" y="88.5" width="1.6" height="11.3"/>
    <path d="M101.3,99.7l-0.1-1h-0.1c-0.5,0.6-1.4,1.1-2.6,1.1c-1.7,0-2.6-1.1-2.6-2.2c0-1.9,1.8-2.9,5.2-2.9v-0.2c0-0.6-0.2-1.8-2-1.8c-0.8,0-1.6,0.2-2.2,0.6l-0.4-0.9c0.7-0.4,1.7-0.7,2.8-0.7c2.6,0,3.3,1.6,3.3,3.1v2.9c0,0.7,0,1.3,0.1,1.8H101.3z M101,95.8c-1.7,0-3.6,0.2-3.6,1.7c0,0.9,0.7,1.3,1.5,1.3c1.1,0,1.8-0.6,2.1-1.3c0.1-0.1,0.1-0.3,0.1-0.4V95.8z"/>
    <path d="M108.7,98.1c0.7,0.4,1.7,0.7,2.8,0.7c1.6,0,2.5-0.7,2.5-1.8c0-1-0.6-1.6-2.3-2.1c-2-0.6-3.2-1.5-3.2-3c0-1.7,1.5-2.9,3.9-2.9c1.2,0,2.1,0.3,2.7,0.5l-0.4,1.1c-0.4-0.2-1.2-0.5-2.3-0.5c-1.6,0-2.3,0.9-2.3,1.6c0,1,0.7,1.5,2.4,2.1c2,0.7,3.1,1.6,3.1,3.2c0,1.7-1.4,3.1-4.2,3.1c-1.2,0-2.4-0.3-3.1-0.7L108.7,98.1z"/>
    <path d="M125.5,95.8c0,2.8-2.2,4.1-4.3,4.1c-2.3,0-4.1-1.5-4.1-4c0-2.6,1.9-4.1,4.3-4.1C123.8,91.9,125.5,93.5,125.5,95.8M118.7,95.9c0,1.7,1.1,3,2.6,3c1.5,0,2.6-1.3,2.6-3c0-1.3-0.7-3-2.6-3C119.5,92.9,118.7,94.5,118.7,95.9"/>
    <path d="M134.7,97.6c0,0.8,0,1.5,0.1,2.1h-1.4l-0.1-1.3h0c-0.4,0.6-1.3,1.4-2.8,1.4c-1.3,0-3-0.7-3-3.4V92h1.6v4.3c0,1.5,0.5,2.4,1.9,2.4c1,0,1.8-0.7,2.1-1.3c0.1-0.2,0.1-0.5,0.1-0.7V92h1.6V97.6z"/>
    <path d="M136.3,98.9l3.9-4.5c0.4-0.4,0.7-0.8,1.1-1.2v0h-4.7V92h6.6l0,0.9l-3.8,4.5c-0.4,0.4-0.7,0.8-1.1,1.2v0h5v1.1h-7V98.9z"/>
    <path d="M149.7,99.7l-0.1-1h-0.1c-0.5,0.6-1.4,1.1-2.6,1.1c-1.7,0-2.6-1.1-2.6-2.2c0-1.9,1.9-2.9,5.2-2.9v-0.2c0-0.6-0.2-1.8-2-1.8c-0.8,0-1.6,0.2-2.2,0.6l-0.4-0.9c0.7-0.4,1.7-0.7,2.8-0.7c2.6,0,3.3,1.6,3.3,3.1v2.9c0,0.7,0,1.3,0.1,1.8H149.7z M149.4,95.8c-1.7,0-3.6,0.2-3.6,1.7c0,0.9,0.7,1.3,1.5,1.3c1.1,0,1.8-0.6,2.1-1.3c0.1-0.1,0.1-0.3,0.1-0.4V95.8z"/>
</svg>
