<?xml version="1.0" encoding="utf-8"?>
<!-- Generator: Adobe Illustrator 23.0.1, SVG Export Plug-In . SVG Version: 6.00 Build 0)  -->
<svg version="1.1"
	 id="GPES" inkscape:version="0.48.3.1 r9886" sodipodi:docname="lgpesv.svg" xmlns:cc="http://creativecommons.org/ns#" xmlns:dc="http://purl.org/dc/elements/1.1/" xmlns:inkscape="http://www.inkscape.org/namespaces/inkscape" xmlns:rdf="http://www.w3.org/1999/02/22-rdf-syntax-ns#" xmlns:sodipodi="http://sodipodi.sourceforge.net/DTD/sodipodi-0.dtd" xmlns:svg="http://www.w3.org/2000/svg"
	 xmlns="http://www.w3.org/2000/svg" xmlns:xlink="http://www.w3.org/1999/xlink" x="0px" y="0px" viewBox="0 0 800 366.2"
	 style="enable-background:new 0 0 800 366.2;" xml:space="preserve">
<style type="text/css">
	.st0{opacity:0.93;fill:#12120D;enable-background:new    ;}
	.st1{opacity:0.93;fill:url(#path3872_1_);enable-background:new    ;}
	.st2{opacity:0.93;fill:#6E706F;enable-background:new    ;}
</style>
<g>
	
		<path id="path3884" inkscape:connector-curvature="0" inkscape:export-filename="D:\GPES\Software GPES\logo_gpes_vetorizado.png" inkscape:export-xdpi="26.629999" inkscape:export-ydpi="26.629999" sodipodi:nodetypes="ccccccccccccccccccccccccccccccccccc" class="st0" d="
		M746.2,157.6c-13.4,0.4-27.2,2.1-39,8.9c-9.2,4.3-14.9,12.1-21.7,20.4c-2.6,3.2-4,7.6-5.3,11.6c-2.1,5.5-3.1,15.7,0.1,26.4
		c4.9,10,11,19.9,20.4,26.4c16.4,12.5,36.5,18.7,54.2,28.9c8.2,5.3,15.5,12.3,20.1,21.1c4.2,9.3,3,19.9,1.2,29.6
		c-3.5,12.3-14.3,21.4-26.3,23.5c-6.2,0.9-14.1,1.7-20.6,1.8c-11.9-1.1-13.4-1.6-19.2-4.8c-11.6-6-18-17.4-23.8-28.9
		c-2.2-4.3-3.5-9.1-5.7-13.4c-1.6-2-6-2.4-7,0.3c4,15.1,5.8,30.7,8.7,46.1c1.3,4.4,7,4.2,10.6,5.4c15.4,3.2,31.2,6.8,47.1,4.9
		c7.1-0.4,14.1-2.1,20.7-4.3c6.1-2.1,11.8-5.6,17.2-9.1c10.4-8.2,18.4-20,21.3-32.9c1.3-10.6,1.8-21.9-3.2-31.7
		c-6.5-14.4-19.8-24-33.5-30.9c-12.9-7-26.7-12.2-39.4-19.4c-8.8-5.5-21-15.2-23.1-24.7c-0.3-1.2-1.1-16.6,2.9-23.7
		c2.9-6.4,12.9-15.3,22.1-19.1c8.8-4.3,17.8-4.5,26.1-2.2c9,2.3,17.3,7.6,23.6,14.4c6,7.5,8.4,17.2,10,26.5c0.5,3.2,5.1,2.4,6.3,0.1
		c1.4-6.4,0.3-13.2,0.7-19.7c0-7.8,0.5-15.6,1-23.3c-2.2-2.2-5.9-2.2-8.8-3.1C771.5,160,758.9,157.6,746.2,157.6L746.2,157.6z"/>
	
		<path id="path3020" inkscape:connector-curvature="0" inkscape:export-filename="D:\GPES\Software GPES\logo_gpes_vetorizado.png" inkscape:export-xdpi="26.629999" inkscape:export-ydpi="26.629999" class="st0" d="
		M573.3,161.7c-23.1,0.3-46.3-0.4-69.4,1c-2.7,1.2,0,3.9,2,3.6c8.5,1.2,18.2,2.7,22.9,10.8c2.5,4,0.5,9.5,1.1,14.1
		c-0.5,50.7-0.1,101.5-1.5,152.2c-1.4,7-8.9,10.7-15.3,12.1c-4.3,1.4-9.3,1.2-13.2,3.5c0,2.4,4.1,1.2,5.8,1.8
		c45.8,1.2,91.7,0.9,137.6,1.2c3.9-8.1,3.3-17.9,5.4-26.6c0.7-6.4,4.3-12.6,3.2-19.1c-1.8-2.8-5.2,0-5.9,2.3
		c-6.4,11-11,24.3-22.9,30.8c-8.3,4.2-18.1,4.1-27.2,5c-12.3,0-25.4,1-36.9-3.7c-7.1-3.2-6.3-12.1-6.8-18.6
		c-1.1-22.6-1.5-45.2,0-67.7c9.2-1.2,18.7,1,28,0.8c14.5,0.5,29.1,1.3,43.7,1.1c1.6-4.4,0.9-9.7,1.5-14.4c-4.1-1.4-9.3,0-13.9-0.4
		c-19.4,0.2-38.8,1.3-58.2,1.4c-2.8-2.4-0.8-7-1.5-10.2c-0.1-23.3-0.6-46.7,0.4-69.9c1.6-3.9,7.2-2.4,10.7-3c16,0.1,32.2-0.9,48,1.3
		c7.5,1.9,13.8,8,17.4,14.7c3.2,6.2,3.5,13.5,6.2,19.8c1.2,2.2,4.8,1.9,4.6-1c1.9-14.1,2-28.3,3.5-42.5c-4-1.5-9.3-0.2-13.8-0.6
		C610.3,161.6,591.8,161.7,573.3,161.7L573.3,161.7z"/>
	
		<path id="path3018" inkscape:connector-curvature="0" inkscape:export-filename="D:\GPES\Software GPES\logo_gpes_vetorizado.png" inkscape:export-xdpi="26.629999" inkscape:export-ydpi="26.629999" class="st0" d="
		M400.4,161.2c-22.1,0.4-44.4,0.1-66.4,1.7c-2.7,1.3,0.7,3.3,2.3,3.2c7.4,1.9,17.8,2.1,21,10.6c2.8,5.4,0.7,12.1,1.4,18
		c0.1,49.5,0.9,99-1.4,148.4c0,8.2-8.9,11.7-15.7,13.4c-2.4,1.3-6.8,0.7-8.1,3.2c1.6,2.5,5.7,0.7,8.1,1.4
		c22.8,0.3,45.7,0.6,68.5-0.2c1.9,0.4,4.4-2.1,1.5-2.7c-9.5-2.3-21.5-0.5-28.1-9.3c-4.2-5.3-2.2-13.2-2.9-19.6
		c0.1-17.2-0.8-34.6,0.9-51.7c0.4-2.5,4.1-0.1,5.7-0.6c13.7,1.7,27.8,2.3,41.4,0.1c17.5-4.3,34.8-14.1,44.2-29.9
		c12.7-21,11.8-51.1-6.4-68.7c-14.7-13.7-35.8-18.3-55.5-17.4C407.3,161.1,403.8,161.1,400.4,161.2L400.4,161.2z M403.7,168.5
		c14.6,0.6,30.7,3.8,41,14.7c11.5,14.2,12.4,34.8,7.9,52c-4,16.6-17.7,31.7-35.2,33.5c-10.7,1.1-21.9,2.5-32.5,0.3
		c-3.1-0.7-5-3.3-4.1-6.6c0.2-27.3-1-54.6,0.5-81.8c0-4.1,1.7-8.4,6-9.6C392.3,168.7,398.1,168.4,403.7,168.5L403.7,168.5z"/>
	
		<path id="path3016" inkscape:connector-curvature="0" inkscape:export-filename="D:\GPES\Software GPES\logo_gpes_vetorizado.png" inkscape:export-xdpi="26.629999" inkscape:export-ydpi="26.629999" class="st0" d="
		M229.1,158.5c-21.1-0.2-43,1.8-62,11.7c-25.5,11.1-46.9,32.9-54.4,60c-7.5,26.6-7.1,56.6,6.6,81.1c9.8,21.4,29.3,36.7,50.5,45.6
		c13.8,5.9,28.8,8.3,43.7,9.2c24.7,0.4,49.3-3.5,72.7-11.2c2.4-1.9,0.6-6.1,1.4-8.8c0.8-18.3-0.3-36.8,1.4-54.9
		c2.2-5.2,6.8-9.5,12.4-10.6c1.8-1.1,4.7-1.6,5.5-3.7c-2.3-1.9-6.3-0.5-9.2-1.1c-21.8-0.2-43.7-1-65.5,0.4c-1.9-0.3-3.1,2-0.8,2.4
		c9.9,3.1,21.6,2.1,30,8.5c5.7,6.3,3.8,15.8,4.5,23.6c-0.2,11,0.8,22.1-0.7,33c-3,7.3-11.9,9.2-18.8,11.1c-14.3,3-29.4,3.5-43.9,1.6
		c-17.6-4.4-34.1-13.6-45.5-27.9c-12.7-15.5-19.6-35.4-21.1-55.3c-0.1-18.7-1.5-38.1,5.7-55.8c8.9-26.4,32.9-46.8,60.7-50.2
		c18.1-3,38.1-2.5,54.3,6.8c13.2,7.8,22,21.9,23.8,37.1c-0.1,2.6,2.8,5.7,5.1,3.2c2.4-4.9,1.1-10.9,1.9-16.2
		c0.1-10.7,1.3-21.6,0.2-32.2c-5.7-3.1-12.8-2.9-19-4.4C255.5,158.5,242.3,158.3,229.1,158.5L229.1,158.5z"/>
	<radialGradient id="path3872_1_" cx="184.4871" cy="86.6347" r="163.8462" gradientUnits="userSpaceOnUse">
		<stop  offset="0" style="stop-color:#E6000E"/>
		<stop  offset="0.2922" style="stop-color:#E3000D"/>
		<stop  offset="0.5495" style="stop-color:#D8010B"/>
		<stop  offset="0.7928" style="stop-color:#C60207"/>
		<stop  offset="1" style="stop-color:#B00402"/>
	</radialGradient>
	
		<path id="path3872" inkscape:connector-curvature="0" inkscape:export-filename="D:\GPES\Software GPES\logo_gpes_vetorizado.png" inkscape:export-xdpi="26.629999" inkscape:export-ydpi="26.629999" class="st1" d="
		M432.3,0c-11.7,8.6-23.4,17.4-36.8,23.4c-45.3,22-96.8,25.9-146.5,24.4c-45.2,0.5-89.7-8-134.6-11c-26.8-1.3-54.8,2.4-78.5,15.5
		C15.3,64.2,2.3,86.9,1.1,110.5c-0.6,8.5-2.2,17.4,0.2,25.6c4.5-6.7,7.6-15.5,13-22.2C28.5,93,49.5,77,73.7,69
		c40.4-14.7,84.3-12,126.5-9.4c31.3,4.4,63.1,4.8,94.7,4.3c44.3-3.2,89.4-17.6,122-48.7c2.3-1.5,4.6-5.1,7.4-4
		c3.5-2.7-0.8,2.5-1.8,3.8c-23,26.4-56.7,41.7-90.4,50c-53.3,14-109,9.8-163.5,14.3c-43.8,4.9-89.7,17.2-122,48.8
		c-16.6,15.7-25.5,40.6-17.6,62.7c9.3,23.2,29.8,39.3,47.6,56c5,4.1,9.5,8.9,14.8,12.5c2.4-4.2,0.9-10.4,1.8-15.3
		c1.1-25.3,12.7-49.7,31.6-66.5c29.4-27.4,68.9-40.8,107.2-50.7C287,113.5,344.1,97.5,389,61.1c17-13.6,30.7-30.7,40-50.4
		c1-3.4,4.9-7.1,3.9-10.7l-0.4,0L432.3,0L432.3,0z"/>
	
		<path id="path3874" inkscape:connector-curvature="0" inkscape:export-filename="D:\GPES\Software GPES\logo_gpes_vetorizado.png" inkscape:export-xdpi="26.629999" inkscape:export-ydpi="26.629999" class="st2" d="
		M92,71c-7.5,0.5-14.7,3.2-21.7,5.7c-8.3,3-16.2,6.9-23.4,12c-6.3,4.2-11.5,9.8-16.4,15.5c-2.2,2.8-4.6,5.8-5.5,9.3
		c-0.4,3.3,1.4,6.3,3.2,8.8c3.5,4.2,10.7,4.5,14.3,0.4c5.8-5.4,11.4-11.1,18.1-15.3c10.4-6.9,21.7-12.1,33.2-17
		c4.6-1.8,8.3-6.8,7.4-11.8c-1-2.8-3.3-5-5.7-6.8C94.5,71,93.2,71,92,71L92,71z"/>
</g>
</svg>
