<?xml version="1.0" encoding="utf-8"?>
<!-- Generator: Adobe Illustrator 24.1.1, SVG Export Plug-In . SVG Version: 6.00 Build 0)  -->
<svg version="1.1" id="Layer_1" xmlns="http://www.w3.org/2000/svg" xmlns:xlink="http://www.w3.org/1999/xlink" x="0px" y="0px"
	 viewBox="0 0 328 100" style="enable-background:new 0 0 328 100;" xml:space="preserve">
<style type="text/css">
	.st0{fill:#6DB544;}
	.st1{fill:#A3C73A;}
</style>
<g>
	<g>
		<path class="st0" d="M327.9,52.7c0,2.4-0.8,4.3-2.4,5.7c-1.6,1.4-3.7,2.1-6.3,2.1c-2.6,0-4.7-0.7-6.3-2.1
			c-1.6-1.4-2.4-3.3-2.4-5.7v-4.2c0-2.4,0.8-4.3,2.4-5.7c1.6-1.4,3.7-2.1,6.3-2.1c2.6,0,4.7,0.7,6.3,2.1c1.6,1.4,2.4,3.3,2.4,5.7
			V52.7z M323.6,49c0-1.4-0.4-2.5-1.2-3.3c-0.8-0.8-1.9-1.2-3.2-1.2c-1.3,0-2.4,0.4-3.2,1.2c-0.8,0.8-1.2,1.9-1.2,3.3v3.3
			c0,1.4,0.4,2.5,1.2,3.3c0.8,0.8,1.9,1.2,3.2,1.2c1.3,0,2.4-0.4,3.2-1.2c0.8-0.8,1.2-1.9,1.2-3.3V49z"/>
		<rect x="301.8" y="41" class="st0" width="4.5" height="19.2"/>
		<path class="st0" d="M306.5,35.8c0,0.7-0.2,1.2-0.7,1.5c-0.5,0.4-1.1,0.5-1.8,0.5c-0.7,0-1.3-0.2-1.8-0.5
			c-0.5-0.4-0.7-0.9-0.7-1.5V35c0-0.7,0.2-1.2,0.7-1.6c0.5-0.4,1.1-0.5,1.8-0.5c0.8,0,1.4,0.2,1.8,0.5c0.5,0.4,0.7,0.9,0.7,1.6V35.8
			z"/>
		<path class="st0" d="M297.7,53.2c0,2.4-0.7,4.2-2.2,5.4c-1.5,1.3-3.5,1.9-6.1,1.9c-2.5,0-4.5-0.7-6-2s-2.2-3.2-2.2-5.5v-4.8
			c0-2.4,0.8-4.2,2.3-5.5c1.5-1.3,3.5-2,6-2c2.5,0,4.6,0.6,6.1,1.9c1.5,1.3,2.2,3.1,2.2,5.4v0.3h-4.3c0-2.6-1.3-3.9-4-3.9
			c-2.6,0-4,1.4-4,4.1v4c0,2.7,1.3,4.1,4,4.1c2.7,0,4-1.3,4-3.8h4.3V53.2z"/>
		<path class="st0" d="M277.3,52.7c0,2.4-0.8,4.3-2.4,5.7c-1.6,1.4-3.7,2.1-6.3,2.1c-2.6,0-4.7-0.7-6.3-2.1
			c-1.6-1.4-2.4-3.3-2.4-5.7v-4.2c0-2.4,0.8-4.3,2.4-5.7c1.6-1.4,3.7-2.1,6.3-2.1c2.6,0,4.7,0.7,6.3,2.1c1.6,1.4,2.4,3.3,2.4,5.7
			V52.7z M273.1,49c0-1.4-0.4-2.5-1.2-3.3c-0.8-0.8-1.9-1.2-3.2-1.2c-1.3,0-2.4,0.4-3.2,1.2c-0.8,0.8-1.2,1.9-1.2,3.3v3.3
			c0,1.4,0.4,2.5,1.2,3.3c0.8,0.8,1.9,1.2,3.2,1.2c1.3,0,2.4-0.4,3.2-1.2c0.8-0.8,1.2-1.9,1.2-3.3V49z"/>
		<polygon class="st0" points="265.3,38.4 269.2,33.1 274.8,33.1 270.1,38.4 		"/>
		<path class="st0" d="M243.1,53.2c-0.9,0-1.3,0.4-1.3,1.3c0,0.8,0.4,1.2,1.2,1.2h7.4c4.6,0,6.9,1.8,6.9,5.3c0,2-0.8,3.5-2.4,4.5
			c-1.6,1.1-3.7,1.6-6.4,1.6c-5.7,0-8.6-2.4-8.6-7.3v-1.9c-1.3-0.6-1.9-1.7-1.9-3.4c0-1,0.2-1.8,0.7-2.4c0.5-0.6,1.1-1.1,1.9-1.3
			c-0.1-0.1-0.2-0.2-0.4-0.4c-0.2-0.2-0.4-0.6-0.6-1.2s-0.4-1.3-0.4-2.1c0-2,0.6-3.5,1.9-4.6c1.3-1.1,3-1.6,5.1-1.6h11.1v3.7h-2.7
			c0.6,0.5,0.9,1.4,0.9,2.6c0,1.8-0.6,3.3-1.9,4.3c-1.2,1.1-2.9,1.6-5.1,1.6H243.1z M248.1,50c2.4,0,3.6-0.9,3.6-2.8
			c0-1.9-1.1-2.8-3.3-2.8h-1.7c-1.1,0-2,0.2-2.5,0.6c-0.6,0.4-0.8,1.2-0.8,2.2c0,1.8,1.1,2.8,3.3,2.8H248.1z M243.9,58.9v0.8
			c0,1.4,0.3,2.4,1,3.1c0.7,0.7,1.9,1,3.5,1c3.1,0,4.7-0.9,4.7-2.7c0-1.4-1.1-2.1-3.3-2.1H243.9z"/>
		<path class="st0" d="M235.1,54.1c0,1.9-0.8,3.5-2.3,4.6c-1.5,1.2-3.6,1.7-6.1,1.7c-2.5,0-4.6-0.7-6.1-2c-1.6-1.3-2.3-3.1-2.3-5.4
			v-4.5c0-2.4,0.8-4.3,2.4-5.7c1.6-1.4,3.6-2.1,6.1-2.1c2.5,0,4.6,0.7,6.1,2.1c1.5,1.4,2.3,3.3,2.3,5.8V52h-12.7v0.9
			c0,1.3,0.4,2.3,1.2,2.9c0.8,0.7,1.8,1,3.1,1c2.8,0,4.1-1,4.1-2.9h4.2V54.1z M231,48.5c0-1.4-0.4-2.4-1.1-3.1
			c-0.8-0.7-1.8-1.1-3.1-1.1c-1.4,0-2.4,0.4-3.2,1.1c-0.8,0.7-1.1,1.8-1.1,3.1v0.5h8.6V48.5z"/>
		<path class="st0" d="M209.7,60.2V47.6c0-0.8-0.2-1.5-0.7-2s-1.1-0.8-1.9-0.8c-0.7,0-1.6,0.3-2.5,0.8l-2.8,1.7v12.9h-4.4V41h4.4
			v2.3l2-1.2c1.3-0.8,2.7-1.2,4.3-1.2c1.9,0,3.3,0.6,4.4,1.7c1.1,1.1,1.6,2.6,1.6,4.5v13.2H209.7z"/>
		<path class="st0" d="M193.3,52.7c0,2.4-0.8,4.3-2.4,5.7c-1.6,1.4-3.7,2.1-6.3,2.1c-2.6,0-4.7-0.7-6.3-2.1
			c-1.6-1.4-2.4-3.3-2.4-5.7v-4.2c0-2.4,0.8-4.3,2.4-5.7c1.6-1.4,3.7-2.1,6.3-2.1c2.6,0,4.7,0.7,6.3,2.1c1.6,1.4,2.4,3.3,2.4,5.7
			V52.7z M189,49c0-1.4-0.4-2.5-1.2-3.3c-0.8-0.8-1.9-1.2-3.2-1.2c-1.3,0-2.4,0.4-3.2,1.2c-0.8,0.8-1.2,1.9-1.2,3.3v3.3
			c0,1.4,0.4,2.5,1.2,3.3c0.8,0.8,1.9,1.2,3.2,1.2c1.3,0,2.4-0.4,3.2-1.2c0.8-0.8,1.2-1.9,1.2-3.3V49z"/>
		<path class="st0" d="M162.4,60.2V41h4.4v2.7l0.8-0.8c1.4-1.4,3-2,4.7-2h1.1v4.5h-1.1c-1.6,0-2.9,0.4-4,1.3l-1.5,1.2v12.3H162.4z"
			/>
		<path class="st0" d="M145.1,53.2c-0.9,0-1.3,0.4-1.3,1.3c0,0.8,0.4,1.2,1.2,1.2h7.4c4.6,0,6.9,1.8,6.9,5.3c0,2-0.8,3.5-2.4,4.5
			c-1.6,1.1-3.7,1.6-6.4,1.6c-5.7,0-8.6-2.4-8.6-7.3v-1.9c-1.3-0.6-1.9-1.7-1.9-3.4c0-1,0.2-1.8,0.7-2.4c0.5-0.6,1.1-1.1,1.9-1.3
			c-0.1-0.1-0.2-0.2-0.4-0.4c-0.2-0.2-0.4-0.6-0.6-1.2s-0.4-1.3-0.4-2.1c0-2,0.6-3.5,1.9-4.6c1.3-1.1,3-1.6,5.1-1.6h11.1v3.7h-2.7
			c0.6,0.5,0.9,1.4,0.9,2.6c0,1.8-0.6,3.3-1.9,4.3c-1.2,1.1-2.9,1.6-5.1,1.6H145.1z M150.1,50c2.4,0,3.6-0.9,3.6-2.8
			c0-1.9-1.1-2.8-3.3-2.8h-1.7c-1.1,0-2,0.2-2.5,0.6c-0.6,0.4-0.8,1.2-0.8,2.2c0,1.8,1.1,2.8,3.3,2.8H150.1z M145.9,58.9v0.8
			c0,1.4,0.3,2.4,1,3.1c0.7,0.7,1.9,1,3.5,1c3.1,0,4.7-0.9,4.7-2.7c0-1.4-1.1-2.1-3.3-2.1H145.9z"/>
		<path class="st0" d="M132.9,60.2l-1.7-5.1h-10.7l-1.7,5.1h-5.2l9.4-27.1h6l9.4,27.1H132.9z M125.8,38.3l-4.2,12.6h8.5L125.8,38.3z
			"/>
	</g>
	<path class="st1" d="M73.1,23.1C24.5,53.6,19.2,88.5,19.2,88.5C42.3,88.5,100,76.9,100,0C0,0,0,84.6,0,100
		C23.6,33.2,73.1,23.1,73.1,23.1z"/>
</g>
</svg>
