<?xml version="1.0" encoding="utf-8"?>
<!-- Generator: Adobe Illustrator 23.0.1, SVG Export Plug-In . SVG Version: 6.00 Build 0)  -->
<svg version="1.1" id="logo" xmlns="http://www.w3.org/2000/svg" xmlns:xlink="http://www.w3.org/1999/xlink" x="0px" y="0px"
	 viewBox="0 0 706.8 800" style="enable-background:new 0 0 706.8 800;" xml:space="preserve">
<style type="text/css">
	.st0{fill:#0D968B;}
	.st1{opacity:0.1;fill:#E7F4F3;enable-background:new    ;}
	.st2{fill:#F5F5F5;}
</style>
<title>logo</title>
<g>
	<polygon id="escudo" class="st0" points="640.8,718.4 353.4,800 66,718.4 0,0 706.8,0 	"/>
	<polygon id="brilho" class="st1" points="600.6,673.9 353.4,747.7 353.4,52.3 658.1,60.1 	"/>
	<path class="st2" d="M111.2,404.7V352l114.3-113.2l20.4,51.3l-94.5,88.1l94.4,86.2l-21,53.1L111.2,404.7z"/>
	<path class="st2" d="M310.6,576.7l-36.4-26.6l122.3-406.4l36.2,26.6L310.6,576.7z"/>
	<path class="st2" d="M595.7,351.6v53.1L482,517.3l-21-50.8l94.4-88.5L461,292.4l20.9-53.6L595.7,351.6z"/>
</g>
</svg>
