<?xml version="1.0" encoding="utf-8"?>
<!-- Generator: Adobe Illustrator 24.1.1, SVG Export Plug-In . SVG Version: 6.00 Build 0)  -->
<svg version="1.1" id="Layer_1" xmlns="http://www.w3.org/2000/svg" xmlns:xlink="http://www.w3.org/1999/xlink" x="0px" y="0px"
	 viewBox="0 0 726.9 134.3" style="enable-background:new 0 0 726.9 134.3;" xml:space="preserve">
<style type="text/css">
	.st0{fill:#4A555C;}
	.st1{fill:#B01117;}
</style>
<g>
	<g>
		<polygon class="st0" points="16,52 16,88.8 0,88.8 0,0 57.6,0 57.6,14.1 16,14.1 16,37.9 54,37.9 54,52 		"/>
		<path class="st0" d="M300.3,65.8c0,15.7-10.9,24-27.2,24c-16.2,0-27.1-8.9-27.1-24.6V49.6c0-15.6,10.9-24.7,27.1-24.7
			c16.4,0,27.2,8.3,27.2,24.1v1.1h-14c0-9-4.9-12.6-13.3-12.6c-8.2,0-13,4.3-13,13.4V64c0,9.1,4.8,13.4,13,13.4
			c8.4,0,13.3-3.6,13.3-12.5h14V65.8z"/>
		<path class="st0" d="M106.1,88.8v-7.3l-6.6,3.6c-5.8,3.1-10.4,4.5-16.6,4.5c-11.2,0-18.7-7.3-18.7-17.9
			c0-13.1,10.3-19.2,23.3-19.2h18.7v-3.7c0-8.1-4.7-12-12.9-12c-8.6,0-13.6,3.6-13.6,11h-14V47c0-14.2,11.2-22.2,27.6-22.2
			c17.2,0,27.1,8.6,27.1,23.6v40.4L106.1,88.8L106.1,88.8z M106.1,62.7H89.4c-8.7,0-10.7,4.1-10.7,8.2c0,4.4,2.7,7,7.5,7
			c3.9,0,7.3-1.2,10.9-3.1l9.1-4.9v-7.2H106.1z"/>
		<path class="st0" d="M161.8,88.8c-14.6,0-24-7.3-24-21.6v-29h-9.6V25.9h9.6V8.8h14.8v17.1H170v12.3h-17.4v28.2
			c0,7.4,3.3,9.9,10.4,9.9h7.4v12.5H161.8L161.8,88.8z"/>
		<path class="st0" d="M233.4,68.9c0,12.8-11,20.9-27.6,20.9c-16.2,0-27.8-8.8-27.8-24.2V50.7c0-15.9,11.6-25.8,27.8-25.8
			c16.4,0,27.7,9.4,27.7,26V62h-41.7v3.1c0,8.9,6,12.9,14.2,12.9c8.1,0,13.6-2.9,13.6-9.7h13.8V68.9L233.4,68.9z M219.9,50.7
			c0-9-5.3-13.8-14-13.8c-8.8,0-14.2,4.9-14.2,14v1.5h28.1L219.9,50.7L219.9,50.7z"/>
	</g>
	<g>
		<polygon class="st1" points="107.2,127.7 107.2,106 99.8,106 99.8,101.9 119.3,101.9 119.3,106 112,106 112,127.7 		"/>
		<path class="st1" d="M131.1,127.7v-2.1l-1.9,1c-1.7,0.9-3,1.3-4.8,1.3c-3.3,0-5.4-2.1-5.4-5.2c0-3.8,3-5.6,6.8-5.6h5.4V116
			c0-2.4-1.4-3.5-3.7-3.5c-2.5,0-3.9,1-3.9,3.2h-4.1v-0.2c0-4.1,3.3-6.4,8-6.4c5,0,7.9,2.5,7.9,6.9v11.7L131.1,127.7L131.1,127.7z
			 M131.1,120.1h-4.8c-2.5,0-3.1,1.2-3.1,2.4c0,1.3,0.8,2,2.2,2c1.1,0,2.1-0.3,3.2-0.9l2.6-1.4L131.1,120.1L131.1,120.1z"/>
		<path class="st1" d="M151.4,134.1v-8.4l-2.1,1.1c-1.4,0.8-2.7,1.1-4.1,1.1c-3.8,0-6.3-2.5-6.3-6.2v-6.1c0-3.7,2.6-6.3,6.3-6.3
			c1.3,0,2.6,0.3,4,1.1l2.1,1.1v-2h4.1v24.6H151.4L151.4,134.1z M151.4,115.3l-2.9-1.6c-0.8-0.4-1.6-0.7-2.6-0.7
			c-1.7,0-2.9,1.2-2.9,3v5.2c0,1.8,1.1,3,2.9,3c1,0,1.8-0.3,2.6-0.7l2.9-1.6V115.3z"/>
		<path class="st1" d="M171.5,127.7v-2.1l-1.9,1.1c-1.3,0.8-2.6,1.2-4.1,1.2c-3.6,0-5.8-2.4-5.8-5.9v-12.5h4.2v12
			c0,1.6,0.9,2.7,2.4,2.7c0.9,0,1.6-0.3,2.4-0.8l2.7-1.6v-12.3h4.2v18.3L171.5,127.7L171.5,127.7z"/>
		<path class="st1" d="M191.5,127.7v-2.1l-1.9,1c-1.7,0.9-3,1.3-4.8,1.3c-3.3,0-5.4-2.1-5.4-5.2c0-3.8,3-5.6,6.8-5.6h5.4V116
			c0-2.4-1.4-3.5-3.7-3.5c-2.5,0-3.9,1-3.9,3.2h-4.1v-0.2c0-4.1,3.3-6.4,8-6.4c5,0,7.9,2.5,7.9,6.9v11.7L191.5,127.7L191.5,127.7z
			 M191.5,120.1h-4.9c-2.5,0-3.1,1.2-3.1,2.4c0,1.3,0.8,2,2.2,2c1.1,0,2.1-0.3,3.1-0.9l2.6-1.4L191.5,120.1L191.5,120.1z"/>
		<path class="st1" d="M199.8,127.7v-18.3h4.2v2.6l0.8-0.8c1.4-1.3,2.7-1.9,4.5-1.9h1.1v4.3h-1c-1.6,0-2.6,0.3-3.8,1.3L204,116v11.7
			H199.8z"/>
		<path class="st1" d="M217.6,104.5c0,1.3-1,2-2.4,2s-2.4-0.7-2.4-2v-0.8c0-1.3,1-2,2.4-2s2.4,0.7,2.4,2V104.5z M213.1,109.4h4.3
			v18.3h-4.3V109.4z"/>
		<path class="st1" d="M230.1,127.7c-4.2,0-7-2.1-7-6.3V113h-2.8v-3.6h2.8v-4.9h4.3v4.9h5.1v3.6h-5.1v8.2c0,2.2,1,2.9,3,2.9h2.1v3.6
			H230.1L230.1,127.7z"/>
		<path class="st1" d="M240.5,104.5c0,1.3-1,2-2.4,2s-2.4-0.7-2.4-2v-0.8c0-1.3,1-2,2.4-2s2.4,0.7,2.4,2V104.5z M235.9,109.4h4.3
			v18.3h-4.3V109.4z"/>
		<path class="st1" d="M256.3,127.7v-12c0-1.4-0.8-2.7-2.4-2.7c-0.9,0-1.6,0.3-2.4,0.8l-2.7,1.6v12.3h-4.2v-18.3h4.2v2.2l1.9-1.2
			c1.4-0.9,2.7-1.1,4.1-1.2c3.6,0,5.7,2.4,5.7,5.9v12.5L256.3,127.7L256.3,127.7z"/>
		<path class="st1" d="M268.5,121.1c-0.8,0-1.3,0.4-1.3,1.2c0,0.7,0.5,1.1,1.2,1.1h7.1c4.2,0,6.5,1.6,6.5,5c0,3.8-3.4,5.9-8.4,5.9
			c-5.6,0-8.1-2.5-8.1-6.9v-1.8c-1.1-0.5-1.8-1.6-1.8-3.3c0-2,1-3.2,2.5-3.5c0,0-1.3-1-1.3-3.5c0-3.9,2.7-5.8,6.7-5.8h10.6v3.5h-2.6
			c0,0,0.9,0.7,0.9,2.5c0,3.5-2.6,5.6-6.6,5.6L268.5,121.1L268.5,121.1z M273.2,118c2.2,0,3.5-0.8,3.5-2.7c0-1.8-1.1-2.7-3.1-2.7
			H272c-2,0-3.2,0.6-3.2,2.7c0,1.8,1.1,2.6,3.1,2.6L273.2,118L273.2,118z M269.2,126.5v0.8c0,2.5,1,3.9,4.3,3.9
			c2.9,0,4.4-0.8,4.4-2.6c0-1.6-1.2-2-3.1-2L269.2,126.5L269.2,126.5z"/>
		<path class="st1" d="M296.4,127.7v-2.1l-1.9,1c-1.7,0.9-3,1.3-4.8,1.3c-3.3,0-5.4-2.1-5.4-5.2c0-3.8,3-5.6,6.8-5.6h5.4V116
			c0-2.4-1.4-3.5-3.7-3.5c-2.5,0-4,1-4,3.2h-4.1v-0.2c0-4.1,3.3-6.4,8-6.4c5,0,7.9,2.5,7.9,6.9v11.7L296.4,127.7L296.4,127.7z
			 M296.4,120.1h-4.9c-2.5,0-3.1,1.2-3.1,2.4c0,1.3,0.8,2,2.2,2c1.1,0,2.1-0.3,3.1-0.9l2.6-1.4L296.4,120.1L296.4,120.1z"/>
	</g>
</g>
<polygon class="st0" points="363.2,67.2 340.8,94 340.8,134.3 336.3,134.3 336.3,0 340.8,0 340.8,40.3 "/>
<g>
	<path class="st0" d="M392.2,58.9V10.3h16.6c6.3,0,11.4,1.7,15.4,5.1c4,3.4,6,8.6,6,15.8v6.9c0,3.7-0.6,6.9-1.7,9.6
		c-1.2,2.8-2.7,4.9-4.8,6.5c-2,1.6-4.3,2.8-6.8,3.5c-2.5,0.8-5.2,1.1-8.2,1.1H392.2z M421.3,31.2c0-8.9-4.2-13.3-12.6-13.3h-7.8
		v33.3h7.8c8.4,0,12.6-4.4,12.6-13.1V31.2z"/>
	<path class="st0" d="M468.2,45.6c0,4.3-1.4,7.7-4.3,10.2c-2.9,2.5-6.6,3.8-11.2,3.8s-8.4-1.3-11.2-3.8c-2.9-2.5-4.3-6-4.3-10.2
		v-7.5c0-4.3,1.4-7.7,4.3-10.3c2.9-2.5,6.6-3.8,11.2-3.8s8.4,1.3,11.2,3.8c2.9,2.5,4.3,6,4.3,10.3V45.6z M460.6,38.8
		c0-2.5-0.7-4.5-2.2-5.9s-3.4-2.1-5.8-2.1c-2.4,0-4.3,0.7-5.8,2.1c-1.5,1.4-2.2,3.4-2.2,5.9v5.9c0,2.5,0.7,4.5,2.2,5.9
		c1.5,1.4,3.4,2.1,5.8,2.1c2.4,0,4.3-0.7,5.8-2.1c1.5-1.4,2.2-3.4,2.2-5.9V38.8z"/>
	<path class="st0" d="M504.7,46.4c0,4.2-1.3,7.5-4,9.7c-2.7,2.3-6.3,3.4-10.9,3.4c-4.5,0-8.1-1.2-10.8-3.6c-2.7-2.4-4-5.7-4-9.9
		v-8.6c0-4.2,1.4-7.5,4.1-9.9c2.7-2.4,6.3-3.6,10.8-3.6c4.6,0,8.2,1.1,10.9,3.4c2.7,2.3,4,5.5,4,9.8v0.6h-7.6c0-4.6-2.4-6.9-7.3-6.9
		c-4.7,0-7.1,2.4-7.1,7.3v7.2c0,4.9,2.4,7.3,7.1,7.3c4.8,0,7.3-2.3,7.3-6.9h7.6V46.4z"/>
	<path class="st0" d="M541.6,48.1c0,3.5-1.4,6.3-4.1,8.3c-2.7,2.1-6.4,3.1-11,3.1c-4.5,0-8.2-1.2-11-3.5c-2.8-2.4-4.2-5.6-4.2-9.7
		v-8.2c0-4.3,1.4-7.7,4.2-10.3c2.8-2.5,6.5-3.8,11-3.8c4.6,0,8.2,1.3,11,3.8c2.8,2.5,4.1,6,4.1,10.5v6.1h-22.9V46
		c0,2.4,0.7,4.1,2.1,5.3c1.4,1.2,3.3,1.8,5.7,1.8c5,0,7.4-1.8,7.4-5.3h7.6V48.1z M534.2,38.1c0-2.4-0.7-4.3-2-5.6
		c-1.3-1.3-3.2-2-5.6-2c-2.4,0-4.3,0.7-5.7,2s-2.1,3.2-2.1,5.7V39h15.4V38.1z"/>
	<path class="st0" d="M571.1,58.9V36.3c0-1.4-0.4-2.6-1.2-3.6c-0.8-1-1.9-1.5-3.4-1.5c-1.3,0-2.8,0.5-4.5,1.5l-5,3v23.2h-7.9V24.5
		h7.8v4l3.7-2.2c2.3-1.4,4.8-2.1,7.6-2.2c3.4,0,6,1,7.9,3.1c1.9,2,2.9,4.7,2.9,8.1v23.6H571.1z"/>
	<path class="st0" d="M602,58.9c-4.1,0-7.3-1-9.6-3c-2.3-2-3.5-5-3.5-8.8V31.2h-5.2v-6.7h5.2v-9.3h8.1v9.3h9.5v6.7H597v15.4
		c0,2,0.5,3.4,1.4,4.2c0.9,0.8,2.4,1.2,4.3,1.2h4v6.9H602z"/>
	<path class="st0" d="M641.2,48.1c0,3.5-1.4,6.3-4.1,8.3c-2.7,2.1-6.4,3.1-11,3.1c-4.5,0-8.2-1.2-11-3.5c-2.8-2.4-4.2-5.6-4.2-9.7
		v-8.2c0-4.3,1.4-7.7,4.2-10.3c2.8-2.5,6.5-3.8,11-3.8c4.6,0,8.2,1.3,11,3.8c2.8,2.5,4.1,6,4.1,10.5v6.1h-22.9V46
		c0,2.4,0.7,4.1,2.1,5.3c1.4,1.2,3.3,1.8,5.7,1.8c5,0,7.4-1.8,7.4-5.3h7.6V48.1z M633.8,38.1c0-2.4-0.7-4.3-2-5.6
		c-1.3-1.3-3.2-2-5.6-2c-2.4,0-4.3,0.7-5.7,2s-2.1,3.2-2.1,5.7V39h15.4V38.1z"/>
	<path class="st0" d="M669.6,35.6c0-3.6-2.3-5.4-7-5.4c-2.1,0-3.8,0.4-5,1.2s-1.8,1.8-1.8,3.1c0,1.4,0.7,2.5,2.2,3.1
		c1.5,0.6,3.3,1.1,5.4,1.3c2.1,0.2,4.2,0.5,6.4,0.9c2.1,0.4,3.9,1.3,5.4,2.8c1.5,1.4,2.2,3.5,2.2,6.1c0,3.4-1.3,6-4,7.9
		c-2.7,1.9-6.3,2.8-10.9,2.8c-4.7,0-8.4-1-11.1-3s-4-4.7-4-8.3v-0.4h8c0,3.6,2.4,5.4,7.2,5.4c2.2,0,4-0.4,5.2-1.2
		c1.2-0.8,1.9-1.8,1.9-3.1c0-1.1-0.5-1.9-1.6-2.5c-1.1-0.6-2.4-1-4-1.1s-3.3-0.4-5.2-0.7c-1.9-0.3-3.6-0.8-5.2-1.3
		c-1.6-0.5-3-1.5-4-3c-1.1-1.4-1.6-3.3-1.6-5.5c0-3.4,1.3-6,3.9-7.9c2.6-1.9,6.2-2.9,10.7-2.9c4.7,0,8.3,1,10.8,3
		c2.5,2,3.8,4.8,3.8,8.3v0.4H669.6z"/>
	<path class="st0" d="M726.9,48.1c0,3.5-1.4,6.3-4.1,8.3c-2.7,2.1-6.4,3.1-11,3.1c-4.5,0-8.2-1.2-11-3.5c-2.8-2.4-4.2-5.6-4.2-9.7
		v-8.2c0-4.3,1.4-7.7,4.2-10.3c2.8-2.5,6.5-3.8,11-3.8c4.6,0,8.2,1.3,11,3.8c2.8,2.5,4.1,6,4.1,10.5v6.1h-22.9V46
		c0,2.4,0.7,4.1,2.1,5.3c1.4,1.2,3.3,1.8,5.7,1.8c5,0,7.4-1.8,7.4-5.3h7.6V48.1z M719.5,38.1c0-2.4-0.7-4.3-2-5.6
		c-1.3-1.3-3.2-2-5.6-2c-2.4,0-4.3,0.7-5.7,2s-2.1,3.2-2.1,5.7V39h15.4V38.1z"/>
	<path class="st1" d="M419.4,89.4c0-5.4-3.2-8-9.5-8c-3,0-5.3,0.6-6.9,1.8c-1.6,1.2-2.4,2.9-2.4,5c0,1.6,0.5,2.8,1.5,3.8
		s2.4,1.6,4,2.1s3.5,0.8,5.5,1.1c2,0.3,4,0.8,6,1.3c2,0.5,3.8,1.2,5.5,2.1c1.7,0.9,3,2.2,4,4c1,1.8,1.5,4,1.5,6.6
		c0,4.5-1.7,8.1-5.1,10.7c-3.4,2.6-8,3.9-13.8,3.9c-6,0-10.6-1.3-13.9-3.8c-3.3-2.5-4.9-6.3-4.9-11.2v-0.5h8.9
		c0,5.4,3.4,8.1,10.1,8.1c3.1,0,5.6-0.6,7.3-1.8c1.7-1.2,2.5-2.8,2.5-4.9c0-1.5-0.5-2.8-1.5-3.7s-2.4-1.7-4-2.1
		c-1.7-0.4-3.5-0.8-5.5-1.1c-2-0.3-4-0.8-6-1.3c-2-0.5-3.8-1.2-5.5-2.1c-1.7-0.9-3-2.2-4-4c-1-1.8-1.5-4-1.5-6.7
		c0-4.5,1.6-8,4.9-10.6c3.3-2.6,7.7-3.9,13.4-3.9c5.8,0,10.4,1.3,13.6,3.8s4.8,6.2,4.8,11.2v0.6H419.4z"/>
	<path class="st1" d="M465.7,112.4c0,3.5-1.4,6.3-4.1,8.3c-2.7,2.1-6.4,3.1-11,3.1c-4.5,0-8.2-1.2-11-3.5c-2.8-2.4-4.2-5.6-4.2-9.7
		v-8.2c0-4.3,1.4-7.7,4.2-10.3c2.8-2.5,6.5-3.8,11-3.8c4.6,0,8.2,1.3,11,3.8c2.8,2.5,4.1,6,4.1,10.5v6.1h-22.9v1.7
		c0,2.4,0.7,4.1,2.1,5.3c1.4,1.2,3.3,1.8,5.7,1.8c5,0,7.4-1.8,7.4-5.3h7.6V112.4z M458.3,102.4c0-2.4-0.7-4.3-2-5.6
		c-1.3-1.3-3.2-2-5.6-2c-2.4,0-4.3,0.7-5.7,2s-2.1,3.2-2.1,5.7v0.8h15.4V102.4z"/>
	<path class="st1" d="M473.3,123.3V88.9h7.9v4.9l1.5-1.5c2.6-2.4,5.4-3.7,8.5-3.7h2v8h-2c-2.8,0-5.2,0.8-7.3,2.4l-2.7,2.2v22.1
		H473.3z"/>
	<path class="st1" d="M507.1,123.3l-11.9-34.4h8.6l8,25.3l8-25.3h8.3l-12,34.4H507.1z"/>
	<path class="st1" d="M541.7,79.6c0,1.2-0.4,2.1-1.2,2.7c-0.8,0.7-1.9,1-3.3,1c-1.3,0-2.4-0.3-3.2-1c-0.8-0.7-1.3-1.6-1.3-2.7v-1.4
		c0-1.2,0.4-2.2,1.3-2.8s1.9-1,3.2-1c1.4,0,2.4,0.3,3.3,1c0.8,0.7,1.2,1.6,1.2,2.8V79.6z M533.2,123.3V88.9h8.1v34.4H533.2z"/>
	<path class="st1" d="M572.4,123.3v-3.7l-4,2.2c-2.4,1.3-5,2-7.7,2c-3.5,0-6.4-1.1-8.6-3.2c-2.2-2.2-3.3-5-3.3-8.5v-11.6
		c0-3.5,1.1-6.3,3.3-8.6c2.2-2.2,5.1-3.3,8.6-3.3c2.7,0,5.2,0.7,7.6,2l3.9,2.2v-18h7.8v48.6H572.4z M572.4,100l-5.5-3.1
		c-1.6-0.9-3.2-1.3-4.8-1.3c-1.7,0-3,0.5-4,1.5c-1,1-1.5,2.4-1.5,4.1v9.8c0,1.7,0.5,3.1,1.5,4.1c1,1,2.3,1.5,4,1.5
		c1.5,0,3.1-0.5,4.8-1.4l5.5-3V100z"/>
	<path class="st1" d="M618.8,110c0,4.3-1.4,7.7-4.3,10.2c-2.9,2.5-6.6,3.8-11.2,3.8s-8.4-1.3-11.2-3.8c-2.9-2.5-4.3-6-4.3-10.2v-7.5
		c0-4.3,1.4-7.7,4.3-10.3c2.9-2.5,6.6-3.8,11.2-3.8s8.4,1.3,11.2,3.8c2.9,2.5,4.3,6,4.3,10.3V110z M611.2,103.2
		c0-2.5-0.7-4.5-2.2-5.9s-3.4-2.1-5.8-2.1c-2.4,0-4.3,0.7-5.8,2.1c-1.5,1.4-2.2,3.4-2.2,5.9v5.9c0,2.5,0.7,4.5,2.2,5.9
		c1.5,1.4,3.4,2.1,5.8,2.1c2.4,0,4.3-0.7,5.8-2.1c1.5-1.4,2.2-3.4,2.2-5.9V103.2z"/>
	<path class="st1" d="M626.3,123.3V88.9h7.9v4.9l1.5-1.5c2.6-2.4,5.4-3.7,8.5-3.7h2v8h-2c-2.8,0-5.2,0.8-7.3,2.4l-2.7,2.2v22.1
		H626.3z"/>
	<path class="st1" d="M680.9,112.4c0,3.5-1.4,6.3-4.1,8.3c-2.7,2.1-6.4,3.1-11,3.1c-4.5,0-8.2-1.2-11-3.5c-2.8-2.4-4.2-5.6-4.2-9.7
		v-8.2c0-4.3,1.4-7.7,4.2-10.3c2.8-2.5,6.5-3.8,11-3.8c4.6,0,8.2,1.3,11,3.8c2.8,2.5,4.1,6,4.1,10.5v6.1h-22.9v1.7
		c0,2.4,0.7,4.1,2.1,5.3c1.4,1.2,3.3,1.8,5.7,1.8c5,0,7.4-1.8,7.4-5.3h7.6V112.4z M673.5,102.4c0-2.4-0.7-4.3-2-5.6
		c-1.3-1.3-3.2-2-5.6-2c-2.4,0-4.3,0.7-5.7,2c-1.4,1.3-2.1,3.2-2.1,5.7v0.8h15.4V102.4z"/>
	<path class="st1" d="M709.3,100c0-3.6-2.3-5.4-7-5.4c-2.1,0-3.8,0.4-5,1.2s-1.8,1.8-1.8,3.1c0,1.4,0.7,2.5,2.2,3.1
		c1.5,0.6,3.3,1.1,5.4,1.3s4.2,0.5,6.4,0.9c2.1,0.4,3.9,1.3,5.4,2.8c1.5,1.4,2.2,3.5,2.2,6.1c0,3.4-1.3,6-4,7.9
		c-2.7,1.9-6.3,2.8-10.9,2.8c-4.7,0-8.4-1-11.1-3s-4-4.7-4-8.3v-0.4h8c0,3.6,2.4,5.4,7.2,5.4c2.2,0,4-0.4,5.2-1.2
		c1.2-0.8,1.9-1.8,1.9-3.1c0-1.1-0.5-1.9-1.6-2.5c-1.1-0.6-2.4-1-4-1.1s-3.3-0.4-5.2-0.7c-1.9-0.3-3.6-0.8-5.2-1.3
		c-1.6-0.5-3-1.5-4-3c-1.1-1.4-1.6-3.3-1.6-5.5c0-3.4,1.3-6,3.9-7.9c2.6-1.9,6.2-2.9,10.7-2.9c4.7,0,8.3,1,10.8,3
		c2.5,2,3.8,4.8,3.8,8.3v0.4H709.3z"/>
</g>
</svg>
