<?xml version="1.0" encoding="utf-8"?>
<!-- Generator: Adobe Illustrator 24.1.1, SVG Export Plug-In . SVG Version: 6.00 Build 0)  -->
<svg version="1.1" id="Layer_1" xmlns="http://www.w3.org/2000/svg" xmlns:xlink="http://www.w3.org/1999/xlink" x="0px" y="0px"
	 viewBox="0 0 337 100" style="enable-background:new 0 0 337 100;" xml:space="preserve">
<style type="text/css">
	.st0{fill:#4A555C;}
	.st1{fill:#B01116;}
</style>
<g>
	<path class="st0" d="M244.3,96.5v-1.1l-1,0.6c-0.9,0.5-1.7,0.7-2.6,0.7c-0.9,0-1.6-0.3-2.1-0.8c-0.5-0.5-0.8-1.2-0.8-2
		c0-1,0.3-1.7,1-2.2c0.7-0.5,1.5-0.8,2.6-0.8h2.9v-0.6c0-1.2-0.7-1.9-2-1.9c-1.4,0-2.1,0.6-2.1,1.7h-2.2V90c0-1.1,0.4-1.9,1.2-2.5
		c0.8-0.6,1.8-0.9,3.1-0.9c1.3,0,2.4,0.3,3.1,1c0.7,0.6,1.1,1.5,1.1,2.7v6.2H244.3z M244.3,92.5h-2.6c-1.1,0-1.7,0.4-1.7,1.3
		c0,0.3,0.1,0.6,0.3,0.8c0.2,0.2,0.5,0.3,0.9,0.3c0.5,0,1.1-0.2,1.7-0.5l1.4-0.8V92.5z"/>
	<path class="st0" d="M229.5,93c-0.4,0-0.7,0.2-0.7,0.6c0,0.4,0.2,0.6,0.6,0.6h3.8c2.3,0,3.5,0.9,3.5,2.7c0,1-0.4,1.8-1.2,2.3
		c-0.8,0.5-1.9,0.8-3.2,0.8c-2.9,0-4.3-1.2-4.3-3.7v-1c-0.6-0.3-1-0.9-1-1.7c0-0.5,0.1-0.9,0.4-1.2c0.2-0.3,0.6-0.5,0.9-0.6
		c0,0-0.1-0.1-0.2-0.2c-0.1-0.1-0.2-0.3-0.3-0.6c-0.1-0.3-0.2-0.7-0.2-1c0-1,0.3-1.8,1-2.3c0.6-0.5,1.5-0.8,2.6-0.8h5.6v1.9h-1.4
		c0.3,0.3,0.5,0.7,0.5,1.3c0,0.9-0.3,1.6-0.9,2.2c-0.6,0.5-1.5,0.8-2.6,0.8H229.5z M232,91.3c1.2,0,1.8-0.5,1.8-1.4
		c0-0.9-0.6-1.4-1.7-1.4h-0.8c-0.6,0-1,0.1-1.3,0.3c-0.3,0.2-0.4,0.6-0.4,1.1c0,0.9,0.6,1.4,1.7,1.4H232z M229.9,95.9v0.4
		c0,0.7,0.2,1.2,0.5,1.6c0.3,0.3,0.9,0.5,1.8,0.5c1.6,0,2.4-0.5,2.4-1.4c0-0.7-0.6-1.1-1.7-1.1H229.9z"/>
	<path class="st0" d="M223.1,96.5v-6.4c0-0.4-0.1-0.7-0.3-1s-0.5-0.4-1-0.4c-0.4,0-0.8,0.1-1.3,0.4l-1.4,0.8v6.5h-2.2v-9.7h2.2v1.1
		l1-0.6c0.6-0.4,1.4-0.6,2.2-0.6c0.9,0,1.7,0.3,2.2,0.9s0.8,1.3,0.8,2.3v6.7H223.1z"/>
	<rect x="212.2" y="86.8" class="st0" width="2.3" height="9.7"/>
	<path class="st0" d="M214.6,84.2c0,0.3-0.1,0.6-0.3,0.8c-0.2,0.2-0.5,0.3-0.9,0.3c-0.4,0-0.7-0.1-0.9-0.3c-0.2-0.2-0.4-0.4-0.4-0.8
		v-0.4c0-0.3,0.1-0.6,0.4-0.8c0.2-0.2,0.5-0.3,0.9-0.3c0.4,0,0.7,0.1,0.9,0.3c0.2,0.2,0.3,0.4,0.3,0.8V84.2z"/>
	<path class="st0" d="M209.1,96.5c-1.2,0-2.1-0.3-2.7-0.9c-0.7-0.6-1-1.4-1-2.5v-4.5h-1.5v-1.9h1.5v-2.6h2.3v2.6h2.7v1.9h-2.7V93
		c0,0.6,0.1,0.9,0.4,1.2c0.3,0.2,0.7,0.3,1.2,0.3h1.1v1.9H209.1z"/>
	<rect x="200.1" y="86.8" class="st0" width="2.3" height="9.7"/>
	<path class="st0" d="M202.5,84.2c0,0.3-0.1,0.6-0.3,0.8c-0.2,0.2-0.5,0.3-0.9,0.3c-0.4,0-0.7-0.1-0.9-0.3c-0.2-0.2-0.4-0.4-0.4-0.8
		v-0.4c0-0.3,0.1-0.6,0.4-0.8c0.2-0.2,0.5-0.3,0.9-0.3c0.4,0,0.7,0.1,0.9,0.3c0.2,0.2,0.3,0.4,0.3,0.8V84.2z"/>
	<path class="st0" d="M193,96.5v-9.7h2.2v1.4l0.4-0.4c0.7-0.7,1.5-1,2.4-1h0.6V89h-0.6c-0.8,0-1.5,0.2-2,0.7l-0.8,0.6v6.2H193z"/>
	<path class="st0" d="M188.6,96.5v-1.1l-1,0.6c-0.9,0.5-1.7,0.7-2.6,0.7c-0.9,0-1.6-0.3-2.1-0.8c-0.5-0.5-0.8-1.2-0.8-2
		c0-1,0.3-1.7,1-2.2c0.7-0.5,1.5-0.8,2.6-0.8h2.9v-0.6c0-1.2-0.7-1.9-2-1.9c-1.4,0-2.1,0.6-2.1,1.7h-2.2V90c0-1.1,0.4-1.9,1.2-2.5
		c0.8-0.6,1.8-0.9,3.1-0.9c1.3,0,2.4,0.3,3.1,1c0.7,0.6,1.1,1.5,1.1,2.7v6.2H188.6z M188.6,92.5H186c-1.1,0-1.7,0.4-1.7,1.3
		c0,0.3,0.1,0.6,0.3,0.8c0.2,0.2,0.5,0.3,0.9,0.3c0.5,0,1.1-0.2,1.7-0.5l1.4-0.8V92.5z"/>
	<path class="st0" d="M178,96.5v-1.1l-1,0.6c-0.7,0.4-1.4,0.6-2.2,0.6c-0.9,0-1.7-0.3-2.2-0.9c-0.5-0.6-0.8-1.3-0.8-2.3v-6.7h2.2
		v6.4c0,0.4,0.1,0.8,0.4,1c0.2,0.3,0.5,0.4,0.9,0.4c0.4,0,0.8-0.1,1.3-0.4l1.4-0.8v-6.6h2.2v9.7H178z"/>
	<path class="st0" d="M167.3,99.9v-4.5l-1.1,0.6c-0.7,0.4-1.4,0.6-2.2,0.6c-1,0-1.8-0.3-2.4-0.9c-0.6-0.6-0.9-1.4-0.9-2.4V90
		c0-1,0.3-1.8,0.9-2.4c0.6-0.6,1.4-0.9,2.4-0.9c0.7,0,1.4,0.2,2.1,0.6l1.1,0.6v-1h2.2v13.1H167.3z M167.3,89.9l-1.5-0.9
		c-0.5-0.2-0.9-0.4-1.4-0.4c-0.5,0-0.8,0.1-1.1,0.4c-0.3,0.3-0.4,0.7-0.4,1.2V93c0,0.5,0.1,0.9,0.4,1.2c0.3,0.3,0.6,0.4,1.1,0.4
		c0.5,0,0.9-0.1,1.4-0.4l1.5-0.8V89.9z"/>
	<path class="st0" d="M156.5,96.5v-1.1l-1,0.6c-0.9,0.5-1.7,0.7-2.6,0.7c-0.9,0-1.6-0.3-2.1-0.8c-0.5-0.5-0.8-1.2-0.8-2
		c0-1,0.3-1.7,1-2.2c0.7-0.5,1.5-0.8,2.6-0.8h2.9v-0.6c0-1.2-0.7-1.9-2-1.9c-1.4,0-2.1,0.6-2.1,1.7h-2.2V90c0-1.1,0.4-1.9,1.2-2.5
		c0.8-0.6,1.8-0.9,3.1-0.9c1.3,0,2.4,0.3,3.1,1c0.7,0.6,1.1,1.5,1.1,2.7v6.2H156.5z M156.5,92.5h-2.6c-1.1,0-1.7,0.4-1.7,1.3
		c0,0.3,0.1,0.6,0.3,0.8c0.2,0.2,0.5,0.3,0.9,0.3c0.5,0,1.1-0.2,1.7-0.5l1.4-0.8V92.5z"/>
	<polygon class="st0" points="143.8,96.5 143.8,84.9 139.9,84.9 139.9,82.8 150.2,82.8 150.2,84.9 146.3,84.9 146.3,96.5 	"/>
	<path class="st0" d="M133.1,92.9c0,1.2-0.4,2.1-1.1,2.7c-0.8,0.6-1.8,1-3.1,1c-1.3,0-2.3-0.3-3-1c-0.8-0.7-1.1-1.6-1.1-2.8v-2.4
		c0-1.2,0.4-2.1,1.1-2.8c0.8-0.7,1.8-1,3-1c1.3,0,2.3,0.3,3.1,1c0.8,0.6,1.1,1.6,1.1,2.8v0.2h-2.2c0-1.3-0.7-2-2-2
		c-1.3,0-2,0.7-2,2.1v2c0,1.4,0.7,2.1,2,2.1c1.4,0,2-0.6,2-1.9h2.2V92.9z"/>
	<path class="st0" d="M122.8,93.4c0,1-0.4,1.8-1.2,2.3c-0.8,0.6-1.8,0.9-3.1,0.9c-1.3,0-2.3-0.3-3.1-1c-0.8-0.7-1.2-1.6-1.2-2.7
		v-2.3c0-1.2,0.4-2.2,1.2-2.9c0.8-0.7,1.8-1.1,3.1-1.1c1.3,0,2.3,0.4,3.1,1.1c0.8,0.7,1.2,1.7,1.2,2.9v1.7h-6.4v0.5
		c0,0.7,0.2,1.2,0.6,1.5c0.4,0.3,0.9,0.5,1.6,0.5c1.4,0,2.1-0.5,2.1-1.5L122.8,93.4L122.8,93.4z M120.7,90.6c0-0.7-0.2-1.2-0.6-1.6
		c-0.4-0.4-0.9-0.6-1.6-0.6c-0.7,0-1.2,0.2-1.6,0.6s-0.6,0.9-0.6,1.6v0.2h4.3V90.6z"/>
	<path class="st0" d="M111.7,96.5c-1.2,0-2.1-0.3-2.7-0.9c-0.7-0.6-1-1.4-1-2.5v-4.5h-1.5v-1.9h1.5v-2.6h2.3v2.6h2.7v1.9h-2.7V93
		c0,0.6,0.1,0.9,0.4,1.2c0.3,0.2,0.7,0.3,1.2,0.3h1.1v1.9H111.7z"/>
	<path class="st0" d="M103.1,96.5v-1.1l-1,0.6c-0.9,0.5-1.7,0.7-2.6,0.7c-0.9,0-1.6-0.3-2.1-0.8c-0.5-0.5-0.8-1.2-0.8-2
		c0-1,0.3-1.7,1-2.2c0.7-0.5,1.5-0.8,2.6-0.8h2.9v-0.6c0-1.2-0.7-1.9-2-1.9c-1.4,0-2.1,0.6-2.1,1.7h-2.2V90c0-1.1,0.4-1.9,1.2-2.5
		c0.8-0.6,1.8-0.9,3.1-0.9c1.3,0,2.4,0.3,3.1,1c0.7,0.6,1.1,1.5,1.1,2.7v6.2H103.1z M103.1,92.5h-2.6c-1.1,0-1.7,0.4-1.7,1.3
		c0,0.3,0.1,0.6,0.3,0.8c0.2,0.2,0.5,0.3,0.9,0.3c0.5,0,1.1-0.2,1.7-0.5l1.4-0.8V92.5z"/>
	<polygon class="st0" points="89.2,90.8 89.2,96.5 86.7,96.5 86.7,82.8 95.6,82.8 95.6,85 89.2,85 89.2,88.6 95.1,88.6 95.1,90.8 	
		"/>
</g>
<g>
	<g>
		<rect x="333.2" y="53.3" class="st1" width="3.5" height="20.6"/>
		<path class="st1" d="M326.6,73.8v-1.7l-1.5,0.8c-1.3,0.7-2.6,1.1-3.8,1.1c-1.3,0-2.3-0.4-3.1-1.1c-0.8-0.8-1.2-1.8-1.2-3
			c0-1.5,0.5-2.6,1.5-3.3c1-0.8,2.3-1.1,3.9-1.1h4.3v-0.9c0-1.9-1-2.8-3-2.8c-2.1,0-3.1,0.8-3.1,2.5h-3.3v-0.2
			c0-1.6,0.6-2.9,1.7-3.8c1.2-0.9,2.7-1.4,4.6-1.4c2,0,3.5,0.5,4.6,1.4c1.1,1,1.6,2.3,1.6,4v9.4H326.6z M326.6,67.8h-3.9
			c-1.7,0-2.5,0.6-2.5,1.9c0,0.5,0.2,0.9,0.5,1.2c0.3,0.3,0.7,0.4,1.3,0.4c0.8,0,1.6-0.2,2.5-0.7l2.1-1.1V67.8z"/>
		<g>
			<rect x="310.5" y="59.3" class="st1" width="3.4" height="14.6"/>
			<path class="st1" d="M314.1,55.4c0,0.5-0.2,0.9-0.5,1.2s-0.8,0.4-1.4,0.4c-0.6,0-1-0.1-1.4-0.4c-0.4-0.3-0.5-0.7-0.5-1.2v-0.6
				c0-0.5,0.2-0.9,0.5-1.2c0.4-0.3,0.8-0.4,1.4-0.4c0.6,0,1,0.1,1.4,0.4s0.5,0.7,0.5,1.2V55.4z"/>
		</g>
		<path class="st1" d="M299.8,73.8V59.3h3.3v2.1l0.6-0.6c1.1-1,2.3-1.5,3.6-1.5h0.9v3.4h-0.8c-1.2,0-2.2,0.3-3.1,1l-1.1,0.9v9.3
			H299.8z"/>
		<path class="st1" d="M295.2,73.8c-1.7,0-3.1-0.4-4.1-1.3c-1-0.9-1.5-2.1-1.5-3.7v-6.7h-2.2v-2.8h2.2v-3.9h3.4v3.9h4v2.8h-4v6.5
			c0,0.8,0.2,1.4,0.6,1.8s1,0.5,1.8,0.5h1.7v2.9H295.2z"/>
		<path class="st1" d="M282.3,64c0-1.5-1-2.3-3-2.3c-0.9,0-1.6,0.2-2.1,0.5c-0.5,0.3-0.7,0.8-0.7,1.3c0,0.6,0.3,1,0.9,1.3
			c0.6,0.3,1.4,0.4,2.3,0.5c0.9,0.1,1.8,0.2,2.7,0.4c0.9,0.2,1.7,0.6,2.3,1.2c0.6,0.6,0.9,1.5,0.9,2.6c0,1.4-0.6,2.5-1.7,3.3
			c-1.1,0.8-2.7,1.2-4.6,1.2c-2,0-3.6-0.4-4.7-1.3c-1.1-0.8-1.7-2-1.7-3.5v-0.2h3.4c0,1.5,1,2.3,3,2.3c0.9,0,1.7-0.2,2.2-0.5
			c0.5-0.3,0.8-0.8,0.8-1.3c0-0.5-0.2-0.8-0.7-1.1c-0.5-0.3-1-0.4-1.7-0.5c-0.7-0.1-1.4-0.2-2.2-0.3c-0.8-0.1-1.5-0.3-2.2-0.6
			c-0.7-0.2-1.2-0.6-1.7-1.3c-0.5-0.6-0.7-1.4-0.7-2.3c0-1.4,0.6-2.5,1.7-3.3c1.1-0.8,2.6-1.2,4.5-1.2c2,0,3.5,0.4,4.6,1.3
			c1.1,0.8,1.6,2,1.6,3.5V64H282.3z"/>
		<path class="st1" d="M266.7,73.8v-1.7l-1.5,0.9c-1,0.6-2.1,0.9-3.2,0.9c-1.4,0-2.5-0.4-3.4-1.3c-0.8-0.9-1.2-2-1.2-3.4v-10h3.4
			v9.6c0,0.6,0.2,1.2,0.5,1.5c0.3,0.4,0.8,0.6,1.4,0.6c0.6,0,1.2-0.2,1.9-0.6l2.1-1.2v-9.8h3.3v14.6H266.7z"/>
		<path class="st1" d="M250.7,73.8v-1.6l-1.7,0.9c-1,0.6-2.1,0.9-3.3,0.9c-1.5,0-2.7-0.5-3.6-1.4c-0.9-0.9-1.4-2.1-1.4-3.6v-4.9
			c0-1.5,0.5-2.7,1.4-3.6c0.9-0.9,2.2-1.4,3.6-1.4c1.1,0,2.2,0.3,3.2,0.9l1.7,0.9v-7.6h3.3v20.6H250.7z M250.7,64l-2.3-1.3
			c-0.7-0.4-1.4-0.6-2-0.6c-0.7,0-1.3,0.2-1.7,0.6c-0.4,0.4-0.6,1-0.6,1.7v4.1c0,0.7,0.2,1.3,0.6,1.8c0.4,0.4,1,0.6,1.7,0.6
			c0.6,0,1.3-0.2,2-0.6l2.3-1.3V64z"/>
		<path class="st1" d="M234.3,73.8v-9.6c0-0.6-0.2-1.1-0.5-1.5c-0.3-0.4-0.8-0.6-1.4-0.6c-0.6,0-1.2,0.2-1.9,0.6l-2.1,1.3v9.8H225
			V59.3h3.3V61l1.5-0.9c1-0.6,2-0.9,3.2-0.9c1.4,0,2.5,0.4,3.4,1.3c0.8,0.9,1.2,2,1.2,3.4v10H234.3z"/>
		<rect x="217.5" y="53.3" class="st1" width="3.8" height="20.6"/>
	</g>
	<g>
		<path class="st1" d="M208,68.2c0,1.8-0.6,3.2-1.8,4.3c-1.2,1.1-2.8,1.6-4.8,1.6s-3.5-0.5-4.8-1.6s-1.8-2.5-1.8-4.3V65
			c0-1.8,0.6-3.3,1.8-4.4s2.8-1.6,4.8-1.6s3.5,0.5,4.8,1.6c1.2,1.1,1.8,2.5,1.8,4.4V68.2z M204.8,65.4c0-1.1-0.3-1.9-0.9-2.5
			c-0.6-0.6-1.4-0.9-2.4-0.9c-1,0-1.8,0.3-2.4,0.9c-0.6,0.6-0.9,1.4-0.9,2.5v2.5c0,1.1,0.3,1.9,0.9,2.5c0.6,0.6,1.4,0.9,2.4,0.9
			c1,0,1.8-0.3,2.4-0.9c0.6-0.6,0.9-1.4,0.9-2.5V65.4z"/>
		<g>
			<path class="st1" d="M188.6,73.8v-1.7l-1.5,0.8c-1.3,0.7-2.6,1.1-3.8,1.1c-1.3,0-2.3-0.4-3.1-1.1c-0.8-0.8-1.2-1.8-1.2-3
				c0-1.5,0.5-2.6,1.5-3.3c1-0.8,2.3-1.1,3.9-1.1h4.3v-0.9c0-1.9-1-2.8-3-2.8c-2.1,0-3.1,0.8-3.1,2.5h-3.3v-0.2
				c0-1.6,0.6-2.9,1.7-3.8s2.7-1.4,4.6-1.4c2,0,3.5,0.5,4.6,1.4c1.1,1,1.6,2.3,1.6,4v9.4H188.6z M188.6,67.8h-3.9
				c-1.7,0-2.5,0.6-2.5,1.9c0,0.5,0.2,0.9,0.5,1.2c0.3,0.3,0.7,0.4,1.3,0.4c0.8,0,1.6-0.2,2.5-0.7l2.1-1.1V67.8z"/>
			<path class="st1" d="M191.5,53.5c0,1.2-0.3,2.1-0.9,2.9c-0.6,0.7-1.4,1.1-2.5,1.1c-0.6,0-1.2-0.1-1.7-0.4s-0.9-0.6-1.3-0.8
				c-0.4-0.3-0.7-0.4-1.1-0.4c-0.7,0-1.1,0.5-1.1,1.6h-2.7v-0.2c0-1.2,0.3-2.1,0.9-2.8s1.4-1.1,2.5-1.1c0.6,0,1.2,0.1,1.7,0.4
				c0.5,0.3,0.9,0.6,1.3,0.8s0.7,0.4,1.1,0.4c0.8,0,1.1-0.5,1.1-1.6h2.7V53.5z"/>
		</g>
		<path class="st1" d="M168.1,76.1l1.1-2c-1.7-0.1-3-0.7-3.9-1.7c-1-1-1.4-2.3-1.4-3.9v-3.6c0-1.8,0.6-3.2,1.7-4.2
			c1.1-1,2.7-1.5,4.6-1.5c1.9,0,3.5,0.5,4.6,1.4c1.1,1,1.7,2.3,1.7,4.1v0.2h-3.2c0-2-1-2.9-3.1-2.9c-2,0-3,1-3,3.1v3
			c0,2.1,1,3.1,3,3.1c2,0,3.1-1,3.1-2.9h3.2v0.2c0,1.6-0.5,2.9-1.4,3.8c-0.9,0.9-2.2,1.5-3.8,1.7l-0.6,0.9c0.7,0,1.3,0.2,1.7,0.5
			c0.4,0.3,0.6,0.8,0.6,1.4c0,0.7-0.3,1.3-0.8,1.7c-0.5,0.4-1.3,0.6-2.3,0.6c-1,0-1.7-0.2-2.3-0.6c-0.5-0.4-0.8-0.9-0.8-1.6v-0.1
			h2.1c0,0.5,0.3,0.7,1,0.7c0.7,0,1-0.3,1-0.8c0-0.5-0.5-0.8-1.4-0.8H168.1z"/>
		<path class="st1" d="M157.3,73.8v-1.7l-1.5,0.9c-1,0.6-2.1,0.9-3.2,0.9c-1.4,0-2.5-0.4-3.4-1.3c-0.8-0.9-1.2-2-1.2-3.4v-10h3.4
			v9.6c0,0.6,0.2,1.2,0.5,1.5c0.3,0.4,0.8,0.6,1.4,0.6c0.6,0,1.2-0.2,1.9-0.6l2.1-1.2v-9.8h3.3v14.6H157.3z"/>
		<path class="st1" d="M141.3,73.8v-1.6l-1.7,0.9c-1,0.6-2.1,0.9-3.3,0.9c-1.5,0-2.7-0.5-3.6-1.4c-0.9-0.9-1.4-2.1-1.4-3.6v-4.9
			c0-1.5,0.5-2.7,1.4-3.6s2.2-1.4,3.6-1.4c1.1,0,2.2,0.3,3.2,0.9l1.7,0.9v-7.6h3.3v20.6H141.3z M141.3,64l-2.3-1.3
			c-0.7-0.4-1.4-0.6-2-0.6c-0.7,0-1.3,0.2-1.7,0.6c-0.4,0.4-0.6,1-0.6,1.7v4.1c0,0.7,0.2,1.3,0.6,1.8c0.4,0.4,1,0.6,1.7,0.6
			c0.6,0,1.3-0.2,2-0.6l2.3-1.3V64z"/>
		<path class="st1" d="M128.5,68.2c0,1.8-0.6,3.2-1.8,4.3c-1.2,1.1-2.8,1.6-4.8,1.6s-3.5-0.5-4.8-1.6c-1.2-1.1-1.8-2.5-1.8-4.3V65
			c0-1.8,0.6-3.3,1.8-4.4c1.2-1.1,2.8-1.6,4.8-1.6s3.5,0.5,4.8,1.6c1.2,1.1,1.8,2.5,1.8,4.4V68.2z M125.3,65.4
			c0-1.1-0.3-1.9-0.9-2.5c-0.6-0.6-1.4-0.9-2.4-0.9c-1,0-1.8,0.3-2.4,0.9c-0.6,0.6-0.9,1.4-0.9,2.5v2.5c0,1.1,0.3,1.9,0.9,2.5
			c0.6,0.6,1.4,0.9,2.4,0.9c1,0,1.8-0.3,2.4-0.9c0.6-0.6,0.9-1.4,0.9-2.5V65.4z"/>
		<path class="st1" d="M105.1,73.8V59.3h3.3v2.1l0.6-0.6c1.1-1,2.3-1.5,3.6-1.5h0.9v3.4h-0.8c-1.2,0-2.2,0.3-3.1,1l-1.1,0.9v9.3
			H105.1z"/>
		<path class="st1" d="M87.3,73.8V53.3H96c1.9,0,3.4,0.6,4.6,1.7s1.8,2.7,1.8,4.7c0,2-0.7,3.5-2,4.7c-1.3,1.2-2.9,1.7-4.7,1.7H91
			v7.8H87.3z M95.6,62.9c1,0,1.8-0.3,2.3-0.9c0.6-0.6,0.9-1.4,0.9-2.4c0-1-0.3-1.8-0.8-2.3c-0.6-0.5-1.3-0.8-2.3-0.8H91v6.5H95.6z"
			/>
	</g>
	<g>
		<path class="st1" d="M254,47.9v-1.7l-1.5,0.8c-1.3,0.7-2.6,1.1-3.8,1.1c-1.3,0-2.3-0.4-3.1-1.1c-0.8-0.8-1.2-1.8-1.2-3
			c0-1.5,0.5-2.6,1.5-3.3c1-0.8,2.3-1.1,3.9-1.1h4.3v-0.9c0-1.9-1-2.8-3-2.8c-2.1,0-3.1,0.8-3.1,2.5h-3.3v-0.2
			c0-1.6,0.6-2.9,1.7-3.8c1.2-0.9,2.7-1.4,4.6-1.4c2,0,3.5,0.5,4.6,1.4c1.1,1,1.6,2.3,1.6,4v9.4H254z M254,41.9h-3.9
			c-1.7,0-2.5,0.6-2.5,1.9c0,0.5,0.2,0.9,0.5,1.2c0.3,0.3,0.7,0.4,1.3,0.4c0.8,0,1.6-0.2,2.5-0.7l2.1-1.1V41.9z"/>
		<path class="st1" d="M238.1,47.9v-1.6l-1.7,0.9c-1,0.6-2.1,0.9-3.3,0.9c-1.5,0-2.7-0.5-3.6-1.4c-0.9-0.9-1.4-2.1-1.4-3.6v-4.9
			c0-1.5,0.5-2.7,1.4-3.6c0.9-0.9,2.2-1.4,3.6-1.4c1.1,0,2.2,0.3,3.2,0.9l1.7,0.9v-7.6h3.3v20.6H238.1z M238.1,38l-2.3-1.3
			c-0.7-0.4-1.4-0.6-2-0.6c-0.7,0-1.3,0.2-1.7,0.6c-0.4,0.4-0.6,1-0.6,1.7v4.1c0,0.7,0.2,1.3,0.6,1.8c0.4,0.4,1,0.6,1.7,0.6
			c0.6,0,1.3-0.2,2-0.6l2.3-1.3V38z"/>
	</g>
	<g>
		<path class="st1" d="M221.1,42.3c0,1.8-0.6,3.2-1.8,4.3c-1.2,1.1-2.8,1.6-4.8,1.6s-3.5-0.5-4.8-1.6s-1.8-2.5-1.8-4.3v-3.2
			c0-1.8,0.6-3.3,1.8-4.4s2.8-1.6,4.8-1.6s3.5,0.5,4.8,1.6c1.2,1.1,1.8,2.5,1.8,4.4V42.3z M217.8,39.4c0-1.1-0.3-1.9-0.9-2.5
			c-0.6-0.6-1.4-0.9-2.4-0.9c-1,0-1.8,0.3-2.4,0.9c-0.6,0.6-0.9,1.4-0.9,2.5v2.5c0,1.1,0.3,1.9,0.9,2.5c0.6,0.6,1.4,0.9,2.4,0.9
			c1,0,1.8-0.3,2.4-0.9c0.6-0.6,0.9-1.4,0.9-2.5V39.4z"/>
		<g>
			<path class="st1" d="M201.6,47.9v-1.7l-1.5,0.8c-1.3,0.7-2.6,1.1-3.8,1.1c-1.3,0-2.3-0.4-3.1-1.1c-0.8-0.8-1.2-1.8-1.2-3
				c0-1.5,0.5-2.6,1.5-3.3c1-0.8,2.3-1.1,3.9-1.1h4.3v-0.9c0-1.9-1-2.8-3-2.8c-2.1,0-3.1,0.8-3.1,2.5h-3.3v-0.2
				c0-1.6,0.6-2.9,1.7-3.8c1.2-0.9,2.7-1.4,4.6-1.4c2,0,3.5,0.5,4.6,1.4c1.1,1,1.6,2.3,1.6,4v9.4H201.6z M201.6,41.9h-3.9
				c-1.7,0-2.5,0.6-2.5,1.9c0,0.5,0.2,0.9,0.5,1.2c0.3,0.3,0.7,0.4,1.3,0.4c0.8,0,1.6-0.2,2.5-0.7l2.1-1.1V41.9z"/>
			<path class="st1" d="M204.5,27.5c0,1.2-0.3,2.1-0.9,2.9c-0.6,0.7-1.4,1.1-2.5,1.1c-0.6,0-1.2-0.1-1.7-0.4
				c-0.5-0.3-0.9-0.6-1.3-0.8s-0.7-0.4-1.1-0.4c-0.7,0-1.1,0.5-1.1,1.6h-2.7v-0.2c0-1.2,0.3-2.1,0.9-2.8c0.6-0.7,1.4-1.1,2.5-1.1
				c0.6,0,1.2,0.1,1.7,0.4c0.5,0.3,0.9,0.6,1.3,0.8s0.7,0.4,1.1,0.4c0.8,0,1.1-0.5,1.1-1.6h2.7V27.5z"/>
		</g>
		<path class="st1" d="M187.9,47.9c-1.7,0-3.1-0.4-4.1-1.3c-1-0.9-1.5-2.1-1.5-3.7v-6.7h-2.2v-2.8h2.2v-3.9h3.4v3.9h4v2.8h-4v6.5
			c0,0.8,0.2,1.4,0.6,1.8s1,0.5,1.8,0.5h1.7v2.9H187.9z"/>
		<path class="st1" d="M175,38.1c0-1.5-1-2.3-3-2.3c-0.9,0-1.6,0.2-2.1,0.5c-0.5,0.3-0.7,0.8-0.7,1.3c0,0.6,0.3,1,0.9,1.3
			c0.6,0.3,1.4,0.4,2.3,0.5c0.9,0.1,1.8,0.2,2.7,0.4s1.7,0.6,2.3,1.2c0.6,0.6,0.9,1.5,0.9,2.6c0,1.4-0.6,2.5-1.7,3.3
			c-1.1,0.8-2.7,1.2-4.6,1.2c-2,0-3.6-0.4-4.7-1.3c-1.1-0.8-1.7-2-1.7-3.5v-0.2h3.4c0,1.5,1,2.3,3,2.3c0.9,0,1.7-0.2,2.2-0.5
			c0.5-0.3,0.8-0.8,0.8-1.3c0-0.5-0.2-0.8-0.7-1.1c-0.5-0.3-1-0.4-1.7-0.5c-0.7-0.1-1.4-0.2-2.2-0.3c-0.8-0.1-1.5-0.3-2.2-0.6
			c-0.7-0.2-1.2-0.6-1.7-1.3c-0.5-0.6-0.7-1.4-0.7-2.3c0-1.4,0.6-2.5,1.7-3.3c1.1-0.8,2.6-1.2,4.5-1.2c2,0,3.5,0.4,4.6,1.3
			c1.1,0.8,1.6,2,1.6,3.5v0.2H175z"/>
		<path class="st1" d="M162.9,43.3c0,1.5-0.6,2.6-1.7,3.5s-2.7,1.3-4.6,1.3c-1.9,0-3.5-0.5-4.7-1.5c-1.2-1-1.8-2.4-1.8-4.1v-3.5
			c0-1.8,0.6-3.3,1.8-4.4c1.2-1.1,2.7-1.6,4.6-1.6c1.9,0,3.5,0.5,4.7,1.6c1.2,1.1,1.8,2.5,1.8,4.4v2.6h-9.7v0.7c0,1,0.3,1.7,0.9,2.2
			c0.6,0.5,1.4,0.7,2.4,0.7c2.1,0,3.1-0.7,3.1-2.2h3.2V43.3z M159.8,39.1c0-1-0.3-1.8-0.9-2.4c-0.6-0.6-1.4-0.8-2.4-0.8
			c-1,0-1.8,0.3-2.4,0.8c-0.6,0.6-0.9,1.4-0.9,2.4v0.4h6.5V39.1z"/>
		<path class="st1" d="M147.1,40.9c0,2.3-0.8,4.1-2.3,5.4c-1.5,1.3-3.6,1.9-6.1,1.9c-2.5,0-4.6-0.7-6.2-2.1
			c-1.6-1.4-2.4-3.5-2.4-6.4v-4.1c0-2.8,0.8-5,2.4-6.4c1.6-1.4,3.7-2.1,6.2-2.1c2.6,0,4.6,0.6,6.1,1.9c1.5,1.3,2.3,3.1,2.3,5.5v0.3
			h-3.7c0-1.5-0.4-2.6-1.2-3.4c-0.8-0.8-2-1.1-3.5-1.1c-3.3,0-4.9,1.8-4.9,5.5v3.8c0,3.6,1.6,5.5,4.9,5.5c1.6,0,2.7-0.4,3.5-1.1
			c0.8-0.7,1.2-1.8,1.2-3.2h-3.8V38h7.5V40.9z"/>
	</g>
	<g>
		<path class="st1" d="M119.6,47.9V38c0-1.2-0.5-1.8-1.5-1.8c-0.5,0-1,0.2-1.7,0.6l-1.8,1.1v10h-3.3V38c0-1.2-0.5-1.8-1.5-1.8
			c-0.5,0-1.1,0.2-1.8,0.6l-1.7,1.1v10h-3.3V33.3h3.3v1.5l1.3-0.8c1-0.6,2-0.9,3.1-0.9c1.7,0,2.8,0.7,3.5,2l1.6-1
			c1.1-0.7,2.2-1,3.3-1c1.3,0,2.3,0.4,3,1.2c0.7,0.8,1.1,1.9,1.1,3.3v10.3H119.6z"/>
		<path class="st1" d="M99.7,43.3c0,1.5-0.6,2.6-1.7,3.5s-2.7,1.3-4.6,1.3c-1.9,0-3.5-0.5-4.7-1.5c-1.2-1-1.8-2.4-1.8-4.1v-3.5
			c0-1.8,0.6-3.3,1.8-4.4c1.2-1.1,2.7-1.6,4.6-1.6c1.9,0,3.5,0.5,4.7,1.6c1.2,1.1,1.8,2.5,1.8,4.4v2.6H90v0.7c0,1,0.3,1.7,0.9,2.2
			c0.6,0.5,1.4,0.7,2.4,0.7c2.1,0,3.1-0.7,3.1-2.2h3.2V43.3z M96.5,39.1c0-1-0.3-1.8-0.9-2.4c-0.6-0.6-1.4-0.8-2.4-0.8
			c-1,0-1.8,0.3-2.4,0.8c-0.6,0.6-0.9,1.4-0.9,2.4v0.4h6.5V39.1z"/>
	</g>
	<g>
		<path class="st1" d="M285.4,16.3c0,1.8-0.6,3.2-1.8,4.3c-1.2,1.1-2.8,1.6-4.8,1.6s-3.5-0.5-4.8-1.6c-1.2-1.1-1.8-2.5-1.8-4.3v-3.2
			c0-1.8,0.6-3.3,1.8-4.4c1.2-1.1,2.8-1.6,4.8-1.6s3.5,0.5,4.8,1.6c1.2,1.1,1.8,2.5,1.8,4.4V16.3z M282.1,13.5
			c0-1.1-0.3-1.9-0.9-2.5c-0.6-0.6-1.4-0.9-2.4-0.9s-1.8,0.3-2.4,0.9c-0.6,0.6-0.9,1.4-0.9,2.5V16c0,1.1,0.3,1.9,0.9,2.5
			c0.6,0.6,1.4,0.9,2.4,0.9s1.8-0.3,2.4-0.9c0.6-0.6,0.9-1.4,0.9-2.5V13.5z"/>
		<g>
			<path class="st1" d="M265.9,22v-1.7l-1.5,0.8c-1.3,0.7-2.6,1.1-3.8,1.1c-1.3,0-2.3-0.4-3.1-1.1c-0.8-0.8-1.2-1.8-1.2-3
				c0-1.5,0.5-2.6,1.5-3.3c1-0.8,2.3-1.1,3.9-1.1h4.3v-0.9c0-1.9-1-2.8-3-2.8c-2.1,0-3.1,0.8-3.1,2.5h-3.3v-0.2
				c0-1.6,0.6-2.9,1.7-3.8c1.2-0.9,2.7-1.4,4.6-1.4c2,0,3.5,0.5,4.6,1.4c1.1,1,1.6,2.3,1.6,4V22H265.9z M265.9,15.9H262
				c-1.7,0-2.5,0.6-2.5,1.9c0,0.5,0.2,0.9,0.5,1.2c0.3,0.3,0.7,0.4,1.3,0.4c0.8,0,1.6-0.2,2.5-0.7l2.1-1.1V15.9z"/>
			<path class="st1" d="M268.8,1.6c0,1.2-0.3,2.1-0.9,2.9c-0.6,0.7-1.4,1.1-2.5,1.1c-0.6,0-1.2-0.1-1.7-0.4s-0.9-0.6-1.3-0.8
				c-0.4-0.3-0.7-0.4-1.1-0.4c-0.7,0-1.1,0.5-1.1,1.6h-2.7V5.2c0-1.2,0.3-2.1,0.9-2.8c0.6-0.7,1.4-1.1,2.5-1.1
				c0.6,0,1.2,0.1,1.7,0.4s0.9,0.6,1.3,0.8c0.4,0.3,0.7,0.4,1.1,0.4c0.8,0,1.1-0.5,1.1-1.6h2.7V1.6z"/>
		</g>
		<path class="st1" d="M245.4,24.2l1.1-2c-1.7-0.1-3-0.7-3.9-1.7c-1-1-1.4-2.3-1.4-3.9v-3.6c0-1.8,0.6-3.2,1.7-4.2
			c1.1-1,2.7-1.5,4.6-1.5c1.9,0,3.5,0.5,4.6,1.4c1.1,1,1.7,2.3,1.7,4.1V13h-3.2c0-2-1-2.9-3.1-2.9c-2,0-3,1-3,3.1v3
			c0,2.1,1,3.1,3,3.1c2,0,3.1-1,3.1-2.9h3.2v0.2c0,1.6-0.5,2.9-1.4,3.8s-2.2,1.5-3.8,1.7l-0.6,0.9c0.7,0,1.3,0.2,1.7,0.5
			c0.4,0.3,0.6,0.8,0.6,1.4c0,0.7-0.3,1.3-0.8,1.7c-0.5,0.4-1.3,0.6-2.3,0.6c-1,0-1.7-0.2-2.3-0.6s-0.8-0.9-0.8-1.6V25h2.1
			c0,0.5,0.3,0.7,1,0.7c0.7,0,1-0.3,1-0.8c0-0.5-0.5-0.8-1.4-0.8H245.4z"/>
		<path class="st1" d="M234.8,22v-1.7l-1.5,0.8c-1.3,0.7-2.6,1.1-3.8,1.1c-1.3,0-2.3-0.4-3.1-1.1c-0.8-0.8-1.2-1.8-1.2-3
			c0-1.5,0.5-2.6,1.5-3.3c1-0.8,2.3-1.1,3.9-1.1h4.3v-0.9c0-1.9-1-2.8-3-2.8c-2.1,0-3.1,0.8-3.1,2.5h-3.3v-0.2
			c0-1.6,0.6-2.9,1.7-3.8c1.2-0.9,2.7-1.4,4.6-1.4c2,0,3.5,0.5,4.6,1.4c1.1,1,1.6,2.3,1.6,4V22H234.8z M234.8,15.9H231
			c-1.7,0-2.5,0.6-2.5,1.9c0,0.5,0.2,0.9,0.5,1.2c0.3,0.3,0.7,0.4,1.3,0.4c0.8,0,1.6-0.2,2.5-0.7l2.1-1.1V15.9z"/>
		<path class="st1" d="M218.9,22v-1.7l-1.5,0.9c-1,0.6-2.1,0.9-3.2,0.9c-1.4,0-2.5-0.4-3.4-1.3c-0.8-0.9-1.2-2-1.2-3.4v-10h3.4V17
			c0,0.6,0.2,1.2,0.5,1.5s0.8,0.6,1.4,0.6c0.6,0,1.2-0.2,1.9-0.6l2.1-1.2V7.4h3.3V22H218.9z"/>
		<path class="st1" d="M202.9,22v-1.6l-1.7,0.9c-1,0.6-2.1,0.9-3.3,0.9c-1.5,0-2.7-0.5-3.6-1.4c-0.9-0.9-1.4-2.1-1.4-3.6v-4.9
			c0-1.5,0.5-2.7,1.4-3.6s2.2-1.4,3.6-1.4c1.1,0,2.2,0.3,3.2,0.9l1.7,0.9V1.4h3.3V22H202.9z M202.9,12.1l-2.3-1.3
			c-0.7-0.4-1.4-0.6-2-0.6c-0.7,0-1.3,0.2-1.7,0.6c-0.4,0.4-0.6,1-0.6,1.7v4.1c0,0.7,0.2,1.3,0.6,1.8c0.4,0.4,1,0.6,1.7,0.6
			c0.6,0,1.3-0.2,2-0.6l2.3-1.3V12.1z"/>
		<path class="st1" d="M186.6,22v-1.7l-1.5,0.8c-1.3,0.7-2.6,1.1-3.8,1.1c-1.3,0-2.3-0.4-3.1-1.1c-0.8-0.8-1.2-1.8-1.2-3
			c0-1.5,0.5-2.6,1.5-3.3c1-0.8,2.3-1.1,3.9-1.1h4.3v-0.9c0-1.9-1-2.8-3-2.8c-2.1,0-3.1,0.8-3.1,2.5h-3.3v-0.2
			c0-1.6,0.6-2.9,1.7-3.8c1.2-0.9,2.7-1.4,4.6-1.4c2,0,3.5,0.5,4.6,1.4c1.1,1,1.6,2.3,1.6,4V22H186.6z M186.6,15.9h-3.9
			c-1.7,0-2.5,0.6-2.5,1.9c0,0.5,0.2,0.9,0.5,1.2c0.3,0.3,0.7,0.4,1.3,0.4c0.8,0,1.6-0.2,2.5-0.7l2.1-1.1V15.9z"/>
		<path class="st1" d="M166.9,22V7.4h3.3v2.1l0.6-0.6c1.1-1,2.3-1.5,3.6-1.5h0.9v3.4h-0.8c-1.2,0-2.2,0.3-3.1,1l-1.1,0.9V22H166.9z"
			/>
		<path class="st1" d="M163.6,14.9c0,2.3-0.8,4.1-2.3,5.4c-1.5,1.3-3.6,1.9-6.1,1.9c-2.5,0-4.6-0.7-6.2-2.1
			c-1.6-1.4-2.4-3.5-2.4-6.4V9.7c0-2.8,0.8-5,2.4-6.4c1.6-1.4,3.7-2.1,6.2-2.1c2.6,0,4.6,0.6,6.1,1.9c1.5,1.3,2.3,3.1,2.3,5.5V9
			h-3.7c0-1.5-0.4-2.6-1.2-3.4c-0.8-0.8-2-1.1-3.5-1.1c-3.3,0-4.9,1.8-4.9,5.5v3.8c0,3.6,1.6,5.5,4.9,5.5c1.6,0,2.7-0.4,3.5-1.1
			c0.8-0.7,1.2-1.8,1.2-3.2h-3.8v-2.8h7.5V14.9z"/>
		<rect x="135.3" y="12.4" class="st1" width="8.3" height="3"/>
		<path class="st1" d="M129.4,12.1c0-1.5-1-2.3-3-2.3c-0.9,0-1.6,0.2-2.1,0.5c-0.5,0.3-0.7,0.8-0.7,1.3c0,0.6,0.3,1,0.9,1.3
			c0.6,0.3,1.4,0.4,2.3,0.5c0.9,0.1,1.8,0.2,2.7,0.4s1.7,0.6,2.3,1.2c0.6,0.6,0.9,1.5,0.9,2.6c0,1.4-0.6,2.5-1.7,3.3
			c-1.1,0.8-2.7,1.2-4.6,1.2c-2,0-3.6-0.4-4.7-1.3c-1.1-0.8-1.7-2-1.7-3.5v-0.2h3.4c0,1.5,1,2.3,3,2.3c0.9,0,1.7-0.2,2.2-0.5
			c0.5-0.3,0.8-0.8,0.8-1.3c0-0.5-0.2-0.8-0.7-1.1c-0.5-0.3-1-0.4-1.7-0.5c-0.7-0.1-1.4-0.2-2.2-0.3c-0.8-0.1-1.5-0.3-2.2-0.6
			c-0.7-0.2-1.2-0.6-1.7-1.3c-0.5-0.6-0.7-1.4-0.7-2.3c0-1.4,0.6-2.5,1.7-3.3c1.1-0.8,2.6-1.2,4.5-1.2c2,0,3.5,0.4,4.6,1.3
			c1.1,0.8,1.6,2,1.6,3.5v0.2H129.4z"/>
		<g>
			<path class="st1" d="M117.4,16.3c0,1.8-0.6,3.2-1.8,4.3c-1.2,1.1-2.8,1.6-4.8,1.6s-3.5-0.5-4.8-1.6c-1.2-1.1-1.8-2.5-1.8-4.3
				v-3.2c0-1.8,0.6-3.3,1.8-4.4c1.2-1.1,2.8-1.6,4.8-1.6s3.5,0.5,4.8,1.6c1.2,1.1,1.8,2.5,1.8,4.4V16.3z M114.2,13.5
				c0-1.1-0.3-1.9-0.9-2.5c-0.6-0.6-1.4-0.9-2.4-0.9c-1,0-1.8,0.3-2.4,0.9c-0.6,0.6-0.9,1.4-0.9,2.5V16c0,1.1,0.3,1.9,0.9,2.5
				c0.6,0.6,1.4,0.9,2.4,0.9c1,0,1.8-0.3,2.4-0.9c0.6-0.6,0.9-1.4,0.9-2.5V13.5z"/>
			<polygon class="st1" points="108.2,5.4 111.2,1.4 115.5,1.4 111.9,5.4 			"/>
		</g>
		<path class="st1" d="M87.3,22V1.4H96c1.9,0,3.4,0.6,4.6,1.7s1.8,2.7,1.8,4.7c0,2-0.7,3.5-2,4.7c-1.3,1.2-2.9,1.7-4.7,1.7H91V22
			H87.3z M95.6,11c1,0,1.8-0.3,2.3-0.9c0.6-0.6,0.9-1.4,0.9-2.4c0-1-0.3-1.8-0.8-2.3c-0.6-0.5-1.3-0.8-2.3-0.8H91V11H95.6z"/>
	</g>
</g>
<g>
	<path class="st0" d="M75.2,49.6H64.8c-0.4,0-0.7,0.3-0.7,0.7V75c0,0.4,0.3,0.7,0.7,0.7h10.4c0.4,0,0.7-0.3,0.7-0.7V50.3
		C75.9,49.9,75.6,49.6,75.2,49.6z"/>
	<path class="st0" d="M59.2,54.3H48.8c-0.4,0-0.7,0.3-0.7,0.7V75c0,0.4,0.3,0.7,0.7,0.7h10.4c0.4,0,0.7-0.3,0.7-0.7V55
		C59.9,54.6,59.6,54.3,59.2,54.3z"/>
	<path class="st0" d="M43.2,61.4H32.7c-0.4,0-0.7,0.3-0.7,0.7V75c0,0.4,0.3,0.7,0.7,0.7h10.4c0.4,0,0.7-0.3,0.7-0.7V62.2
		C43.9,61.8,43.6,61.4,43.2,61.4z"/>
	<path class="st0" d="M27.2,54.3H16.7c-0.4,0-0.7,0.3-0.7,0.7V75c0,0.4,0.3,0.7,0.7,0.7h10.4c0.4,0,0.7-0.3,0.7-0.7V55
		C27.9,54.6,27.6,54.3,27.2,54.3z"/>
	<path class="st0" d="M11.1,66.2H0.7c-0.4,0-0.7,0.3-0.7,0.7V75c0,0.4,0.3,0.7,0.7,0.7h10.4c0.4,0,0.7-0.3,0.7-0.7v-8.1
		C11.9,66.5,11.5,66.2,11.1,66.2z"/>
	<path class="st1" d="M75.1,28.7L71.4,30c-0.4,0.1-0.7,0.5-0.8,0.9c-0.1,0.5-0.3,1-0.4,1.6c-0.1,0.4,0,0.8,0.2,1.1l2.6,2.9
		c0.3,0.4,0.4,0.9,0.1,1.4l-1.5,2.6c-0.3,0.4-0.8,0.7-1.3,0.6l-3.8-0.8c-0.4-0.1-0.8,0.1-1.1,0.4c-0.4,0.4-0.7,0.8-1.1,1.1
		C64,42,63.9,42.4,64,42.9l0.8,3.8c0.1,0.5-0.1,1-0.6,1.3l-2.6,1.5c-0.4,0.3-1,0.2-1.4-0.1l-2.9-2.6c-0.3-0.3-0.7-0.4-1.1-0.2
		c-0.5,0.2-1,0.3-1.6,0.4c-0.4,0.1-0.7,0.4-0.9,0.8l-1.2,3.7c-0.2,0.5-0.6,0.8-1.1,0.8h-3c-0.5,0-1-0.3-1.1-0.8l-1.2-3.7
		c-0.1-0.4-0.5-0.7-0.9-0.8c-0.5-0.1-1-0.3-1.6-0.4c-0.4-0.1-0.8,0-1.1,0.2l-2.9,2.6c-0.4,0.3-0.9,0.4-1.4,0.1l-2.6-1.5
		c-0.4-0.3-0.7-0.8-0.6-1.3l0.8-3.8c0.1-0.4-0.1-0.8-0.4-1.1c-0.4-0.4-0.8-0.7-1.1-1.1c-0.3-0.3-0.7-0.4-1.1-0.4L29.2,41
		c-0.5,0.1-1-0.1-1.3-0.6l-1.5-2.6c-0.3-0.4-0.2-1,0.1-1.4l2.6-2.9c0.3-0.3,0.4-0.7,0.2-1.1c-0.2-0.5-0.3-1-0.4-1.6
		c-0.1-0.4-0.4-0.7-0.8-0.9l-3.7-1.2c-0.5-0.2-0.8-0.6-0.8-1.1v-3c0-0.5,0.3-1,0.8-1.1l3.7-1.2c0.4-0.1,0.7-0.5,0.8-0.9
		c0.1-0.5,0.3-1,0.4-1.6c0.1-0.4,0-0.8-0.2-1.1l-2.6-2.9c-0.3-0.4-0.4-0.9-0.1-1.4l1.5-2.6c0.3-0.4,0.8-0.7,1.3-0.6l3.8,0.8
		c0.4,0.1,0.8-0.1,1.1-0.4c0.4-0.4,0.7-0.8,1.1-1.1c0.3-0.3,0.4-0.7,0.4-1.1l-0.8-3.8c-0.1-0.5,0.1-1,0.6-1.3l2.6-1.5
		c0.4-0.3,1-0.2,1.4,0.1l2.9,2.6c0.3,0.3,0.7,0.4,1.1,0.2c0.5-0.2,1-0.3,1.6-0.4c0.4-0.1,0.7-0.4,0.9-0.8l1.2-3.7
		C47.3,0.3,47.8,0,48.3,0h3c0.5,0,1,0.3,1.1,0.8l1.2,3.7c0.1,0.4,0.5,0.7,0.9,0.8c0.5,0.1,1,0.3,1.6,0.4c0.4,0.1,0.8,0,1.1-0.2
		l2.9-2.6c0.4-0.3,0.9-0.4,1.4-0.1l2.6,1.5c0.4,0.3,0.7,0.8,0.6,1.3L64,9.3c-0.1,0.4,0.1,0.8,0.4,1.1c0.4,0.4,0.8,0.7,1.1,1.1
		c0.3,0.3,0.7,0.4,1.1,0.4l3.8-0.8c0.5-0.1,1,0.1,1.3,0.6l1.5,2.6c0.3,0.4,0.2,1-0.1,1.4l-2.6,2.9c-0.3,0.3-0.4,0.7-0.2,1.1
		c0.2,0.5,0.3,1,0.4,1.6c0.1,0.4,0.4,0.7,0.8,0.9l3.7,1.2c0.5,0.2,0.8,0.6,0.8,1.1v3C75.9,28.1,75.6,28.6,75.1,28.7z M49.8,7.1
		c-10.5,0-19,8.5-19,19s8.5,19,19,19s19-8.5,19-19S60.3,7.1,49.8,7.1z"/>
	<path class="st1" d="M66.4,26.1c0,9.2-7.4,16.6-16.6,16.6s-16.6-7.4-16.6-16.6S40.6,9.5,49.8,9.5S66.4,16.9,66.4,26.1z M49.8,11.9
		c-7.9,0-14.2,6.4-14.2,14.2S42,40.3,49.8,40.3S64.1,34,64.1,26.1S57.7,11.9,49.8,11.9z"/>
	<path class="st0" d="M26.4,21.6l-3.2,0.3c-0.2,0-0.4,0.1-0.5,0.3c-0.3,0.4-0.5,0.7-0.8,1.1c-0.1,0.2-0.2,0.4-0.2,0.6l0.5,3.2
		c0,0.3-0.1,0.6-0.3,0.7l-2,1.2c-0.3,0.1-0.6,0.1-0.8-0.1l-2.5-2c-0.2-0.1-0.4-0.2-0.6-0.1c-0.4,0.1-0.9,0.1-1.4,0.2
		c-0.2,0-0.4,0.1-0.5,0.3l-1.9,2.6c-0.2,0.2-0.5,0.3-0.8,0.3l-2.3-0.6c-0.3-0.1-0.5-0.3-0.5-0.6l-0.3-3.2c0-0.2-0.1-0.4-0.3-0.5
		c-0.4-0.3-0.7-0.5-1.1-0.8c-0.2-0.1-0.4-0.2-0.6-0.2l-3.2,0.5c-0.3,0-0.6-0.1-0.7-0.3l-1.2-2c-0.1-0.3-0.1-0.6,0.1-0.8l2-2.5
		c0.1-0.2,0.2-0.4,0.1-0.6c-0.1-0.4-0.1-0.9-0.2-1.4c0-0.2-0.1-0.4-0.3-0.5l-2.6-1.9c-0.2-0.2-0.3-0.5-0.3-0.8l0.6-2.3
		c0.1-0.3,0.3-0.5,0.6-0.5l3.2-0.3c0.2,0,0.4-0.1,0.5-0.3C5.4,10.1,5.7,9.7,6,9.4C6.1,9.2,6.2,9,6.1,8.8L5.6,5.6
		c0-0.3,0.1-0.6,0.3-0.7l2-1.2c0.3-0.1,0.6-0.1,0.8,0.1l2.5,2C11.4,6,11.6,6,11.9,6c0.4-0.1,0.9-0.1,1.4-0.2c0.2,0,0.4-0.1,0.5-0.3
		l1.9-2.6c0.2-0.2,0.5-0.3,0.8-0.3l2.3,0.6c0.3,0.1,0.5,0.3,0.5,0.6l0.3,3.2c0,0.2,0.1,0.4,0.3,0.5c0.4,0.3,0.7,0.5,1.1,0.8
		c0.2,0.1,0.4,0.2,0.6,0.2l3.2-0.5c0.3,0,0.6,0.1,0.7,0.3l1.2,2c0.1,0.3,0.1,0.6-0.1,0.8l-2,2.5c-0.1,0.2-0.2,0.4-0.1,0.6
		c0.1,0.4,0.1,0.9,0.2,1.4c0,0.2,0.1,0.4,0.3,0.5l2.6,1.9c0.2,0.2,0.3,0.5,0.3,0.8L27,21.1C27,21.4,26.7,21.6,26.4,21.6z M13.9,7.6
		c-4.8,0-8.8,3.9-8.8,8.8s3.9,8.8,8.8,8.8s8.8-3.9,8.8-8.8S18.8,7.6,13.9,7.6z"/>
	<path class="st0" d="M13.9,8.8c-4.2,0-7.6,3.4-7.6,7.6S9.7,24,13.9,24s7.6-3.4,7.6-7.6S18.1,8.8,13.9,8.8z M13.9,22.3
		c-3.3,0-5.9-2.7-5.9-5.9s2.7-5.9,5.9-5.9s5.9,2.7,5.9,5.9S17.2,22.3,13.9,22.3z"/>
	<path class="st0" d="M13.9,12.3c-2.2,0-4,1.8-4,4c0,2.2,1.8,4,4,4s4-1.8,4-4C17.9,14.1,16.1,12.3,13.9,12.3z M13.9,18.7
		c-1.3,0-2.4-1.1-2.4-2.4c0-1.3,1.1-2.4,2.4-2.4s2.4,1.1,2.4,2.4C16.3,17.7,15.2,18.7,13.9,18.7z"/>
	<path class="st0" d="M24.8,36.9l-5.5,5.5c-0.2,0.2-0.5,0.2-0.7,0l-8.8-8.8c-0.2-0.2-0.5-0.2-0.7,0l-8.8,8.8C0.1,42.6,0,42.9,0,43.2
		v6.1c0,1.1,1.3,1.6,2,0.8L9.2,43c0.2-0.2,0.5-0.2,0.7,0l8.8,8.8c0.2,0.2,0.5,0.2,0.7,0l9-9C26.9,41,25.7,39.1,24.8,36.9z"/>
	<path class="st0" d="M50.2,25.8c-0.2,0.2-0.5,0.2-0.7,0L43,19.3c-0.2-0.2-0.5-0.2-0.7,0l-5.5,5.5c0,0.4-0.1,0.8-0.1,1.2
		c0,2.4,0.7,4.6,1.8,6.5l3.8-3.8c0.2-0.2,0.5-0.2,0.7,0l6.4,6.4c0.2,0.2,0.5,0.2,0.7,0l12.3-12.3c-0.6-2.3-1.8-4.4-3.4-6.1
		L50.2,25.8z"/>
	<path class="st0" d="M75.6,9.8c0.2-0.2,0.3-0.5,0.3-0.8V2.9c0-1.1-1.3-1.6-2-0.8l-4.8,4.8c1.6,1.6,3,3.4,4.2,5.3L75.6,9.8z"/>
</g>
</svg>
