<?xml version="1.0" encoding="utf-8"?>
<!-- Generator: Adobe Illustrator 23.0.1, SVG Export Plug-In . SVG Version: 6.00 Build 0)  -->
<svg version="1.1" id="Layer_1" xmlns="http://www.w3.org/2000/svg" xmlns:xlink="http://www.w3.org/1999/xlink" x="0px" y="0px"
	 viewBox="0 0 800 346.3" style="enable-background:new 0 0 800 346.3;" xml:space="preserve">
<style type="text/css">
	.st0{fill:#44A929;}
	.st1{fill:#00933D;}
</style>
<g>
	<path class="st0" d="M9.5,84.6c0-24.4,1-33.5,4.6-44.9C22.5,13.3,45.2,0,74.4,0C105,0,125,15.2,132.7,35c0.7,1.4,0.5,2.9-1,3.6
		L106,49.4c-1.7,0.5-2.9,0-3.4-1.2c-6.5-11.1-14.7-16.9-28.2-16.9c-14,0-22.7,7-26.3,18.3c-1.9,5.8-2.6,13.5-2.6,35
		s0.7,29.4,2.6,35.2c3.6,11.3,12.5,18.1,26.8,18.1c12.3,0,22.9-6,26.3-16.9c1.2-4.1,1.9-9.2,1.9-16.2c0-1-0.5-1.4-1.4-1.4H79.4
		c-1.4,0-2.4-1-2.4-2.4V77.9c0-1.4,1-2.4,2.4-2.4h56.4c1.4,0,2.4,1,2.4,2.4v13.5c0,14.5-1.2,28-4.1,36.9c-8.2,26.3-30.9,41-59.8,41
		c-29.2,0-51.8-13.3-60.3-39.8C10.5,118.2,9.5,109,9.5,84.6z"/>
	<path class="st0" d="M197.1,166.6c-1.4,0-2.4-1-2.4-2.4V35.7c0-1-0.5-1.4-1.4-1.4h-41.5c-1.4,0-2.4-1-2.4-2.4V5.1
		c0-1.4,1-2.4,2.4-2.4h121.3c1.4,0,2.4,1,2.4,2.4v26.8c0,1.4-1,2.4-2.4,2.4h-41.5c-1,0-1.4,0.5-1.4,1.4v128.5c0,1.4-1,2.4-2.4,2.4
		H197.1z"/>
	<path class="st0" d="M295.3,5.1c0-1.4,1-2.4,2.4-2.4h61c28.7,0,48.7,12.3,56.7,36.9c2.9,9.2,4.3,18.3,4.3,45.1s-1.4,35.9-4.3,45.1
		c-8,24.6-28,36.9-56.7,36.9h-61c-1.4,0-2.4-1-2.4-2.4V5.1z M332.2,135h18.6c16.4,0,26.3-4.8,30.4-18.1c1.7-4.8,2.6-11.1,2.6-32.3
		s-1-27.5-2.6-32.3c-4.1-13.3-14-18.1-30.4-18.1h-18.6c-1,0-1.4,0.5-1.4,1.4v97.9C330.8,134.6,331.3,135,332.2,135z"/>
	<path class="st1" d="M32.7,226.4c0.3-0.8,0.8-1.4,1.8-1.4h17.6c1,0,1.5,0.6,1.8,1.4l32,91.9c0.3,0.8,0,1.4-1,1.4H66.8
		c-1,0-1.5-0.4-1.8-1.4l-5.4-16.6H26.4l-5.3,16.6c-0.3,1-0.8,1.4-1.8,1.4H1.1c-1,0-1.3-0.6-1-1.4L32.7,226.4z M54,284.4l-10.7-33.2
		h-0.4l-10.7,33.2H54z"/>
	<path class="st1" d="M95.7,336.2c-0.6-0.7-0.6-1.4,0.1-2.1l9.9-10c0.7-0.7,1.4-0.7,2.1,0c4.2,3.8,8.6,5.9,13.9,5.9
		c9.3,0,13.5-5,13.5-14.9v-5.7h-0.1c-2.9,4.7-8.8,7.8-17.3,7.8c-11.1,0-19.1-5.6-22.6-16.3c-1.5-5-2.2-9.6-2.2-16.9
		c0-7.2,0.7-12,2.2-16.9c3.5-10.7,11.4-16.3,22.6-16.3c8.5,0,14.3,3.1,17.3,7.8h0.1v-4.9c0-0.8,0.6-1.4,1.4-1.4h16.7
		c0.8,0,1.4,0.6,1.4,1.4v58.8c0,22.6-11.4,33.8-33.6,33.8C111.1,346.3,100.5,342,95.7,336.2z M134,293.4c0.8-2.5,1.3-5.3,1.3-9.5
		c0-4.2-0.4-7-1.3-9.5c-1.5-4.7-4.6-7.2-10-7.2c-5.3,0-8.4,2.5-10,7.2c-0.7,2.5-1.1,5.3-1.1,9.5c0,4.2,0.4,7,1.1,9.5
		c1.7,4.7,4.7,7.2,10,7.2C129.4,300.7,132.4,298.1,134,293.4z"/>
	<path class="st1" d="M173.7,319.7c-0.8,0-1.4-0.6-1.4-1.4v-64.6c0-0.8,0.6-1.4,1.4-1.4h16.7c0.8,0,1.4,0.6,1.4,1.4v5.7h0.1
		c3.2-5.4,9.3-8.6,17.6-8.6c4.5,0,8.9,1.5,11.8,4c0.7,0.6,0.8,1.1,0.4,2l-7.8,14.2c-0.6,0.7-1.1,0.7-1.9,0.3
		c-3.2-2.1-6.4-3.2-9.8-3.1c-7.2,0.3-10.4,5.6-10.4,14.6v35.5c0,0.8-0.6,1.4-1.4,1.4H173.7z"/>
	<path class="st1" d="M228,302.3c-1.5-4.9-2.2-9.6-2.2-16.3c0-6.7,0.7-11.4,2.2-16.3c3.9-12.3,15-18.9,29.3-18.9
		c14.2,0,25.4,6.7,29.3,18.9c1.5,4.9,2.2,9.6,2.2,16.3c0,6.7-0.7,11.4-2.2,16.3c-3.9,12.3-15,18.9-29.3,18.9
		C243.1,321.3,231.9,314.6,228,302.3z M267.7,297.6c1-3.1,1.3-5.9,1.3-11.6c0-5.7-0.3-8.5-1.3-11.6c-1.5-4.7-5.3-7.2-10.4-7.2
		c-5.2,0-8.9,2.5-10.4,7.2c-1,3.1-1.3,5.9-1.3,11.6c0,5.7,0.3,8.5,1.3,11.6c1.5,4.7,5.3,7.2,10.4,7.2
		C262.4,304.8,266.2,302.3,267.7,297.6z"/>
	<path class="st1" d="M302,302c-1.4-4.2-2.4-9.1-2.4-16c0-7.1,0.8-12,2.2-16.2c3.9-12.1,14.6-19.1,29-19.1
		c14.9,0,25.2,7.1,29.1,18.9c1.4,4.5,2.2,9.3,2.2,20.8c0,0.8-0.6,1.4-1.5,1.4h-40.8c-0.6,0-0.8,0.3-0.8,0.8c0.1,1.4,0.4,2.6,0.8,3.8
		c1.8,5.9,7,8.9,13.9,8.9c6.7,0,11.6-2.4,15.5-6c0.7-0.6,1.4-0.7,1.9,0l9.2,8.6c0.7,0.6,0.7,1.4,0.1,1.9
		c-6.4,6.8-16.3,11.3-28.7,11.3C316.5,321.3,305.9,314.2,302,302z M342.1,278.9c0.6,0,0.8-0.3,0.8-0.8c0-2.1-0.3-3.6-0.7-5
		c-1.5-4.6-5.7-7.4-11.3-7.4c-5.6,0-9.8,2.8-11.3,7.4c-0.4,1.4-0.7,2.9-0.7,5c0,0.6,0.3,0.8,0.8,0.8H342.1z"/>
	<path class="st1" d="M375.1,302.2c-1.4-4-2.1-9.1-2.1-16.2c0-7.1,0.7-12.1,2.1-16.2c4-12.5,14.9-19.1,29.1-19.1
		c11.6,0,20.6,5.3,25.5,12.7c0.4,0.7,0.4,1.4-0.3,1.9l-12.1,7.9c-0.8,0.6-1.5,0.4-2.1-0.3c-2.9-4-5.9-5.9-10.7-5.9
		c-5.2,0-8.9,2.4-10.4,7.2c-1,2.8-1.3,6-1.3,11.6c0,5.6,0.3,8.8,1.3,11.6c1.5,4.9,5.3,7.2,10.4,7.2c4.9,0,7.8-1.8,10.7-5.8
		c0.6-0.7,1.3-0.8,2.1-0.3l12.1,7.9c0.7,0.6,0.7,1.3,0.3,1.9c-4.9,7.4-13.9,12.7-25.5,12.7C390,321.3,379.2,314.7,375.1,302.2z"/>
	<path class="st1" d="M439.8,302.3c-1.5-4.9-2.2-9.6-2.2-16.3c0-6.7,0.7-11.4,2.2-16.3c3.9-12.3,15-18.9,29.3-18.9
		c14.2,0,25.4,6.7,29.3,18.9c1.5,4.9,2.2,9.6,2.2,16.3c0,6.7-0.7,11.4-2.2,16.3c-3.9,12.3-15,18.9-29.3,18.9
		C454.8,321.3,443.7,314.6,439.8,302.3z M479.5,297.6c1-3.1,1.3-5.9,1.3-11.6c0-5.7-0.3-8.5-1.3-11.6c-1.5-4.7-5.3-7.2-10.4-7.2
		c-5.2,0-8.9,2.5-10.4,7.2c-1,3.1-1.3,5.9-1.3,11.6c0,5.7,0.3,8.5,1.3,11.6c1.5,4.7,5.3,7.2,10.4,7.2
		C474.2,304.8,477.9,302.3,479.5,297.6z"/>
	<path class="st1" d="M535.3,320.6c-14.9,0-20.9-6.5-20.9-21.5v-72.7c0-0.8,0.6-1.4,1.4-1.4h16.7c0.8,0,1.4,0.6,1.4,1.4v71.2
		c0,4.6,1.8,6.4,5.9,6.4h2.9c0.8,0,1.4,0.6,1.4,1.4v13.8c0,0.8-0.6,1.4-1.4,1.4H535.3z"/>
	<path class="st1" d="M555.9,302.3c-1.5-4.9-2.2-9.6-2.2-16.3c0-6.7,0.7-11.4,2.2-16.3c3.9-12.3,15-18.9,29.3-18.9
		c14.2,0,25.4,6.7,29.3,18.9c1.5,4.9,2.2,9.6,2.2,16.3c0,6.7-0.7,11.4-2.2,16.3c-3.9,12.3-15,18.9-29.3,18.9
		C571,321.3,559.8,314.6,555.9,302.3z M595.6,297.6c1-3.1,1.3-5.9,1.3-11.6c0-5.7-0.3-8.5-1.3-11.6c-1.5-4.7-5.3-7.2-10.4-7.2
		s-8.9,2.5-10.4,7.2c-1,3.1-1.3,5.9-1.3,11.6c0,5.7,0.3,8.5,1.3,11.6c1.5,4.7,5.3,7.2,10.4,7.2S594.1,302.3,595.6,297.6z"/>
	<path class="st1" d="M629.9,336.2c-0.6-0.7-0.6-1.4,0.1-2.1l9.9-10c0.7-0.7,1.4-0.7,2.1,0c4.2,3.8,8.6,5.9,13.9,5.9
		c9.3,0,13.5-5,13.5-14.9v-5.7h-0.1c-2.9,4.7-8.8,7.8-17.3,7.8c-11.1,0-19.1-5.6-22.6-16.3c-1.5-5-2.2-9.6-2.2-16.9
		c0-7.2,0.7-12,2.2-16.9c3.5-10.7,11.4-16.3,22.6-16.3c8.5,0,14.3,3.1,17.3,7.8h0.1v-4.9c0-0.8,0.6-1.4,1.4-1.4h16.7
		c0.8,0,1.4,0.6,1.4,1.4v58.8c0,22.6-11.4,33.8-33.6,33.8C645.4,346.3,634.8,342,629.9,336.2z M668.2,293.4c0.8-2.5,1.3-5.3,1.3-9.5
		c0-4.2-0.4-7-1.3-9.5c-1.5-4.7-4.6-7.2-10-7.2c-5.3,0-8.4,2.5-10,7.2c-0.7,2.5-1.1,5.3-1.1,9.5c0,4.2,0.4,7,1.1,9.5
		c1.7,4.7,4.7,7.2,10,7.2C663.6,300.7,666.7,298.1,668.2,293.4z"/>
	<path class="st1" d="M707.9,241.6c-0.8,0-1.4-0.6-1.4-1.4v-13.8c0-0.8,0.6-1.4,1.4-1.4h16.7c0.8,0,1.4,0.6,1.4,1.4v13.8
		c0,0.8-0.6,1.4-1.4,1.4H707.9z M707.9,319.7c-0.8,0-1.4-0.6-1.4-1.4v-64.6c0-0.8,0.6-1.4,1.4-1.4h16.7c0.8,0,1.4,0.6,1.4,1.4v64.6
		c0,0.8-0.6,1.4-1.4,1.4H707.9z"/>
	<path class="st1" d="M783.1,319.7c-0.8,0-1.4-0.6-1.4-1.4v-4.5h-0.1c-3.5,4.5-9.3,7.4-18.5,7.4c-12,0-22.4-6.3-22.4-20.6
		c0-14.9,11.3-21.7,28-21.7h12c0.6,0,0.8-0.3,0.8-0.8v-2.5c0-6.3-3.1-9.2-13.8-9.2c-6.8,0-11.8,1.9-15,4.3c-0.7,0.6-1.4,0.4-1.8-0.3
		l-6.3-11c-0.4-0.8-0.3-1.5,0.4-1.9c5.7-4,13.9-6.7,25.1-6.7c22,0,30,7.5,30,24.4v43.2c0,0.8-0.6,1.4-1.4,1.4H783.1z M781.5,297.3
		v-4.6c0-0.6-0.3-0.8-0.8-0.8h-9.5c-8.2,0-12,2.4-12,7.7c0,4.7,3.3,7.1,9.7,7.1C777.3,306.6,781.5,303.6,781.5,297.3z"/>
</g>
</svg>
