<?xml version="1.0" encoding="utf-8"?>
<!-- Generator: Adobe Illustrator 23.0.1, SVG Export Plug-In . SVG Version: 6.00 Build 0)  -->
<svg version="1.1" id="Layer_1" xmlns="http://www.w3.org/2000/svg" xmlns:xlink="http://www.w3.org/1999/xlink" x="0px" y="0px"
	 viewBox="0 0 800 462.2" style="enable-background:new 0 0 800 462.2;" xml:space="preserve">
<style type="text/css">
	.st0{fill:#40545A;}
	.st1{fill:#B00402;}
	.st2{fill:#FFFFFF;}
	.st3{fill:#D4000B;}
	.st4{fill:#00638B;}
	.st5{fill:#00A0E4;}
	.st6{fill:#009D95;}
	.st7{fill:#6CB31E;}
</style>
<g>
	<g>
		<path class="st0" d="M361.5,379.3H397L325.9,160h-53.3l-71.1,219.3H237l13.5-41.5H348L361.5,379.3z M262,302.2l37.2-114.8
			l37.2,114.8H262z"/>
		<polygon class="st0" points="136.3,160 136.3,322.1 35.6,160 0,160 0,379.3 35.6,379.3 35.6,217.2 136.3,379.3 171.9,379.3 
			171.9,160 		"/>
		<path class="st0" d="M509.6,160h-83v219.3h83c45.9,0,83-37.1,83-83V243C592.6,197.1,555.5,160,509.6,160z M509.6,343.7h-47.4
			V195.6h47.4c26.2,0,47.4,21.2,47.4,47.4v53.3C557,322.5,535.8,343.7,509.6,343.7z"/>
	</g>
	<g>
		<path class="st1" d="M584.5,449.2V445l-3.8,2c-3.3,1.7-6.4,2.6-9.5,2.6c-3.2,0-5.8-0.9-7.7-2.8c-2-1.9-3-4.4-3-7.4
			c0-3.6,1.2-6.3,3.7-8.2c2.5-1.9,5.7-2.8,9.6-2.8h10.7v-2.1c0-4.6-2.5-6.9-7.4-6.9c-5.2,0-7.8,2.1-7.8,6.3h-8.1v-0.5
			c0-4,1.4-7.1,4.3-9.4c2.9-2.2,6.7-3.3,11.5-3.3c4.9,0,8.7,1.2,11.4,3.5c2.7,2.4,4.1,5.7,4.1,10v23.1H584.5z M584.5,434.3h-9.6
			c-4.1,0-6.1,1.6-6.1,4.7c0,1.3,0.4,2.3,1.1,3c0.8,0.7,1.8,1.1,3.2,1.1c1.9,0,4-0.6,6.2-1.8l5.2-2.8V434.3z"/>
		<path class="st1" d="M529.4,436.1c-1.6,0-2.5,0.8-2.5,2.4c0,1.5,0.8,2.3,2.3,2.3h13.9c8.6,0,12.9,3.3,12.9,9.9
			c0,3.7-1.5,6.5-4.5,8.5c-3,2-7,3-12,3c-10.7,0-16-4.6-16-13.7V445c-2.4-1.1-3.5-3.2-3.5-6.4c0-1.9,0.4-3.4,1.3-4.6
			c0.9-1.2,2.1-2,3.5-2.4c-0.2-0.1-0.4-0.4-0.7-0.7c-0.3-0.3-0.7-1.1-1.2-2.3c-0.5-1.2-0.7-2.5-0.7-3.9c0-3.7,1.2-6.6,3.6-8.6
			c2.4-2,5.6-3,9.7-3h20.8v7h-5.1c1.2,1,1.8,2.6,1.8,4.9c0,3.4-1.2,6.1-3.5,8.1s-5.5,3-9.5,3H529.4z M538.8,430.1
			c4.6,0,6.8-1.8,6.8-5.3c0-3.5-2-5.3-6.1-5.3h-3.1c-2.1,0-3.7,0.4-4.7,1.2c-1,0.8-1.6,2.2-1.6,4.2c0,3.5,2.1,5.2,6.1,5.2H538.8z
			 M530.9,446.9v1.5c0,2.6,0.6,4.5,1.9,5.8c1.3,1.3,3.5,1.9,6.6,1.9c5.8,0,8.7-1.7,8.7-5.1c0-2.7-2-4-6.1-4H530.9z"/>
		<path class="st1" d="M505.5,449.2v-23.6c0-1.5-0.4-2.8-1.2-3.8c-0.8-1-2-1.5-3.5-1.5c-1.4,0-2.9,0.5-4.7,1.6l-5.3,3.1v24.2h-8.3
			v-36h8.2v4.2l3.8-2.3c2.4-1.5,5-2.2,8-2.3c3.5,0,6.3,1.1,8.3,3.2c2,2.1,3,5,3,8.5v24.7H505.5z"/>
		<g>
			<path class="st1" d="M474.3,403.5c0,1.2-0.4,2.2-1.3,2.9c-0.9,0.7-2,1-3.4,1c-1.4,0-2.5-0.3-3.4-1c-0.9-0.7-1.3-1.6-1.3-2.9V402
				c0-1.3,0.4-2.3,1.3-2.9c0.9-0.7,2-1,3.4-1c1.4,0,2.5,0.3,3.4,1c0.9,0.7,1.3,1.7,1.3,2.9V403.5z"/>
			<rect x="465.3" y="413.2" class="st1" width="8.5" height="36"/>
		</g>
		<path class="st1" d="M453.8,449.2c-4.3,0-7.6-1.1-10.1-3.2c-2.4-2.1-3.7-5.2-3.7-9.2v-16.6h-5.5v-7h5.5v-9.8h8.5v9.8h10v7h-10
			v16.1c0,2,0.5,3.5,1.4,4.4c1,0.9,2.5,1.3,4.5,1.3h4.2v7.2H453.8z"/>
		<g>
			<path class="st1" d="M429.3,403.5c0,1.2-0.4,2.2-1.3,2.9c-0.9,0.7-2,1-3.4,1c-1.4,0-2.5-0.3-3.4-1c-0.9-0.7-1.3-1.6-1.3-2.9V402
				c0-1.3,0.4-2.3,1.3-2.9c0.9-0.7,2-1,3.4-1c1.4,0,2.5,0.3,3.4,1c0.9,0.7,1.3,1.7,1.3,2.9V403.5z"/>
			<rect x="420.3" y="413.2" class="st1" width="8.5" height="36"/>
		</g>
		<path class="st1" d="M394,449.2v-36h8.3v5.1l1.6-1.6c2.7-2.5,5.6-3.8,8.9-3.8h2.1v8.4h-2c-2.9,0-5.4,0.8-7.6,2.5l-2.8,2.3v23.1
			H394z"/>
		<path class="st1" d="M377.7,449.2V445l-3.8,2c-3.3,1.7-6.4,2.6-9.5,2.6c-3.2,0-5.8-0.9-7.7-2.8c-2-1.9-3-4.4-3-7.4
			c0-3.6,1.2-6.3,3.7-8.2c2.5-1.9,5.7-2.8,9.6-2.8h10.7v-2.1c0-4.6-2.5-6.9-7.4-6.9c-5.2,0-7.8,2.1-7.8,6.3h-8.1v-0.5
			c0-4,1.4-7.1,4.3-9.4c2.9-2.2,6.7-3.3,11.5-3.3c4.9,0,8.7,1.2,11.4,3.5c2.7,2.4,4.1,5.7,4.1,10v23.1H377.7z M377.7,434.3h-9.6
			c-4.1,0-6.1,1.6-6.1,4.7c0,1.3,0.4,2.3,1.1,3c0.8,0.7,1.8,1.1,3.2,1.1c1.9,0,4-0.6,6.2-1.8l5.2-2.8V434.3z"/>
		<path class="st1" d="M338.3,449.2V445l-3.8,2.3c-2.5,1.5-5.2,2.3-8,2.3c-3.5,0-6.3-1.1-8.3-3.2c-2-2.1-3-5-3-8.5v-24.7h8.3v23.7
			c0,1.6,0.4,2.9,1.3,3.8c0.9,1,2,1.4,3.5,1.4c1.4,0,2.9-0.5,4.7-1.6l5.3-3.1v-24.3h8.3v36H338.3z"/>
		<path class="st1" d="M298.7,462.2v-17l-4.1,2.3c-2.6,1.4-5.3,2.1-8.1,2.1c-3.7,0-6.7-1.1-8.9-3.4s-3.4-5.2-3.4-8.9v-12.1
			c0-3.7,1.2-6.7,3.5-9c2.3-2.3,5.3-3.5,9-3.5c2.6,0,5.3,0.7,7.9,2.1l4.2,2.3v-3.9h8.1v49H298.7z M298.7,424.7l-5.7-3.2
			c-1.7-0.9-3.4-1.4-5.1-1.4c-1.7,0-3.1,0.5-4.1,1.6c-1,1.1-1.5,2.5-1.5,4.3v10.2c0,1.8,0.5,3.2,1.5,4.3c1,1.1,2.4,1.6,4.1,1.6
			c1.7,0,3.4-0.5,5.1-1.4l5.7-3.1V424.7z"/>
		<path class="st1" d="M258.6,449.2V445l-3.8,2c-3.3,1.7-6.4,2.6-9.5,2.6c-3.2,0-5.8-0.9-7.7-2.8c-2-1.9-3-4.4-3-7.4
			c0-3.6,1.2-6.3,3.7-8.2c2.5-1.9,5.7-2.8,9.6-2.8h10.7v-2.1c0-4.6-2.5-6.9-7.4-6.9c-5.2,0-7.8,2.1-7.8,6.3h-8.1v-0.5
			c0-4,1.4-7.1,4.3-9.4c2.9-2.2,6.7-3.3,11.5-3.3c4.9,0,8.7,1.2,11.4,3.5c2.7,2.4,4.1,5.7,4.1,10v23.1H258.6z M258.6,434.3H249
			c-4.1,0-6.1,1.6-6.1,4.7c0,1.3,0.4,2.3,1.1,3c0.8,0.7,1.8,1.1,3.2,1.1c1.9,0,4-0.6,6.2-1.8l5.2-2.8V434.3z"/>
		<polygon class="st1" points="211.5,449.2 211.5,406.4 197.1,406.4 197.1,398.4 235.3,398.4 235.3,406.4 221,406.4 221,449.2 		"/>
		<path class="st1" d="M171.8,436.1c0,4.4-1.4,7.8-4.2,10.2c-2.8,2.4-6.6,3.6-11.4,3.6c-4.7,0-8.5-1.2-11.3-3.7
			c-2.8-2.5-4.2-5.9-4.2-10.3v-8.9c0-4.4,1.4-7.9,4.2-10.4c2.8-2.5,6.6-3.8,11.3-3.8c4.8,0,8.6,1.2,11.4,3.6
			c2.8,2.4,4.2,5.8,4.2,10.2v0.6h-8c0-4.8-2.5-7.2-7.6-7.2c-5,0-7.4,2.5-7.4,7.6v7.5c0,5.1,2.5,7.6,7.4,7.6c5.1,0,7.6-2.4,7.6-7.2h8
			V436.1z"/>
		<path class="st1" d="M133.6,437.8c0,3.6-1.4,6.5-4.3,8.7c-2.9,2.2-6.7,3.2-11.5,3.2c-4.7,0-8.6-1.2-11.5-3.7
			c-2.9-2.5-4.4-5.8-4.4-10.2v-8.5c0-4.5,1.5-8.1,4.4-10.8c3-2.7,6.8-4,11.5-4c4.8,0,8.6,1.3,11.5,4c2.9,2.6,4.3,6.3,4.3,10.9v6.3
			h-23.9v1.8c0,2.5,0.7,4.3,2.2,5.5c1.5,1.2,3.4,1.8,5.9,1.8c5.2,0,7.8-1.8,7.8-5.5h7.9V437.8z M125.8,427.4c0-2.5-0.7-4.5-2.1-5.9
			c-1.4-1.4-3.4-2-5.9-2c-2.5,0-4.5,0.7-6,2.1c-1.4,1.4-2.2,3.4-2.2,5.9v0.9h16.1V427.4z"/>
		<path class="st1" d="M92.6,449.2c-4.3,0-7.6-1.1-10.1-3.2c-2.4-2.1-3.7-5.2-3.7-9.2v-16.6h-5.5v-7h5.5v-9.8h8.5v9.8h10v7h-10v16.1
			c0,2,0.5,3.5,1.4,4.4c1,0.9,2.5,1.3,4.5,1.3h4.2v7.2H92.6z"/>
		<path class="st1" d="M60.7,449.2V445l-3.8,2c-3.3,1.7-6.4,2.6-9.5,2.6c-3.2,0-5.8-0.9-7.7-2.8c-2-1.9-3-4.4-3-7.4
			c0-3.6,1.2-6.3,3.7-8.2c2.5-1.9,5.7-2.8,9.6-2.8h10.7v-2.1c0-4.6-2.5-6.9-7.4-6.9c-5.2,0-7.8,2.1-7.8,6.3h-8.1v-0.5
			c0-4,1.4-7.1,4.3-9.4c2.9-2.2,6.7-3.3,11.5-3.3c4.9,0,8.7,1.2,11.4,3.5c2.7,2.4,4.1,5.7,4.1,10v23.1H60.7z M60.7,434.3h-9.6
			c-4.1,0-6.1,1.6-6.1,4.7c0,1.3,0.4,2.3,1.1,3c0.8,0.7,1.8,1.1,3.2,1.1c1.9,0,4-0.6,6.2-1.8l5.2-2.8V434.3z"/>
		<polygon class="st1" points="9.1,428.2 9.1,449.2 0,449.2 0,398.4 33,398.4 33,406.4 9.1,406.4 9.1,420.1 30.9,420.1 30.9,428.2 
					"/>
	</g>
	<g>
		<g>
			<path class="st0" d="M696.6,194.4l30.9,17.8c0.6-1.2,1.3-2.5,2.1-3.6l-30.9-17.8C698.1,192,697.4,193.2,696.6,194.4z"/>
			<path class="st0" d="M696.6,137.5c0.7,1.2,1.4,2.4,2.1,3.6l30.9-17.8c-0.8-1.2-1.5-2.4-2.1-3.6L696.6,137.5z"/>
			<path class="st0" d="M649.4,219.2v35.7c0.7,0,1.4-0.1,2.1-0.1c0.7,0,1.4,0.1,2.1,0.1v-35.7c-0.7,0-1.4,0.1-2.1,0.1
				C650.8,219.3,650.1,219.2,649.4,219.2z"/>
			<path class="st0" d="M653.6,112.6V76.9c-0.7,0-1.4,0.1-2.1,0.1c-0.7,0-1.4-0.1-2.1-0.1v35.7c0.7,0,1.4-0.1,2.1-0.1
				C652.2,112.6,652.9,112.6,653.6,112.6z"/>
			<path class="st0" d="M606.4,137.5l-30.9-17.8c-0.6,1.2-1.3,2.5-2.1,3.6l30.9,17.8C605,139.9,605.7,138.6,606.4,137.5z"/>
		</g>
		<g>
			<circle class="st1" cx="651.5" cy="165.9" r="47.4"/>
			<circle class="st2" cx="651.5" cy="165.9" r="41.5"/>
			<circle class="st1" cx="651.5" cy="165.9" r="35.6"/>
			
				<ellipse transform="matrix(0.9732 -0.2298 0.2298 0.9732 -16.9687 153.6978)" class="st2" cx="651.5" cy="149.7" rx="14.2" ry="14.2"/>
			<path class="st2" d="M651.5,198.5c12.9,0,24-7.5,29.3-18.3c-6.1-9.8-16.9-16.3-29.3-16.3c-12.4,0-23.2,6.5-29.3,16.3
				C627.6,191,638.7,198.5,651.5,198.5z"/>
		</g>
		<g>
			<circle class="st3" cx="651.5" cy="296.3" r="35.6"/>
			<circle class="st2" cx="651.5" cy="296.3" r="31.1"/>
			<circle class="st3" cx="651.5" cy="296.3" r="26.7"/>
			
				<ellipse transform="matrix(0.9732 -0.2298 0.2298 0.9732 -47.8525 157.2935)" class="st2" cx="651.5" cy="284.1" rx="10.6" ry="10.6"/>
			<path class="st2" d="M651.5,320c9.5,0,17.7-5.6,21.5-13.7c-4.6-6.9-12.5-11.5-21.5-11.5s-16.8,4.6-21.5,11.5
				C633.8,314.4,642,320,651.5,320z"/>
		</g>
		<g>
			<circle class="st4" cx="764.4" cy="231.1" r="35.6"/>
			<circle class="st2" cx="764.4" cy="231.1" r="31.1"/>
			<circle class="st4" cx="764.4" cy="231.1" r="26.7"/>
			
				<ellipse transform="matrix(0.9732 -0.2298 0.2298 0.9732 -29.8558 181.4897)" class="st2" cx="764.4" cy="219" rx="10.6" ry="10.6"/>
			<path class="st2" d="M764.4,254.8c9.5,0,17.7-5.6,21.5-13.7c-4.6-6.9-12.5-11.5-21.5-11.5c-9,0-16.8,4.6-21.5,11.5
				C746.7,249.2,754.9,254.8,764.4,254.8z"/>
		</g>
		<g>
			<circle class="st5" cx="764.4" cy="100.7" r="35.6"/>
			<circle class="st2" cx="764.4" cy="100.7" r="31.1"/>
			<circle class="st5" cx="764.4" cy="100.7" r="26.7"/>
			
				<ellipse transform="matrix(0.7071 -0.7071 0.7071 0.7071 161.2618 566.4897)" class="st2" cx="764.4" cy="88.6" rx="10.6" ry="10.6"/>
			<path class="st2" d="M764.4,124.4c9.5,0,17.7-5.6,21.5-13.7c-4.6-6.9-12.5-11.5-21.5-11.5c-9,0-16.8,4.6-21.5,11.5
				C746.7,118.8,754.9,124.4,764.4,124.4z"/>
		</g>
		<g>
			<circle class="st6" cx="651.5" cy="35.6" r="35.6"/>
			<circle class="st2" cx="651.5" cy="35.6" r="31.1"/>
			<circle class="st6" cx="651.5" cy="35.6" r="26.7"/>
			<path class="st2" d="M651.5,12.8c-5.9,0-10.6,4.8-10.6,10.6c0,5.9,4.8,10.6,10.6,10.6c5.9,0,10.6-4.8,10.6-10.6
				C662.2,17.5,657.4,12.8,651.5,12.8z"/>
			<path class="st2" d="M651.5,59.3c9.5,0,17.7-5.6,21.5-13.7c-4.6-6.9-12.5-11.5-21.5-11.5c-9,0-16.8,4.6-21.5,11.5
				C633.8,53.6,642,59.3,651.5,59.3z"/>
		</g>
		<g>
			<circle class="st7" cx="538.6" cy="100.7" r="35.6"/>
			<circle class="st2" cx="538.6" cy="100.7" r="31.1"/>
			<circle class="st7" cx="538.6" cy="100.7" r="26.7"/>
			
				<ellipse transform="matrix(0.9732 -0.2298 0.2298 0.9732 -5.9435 126.1237)" class="st2" cx="538.6" cy="88.6" rx="10.6" ry="10.6"/>
			<path class="st2" d="M538.6,124.4c9.5,0,17.7-5.6,21.5-13.7c-4.6-6.9-12.5-11.5-21.5-11.5c-9,0-16.8,4.6-21.5,11.5
				C520.9,118.8,529.1,124.4,538.6,124.4z"/>
		</g>
	</g>
</g>
</svg>
