<?xml version="1.0" encoding="utf-8"?>
<!-- Generator: Adobe Illustrator 24.1.1, SVG Export Plug-In . SVG Version: 6.00 Build 0)  -->
<svg version="1.1" id="Layer_1" xmlns="http://www.w3.org/2000/svg" xmlns:xlink="http://www.w3.org/1999/xlink" x="0px" y="0px"
	 viewBox="0 0 824.2 137.2" style="enable-background:new 0 0 824.2 137.2;" xml:space="preserve">
<style type="text/css">
	.st0{fill:#4A555C;}
	.st1{fill:#B01117;}
</style>
<g>
	<g>
		<polygon class="st0" points="16.3,53.2 16.3,90.7 0,90.7 0,0 58.9,0 58.9,14.4 16.3,14.4 16.3,38.8 55.2,38.8 55.2,53.2 		"/>
		<path class="st0" d="M306.9,67.3c0,16.1-11.1,24.5-27.8,24.5c-16.6,0-27.7-9.1-27.7-25.1v-16c0-16,11.1-25.2,27.7-25.2
			c16.7,0,27.8,8.5,27.8,24.6v1.1h-14.3c0-9.1-5-12.9-13.5-12.9c-8.4,0-13.3,4.4-13.3,13.7v13.4c0,9.3,4.9,13.7,13.3,13.7
			c8.5,0,13.5-3.7,13.5-12.8h14.3V67.3z"/>
		<path class="st0" d="M108.4,90.7v-7.4l-6.7,3.7c-6,3.2-10.6,4.6-16.9,4.6c-11.4,0-19.1-7.4-19.1-18.3c0-13.4,10.5-19.6,23.8-19.6
			h19.1v-3.8c0-8.3-4.8-12.3-13.2-12.3c-8.8,0-13.9,3.7-13.9,11.2H67.1V48c0-14.5,11.5-22.7,28.2-22.7c17.6,0,27.7,8.8,27.7,24.1
			v41.3H108.4L108.4,90.7z M108.4,64.1H91.3c-8.9,0-11,4.2-11,8.4c0,4.5,2.8,7.2,7.7,7.2c4,0,7.4-1.2,11.1-3.2l9.3-5
			C108.4,71.6,108.4,64.1,108.4,64.1z"/>
		<path class="st0" d="M165.4,90.7c-14.9,0-24.5-7.4-24.5-22.1V39h-9.8V26.5h9.8V9H156v17.4h17.8V39H156v28.8
			c0,7.6,3.4,10.1,10.6,10.1h7.6v12.8C174.2,90.7,165.4,90.7,165.4,90.7z"/>
		<path class="st0" d="M238.5,70.5c0,13-11.2,21.3-28.2,21.3c-16.6,0-28.4-9-28.4-24.7V51.8c0-16.2,11.8-26.3,28.4-26.3
			c16.7,0,28.3,9.6,28.3,26.6v11.3H196v3.2c0,9.1,6.1,13.2,14.5,13.2c8.3,0,13.9-2.9,13.9-9.9h14.1V70.5z M224.8,51.8
			c0-9.1-5.4-14.1-14.3-14.1c-9,0-14.5,5-14.5,14.3v1.6h28.8V51.8L224.8,51.8z"/>
	</g>
	<g>
		<polygon class="st1" points="109.5,130.5 109.5,108.3 102,108.3 102,104.2 121.9,104.2 121.9,108.3 114.4,108.3 114.4,130.5 		"/>
		<path class="st1" d="M133.9,130.5v-2.2l-1.9,1.1c-1.7,0.9-3.1,1.3-4.9,1.3c-3.3,0-5.6-2.2-5.6-5.3c0-3.9,3-5.7,6.9-5.7h5.6v-1.1
			c0-2.4-1.4-3.6-3.8-3.6c-2.6,0-4,1.1-4,3.3H122V118c0-4.2,3.3-6.6,8.2-6.6c5.1,0,8,2.6,8,7v12h-4.3V130.5z M133.9,122.8h-5
			c-2.6,0-3.2,1.2-3.2,2.4c0,1.3,0.8,2.1,2.2,2.1c1.2,0,2.2-0.3,3.2-0.9l2.7-1.4L133.9,122.8L133.9,122.8z"/>
		<path class="st1" d="M154.7,137v-8.6l-2.1,1.2c-1.4,0.8-2.8,1.1-4.2,1.1c-3.9,0-6.4-2.6-6.4-6.4V118c0-3.8,2.6-6.5,6.5-6.5
			c1.3,0,2.7,0.3,4.1,1.1l2.2,1.2v-2h4.2V137H154.7z M154.7,117.8l-3-1.7c-0.8-0.4-1.6-0.7-2.6-0.7c-1.8,0-2.9,1.2-2.9,3.1v5.3
			c0,1.8,1.2,3.1,2.9,3.1c1,0,1.8-0.3,2.6-0.7l3-1.6V117.8z"/>
		<path class="st1" d="M175.3,130.5v-2.2l-2,1.2c-1.3,0.8-2.6,1.2-4.1,1.2c-3.6,0-5.9-2.4-5.9-6.1v-12.8h4.3v12.3
			c0,1.6,1,2.7,2.5,2.7c0.9,0,1.7-0.3,2.4-0.8l2.7-1.6v-12.6h4.3v18.7H175.3L175.3,130.5z"/>
		<path class="st1" d="M195.7,130.5v-2.2l-1.9,1.1c-1.7,0.9-3.1,1.3-4.9,1.3c-3.3,0-5.6-2.2-5.6-5.3c0-3.9,3-5.7,6.9-5.7h5.6v-1.1
			c0-2.4-1.4-3.6-3.8-3.6c-2.6,0-4,1.1-4,3.3h-4.2V118c0-4.2,3.3-6.6,8.2-6.6c5.1,0,8,2.6,8,7v12h-4.3V130.5z M195.7,122.8h-5
			c-2.6,0-3.2,1.2-3.2,2.4c0,1.3,0.8,2.1,2.2,2.1c1.2,0,2.2-0.3,3.2-0.9l2.7-1.4L195.7,122.8L195.7,122.8z"/>
		<path class="st1" d="M204.1,130.5v-18.7h4.3v2.7l0.8-0.8c1.4-1.3,2.8-2,4.6-2h1.1v4.3h-1.1c-1.6,0-2.7,0.3-3.9,1.3l-1.4,1.2v12
			H204.1L204.1,130.5z"/>
		<path class="st1" d="M222.4,106.8c0,1.3-1,2-2.4,2s-2.4-0.7-2.4-2V106c0-1.3,1.1-2.1,2.4-2.1c1.4,0,2.4,0.7,2.4,2.1V106.8z
			 M217.8,111.8h4.4v18.7h-4.4V111.8z"/>
		<path class="st1" d="M235.1,130.5c-4.3,0-7.1-2.2-7.1-6.4v-8.6h-2.8v-3.7h2.8v-5.1h4.4v5.1h5.2v3.7h-5.2v8.3c0,2.2,1,2.9,3.1,2.9
			h2.2v3.7L235.1,130.5L235.1,130.5z"/>
		<path class="st1" d="M245.7,106.8c0,1.3-1,2-2.4,2s-2.4-0.7-2.4-2V106c0-1.3,1.1-2.1,2.4-2.1c1.4,0,2.4,0.7,2.4,2.1V106.8z
			 M241.1,111.8h4.4v18.7h-4.4V111.8z"/>
		<path class="st1" d="M262,130.5v-12.3c0-1.4-0.8-2.8-2.5-2.8c-1,0-1.7,0.3-2.4,0.8l-2.7,1.6v12.6H250v-18.7h4.3v2.2l2-1.2
			c1.4-0.9,2.7-1.2,4.1-1.2c3.6,0,5.9,2.4,5.9,6.1v12.8L262,130.5L262,130.5z"/>
		<path class="st1" d="M274.3,123.7c-0.9,0-1.3,0.4-1.3,1.2c0,0.7,0.5,1.2,1.2,1.2h7.2c4.3,0,6.7,1.7,6.7,5.1c0,3.9-3.5,6-8.6,6
			c-5.7,0-8.3-2.6-8.3-7.1v-1.9c-1.2-0.5-1.8-1.6-1.8-3.3c0-2,1.1-3.2,2.5-3.6c0,0-1.3-1.1-1.3-3.5c0-4,2.8-6,6.9-6h10.8v3.6h-2.7
			c0,0,0.9,0.7,0.9,2.6c0,3.6-2.6,5.7-6.8,5.7L274.3,123.7L274.3,123.7z M279.2,120.6c2.3,0,3.5-0.8,3.5-2.8c0-1.8-1.2-2.7-3.2-2.7
			h-1.6c-2,0-3.3,0.6-3.3,2.8c0,1.9,1.2,2.7,3.2,2.7H279.2z M275.1,129.3v0.8c0,2.6,1.1,4,4.4,4c3,0,4.5-0.8,4.5-2.6
			c0-1.6-1.2-2.1-3.2-2.1L275.1,129.3L275.1,129.3z"/>
		<path class="st1" d="M302.9,130.5v-2.2l-2,1.1c-1.7,0.9-3.1,1.3-4.9,1.3c-3.3,0-5.6-2.2-5.6-5.3c0-3.9,3-5.7,6.9-5.7h5.6v-1.1
			c0-2.4-1.4-3.6-3.8-3.6c-2.5,0-4,1.1-4,3.3h-4.2V118c0-4.2,3.3-6.6,8.2-6.6c5.1,0,8,2.6,8,7v12h-4.2V130.5z M302.9,122.8h-5
			c-2.6,0-3.2,1.2-3.2,2.4c0,1.3,0.8,2.1,2.2,2.1c1.2,0,2.2-0.3,3.2-0.9l2.7-1.4L302.9,122.8L302.9,122.8z"/>
	</g>
</g>
<polygon class="st0" points="371.1,68.6 348.3,96.1 348.3,137.2 343.7,137.2 343.7,0 348.3,0 348.3,41.2 "/>
<g>
	<path class="st0" d="M441.4,42.5c0,5.7-1.8,10-5.3,13.1c-3.5,3.1-8.4,4.6-14.5,4.6c-5.9,0-10.8-1.7-14.5-5c-3.8-3.3-5.6-8.3-5.6-15
		v-9.7c0-6.7,1.9-11.8,5.6-15.1c3.7-3.3,8.6-5,14.6-5c6.1,0,10.9,1.5,14.5,4.6c3.5,3.1,5.3,7.5,5.3,13.1v0.8h-8.9
		c0-7.2-3.6-10.8-10.8-10.8c-7.6,0-11.4,4.3-11.4,12.9v8.6c0,8.6,3.8,12.9,11.4,12.9c3.5,0,6.2-0.9,8-2.7c1.9-1.8,2.8-4.5,2.8-8.1
		h8.9V42.5z"/>
	<path class="st0" d="M478.5,48.6c0,3.5-1.4,6.3-4.1,8.3c-2.7,2.1-6.4,3.1-11,3.1c-4.5,0-8.2-1.2-11-3.5c-2.8-2.3-4.2-5.6-4.2-9.7
		v-8.2c0-4.3,1.4-7.7,4.2-10.3c2.8-2.5,6.5-3.8,11-3.8c4.6,0,8.2,1.3,11,3.8s4.1,6,4.1,10.4v6.1h-22.8v1.7c0,2.3,0.7,4.1,2.1,5.3
		s3.3,1.8,5.6,1.8c5,0,7.4-1.8,7.4-5.3h7.6V48.6z M471.1,38.6c0-2.4-0.7-4.3-2-5.6s-3.2-2-5.6-2c-2.4,0-4.3,0.7-5.7,2
		c-1.4,1.3-2.1,3.2-2.1,5.6v0.8h15.4V38.6z"/>
	<path class="st0" d="M508.1,59.4V36.8c0-1.4-0.4-2.6-1.2-3.6s-1.9-1.5-3.4-1.5c-1.3,0-2.8,0.5-4.5,1.5l-5,3v23.2h-7.9V25h7.8v4
		l3.7-2.2c2.3-1.4,4.8-2.1,7.6-2.2c3.3,0,6,1,7.9,3.1c1.9,2,2.9,4.7,2.9,8.1v23.6H508.1z"/>
	<path class="st0" d="M538.9,59.4c-4.1,0-7.3-1-9.6-3c-2.3-2-3.5-4.9-3.5-8.8V31.8h-5.2V25h5.2v-9.3h8.1V25h9.5v6.7h-9.5v15.4
		c0,2,0.5,3.4,1.4,4.2c0.9,0.8,2.3,1.2,4.3,1.2h4v6.9H538.9z"/>
	<path class="st0" d="M549.8,59.4V25h7.9v4.9l1.5-1.5c2.6-2.4,5.4-3.7,8.5-3.7h2v8h-2c-2.8,0-5.2,0.8-7.2,2.3l-2.7,2.2v22.1H549.8z"
		/>
	<path class="st0" d="M596.4,59.4v-4l-3.6,2c-3.1,1.7-6.2,2.5-9.1,2.5c-3,0-5.5-0.9-7.4-2.7s-2.8-4.2-2.8-7.1c0-3.4,1.2-6,3.6-7.8
		c2.4-1.8,5.4-2.7,9.2-2.7h10.2v-2c0-4.4-2.3-6.6-7-6.6c-5,0-7.4,2-7.4,6h-7.7v-0.5c0-3.8,1.4-6.8,4.1-8.9s6.4-3.2,11-3.2
		c4.7,0,8.3,1.1,10.9,3.4c2.6,2.3,3.9,5.4,3.9,9.5v22.1H596.4z M596.4,45.2h-9.1c-3.9,0-5.9,1.5-5.9,4.5c0,1.2,0.4,2.2,1.1,2.8
		c0.7,0.7,1.7,1,3,1c1.8,0,3.8-0.6,5.9-1.7l5-2.7V45.2z"/>
	<path class="st0" d="M612,59.4V10.9h8.2v48.6H612z"/>
	<path class="st0" d="M669.8,59.4v-3.7l-4,2.2c-2.4,1.3-5,2-7.7,2c-3.5,0-6.4-1.1-8.5-3.2c-2.2-2.2-3.3-5-3.3-8.5V36.6
		c0-3.5,1.1-6.3,3.3-8.5c2.2-2.2,5.1-3.3,8.6-3.3c2.7,0,5.2,0.7,7.6,2l3.9,2.2v-18h7.8v48.6H669.8z M669.8,36.1l-5.5-3.1
		c-1.6-0.9-3.2-1.3-4.8-1.3c-1.7,0-3,0.5-3.9,1.5c-1,1-1.5,2.4-1.5,4.1v9.8c0,1.7,0.5,3.1,1.5,4.1c1,1,2.3,1.5,3.9,1.5
		c1.5,0,3.1-0.5,4.8-1.4l5.5-3V36.1z"/>
	<path class="st0" d="M715.3,48.6c0,3.5-1.4,6.3-4.1,8.3c-2.7,2.1-6.4,3.1-11,3.1c-4.5,0-8.2-1.2-11-3.5c-2.8-2.3-4.2-5.6-4.2-9.7
		v-8.2c0-4.3,1.4-7.7,4.2-10.3c2.8-2.5,6.5-3.8,11-3.8c4.6,0,8.2,1.3,11,3.8c2.8,2.5,4.1,6,4.1,10.4v6.1h-22.8v1.7
		c0,2.3,0.7,4.1,2.1,5.3s3.3,1.8,5.6,1.8c5,0,7.4-1.8,7.4-5.3h7.6V48.6z M707.9,38.6c0-2.4-0.7-4.3-2-5.6s-3.2-2-5.6-2
		c-2.4,0-4.3,0.7-5.7,2c-1.4,1.3-2.1,3.2-2.1,5.6v0.8h15.4V38.6z"/>
	<path class="st1" d="M402.2,124.7V76.2h32.2v7.7h-23.6v12.4H432v7.7h-21.1v13h23.7v7.8H402.2z"/>
	<path class="st1" d="M462.9,101.5c0-3.6-2.3-5.4-7-5.4c-2.1,0-3.8,0.4-5,1.2s-1.8,1.8-1.8,3.1c0,1.4,0.7,2.5,2.2,3.1
		c1.5,0.6,3.3,1.1,5.4,1.3c2.1,0.2,4.2,0.5,6.4,0.9c2.1,0.4,3.9,1.3,5.4,2.8c1.5,1.4,2.2,3.5,2.2,6.1c0,3.3-1.3,6-4,7.9
		s-6.3,2.8-10.9,2.8c-4.7,0-8.4-1-11.1-3c-2.6-2-3.9-4.7-3.9-8.3v-0.4h8c0,3.6,2.4,5.4,7.2,5.4c2.2,0,3.9-0.4,5.2-1.2
		c1.2-0.8,1.9-1.8,1.9-3.1c0-1.1-0.5-1.9-1.6-2.5c-1.1-0.6-2.4-1-4-1.1c-1.6-0.1-3.3-0.4-5.2-0.7c-1.8-0.3-3.6-0.8-5.2-1.3
		s-2.9-1.5-4-3s-1.6-3.3-1.6-5.5c0-3.4,1.3-6,3.9-7.9c2.6-1.9,6.2-2.9,10.7-2.9c4.7,0,8.2,1,10.8,3s3.8,4.8,3.8,8.3v0.4H462.9z"/>
	<path class="st1" d="M493.4,124.7c-4.1,0-7.3-1-9.6-3c-2.3-2-3.5-4.9-3.5-8.8V97.1H475v-6.7h5.2V81h8.1v9.3h9.5v6.7h-9.5v15.4
		c0,2,0.5,3.4,1.4,4.2c0.9,0.8,2.3,1.2,4.3,1.2h4v6.9H493.4z"/>
	<path class="st1" d="M525.9,124.7v-4l-3.6,2c-3.1,1.7-6.2,2.5-9.1,2.5c-3,0-5.5-0.9-7.4-2.7c-1.9-1.8-2.8-4.2-2.8-7.1
		c0-3.4,1.2-6,3.6-7.8c2.4-1.8,5.4-2.7,9.2-2.7h10.2v-2c0-4.4-2.3-6.6-7-6.6c-5,0-7.4,2-7.4,6h-7.7v-0.5c0-3.8,1.4-6.8,4.1-8.9
		c2.7-2.1,6.4-3.2,11-3.2c4.7,0,8.3,1.1,10.9,3.4c2.6,2.3,3.9,5.4,3.9,9.5v22.1H525.9z M525.9,110.5h-9.1c-3.9,0-5.9,1.5-5.9,4.5
		c0,1.2,0.4,2.2,1.1,2.8c0.7,0.7,1.7,1,3,1c1.8,0,3.8-0.6,5.9-1.7l5-2.7V110.5z M513.4,85.7l7-9.5h10l-8.4,9.5H513.4z"/>
	<path class="st1" d="M548.3,112.3c-1.6,0-2.3,0.8-2.3,2.3c0,1.4,0.7,2.2,2.2,2.2h13.3c8.2,0,12.3,3.2,12.3,9.5
		c0,3.5-1.4,6.2-4.3,8.2c-2.9,1.9-6.7,2.9-11.5,2.9c-10.2,0-15.3-4.4-15.3-13.1v-3.5c-2.3-1-3.4-3.1-3.4-6.1c0-1.8,0.4-3.2,1.3-4.4
		c0.8-1.1,2-1.9,3.4-2.3c-0.2-0.1-0.4-0.3-0.7-0.7s-0.7-1-1.1-2.2c-0.5-1.1-0.7-2.4-0.7-3.7c0-3.6,1.1-6.3,3.4-8.2s5.4-2.8,9.2-2.8
		H574V97h-4.9c1.1,0.9,1.7,2.5,1.7,4.7c0,3.3-1.1,5.8-3.4,7.7c-2.2,1.9-5.3,2.8-9.1,2.8H548.3z M557.3,106.5c4.4,0,6.5-1.7,6.5-5.1
		c0-3.3-2-5-5.9-5h-3c-2,0-3.5,0.4-4.5,1.1c-1,0.8-1.5,2.1-1.5,4c0,3.3,2,5,5.9,5H557.3z M549.8,122.5v1.4c0,2.5,0.6,4.3,1.8,5.5
		c1.2,1.2,3.3,1.8,6.3,1.8c5.6,0,8.4-1.6,8.4-4.9c0-2.6-2-3.9-5.9-3.9H549.8z"/>
	<path class="st1" d="M588,81.1c0,1.2-0.4,2.1-1.2,2.7c-0.8,0.7-1.9,1-3.3,1c-1.3,0-2.4-0.3-3.2-1c-0.8-0.7-1.3-1.6-1.3-2.7v-1.4
		c0-1.2,0.4-2.2,1.3-2.8s1.9-1,3.2-1c1.3,0,2.4,0.3,3.3,1c0.8,0.7,1.2,1.6,1.2,2.8V81.1z M579.4,124.7V90.3h8.1v34.4H579.4z"/>
	<path class="st1" d="M626.2,111.4c0,4.3-1.4,7.7-4.3,10.2c-2.9,2.5-6.6,3.8-11.2,3.8c-4.6,0-8.4-1.3-11.2-3.8
		c-2.9-2.5-4.3-6-4.3-10.2v-7.5c0-4.3,1.4-7.7,4.3-10.3c2.9-2.5,6.6-3.8,11.2-3.8c4.6,0,8.4,1.3,11.2,3.8c2.9,2.5,4.3,6,4.3,10.3
		V111.4z M618.7,104.7c0-2.5-0.7-4.5-2.2-5.9c-1.5-1.4-3.4-2.1-5.8-2.1c-2.4,0-4.3,0.7-5.8,2.1c-1.5,1.4-2.2,3.4-2.2,5.9v5.9
		c0,2.5,0.7,4.5,2.2,5.9c1.5,1.4,3.4,2.1,5.8,2.1c2.4,0,4.3-0.7,5.8-2.1c1.5-1.4,2.2-3.4,2.2-5.9V104.7z"/>
	<path class="st1" d="M677.1,113.9c0,3.5-1.4,6.3-4.1,8.3s-6.4,3.1-11,3.1c-4.5,0-8.2-1.2-11-3.5c-2.8-2.3-4.2-5.6-4.2-9.7v-8.2
		c0-4.3,1.4-7.7,4.2-10.3c2.8-2.5,6.5-3.8,11-3.8c4.6,0,8.2,1.3,11,3.8s4.1,6,4.1,10.4v6.1h-22.8v1.7c0,2.3,0.7,4.1,2.1,5.3
		s3.3,1.8,5.6,1.8c5,0,7.4-1.8,7.4-5.3h7.6V113.9z M669.7,103.9c0-2.4-0.7-4.3-2-5.6c-1.3-1.3-3.2-2-5.6-2c-2.4,0-4.3,0.7-5.7,2
		c-1.4,1.3-2.1,3.2-2.1,5.6v0.8h15.4V103.9z"/>
	<path class="st1" d="M710.2,124.7V83.8h-13.8v-7.6h36.5v7.6h-13.7v40.9H710.2z"/>
	<path class="st1" d="M777.1,107.8c0,5.7-1.8,10-5.3,13.1s-8.4,4.6-14.5,4.6c-5.9,0-10.8-1.7-14.5-5c-3.8-3.3-5.6-8.3-5.6-15v-9.7
		c0-6.7,1.9-11.8,5.6-15.1c3.7-3.3,8.6-5,14.6-5c6.1,0,10.9,1.5,14.5,4.6s5.3,7.5,5.3,13.1v0.8h-8.9c0-7.2-3.6-10.8-10.8-10.8
		c-7.6,0-11.4,4.3-11.4,12.9v8.6c0,8.6,3.8,12.9,11.4,12.9c3.5,0,6.2-0.9,8-2.7c1.9-1.8,2.8-4.5,2.8-8.1h8.9V107.8z"/>
	<path class="st1" d="M824.2,107.8c0,5.7-1.8,10-5.3,13.1s-8.4,4.6-14.5,4.6c-5.9,0-10.8-1.7-14.5-5c-3.8-3.3-5.6-8.3-5.6-15v-9.7
		c0-6.7,1.9-11.8,5.6-15.1c3.7-3.3,8.6-5,14.6-5c6.1,0,10.9,1.5,14.5,4.6s5.3,7.5,5.3,13.1v0.8h-8.9c0-7.2-3.6-10.8-10.8-10.8
		c-7.6,0-11.4,4.3-11.4,12.9v8.6c0,8.6,3.8,12.9,11.4,12.9c3.5,0,6.2-0.9,8-2.7c1.9-1.8,2.8-4.5,2.8-8.1h8.9V107.8z"/>
</g>
</svg>
