<?xml version="1.0" encoding="utf-8"?>
<!-- Generator: Adobe Illustrator 24.1.1, SVG Export Plug-In . SVG Version: 6.00 Build 0)  -->
<svg version="1.1" id="Layer_1" xmlns="http://www.w3.org/2000/svg" xmlns:xlink="http://www.w3.org/1999/xlink" x="0px" y="0px"
	 viewBox="0 0 335 100" style="enable-background:new 0 0 335 100;" xml:space="preserve">
<style type="text/css">
	.st0{fill:#289ED9;}
</style>
<g>
	<g>
		<path class="st0" d="M332.4,77.5c-2.3,0-4.1-0.6-5.4-1.7c-1.3-1.1-1.9-2.8-1.9-4.9v-8.8h-2.9v-3.7h2.9v-5.2h4.5v5.2h5.3v3.7h-5.3
			v8.6c0,1.1,0.3,1.9,0.8,2.3c0.5,0.5,1.3,0.7,2.4,0.7h2.3v3.8H332.4z"/>
		<path class="st0" d="M319.5,71.5c0,1.9-0.8,3.5-2.3,4.6c-1.5,1.2-3.6,1.7-6.1,1.7c-2.5,0-4.6-0.7-6.1-2c-1.6-1.3-2.3-3.1-2.3-5.4
			v-4.5c0-2.4,0.8-4.3,2.4-5.7c1.6-1.4,3.6-2.1,6.1-2.1c2.5,0,4.6,0.7,6.1,2.1c1.5,1.4,2.3,3.3,2.3,5.8v3.4h-12.7v0.9
			c0,1.3,0.4,2.3,1.2,2.9c0.8,0.7,1.8,1,3.1,1c2.8,0,4.1-1,4.1-2.9h4.2V71.5z M315.4,65.9c0-1.4-0.4-2.4-1.1-3.1
			c-0.8-0.7-1.8-1.1-3.1-1.1c-1.4,0-2.4,0.4-3.2,1.1c-0.8,0.7-1.1,1.8-1.1,3.1v0.5h8.6V65.9z"/>
		<path class="st0" d="M294.1,77.5V64.9c0-0.8-0.2-1.5-0.7-2s-1.1-0.8-1.9-0.8c-0.7,0-1.6,0.3-2.5,0.8l-2.8,1.7v12.9h-4.4V58.3h4.4
			v2.3l2-1.2c1.3-0.8,2.7-1.2,4.3-1.2c1.9,0,3.3,0.6,4.4,1.7c1.1,1.1,1.6,2.6,1.6,4.5v13.2H294.1z"/>
		<path class="st0" d="M267.9,77.5V58.3h4.4V61l0.8-0.8c1.4-1.4,3-2,4.7-2h1.1v4.5h-1.1c-1.6,0-2.9,0.4-4,1.3l-1.5,1.2v12.3H267.9z"
			/>
		<path class="st0" d="M263.7,71.5c0,1.9-0.8,3.5-2.3,4.6c-1.5,1.2-3.6,1.7-6.1,1.7c-2.5,0-4.6-0.7-6.1-2c-1.6-1.3-2.3-3.1-2.3-5.4
			v-4.5c0-2.4,0.8-4.3,2.4-5.7c1.6-1.4,3.6-2.1,6.1-2.1c2.5,0,4.6,0.7,6.1,2.1c1.5,1.4,2.3,3.3,2.3,5.8v3.4H251v0.9
			c0,1.3,0.4,2.3,1.2,2.9c0.8,0.7,1.8,1,3.1,1c2.8,0,4.1-1,4.1-2.9h4.2V71.5z M259.6,65.9c0-1.4-0.4-2.4-1.1-3.1
			c-0.8-0.7-1.8-1.1-3.1-1.1c-1.4,0-2.4,0.4-3.2,1.1c-0.8,0.7-1.1,1.8-1.1,3.1v0.5h8.6V65.9z"/>
		<path class="st0" d="M241.9,77.5c-2.3,0-4.1-0.6-5.4-1.7c-1.3-1.1-1.9-2.8-1.9-4.9v-8.8h-2.9v-3.7h2.9v-5.2h4.5v5.2h5.3v3.7h-5.3
			v8.6c0,1.1,0.3,1.9,0.8,2.3c0.5,0.5,1.3,0.7,2.4,0.7h2.3v3.8H241.9z"/>
		<path class="st0" d="M224.7,77.5V64.9c0-0.8-0.2-1.5-0.7-2s-1.1-0.8-1.9-0.8c-0.7,0-1.6,0.3-2.5,0.8l-2.8,1.7v12.9h-4.4V58.3h4.4
			v2.3l2-1.2c1.3-0.8,2.7-1.2,4.3-1.2c1.9,0,3.3,0.6,4.4,1.7c1.1,1.1,1.6,2.6,1.6,4.5v13.2H224.7z"/>
		<rect x="202.6" y="50.4" class="st0" width="5" height="27.1"/>
		<path class="st0" d="M183.2,77.5v-2.2l-2,1.1c-1.7,0.9-3.4,1.4-5.1,1.4c-1.7,0-3.1-0.5-4.1-1.5c-1.1-1-1.6-2.3-1.6-3.9
			c0-1.9,0.7-3.4,2-4.4c1.3-1,3-1.5,5.1-1.5h5.7v-1.1c0-2.4-1.3-3.7-3.9-3.7c-2.8,0-4.1,1.1-4.1,3.3h-4.3v-0.3c0-2.1,0.8-3.8,2.3-5
			c1.5-1.2,3.6-1.8,6.1-1.8c2.6,0,4.7,0.6,6.1,1.9c1.4,1.3,2.2,3,2.2,5.3v12.3H183.2z M183.2,69.6h-5.1c-2.2,0-3.3,0.8-3.3,2.5
			c0,0.7,0.2,1.2,0.6,1.6c0.4,0.4,1,0.6,1.7,0.6c1,0,2.1-0.3,3.3-0.9l2.8-1.5V69.6z"/>
		<path class="st0" d="M157.2,77.5V58.3h4.4V61l0.8-0.8c1.4-1.4,3-2,4.7-2h1.1v4.5h-1.1c-1.6,0-2.9,0.4-4,1.3l-1.5,1.2v12.3H157.2z"
			/>
		<path class="st0" d="M148.6,77.5v-2.2l-2,1.1c-1.7,0.9-3.4,1.4-5.1,1.4c-1.7,0-3.1-0.5-4.1-1.5c-1.1-1-1.6-2.3-1.6-3.9
			c0-1.9,0.7-3.4,2-4.4c1.3-1,3-1.5,5.1-1.5h5.7v-1.1c0-2.4-1.3-3.7-3.9-3.7c-2.8,0-4.1,1.1-4.1,3.3h-4.3v-0.3c0-2.1,0.8-3.8,2.3-5
			c1.5-1.2,3.6-1.8,6.1-1.8c2.6,0,4.7,0.6,6.1,1.9c1.4,1.3,2.2,3,2.2,5.3v12.3H148.6z M148.6,69.6h-5.1c-2.2,0-3.3,0.8-3.3,2.5
			c0,0.7,0.2,1.2,0.6,1.6c0.4,0.4,1,0.6,1.7,0.6c1,0,2.1-0.3,3.3-0.9l2.8-1.5V69.6z"/>
		<path class="st0" d="M114.9,84.2V58.3h4.3v2.1l2.2-1.2c1.4-0.8,2.8-1.1,4.3-1.1c2,0,3.6,0.6,4.8,1.8c1.2,1.2,1.8,2.8,1.8,4.7v6.4
			c0,2-0.6,3.6-1.9,4.8c-1.2,1.2-2.9,1.9-4.8,1.9c-1.4,0-2.8-0.4-4.2-1.1l-2.2-1.2v8.8H114.9z M128,65.2c0-0.9-0.3-1.7-0.8-2.3
			S125.9,62,125,62c-0.9,0-1.8,0.2-2.7,0.7l-3,1.7v6.8l3,1.7c0.9,0.5,1.8,0.8,2.7,0.8c0.9,0,1.6-0.3,2.2-0.9
			c0.5-0.6,0.8-1.3,0.8-2.3V65.2z"/>
		<path class="st0" d="M266.9,30.4c0-2-1.3-3-3.9-3c-1.2,0-2.1,0.2-2.8,0.7c-0.7,0.4-1,1-1,1.7c0,0.8,0.4,1.4,1.2,1.7
			c0.8,0.4,1.8,0.6,3,0.7c1.2,0.1,2.4,0.3,3.5,0.5c1.2,0.2,2.2,0.7,3,1.5c0.8,0.8,1.2,1.9,1.2,3.4c0,1.9-0.7,3.3-2.2,4.4
			c-1.5,1.1-3.5,1.6-6.1,1.6c-2.6,0-4.7-0.6-6.2-1.7c-1.5-1.1-2.2-2.6-2.2-4.6v-0.2h4.4c0,2,1.3,3,4,3c1.2,0,2.2-0.2,2.9-0.7
			c0.7-0.4,1-1,1-1.7c0-0.6-0.3-1.1-0.9-1.4c-0.6-0.3-1.3-0.5-2.2-0.6c-0.9-0.1-1.9-0.2-2.9-0.4c-1-0.2-2-0.4-2.9-0.7
			c-0.9-0.3-1.6-0.9-2.2-1.7c-0.6-0.8-0.9-1.8-0.9-3.1c0-1.9,0.7-3.3,2.2-4.4c1.5-1.1,3.4-1.6,6-1.6c2.6,0,4.6,0.6,6,1.7
			c1.4,1.1,2.1,2.7,2.1,4.6v0.2H266.9z"/>
		<path class="st0" d="M246.6,43.3v-2.2l-2,1.1c-1.7,0.9-3.4,1.4-5.1,1.4c-1.7,0-3.1-0.5-4.1-1.5c-1.1-1-1.6-2.3-1.6-3.9
			c0-1.9,0.7-3.4,2-4.4c1.3-1,3-1.5,5.1-1.5h5.7v-1.1c0-2.4-1.3-3.7-3.9-3.7c-2.8,0-4.1,1.1-4.1,3.3h-4.3v-0.3c0-2.1,0.8-3.8,2.3-5
			c1.5-1.2,3.6-1.8,6.1-1.8c2.6,0,4.7,0.6,6.1,1.9c1.4,1.3,2.2,3,2.2,5.3v12.3H246.6z M246.6,35.4h-5.1c-2.2,0-3.3,0.8-3.3,2.5
			c0,0.7,0.2,1.2,0.6,1.6c0.4,0.4,1,0.6,1.7,0.6c1,0,2.1-0.3,3.3-0.9l2.8-1.5V35.4z"/>
		<path class="st0" d="M225.6,43.3v-13c0-1.6-0.7-2.4-2-2.4c-0.6,0-1.4,0.3-2.3,0.8l-2.3,1.4v13.2h-4.4v-13c0-1.6-0.7-2.4-2-2.4
			c-0.6,0-1.4,0.2-2.3,0.7l-2.3,1.4v13.2h-4.4V24.1h4.3v2l1.7-1c1.3-0.8,2.7-1.2,4-1.2c2.2,0,3.7,0.9,4.5,2.6l2.1-1.3
			c1.4-0.9,2.9-1.3,4.4-1.3c1.7,0,3,0.5,3.9,1.5c0.9,1,1.4,2.4,1.4,4.3v13.5H225.6z"/>
		<path class="st0" d="M199.3,37.3c0,1.9-0.8,3.5-2.3,4.6c-1.5,1.2-3.6,1.7-6.1,1.7c-2.5,0-4.6-0.7-6.1-2c-1.6-1.3-2.3-3.1-2.3-5.4
			v-4.5c0-2.4,0.8-4.3,2.4-5.7c1.6-1.4,3.6-2.1,6.1-2.1c2.5,0,4.6,0.7,6.1,2.1c1.5,1.4,2.3,3.3,2.3,5.8v3.4h-12.7v0.9
			c0,1.3,0.4,2.3,1.2,2.9c0.8,0.7,1.8,1,3.1,1c2.8,0,4.1-1,4.1-2.9h4.2V37.3z M195.2,31.7c0-1.4-0.4-2.4-1.1-3.1
			c-0.8-0.7-1.8-1.1-3.1-1.1c-1.4,0-2.4,0.4-3.2,1.1c-0.8,0.7-1.1,1.8-1.1,3.1v0.5h8.6V31.7z"/>
		<path class="st0" d="M177.5,43.3c-2.3,0-4.1-0.6-5.4-1.7c-1.3-1.1-1.9-2.8-1.9-4.9v-8.8h-2.9v-3.7h2.9v-5.2h4.5v5.2h5.3v3.7h-5.3
			v8.6c0,1.1,0.3,1.9,0.8,2.3c0.5,0.5,1.3,0.7,2.4,0.7h2.3v3.8H177.5z"/>
		<path class="st0" d="M160.5,30.4c0-2-1.3-3-3.9-3c-1.2,0-2.1,0.2-2.8,0.7s-1,1-1,1.7c0,0.8,0.4,1.4,1.2,1.7c0.8,0.4,1.8,0.6,3,0.7
			c1.2,0.1,2.4,0.3,3.5,0.5c1.2,0.2,2.2,0.7,3,1.5c0.8,0.8,1.2,1.9,1.2,3.4c0,1.9-0.7,3.3-2.2,4.4c-1.5,1.1-3.5,1.6-6.1,1.6
			c-2.6,0-4.7-0.6-6.2-1.7c-1.5-1.1-2.2-2.6-2.2-4.6v-0.2h4.4c0,2,1.3,3,4,3c1.2,0,2.2-0.2,2.9-0.7c0.7-0.4,1-1,1-1.7
			c0-0.6-0.3-1.1-0.9-1.4c-0.6-0.3-1.3-0.5-2.2-0.6c-0.9-0.1-1.9-0.2-2.9-0.4c-1-0.2-2-0.4-2.9-0.7c-0.9-0.3-1.6-0.9-2.2-1.7
			c-0.6-0.8-0.9-1.8-0.9-3.1c0-1.9,0.7-3.3,2.2-4.4c1.5-1.1,3.4-1.6,6-1.6c2.6,0,4.6,0.6,6,1.7c1.4,1.1,2.1,2.7,2.1,4.6v0.2H160.5z"
			/>
		<rect x="139.7" y="24.1" class="st0" width="4.5" height="19.2"/>
		<path class="st0" d="M144.5,19c0,0.7-0.2,1.2-0.7,1.5c-0.5,0.4-1.1,0.5-1.8,0.5c-0.7,0-1.3-0.2-1.8-0.5c-0.5-0.4-0.7-0.9-0.7-1.5
			v-0.8c0-0.7,0.2-1.2,0.7-1.6c0.5-0.4,1.1-0.5,1.8-0.5c0.8,0,1.4,0.2,1.8,0.5c0.5,0.4,0.7,0.9,0.7,1.6V19z"/>
		<path class="st0" d="M130.4,24.5c0-3-1.8-4.5-5.3-4.5c-1.7,0-3,0.3-3.9,1c-0.9,0.7-1.3,1.6-1.3,2.8c0,0.9,0.3,1.6,0.9,2.1
			c0.6,0.5,1.3,0.9,2.2,1.1c0.9,0.2,1.9,0.5,3.1,0.6c1.1,0.2,2.2,0.4,3.3,0.7c1.1,0.3,2.1,0.7,3.1,1.2c0.9,0.5,1.7,1.2,2.2,2.2
			c0.6,1,0.9,2.2,0.9,3.7c0,2.5-0.9,4.5-2.8,6c-1.9,1.5-4.4,2.2-7.7,2.2c-3.3,0-5.9-0.7-7.7-2.1c-1.8-1.4-2.7-3.5-2.7-6.3v-0.3h4.9
			c0,3,1.9,4.5,5.6,4.5c1.7,0,3.1-0.3,4-1c0.9-0.7,1.4-1.6,1.4-2.7c0-0.8-0.3-1.5-0.9-2.1c-0.6-0.5-1.3-0.9-2.2-1.2
			c-0.9-0.2-1.9-0.5-3.1-0.6s-2.2-0.4-3.3-0.7c-1.1-0.3-2.1-0.7-3.1-1.2c-0.9-0.5-1.7-1.2-2.2-2.3c-0.6-1-0.9-2.3-0.9-3.7
			c0-2.5,0.9-4.5,2.7-5.9c1.8-1.5,4.3-2.2,7.4-2.2c3.3,0,5.8,0.7,7.6,2.1c1.8,1.4,2.7,3.5,2.7,6.2v0.3H130.4z"/>
	</g>
	<g>
		<path class="st0" d="M100,80.8c0,10.6-8.6,19.2-19.2,19.2H17.3C7.7,100,0,92.3,0,82.7c0-9.6,7.7-17.3,17.3-17.3
			c0.7,0,1.3,0,1.9,0.1c0,0,0-0.1,0-0.1c0-10.6,8.6-19.2,19.2-19.2c2,0,3.9,0.3,5.8,0.9c3.3-7.3,10.7-12.4,19.2-12.4
			c11.7,0,21.2,9.5,21.2,21.2c0,2.1-0.3,4.1-0.9,6C92.9,63.2,100,71.2,100,80.8z M80.8,65.4c-1.1,0-2.1,0.1-3.2,0.3
			c2-2.8,3.2-6.2,3.2-9.9c0-9.6-7.7-17.3-17.3-17.3c-8.4,0-15.3,5.9-17,13.8c-2.3-1.4-5.1-2.3-8-2.3c-8.5,0-15.4,6.9-15.4,15.4
			c0,2,0.4,4,1.1,5.8c-2-1.2-4.4-1.9-6.9-1.9c-7.4,0-13.5,6-13.5,13.5c0,7.4,6,13.5,13.5,13.5h63.5c8.5,0,15.4-6.9,15.4-15.4
			S89.3,65.4,80.8,65.4z"/>
		<rect x="11.5" y="57.7" class="st0" width="3.8" height="3.8"/>
		<rect x="11.5" y="50" class="st0" width="3.8" height="3.8"/>
		<rect x="11.5" y="42.3" class="st0" width="3.8" height="3.8"/>
		<rect x="88.5" y="53.8" class="st0" width="3.8" height="3.8"/>
		<rect x="88.5" y="46.2" class="st0" width="3.8" height="3.8"/>
		<rect x="88.5" y="38.5" class="st0" width="3.8" height="3.8"/>
		<rect x="88.5" y="30.8" class="st0" width="3.8" height="3.8"/>
		<path class="st0" d="M23.1,0H3.8C1.7,0,0,1.7,0,3.8v30.8c0,2.1,1.7,3.8,3.8,3.8h19.2c2.1,0,3.8-1.7,3.8-3.8V3.8
			C26.9,1.7,25.2,0,23.1,0z M13.5,36.5c-1.1,0-1.9-0.9-1.9-1.9c0-1.1,0.9-1.9,1.9-1.9c1.1,0,1.9,0.9,1.9,1.9
			C15.4,35.7,14.5,36.5,13.5,36.5z M21.2,30.8H5.8c-1.1,0-1.9-0.9-1.9-1.9V5.8c0-1.1,0.9-1.9,1.9-1.9h15.4c1.1,0,1.9,0.9,1.9,1.9
			v23.1C23.1,29.9,22.2,30.8,21.2,30.8z"/>
		<path class="st0" d="M46.2,34.6c0,2.1-1.7,3.8-3.8,3.8s-3.8-1.7-3.8-3.8s1.7-3.8,3.8-3.8S46.2,32.5,46.2,34.6z M42.3,32.7
			c-1.1,0-1.9,0.9-1.9,1.9c0,1.1,0.9,1.9,1.9,1.9c1.1,0,1.9-0.9,1.9-1.9C44.2,33.6,43.4,32.7,42.3,32.7z"/>
		<path class="st0" d="M42.3,25c0,3.2-2.6,5.8-5.8,5.8c-3.2,0-5.8-2.6-5.8-5.8s2.6-5.8,5.8-5.8C39.7,19.2,42.3,21.8,42.3,25z
			 M36.5,22.1c-1.6,0-2.9,1.3-2.9,2.9s1.3,2.9,2.9,2.9s2.9-1.3,2.9-2.9S38.1,22.1,36.5,22.1z"/>
		<path class="st0" d="M53.8,9.6c0,5.3-4.3,9.6-9.6,9.6s-9.6-4.3-9.6-9.6S38.9,0,44.2,0S53.8,4.3,53.8,9.6z M44.2,3.8
			c-3.2,0-5.8,2.6-5.8,5.8s2.6,5.8,5.8,5.8c3.2,0,5.8-2.6,5.8-5.8S47.4,3.8,44.2,3.8z"/>
		<path class="st0" d="M96.2,26.9H61.5c-2.1,0-3.8-1.7-3.8-3.8V3.8c0-2.1,1.7-3.8,3.8-3.8h34.6c2.1,0,3.8,1.7,3.8,3.8v19.2
			C100,25.2,98.3,26.9,96.2,26.9z M96.2,21.2V5.8c0-1.1-0.9-1.9-1.9-1.9H63.5c-1.1,0-1.9,0.9-1.9,1.9v15.4c0,1.1,0.9,1.9,1.9,1.9
			h30.8C95.3,23.1,96.2,22.2,96.2,21.2z"/>
	</g>
</g>
</svg>
