<?xml version="1.0" encoding="utf-8"?>
<!-- Generator: Adobe Illustrator 24.1.1, SVG Export Plug-In . SVG Version: 6.00 Build 0)  -->
<svg version="1.1" id="Layer_1" xmlns="http://www.w3.org/2000/svg" xmlns:xlink="http://www.w3.org/1999/xlink" x="0px" y="0px"
	 viewBox="0 0 856.9 137.2" style="enable-background:new 0 0 856.9 137.2;" xml:space="preserve">
<style type="text/css">
	.st0{fill:#4A555C;}
	.st1{fill:#B01117;}
</style>
<g>
	<g>
		<polygon class="st0" points="16.3,53.2 16.3,90.7 0,90.7 0,0 58.9,0 58.9,14.4 16.3,14.4 16.3,38.8 55.2,38.8 55.2,53.2 		"/>
		<path class="st0" d="M306.9,67.3c0,16.1-11.1,24.5-27.8,24.5c-16.6,0-27.7-9.1-27.7-25.1v-16c0-16,11.1-25.2,27.7-25.2
			c16.7,0,27.8,8.5,27.8,24.6v1.1h-14.3c0-9.1-5-12.9-13.5-12.9c-8.4,0-13.3,4.4-13.3,13.7v13.4c0,9.3,4.9,13.7,13.3,13.7
			c8.5,0,13.5-3.7,13.5-12.8h14.3V67.3z"/>
		<path class="st0" d="M108.4,90.7v-7.4l-6.7,3.7c-6,3.2-10.6,4.6-16.9,4.6c-11.4,0-19.1-7.4-19.1-18.3c0-13.4,10.5-19.6,23.8-19.6
			h19.1v-3.8c0-8.3-4.8-12.3-13.2-12.3c-8.8,0-13.9,3.7-13.9,11.2H67.1v-0.8c0-14.5,11.5-22.7,28.2-22.7c17.6,0,27.7,8.8,27.7,24.1
			v41.3L108.4,90.7L108.4,90.7z M108.4,64.1H91.3c-8.9,0-11,4.2-11,8.4c0,4.5,2.8,7.2,7.7,7.2c4,0,7.4-1.2,11.1-3.2l9.3-5
			C108.4,71.6,108.4,64.1,108.4,64.1z"/>
		<path class="st0" d="M165.4,90.7c-14.9,0-24.5-7.4-24.5-22.1V39h-9.8V26.5h9.8V9H156v17.4h17.8V39H156v28.8
			c0,7.6,3.4,10.1,10.6,10.1h7.6v12.8H165.4z"/>
		<path class="st0" d="M238.5,70.5c0,13-11.2,21.3-28.2,21.3c-16.6,0-28.4-9-28.4-24.7V51.8c0-16.2,11.8-26.3,28.4-26.3
			c16.7,0,28.3,9.6,28.3,26.6v11.3H196v3.2c0,9.1,6.1,13.2,14.5,13.2c8.3,0,13.9-2.9,13.9-9.9h14.1V70.5z M224.8,51.8
			c0-9.1-5.4-14.1-14.3-14.1c-9,0-14.5,5-14.5,14.3v1.6h28.8L224.8,51.8L224.8,51.8z"/>
	</g>
	<g>
		<polygon class="st1" points="109.5,130.5 109.5,108.3 102,108.3 102,104.2 121.9,104.2 121.9,108.3 114.4,108.3 114.4,130.5 		"/>
		<path class="st1" d="M133.9,130.5v-2.2l-1.9,1.1c-1.7,0.9-3.1,1.3-4.9,1.3c-3.3,0-5.6-2.2-5.6-5.3c0-3.9,3-5.7,6.9-5.7h5.6v-1.1
			c0-2.4-1.4-3.6-3.8-3.6c-2.6,0-4,1.1-4,3.3h-4.2V118c0-4.2,3.3-6.6,8.2-6.6c5.1,0,8,2.6,8,7v12H133.9z M133.9,122.8h-5
			c-2.6,0-3.2,1.2-3.2,2.4c0,1.3,0.8,2.1,2.2,2.1c1.2,0,2.2-0.3,3.2-0.9l2.7-1.4L133.9,122.8L133.9,122.8z"/>
		<path class="st1" d="M154.7,137v-8.6l-2.1,1.2c-1.4,0.8-2.8,1.1-4.2,1.1c-3.9,0-6.4-2.6-6.4-6.4v-6.3c0-3.8,2.6-6.5,6.5-6.5
			c1.3,0,2.7,0.3,4.1,1.1l2.2,1.2v-2h4.2V137H154.7z M154.7,117.8l-3-1.7c-0.8-0.4-1.6-0.7-2.6-0.7c-1.8,0-2.9,1.2-2.9,3.1v5.3
			c0,1.8,1.2,3.1,2.9,3.1c1,0,1.8-0.3,2.6-0.7l3-1.6V117.8z"/>
		<path class="st1" d="M175.3,130.5v-2.2l-2,1.2c-1.3,0.8-2.6,1.2-4.1,1.2c-3.6,0-5.9-2.4-5.9-6.1v-12.8h4.3v12.3
			c0,1.6,1,2.7,2.5,2.7c0.9,0,1.7-0.3,2.4-0.8l2.7-1.6v-12.6h4.3v18.7L175.3,130.5L175.3,130.5z"/>
		<path class="st1" d="M195.7,130.5v-2.2l-1.9,1.1c-1.7,0.9-3.1,1.3-4.9,1.3c-3.3,0-5.6-2.2-5.6-5.3c0-3.9,3-5.7,6.9-5.7h5.6v-1.1
			c0-2.4-1.4-3.6-3.8-3.6c-2.6,0-4,1.1-4,3.3h-4.2V118c0-4.2,3.3-6.6,8.2-6.6c5.1,0,8,2.6,8,7v12H195.7z M195.7,122.8h-5
			c-2.6,0-3.2,1.2-3.2,2.4c0,1.3,0.8,2.1,2.2,2.1c1.2,0,2.2-0.3,3.2-0.9l2.7-1.4L195.7,122.8L195.7,122.8z"/>
		<path class="st1" d="M204.1,130.5v-18.7h4.3v2.7l0.8-0.8c1.4-1.3,2.8-2,4.6-2h1.1v4.3h-1.1c-1.6,0-2.7,0.3-3.9,1.3l-1.4,1.2v12
			L204.1,130.5L204.1,130.5z"/>
		<path class="st1" d="M222.4,106.8c0,1.3-1,2-2.4,2c-1.4,0-2.4-0.7-2.4-2V106c0-1.3,1.1-2.1,2.4-2.1c1.4,0,2.4,0.7,2.4,2.1V106.8z
			 M217.8,111.8h4.4v18.7h-4.4V111.8z"/>
		<path class="st1" d="M235.1,130.5c-4.3,0-7.1-2.2-7.1-6.4v-8.6h-2.8v-3.7h2.8v-5.1h4.4v5.1h5.2v3.7h-5.2v8.3c0,2.2,1,2.9,3.1,2.9
			h2.2v3.7H235.1z"/>
		<path class="st1" d="M245.7,106.8c0,1.3-1,2-2.4,2c-1.4,0-2.4-0.7-2.4-2V106c0-1.3,1.1-2.1,2.4-2.1c1.4,0,2.4,0.7,2.4,2.1V106.8z
			 M241.1,111.8h4.4v18.7h-4.4V111.8z"/>
		<path class="st1" d="M262,130.5v-12.3c0-1.4-0.8-2.8-2.5-2.8c-1,0-1.7,0.3-2.4,0.8l-2.7,1.6v12.6H250v-18.7h4.3v2.2l2-1.2
			c1.4-0.9,2.7-1.2,4.1-1.2c3.6,0,5.9,2.4,5.9,6.1v12.8L262,130.5L262,130.5z"/>
		<path class="st1" d="M274.3,123.7c-0.9,0-1.3,0.4-1.3,1.2c0,0.7,0.5,1.2,1.2,1.2h7.2c4.3,0,6.7,1.7,6.7,5.1c0,3.9-3.5,6-8.6,6
			c-5.7,0-8.3-2.6-8.3-7.1v-1.9c-1.2-0.5-1.8-1.6-1.8-3.3c0-2,1.1-3.2,2.5-3.6c0,0-1.3-1.1-1.3-3.5c0-4,2.8-6,6.9-6h10.8v3.6h-2.7
			c0,0,0.9,0.7,0.9,2.6c0,3.6-2.6,5.7-6.8,5.7L274.3,123.7L274.3,123.7z M279.2,120.6c2.3,0,3.5-0.8,3.5-2.8c0-1.8-1.2-2.7-3.2-2.7
			h-1.6c-2,0-3.3,0.6-3.3,2.8c0,1.9,1.2,2.7,3.2,2.7H279.2z M275.1,129.3v0.8c0,2.6,1.1,4,4.4,4c3,0,4.5-0.8,4.5-2.6
			c0-1.6-1.2-2.1-3.2-2.1L275.1,129.3L275.1,129.3z"/>
		<path class="st1" d="M302.9,130.5v-2.2l-2,1.1c-1.7,0.9-3.1,1.3-4.9,1.3c-3.3,0-5.6-2.2-5.6-5.3c0-3.9,3-5.7,6.9-5.7h5.6v-1.1
			c0-2.4-1.4-3.6-3.8-3.6c-2.5,0-4,1.1-4,3.3h-4.2V118c0-4.2,3.3-6.6,8.2-6.6c5.1,0,8,2.6,8,7v12H302.9z M302.9,122.8h-5
			c-2.6,0-3.2,1.2-3.2,2.4c0,1.3,0.8,2.1,2.2,2.1c1.2,0,2.2-0.3,3.2-0.9l2.7-1.4L302.9,122.8L302.9,122.8z"/>
	</g>
</g>
<polygon class="st0" points="371.1,68.6 348.3,96.1 348.3,137.2 343.7,137.2 343.7,0 348.3,0 348.3,41.2 "/>
<g>
	<path class="st0" d="M401.2,54.5V5.3h32.7v7.8H410v12.6h21.4v7.8H410v13.2h24v7.9H401.2z"/>
	<path class="st0" d="M481.8,54.5V30.8c0-2.9-1.2-4.3-3.7-4.3c-1.1,0-2.5,0.5-4.2,1.4l-4.2,2.6v24h-8V30.9c0-2.9-1.2-4.3-3.6-4.3
		c-1.1,0-2.6,0.4-4.2,1.3l-4.2,2.6v24h-8V19.6h7.9v3.6l3.1-1.9c2.4-1.4,4.8-2.1,7.3-2.1c4.1,0,6.8,1.6,8.3,4.7l3.8-2.3
		c2.6-1.6,5.2-2.4,8-2.4c3,0,5.4,0.9,7.1,2.8c1.7,1.9,2.6,4.5,2.6,7.8v24.6H481.8z"/>
	<path class="st0" d="M497.9,66.6v-47h7.8v3.8l4-2.2c2.6-1.4,5.2-2,7.8-2c3.6,0,6.5,1.1,8.7,3.3c2.2,2.2,3.3,5.1,3.3,8.6v11.7
		c0,3.6-1.1,6.5-3.4,8.7c-2.2,2.2-5.2,3.4-8.8,3.4c-2.6,0-5.1-0.7-7.7-2l-4-2.2v16H497.9z M521.7,32.1c0-1.7-0.5-3.1-1.5-4.1
		c-1-1-2.3-1.6-3.9-1.6c-1.6,0-3.3,0.4-4.9,1.3l-5.5,3.1v12.4l5.5,3c1.6,0.9,3.2,1.4,4.9,1.4c1.6,0,2.9-0.5,3.9-1.6
		c1-1,1.5-2.4,1.5-4.1V32.1z"/>
	<path class="st0" d="M537.1,54.5V19.6h8v5l1.5-1.5c2.6-2.5,5.5-3.7,8.6-3.7h2v8.1h-2c-2.8,0-5.3,0.8-7.3,2.4l-2.7,2.2v22.3H537.1z"
		/>
	<path class="st0" d="M592.4,43.5c0,3.5-1.4,6.3-4.2,8.4c-2.8,2.1-6.5,3.1-11.1,3.1c-4.6,0-8.3-1.2-11.1-3.6
		c-2.8-2.4-4.3-5.7-4.3-9.8v-8.3c0-4.4,1.4-7.8,4.3-10.4c2.9-2.6,6.6-3.9,11.1-3.9c4.6,0,8.3,1.3,11.1,3.8c2.8,2.6,4.2,6.1,4.2,10.6
		v6.1h-23.1v1.7c0,2.4,0.7,4.2,2.1,5.4c1.4,1.2,3.3,1.8,5.7,1.8c5,0,7.5-1.8,7.5-5.4h7.7V43.5z M584.9,33.4c0-2.5-0.7-4.4-2-5.7
		s-3.3-2-5.7-2c-2.5,0-4.4,0.7-5.8,2c-1.4,1.3-2.1,3.3-2.1,5.7v0.9h15.6V33.4z"/>
	<path class="st0" d="M607,41.8c-1.6,0-2.4,0.8-2.4,2.3c0,1.5,0.7,2.2,2.2,2.2h13.5c8.3,0,12.5,3.2,12.5,9.6c0,3.6-1.5,6.3-4.4,8.3
		c-2.9,1.9-6.8,2.9-11.6,2.9c-10.4,0-15.5-4.4-15.5-13.2v-3.5c-2.3-1.1-3.4-3.1-3.4-6.2c0-1.8,0.4-3.3,1.3-4.4
		c0.9-1.1,2-1.9,3.4-2.3c-0.2-0.1-0.4-0.4-0.7-0.7c-0.3-0.3-0.7-1-1.1-2.2c-0.5-1.1-0.7-2.4-0.7-3.8c0-3.6,1.2-6.4,3.5-8.3
		s5.4-2.9,9.4-2.9h20.2v6.7h-5c1.1,0.9,1.7,2.5,1.7,4.8c0,3.3-1.1,5.9-3.4,7.8c-2.3,1.9-5.3,2.9-9.2,2.9H607z M616.1,36
		c4.4,0,6.6-1.7,6.6-5.2c0-3.4-2-5.1-5.9-5.1h-3c-2,0-3.5,0.4-4.6,1.2c-1,0.8-1.5,2.1-1.5,4.1c0,3.3,2,5,5.9,5H616.1z M608.5,52.2
		v1.5c0,2.5,0.6,4.4,1.9,5.6c1.2,1.2,3.4,1.8,6.4,1.8c5.6,0,8.5-1.7,8.5-5c0-2.6-2-3.9-5.9-3.9H608.5z"/>
	<path class="st0" d="M669.1,41c0,4.3-1.5,7.8-4.4,10.3c-2.9,2.6-6.7,3.9-11.4,3.9c-4.7,0-8.5-1.3-11.4-3.9s-4.4-6-4.4-10.3v-7.6
		c0-4.4,1.5-7.8,4.4-10.4s6.7-3.9,11.4-3.9c4.7,0,8.5,1.3,11.4,3.9c2.9,2.6,4.4,6,4.4,10.4V41z M661.5,34.2c0-2.6-0.7-4.5-2.2-6
		c-1.5-1.4-3.4-2.1-5.9-2.1s-4.4,0.7-5.8,2.1c-1.5,1.4-2.2,3.4-2.2,6v6c0,2.6,0.7,4.5,2.2,6c1.5,1.4,3.4,2.1,5.8,2.1
		s4.4-0.7,5.9-2.1c1.5-1.4,2.2-3.4,2.2-6V34.2z"/>
	<path class="st0" d="M697.8,30.9c0-3.6-2.4-5.4-7.1-5.4c-2.2,0-3.8,0.4-5,1.2c-1.2,0.8-1.8,1.8-1.8,3.1c0,1.5,0.7,2.5,2.2,3.1
		c1.5,0.6,3.3,1.1,5.5,1.3c2.1,0.2,4.3,0.5,6.4,1c2.2,0.4,4,1.4,5.5,2.8c1.5,1.5,2.2,3.5,2.2,6.1c0,3.4-1.4,6-4.1,8s-6.4,2.9-11,2.9
		c-4.8,0-8.5-1-11.2-3s-4-4.8-4-8.4v-0.4h8.1c0,3.6,2.4,5.4,7.3,5.4c2.2,0,4-0.4,5.3-1.2c1.3-0.8,1.9-1.8,1.9-3.1
		c0-1.1-0.5-2-1.6-2.6c-1.1-0.6-2.4-1-4.1-1.1c-1.6-0.1-3.4-0.4-5.3-0.7c-1.9-0.4-3.6-0.8-5.3-1.4c-1.6-0.6-3-1.6-4.1-3
		c-1.1-1.5-1.6-3.3-1.6-5.6c0-3.4,1.3-6.1,4-8c2.6-1.9,6.3-2.9,10.8-2.9c4.7,0,8.4,1,10.9,3c2.6,2,3.8,4.8,3.8,8.4v0.4H697.8z"/>
	<path class="st0" d="M761.8,43.5c0,3.5-1.4,6.3-4.2,8.4c-2.8,2.1-6.5,3.1-11.1,3.1c-4.6,0-8.3-1.2-11.1-3.6
		c-2.8-2.4-4.3-5.7-4.3-9.8v-8.3c0-4.4,1.4-7.8,4.3-10.4c2.9-2.6,6.6-3.9,11.1-3.9c4.6,0,8.3,1.3,11.1,3.8c2.8,2.6,4.2,6.1,4.2,10.6
		v6.1h-23.1v1.7c0,2.4,0.7,4.2,2.1,5.4c1.4,1.2,3.3,1.8,5.7,1.8c5,0,7.5-1.8,7.5-5.4h7.7V43.5z M754.3,33.4c0-2.5-0.7-4.4-2-5.7
		s-3.3-2-5.7-2c-2.5,0-4.4,0.7-5.8,2c-1.4,1.3-2.1,3.3-2.1,5.7v0.9h15.6V33.4z"/>
	<path class="st1" d="M442.8,100c0,6.7-2,11.8-5.9,15.2c-3.9,3.4-9.1,5.1-15.4,5.1c-6.3,0-11.4-1.7-15.2-5.1
		c-3.9-3.4-5.8-8.5-5.8-15.2v-9.6c0-6.7,2-11.8,5.9-15.2s9-5.1,15.3-5.1c6.4,0,11.5,1.7,15.3,5.1s5.8,8.5,5.8,15.3V100z M433.8,91
		c0-8.7-4.1-13.1-12.2-13.1s-12.2,4.4-12.2,13.1v8.5c0,4.6,1.1,8,3.3,10s5.2,3.1,8.9,3.1c3.7,0,6.7-1,8.9-3.1s3.4-5.4,3.4-10V91z"/>
	<path class="st1" d="M450.8,132V85h7.8v3.8l4-2.2c2.6-1.4,5.2-2,7.8-2c3.6,0,6.5,1.1,8.7,3.3c2.2,2.2,3.3,5.1,3.3,8.6v11.7
		c0,3.6-1.1,6.5-3.4,8.7c-2.2,2.2-5.2,3.4-8.8,3.4c-2.6,0-5.1-0.7-7.7-2l-4-2.2v16H450.8z M474.5,97.4c0-1.7-0.5-3.1-1.5-4.1
		c-1-1-2.3-1.6-3.9-1.6c-1.6,0-3.3,0.4-4.9,1.3l-5.5,3.1v12.4l5.5,3c1.6,0.9,3.2,1.4,4.9,1.4c1.6,0,2.9-0.5,3.9-1.6
		c1-1,1.5-2.4,1.5-4.1V97.4z"/>
	<path class="st1" d="M520.7,106.3c0,4.3-1.5,7.8-4.4,10.3c-2.9,2.6-6.7,3.9-11.4,3.9c-4.7,0-8.5-1.3-11.4-3.9s-4.4-6-4.4-10.3v-7.6
		c0-4.4,1.5-7.8,4.4-10.4s6.7-3.9,11.4-3.9c4.7,0,8.5,1.3,11.4,3.9c2.9,2.6,4.4,6,4.4,10.4V106.3z M513.1,99.5c0-2.6-0.7-4.5-2.2-6
		c-1.5-1.4-3.4-2.1-5.9-2.1s-4.4,0.7-5.8,2.1c-1.5,1.4-2.2,3.4-2.2,6v6c0,2.6,0.7,4.6,2.2,6c1.5,1.4,3.4,2.1,5.8,2.1
		s4.4-0.7,5.9-2.1c1.5-1.4,2.2-3.4,2.2-6V99.5z"/>
	<path class="st1" d="M528.3,119.8V85h8v5l1.5-1.5c2.6-2.5,5.5-3.7,8.6-3.7h2v8.1h-2c-2.8,0-5.3,0.8-7.3,2.4l-2.7,2.2v22.3H528.3z"
		/>
	<path class="st1" d="M569.4,119.8c-4.1,0-7.4-1-9.8-3.1c-2.4-2-3.5-5-3.5-8.9V91.8h-5.3V85h5.3v-9.5h8.2V85h9.7v6.8h-9.7v15.6
		c0,2,0.5,3.4,1.4,4.2c0.9,0.8,2.4,1.3,4.4,1.3h4.1v6.9H569.4z"/>
	<path class="st1" d="M602.6,119.8v-4l-3.7,2.2c-2.4,1.5-5,2.2-7.7,2.2c-3.4,0-6.1-1-8-3.1s-2.9-4.8-2.9-8.2V85h8.1v22.9
		c0,1.5,0.4,2.8,1.3,3.7c0.8,0.9,2,1.4,3.4,1.4c1.3,0,2.8-0.5,4.6-1.5l5.1-3V85h8v34.8H602.6z"/>
	<path class="st1" d="M641.2,119.8V96.9c0-1.5-0.4-2.7-1.2-3.7c-0.8-1-1.9-1.5-3.4-1.5c-1.3,0-2.8,0.5-4.6,1.5l-5.1,3v23.5h-8V85
		h7.9v4.1l3.7-2.2c2.3-1.4,4.9-2.2,7.7-2.2c3.4,0,6.1,1,8,3.1s2.9,4.8,2.9,8.2v23.9H641.2z"/>
	<path class="st1" d="M666.2,75.6c0,1.2-0.4,2.1-1.3,2.8c-0.8,0.7-1.9,1-3.3,1c-1.3,0-2.4-0.3-3.3-1s-1.3-1.6-1.3-2.8v-1.5
		c0-1.2,0.4-2.2,1.3-2.8c0.9-0.7,2-1,3.3-1c1.4,0,2.5,0.3,3.3,1c0.8,0.7,1.3,1.6,1.3,2.8V75.6z M657.5,119.8V85h8.2v34.8H657.5z"/>
	<path class="st1" d="M697.2,119.8V116l-4,2.2c-2.4,1.4-5,2-7.8,2c-3.6,0-6.5-1.1-8.7-3.3c-2.2-2.2-3.3-5.1-3.3-8.6V96.7
		c0-3.5,1.1-6.4,3.4-8.7c2.2-2.2,5.2-3.4,8.7-3.4c2.7,0,5.2,0.7,7.7,2l4,2.2V70.6h7.9v49.2H697.2z M697.2,96.2l-5.6-3.1
		c-1.6-0.9-3.3-1.3-4.9-1.3c-1.7,0-3,0.5-4,1.6c-1,1-1.5,2.4-1.5,4.1v9.9c0,1.8,0.5,3.2,1.5,4.2c1,1,2.3,1.6,4,1.6
		c1.5,0,3.2-0.5,4.9-1.4l5.6-3V96.2z"/>
	<path class="st1" d="M735.2,119.8v-4l-3.6,2c-3.2,1.7-6.2,2.5-9.2,2.5c-3.1,0-5.6-0.9-7.5-2.7c-1.9-1.8-2.9-4.2-2.9-7.2
		c0-3.5,1.2-6.1,3.6-7.9c2.4-1.8,5.5-2.7,9.3-2.7h10.4v-2c0-4.5-2.4-6.7-7.1-6.7c-5,0-7.5,2-7.5,6.1h-7.8v-0.5
		c0-3.9,1.4-6.9,4.2-9.1c2.8-2.2,6.5-3.2,11.1-3.2c4.8,0,8.4,1.1,11.1,3.4c2.6,2.3,3.9,5.5,3.9,9.7v22.4H735.2z M735.2,105.4H726
		c-4,0-5.9,1.5-5.9,4.6c0,1.2,0.4,2.2,1.1,2.9c0.7,0.7,1.8,1,3.1,1c1.9,0,3.9-0.6,6-1.7l5-2.7V105.4z"/>
	<path class="st1" d="M774.1,119.8V116l-4,2.2c-2.4,1.4-5,2-7.8,2c-3.6,0-6.5-1.1-8.7-3.3c-2.2-2.2-3.3-5.1-3.3-8.6V96.7
		c0-3.5,1.1-6.4,3.4-8.7c2.2-2.2,5.2-3.4,8.7-3.4c2.7,0,5.2,0.7,7.7,2l4,2.2V70.6h7.9v49.2H774.1z M774,96.2l-5.6-3.1
		c-1.6-0.9-3.3-1.3-4.9-1.3c-1.7,0-3,0.5-4,1.6c-1,1-1.5,2.4-1.5,4.1v9.9c0,1.8,0.5,3.2,1.5,4.2c1,1,2.3,1.6,4,1.6
		c1.5,0,3.2-0.5,4.9-1.4l5.6-3V96.2z"/>
	<path class="st1" d="M820.2,108.8c0,3.5-1.4,6.3-4.2,8.4c-2.8,2.1-6.5,3.1-11.1,3.1c-4.6,0-8.3-1.2-11.1-3.6
		c-2.8-2.4-4.3-5.7-4.3-9.8v-8.3c0-4.4,1.4-7.8,4.3-10.4c2.9-2.6,6.6-3.9,11.1-3.9c4.6,0,8.3,1.3,11.1,3.8c2.8,2.6,4.2,6.1,4.2,10.6
		v6.1h-23.1v1.7c0,2.4,0.7,4.2,2.1,5.4c1.4,1.2,3.3,1.8,5.7,1.8c5,0,7.5-1.8,7.5-5.4h7.7V108.8z M812.7,98.7c0-2.5-0.7-4.4-2-5.7
		c-1.4-1.3-3.3-2-5.7-2c-2.5,0-4.4,0.7-5.8,2c-1.4,1.3-2.1,3.3-2.1,5.7v0.9h15.6V98.7z"/>
	<path class="st1" d="M848.9,96.3c0-3.6-2.4-5.4-7.1-5.4c-2.2,0-3.8,0.4-5,1.2c-1.2,0.8-1.8,1.8-1.8,3.1c0,1.5,0.7,2.5,2.2,3.1
		c1.5,0.6,3.3,1.1,5.5,1.3c2.1,0.2,4.3,0.5,6.4,1s4,1.4,5.5,2.8c1.5,1.5,2.2,3.5,2.2,6.1c0,3.4-1.4,6-4.1,8s-6.4,2.9-11,2.9
		c-4.8,0-8.5-1-11.2-3s-4-4.8-4-8.4v-0.4h8.1c0,3.6,2.4,5.4,7.3,5.4c2.2,0,4-0.4,5.3-1.2s1.9-1.8,1.9-3.1c0-1.1-0.5-2-1.6-2.6
		c-1.1-0.6-2.4-1-4.1-1.1c-1.6-0.1-3.4-0.4-5.3-0.7c-1.9-0.4-3.6-0.8-5.3-1.4c-1.6-0.6-3-1.6-4.1-3c-1.1-1.5-1.6-3.3-1.6-5.6
		c0-3.4,1.3-6.1,4-8c2.6-1.9,6.3-2.9,10.8-2.9c4.7,0,8.4,1,10.9,3c2.6,2,3.8,4.8,3.8,8.4v0.4H848.9z"/>
</g>
</svg>
