<?xml version="1.0" encoding="utf-8"?>
<!-- Generator: Adobe Illustrator 23.0.1, SVG Export Plug-In . SVG Version: 6.00 Build 0)  -->
<svg version="1.1" id="Layer_1" xmlns="http://www.w3.org/2000/svg" xmlns:xlink="http://www.w3.org/1999/xlink" x="0px" y="0px"
	 viewBox="0 0 800 309.9" style="enable-background:new 0 0 800 309.9;" xml:space="preserve">
<style type="text/css">
	.st0{fill:#969696;}
	.st1{fill:#0080BE;}
	.st2{fill:#C8C8C8;}
</style>
<g>
	<g>
		<g>
			<path class="st0" d="M773.4,232.6c0-2.6-0.1-4.5-0.2-6.6h4.5l0.2,2.8h0.1c1.1-1.8,3-3.2,5.5-3.2c2.4,0,4.1,1.2,5,3.4h0.1
				c0.6-1,1.4-1.9,2.3-2.5c1-0.6,2.1-0.9,3.3-0.9c3.7,0,5.8,2.9,5.8,8.6v15.1h-5.1v-14.1c0-2.8-0.4-5.3-2.6-5.3
				c-1.3,0-2.4,1-2.8,2.7c-0.1,0.5-0.2,1.2-0.2,1.9v14.9h-5.1v-15c0-2.1-0.3-4.5-2.6-4.5c-1.2,0-2.4,1-2.9,2.8
				c-0.1,0.5-0.2,1.2-0.2,1.9v14.8h-5.1V232.6z"/>
			<path class="st0" d="M758.7,239.1c0,5.2,2.4,6.7,5.2,6.7c1.7,0,3.2-0.4,4.2-0.8l0.8,3.6c-1.5,0.7-3.7,1.1-5.8,1.1
				c-6,0-9.3-4.4-9.3-11.6c0-7.7,3.7-12.4,8.7-12.4c4.9,0,7.4,4.5,7.4,10.7c0,1.3,0,2.1-0.1,2.7H758.7z M765,235.4
				c0-3.7-1.2-5.9-3-5.9c-2.2,0-3.2,3.2-3.3,5.9H765z"/>
			<path class="st0" d="M749.9,246.6c0,5.5-0.9,8.1-2.6,9.8c-1.6,1.6-3.9,2.5-6.9,2.5c-2.1,0-4.1-0.4-5.6-1.1l1.1-4
				c1.1,0.5,2.5,1,4.4,1c3.1,0,4.6-2,4.6-6.3v-1.8h-0.1c-0.8,1.6-2.4,2.5-4.3,2.5c-4.7,0-7.1-5.3-7.1-11.4c0-8.1,3.7-12.2,7.6-12.2
				c2.2,0,3.5,1.3,4.3,2.9h0.1l0.3-2.5h4.5c-0.1,1.9-0.2,4.2-0.2,7.3V246.6z M744.8,234.3c0-0.6-0.1-1.2-0.2-1.7
				c-0.3-1.2-1.1-2.6-2.6-2.6c-2.4,0-3.6,3.3-3.6,7.7c0,5.1,1.5,7.5,3.5,7.5c1,0,2.1-0.5,2.6-2.4c0.2-0.6,0.3-1.3,0.3-2V234.3z"/>
			<path class="st0" d="M729.4,244.1c0,1.8,0,3.8,0.3,5.3h-4.6l-0.3-2.3h-0.1c-1.2,1.8-2.9,2.7-4.9,2.7c-3.4,0-5.9-2.8-5.9-6.9
				c0-6,5.1-8.5,10.4-8.6v-0.6c0-2.4-1-4.1-3.5-4.1c-1.7,0-3.1,0.5-4.4,1.3l-1-3.5c1.2-0.7,3.6-1.7,6.4-1.7c6,0,7.6,4.1,7.6,9.1
				V244.1z M724.4,237.7c-2,0-5.6,0.6-5.6,4.6c0,2.6,1.4,3.6,2.5,3.6c1.3,0,2.5-0.9,2.9-2.7c0.1-0.3,0.1-0.8,0.1-1.2V237.7z"/>
			<path class="st0" d="M710.4,242.6c0,2.5,0.1,4.8,0.2,6.8h-4.5l-0.3-2.4h-0.1c-0.9,1.4-2.8,2.8-5.2,2.8c-4.3,0-6-3.2-6-9.3V226
				h5.1v13.8c0,3.4,0.6,5.7,2.7,5.7c1.6,0,2.4-1.3,2.6-2.3c0.2-0.5,0.3-1.2,0.3-2V226h5.1V242.6z"/>
			<path class="st0" d="M690,246.6c0,5.5-0.9,8.1-2.6,9.8c-1.6,1.6-3.9,2.5-6.9,2.5c-2.1,0-4.1-0.4-5.6-1.1l1.1-4
				c1.1,0.5,2.5,1,4.4,1c3.1,0,4.6-2,4.6-6.3v-1.8h-0.1c-0.8,1.6-2.4,2.5-4.3,2.5c-4.7,0-7.1-5.3-7.1-11.4c0-8.1,3.7-12.2,7.6-12.2
				c2.2,0,3.5,1.3,4.3,2.9h0.1l0.3-2.5h4.5c-0.1,1.9-0.2,4.2-0.2,7.3V246.6z M684.9,234.3c0-0.6-0.1-1.2-0.2-1.7
				c-0.3-1.2-1.1-2.6-2.6-2.6c-2.4,0-3.6,3.3-3.6,7.7c0,5.1,1.5,7.5,3.5,7.5c1,0,2.1-0.5,2.6-2.4c0.2-0.6,0.3-1.3,0.3-2V234.3z"/>
			<path class="st0" d="M653.5,232.6c0-2.6-0.1-4.5-0.2-6.6h4.5l0.2,2.7h0.1c1.1-1.9,3.1-3.1,5.5-3.1c3.9,0,6,3,6,8.4v15.3h-5.1
				v-14.8c0-2.3-0.5-4.6-2.7-4.6c-1.2,0-2.4,1-2.9,2.9c-0.1,0.5-0.2,1.2-0.2,2.1v14.4h-5.1V232.6z"/>
			<g>
				<path class="st0" d="M646.1,222.9c-1.5,0-2.7-1.2-2.7-3c0-1.8,1.2-3,2.7-3c1.6,0,2.8,1.2,2.8,3
					C648.9,221.7,647.8,222.9,646.1,222.9L646.1,222.9z"/>
				<rect x="643.7" y="226" class="st0" width="5.1" height="23.3"/>
			</g>
			<polygon class="st0" points="626.7,217.1 631.8,217.1 631.8,245.1 640.5,245.1 640.5,249.4 626.7,249.4 			"/>
			<path class="st0" d="M603.9,239.1c0,5.2,2.4,6.7,5.2,6.7c1.7,0,3.2-0.4,4.2-0.8l0.8,3.6c-1.5,0.7-3.7,1.1-5.8,1.1
				c-6,0-9.3-4.4-9.3-11.6c0-7.7,3.7-12.4,8.7-12.4c4.9,0,7.4,4.5,7.4,10.7c0,1.3,0,2.1-0.1,2.7H603.9z M610.2,235.4
				c0-3.7-1.2-5.9-3-5.9c-2.2,0-3.2,3.2-3.3,5.9H610.2z"/>
			<path class="st0" d="M595.1,216.2v26.8c0,1.9,0.1,4.6,0.2,6.3h-4.4l-0.3-2.8h-0.1c-0.8,1.7-2.6,3.2-4.8,3.2
				c-4.6,0-7.1-4.9-7.1-12c0-8.2,3.5-12.1,7.3-12.1c1.9,0,3.3,0.9,4.1,2.5h0.1v-12H595.1z M590,235c0-0.4,0-1-0.1-1.4
				c-0.2-1.9-1.2-3.5-2.8-3.5c-2.6,0-3.5,3.7-3.5,7.9c0,4.7,1.2,7.7,3.4,7.7c1,0,2.2-0.5,2.8-2.9c0.1-0.4,0.2-0.9,0.2-1.5V235z"/>
			<path class="st0" d="M556.7,244.5c0.9,0.6,2.4,1.2,4,1.2c1.8,0,2.9-1,2.9-2.7c0-1.4-0.7-2.4-2.8-3.8c-3.5-2.1-4.7-4.3-4.7-6.7
				c0-4,2.9-7,7.1-7c1.9,0,3.4,0.5,4.5,1.2l-1,3.8c-0.9-0.6-2-1-3.2-1c-1.8,0-2.6,1.2-2.6,2.4c0,1.2,0.6,2,2.8,3.4
				c3.1,1.9,4.8,4.2,4.8,7.1c0,4.7-3.3,7.1-7.7,7.1c-1.8,0-4-0.5-5-1.3L556.7,244.5z"/>
			<path class="st0" d="M544.8,249.8c-4.9,0-8.3-4.1-8.3-12c0-8.5,4.2-12.1,8.5-12.1c4.9,0,8.2,4.3,8.2,12
				C553.3,247.1,548.4,249.8,544.8,249.8L544.8,249.8z M545,245.8c2.5,0,3.1-4.6,3.1-8.1c0-3.4-0.6-8.1-3.2-8.1
				c-2.8,0-3.3,4.7-3.3,8.1C541.6,241.6,542.3,245.8,545,245.8L545,245.8z"/>
			<path class="st0" d="M532.7,216.2v26.8c0,1.9,0.1,4.6,0.2,6.3h-4.4l-0.3-2.8H528c-0.8,1.7-2.6,3.2-4.8,3.2c-4.6,0-7.1-4.9-7.1-12
				c0-8.2,3.5-12.1,7.3-12.1c1.9,0,3.3,0.9,4.1,2.5h0.1v-12H532.7z M527.6,235c0-0.4,0-1-0.1-1.4c-0.2-1.9-1.2-3.5-2.8-3.5
				c-2.6,0-3.5,3.7-3.5,7.9c0,4.7,1.2,7.7,3.4,7.7c1,0,2.2-0.5,2.8-2.9c0.1-0.4,0.2-0.9,0.2-1.5V235z"/>
			<path class="st0" d="M512.2,242.6c0,2.5,0.1,4.8,0.2,6.8h-4.5l-0.3-2.4h-0.1c-0.9,1.4-2.8,2.8-5.2,2.8c-4.3,0-6-3.2-6-9.3V226
				h5.1v13.8c0,3.4,0.6,5.7,2.7,5.7c1.6,0,2.4-1.3,2.6-2.3c0.2-0.5,0.3-1.2,0.3-2V226h5.1V242.6z"/>
			<path class="st0" d="M488.9,220.2v5.8h4.5v3.7h-4.5v12.1c0,2.9,1.1,3.6,2.4,3.6c0.6,0,1.1,0,1.6-0.1l0.1,4
				c-0.8,0.2-1.9,0.4-3.4,0.4c-1.6,0-3.1-0.4-4.1-1.4c-1.2-1.2-1.7-2.8-1.7-6.3v-12.2H481V226h2.8v-4L488.9,220.2z"/>
			<path class="st0" d="M467.6,244.5c0.9,0.6,2.4,1.2,4,1.2c1.8,0,2.9-1,2.9-2.7c0-1.4-0.7-2.4-2.8-3.8c-3.5-2.1-4.7-4.3-4.7-6.7
				c0-4,2.9-7,7.1-7c1.9,0,3.4,0.5,4.5,1.2l-1,3.8c-0.9-0.6-2-1-3.2-1c-1.8,0-2.6,1.2-2.6,2.4c0,1.2,0.6,2,2.8,3.4
				c3.1,1.9,4.8,4.2,4.8,7.1c0,4.7-3.3,7.1-7.7,7.1c-1.8,0-4-0.5-5-1.3L467.6,244.5z"/>
			<polygon class="st0" points="463.3,234.7 455.6,234.7 455.6,244.9 464.3,244.9 464.3,249.4 450.5,249.4 450.5,217.1 463.7,217.1 
				463.7,221.5 455.6,221.5 455.6,230.4 463.3,230.4 			"/>
			<path class="st0" d="M427.6,239.1c0,5.2,2.4,6.7,5.2,6.7c1.7,0,3.2-0.4,4.2-0.8l0.8,3.6c-1.5,0.7-3.7,1.1-5.8,1.1
				c-6,0-9.3-4.4-9.3-11.6c0-7.7,3.7-12.4,8.7-12.4c4.9,0,7.4,4.5,7.4,10.7c0,1.3,0,2.1-0.1,2.7H427.6z M434,235.4
				c0-3.7-1.2-5.9-3-5.9c-2.2,0-3.2,3.2-3.3,5.9H434z"/>
			<path class="st0" d="M418.8,216.2v26.8c0,1.9,0.1,4.6,0.2,6.3h-4.4l-0.3-2.8h-0.1c-0.8,1.7-2.6,3.2-4.8,3.2
				c-4.6,0-7.1-4.9-7.1-12c0-8.2,3.5-12.1,7.3-12.1c1.9,0,3.3,0.9,4.1,2.5h0.1v-12H418.8z M413.7,235c0-0.4,0-1-0.1-1.4
				c-0.2-1.9-1.2-3.5-2.8-3.5c-2.6,0-3.5,3.7-3.5,7.9c0,4.7,1.2,7.7,3.4,7.7c1,0,2.2-0.5,2.8-2.9c0.1-0.4,0.2-0.9,0.2-1.5V235z"/>
			<path class="st0" d="M383.4,249.8c-4.9,0-8.3-4.1-8.3-12c0-8.5,4.2-12.1,8.5-12.1c4.9,0,8.2,4.3,8.2,12
				C391.8,247.1,386.9,249.8,383.4,249.8L383.4,249.8z M383.5,245.8c2.5,0,3.1-4.6,3.1-8.1c0-3.4-0.6-8.1-3.2-8.1
				c-2.8,0-3.3,4.7-3.3,8.1C380.1,241.6,380.8,245.8,383.5,245.8L383.5,245.8z"/>
			<path class="st0" d="M361.2,239.1c0,5.2,2.4,6.7,5.2,6.7c1.7,0,3.2-0.4,4.2-0.8l0.8,3.6c-1.5,0.7-3.7,1.1-5.8,1.1
				c-6,0-9.3-4.4-9.3-11.6c0-7.7,3.7-12.4,8.7-12.4c4.9,0,7.4,4.5,7.4,10.7c0,1.3,0,2.1-0.1,2.7H361.2z M367.5,235.4
				c0-3.7-1.2-5.9-3-5.9c-2.2,0-3.2,3.2-3.3,5.9H367.5z"/>
			<rect x="347" y="216.2" class="st0" width="5.1" height="33.2"/>
			<path class="st0" d="M344.2,248.9c-0.7,0.4-2.2,0.8-3.9,0.8c-5.6,0-9.3-4.1-9.3-11.8c0-7,3.9-12.2,10.1-12.2
				c1.4,0,2.7,0.3,3.4,0.7l-0.8,4.1c-0.5-0.2-1.3-0.5-2.5-0.5c-3.3,0-5,3.5-5,7.9c0,4.8,1.9,7.7,5,7.7c1,0,1.8-0.2,2.5-0.5
				L344.2,248.9z"/>
			<g>
				<path class="st0" d="M327.2,242.6c0,2.5,0.1,4.8,0.2,6.8h-4.5l-0.3-2.4h-0.1c-0.9,1.4-2.8,2.8-5.2,2.8c-4.3,0-6-3.2-6-9.3V226
					h5.1v13.8c0,3.4,0.6,5.7,2.7,5.7c1.6,0,2.4-1.3,2.6-2.3c0.2-0.5,0.3-1.2,0.3-2V226h5.1V242.6z"/>
				<polygon class="st0" points="325.7,216.5 320.8,223.1 317.5,223.1 321,216.5 				"/>
			</g>
			<path class="st0" d="M288.3,249.4v-32.3h4.7l5.5,13.8c1.1,2.9,2.8,7.1,3.8,10.2h0.1c-0.3-4.1-0.6-9.1-0.6-14.9v-9.2h4.5v32.3
				h-4.7l-5.5-13.8c-1.2-3-2.6-6.9-3.5-10.3h-0.1c0.2,3.7,0.4,8.3,0.4,15v9H288.3z"/>
		</g>
		<g>
			<path class="st0" d="M677.2,294.8c0,1.8,0,3.8,0.3,5.4h-4.7l-0.3-2.4h-0.1c-1.2,1.8-3,2.8-5,2.8c-3.4,0-6-2.8-6-7
				c0-6.1,5.2-8.7,10.5-8.7v-0.6c0-2.5-1-4.2-3.6-4.2c-1.7,0-3.1,0.5-4.4,1.3l-1-3.6c1.2-0.7,3.6-1.7,6.5-1.7c6.1,0,7.7,4.2,7.7,9.2
				V294.8z M672.1,288.3c-2,0.1-5.7,0.6-5.7,4.7c0,2.7,1.4,3.6,2.6,3.6c1.3,0,2.5-0.9,3-2.7c0.1-0.3,0.1-0.8,0.1-1.2V288.3z"/>
			<path class="st0" d="M658,297.4c0,5.6-0.9,8.2-2.6,10c-1.6,1.7-4,2.6-7.1,2.6c-2.1,0-4.1-0.4-5.6-1.1l1.1-4c1.1,0.5,2.6,1,4.5,1
				c3.1,0,4.6-2,4.6-6.4v-1.8h-0.1c-0.8,1.7-2.5,2.6-4.4,2.6c-4.8,0-7.2-5.4-7.2-11.6c0-8.3,3.7-12.4,7.7-12.4
				c2.2,0,3.6,1.3,4.4,2.9h0.1l0.3-2.5h4.6c-0.1,1.9-0.2,4.2-0.2,7.4V297.4z M652.9,284.9c0-0.6-0.1-1.3-0.2-1.8
				c-0.3-1.3-1.1-2.7-2.6-2.7c-2.5,0-3.6,3.4-3.6,7.8c0,5.2,1.6,7.6,3.6,7.6c1,0,2.1-0.5,2.7-2.5c0.2-0.6,0.3-1.3,0.3-2V284.9z"/>
			<path class="st0" d="M620.9,283.1c0-2.7-0.1-4.6-0.2-6.7h4.5l0.2,2.8h0.1c1.1-1.9,3.1-3.2,5.6-3.2c4,0,6.1,3.1,6.1,8.6v15.5h-5.2
				v-15c0-2.4-0.5-4.7-2.8-4.7c-1.3,0-2.4,1-2.9,2.9c-0.1,0.5-0.2,1.3-0.2,2.1v14.6h-5.2V283.1z"/>
			<g>
				<path class="st0" d="M613.4,273.3c-1.5,0-2.7-1.2-2.7-3c0-1.8,1.3-3,2.8-3c1.7,0,2.8,1.2,2.8,3
					C616.3,272.1,615.1,273.3,613.4,273.3L613.4,273.3z"/>
				<rect x="610.9" y="276.5" class="st0" width="5.2" height="23.7"/>
			</g>
			<path class="st0" d="M603.3,270.6v5.9h4.6v3.7h-4.6v12.3c0,2.9,1.1,3.6,2.4,3.6c0.6,0,1.1-0.1,1.6-0.1l0.1,4
				c-0.8,0.2-1.9,0.4-3.4,0.4c-1.7,0-3.2-0.4-4.2-1.5c-1.2-1.2-1.8-2.9-1.8-6.4v-12.4h-2.8v-3.7h2.8v-4.1L603.3,270.6z"/>
			<g>
				<path class="st0" d="M589.5,273.3c-1.5,0-2.7-1.2-2.7-3c0-1.8,1.3-3,2.8-3c1.7,0,2.8,1.2,2.8,3
					C592.4,272.1,591.2,273.3,589.5,273.3L589.5,273.3z"/>
				<rect x="587.1" y="276.5" class="st0" width="5.2" height="23.7"/>
			</g>
			<path class="st0" d="M573.8,283.1c0-2.2-0.1-4.7-0.2-6.7h4.5l0.3,3.6h0.1c0.9-2.4,2.9-3.9,4.8-3.9c0.5,0,0.8,0,1.1,0.1v5.2
				c-0.3-0.1-0.7-0.1-1.1-0.1c-1.8,0-3.6,1.5-4.2,4.1c-0.1,0.5-0.2,1.4-0.2,2.2v12.6h-5.2V283.1z"/>
			<path class="st0" d="M569,294.8c0,1.8,0,3.8,0.3,5.4h-4.7l-0.3-2.4h-0.1c-1.2,1.8-3,2.8-5,2.8c-3.4,0-6-2.8-6-7
				c0-6.1,5.2-8.7,10.5-8.7v-0.6c0-2.5-1-4.2-3.6-4.2c-1.7,0-3.1,0.5-4.4,1.3l-1-3.6c1.2-0.7,3.6-1.7,6.5-1.7c6.1,0,7.7,4.2,7.7,9.2
				V294.8z M563.8,288.3c-2,0.1-5.7,0.6-5.7,4.7c0,2.7,1.4,3.6,2.6,3.6c1.3,0,2.5-0.9,3-2.7c0.1-0.3,0.1-0.8,0.1-1.2V288.3z"/>
			<path class="st0" d="M549.6,293.3c0,2.6,0.1,4.9,0.2,6.9h-4.5l-0.3-2.5h-0.1c-0.9,1.4-2.8,2.9-5.3,2.9c-4.3,0-6.1-3.3-6.1-9.4
				v-14.6h5.2v14c0,3.4,0.6,5.7,2.7,5.7c1.6,0,2.4-1.4,2.7-2.3c0.2-0.5,0.3-1.3,0.3-2v-15.4h5.2V293.3z"/>
			<path class="st0" d="M523.7,297.9h-0.1c-0.9,1.5-2.4,2.6-4.5,2.6c-4.2,0-7-4.8-7-11.8c0-8.2,3.5-12.7,7.7-12.7
				c1.6,0,3.3,0.7,4.4,3l0.1,0.1l0.2-2.7h4.5c-0.1,1.9-0.2,4.3-0.2,7.4v25.6h-5.2V297.9z M523.7,285.2c0-0.5,0-1.1-0.1-1.5
				c-0.3-1.9-1.5-3.3-2.7-3.3c-2.5,0-3.6,3.3-3.6,7.9c0,4.6,1.1,7.9,3.5,7.9c1,0,2.1-0.6,2.7-2.9c0.2-0.5,0.2-1.2,0.2-1.8V285.2z"/>
			<path class="st0" d="M508.2,294.8c0,1.8,0,3.8,0.3,5.4h-4.7l-0.3-2.4h-0.1c-1.2,1.8-3,2.8-5,2.8c-3.4,0-6-2.8-6-7
				c0-6.1,5.2-8.7,10.5-8.7v-0.6c0-2.5-1-4.2-3.6-4.2c-1.7,0-3.1,0.5-4.4,1.3l-1-3.6c1.2-0.7,3.6-1.7,6.5-1.7c6.1,0,7.7,4.2,7.7,9.2
				V294.8z M503.1,288.3c-2,0.1-5.7,0.6-5.7,4.7c0,2.7,1.4,3.6,2.6,3.6c1.3,0,2.5-0.9,3-2.7c0.1-0.3,0.1-0.8,0.1-1.2V288.3z"/>
			<polygon class="st0" points="481.7,272.1 475.9,272.1 475.9,267.4 492.8,267.4 492.8,272.1 486.9,272.1 486.9,300.2 481.7,300.2 
							"/>
			<rect x="457" y="285.2" class="st0" width="10.1" height="3.8"/>
			<path class="st0" d="M434.9,295.3c0.9,0.6,2.5,1.3,4.1,1.3c1.8,0,3-1,3-2.7c0-1.5-0.7-2.4-2.9-3.8c-3.6-2.1-4.8-4.4-4.8-6.8
				c0-4.1,3-7.1,7.3-7.1c1.9,0,3.4,0.5,4.5,1.2l-1,3.8c-0.9-0.6-2-1-3.3-1c-1.8,0-2.7,1.2-2.7,2.5c0,1.3,0.6,2,2.8,3.5
				c3.2,1.9,4.9,4.2,4.9,7.2c0,4.8-3.4,7.3-7.8,7.3c-1.8,0-4-0.5-5.1-1.4L434.9,295.3z"/>
			<path class="st0" d="M432.5,299.7c-0.7,0.4-2.2,0.8-4,0.8c-5.6,0-9.4-4.2-9.4-12c0-7.1,3.9-12.4,10.2-12.4c1.4,0,2.8,0.3,3.4,0.7
				L432,281c-0.5-0.2-1.4-0.5-2.5-0.5c-3.4,0-5.1,3.6-5.1,8c0,4.9,1.9,7.8,5.1,7.8c1,0,1.8-0.2,2.5-0.5L432.5,299.7z"/>
			<path class="st0" d="M405,289.7c0,5.3,2.5,6.8,5.3,6.8c1.8,0,3.2-0.4,4.2-0.8l0.8,3.7c-1.5,0.7-3.8,1.1-5.9,1.1
				c-6.1,0-9.4-4.4-9.4-11.8c0-7.8,3.7-12.6,8.8-12.6c5,0,7.5,4.5,7.5,10.9c0,1.4,0,2.1-0.1,2.8H405z M411.5,286c0-3.8-1.2-6-3.1-6
				c-2.2,0-3.3,3.3-3.4,6H411.5z"/>
			<path class="st0" d="M393.5,270.6v5.9h4.6v3.7h-4.6v12.3c0,2.9,1.1,3.6,2.4,3.6c0.6,0,1.1-0.1,1.6-0.1l0.1,4
				c-0.8,0.2-1.9,0.4-3.4,0.4c-1.7,0-3.2-0.4-4.2-1.5c-1.2-1.2-1.8-2.9-1.8-6.4v-12.4h-2.8v-3.7h2.8v-4.1L393.5,270.6z"/>
			<path class="st0" d="M382.9,294.8c0,1.8,0,3.8,0.3,5.4h-4.7l-0.3-2.4h-0.1c-1.2,1.8-3,2.8-5,2.8c-3.4,0-6-2.8-6-7
				c0-6.1,5.2-8.7,10.5-8.7v-0.6c0-2.5-1-4.2-3.6-4.2c-1.7,0-3.1,0.5-4.4,1.3l-1-3.6c1.2-0.7,3.6-1.7,6.5-1.7c6.1,0,7.7,4.2,7.7,9.2
				V294.8z M377.8,288.3c-2,0.1-5.7,0.6-5.7,4.7c0,2.7,1.4,3.6,2.6,3.6c1.3,0,2.5-0.9,3-2.7c0.1-0.3,0.1-0.8,0.1-1.2V288.3z"/>
			<polygon class="st0" points="352.3,267.4 365.8,267.4 365.8,271.9 357.5,271.9 357.5,281.7 365.3,281.7 365.3,286 357.5,286 
				357.5,300.2 352.3,300.2 			"/>
			<path class="st0" d="M328.8,295.3c0.9,0.6,2.5,1.3,4.1,1.3c1.8,0,3-1,3-2.7c0-1.5-0.7-2.4-2.9-3.8c-3.6-2.1-4.8-4.4-4.8-6.8
				c0-4.1,3-7.1,7.3-7.1c1.9,0,3.4,0.5,4.5,1.2l-1,3.8c-0.9-0.6-2-1-3.3-1c-1.8,0-2.7,1.2-2.7,2.5c0,1.3,0.6,2,2.8,3.5
				c3.2,1.9,4.9,4.2,4.9,7.2c0,4.8-3.4,7.3-7.8,7.3c-1.8,0-4-0.5-5.1-1.4L328.8,295.3z"/>
			<path class="st0" d="M324.3,294.8c0,1.8,0,3.8,0.3,5.4H320l-0.3-2.4h-0.1c-1.2,1.8-3,2.8-5,2.8c-3.4,0-6-2.8-6-7
				c0-6.1,5.2-8.7,10.5-8.7v-0.6c0-2.5-1-4.2-3.6-4.2c-1.7,0-3.1,0.5-4.4,1.3l-1-3.6c1.2-0.7,3.6-1.7,6.5-1.7c6.1,0,7.7,4.2,7.7,9.2
				V294.8z M319.2,288.3c-2,0.1-5.7,0.6-5.7,4.7c0,2.7,1.4,3.6,2.6,3.6c1.3,0,2.5-0.9,3-2.7c0.1-0.3,0.1-0.8,0.1-1.2V288.3z"/>
			<path class="st0" d="M305.1,266.5v27.3c0,1.9,0.1,4.6,0.2,6.4h-4.4l-0.3-2.8h-0.1c-0.8,1.7-2.6,3.2-4.9,3.2
				c-4.6,0-7.2-5-7.2-12.2c0-8.3,3.6-12.3,7.4-12.3c1.9,0,3.4,0.9,4.1,2.6h0.1v-12.2H305.1z M300,285.5c0-0.4,0-1-0.1-1.5
				c-0.2-1.9-1.3-3.6-2.8-3.6c-2.6,0-3.6,3.7-3.6,8c0,4.8,1.3,7.8,3.5,7.8c1,0,2.2-0.5,2.8-3c0.1-0.4,0.2-0.9,0.2-1.5V285.5z"/>
		</g>
	</g>
	<g>
		<polygon class="st1" points="800,28.8 800,0 691.9,0 691.9,187.4 720.7,187.4 720.7,108.1 800,108.1 800,79.3 720.7,79.3 
			720.7,28.8 		"/>
		<polygon class="st1" points="598.2,158.6 598.2,0 569.4,0 569.4,187.4 677.5,187.4 677.5,158.6 		"/>
		<polygon class="st1" points="555,28.8 555,0 446.8,0 446.8,187.4 555,187.4 555,158.6 475.7,158.6 475.7,108.1 555,108.1 
			555,79.3 475.7,79.3 475.7,28.8 		"/>
		<polygon class="st1" points="403.6,0 403.6,140.5 317.1,0 288.3,0 288.3,187.4 317.1,187.4 317.1,46.8 403.6,187.4 432.4,187.4 
			432.4,0 		"/>
	</g>
	<g>
		<path class="st2" d="M72.1,86.5c0-19.9,16.2-36,36-36h86.5V36c0-15.9-12.9-28.8-28.8-28.8H43.2C27.3,7.2,14.4,20.1,14.4,36v43.2
			c0,15.9,12.9,28.8,28.8,28.8h28.8V86.5z"/>
		<path class="st1" d="M108.1,57.7c-15.9,0-28.8,12.9-28.8,28.8v21.6h86.5c15.9,0,28.8-12.9,28.8-28.8V57.7H108.1z"/>
		<g>
			<path class="st2" d="M251.5,66.7c-5.3-5.6-12.7-9-20.9-9h-28.8v21.6c0,19.9-16.2,36-36,36H79.3v14.4c0,13.5,9.2,24.7,21.7,27.9
				c17.7-1.5,37-5.9,56.6-13.1C206.1,126.4,242.1,95.3,251.5,66.7z"/>
			<path class="st2" d="M177.1,158.6h24.7l28.8,28.8v-28.8c15.9,0,28.8-12.9,28.8-28.8v-27.7C240.7,123.5,211.9,143.7,177.1,158.6z"
				/>
		</g>
		<path class="st1" d="M271.4,36.4c-9.8-27.7-48.9-40.1-97.1-35.4c6.1,1.5,11.6,4.5,16.1,8.7c28.2,1.6,49.5,11.9,55.9,29.9
			c11.5,32.2-29.1,76.9-90.6,99.8c-61.5,22.9-120.6,15.3-132.1-16.9c-1.6-4.6-2.2-9.4-1.8-14.4c-5.6-4.2-9.9-9.9-12.4-16.5
			c-9,15.6-12,31.2-7.1,44.9c13.9,38.9,85.3,48.1,159.6,20.4S285.2,75.4,271.4,36.4z"/>
	</g>
</g>
</svg>
