<svg xmlns="http://www.w3.org/2000/svg" viewBox="0 0 306 100">
    <g fill="#4A555C">
        <path d="M243.8,96.5v-1.1l-1,0.6c-0.9,0.5-1.7,0.7-2.6,0.7c-0.9,0-1.6-0.3-2.1-0.8s-0.8-1.2-0.8-2c0-1,0.3-1.7,1-2.2s1.5-0.8,2.6-0.8h2.9v-0.6c0-1.2-0.7-1.9-2-1.9c-1.4,0-2.1,0.6-2.1,1.7h-2.2V90c0-1.1,0.4-1.9,1.2-2.5s1.8-0.9,3.1-0.9s2.3,0.3,3.1,1c0.7,0.6,1.1,1.5,1.1,2.7v6.2C246,96.5,243.8,96.5,243.8,96.5z M243.8,92.5h-2.6c-1.1,0-1.7,0.4-1.7,1.3c0,0.3,0.1,0.6,0.3,0.8c0.2,0.2,0.5,0.3,0.9,0.3c0.5,0,1.1-0.2,1.7-0.5l1.4-0.8L243.8,92.5L243.8,92.5z"/>
        <path d="M229,93c-0.4,0-0.7,0.2-0.7,0.6s0.2,0.6,0.6,0.6h3.7c2.3,0,3.5,0.9,3.5,2.7c0,1-0.4,1.8-1.2,2.3s-1.9,0.8-3.2,0.8c-2.9,0-4.3-1.2-4.3-3.7v-1c-0.6-0.3-1-0.9-1-1.7c0-0.5,0.1-0.9,0.4-1.2c0.2-0.3,0.6-0.5,0.9-0.6c0,0-0.1-0.1-0.2-0.2c-0.1-0.1-0.2-0.3-0.3-0.6c-0.1-0.3-0.2-0.7-0.2-1c0-1,0.3-1.8,1-2.3c0.6-0.5,1.5-0.8,2.6-0.8h5.6v1.9h-1.4c0.3,0.3,0.5,0.7,0.5,1.3c0,0.9-0.3,1.6-0.9,2.2c-0.6,0.5-1.5,0.8-2.6,0.8H229V93z M231.5,91.4c1.2,0,1.8-0.5,1.8-1.4s-0.6-1.4-1.7-1.4h-0.8c-0.6,0-1,0.1-1.3,0.3c-0.3,0.2-0.4,0.6-0.4,1.1c0,0.9,0.6,1.4,1.7,1.4H231.5z M229.4,95.9v0.4c0,0.7,0.2,1.2,0.5,1.6c0.3,0.3,0.9,0.5,1.8,0.5c1.6,0,2.4-0.5,2.4-1.4c0-0.7-0.6-1.1-1.7-1.1H229.4z"/>
        <path d="M222.5,96.5v-6.4c0-0.4-0.1-0.7-0.3-1s-0.5-0.4-1-0.4c-0.4,0-0.8,0.1-1.3,0.4l-1.4,0.8v6.5h-2.2v-9.7h2.2v1.1l1-0.6c0.6-0.4,1.4-0.6,2.1-0.6c0.9,0,1.7,0.3,2.2,0.9s0.8,1.3,0.8,2.3v6.7C224.6,96.5,222.5,96.5,222.5,96.5z"/>
        <rect x="211.7" y="86.8" width="2.3" height="9.7"/>
        <path d="M214.1,84.2c0,0.3-0.1,0.6-0.3,0.8c-0.2,0.2-0.5,0.3-0.9,0.3s-0.7-0.1-0.9-0.3c-0.2-0.2-0.4-0.4-0.4-0.8v-0.4c0-0.3,0.1-0.6,0.4-0.8c0.2-0.2,0.5-0.3,0.9-0.3s0.7,0.1,0.9,0.3c0.2,0.2,0.3,0.4,0.3,0.8V84.2z"/>
        <path d="M208.6,96.5c-1.2,0-2.1-0.3-2.7-0.9c-0.7-0.6-1-1.4-1-2.5v-4.5h-1.5v-1.9h1.5v-2.6h2.3v2.6h2.7v1.9h-2.7V93c0,0.6,0.1,0.9,0.4,1.2c0.3,0.2,0.7,0.3,1.2,0.3h1.1v1.9L208.6,96.5L208.6,96.5z"/>
        <rect x="199.6" y="86.8" width="2.3" height="9.7"/>
        <path d="M202,84.2c0,0.3-0.1,0.6-0.3,0.8c-0.2,0.2-0.5,0.3-0.9,0.3s-0.7-0.1-0.9-0.3c-0.2-0.2-0.4-0.4-0.4-0.8v-0.4c0-0.3,0.1-0.6,0.4-0.8c0.2-0.2,0.5-0.3,0.9-0.3s0.7,0.1,0.9,0.3c0.2,0.2,0.3,0.4,0.3,0.8V84.2z"/>
        <path d="M192.5,96.5v-9.7h2.2v1.4l0.4-0.4c0.7-0.7,1.5-1,2.4-1h0.6V89h-0.6c-0.8,0-1.5,0.2-2,0.7l-0.8,0.6v6.2C194.7,96.5,192.5,96.5,192.5,96.5z"/>
        <path d="M188.2,96.5v-1.1l-1,0.6c-0.9,0.5-1.7,0.7-2.6,0.7c-0.9,0-1.6-0.3-2.1-0.8s-0.8-1.2-0.8-2c0-1,0.3-1.7,1-2.2s1.5-0.8,2.6-0.8h2.9v-0.6c0-1.2-0.7-1.9-2-1.9c-1.4,0-2.1,0.6-2.1,1.7h-2.2V90c0-1.1,0.4-1.9,1.2-2.5s1.8-0.9,3.1-0.9s2.3,0.3,3.1,1c0.7,0.6,1.1,1.5,1.1,2.7v6.2C190.4,96.5,188.2,96.5,188.2,96.5z M188.2,92.5h-2.6c-1.1,0-1.7,0.4-1.7,1.3c0,0.3,0.1,0.6,0.3,0.8c0.2,0.2,0.5,0.3,0.9,0.3c0.5,0,1.1-0.2,1.7-0.5l1.4-0.8L188.2,92.5L188.2,92.5z"/>
        <path d="M177.6,96.5v-1.1l-1,0.6c-0.7,0.4-1.4,0.6-2.1,0.6c-0.9,0-1.7-0.3-2.2-0.9s-0.8-1.3-0.8-2.3v-6.6h2.2v6.4c0,0.4,0.1,0.8,0.3,1c0.2,0.3,0.5,0.4,0.9,0.4s0.8-0.1,1.3-0.4l1.4-0.8v-6.5h2.2v9.7L177.6,96.5L177.6,96.5z"/>
        <path d="M166.9,99.9v-4.4l-1.1,0.6c-0.7,0.4-1.4,0.6-2.2,0.6c-1,0-1.8-0.3-2.4-0.9s-0.9-1.4-0.9-2.4V90c0-1,0.3-1.8,0.9-2.4c0.6-0.6,1.4-0.9,2.4-0.9c0.7,0,1.4,0.2,2.1,0.6l1.1,0.6v-1h2.2V100L166.9,99.9L166.9,99.9z M166.9,89.9l-1.5-0.9c-0.5-0.2-0.9-0.4-1.4-0.4s-0.8,0.1-1.1,0.4s-0.4,0.7-0.4,1.1V93c0,0.5,0.1,0.9,0.4,1.1c0.3,0.3,0.6,0.4,1.1,0.4s0.9-0.1,1.4-0.4l1.5-0.8V89.9z"/>
        <path d="M156.1,96.5v-1.1l-1,0.6c-0.9,0.5-1.7,0.7-2.6,0.7c-0.9,0-1.6-0.3-2.1-0.8s-0.8-1.2-0.8-2c0-1,0.3-1.7,1-2.2s1.5-0.8,2.6-0.8h2.9v-0.6c0-1.2-0.7-1.9-2-1.9c-1.4,0-2.1,0.6-2.1,1.7h-2.2V90c0-1.1,0.4-1.9,1.2-2.5s1.8-0.9,3.1-0.9s2.3,0.3,3.1,1c0.7,0.6,1.1,1.5,1.1,2.7v6.2C158.3,96.5,156.1,96.5,156.1,96.5z M156.1,92.5h-2.6c-1.1,0-1.7,0.4-1.7,1.3c0,0.3,0.1,0.6,0.3,0.8c0.2,0.2,0.5,0.3,0.9,0.3c0.5,0,1.1-0.2,1.7-0.5l1.4-0.8L156.1,92.5L156.1,92.5z"/>
        <polygon points="143.4,96.5 143.4,85 139.5,85 139.5,82.8 149.8,82.8 149.8,85 146,85 146,96.5 	"/>
        <path d="M132.8,93c0,1.2-0.4,2.1-1.1,2.7c-0.8,0.6-1.8,1-3.1,1s-2.3-0.3-3-1c-0.8-0.7-1.1-1.6-1.1-2.8v-2.4c0-1.2,0.4-2.1,1.1-2.8c0.8-0.7,1.8-1,3-1c1.3,0,2.3,0.3,3.1,1c0.8,0.6,1.1,1.6,1.1,2.7v0.2h-2.1c0-1.3-0.7-1.9-2-1.9s-2,0.7-2,2.1v2c0,1.4,0.7,2.1,2,2.1c1.4,0,2-0.6,2-1.9L132.8,93L132.8,93z"/>
        <path d="M122.5,93.4c0,1-0.4,1.8-1.2,2.3c-0.8,0.6-1.8,0.9-3.1,0.9c-1.3,0-2.3-0.3-3.1-1c-0.8-0.7-1.2-1.6-1.2-2.7v-2.3c0-1.2,0.4-2.2,1.2-2.9c0.8-0.7,1.8-1.1,3.1-1.1c1.3,0,2.3,0.4,3.1,1.1c0.8,0.7,1.2,1.7,1.2,2.9v1.7h-6.4v0.5c0,0.7,0.2,1.2,0.6,1.5s0.9,0.5,1.6,0.5c1.4,0,2.1-0.5,2.1-1.5L122.5,93.4L122.5,93.4z M120.4,90.6c0-0.7-0.2-1.2-0.6-1.6s-0.9-0.6-1.6-0.6s-1.2,0.2-1.6,0.6s-0.6,0.9-0.6,1.6v0.2h4.3L120.4,90.6L120.4,90.6z"/>
        <path d="M111.4,96.5c-1.2,0-2.1-0.3-2.7-0.9c-0.7-0.6-1-1.4-1-2.5v-4.5h-1.5v-1.9h1.5v-2.6h2.3v2.6h2.7v1.9H110V93c0,0.6,0.1,0.9,0.4,1.2c0.3,0.2,0.7,0.3,1.2,0.3h1.1v1.9L111.4,96.5L111.4,96.5z"/>
        <path d="M102.9,96.5v-1.1l-1,0.6c-0.9,0.5-1.7,0.7-2.6,0.7s-1.6-0.3-2.1-0.8s-0.8-1.2-0.8-2c0-1,0.3-1.7,1-2.2s1.5-0.8,2.6-0.8h2.9v-0.6c0-1.2-0.7-1.9-2-1.9c-1.4,0-2.1,0.6-2.1,1.7h-2.2V90c0-1.1,0.4-1.9,1.2-2.5c0.8-0.6,1.8-0.9,3.1-0.9c1.3,0,2.3,0.3,3.1,1c0.7,0.6,1.1,1.5,1.1,2.7v6.2C105.1,96.5,102.9,96.5,102.9,96.5z M102.9,92.5h-2.6c-1.1,0-1.7,0.4-1.7,1.3c0,0.3,0.1,0.6,0.3,0.8c0.2,0.2,0.5,0.3,0.9,0.3c0.5,0,1.1-0.2,1.7-0.5l1.4-0.8C102.9,93.6,102.9,92.5,102.9,92.5z"/>
        <polygon points="89,90.8 89,96.5 86.5,96.5 86.5,82.8 95.4,82.8 95.4,85 89,85 89,88.7 94.9,88.7 94.9,90.8 	"/>
    </g>
    <g fill="#00648C">
        <path d="M242,64.1c0-1.5-1-2.3-2.9-2.3c-0.9,0-1.6,0.2-2.1,0.5s-0.7,0.8-0.7,1.3c0,0.6,0.3,1,0.9,1.3c0.6,0.3,1.4,0.4,2.3,0.5c0.9,0.1,1.8,0.2,2.7,0.4c0.9,0.2,1.7,0.6,2.3,1.2s0.9,1.5,0.9,2.6c0,1.4-0.6,2.5-1.7,3.3c-1.1,0.8-2.7,1.2-4.6,1.2c-2,0-3.6-0.4-4.7-1.3c-1.1-0.8-1.7-2-1.7-3.5v-0.2h3.4c0,1.5,1,2.3,3,2.3c0.9,0,1.7-0.2,2.2-0.5s0.8-0.8,0.8-1.3s-0.2-0.8-0.7-1.1c-0.5-0.3-1-0.4-1.7-0.5s-1.4-0.2-2.2-0.3c-0.8-0.1-1.5-0.3-2.2-0.6c-0.7-0.2-1.2-0.6-1.7-1.3c-0.5-0.6-0.7-1.4-0.7-2.3c0-1.4,0.6-2.5,1.7-3.3c1.1-0.8,2.6-1.2,4.5-1.2c2,0,3.5,0.4,4.5,1.3s1.6,2,1.6,3.5V64H242V64.1z"/>
        <path d="M226.6,73.9v-1.7l-1.5,0.8c-1.3,0.7-2.6,1-3.8,1c-1.3,0-2.3-0.4-3.1-1.1c-0.8-0.8-1.2-1.8-1.2-3c0-1.5,0.5-2.6,1.5-3.3c1-0.8,2.3-1.1,3.9-1.1h4.3v-0.9c0-1.9-1-2.8-3-2.8c-2.1,0-3.1,0.8-3.1,2.5h-3.3v-0.2c0-1.6,0.6-2.9,1.7-3.8c1.2-0.9,2.7-1.4,4.6-1.4c2,0,3.5,0.5,4.6,1.4c1.1,1,1.6,2.3,1.6,4v9.3h-3.2V73.9z M226.6,67.9h-3.9c-1.7,0-2.5,0.6-2.5,1.9c0,0.5,0.2,0.9,0.5,1.2c0.3,0.3,0.7,0.4,1.3,0.4c0.8,0,1.6-0.2,2.5-0.7l2.1-1.1L226.6,67.9L226.6,67.9z"/>
        <path d="M210.8,73.9V64c0-1.2-0.5-1.8-1.5-1.8c-0.5,0-1,0.2-1.7,0.6l-1.8,1.1v10h-3.3v-9.8c0-1.2-0.5-1.8-1.5-1.8c-0.5,0-1.1,0.2-1.8,0.6l-1.7,1.1v10h-3.3V59.4h3.3v1.5l1.3-0.8c1-0.6,2-0.9,3.1-0.9c1.7,0,2.8,0.7,3.4,2l1.6-1c1.1-0.7,2.2-1,3.3-1c1.3,0,2.3,0.4,3,1.2s1.1,1.9,1.1,3.3V74L210.8,73.9L210.8,73.9z"/>
        <path d="M190.9,69.4c0,1.5-0.6,2.6-1.7,3.5c-1.2,0.9-2.7,1.3-4.6,1.3c-1.9,0-3.5-0.5-4.6-1.5c-1.2-1-1.8-2.4-1.8-4.1v-3.4c0-1.8,0.6-3.3,1.8-4.3c1.2-1.1,2.7-1.6,4.6-1.6c1.9,0,3.5,0.5,4.6,1.6c1.2,1.1,1.7,2.5,1.7,4.4v2.6h-9.6v0.7c0,1,0.3,1.7,0.9,2.2c0.6,0.5,1.4,0.7,2.4,0.7c2.1,0,3.1-0.7,3.1-2.2h3.2L190.9,69.4L190.9,69.4z M187.7,65.2c0-1-0.3-1.8-0.9-2.4c-0.6-0.6-1.4-0.8-2.4-0.8s-1.8,0.3-2.4,0.8c-0.6,0.6-0.9,1.4-0.9,2.4v0.4h6.5L187.7,65.2L187.7,65.2z"/>
        <path d="M174.3,73.9c-1.7,0-3.1-0.4-4.1-1.3s-1.5-2.1-1.5-3.7v-6.7h-2.2v-2.8h2.2v-3.9h3.4v3.9h4v2.8h-4v6.5c0,0.8,0.2,1.4,0.6,1.8c0.4,0.3,1,0.5,1.8,0.5h1.7v2.9H174.3z"/>
        <path d="M161.5,64.1c0-1.5-1-2.3-2.9-2.3c-0.9,0-1.6,0.2-2.1,0.5s-0.7,0.8-0.7,1.3c0,0.6,0.3,1,0.9,1.3c0.6,0.3,1.4,0.4,2.3,0.5c0.9,0.1,1.8,0.2,2.7,0.4s1.7,0.6,2.3,1.2s0.9,1.5,0.9,2.6c0,1.4-0.6,2.5-1.7,3.3c-1.1,0.8-2.7,1.2-4.6,1.2c-2,0-3.6-0.4-4.7-1.3c-1.1-0.8-1.7-2-1.7-3.5v-0.2h3.4c0,1.5,1,2.3,3,2.3c0.9,0,1.7-0.2,2.2-0.5s0.8-0.8,0.8-1.3s-0.2-0.8-0.7-1.1c-0.5-0.3-1-0.4-1.7-0.5s-1.4-0.2-2.2-0.3c-0.8-0.1-1.5-0.3-2.2-0.6c-0.7-0.2-1.2-0.6-1.7-1.3c-0.5-0.6-0.7-1.4-0.7-2.3c0-1.4,0.6-2.5,1.7-3.3c1.1-0.8,2.6-1.2,4.5-1.2c2,0,3.5,0.4,4.5,1.3c1.1,0.8,1.6,2,1.6,3.5V64h-3.2V64.1z"/>
        <rect x="145.7" y="59.4" width="3.4" height="14.5"/>
        <path class="st1" d="M149.3,55.5c0,0.5-0.2,0.9-0.5,1.2s-0.8,0.4-1.4,0.4c-0.6,0-1-0.1-1.4-0.4c-0.4-0.3-0.5-0.7-0.5-1.2v-0.6c0-0.5,0.2-0.9,0.5-1.2c0.4-0.3,0.8-0.4,1.4-0.4c0.6,0,1,0.1,1.4,0.4c0.3,0.3,0.5,0.7,0.5,1.2V55.5z"/>
        <path d="M138.6,59.7c0-2.3-1.3-3.4-4-3.4c-1.3,0-2.2,0.3-2.9,0.8s-1,1.2-1,2.1c0,0.7,0.2,1.2,0.6,1.6c0.4,0.4,1,0.7,1.7,0.9s1.5,0.3,2.3,0.5c0.8,0.1,1.7,0.3,2.5,0.5s1.6,0.5,2.3,0.9s1.3,0.9,1.7,1.7c0.4,0.8,0.6,1.7,0.6,2.8c0,1.9-0.7,3.4-2.1,4.5c-1.4,1.1-3.4,1.7-5.8,1.7c-2.5,0-4.5-0.5-5.9-1.6c-1.4-1.1-2.1-2.6-2.1-4.7v-0.2h3.7c0,2.3,1.4,3.4,4.2,3.4c1.3,0,2.3-0.3,3.1-0.8c0.7-0.5,1.1-1.2,1.1-2.1c0-0.6-0.2-1.2-0.6-1.6c-0.4-0.4-1-0.7-1.7-0.9c-0.7-0.2-1.5-0.3-2.3-0.5c-0.8-0.1-1.7-0.3-2.5-0.5s-1.6-0.5-2.3-0.9s-1.3-0.9-1.7-1.7c-0.4-0.8-0.6-1.7-0.6-2.8c0-1.9,0.7-3.4,2.1-4.5c1.4-1.1,3.3-1.7,5.6-1.7c2.5,0,4.4,0.5,5.7,1.6c1.4,1.1,2,2.6,2,4.7v0.2H138.6z"/>
        <path d="M115.9,69.4c0,1.5-0.6,2.6-1.7,3.5c-1.2,0.9-2.7,1.3-4.6,1.3s-3.5-0.5-4.6-1.5c-1.2-1-1.8-2.4-1.8-4.1v-3.4c0-1.8,0.6-3.3,1.8-4.3c1.2-1.1,2.7-1.6,4.6-1.6s3.5,0.5,4.6,1.6c1.2,1.1,1.7,2.5,1.7,4.4v2.6h-9.6v0.7c0,1,0.3,1.7,0.9,2.2s1.4,0.7,2.4,0.7c2.1,0,3.1-0.7,3.1-2.2h3.2V69.4z M112.8,65.2c0-1-0.3-1.8-0.9-2.4c-0.6-0.6-1.4-0.8-2.4-0.8s-1.8,0.3-2.4,0.8c-0.6,0.6-0.9,1.4-0.9,2.4v0.4h6.5v-0.4H112.8z"/>
        <path d="M96.7,73.9v-1.6l-1.7,1c-1,0.6-2.1,0.9-3.3,0.9c-1.5,0-2.7-0.5-3.6-1.4s-1.4-2.1-1.4-3.6v-4.9c0-1.5,0.5-2.7,1.4-3.6c0.9-0.9,2.1-1.4,3.6-1.4c1.1,0,2.2,0.3,3.2,0.9l1.7,0.9v-7.6h3.3V74h-3.2V73.9z M96.6,64.1l-2.3-1.3c-0.7-0.4-1.4-0.6-2-0.6c-0.7,0-1.3,0.2-1.7,0.6s-0.6,1-0.6,1.7v4.1c0,0.7,0.2,1.3,0.6,1.8c0.4,0.4,1,0.6,1.7,0.6c0.6,0,1.3-0.2,2-0.6l2.3-1.3V64.1z"/>
        <path d="M305.7,42.4c0,1.8-0.6,3.2-1.8,4.3c-1.2,1.1-2.8,1.6-4.7,1.6c-1.9,0-3.5-0.5-4.7-1.6s-1.8-2.5-1.8-4.3v-3.2c0-1.8,0.6-3.3,1.8-4.3c1.2-1.1,2.8-1.6,4.7-1.6c1.9,0,3.5,0.5,4.7,1.6s1.8,2.5,1.8,4.3V42.4z M302.5,39.6c0-1.1-0.3-1.9-0.9-2.5s-1.4-0.9-2.4-0.9s-1.8,0.3-2.4,0.9c-0.6,0.6-0.9,1.4-0.9,2.5v2.5c0,1.1,0.3,1.9,0.9,2.5s1.4,0.9,2.4,0.9s1.8-0.3,2.4-0.9c0.6-0.6,0.9-1.4,0.9-2.5V39.6z"/>
        <path d="M288.8,48.1c-1.7,0-3.1-0.4-4.1-1.3c-1-0.9-1.5-2.1-1.5-3.7v-6.7H281v-2.8h2.2v-3.9h3.4v3.9h4v2.8h-4v6.5c0,0.8,0.2,1.4,0.6,1.8c0.4,0.3,1,0.5,1.8,0.5h1.7v2.9H288.8z"/>
        <path d="M275.8,48.1v-9.5c0-0.6-0.2-1.1-0.5-1.5s-0.8-0.6-1.4-0.6s-1.2,0.2-1.9,0.6l-2.1,1.3v9.8h-3.3V33.5h3.3v1.7l1.5-0.9c1-0.6,2-0.9,3.2-0.9c1.4,0,2.5,0.4,3.3,1.3c0.8,0.9,1.2,2,1.2,3.4v10H275.8z"/>
        <path d="M263.3,43.5c0,1.5-0.6,2.6-1.7,3.5c-1.2,0.9-2.7,1.3-4.6,1.3s-3.5-0.5-4.6-1.5c-1.2-1-1.8-2.4-1.8-4.1v-3.4c0-1.8,0.6-3.3,1.8-4.3c1.2-1.1,2.7-1.6,4.6-1.6c1.9,0,3.5,0.5,4.6,1.6c1.2,1.1,1.7,2.5,1.7,4.4V42h-9.6v0.7c0,1,0.3,1.7,0.9,2.2c0.6,0.5,1.4,0.7,2.4,0.7c2.1,0,3.1-0.7,3.1-2.2L263.3,43.5L263.3,43.5z M260.2,39.3c0-1-0.3-1.8-0.9-2.4c-0.6-0.6-1.4-0.8-2.4-0.8s-1.8,0.3-2.4,0.8c-0.6,0.6-0.9,1.4-0.9,2.4v0.4h6.5L260.2,39.3L260.2,39.3z"/>
        <path d="M244.1,48.1v-9.9c0-1.2-0.5-1.8-1.5-1.8c-0.5,0-1,0.2-1.7,0.6l-1.8,1.1v10h-3.3v-9.8c0-1.2-0.5-1.8-1.5-1.8c-0.5,0-1.1,0.2-1.8,0.6l-1.7,1.1v10h-3.3V33.5h3.3V35l1.3-0.8c1-0.6,2-0.9,3.1-0.9c1.7,0,2.8,0.7,3.4,2l1.6-1c1.1-0.7,2.2-1,3.3-1c1.3,0,2.3,0.4,3,1.2s1.1,1.9,1.1,3.3v10.3H244.1z"/>
        <rect x="220.4" y="33.5" width="3.4" height="14.5"/>
        <path d="M224,29.6c0,0.5-0.2,0.9-0.5,1.2s-0.8,0.4-1.4,0.4c-0.6,0-1-0.1-1.4-0.4s-0.5-0.7-0.5-1.2V29c0-0.5,0.2-0.9,0.5-1.2c0.4-0.3,0.8-0.4,1.4-0.4c0.6,0,1,0.1,1.4,0.4c0.3,0.3,0.5,0.7,0.5,1.2V29.6z"/>
        <polygon points="209.4,48.1 204.4,33.5 208,33.5 211.4,44.2 214.7,33.5 218.2,33.5 213.2,48.1 	"/>
        <rect x="198.8" y="27.6" width="3.4" height="20.5"/>
        <path d="M195.6,42.4c0,1.8-0.6,3.2-1.8,4.3s-2.8,1.6-4.7,1.6s-3.5-0.5-4.7-1.6s-1.8-2.5-1.8-4.3v-3.2c0-1.8,0.6-3.3,1.8-4.3c1.2-1.1,2.8-1.6,4.7-1.6s3.5,0.5,4.7,1.6s1.8,2.5,1.8,4.3V42.4z M192.4,39.6c0-1.1-0.3-1.9-0.9-2.5c-0.6-0.6-1.4-0.9-2.4-0.9s-1.8,0.3-2.4,0.9c-0.6,0.6-0.9,1.4-0.9,2.5v2.5c0,1.1,0.3,1.9,0.9,2.5c0.6,0.6,1.4,0.9,2.4,0.9s1.8-0.3,2.4-0.9c0.6-0.6,0.9-1.4,0.9-2.5V39.6z"/>
        <polygon points="172.4,48.1 167.4,33.5 171,33.5 174.4,44.2 177.7,33.5 181.2,33.5 176.2,48.1 	"/>
        <path d="M162.2,48.1v-9.5c0-0.6-0.2-1.1-0.5-1.5s-0.8-0.6-1.4-0.6c-0.6,0-1.2,0.2-1.9,0.6l-2.1,1.3v9.8H153V33.5h3.3v1.7l1.5-0.9c1-0.6,2-0.9,3.2-0.9c1.4,0,2.5,0.4,3.3,1.3c0.8,0.9,1.2,2,1.2,3.4v10H162.2z"/>
        <path d="M149.8,43.5c0,1.5-0.6,2.6-1.7,3.5c-1.2,0.9-2.7,1.3-4.6,1.3c-1.9,0-3.5-0.5-4.6-1.5c-1.2-1-1.8-2.4-1.8-4.1v-3.4c0-1.8,0.6-3.3,1.8-4.3c1.2-1.1,2.7-1.6,4.6-1.6c1.9,0,3.5,0.5,4.6,1.6c1.2,1.1,1.7,2.5,1.7,4.4V42h-9.6v0.7c0,1,0.3,1.7,0.9,2.2c0.6,0.5,1.4,0.7,2.4,0.7c2.1,0,3.1-0.7,3.1-2.2L149.8,43.5L149.8,43.5L149.8,43.5z M146.6,39.3c0-1-0.3-1.8-0.9-2.4c-0.6-0.6-1.4-0.8-2.4-0.8s-1.8,0.3-2.4,0.8c-0.6,0.6-0.9,1.4-0.9,2.4v0.4h6.5L146.6,39.3L146.6,39.3z"/>
        <path d="M131,38.3c0-1.5-1-2.3-2.9-2.3c-0.9,0-1.6,0.2-2.1,0.5s-0.7,0.8-0.7,1.3c0,0.6,0.3,1,0.9,1.3s1.4,0.4,2.3,0.5c0.9,0.1,1.8,0.2,2.7,0.4s1.7,0.6,2.3,1.2c0.6,0.6,0.9,1.5,0.9,2.6c0,1.4-0.6,2.5-1.7,3.3c-1.1,0.8-2.7,1.2-4.6,1.2c-2,0-3.6-0.4-4.7-1.3c-1.1-0.8-1.7-2-1.7-3.5v-0.2h3.4c0,1.5,1,2.3,3,2.3c0.9,0,1.7-0.2,2.2-0.5s0.8-0.8,0.8-1.3s-0.2-0.8-0.7-1.1s-1-0.4-1.7-0.5s-1.4-0.2-2.2-0.3c-0.8-0.1-1.5-0.3-2.2-0.6c-0.7-0.2-1.2-0.6-1.7-1.3c-0.5-0.6-0.7-1.4-0.7-2.3c0-1.4,0.6-2.5,1.7-3.3s2.6-1.2,4.5-1.2c2,0,3.5,0.4,4.5,1.3c1.1,0.8,1.6,2,1.6,3.5v0.2L131,38.3L131,38.3z"/>
        <path d="M119,43.5c0,1.5-0.6,2.6-1.7,3.5c-1.2,0.9-2.7,1.3-4.6,1.3s-3.5-0.5-4.6-1.5c-1.2-1-1.8-2.4-1.8-4.1v-3.4c0-1.8,0.6-3.3,1.8-4.3c1.2-1.1,2.7-1.6,4.6-1.6s3.5,0.5,4.6,1.6c1.2,1.1,1.7,2.5,1.7,4.4V42h-9.6v0.7c0,1,0.3,1.7,0.9,2.2s1.4,0.7,2.4,0.7c2.1,0,3.1-0.7,3.1-2.2L119,43.5L119,43.5z M115.9,39.3c0-1-0.3-1.8-0.9-2.4c-0.6-0.6-1.4-0.8-2.4-0.8s-1.8,0.3-2.4,0.8c-0.6,0.6-0.9,1.4-0.9,2.4v0.4h6.5v-0.4H115.9z"/>
        <path d="M87.2,48.1V27.6h7c2.6,0,4.8,0.7,6.5,2.1s2.5,3.6,2.5,6.7v2.9c0,1.5-0.2,2.9-0.7,4.1c-0.5,1.2-1.2,2.1-2,2.8s-1.8,1.2-2.9,1.5s-2.2,0.5-3.5,0.5h-6.9V48.1z M99.5,36.4c0-3.7-1.8-5.6-5.3-5.6h-3.3v14.1h3.3c3.5,0,5.3-1.8,5.3-5.5V36.4z"/>
        <path d="M203.8,17.6c0,1.5-0.6,2.6-1.7,3.5c-1.2,0.9-2.7,1.3-4.6,1.3c-1.9,0-3.5-0.5-4.6-1.5c-1.2-1-1.8-2.4-1.8-4.1v-3.4c0-1.8,0.6-3.3,1.8-4.3c1.2-1.1,2.7-1.6,4.6-1.6c1.9,0,3.5,0.5,4.6,1.6c1.2,1.1,1.7,2.5,1.7,4.4V16h-9.6v0.7c0,1,0.3,1.7,0.9,2.2c0.6,0.5,1.4,0.7,2.4,0.7c2.1,0,3.1-0.7,3.1-2.2h3.2L203.8,17.6L203.8,17.6z M200.7,13.4c0-1-0.3-1.8-0.9-2.4c-0.6-0.6-1.4-0.8-2.4-0.8s-1.8,0.3-2.4,0.8c-0.6,0.6-0.9,1.4-0.9,2.4v0.4h6.5L200.7,13.4L200.7,13.4z"/>
        <path d="M180.3,17.6c0,1.5-0.6,2.6-1.7,3.5c-1.2,0.9-2.7,1.3-4.6,1.3c-1.9,0-3.5-0.5-4.6-1.5c-1.2-1-1.8-2.4-1.8-4.1v-3.4c0-1.8,0.6-3.3,1.8-4.3c1.2-1.1,2.7-1.6,4.6-1.6c1.9,0,3.5,0.5,4.6,1.6c1.2,1.1,1.7,2.5,1.7,4.4V16h-9.6v0.7c0,1,0.3,1.7,0.9,2.2c0.6,0.5,1.4,0.7,2.4,0.7c2.1,0,3.1-0.7,3.1-2.2h3.2L180.3,17.6L180.3,17.6z M177.1,13.4c0-1-0.3-1.8-0.9-2.4c-0.6-0.6-1.4-0.8-2.4-0.8s-1.8,0.3-2.4,0.8c-0.6,0.6-0.9,1.4-0.9,2.4v0.4h6.5L177.1,13.4L177.1,13.4z"/>
        <path d="M161.5,12.4c0-1.5-1-2.3-2.9-2.3c-0.9,0-1.6,0.2-2.1,0.5s-0.7,0.8-0.7,1.3c0,0.6,0.3,1,0.9,1.3c0.6,0.3,1.4,0.4,2.3,0.5c0.9,0.1,1.8,0.2,2.7,0.4s1.7,0.6,2.3,1.2c0.6,0.6,0.9,1.5,0.9,2.6c0,1.4-0.6,2.5-1.7,3.3c-1.1,0.8-2.7,1.2-4.6,1.2c-2,0-3.6-0.4-4.7-1.3c-1.1-0.8-1.7-2-1.7-3.5v-0.2h3.4c0,1.5,1,2.3,3,2.3c0.9,0,1.7-0.2,2.2-0.5s0.8-0.8,0.8-1.3s-0.2-0.8-0.7-1.1c-0.5-0.3-1-0.4-1.7-0.5s-1.4-0.2-2.2-0.3c-0.8-0.1-1.5-0.3-2.2-0.6c-0.7-0.2-1.2-0.6-1.7-1.3c-0.5-0.6-0.7-1.4-0.7-2.3c0-1.4,0.6-2.5,1.7-3.3c1.1-0.8,2.6-1.2,4.5-1.2c2,0,3.5,0.4,4.5,1.3c1.1,0.8,1.6,2,1.6,3.5v0.2h-3.2V12.4z"/>
        <rect x="145.7" y="7.7" width="3.4" height="14.5"/>
        <path d="M149.3,3.7c0,0.5-0.2,0.9-0.5,1.2s-0.8,0.4-1.4,0.4c-0.6,0-1-0.1-1.4-0.4s-0.5-0.7-0.5-1.2V3.1c0-0.5,0.2-0.9,0.5-1.2c0.4-0.3,0.8-0.4,1.4-0.4c0.6,0,1,0.1,1.4,0.4c0.3,0.3,0.5,0.7,0.5,1.2V3.7z"/>
        <rect x="138.8" y="1.7" width="3.4" height="20.5"/>
        <path d="M132.2,22.2v-1.7l-1.5,0.8c-1.3,0.7-2.6,1-3.8,1c-1.3,0-2.3-0.4-3.1-1.1c-0.8-0.8-1.2-1.8-1.2-3c0-1.5,0.5-2.6,1.5-3.3c1-0.8,2.3-1.1,3.9-1.1h4.3v-0.9c0-1.9-1-2.8-3-2.8c-2.1,0-3.1,0.8-3.1,2.5h-3.3v-0.2c0-1.6,0.6-2.9,1.7-3.8s2.7-1.4,4.6-1.4c2,0,3.5,0.5,4.6,1.4s1.6,2.3,1.6,4v9.3h-3.2V22.2z M132.2,16.2h-3.9c-1.7,0-2.5,0.6-2.5,1.9c0,0.5,0.2,0.9,0.5,1.2c0.3,0.3,0.7,0.4,1.3,0.4c0.8,0,1.6-0.2,2.5-0.7l2.1-1.1L132.2,16.2L132.2,16.2z"/>
        <polygon points="126.9,5.7 129.9,1.7 134.1,1.7 130.6,5.7 	"/>
        <path class="st1" d="M116.3,22.2v-9.5c0-0.6-0.2-1.1-0.5-1.5s-0.8-0.6-1.4-0.6s-1.2,0.2-1.9,0.6l-2.1,1.3v9.8H107V7.7h3.3v1.7l1.5-0.9c1-0.6,2-0.9,3.2-0.9c1.4,0,2.5,0.4,3.3,1.3s1.2,2,1.2,3.4v10L116.3,22.2L116.3,22.2z"/>
        <path d="M100.6,22.2l-1.3-3.9h-8.1l-1.3,3.9h-4L93,1.7h4.5l7.1,20.5H100.6z M95.3,5.6l-3.2,9.5h6.4L95.3,5.6z"/>
        <path d="M43.7,69.9c0,1.6-1.3,2.9-2.9,2.9H35c-1.6,0-2.9-1.3-2.9-2.9H0c0,3.2,2.6,5.8,5.8,5.8h64.1c3.2,0,5.8-2.6,5.8-5.8H43.7z"/>
        <path d="M49.5,23.3H5.8c-1.6,0-2.9,1.3-2.9,2.9V67h2.9V27.7c0-0.8,0.7-1.5,1.5-1.5h42.2V23.3z"/>
        <rect x="69.9" y="29.1" width="2.9" height="37.9"/>
        <path d="M23.3,40.8v2.9c0,1.6-1.3,2.9-2.9,2.9v2.9c1.6,0,2.9,1.3,2.9,2.9v2.9c0,3.2,2.6,5.8,5.8,5.8H32v-2.9h-2.9c-1.6,0-2.9-1.3-2.9-2.9v-2.9c0-1.7-0.8-3.3-2-4.4c1.2-1.1,2-2.6,2-4.4v-2.9c0-1.6,1.3-2.9,2.9-2.9H32V35h-2.9C25.9,35,23.3,37.6,23.3,40.8z"/>
        <path d="M55.3,46.6c-1.6,0-2.9-1.3-2.9-2.9v-2.9c0-3.2-2.6-5.8-5.8-5.8h-2.9v2.9h2.9c1.6,0,2.9,1.3,2.9,2.9v2.9c0,1.7,0.8,3.3,2,4.4c-1.2,1.1-2,2.6-2,4.4v2.9c0,1.6-1.3,2.9-2.9,2.9h-2.9v2.9h2.9c3.2,0,5.8-2.6,5.8-5.8v-2.9c0-1.6,1.3-2.9,2.9-2.9V46.6L55.3,46.6z"/>
        <path d="M53.9,20.4h7.3c0.8,0,1.5,0.7,1.5,1.5v5.8c0,0.8-0.7,1.5-1.5,1.5h-7.3c-0.8,0-1.5-0.7-1.5-1.5v-5.8C52.4,21,53.1,20.4,53.9,20.4z M53.9,22.6V27c0,0.4,0.3,0.7,0.7,0.7h5.8c0.4,0,0.7-0.3,0.7-0.7v-4.4c0-0.4-0.3-0.7-0.7-0.7h-5.8C54.2,21.8,53.9,22.2,53.9,22.6z"/>
        <path  d="M71.7,26.2h-5c-0.6,0-1.2-0.5-1.2-1.2v-3.5c0-0.6,0.5-1.2,1.2-1.2h5c0.6,0,1.2,0.5,1.2,1.2V25C72.8,25.7,72.3,26.2,71.7,26.2z M71.5,24.3v-2c0-0.4-0.3-0.7-0.7-0.7h-3.2c-0.4,0-0.7,0.3-0.7,0.7v2c0,0.4,0.3,0.7,0.7,0.7h3.2C71.2,25.1,71.5,24.7,71.5,24.3z"/>
        <path d="M50.2,17.5h-8.7c-1.2,0-2.2-1-2.2-2.2V8c0-1.2,1-2.2,2.2-2.2h8.7c1.2,0,2.2,1,2.2,2.2v7.3C52.4,16.5,51.5,17.5,50.2,17.5z M50.2,14.1v-5c0-0.6-0.5-1.2-1.2-1.2h-6.4c-0.6,0-1.2,0.5-1.2,1.2v5c0,0.6,0.5,1.2,1.2,1.2H49C49.7,15.3,50.2,14.8,50.2,14.1z"/>
        <path d="M72.8,17.5H58.3c-1.6,0-2.9-1.3-2.9-2.9V2.9c0-1.6,1.3-2.9,2.9-2.9h14.6c1.6,0,2.9,1.3,2.9,2.9v11.7C75.7,16.2,74.4,17.5,72.8,17.5z M73.2,13.5V4c0-0.8-0.7-1.5-1.5-1.5H59.3c-0.8,0-1.5,0.7-1.5,1.5v9.5c0,0.8,0.7,1.5,1.5,1.5h12.4C72.5,14.9,73.2,14.3,73.2,13.5z"/>
    </g>
</svg>
