<?xml version="1.0" encoding="utf-8"?>
<!-- Generator: Adobe Illustrator 24.0.2, SVG Export Plug-In . SVG Version: 6.00 Build 0)  -->
<svg version="1.1" id="Layer_1" xmlns="http://www.w3.org/2000/svg" xmlns:xlink="http://www.w3.org/1999/xlink" x="0px" y="0px"
	 viewBox="0 0 224 100" style="enable-background:new 0 0 224 100;" xml:space="preserve">
<style type="text/css">
	.st0{fill:#FFFFFF;}
</style>
<g>
	<polygon class="st0" points="11.9,38.7 11.9,66.1 0,66.1 0,0 42.9,0 42.9,10.5 11.9,10.5 11.9,28.2 40.2,28.2 40.2,38.7 	"/>
	<path class="st0" d="M224,49c0,11.7-8.1,17.9-20.3,17.9c-12.1,0-20.2-6.7-20.2-18.3V36.9c0-11.6,8.1-18.4,20.2-18.4
		c12.2,0,20.3,6.2,20.3,17.9v0.8h-10.4c0-6.7-3.6-9.4-9.9-9.4c-6.1,0-9.7,3.2-9.7,9.9v9.8c0,6.8,3.6,9.9,9.7,9.9
		c6.2,0,9.9-2.7,9.9-9.3H224V49z"/>
	<path class="st0" d="M79,66.1v-5.4l-4.9,2.7c-4.4,2.3-7.7,3.4-12.4,3.4c-8.3,0-13.9-5.4-13.9-13.3c0-9.8,7.6-14.3,17.3-14.3H79
		v-2.7c0-6-3.5-9-9.6-9c-6.4,0-10.1,2.7-10.1,8.2H48.9v-0.6c0-10.6,8.4-16.5,20.5-16.5c12.8,0,20.2,6.4,20.2,17.6v30.1H79V66.1z
		 M79,46.7H66.6c-6.5,0-8,3-8,6.1c0,3.3,2,5.2,5.6,5.2c2.9,0,5.4-0.9,8.1-2.3l6.7-3.6C79,52.1,79,46.7,79,46.7z"/>
	<path class="st0" d="M120.5,66.1c-10.8,0-17.9-5.4-17.9-16.1V28.4h-7.1v-9.1h7.1V6.6h11v12.7h13v9.1h-13v21c0,5.5,2.5,7.4,7.7,7.4
		h5.5v9.3C126.8,66.1,120.5,66.1,120.5,66.1z"/>
	<path class="st0" d="M173.8,51.3c0,9.5-8.2,15.5-20.5,15.5c-12.1,0-20.7-6.6-20.7-18V37.7c0-11.8,8.6-19.2,20.7-19.2
		c12.2,0,20.6,7,20.6,19.4v8.3h-31.1v2.3c0,6.7,4.4,9.6,10.6,9.6c6,0,10.1-2.1,10.1-7.2h10.3L173.8,51.3L173.8,51.3z M163.8,37.7
		c0-6.7-3.9-10.3-10.4-10.3c-6.6,0-10.6,3.6-10.6,10.4V39h21V37.7z"/>
</g>
<g>
	<polygon class="st0" points="80.1,95.1 80.1,78.9 74.6,78.9 74.6,75.9 89,75.9 89,78.9 83.6,78.9 83.6,95.1 	"/>
	<path class="st0" d="M97.8,95.1v-1.6l-1.4,0.8c-1.3,0.7-2.2,1-3.6,1c-2.4,0-4-1.6-4-3.9c0-2.8,2.2-4.2,5-4.2h4v-0.8
		c0-1.8-1-2.6-2.8-2.6c-1.9,0-2.9,0.8-2.9,2.4h-3V86c0-3.1,2.4-4.8,6-4.8c3.7,0,5.9,1.9,5.9,5.1V95h-3.2V95.1z M97.8,89.5h-3.6
		c-1.9,0-2.3,0.9-2.3,1.8c0,1,0.6,1.5,1.6,1.5c0.9,0,1.6-0.3,2.3-0.7l2-1.1V89.5z"/>
	<path class="st0" d="M113,99.8v-6.2l-1.5,0.9c-1.1,0.6-2,0.8-3,0.8c-2.8,0-4.7-1.9-4.7-4.6V86c0-2.8,1.9-4.7,4.7-4.7
		c1,0,1.9,0.2,3,0.8L113,83v-1.5h3v18.3H113z M113,85.8l-2.2-1.2c-0.6-0.3-1.2-0.5-1.9-0.5c-1.3,0-2.1,0.9-2.1,2.2v3.9
		c0,1.3,0.9,2.2,2.1,2.2c0.7,0,1.3-0.2,1.9-0.5l2.2-1.2V85.8z"/>
	<path class="st0" d="M128,95.1v-1.6l-1.4,0.9c-1,0.6-1.9,0.9-3,0.9c-2.7,0-4.3-1.8-4.3-4.4v-9.3h3.1v9c0,1.2,0.7,2,1.8,2
		c0.7,0,1.2-0.3,1.8-0.6l2-1.2v-9.2h3.1v13.6H128V95.1z"/>
	<path class="st0" d="M142.8,95.1v-1.6l-1.4,0.8c-1.3,0.7-2.2,1-3.6,1c-2.4,0-4-1.6-4-3.9c0-2.8,2.2-4.2,5-4.2h4.1v-0.8
		c0-1.8-1-2.6-2.8-2.6c-1.9,0-2.9,0.8-2.9,2.4h-3V86c0-3.1,2.4-4.8,6-4.8c3.7,0,5.9,1.9,5.9,5.1V95h-3.3V95.1z M142.8,89.5h-3.6
		c-1.9,0-2.3,0.9-2.3,1.8c0,1,0.6,1.5,1.6,1.5c0.9,0,1.6-0.3,2.3-0.7l2-1.1V89.5z"/>
	<path class="st0" d="M149,95.1V81.5h3.1v1.9l0.6-0.6c1-1,2-1.4,3.4-1.4h0.8v3.2h-0.8c-1.2,0-2,0.2-2.9,0.9l-1.1,0.9v8.7H149z"/>
	<path class="st0" d="M162.3,77.8c0,1-0.7,1.5-1.8,1.5c-1,0-1.8-0.5-1.8-1.5v-0.6c0-1,0.8-1.5,1.8-1.5s1.8,0.5,1.8,1.5V77.8z
		 M158.9,81.5h3.2v13.6h-3.2V81.5z"/>
	<path class="st0" d="M171.6,95.1c-3.1,0-5.2-1.6-5.2-4.7v-6.3h-2.1v-2.7h2.1v-3.7h3.2v3.7h3.8v2.7h-3.8v6.1c0,1.6,0.7,2.1,2.2,2.1
		h1.6V95h-1.8V95.1z"/>
	<path class="st0" d="M179.3,77.8c0,1-0.7,1.5-1.8,1.5c-1,0-1.8-0.5-1.8-1.5v-0.6c0-1,0.8-1.5,1.8-1.5s1.8,0.5,1.8,1.5V77.8z
		 M175.9,81.5h3.2v13.6h-3.2V81.5z"/>
	<path class="st0" d="M191.1,95.1v-8.9c0-1-0.6-2-1.8-2c-0.7,0-1.2,0.3-1.8,0.6l-2,1.2v9.2h-3.1V81.5h3.1v1.6l1.4-0.9
		c1-0.6,2-0.9,3-0.9c2.7,0,4.3,1.8,4.3,4.4V95L191.1,95.1L191.1,95.1z"/>
	<path class="st0" d="M200.1,90.1c-0.6,0-0.9,0.3-0.9,0.9c0,0.5,0.3,0.9,0.9,0.9h5.3c3.1,0,4.9,1.2,4.9,3.7c0,2.8-2.6,4.4-6.2,4.4
		c-4.2,0-6.1-1.9-6.1-5.2v-1.4c-0.9-0.4-1.3-1.2-1.3-2.4c0-1.5,0.8-2.3,1.8-2.6c0,0-1-0.8-1-2.6c0-2.9,2-4.4,5-4.4h7.9V84h-1.9
		c0,0,0.7,0.5,0.7,1.9c0,2.6-1.9,4.2-4.9,4.2H200.1z M203.7,87.9c1.7,0,2.6-0.6,2.6-2c0-1.3-0.9-2-2.3-2h-1.2c-1.5,0-2.4,0.5-2.4,2
		c0,1.4,0.9,2,2.3,2H203.7z M200.7,94.2v0.6c0,1.9,0.8,2.9,3.2,2.9c2.2,0,3.3-0.6,3.3-1.9c0-1.2-0.9-1.5-2.3-1.5L200.7,94.2
		L200.7,94.2z"/>
	<path class="st0" d="M220.9,95.1v-1.6l-1.4,0.8c-1.3,0.7-2.2,1-3.6,1c-2.4,0-4-1.6-4-3.9c0-2.8,2.2-4.2,5-4.2h4.1v-0.8
		c0-1.8-1-2.6-2.8-2.6c-1.9,0-2.9,0.8-2.9,2.4h-3V86c0-3.1,2.4-4.8,6-4.8c3.7,0,5.9,1.9,5.9,5.1V95h-3.3V95.1z M220.9,89.5h-3.6
		c-1.9,0-2.3,0.9-2.3,1.8c0,1,0.6,1.5,1.6,1.5c0.9,0,1.6-0.3,2.3-0.7l2-1.1V89.5z"/>
</g>
</svg>
