<?xml version="1.0" encoding="utf-8"?>
<!-- Generator: Adobe Illustrator 24.0.2, SVG Export Plug-In . SVG Version: 6.00 Build 0)  -->
<svg version="1.1" id="Layer_1" xmlns="http://www.w3.org/2000/svg" xmlns:xlink="http://www.w3.org/1999/xlink" x="0px" y="0px"
	 viewBox="0 0 158 100" style="enable-background:new 0 0 158 100;" xml:space="preserve">
<style type="text/css">
	.st0{fill:url(#SVGID_1_);}
	.st1{fill:url(#SVGID_2_);}
	.st2{fill:url(#SVGID_3_);}
	.st3{fill:url(#SVGID_4_);}
	.st4{fill:url(#SVGID_5_);}
	.st5{fill:url(#SVGID_6_);}
	.st6{fill:url(#SVGID_7_);}
	.st7{fill:#E60000;}
	.st8{fill:#FFFFFF;}
	.st9{fill-rule:evenodd;clip-rule:evenodd;fill:#004196;}
	.st10{fill:#FFD200;}
</style>
<g>
	<path d="M5.3,96h2.2v1.4C6.9,97.7,6.2,98,5.4,98c-1.8,0-3-1.3-3-3.2l0,0c0-1.7,1.3-3.1,2.9-3.1c1.2,0,1.8,0.4,2.6,1L9.2,91
		c-1-0.9-2.1-1.4-3.9-1.4c-3,0-5.3,2.3-5.3,5.2l0,0c0,2.9,2.1,5.2,5.3,5.2c1.8,0,3.2-0.7,4.3-1.6v-4.3H5.3V96z"/>
	<path d="M16.2,89.7c-3.1,0-5.3,2.3-5.3,5.2l0,0c0,2.9,2.2,5.2,5.3,5.2s5.3-2.3,5.3-5.2l0,0C21.5,92,19.3,89.7,16.2,89.7z
		 M19.2,94.8c0,1.7-1.2,3.1-3,3.1s-3-1.4-3-3.2l0,0c0-1.7,1.2-3.1,3-3.1C18,91.7,19.2,93.1,19.2,94.8L19.2,94.8z"/>
	<polygon points="26.4,96.8 23.8,89.8 21.3,89.8 25.4,99.8 27.3,99.8 31.4,89.8 29,89.8 	"/>
	<path d="M49.8,93.1L49.8,93.1c0-1-0.3-1.7-0.9-2.3c-0.6-0.6-1.6-1-2.9-1h-4.6v10h2.2v-3.2h1.8l2.1,3.2h2.6l-2.4-3.6
		C48.9,95.7,49.8,94.7,49.8,93.1z M47.5,93.2c0,0.9-0.6,1.4-1.7,1.4h-2.2v-2.9h2.2C46.9,91.8,47.5,92.2,47.5,93.2L47.5,93.2z"/>
	<polygon points="57.9,96 53.2,89.8 51.1,89.8 51.1,99.8 53.3,99.8 53.3,93.4 58.2,99.8 60,99.8 60,89.8 57.9,89.8 	"/>
	<path d="M66.7,89.6c-3.1,0-5.3,2.3-5.3,5.2l0,0c0,2.9,2.2,5.2,5.3,5.2s5.3-2.3,5.3-5.2l0,0C72,91.9,69.8,89.6,66.7,89.6z
		 M69.7,94.8c0,1.7-1.2,3.1-3,3.1s-3-1.4-3-3.2l0,0c0-1.7,1.2-3.1,3-3.1C68.4,91.7,69.7,93.1,69.7,94.8L69.7,94.8z"/>
	<polygon points="103.2,95.7 107.9,95.7 107.9,93.8 103.2,93.8 103.2,91.8 108.5,91.8 108.5,89.8 101,89.8 101,99.8 108.6,99.8 
		108.6,97.8 103.2,97.8 	"/>
	<path d="M114.1,93.8c-1.8-0.4-2.2-0.6-2.2-1.3l0,0c0-0.5,0.4-0.9,1.3-0.9s1.7,0.4,2.6,1l1.2-1.7c-1-0.8-2.3-1.3-3.7-1.3
		c-2.1,0-3.5,1.2-3.5,3l0,0c0,2,1.3,2.6,3.3,3.1c1.7,0.4,2,0.7,2,1.3l0,0c0,0.6-0.6,0.9-1.5,0.9c-1.2,0-2.1-0.5-3-1.2l-1.3,1.5
		c1.2,1.1,2.7,1.6,4.2,1.6c2.2,0,3.7-1.1,3.7-3.1l0,0C117.3,95.1,116.2,94.3,114.1,93.8z"/>
	<polygon points="126.5,89.8 118.2,89.8 118.2,91.8 121.2,91.8 121.2,99.8 123.4,99.8 123.4,91.8 126.5,91.8 	"/>
	<path d="M129.1,89.8l-4.3,10h2.3l0.9-2.3h4.2l0.9,2.3h2.3l-4.3-10H129.1z M128.8,95.6l1.3-3.2l1.3,3.2H128.8z"/>
	<path d="M140.8,89.8h-3.9v10h3.9c3.2,0,5.3-2.2,5.3-5l0,0C146.2,92,144,89.8,140.8,89.8z M143.9,94.8c0,1.7-1.2,3-3,3h-1.7v-6h1.7
		C142.6,91.8,143.9,93,143.9,94.8L143.9,94.8z"/>
	<path d="M152.7,89.7c-3.1,0-5.3,2.3-5.3,5.2l0,0c0,2.9,2.2,5.2,5.3,5.2s5.3-2.3,5.3-5.2l0,0C158,92,155.8,89.7,152.7,89.7z
		 M155.7,94.8c0,1.7-1.2,3.1-3,3.1s-3-1.4-3-3.2l0,0c0-1.7,1.2-3.1,3-3.1C154.4,91.6,155.7,93.1,155.7,94.8L155.7,94.8z"/>
	<polygon points="34.8,95.7 39.5,95.7 39.5,93.8 34.8,93.8 34.8,91.7 40.1,91.7 40.1,89.8 32.6,89.8 32.6,99.8 40.2,99.8 40.2,97.8 
		34.8,97.8 	"/>
	<path d="M79.8,89.8h-3.9v10h3.9c3.2,0,5.3-2.2,5.3-5l0,0C85.1,92,82.9,89.8,79.8,89.8z M82.8,94.8c0,1.7-1.2,3-3,3h-1.7v-6h1.7
		C81.6,91.8,82.8,93,82.8,94.8L82.8,94.8z"/>
	<path d="M91.7,89.7c-3.1,0-5.3,2.3-5.3,5.2l0,0c0,2.9,2.2,5.2,5.3,5.2s5.3-2.3,5.3-5.2l0,0C97,91.9,94.9,89.7,91.7,89.7z
		 M94.8,94.8c0,1.7-1.2,3.1-3,3.1s-3-1.4-3-3.2l0,0c0-1.7,1.2-3.1,3-3.1C93.5,91.7,94.8,93.1,94.8,94.8L94.8,94.8z"/>
	<path d="M0,50.5h14.8c8.7,0,14.4,4.5,14.4,12.1v0.1c0,8.1-6.3,12.4-14.9,12.4H9.6v10.1H0V50.5z M14.1,67.6c3.4,0,5.5-1.8,5.5-4.5
		V63c0-2.9-2.1-4.5-5.5-4.5H9.6v9.1H14.1L14.1,67.6z"/>
	<path d="M38,50.4h9.2L62,85.1H51.7L49.2,79H35.9l-2.5,6.1h-10L38,50.4z M46.4,71.5l-3.8-9.8l-3.9,9.8H46.4z"/>
	<path d="M59.9,69.8V50.5h9.7v19.1c0,5,2.5,7.3,6.4,7.3s6.4-2.3,6.4-7.1V50.5H92v19.1c0,11.1-6.4,16-16.2,16
		C66,85.5,59.9,80.5,59.9,69.8z"/>
	<path d="M94.3,50.5h9.6v26.3h16.8v8.3H94.3V50.5L94.3,50.5z"/>
	<path d="M120.8,67.8L120.8,67.8c0-10,8-18,18.6-18S158,57.7,158,67.6v0.1c0,9.9-8,17.9-18.6,17.9C128.7,85.6,120.8,77.6,120.8,67.8
		z M148.2,67.8L148.2,67.8c0-5.1-3.6-9.4-8.9-9.4c-5.2,0-8.7,4.2-8.7,9.2v0.1c0,5,3.6,9.3,8.8,9.3C144.7,77,148.2,72.7,148.2,67.8z"
		/>
	<path d="M56.4,40.7l5.3-6.3c3.4,2.7,7.2,4.1,11.2,4.1c2.6,0,3.9-0.9,3.9-2.3V36c0-1.4-1.2-2.2-5.8-3.3C63.6,31,58,29,58,21.9v-0.1
		c0-6.4,5.1-11,13.4-11c5.9,0,10.5,1.6,14.2,4.6l-4.8,6.7c-3.2-2.2-6.6-3.4-9.7-3.4c-2.3,0-3.5,1-3.5,2.2V21c0,1.6,1.2,2.3,6,3.4
		c8,1.7,12.9,4.3,12.9,10.7v0.1c0,7-5.6,11.2-14,11.2C66.5,46.4,60.6,44.5,56.4,40.7z"/>
	<path d="M94.2,7.7c1.1-4.9,2.8-7.3,6.2-7.3c2.9,0,6.5,1.9,8.2,1.9c1.4,0,1.9-0.7,2.6-2.3l4.5,1.2c-1,4.9-2.8,7.3-6.2,7.3
		c-2.9,0-6.6-1.9-8.2-1.9c-1.4,0-2,0.7-2.6,2.3L94.2,7.7z"/>
	<path d="M100.2,11.1h9.2l14.7,34.7h-10.3l-2.5-6.1H98l-2.5,6.1H85.4L100.2,11.1z M108.5,32.2l-3.8-9.8l-3.9,9.8H108.5z"/>
	<path d="M120.8,28.7L120.8,28.7c0-10,8-18,18.6-18S158,18.6,158,28.5v0.1c0,9.9-8,17.9-18.6,17.9C128.7,46.5,120.8,38.5,120.8,28.7
		z M148.2,28.7L148.2,28.7c0-5.1-3.6-9.4-8.9-9.4c-5.2,0-8.7,4.2-8.7,9.2v0.1c0,5,3.6,9.3,8.8,9.3C144.7,37.9,148.2,33.6,148.2,28.7
		z"/>
</g>
<linearGradient id="SVGID_1_" gradientUnits="userSpaceOnUse" x1="0" y1="62.1" x2="59.8" y2="62.1" gradientTransform="matrix(1 0 0 -1 0 102)">
	<stop  offset="0" style="stop-color:#000000"/>
	<stop  offset="0.2254" style="stop-color:#4B4B4B"/>
	<stop  offset="0.5484" style="stop-color:#000000"/>
	<stop  offset="0.6158" style="stop-color:#060606"/>
	<stop  offset="0.7046" style="stop-color:#161616"/>
	<stop  offset="0.805" style="stop-color:#323232"/>
	<stop  offset="0.8494" style="stop-color:#404040"/>
	<stop  offset="0.9642" style="stop-color:#101010"/>
	<stop  offset="1" style="stop-color:#000000"/>
</linearGradient>
<path class="st0" d="M59.8,6.7c-0.6,1.3-1.4,2.5-2.3,3.5c-4.7,5.2-12.7,6.3-20.6,6.7c-0.5,0-8.8,0.3-12.5,0.6
	c-7.9,0.6-15.9,1.7-20.6,6.8c-1,1.1-1.8,2.3-2.5,3.7c-1,2-1.3,3.9-1.3,5.9v39.2c0-2,0.3-3.9,1.2-5.8c0.7-1.5,1.5-2.7,2.5-3.8
	c4.7-5.1,12.8-6.2,20.6-6.8c4.2-0.3,8.3-0.4,12.5-0.6c7.9-0.3,15.9-1.6,20.6-6.7c0.9-1,1.7-2.1,2.4-3.5L59.8,6.7z"/>
<g>
	
		<linearGradient id="SVGID_2_" gradientUnits="userSpaceOnUse" x1="0.6758" y1="820.2998" x2="58.1759" y2="820.2998" gradientTransform="matrix(1 -4.315197e-02 0 1 0 -794.3574)">
		<stop  offset="0" style="stop-color:#AAAAAA"/>
		<stop  offset="5.603292e-02" style="stop-color:#C0C0C0"/>
		<stop  offset="0.1597" style="stop-color:#E2E2E2"/>
		<stop  offset="0.2452" style="stop-color:#F7F7F7"/>
		<stop  offset="0.3011" style="stop-color:#FFFFFF"/>
		<stop  offset="0.3141" style="stop-color:#FCFCFC"/>
		<stop  offset="0.4058" style="stop-color:#EAEAEA"/>
		<stop  offset="0.5034" style="stop-color:#DFDFDF"/>
		<stop  offset="0.6159" style="stop-color:#DCDCDC"/>
		<stop  offset="0.7048" style="stop-color:#E2E2E2"/>
		<stop  offset="0.8207" style="stop-color:#F2F2F2"/>
		<stop  offset="0.8887" style="stop-color:#FFFFFF"/>
		<stop  offset="0.9267" style="stop-color:#F3F3F3"/>
		<stop  offset="0.9945" style="stop-color:#D5D5D5"/>
		<stop  offset="1" style="stop-color:#D2D2D2"/>
	</linearGradient>
	<path class="st1" d="M57.5,13.1c-4.7,5.2-12.7,6-20.6,6.4c-4.2,0.2-8.3,0.3-12.5,0.6c-7.9,0.6-15.9,1.7-20.6,6.8
		c-1,1.1-1.8,2.3-2.5,3.7c-0.9,2-1.2,3.9-1.2,5.9v3.2c0-2,0.3-3.9,1.1-5.8c0.7-1.4,1.5-2.7,2.5-3.7C8.4,25,16.5,24,24.3,23.4
		c4.2-0.3,8.3-0.4,12.5-0.6c7.9-0.3,15.9-1.3,20.6-6.4c0.9-1,1.7-2.1,2.4-3.5V9.6C59.2,10.9,58.4,12.1,57.5,13.1z"/>
	
		<linearGradient id="SVGID_3_" gradientUnits="userSpaceOnUse" x1="0.6746" y1="826.3477" x2="58.1758" y2="826.3477" gradientTransform="matrix(1 -4.315197e-02 0 1 0 -794.3574)">
		<stop  offset="0" style="stop-color:#AAAAAA"/>
		<stop  offset="5.603292e-02" style="stop-color:#C0C0C0"/>
		<stop  offset="0.1597" style="stop-color:#E2E2E2"/>
		<stop  offset="0.2452" style="stop-color:#F7F7F7"/>
		<stop  offset="0.3011" style="stop-color:#FFFFFF"/>
		<stop  offset="0.3141" style="stop-color:#FCFCFC"/>
		<stop  offset="0.4058" style="stop-color:#EAEAEA"/>
		<stop  offset="0.5034" style="stop-color:#DFDFDF"/>
		<stop  offset="0.6159" style="stop-color:#DCDCDC"/>
		<stop  offset="0.7048" style="stop-color:#E2E2E2"/>
		<stop  offset="0.8207" style="stop-color:#F2F2F2"/>
		<stop  offset="0.8887" style="stop-color:#FFFFFF"/>
		<stop  offset="0.9267" style="stop-color:#F3F3F3"/>
		<stop  offset="0.9945" style="stop-color:#D5D5D5"/>
		<stop  offset="1" style="stop-color:#D2D2D2"/>
	</linearGradient>
	<path class="st2" d="M57.5,19.2c-4.7,5.1-12.7,5.8-20.6,6.2c-4.2,0.2-8.3,0.5-12.5,0.9c-7.9,0.5-16,1.6-20.7,6.7
		c-1,1.1-1.8,2.3-2.5,3.7c-0.9,2-1.2,3.9-1.2,5.9v3.2c0-2,0.3-3.9,1.1-5.8c0.7-1.4,1.5-2.7,2.5-3.7C8.4,31,16.4,30,24.3,29.4
		c4.2-0.3,8.3-0.6,12.5-0.9c7.9-0.3,15.9-1.1,20.6-6.2c0.9-1,1.7-2.1,2.4-3.5v-3.2C59.2,17,58.4,18.1,57.5,19.2z"/>
	
		<linearGradient id="SVGID_4_" gradientUnits="userSpaceOnUse" x1="0.6741" y1="832.4542" x2="58.1758" y2="832.4542" gradientTransform="matrix(1 -4.315197e-02 0 1 0 -794.3574)">
		<stop  offset="0" style="stop-color:#AAAAAA"/>
		<stop  offset="5.603292e-02" style="stop-color:#C0C0C0"/>
		<stop  offset="0.1597" style="stop-color:#E2E2E2"/>
		<stop  offset="0.2452" style="stop-color:#F7F7F7"/>
		<stop  offset="0.3011" style="stop-color:#FFFFFF"/>
		<stop  offset="0.3141" style="stop-color:#FCFCFC"/>
		<stop  offset="0.4058" style="stop-color:#EAEAEA"/>
		<stop  offset="0.5034" style="stop-color:#DFDFDF"/>
		<stop  offset="0.6159" style="stop-color:#DCDCDC"/>
		<stop  offset="0.7048" style="stop-color:#E2E2E2"/>
		<stop  offset="0.8207" style="stop-color:#F2F2F2"/>
		<stop  offset="0.8887" style="stop-color:#FFFFFF"/>
		<stop  offset="0.9267" style="stop-color:#F3F3F3"/>
		<stop  offset="0.9945" style="stop-color:#D5D5D5"/>
		<stop  offset="1" style="stop-color:#D2D2D2"/>
	</linearGradient>
	<path class="st3" d="M57.5,25.3c-4.7,5.2-12.7,6-20.6,6.4c-4.2,0.2-8.3,0.3-12.5,0.6C16.5,32.9,8.5,34,3.8,39.1
		c-1,1.1-1.8,2.3-2.5,3.7c-0.9,1.9-1.1,3.9-1.1,5.8v3.2c0-2,0.3-3.9,1.1-5.8c0.7-1.4,1.5-2.7,2.5-3.7c4.7-5.2,12.8-6.2,20.6-6.8
		c4.2-0.3,8.3-0.4,12.5-0.6c7.9-0.3,15.9-1.3,20.6-6.4c0.9-1,1.7-2.1,2.4-3.5v-3.2C59.2,23.1,58.4,24.2,57.5,25.3z"/>
	
		<linearGradient id="SVGID_5_" gradientUnits="userSpaceOnUse" x1="0.6713" y1="844.7477" x2="58.1758" y2="844.7477" gradientTransform="matrix(1 -4.315197e-02 0 1 0 -794.3574)">
		<stop  offset="0" style="stop-color:#AAAAAA"/>
		<stop  offset="5.603292e-02" style="stop-color:#C0C0C0"/>
		<stop  offset="0.1597" style="stop-color:#E2E2E2"/>
		<stop  offset="0.2452" style="stop-color:#F7F7F7"/>
		<stop  offset="0.3011" style="stop-color:#FFFFFF"/>
		<stop  offset="0.3141" style="stop-color:#FCFCFC"/>
		<stop  offset="0.4058" style="stop-color:#EAEAEA"/>
		<stop  offset="0.5034" style="stop-color:#DFDFDF"/>
		<stop  offset="0.6159" style="stop-color:#DCDCDC"/>
		<stop  offset="0.7048" style="stop-color:#E2E2E2"/>
		<stop  offset="0.8207" style="stop-color:#F2F2F2"/>
		<stop  offset="0.8887" style="stop-color:#FFFFFF"/>
		<stop  offset="0.9267" style="stop-color:#F3F3F3"/>
		<stop  offset="0.9945" style="stop-color:#D5D5D5"/>
		<stop  offset="1" style="stop-color:#D2D2D2"/>
	</linearGradient>
	<path class="st4" d="M57.5,37.4c-4.7,5.2-12.7,6-20.6,6.4c-4.2,0.2-8.3,0.3-12.5,0.6C16.5,45,8.5,46.1,3.8,51.2
		c-1,1.1-1.8,2.3-2.5,3.7c-1,2.1-1.3,4-1.3,6v3.2c0-2,0.3-3.9,1.2-5.8c0.7-1.4,1.5-2.7,2.5-3.7c4.7-5.2,12.8-6.2,20.6-6.8
		c4.2-0.3,8.3-0.4,12.5-0.6c7.9-0.3,15.9-1.3,20.6-6.4c0.9-1,1.7-2.1,2.4-3.5v-3.2C59.2,35.3,58.4,36.4,57.5,37.4z"/>
	
		<linearGradient id="SVGID_6_" gradientUnits="userSpaceOnUse" x1="0.671" y1="850.7477" x2="58.1758" y2="850.7477" gradientTransform="matrix(1 -4.315197e-02 0 1 0 -794.3574)">
		<stop  offset="0" style="stop-color:#AAAAAA"/>
		<stop  offset="5.603292e-02" style="stop-color:#C0C0C0"/>
		<stop  offset="0.1597" style="stop-color:#E2E2E2"/>
		<stop  offset="0.2452" style="stop-color:#F7F7F7"/>
		<stop  offset="0.3011" style="stop-color:#FFFFFF"/>
		<stop  offset="0.3141" style="stop-color:#FCFCFC"/>
		<stop  offset="0.4058" style="stop-color:#EAEAEA"/>
		<stop  offset="0.5034" style="stop-color:#DFDFDF"/>
		<stop  offset="0.6159" style="stop-color:#DCDCDC"/>
		<stop  offset="0.7048" style="stop-color:#E2E2E2"/>
		<stop  offset="0.8207" style="stop-color:#F2F2F2"/>
		<stop  offset="0.8887" style="stop-color:#FFFFFF"/>
		<stop  offset="0.9267" style="stop-color:#F3F3F3"/>
		<stop  offset="0.9945" style="stop-color:#D5D5D5"/>
		<stop  offset="1" style="stop-color:#D2D2D2"/>
	</linearGradient>
	<path class="st5" d="M57.5,43.5c-4.7,5.2-12.7,6.1-20.6,6.4c-4.2,0.2-8.3,0.3-12.5,0.6c-7.9,0.6-15.9,1.7-20.6,6.8
		c-1,1.1-1.8,2.3-2.5,3.7c-1,2-1.3,4-1.3,6v3.2c0-2,0.3-3.9,1.2-5.8c0.7-1.4,1.5-2.7,2.5-3.7c4.7-5.2,12.8-6.2,20.6-6.8
		c4.2-0.3,8.3-0.4,12.5-0.6c7.9-0.3,15.9-1.3,20.6-6.4c0.9-1,1.7-2.1,2.4-3.5V40C59.2,41.4,58.4,42.5,57.5,43.5z"/>
	
		<linearGradient id="SVGID_7_" gradientUnits="userSpaceOnUse" x1="0.6733" y1="838.5498" x2="58.1758" y2="838.5498" gradientTransform="matrix(1 -4.315197e-02 0 1 0 -794.3574)">
		<stop  offset="0" style="stop-color:#AAAAAA"/>
		<stop  offset="5.603292e-02" style="stop-color:#C0C0C0"/>
		<stop  offset="0.1597" style="stop-color:#E2E2E2"/>
		<stop  offset="0.2452" style="stop-color:#F7F7F7"/>
		<stop  offset="0.3011" style="stop-color:#FFFFFF"/>
		<stop  offset="0.3141" style="stop-color:#FCFCFC"/>
		<stop  offset="0.4058" style="stop-color:#EAEAEA"/>
		<stop  offset="0.5034" style="stop-color:#DFDFDF"/>
		<stop  offset="0.6159" style="stop-color:#DCDCDC"/>
		<stop  offset="0.7048" style="stop-color:#E2E2E2"/>
		<stop  offset="0.8207" style="stop-color:#F2F2F2"/>
		<stop  offset="0.8887" style="stop-color:#FFFFFF"/>
		<stop  offset="0.9267" style="stop-color:#F3F3F3"/>
		<stop  offset="0.9945" style="stop-color:#D5D5D5"/>
		<stop  offset="1" style="stop-color:#D2D2D2"/>
	</linearGradient>
	<path class="st6" d="M57.5,31.3c-4.7,5.2-12.7,6-20.6,6.4c-4.2,0.2-8.3,0.3-12.5,0.6C16.5,39,8.4,40,3.7,45.2
		c-1,1.1-1.8,2.3-2.5,3.7c-0.9,1.9-1.1,3.9-1.1,5.8v3.2c0-2,0.3-3.9,1.1-5.8c0.7-1.4,1.5-2.7,2.5-3.7c4.7-5.2,12.8-6.2,20.6-6.8
		c4.2-0.3,8.3-0.4,12.5-0.6c7.9-0.3,15.9-1.3,20.6-6.4c0.9-1,1.7-2.1,2.4-3.5v-3.2C59.2,29.2,58.4,30.3,57.5,31.3z"/>
</g>
<path class="st7" d="M18.6,18.1c-5.9,0.8-11.3,2.3-14.9,6.1c-1,1.1-1.8,2.3-2.5,3.7c-0.9,2-1.1,3.9-1.1,5.9v2.6v3.2v2.9v3.2v2.9
	c0-2,0.3-3.7,1.1-5.7c0.7-1.4,1.5-2.7,2.5-3.7c3.8-3.9,8.8-5.5,14.9-6.3C18.6,32.9,18.6,18.1,18.6,18.1z"/>
<path class="st8" d="M13.1,25.7c0.2,3.2-2.1,6.7-5.1,8.5s-5.6,0.4-5.7-2.8c-0.2-3.2,2.1-6.7,5.1-8.5C10.4,21.1,13,22.5,13.1,25.7"/>
<path class="st9" d="M6.3,25.3L6.3,25.3C6.4,25.3,6.4,25.3,6.3,25.3v0.1h0.1l0,0l0,0v0.1c0,0.1-0.1,0.3,0,0.3v0.1
	c0.1,0,0.1,0.1,0.2,0l0,0l0,0l0,0l0,0l0,0l0,0c0,0,0,0,0.1-0.1c0,0,0-0.1,0.1-0.1L7,25.6c0,0,0,0,0-0.1c0,0,0,0,0-0.1l0,0
	c0.1,0,0.1-0.1,0.2-0.1l0,0l0,0l0,0l0,0c0,0,0,0,0.1,0c0,0,0,0,0.1-0.1c0,0,0.1,0,0.2,0C7.9,25,7.9,25,7.9,24.8
	C8,24.7,8,24.6,8,24.5h0.1l0,0c0,0.1,0.1,0.2,0.1,0.3l0,0c0,0,0,0,0,0.1c0,0,0,0,0.1,0c0,0.1,0,0.2,0,0.3c0,0,0,0,0,0.1l0,0
	c0,0,0.2,0,0.3,0l0,0c0,0,0,0,0.1,0c0.1-0.1,0.2-0.1,0.2-0.1l0,0l0,0l0,0l0,0l0,0l0,0l0,0l0,0l0,0l0,0l0,0l0,0l0,0l0,0l0,0l0,0
	c0,0,0-0.1,0.1-0.1l0,0l0,0c0,0,0,0,0,0.1l0,0c0,0,0.1-0.1,0.1,0c0,0,0-0.1,0.1-0.1l0,0h0.2L9.5,25c0,0,0.2-0.1,0.3-0.1
	c0.1-0.1,0.2,0,0.3,0c0,0,0,0,0.1,0c0,0,0.1,0.1,0.2,0.1h0.1l0,0l0,0c0.1,0,0.2-0.1,0.3-0.1s0.1,0.2,0.2,0.3c0,0.2,0,0.5-0.2,0.7
	c0,0,0,0.1-0.1,0.2c0,0,0,0,0,0.1c-0.2,0.2-0.2,0.5-0.4,0.8l0,0c0,0,0,0.1-0.1,0.1l0,0c0,0.2,0,0.4,0,0.5s-0.1,0.3,0,0.4
	c0,0,0,0,0,0.1c-0.1,0.1,0,0.3-0.1,0.4S10,28.8,10,28.8l0,0c0,0,0,0.1,0,0.2s0,0.1,0,0.1c-0.1,0.1-0.2,0.1-0.2,0.2v0.1
	c-0.2,0-0.3,0.2-0.4,0.3l0,0l0,0l0,0l0,0l0,0c0,0,0,0-0.1,0l0,0l0,0c0,0-0.1,0-0.1,0.1c0,0,0,0.1-0.1,0.1l0,0l0,0c0,0-0.1,0-0.2,0.1
	c0,0,0,0,0,0.1l0,0c0,0,0,0.1-0.1,0.1c0,0-0.1,0.1-0.1,0.2c-0.1,0,0,0.2-0.2,0.2l0,0c0.1,0,0.1,0,0.1,0.1l0,0v0.1l0,0c0,0,0,0,0,0.1
	l0,0c0,0,0,0,0,0.1l0,0c0,0.1,0,0.2,0,0.3c-0.1,0.1-0.2,0.3-0.3,0.5v0.1l-0.1,0.2c-0.1,0.1-0.2,0.2-0.3,0.3l0,0c0,0.1,0,0.2-0.1,0.3
	l-0.1,0.2c-0.1,0,0-0.1-0.1,0c0,0,0-0.1,0.1-0.2l0,0l0,0H7.6c0-0.1-0.1,0-0.2,0l0,0c-0.1,0-0.2,0-0.2,0s0,0.1-0.1,0.1l0,0
	c-0.1,0-0.1-0.1-0.2,0l0,0c0,0,0,0-0.1,0l0,0c0,0,0,0,0-0.1s0.1-0.2,0.1-0.3C7,32.3,7,32.2,7.1,32.1l0,0c0,0,0.1-0.1,0.2-0.2
	c0,0,0,0,0-0.1l0.1-0.1c0,0,0.1-0.1,0.1-0.2v-0.1c0,0,0-0.2-0.1-0.1l0,0l0,0v-0.1c0-0.1,0-0.2,0-0.2c0.6-0.2,0.4,0,0.4,0v-0.2
	c0,0,0,0,0-0.1l0,0c0-0.1-0.1,0-0.1,0c0,0.1-0.3,0.1-0.3,0.2v-0.1v-0.1c0-0.1,0-0.1,0-0.2l0,0c0,0,0,0,0-0.1l0,0
	c0-0.1,0-0.2,0.1-0.2c0,0,0-0.1,0-0.2c0,0,0-0.1-0.1-0.1l0,0c-0.1,0-0.1-0.1-0.1-0.2l0,0c-0.1,0-0.3,0.1-0.4,0.2c0,0,0-0.1,0-0.2
	s0,0-0.1,0l0,0c0,0,0,0,0-0.1c0,0,0-0.1,0-0.2H6.7c0,0-0.1,0.1-0.2,0.1c0,0,0,0-0.1,0s-0.2,0.1-0.2,0c0,0.1-0.1,0-0.1,0
	c0,0.1-0.1,0-0.1,0.1l0,0l0,0l0,0l0,0l0,0c0-0.1-0.1-0.1,0-0.2c0,0,0-0.2,0-0.3l0,0c-0.1,0-0.1,0.1-0.2,0.1c0,0-0.1,0.1-0.1,0.2
	l-0.1,0.1l0,0c0,0.1-0.1,0.1-0.2,0.2l0,0c-0.1,0-0.2,0.1-0.3,0.2l0,0l0,0c0-0.1,0-0.2,0-0.3l0,0l0,0c-0.2,0-0.2,0-0.3,0.1
	c0,0-0.1,0.1-0.2,0.1c0,0,0,0,0-0.1c0,0-0.1,0-0.2,0.1v-0.1c0,0-0.1,0-0.1-0.1c0,0,0-0.1-0.1-0.1l0,0c0,0,0,0-0.1,0l0,0l0,0
	c0-0.1,0-0.2,0.1-0.3c0-0.1,0-0.2,0-0.3l0.1-0.1l0.1-0.1c0,0,0.1,0,0.1-0.1c0.1,0,0.1-0.1,0.1-0.1l0,0l0,0l0,0l0,0
	c0-0.2,0.1-0.5,0.1-0.6s0-0.1,0-0.1l0,0H4.6c0,0,0-0.1,0-0.2c0,0,0.1,0,0.1-0.1c0,0,0,0,0.1,0c0,0,0,0,0-0.1H4.7v-0.1
	c-0.2-0.3-0.1-0.3,0-0.4l0,0l0,0c0,0,0.1-0.1,0.1-0.2c0,0,0,0,0,0.1v0.1l0,0h0.1c0.1,0,0.1-0.1,0.2-0.1l0,0l0,0c0,0,0-0.1,0.1-0.1
	l0,0l0,0c0,0,0,0,0-0.1l0,0c0,0,0-0.1,0.1-0.1l0,0l0,0l0.1-0.1l0,0H5.3l0,0c0,0-0.1-0.1,0-0.2c0,0-0.1,0-0.1-0.1l0,0h0.1
	c0,0,0,0,0.1,0l0,0l0,0l0,0l0,0l0,0l0,0c0,0,0,0,0.1-0.1h0.1c0,0,0-0.1,0.1-0.1c0,0,0,0,0-0.1l0,0l0,0c0,0,0.1-0.1,0-0.1
	C6.2,25.3,6.3,25.3,6.3,25.3"/>
<g>
	<polygon class="st10" points="14.5,23.3 15.6,22.2 16.8,22.9 16.3,21.6 17.4,20.5 16,20.8 15.6,19.5 15.2,21 13.8,21.2 14.9,21.8 	
		"/>
	<polygon class="st10" points="17.5,28.6 16,28.9 15.5,27.5 15,29 13.5,29.3 14.7,30 14.3,31.6 15.5,30.5 16.8,31.2 16.3,29.8 	"/>
	<path class="st10" d="M1.2,31.4L1.8,32c0,0-0.3-1-0.4-1.3c0,0,0,0,0-0.1L1.8,29c0,0-0.3,0.5-0.6,0.9c0-0.3-0.1-0.7-0.1-0.7
		s0,0.5-0.1,1c-0.2,0.3-0.3,0.6-0.3,0.6l0.2,0.3c-0.1,0.7-0.3,2.3-0.3,2.3L1.2,31.4z"/>
	<path class="st10" d="M1.8,36.6c-0.1-0.6-0.2-1.1-0.2-1.1s-0.1,0.9-0.2,1.7c-0.2,0.4-0.5,1-0.5,1s0.2,0.1,0.4,0.2l0,0
		c0,0.6-0.2,2.4-0.2,2.4l0.6-2.3c0.3,0.1,0.6,0.2,0.6,0.2S2.2,38.1,2,37.4l0.6-2C2.5,35.5,2.1,36.1,1.8,36.6z"/>
</g>
</svg>
