<?xml version="1.0" encoding="utf-8"?>
<!-- Generator: Adobe Illustrator 24.1.1, SVG Export Plug-In . SVG Version: 6.00 Build 0)  -->
<svg version="1.1" id="Layer_1" xmlns="http://www.w3.org/2000/svg" xmlns:xlink="http://www.w3.org/1999/xlink" x="0px" y="0px"
	 viewBox="0 0 404 100" style="enable-background:new 0 0 404 100;" xml:space="preserve">
<style type="text/css">
	.st0{fill:#07658D;}
</style>
<g>
	<g>
		<path class="st0" d="M319.6,84.7c0-2-1.3-3-3.9-3c-1.2,0-2.1,0.2-2.8,0.7c-0.7,0.4-1,1-1,1.7c0,0.8,0.4,1.4,1.2,1.7
			c0.8,0.4,1.8,0.6,3,0.7c1.2,0.1,2.4,0.3,3.5,0.5s2.2,0.7,3,1.5c0.8,0.8,1.2,1.9,1.2,3.4c0,1.9-0.7,3.3-2.2,4.4
			c-1.5,1.1-3.5,1.6-6.1,1.6c-2.6,0-4.7-0.6-6.2-1.7c-1.5-1.1-2.2-2.6-2.2-4.6v-0.2h4.4c0,2,1.3,3,4,3c1.2,0,2.2-0.2,2.9-0.7
			s1-1,1-1.7c0-0.6-0.3-1.1-0.9-1.4c-0.6-0.3-1.3-0.5-2.2-0.6c-0.9-0.1-1.9-0.2-2.9-0.4c-1-0.2-2-0.4-2.9-0.7
			c-0.9-0.3-1.6-0.9-2.2-1.7c-0.6-0.8-0.9-1.8-0.9-3.1c0-1.9,0.7-3.3,2.2-4.4c1.5-1.1,3.4-1.6,6-1.6c2.6,0,4.6,0.6,6,1.7
			c1.4,1.1,2.1,2.7,2.1,4.6v0.2H319.6z"/>
		<path class="st0" d="M299.3,97.6v-2.2l-2,1.1c-1.7,0.9-3.4,1.4-5.1,1.4c-1.7,0-3.1-0.5-4.1-1.5c-1.1-1-1.6-2.3-1.6-3.9
			c0-1.9,0.7-3.4,2-4.4c1.3-1,3-1.5,5.1-1.5h5.7v-1.1c0-2.4-1.3-3.7-3.9-3.7c-2.8,0-4.1,1.1-4.1,3.3h-4.3v-0.3c0-2.1,0.8-3.8,2.3-5
			c1.5-1.2,3.6-1.8,6.1-1.8c2.6,0,4.7,0.6,6.1,1.9c1.4,1.3,2.2,3,2.2,5.3v12.3H299.3z M299.3,89.7h-5.1c-2.2,0-3.3,0.8-3.3,2.5
			c0,0.7,0.2,1.2,0.6,1.6c0.4,0.4,1,0.6,1.7,0.6c1,0,2.1-0.3,3.3-0.9l2.8-1.5V89.7z"/>
		<path class="st0" d="M278.3,97.6v-13c0-1.6-0.7-2.4-2-2.4c-0.6,0-1.4,0.3-2.3,0.8l-2.3,1.4v13.2h-4.4v-13c0-1.6-0.7-2.4-2-2.4
			c-0.6,0-1.4,0.2-2.3,0.7l-2.3,1.4v13.2h-4.4V78.5h4.3v2l1.7-1c1.3-0.8,2.7-1.2,4-1.2c2.2,0,3.7,0.9,4.5,2.6l2.1-1.3
			c1.4-0.9,2.9-1.3,4.4-1.3c1.7,0,3,0.5,3.9,1.5c0.9,1,1.4,2.4,1.4,4.3v13.5H278.3z"/>
		<path class="st0" d="M252,91.6c0,1.9-0.8,3.5-2.3,4.6c-1.5,1.2-3.6,1.7-6.1,1.7c-2.5,0-4.6-0.7-6.1-2c-1.6-1.3-2.3-3.1-2.3-5.4V86
			c0-2.4,0.8-4.3,2.4-5.7c1.6-1.4,3.6-2.1,6.1-2.1c2.5,0,4.6,0.7,6.1,2.1c1.5,1.4,2.3,3.3,2.3,5.8v3.4h-12.7v0.9
			c0,1.3,0.4,2.3,1.2,2.9c0.8,0.7,1.8,1,3.1,1c2.8,0,4.1-1,4.1-2.9h4.2V91.6z M247.9,86c0-1.4-0.4-2.4-1.1-3.1
			c-0.8-0.7-1.8-1.1-3.1-1.1c-1.4,0-2.4,0.4-3.2,1.1c-0.8,0.7-1.1,1.8-1.1,3.1v0.5h8.6V86z"/>
		<path class="st0" d="M230.2,97.6c-2.3,0-4.1-0.6-5.4-1.7c-1.3-1.1-1.9-2.8-1.9-4.9v-8.8H220v-3.7h2.9v-5.2h4.5v5.2h5.3v3.7h-5.3
			v8.6c0,1.1,0.3,1.9,0.8,2.3c0.5,0.5,1.3,0.7,2.4,0.7h2.3v3.8H230.2z"/>
		<path class="st0" d="M213.2,84.7c0-2-1.3-3-3.9-3c-1.2,0-2.1,0.2-2.8,0.7c-0.7,0.4-1,1-1,1.7c0,0.8,0.4,1.4,1.2,1.7
			c0.8,0.4,1.8,0.6,3,0.7c1.2,0.1,2.4,0.3,3.5,0.5c1.2,0.2,2.2,0.7,3,1.5c0.8,0.8,1.2,1.9,1.2,3.4c0,1.9-0.7,3.3-2.2,4.4
			c-1.5,1.1-3.5,1.6-6.1,1.6c-2.6,0-4.7-0.6-6.2-1.7c-1.5-1.1-2.2-2.6-2.2-4.6v-0.2h4.4c0,2,1.3,3,4,3c1.2,0,2.2-0.2,2.9-0.7
			c0.7-0.4,1-1,1-1.7c0-0.6-0.3-1.1-0.9-1.4c-0.6-0.3-1.3-0.5-2.2-0.6c-0.9-0.1-1.9-0.2-2.9-0.4c-1-0.2-2-0.4-2.9-0.7
			c-0.9-0.3-1.6-0.9-2.2-1.7c-0.6-0.8-0.9-1.8-0.9-3.1c0-1.9,0.7-3.3,2.2-4.4c1.5-1.1,3.4-1.6,6-1.6c2.6,0,4.6,0.6,6,1.7
			c1.4,1.1,2.1,2.7,2.1,4.6v0.2H213.2z"/>
		<rect x="192.4" y="78.5" class="st0" width="4.5" height="19.2"/>
		<path class="st0" d="M197.2,73.3c0,0.7-0.2,1.2-0.7,1.5c-0.5,0.4-1.1,0.5-1.8,0.5c-0.7,0-1.3-0.2-1.8-0.5
			c-0.5-0.4-0.7-0.9-0.7-1.5v-0.8c0-0.7,0.2-1.2,0.7-1.6c0.5-0.4,1.1-0.5,1.8-0.5c0.8,0,1.4,0.2,1.8,0.5c0.5,0.4,0.7,0.9,0.7,1.6
			V73.3z"/>
		<path class="st0" d="M183,78.8c0-3-1.8-4.5-5.3-4.5c-1.7,0-3,0.3-3.9,1c-0.9,0.7-1.3,1.6-1.3,2.8c0,0.9,0.3,1.6,0.9,2.1
			c0.6,0.5,1.3,0.9,2.2,1.1c0.9,0.2,1.9,0.5,3.1,0.6c1.1,0.2,2.2,0.4,3.3,0.7c1.1,0.3,2.1,0.7,3.1,1.2c0.9,0.5,1.7,1.2,2.2,2.2
			c0.6,1,0.9,2.2,0.9,3.7c0,2.5-0.9,4.5-2.8,6c-1.9,1.5-4.4,2.2-7.7,2.2c-3.3,0-5.9-0.7-7.7-2.1c-1.8-1.4-2.7-3.5-2.7-6.3v-0.3h4.9
			c0,3,1.9,4.5,5.6,4.5c1.7,0,3.1-0.3,4-1c0.9-0.7,1.4-1.6,1.4-2.7c0-0.8-0.3-1.5-0.9-2.1c-0.6-0.5-1.3-0.9-2.2-1.2
			c-0.9-0.2-1.9-0.5-3.1-0.6c-1.1-0.2-2.2-0.4-3.3-0.7c-1.1-0.3-2.1-0.7-3.1-1.2c-0.9-0.5-1.7-1.2-2.2-2.3c-0.6-1-0.9-2.3-0.9-3.7
			c0-2.5,0.9-4.5,2.7-5.9c1.8-1.5,4.3-2.2,7.4-2.2c3.3,0,5.8,0.7,7.6,2.1c1.8,1.4,2.7,3.5,2.7,6.2v0.3H183z"/>
		<path class="st0" d="M153,91.6c0,1.9-0.8,3.5-2.3,4.6c-1.5,1.2-3.6,1.7-6.1,1.7c-2.5,0-4.6-0.7-6.1-2c-1.6-1.3-2.3-3.1-2.3-5.4V86
			c0-2.4,0.8-4.3,2.4-5.7c1.6-1.4,3.6-2.1,6.1-2.1c2.5,0,4.6,0.7,6.1,2.1c1.5,1.4,2.3,3.3,2.3,5.8v3.4h-12.7v0.9
			c0,1.3,0.4,2.3,1.2,2.9c0.8,0.7,1.8,1,3.1,1c2.8,0,4.1-1,4.1-2.9h4.2V91.6z M148.9,86c0-1.4-0.4-2.4-1.1-3.1
			c-0.8-0.7-1.8-1.1-3.1-1.1c-1.4,0-2.4,0.4-3.2,1.1c-0.8,0.7-1.1,1.8-1.1,3.1v0.5h8.6V86z"/>
		<path class="st0" d="M127.6,97.6v-2.1l-2.2,1.2c-1.3,0.8-2.8,1.1-4.3,1.1c-2,0-3.6-0.6-4.8-1.8c-1.2-1.2-1.8-2.8-1.8-4.7v-6.4
			c0-1.9,0.6-3.5,1.9-4.8c1.2-1.2,2.8-1.9,4.8-1.9c1.5,0,2.9,0.4,4.2,1.1l2.2,1.2v-10h4.3v27.1H127.6z M127.6,84.6l-3.1-1.7
			c-0.9-0.5-1.8-0.7-2.7-0.7c-0.9,0-1.7,0.3-2.2,0.9c-0.5,0.6-0.8,1.3-0.8,2.3v5.5c0,1,0.3,1.7,0.8,2.3c0.5,0.6,1.3,0.9,2.2,0.9
			c0.8,0,1.7-0.3,2.7-0.8l3.1-1.7V84.6z"/>
		<path class="st0" d="M403.6,56c0,2.4-0.8,4.3-2.4,5.7s-3.7,2.1-6.3,2.1c-2.6,0-4.7-0.7-6.3-2.1s-2.4-3.3-2.4-5.7v-4.2
			c0-2.4,0.8-4.3,2.4-5.7c1.6-1.4,3.7-2.1,6.3-2.1c2.6,0,4.7,0.7,6.3,2.1c1.6,1.4,2.4,3.3,2.4,5.7V56z M399.4,52.3
			c0-1.4-0.4-2.5-1.2-3.3c-0.8-0.8-1.9-1.2-3.2-1.2c-1.3,0-2.4,0.4-3.2,1.2c-0.8,0.8-1.2,1.9-1.2,3.3v3.3c0,1.4,0.4,2.5,1.2,3.3
			c0.8,0.8,1.9,1.2,3.2,1.2c1.3,0,2.4-0.4,3.2-1.2c0.8-0.8,1.2-1.9,1.2-3.3V52.3z"/>
		<path class="st0" d="M381.4,63.5c-2.3,0-4.1-0.6-5.4-1.7c-1.3-1.1-1.9-2.8-1.9-4.9V48h-2.9v-3.7h2.9v-5.2h4.5v5.2h5.3V48h-5.3v8.6
			c0,1.1,0.3,1.9,0.8,2.3c0.5,0.5,1.3,0.7,2.4,0.7h2.3v3.8H381.4z"/>
		<path class="st0" d="M364.2,63.5V50.9c0-0.8-0.2-1.5-0.7-2c-0.4-0.5-1.1-0.8-1.9-0.8c-0.7,0-1.6,0.3-2.5,0.8l-2.8,1.7v12.9h-4.4
			V44.3h4.4v2.3l2-1.2c1.3-0.8,2.7-1.2,4.3-1.2c1.9,0,3.3,0.6,4.4,1.7c1.1,1.1,1.6,2.6,1.6,4.5v13.2H364.2z"/>
		<path class="st0" d="M347.7,57.4c0,1.9-0.8,3.5-2.3,4.6c-1.5,1.2-3.6,1.7-6.1,1.7c-2.5,0-4.6-0.7-6.1-2c-1.6-1.3-2.3-3.1-2.3-5.4
			v-4.5c0-2.4,0.8-4.3,2.4-5.7c1.6-1.4,3.6-2.1,6.1-2.1c2.5,0,4.6,0.7,6.1,2.1c1.5,1.4,2.3,3.3,2.3,5.8v3.4H335v0.9
			c0,1.3,0.4,2.3,1.2,2.9c0.8,0.7,1.8,1,3.1,1c2.8,0,4.1-1,4.1-2.9h4.2V57.4z M343.6,51.9c0-1.4-0.4-2.4-1.1-3.1
			c-0.8-0.7-1.8-1.1-3.1-1.1c-1.4,0-2.4,0.4-3.2,1.1c-0.8,0.7-1.1,1.8-1.1,3.1v0.5h8.6V51.9z"/>
		<path class="st0" d="M322.3,63.5v-13c0-1.6-0.7-2.4-2-2.4c-0.6,0-1.4,0.3-2.3,0.8l-2.3,1.4v13.2h-4.4v-13c0-1.6-0.7-2.4-2-2.4
			c-0.6,0-1.4,0.2-2.3,0.7l-2.3,1.4v13.2h-4.4V44.3h4.3v2l1.7-1c1.3-0.8,2.7-1.2,4-1.2c2.2,0,3.7,0.9,4.5,2.6l2.1-1.3
			c1.4-0.9,2.9-1.3,4.4-1.3c1.7,0,3,0.5,3.9,1.5c0.9,1,1.4,2.4,1.4,4.3v13.5H322.3z"/>
		<rect x="291" y="44.3" class="st0" width="4.5" height="19.2"/>
		<path class="st0" d="M295.8,39.1c0,0.7-0.2,1.2-0.7,1.5s-1.1,0.5-1.8,0.5c-0.7,0-1.3-0.2-1.8-0.5c-0.5-0.4-0.7-0.9-0.7-1.5v-0.8
			c0-0.7,0.2-1.2,0.7-1.6c0.5-0.4,1.1-0.5,1.8-0.5c0.8,0,1.4,0.2,1.8,0.5s0.7,0.9,0.7,1.6V39.1z"/>
		<polygon class="st0" points="276.5,63.5 269.9,44.3 274.7,44.3 279.1,58.4 283.6,44.3 288.2,44.3 281.5,63.5 		"/>
		<rect x="262.5" y="36.4" class="st0" width="4.5" height="27.1"/>
		<path class="st0" d="M258.3,56c0,2.4-0.8,4.3-2.4,5.7s-3.7,2.1-6.3,2.1c-2.6,0-4.7-0.7-6.3-2.1c-1.6-1.4-2.4-3.3-2.4-5.7v-4.2
			c0-2.4,0.8-4.3,2.4-5.7c1.6-1.4,3.7-2.1,6.3-2.1c2.6,0,4.7,0.7,6.3,2.1c1.6,1.4,2.4,3.3,2.4,5.7V56z M254.1,52.3
			c0-1.4-0.4-2.5-1.2-3.3c-0.8-0.8-1.9-1.2-3.2-1.2c-1.3,0-2.4,0.4-3.2,1.2c-0.8,0.8-1.2,1.9-1.2,3.3v3.3c0,1.4,0.4,2.5,1.2,3.3
			c0.8,0.8,1.9,1.2,3.2,1.2c1.3,0,2.4-0.4,3.2-1.2c0.8-0.8,1.2-1.9,1.2-3.3V52.3z"/>
		<polygon class="st0" points="227.6,63.5 221,44.3 225.8,44.3 230.3,58.4 234.7,44.3 239.3,44.3 232.6,63.5 		"/>
		<path class="st0" d="M214.2,63.5V50.9c0-0.8-0.2-1.5-0.7-2c-0.4-0.5-1.1-0.8-1.9-0.8c-0.7,0-1.6,0.3-2.5,0.8l-2.8,1.7v12.9H202
			V44.3h4.4v2.3l2-1.2c1.3-0.8,2.7-1.2,4.3-1.2c1.9,0,3.3,0.6,4.4,1.7c1.1,1.1,1.6,2.6,1.6,4.5v13.2H214.2z"/>
		<path class="st0" d="M197.7,57.4c0,1.9-0.8,3.5-2.3,4.6c-1.5,1.2-3.6,1.7-6.1,1.7c-2.5,0-4.6-0.7-6.1-2c-1.6-1.3-2.3-3.1-2.3-5.4
			v-4.5c0-2.4,0.8-4.3,2.4-5.7c1.6-1.4,3.6-2.1,6.1-2.1c2.5,0,4.6,0.7,6.1,2.1c1.5,1.4,2.3,3.3,2.3,5.8v3.4H185v0.9
			c0,1.3,0.4,2.3,1.2,2.9c0.8,0.7,1.8,1,3.1,1c2.8,0,4.1-1,4.1-2.9h4.2V57.4z M193.6,51.9c0-1.4-0.4-2.4-1.1-3.1
			c-0.8-0.7-1.8-1.1-3.1-1.1c-1.4,0-2.4,0.4-3.2,1.1c-0.8,0.7-1.1,1.8-1.1,3.1v0.5h8.6V51.9z"/>
		<path class="st0" d="M172.9,50.5c0-2-1.3-3-3.9-3c-1.2,0-2.1,0.2-2.8,0.7c-0.7,0.4-1,1-1,1.7c0,0.8,0.4,1.4,1.2,1.7
			c0.8,0.4,1.8,0.6,3,0.7c1.2,0.1,2.4,0.3,3.5,0.5c1.2,0.2,2.2,0.7,3,1.5c0.8,0.8,1.2,1.9,1.2,3.4c0,1.9-0.7,3.3-2.2,4.4
			c-1.5,1.1-3.5,1.6-6.1,1.6c-2.6,0-4.7-0.6-6.2-1.7c-1.5-1.1-2.2-2.6-2.2-4.6v-0.2h4.4c0,2,1.3,3,4,3c1.2,0,2.2-0.2,2.9-0.7
			c0.7-0.4,1-1,1-1.7c0-0.6-0.3-1.1-0.9-1.4s-1.3-0.5-2.2-0.6c-0.9-0.1-1.9-0.2-2.9-0.4c-1-0.2-2-0.4-2.9-0.7
			c-0.9-0.3-1.6-0.9-2.2-1.7S161,51.2,161,50c0-1.9,0.7-3.3,2.2-4.4c1.5-1.1,3.4-1.6,6-1.6c2.6,0,4.6,0.6,6,1.7
			c1.4,1.1,2.1,2.7,2.1,4.6v0.2H172.9z"/>
		<path class="st0" d="M157.1,57.4c0,1.9-0.8,3.5-2.3,4.6c-1.5,1.2-3.6,1.7-6.1,1.7c-2.5,0-4.6-0.7-6.1-2c-1.6-1.3-2.3-3.1-2.3-5.4
			v-4.5c0-2.4,0.8-4.3,2.4-5.7c1.6-1.4,3.6-2.1,6.1-2.1c2.5,0,4.6,0.7,6.1,2.1c1.5,1.4,2.3,3.3,2.3,5.8v3.4h-12.7v0.9
			c0,1.3,0.4,2.3,1.2,2.9c0.8,0.7,1.8,1,3.1,1c2.8,0,4.1-1,4.1-2.9h4.2V57.4z M153,51.9c0-1.4-0.4-2.4-1.1-3.1
			c-0.8-0.7-1.8-1.1-3.1-1.1c-1.4,0-2.4,0.4-3.2,1.1c-0.8,0.7-1.1,1.8-1.1,3.1v0.5h8.6V51.9z"/>
		<path class="st0" d="M115.2,63.5V36.4h9.2c3.5,0,6.3,0.9,8.6,2.8c2.2,1.9,3.3,4.8,3.3,8.8v3.9c0,2-0.3,3.8-1,5.4
			c-0.6,1.5-1.5,2.8-2.7,3.6s-2.4,1.5-3.8,2c-1.4,0.4-2.9,0.6-4.6,0.6H115.2z M131.4,48c0-4.9-2.3-7.4-7-7.4h-4.3v18.6h4.3
			c4.7,0,7-2.4,7-7.3V48z"/>
		<path class="st0" d="M269.1,23.2c0,1.9-0.8,3.5-2.3,4.6c-1.5,1.2-3.6,1.7-6.1,1.7c-2.5,0-4.6-0.7-6.1-2c-1.6-1.3-2.3-3.1-2.3-5.4
			v-4.5c0-2.4,0.8-4.3,2.4-5.7c1.6-1.4,3.6-2.1,6.1-2.1c2.5,0,4.6,0.7,6.1,2.1c1.5,1.4,2.3,3.3,2.3,5.8v3.4h-12.7v0.9
			c0,1.3,0.4,2.3,1.2,2.9c0.8,0.7,1.8,1,3.1,1c2.8,0,4.1-1,4.1-2.9h4.2V23.2z M265,17.7c0-1.4-0.4-2.4-1.1-3.1
			c-0.8-0.7-1.8-1.1-3.1-1.1c-1.4,0-2.4,0.4-3.2,1.1c-0.8,0.7-1.1,1.8-1.1,3.1v0.5h8.6V17.7z"/>
		<path class="st0" d="M238,23.2c0,1.9-0.8,3.5-2.3,4.6c-1.5,1.2-3.6,1.7-6.1,1.7c-2.5,0-4.6-0.7-6.1-2c-1.6-1.3-2.3-3.1-2.3-5.4
			v-4.5c0-2.4,0.8-4.3,2.4-5.7c1.6-1.4,3.6-2.1,6.1-2.1c2.5,0,4.6,0.7,6.1,2.1c1.5,1.4,2.3,3.3,2.3,5.8v3.4h-12.7v0.9
			c0,1.3,0.4,2.3,1.2,2.9c0.8,0.7,1.8,1,3.1,1c2.8,0,4.1-1,4.1-2.9h4.2V23.2z M233.9,17.7c0-1.4-0.4-2.4-1.1-3.1
			c-0.8-0.7-1.8-1.1-3.1-1.1c-1.4,0-2.4,0.4-3.2,1.1c-0.8,0.7-1.1,1.8-1.1,3.1v0.5h8.6V17.7z"/>
		<path class="st0" d="M213.2,16.3c0-2-1.3-3-3.9-3c-1.2,0-2.1,0.2-2.8,0.7c-0.7,0.4-1,1-1,1.7c0,0.8,0.4,1.4,1.2,1.7
			c0.8,0.4,1.8,0.6,3,0.7c1.2,0.1,2.4,0.3,3.5,0.5c1.2,0.2,2.2,0.7,3,1.5c0.8,0.8,1.2,1.9,1.2,3.4c0,1.9-0.7,3.3-2.2,4.4
			c-1.5,1.1-3.5,1.6-6.1,1.6c-2.6,0-4.7-0.6-6.2-1.7c-1.5-1.1-2.2-2.6-2.2-4.6v-0.2h4.4c0,2,1.3,3,4,3c1.2,0,2.2-0.2,2.9-0.7
			c0.7-0.4,1-1,1-1.7c0-0.6-0.3-1.1-0.9-1.4c-0.6-0.3-1.3-0.5-2.2-0.6c-0.9-0.1-1.9-0.2-2.9-0.4c-1-0.2-2-0.4-2.9-0.7
			c-0.9-0.3-1.6-0.9-2.2-1.7c-0.6-0.8-0.9-1.8-0.9-3.1c0-1.9,0.7-3.3,2.2-4.4c1.5-1.1,3.4-1.6,6-1.6c2.6,0,4.6,0.6,6,1.7
			s2.1,2.7,2.1,4.6v0.2H213.2z"/>
		<rect x="192.4" y="10.1" class="st0" width="4.5" height="19.2"/>
		<path class="st0" d="M197.2,4.9c0,0.7-0.2,1.2-0.7,1.5S195.4,7,194.7,7c-0.7,0-1.3-0.2-1.8-0.5c-0.5-0.4-0.7-0.9-0.7-1.5V4.1
			c0-0.7,0.2-1.2,0.7-1.6c0.5-0.4,1.1-0.5,1.8-0.5c0.8,0,1.4,0.2,1.8,0.5s0.7,0.9,0.7,1.6V4.9z"/>
		<rect x="183.2" y="2.2" class="st0" width="4.5" height="27.1"/>
		<path class="st0" d="M174.5,29.3v-2.2l-2,1.1c-1.7,0.9-3.4,1.4-5.1,1.4c-1.7,0-3.1-0.5-4.1-1.5c-1.1-1-1.6-2.3-1.6-3.9
			c0-1.9,0.7-3.4,2-4.4c1.3-1,3-1.5,5.1-1.5h5.7v-1.1c0-2.4-1.3-3.7-3.9-3.7c-2.8,0-4.1,1.1-4.1,3.3h-4.3v-0.3c0-2.1,0.8-3.8,2.3-5
			c1.5-1.2,3.6-1.8,6.1-1.8c2.6,0,4.7,0.6,6.1,1.9s2.2,3,2.2,5.3v12.3H174.5z M174.5,21.4h-5.1c-2.2,0-3.3,0.8-3.3,2.5
			c0,0.7,0.2,1.2,0.6,1.6c0.4,0.4,1,0.6,1.7,0.6c1,0,2.1-0.3,3.3-0.9l2.8-1.5V21.4z"/>
		<polygon class="st0" points="167.6,7.5 171.5,2.2 177.1,2.2 172.4,7.5 		"/>
		<path class="st0" d="M153.6,29.3V16.7c0-0.8-0.2-1.5-0.7-2c-0.4-0.5-1.1-0.8-1.9-0.8c-0.7,0-1.6,0.3-2.5,0.8l-2.8,1.7v12.9h-4.4
			V10.1h4.4v2.3l2-1.2c1.3-0.8,2.7-1.2,4.3-1.2c1.9,0,3.3,0.6,4.4,1.7c1.1,1.1,1.6,2.6,1.6,4.5v13.2H153.6z"/>
		<path class="st0" d="M132.9,29.3l-1.7-5.1h-10.7l-1.7,5.1h-5.2l9.4-27.1h6l9.4,27.1H132.9z M125.8,7.4L121.6,20h8.5L125.8,7.4z"/>
	</g>
	<g>
		<path class="st0" d="M57.7,92.3c0,2.1-1.7,3.8-3.8,3.8h-7.7c-2.1,0-3.8-1.7-3.8-3.8H0c0,4.2,3.4,7.7,7.7,7.7h84.6
			c4.2,0,7.7-3.4,7.7-7.7H57.7z"/>
		<path class="st0" d="M65.4,30.8H7.7c-2.1,0-3.8,1.7-3.8,3.8v53.8h3.8V36.5c0-1.1,0.9-1.9,1.9-1.9h55.8V30.8z"/>
		<rect x="92.3" y="38.5" class="st0" width="3.8" height="50"/>
		<path class="st0" d="M30.8,53.8v3.8c0,2.1-1.7,3.8-3.8,3.8v3.8c2.1,0,3.8,1.7,3.8,3.8v3.8c0,4.3,3.4,7.7,7.7,7.7h3.8v-3.8h-3.8
			c-2.1,0-3.8-1.7-3.8-3.8v-3.8c0-2.3-1-4.4-2.6-5.8c1.6-1.4,2.6-3.5,2.6-5.8v-3.8c0-2.1,1.7-3.8,3.8-3.8h3.8v-3.8h-3.8
			C34.2,46.2,30.8,49.6,30.8,53.8z"/>
		<path class="st0" d="M73.1,61.5c-2.1,0-3.8-1.7-3.8-3.8v-3.8c0-4.3-3.4-7.7-7.7-7.7h-3.8V50h3.8c2.1,0,3.8,1.7,3.8,3.8v3.8
			c0,2.3,1,4.4,2.6,5.8c-1.6,1.4-2.6,3.5-2.6,5.8v3.8c0,2.1-1.7,3.8-3.8,3.8h-3.8v3.8h3.8c4.3,0,7.7-3.4,7.7-7.7v-3.8
			c0-2.1,1.7-3.8,3.8-3.8L73.1,61.5L73.1,61.5z"/>
		<path class="st0" d="M71.2,26.9h9.6c1.1,0,1.9,0.9,1.9,1.9v7.7c0,1.1-0.9,1.9-1.9,1.9h-9.6c-1.1,0-1.9-0.9-1.9-1.9v-7.7
			C69.2,27.8,70.1,26.9,71.2,26.9z M71.2,29.8v5.8c0,0.5,0.4,1,1,1h7.7c0.5,0,1-0.4,1-1v-5.8c0-0.5-0.4-1-1-1h-7.7
			C71.6,28.8,71.2,29.3,71.2,29.8z"/>
		<path class="st0" d="M94.6,34.6h-6.5c-0.8,0-1.5-0.7-1.5-1.5v-4.6c0-0.8,0.7-1.5,1.5-1.5h6.5c0.8,0,1.5,0.7,1.5,1.5v4.6
			C96.2,33.9,95.5,34.6,94.6,34.6z M94.4,32.1v-2.7c0-0.5-0.4-1-1-1h-4.2c-0.5,0-1,0.4-1,1v2.7c0,0.5,0.4,1,1,1h4.2
			C94,33.1,94.4,32.6,94.4,32.1z"/>
		<path class="st0" d="M66.3,23.1H54.8c-1.6,0-2.9-1.3-2.9-2.9v-9.6c0-1.6,1.3-2.9,2.9-2.9h11.5c1.6,0,2.9,1.3,2.9,2.9v9.6
			C69.2,21.8,67.9,23.1,66.3,23.1z M66.3,18.7v-6.5c0-0.8-0.7-1.5-1.5-1.5h-8.5c-0.8,0-1.5,0.7-1.5,1.5v6.5c0,0.8,0.7,1.5,1.5,1.5
			h8.5C65.7,20.2,66.3,19.5,66.3,18.7z"/>
		<path class="st0" d="M96.2,23.1H76.9c-2.1,0-3.8-1.7-3.8-3.8V3.8c0-2.1,1.7-3.8,3.8-3.8h19.2c2.1,0,3.8,1.7,3.8,3.8v15.4
			C100,21.4,98.3,23.1,96.2,23.1z M96.6,17.8V5.3c0-1.1-0.9-1.9-1.9-1.9H78.4c-1.1,0-1.9,0.9-1.9,1.9v12.5c0,1.1,0.9,1.9,1.9,1.9
			h16.3C95.8,19.7,96.6,18.9,96.6,17.8z"/>
	</g>
</g>
</svg>
