<?xml version="1.0" encoding="utf-8"?>
<!-- Generator: Adobe Illustrator 23.0.1, SVG Export Plug-In . SVG Version: 6.00 Build 0)  -->
<svg version="1.1" id="Layer_1" xmlns="http://www.w3.org/2000/svg" xmlns:xlink="http://www.w3.org/1999/xlink" x="0px" y="0px"
	 viewBox="0 0 747.02 137.24" style="enable-background:new 0 0 747.02 137.24;" xml:space="preserve">
<style type="text/css">
	.st0{fill:#4A555C;}
	.st1{fill:#B01117;}
</style>
<g>
	<g>
		<g>
			<polygon class="st0" points="16.33,53.15 16.33,90.69 0,90.69 0,0 58.87,0 58.87,14.39 16.33,14.39 16.33,38.76 55.22,38.76 
				55.22,53.15 			"/>
			<path class="st0" d="M306.85,67.29c0,16.09-11.1,24.5-27.8,24.5c-16.58,0-27.66-9.14-27.66-25.11V50.71
				c0-15.97,11.09-25.24,27.66-25.24c16.7,0,27.8,8.53,27.8,24.63v1.1h-14.26c0-9.14-5.01-12.92-13.54-12.92
				c-8.4,0-13.28,4.38-13.28,13.65v13.4c0,9.27,4.88,13.66,13.28,13.66c8.54,0,13.54-3.65,13.54-12.8h14.26V67.29z"/>
			<path class="st0" d="M108.41,90.69v-7.43l-6.7,3.66c-5.97,3.17-10.61,4.64-16.95,4.64c-11.45,0-19.13-7.44-19.13-18.29
				c0-13.41,10.48-19.63,23.78-19.63h19.14v-3.77c0-8.3-4.76-12.32-13.17-12.32c-8.77,0-13.9,3.66-13.9,11.21H67.08v-0.84
				c0-14.51,11.46-22.68,28.16-22.68c17.56,0,27.67,8.77,27.67,24.13v41.33H108.41z M108.41,64.12H91.35
				c-8.9,0-10.98,4.15-10.98,8.41c0,4.51,2.8,7.19,7.68,7.19c4.02,0,7.43-1.22,11.1-3.17l9.26-5V64.12z"/>
			<path class="st0" d="M165.38,90.69c-14.88,0-24.5-7.43-24.5-22.06V39.01h-9.76V26.45h9.76V9.02h15.11v17.43h17.8v12.56h-17.8
				v28.77c0,7.56,3.42,10.12,10.6,10.12h7.57v12.79H165.38z"/>
			<path class="st0" d="M238.54,70.46c0,13.04-11.22,21.33-28.16,21.33c-16.58,0-28.39-9.02-28.39-24.74V51.81
				c0-16.22,11.82-26.33,28.39-26.33c16.71,0,28.28,9.64,28.28,26.58v11.33H196v3.17c0,9.14,6.09,13.17,14.5,13.17
				c8.3,0,13.9-2.93,13.9-9.88h14.14V70.46z M224.76,51.81c0-9.15-5.36-14.14-14.27-14.14c-9.01,0-14.5,4.99-14.5,14.27v1.58h28.76
				V51.81z"/>
		</g>
		<g>
			<polygon class="st1" points="109.54,130.48 109.54,108.29 102.04,108.29 102.04,104.15 121.86,104.15 121.86,108.29 
				114.43,108.29 114.43,130.48 			"/>
			<path class="st1" d="M133.93,130.48v-2.16l-1.95,1.06c-1.73,0.92-3.08,1.34-4.92,1.34c-3.33,0-5.56-2.16-5.56-5.31
				c0-3.89,3.04-5.7,6.9-5.7h5.56v-1.1c0-2.41-1.38-3.57-3.82-3.57c-2.55,0-4.03,1.06-4.03,3.26h-4.18v-0.25
				c0-4.21,3.33-6.58,8.18-6.58c5.1,0,8.04,2.55,8.04,7.01v12H133.93z M133.93,122.77h-4.96c-2.59,0-3.19,1.2-3.19,2.44
				c0,1.31,0.81,2.09,2.23,2.09c1.17,0,2.16-0.35,3.22-0.92l2.69-1.45V122.77z"/>
			<path class="st1" d="M154.71,137v-8.57l-2.12,1.17c-1.45,0.78-2.8,1.1-4.18,1.1c-3.86,0-6.41-2.58-6.41-6.37v-6.26
				c0-3.79,2.62-6.48,6.48-6.48c1.31,0,2.66,0.32,4.11,1.1l2.16,1.17v-2.02h4.18V137H154.71z M154.71,117.81l-2.97-1.66
				c-0.78-0.42-1.63-0.71-2.62-0.71c-1.77,0-2.94,1.21-2.94,3.05v5.31c0,1.84,1.17,3.05,2.94,3.05c0.99,0,1.84-0.28,2.62-0.74
				l2.97-1.63V117.81z"/>
			<path class="st1" d="M175.27,130.48v-2.16l-1.98,1.17c-1.31,0.81-2.65,1.2-4.14,1.2c-3.65,0-5.88-2.44-5.88-6.05v-12.82h4.32
				v12.28c0,1.63,0.96,2.73,2.48,2.73c0.92,0,1.66-0.35,2.44-0.81l2.73-1.59v-12.6h4.28v18.66H175.27z"/>
			<path class="st1" d="M195.69,130.48v-2.16l-1.95,1.06c-1.74,0.92-3.08,1.34-4.92,1.34c-3.33,0-5.56-2.16-5.56-5.31
				c0-3.89,3.04-5.7,6.9-5.7h5.56v-1.1c0-2.41-1.38-3.57-3.82-3.57c-2.55,0-4.04,1.06-4.04,3.26h-4.18v-0.25
				c0-4.21,3.33-6.58,8.18-6.58c5.1,0,8.03,2.55,8.03,7.01v12H195.69z M195.69,122.77h-4.96c-2.58,0-3.19,1.2-3.19,2.44
				c0,1.31,0.81,2.09,2.23,2.09c1.17,0,2.16-0.35,3.22-0.92l2.69-1.45V122.77z"/>
			<path class="st1" d="M204.15,130.48v-18.66h4.28v2.66l0.81-0.82c1.38-1.31,2.76-1.98,4.6-1.98h1.1v4.35h-1.06
				c-1.63,0-2.69,0.32-3.93,1.28l-1.45,1.2v11.96H204.15z"/>
			<path class="st1" d="M222.41,106.8c0,1.31-1.03,2.02-2.44,2.02c-1.38,0-2.44-0.71-2.44-2.02v-0.78c0-1.35,1.06-2.05,2.44-2.05
				c1.42,0,2.44,0.71,2.44,2.05V106.8z M217.78,111.83h4.39v18.66h-4.39V111.83z"/>
			<path class="st1" d="M235.12,130.48c-4.32,0-7.12-2.16-7.12-6.41v-8.6h-2.83v-3.65H228v-5.06h4.39v5.06h5.17v3.65h-5.17v8.35
				c0,2.2,0.99,2.94,3.08,2.94h2.19v3.72H235.12z"/>
			<path class="st1" d="M245.74,106.8c0,1.31-1.03,2.02-2.44,2.02c-1.38,0-2.44-0.71-2.44-2.02v-0.78c0-1.35,1.06-2.05,2.44-2.05
				c1.42,0,2.44,0.71,2.44,2.05V106.8z M241.1,111.83h4.39v18.66h-4.39V111.83z"/>
			<path class="st1" d="M261.95,130.48v-12.25c0-1.42-0.78-2.76-2.48-2.76c-0.95,0-1.66,0.35-2.44,0.81l-2.73,1.63v12.57h-4.28
				v-18.66h4.25v2.2l1.98-1.2c1.41-0.89,2.72-1.17,4.14-1.21c3.65,0,5.88,2.44,5.88,6.05v12.81H261.95z"/>
			<path class="st1" d="M274.33,123.72c-0.85,0-1.27,0.39-1.27,1.24c0,0.74,0.46,1.17,1.2,1.17h7.22c4.32,0,6.69,1.66,6.69,5.13
				c0,3.89-3.5,5.98-8.57,5.98c-5.73,0-8.32-2.59-8.32-7.08v-1.88c-1.17-0.53-1.84-1.59-1.84-3.33c0-2.02,1.06-3.22,2.51-3.61
				c0,0-1.34-1.06-1.34-3.54c0-3.96,2.76-5.98,6.87-5.98h10.8v3.61h-2.66c0,0,0.92,0.74,0.92,2.55c0,3.57-2.62,5.73-6.76,5.73
				H274.33z M279.19,120.61c2.27,0,3.54-0.85,3.54-2.76c0-1.84-1.17-2.73-3.19-2.73h-1.63c-2.02,0-3.26,0.64-3.26,2.8
				c0,1.88,1.17,2.69,3.19,2.69H279.19z M275.11,129.28v0.78c0,2.55,1.06,3.96,4.42,3.96c2.97,0,4.53-0.81,4.53-2.65
				c0-1.59-1.24-2.09-3.19-2.09H275.11z"/>
			<path class="st1" d="M302.86,130.48v-2.16l-1.95,1.06c-1.73,0.92-3.08,1.34-4.92,1.34c-3.33,0-5.56-2.16-5.56-5.31
				c0-3.89,3.04-5.7,6.9-5.7h5.56v-1.1c0-2.41-1.38-3.57-3.82-3.57c-2.55,0-4.04,1.06-4.04,3.26h-4.18v-0.25
				c0-4.21,3.33-6.58,8.18-6.58c5.1,0,8.04,2.55,8.04,7.01v12H302.86z M302.86,122.77h-4.96c-2.58,0-3.19,1.2-3.19,2.44
				c0,1.31,0.81,2.09,2.23,2.09c1.17,0,2.16-0.35,3.22-0.92l2.69-1.45V122.77z"/>
		</g>
	</g>
	<polygon class="st0" points="371.13,68.62 348.26,96.06 348.26,137.24 343.67,137.24 343.67,0 348.26,0 348.26,41.17 	"/>
	<g>
		<path class="st0" d="M440.59,43.24c0,5.73-1.8,10.16-5.39,13.27c-3.6,3.11-8.48,4.66-14.66,4.66c-6,0-10.91-1.68-14.72-5.03
			c-3.81-3.35-5.72-8.42-5.72-15.22v-9.86c0-6.84,1.9-11.94,5.69-15.32c3.79-3.37,8.71-5.06,14.75-5.06c6.17,0,11.06,1.57,14.66,4.7
			c3.59,3.13,5.39,7.56,5.39,13.3v0.79h-9c0-7.32-3.66-10.98-10.98-10.98c-7.72,0-11.58,4.37-11.58,13.1v8.73
			c0,8.73,3.86,13.1,11.58,13.1c3.53,0,6.24-0.92,8.14-2.75c1.9-1.83,2.84-4.58,2.84-8.24h9V43.24z"/>
		<path class="st0" d="M478.24,49.46c0,3.53-1.39,6.34-4.17,8.44c-2.78,2.09-6.48,3.14-11.12,3.14c-4.59,0-8.3-1.19-11.15-3.57
			c-2.85-2.38-4.27-5.67-4.27-9.86v-8.27c0-4.37,1.43-7.84,4.3-10.42c2.87-2.58,6.57-3.87,11.12-3.87c4.63,0,8.35,1.28,11.15,3.84
			c2.8,2.56,4.2,6.09,4.2,10.59v6.15h-23.16v1.72c0,2.38,0.72,4.17,2.15,5.36c1.43,1.19,3.34,1.79,5.72,1.79
			c5.03,0,7.54-1.79,7.54-5.36h7.68V49.46z M470.77,39.33c0-2.47-0.68-4.37-2.05-5.69s-3.26-1.98-5.69-1.98
			c-2.47,0-4.4,0.67-5.79,2.02c-1.39,1.35-2.08,3.25-2.08,5.72v0.86h15.61V39.33z"/>
		<path class="st0" d="M508.22,60.44V37.55c0-1.46-0.4-2.68-1.19-3.67c-0.79-0.99-1.94-1.49-3.44-1.49c-1.32,0-2.84,0.51-4.57,1.52
			l-5.09,3.04v23.49h-8.01V25.57h7.94v4.1l3.71-2.25c2.29-1.41,4.87-2.16,7.74-2.25c3.4,0,6.08,1.04,8.04,3.11
			c1.96,2.07,2.94,4.81,2.94,8.2v23.95H508.22z"/>
		<path class="st0" d="M539.52,60.44c-4.15,0-7.4-1.03-9.76-3.08c-2.36-2.05-3.54-5.02-3.54-8.9V32.39h-5.29v-6.81h5.29v-9.46h8.2
			v9.46h9.66v6.81h-9.66V48c0,1.99,0.46,3.4,1.39,4.23c0.93,0.84,2.38,1.26,4.37,1.26h4.1v6.95H539.52z"/>
		<path class="st0" d="M550.57,60.44V25.57h8.01v4.96l1.52-1.52c2.6-2.47,5.47-3.71,8.6-3.71h2.05v8.14h-1.98
			c-2.82,0-5.27,0.79-7.34,2.38l-2.71,2.25v22.36H550.57z"/>
		<path class="st0" d="M597.81,60.44V56.4l-3.64,1.99c-3.18,1.68-6.24,2.51-9.2,2.51c-3.09,0-5.59-0.92-7.51-2.75
			c-1.92-1.83-2.88-4.22-2.88-7.18c0-3.48,1.2-6.13,3.61-7.94c2.4-1.81,5.5-2.71,9.3-2.71h10.39v-2.05c0-4.46-2.38-6.68-7.15-6.68
			c-5.03,0-7.54,2.03-7.54,6.09h-7.81v-0.46c0-3.88,1.39-6.9,4.17-9.06c2.78-2.16,6.48-3.24,11.12-3.24c4.76,0,8.46,1.15,11.08,3.44
			c2.62,2.29,3.94,5.51,3.94,9.66v22.43H597.81z M597.81,46.01h-9.26c-3.97,0-5.96,1.52-5.96,4.57c0,1.24,0.36,2.19,1.09,2.88
			s1.75,1.03,3.08,1.03c1.85,0,3.86-0.57,6.02-1.72l5.03-2.71V46.01z"/>
		<path class="st0" d="M613.63,60.44V11.21h8.27v49.22H613.63z"/>
		<path class="st1" d="M423.52,125.83v-3.77l-4.04,2.18c-2.43,1.37-5.03,2.05-7.81,2.05c-3.57,0-6.46-1.09-8.67-3.27
			c-2.21-2.18-3.31-5.06-3.31-8.63v-11.71c0-3.53,1.12-6.42,3.37-8.67c2.25-2.25,5.16-3.37,8.73-3.37c2.69,0,5.25,0.68,7.67,2.05
			l3.97,2.18V76.61h7.87v49.22H423.52z M423.46,102.21l-5.56-3.11c-1.63-0.88-3.26-1.32-4.9-1.32c-1.68,0-3.01,0.52-4,1.55
			c-0.99,1.04-1.49,2.42-1.49,4.13v9.92c0,1.76,0.5,3.17,1.49,4.2c0.99,1.04,2.33,1.55,4,1.55c1.54,0,3.18-0.46,4.9-1.39l5.56-3.04
			V102.21z"/>
		<path class="st1" d="M469.64,114.85c0,3.53-1.39,6.34-4.17,8.44c-2.78,2.09-6.48,3.14-11.12,3.14c-4.59,0-8.3-1.19-11.15-3.57
			s-4.27-5.67-4.27-9.86v-8.27c0-4.37,1.43-7.84,4.3-10.42c2.87-2.58,6.57-3.87,11.12-3.87c4.63,0,8.35,1.28,11.15,3.84
			c2.8,2.56,4.2,6.09,4.2,10.59v6.15h-23.16v1.72c0,2.38,0.72,4.17,2.15,5.36c1.43,1.19,3.34,1.79,5.72,1.79
			c5.03,0,7.54-1.79,7.54-5.36h7.67V114.85z M462.17,104.73c0-2.47-0.68-4.37-2.05-5.69s-3.26-1.98-5.69-1.98
			c-2.47,0-4.4,0.67-5.79,2.02c-1.39,1.35-2.08,3.25-2.08,5.72v0.86h15.61V104.73z"/>
		<path class="st1" d="M524.63,125.83l-19.65-37.45v37.45h-8.27V76.61h12.11l19.45,37.51V76.61h8.27v49.22H524.63z"/>
		<path class="st1" d="M576.11,112.34c0,4.32-1.46,7.77-4.37,10.35c-2.91,2.58-6.7,3.87-11.38,3.87c-4.68,0-8.47-1.29-11.38-3.87
			c-2.91-2.58-4.37-6.03-4.37-10.35v-7.61c0-4.37,1.46-7.84,4.37-10.42c2.91-2.58,6.71-3.87,11.38-3.87c4.67,0,8.47,1.29,11.38,3.87
			c2.91,2.58,4.37,6.05,4.37,10.42V112.34z M568.43,105.52c0-2.56-0.74-4.55-2.22-5.99s-3.43-2.15-5.85-2.15
			c-2.43,0-4.38,0.72-5.86,2.15s-2.22,3.43-2.22,5.99v6.02c0,2.56,0.74,4.55,2.22,5.99s3.43,2.15,5.86,2.15
			c2.43,0,4.38-0.72,5.85-2.15s2.22-3.43,2.22-5.99V105.52z"/>
		<path class="st1" d="M598.8,125.83c-4.15,0-7.4-1.03-9.76-3.08c-2.36-2.05-3.54-5.02-3.54-8.9V97.78h-5.29v-6.81h5.29V81.5h8.2
			v9.46h9.66v6.81h-9.66v15.61c0,1.99,0.46,3.4,1.39,4.23c0.93,0.84,2.38,1.26,4.37,1.26h4.1v6.95H598.8z"/>
		<path class="st1" d="M608.13,86.27l7.15-9.66h10.19l-8.54,9.66H608.13z M609.99,125.83V90.97h8.2v34.87H609.99z"/>
		<path class="st1" d="M656.04,113.13c0,4.28-1.36,7.56-4.07,9.86c-2.71,2.29-6.38,3.44-11.02,3.44c-4.59,0-8.24-1.2-10.95-3.61
			c-2.71-2.4-4.07-5.75-4.07-10.02v-8.67c0-4.28,1.37-7.63,4.1-10.06c2.74-2.43,6.37-3.64,10.92-3.64c4.63,0,8.3,1.16,11.02,3.47
			c2.71,2.32,4.07,5.61,4.07,9.89v0.6h-7.74c0-4.68-2.45-7.01-7.34-7.01c-4.81,0-7.21,2.47-7.21,7.41v7.28
			c0,4.94,2.4,7.41,7.21,7.41c4.9,0,7.34-2.32,7.34-6.95h7.74V113.13z"/>
		<path class="st1" d="M672.18,81.57c0,1.19-0.42,2.12-1.26,2.78c-0.84,0.66-1.94,0.99-3.31,0.99c-1.32,0-2.42-0.33-3.27-0.99
			c-0.86-0.66-1.29-1.59-1.29-2.78v-1.46c0-1.24,0.43-2.18,1.29-2.84c0.86-0.66,1.95-0.99,3.27-0.99c1.37,0,2.47,0.33,3.31,0.99
			c0.84,0.66,1.26,1.61,1.26,2.84V81.57z M663.52,125.83V90.97h8.2v34.87H663.52z"/>
		<path class="st1" d="M702.09,125.83v-4.04l-3.64,1.99c-3.18,1.68-6.24,2.51-9.2,2.51c-3.09,0-5.59-0.92-7.51-2.75
			c-1.92-1.83-2.88-4.22-2.88-7.18c0-3.48,1.2-6.13,3.61-7.94c2.4-1.81,5.5-2.71,9.29-2.71h10.39v-2.05c0-4.46-2.38-6.68-7.15-6.68
			c-5.03,0-7.54,2.03-7.54,6.09h-7.81v-0.46c0-3.88,1.39-6.9,4.17-9.06c2.78-2.16,6.48-3.24,11.12-3.24c4.76,0,8.46,1.15,11.08,3.44
			c2.62,2.29,3.94,5.51,3.94,9.66v22.43H702.09z M702.09,111.41h-9.26c-3.97,0-5.95,1.52-5.95,4.57c0,1.24,0.36,2.19,1.09,2.88
			s1.75,1.03,3.08,1.03c1.85,0,3.86-0.57,6.02-1.72l5.03-2.71V111.41z"/>
		<path class="st1" d="M739.01,102.28c0-3.62-2.36-5.42-7.08-5.42c-2.16,0-3.84,0.4-5.03,1.19c-1.19,0.79-1.79,1.83-1.79,3.11
			c0,1.46,0.75,2.5,2.25,3.14c1.5,0.64,3.32,1.07,5.46,1.29c2.14,0.22,4.29,0.54,6.45,0.96c2.16,0.42,3.99,1.36,5.49,2.81
			c1.5,1.46,2.25,3.51,2.25,6.15c0,3.4-1.36,6.05-4.07,7.97c-2.71,1.92-6.38,2.88-11.02,2.88c-4.81,0-8.55-1-11.21-3.01
			c-2.67-2.01-4-4.8-4-8.37v-0.4h8.07c0,3.62,2.43,5.43,7.28,5.43c2.25,0,4-0.4,5.26-1.19c1.26-0.79,1.89-1.83,1.89-3.11
			c0-1.1-0.54-1.96-1.62-2.58c-1.08-0.62-2.44-0.99-4.07-1.13c-1.63-0.13-3.38-0.38-5.26-0.73c-1.87-0.35-3.63-0.8-5.26-1.36
			c-1.63-0.55-2.99-1.55-4.07-3.01c-1.08-1.46-1.62-3.31-1.62-5.56c0-3.4,1.32-6.06,3.97-8c2.65-1.94,6.26-2.91,10.85-2.91
			c4.72,0,8.36,1.01,10.92,3.04c2.56,2.03,3.84,4.83,3.84,8.4v0.4H739.01z"/>
	</g>
</g>
</svg>
