<?xml version="1.0" encoding="utf-8"?>
<!-- Generator: Adobe Illustrator 23.0.1, SVG Export Plug-In . SVG Version: 6.00 Build 0)  -->
<svg version="1.1" id="Layer_1" xmlns="http://www.w3.org/2000/svg" xmlns:xlink="http://www.w3.org/1999/xlink" x="0px" y="0px"
	 viewBox="0 0 702.5 800" style="enable-background:new 0 0 702.5 800;" xml:space="preserve">
<style type="text/css">
	.st0{fill:#12120D;}
	.st1{fill:#E6000E;}
</style>
<g>
	<path class="st0" d="M429.3,416.4h-10.9c-2.3,0-4.4,1.4-5.3,3.6l-3.9,9.7c-0.9,2.1-0.4,4.6,1.3,6.2l7.6,7.6c2.2,2.2,2.2,5.9,0,8.1
		l-15.1,15.1c-2.2,2.2-5.9,2.2-8.1,0l-7.7-7.7c-1.7-1.7-4.1-2.1-6.3-1.2l-9.6,4.1c-2.1,0.9-3.5,3-3.5,5.3V478c0,3.2-2.6,5.7-5.7,5.7
		h-21.4c-3.2,0-5.7-2.6-5.7-5.7v-10.9c0-2.3-1.4-4.4-3.6-5.3l-9.7-3.9c-2.1-0.9-4.6-0.4-6.2,1.3l-7.6,7.6c-2.2,2.2-5.9,2.2-8.1,0
		l-15.1-15.1c-2.2-2.2-2.2-5.9,0-8.1l7.7-7.7c1.7-1.7,2.1-4.1,1.2-6.3l-4.1-9.6c-0.9-2.1-3-3.5-5.3-3.5h-10.8
		c-3.2,0-5.7-2.6-5.7-5.7v-21.4c0-3.2,2.6-5.7,5.7-5.7h10.9c2.3,0,4.4-1.4,5.3-3.6l3.9-9.7c0.9-2.1,0.4-4.6-1.3-6.2l-7.6-7.6
		c-2.2-2.2-2.2-5.9,0-8.1l15.1-15.1c2.2-2.2,5.9-2.2,8.1,0l7.7,7.7c1.7,1.7,4.1,2.1,6.3,1.2l9.6-4.1c2.1-0.9,3.5-3,3.5-5.3V322
		c0-3.2,2.6-5.7,5.7-5.7H362c3.2,0,5.7,2.6,5.7,5.7v10.9c0,2.3,1.4,4.4,3.6,5.3l9.7,3.9c2.1,0.9,4.6,0.4,6.2-1.3l7.6-7.6
		c2.2-2.2,5.9-2.2,8.1,0l15.1,15.1c2.2,2.2,2.2,5.9,0,8.1l-7.7,7.7c-1.7,1.7-2.1,4.1-1.2,6.3l4.1,9.6c0.9,2.1,3,3.5,5.3,3.5h10.8
		c3.2,0,5.7,2.6,5.7,5.7v21.4C435,413.9,432.4,416.4,429.3,416.4z M351.3,369c-17.1,0-31,13.9-31,31s13.9,31,31,31
		c17.1,0,31-13.9,31-31S368.4,369,351.3,369z"/>
	<path class="st0" d="M351.3,800c-31,0-59.5-42.4-80.3-119.4c-20.2-75-31.4-174.7-31.4-280.6s11.1-205.6,31.4-280.6
		C291.8,42.4,320.3,0,351.3,0s59.5,42.4,80.3,119.4c20.2,75,31.4,174.7,31.4,280.6c0,68.1-4.7,135.3-13.7,194.3l-10-1.5
		c8.9-58.5,13.6-125.2,13.6-192.8c0-105.1-11-203.8-31-277.9c-19.2-71.1-44.9-111.9-70.5-111.9c-25.6,0-51.3,40.8-70.5,111.9
		c-20,74.2-31,172.9-31,277.9s11,203.8,31,277.9c19.2,71.1,44.9,111.9,70.5,111.9c23.3,0,47.3-34.9,65.9-95.8l9.7,2.9
		C406.3,764.4,380.2,800,351.3,800z"/>
	<path class="st0" d="M638.4,623c-22.7,0-51.1-4.4-84.2-13.2c-75.1-20-167-60.1-258.7-113.1c-58.9-34-114.6-71.6-161.2-108.8
		l6.3-7.9c46.2,36.9,101.5,74.2,159.9,108c91,52.5,182,92.3,256.2,112.1C628,619,676.2,617.1,689,594.9c12.8-22.2-9.7-64.8-61.7-117
		C573,423.5,493.1,364.6,402.1,312.1s-182-92.3-256.2-112.1C74.6,181,26.4,182.9,13.6,205.1C2,225.3,20.3,263.6,63.9,310.2l-7.4,6.9
		C8.2,265.6-9.6,225.1,4.9,200c15.5-26.8,66.5-30.3,143.5-9.8c75.1,20,167,60.1,258.7,113.1c91.7,53,172.5,112.4,227.3,167.5
		c56.3,56.5,78.8,102.4,63.3,129.2C688.9,615.3,668.5,623,638.4,623z"/>
	<path class="st0" d="M64.2,623c-30.2,0-50.5-7.7-59.3-23c-15.5-26.8,7-72.7,63.3-129.2c54.8-55,135.6-114.5,227.3-167.5
		c60.3-34.8,122.1-64.8,178.7-86.7l3.6,9.4c-56.1,21.7-117.4,51.4-177.3,86c-91,52.5-171,111.4-225.2,165.9
		c-52,52.2-74.5,94.8-61.7,117c12.8,22.2,61,24,132.2,5.1c74.2-19.8,165.2-59.6,256.2-112.1c91-52.5,171-111.4,225.2-165.9
		c52-52.2,74.5-94.8,61.7-117c-11.4-19.8-52.3-23.4-112.2-10l-2.2-9.9c66.4-14.9,109-9.7,123.1,14.8c15.5,26.8-7,72.7-63.3,129.2
		c-54.8,55-135.6,114.5-227.3,167.5c-91.7,53-183.6,93.1-258.7,113.1C115.3,618.6,87,623,64.2,623z"/>
	<g>
		<path class="st1" d="M139.9,356.9h-4.6c-1.3,0-2.4,0.9-2.8,2.1l-0.2,0.9c-0.3,1.3,0.2,2.6,1.3,3.2l4,2.3c1.4,0.8,1.8,2.5,1,3.9
			l-3.9,6.7c-0.8,1.4-2.5,1.8-3.9,1l-4-2.3c-1.1-0.6-2.5-0.5-3.5,0.5l-0.7,0.7c-0.9,0.9-1.1,2.3-0.5,3.5l2.3,4
			c0.8,1.4,0.3,3.1-1,3.9l-6.7,3.9c-1.4,0.8-3.1,0.3-3.9-1l-2.3-4c-0.6-1.1-2-1.7-3.2-1.3l-0.9,0.2c-1.3,0.3-2.1,1.5-2.1,2.8v4.6
			c0,1.6-1.3,2.9-2.9,2.9h-7.8c-1.6,0-2.9-1.3-2.9-2.9v-4.6c0-1.3-0.9-2.4-2.1-2.8l-0.9-0.2c-1.3-0.3-2.6,0.2-3.2,1.3l-2.3,4
			c-0.8,1.4-2.5,1.8-3.9,1l-6.7-3.9c-1.4-0.8-1.8-2.5-1-3.9l2.3-4c0.6-1.1,0.5-2.5-0.5-3.5l-0.7-0.7c-0.9-0.9-2.3-1.1-3.5-0.5
			l-4,2.3c-1.4,0.8-3.1,0.3-3.9-1l-3.9-6.7c-0.8-1.4-0.3-3.1,1-3.9l4-2.3c1.1-0.6,1.7-2,1.3-3.2l-0.2-0.9c-0.3-1.3-1.5-2.1-2.8-2.1
			h-4.6c-1.6,0-2.9-1.3-2.9-2.9v-7.8c0-1.6,1.3-2.9,2.9-2.9h4.6c1.3,0,2.4-0.9,2.8-2.1l0.2-0.9c0.3-1.3-0.2-2.6-1.3-3.2l-4-2.3
			c-1.4-0.8-1.8-2.5-1-3.9l3.9-6.7c0.8-1.4,2.5-1.8,3.9-1l4,2.3c1.1,0.6,2.5,0.5,3.5-0.5l0.7-0.7c0.9-0.9,1.1-2.3,0.5-3.5l-2.3-4
			c-0.8-1.4-0.3-3.1,1-3.9l6.7-3.9c1.4-0.8,3.1-0.3,3.9,1l2.3,4c0.6,1.1,2,1.7,3.2,1.3l0.9-0.2c1.3-0.3,2.1-1.5,2.1-2.8v-4.6
			c0-1.6,1.3-2.9,2.9-2.9h7.8c1.6,0,2.9,1.3,2.9,2.9v4.6c0,1.3,0.9,2.4,2.1,2.8l0.9,0.2c1.3,0.3,2.6-0.2,3.2-1.3l2.3-4
			c0.8-1.4,2.5-1.8,3.9-1l6.7,3.9c1.4,0.8,1.8,2.5,1,3.9l-2.3,4c-0.6,1.1-0.5,2.5,0.5,3.5l0.7,0.7c0.9,0.9,2.3,1.1,3.5,0.5l4-2.3
			c1.4-0.8,3.1-0.3,3.9,1l3.9,6.7c0.8,1.4,0.3,3.1-1,3.9l-4,2.3c-1.1,0.6-1.7,2-1.3,3.2l0.2,0.9c0.3,1.3,1.5,2.1,2.8,2.1h4.6
			c1.6,0,2.9,1.3,2.9,2.9v7.8C142.7,355.6,141.4,356.9,139.9,356.9z M97.6,326.6c-13,0-23.6,10.6-23.6,23.6s10.6,23.6,23.6,23.6
			s23.6-10.6,23.6-23.6S110.6,326.6,97.6,326.6z"/>
		<circle class="st0" cx="97.6" cy="350.2" r="9.6"/>
	</g>
	<g>
		<path class="st1" d="M477.3,651.7h-4.6c-1.3,0-2.4,0.9-2.8,2.1l-0.2,0.9c-0.3,1.3,0.2,2.6,1.3,3.2l4,2.3c1.4,0.8,1.8,2.5,1,3.9
			l-3.9,6.7c-0.8,1.4-2.5,1.8-3.9,1l-4-2.3c-1.1-0.6-2.5-0.5-3.5,0.5l-0.7,0.7c-0.9,0.9-1.1,2.3-0.5,3.5l2.3,4
			c0.8,1.4,0.3,3.1-1,3.9l-6.7,3.9c-1.4,0.8-3.1,0.3-3.9-1l-2.3-4c-0.6-1.1-2-1.7-3.2-1.3l-0.9,0.2c-1.3,0.3-2.1,1.5-2.1,2.8v4.6
			c0,1.6-1.3,2.9-2.9,2.9h-7.8c-1.6,0-2.9-1.3-2.9-2.9v-4.6c0-1.3-0.9-2.4-2.1-2.8l-0.9-0.2c-1.3-0.3-2.6,0.2-3.2,1.3l-2.3,4
			c-0.8,1.4-2.5,1.8-3.9,1l-6.7-3.9c-1.4-0.8-1.8-2.5-1-3.9l2.3-4c0.6-1.1,0.5-2.5-0.5-3.5l-0.7-0.7c-0.9-0.9-2.3-1.1-3.5-0.5
			l-4,2.3c-1.4,0.8-3.1,0.3-3.9-1l-3.9-6.7c-0.8-1.4-0.3-3.1,1-3.9l4-2.3c1.1-0.6,1.7-2,1.3-3.2l-0.2-0.9c-0.3-1.3-1.5-2.1-2.8-2.1
			h-4.6c-1.6,0-2.9-1.3-2.9-2.9V641c0-1.6,1.3-2.9,2.9-2.9h4.6c1.3,0,2.4-0.9,2.8-2.1l0.2-0.9c0.3-1.3-0.2-2.6-1.3-3.2l-4-2.3
			c-1.4-0.8-1.8-2.5-1-3.9l3.9-6.7c0.8-1.4,2.5-1.8,3.9-1l4,2.3c1.1,0.6,2.5,0.5,3.5-0.5l0.7-0.7c0.9-0.9,1.1-2.3,0.5-3.5l-2.3-4
			c-0.8-1.4-0.3-3.1,1-3.9l6.7-3.9c1.4-0.8,3.1-0.3,3.9,1l2.3,4c0.6,1.1,2,1.7,3.2,1.3l0.9-0.2c1.3-0.3,2.1-1.5,2.1-2.8v-4.6
			c0-1.6,1.3-2.9,2.9-2.9h7.8c1.6,0,2.9,1.3,2.9,2.9v4.6c0,1.3,0.9,2.4,2.1,2.8l0.9,0.2c1.3,0.3,2.6-0.2,3.2-1.3l2.3-4
			c0.8-1.4,2.5-1.8,3.9-1l6.7,3.9c1.4,0.8,1.8,2.5,1,3.9l-2.3,4c-0.6,1.1-0.5,2.5,0.5,3.5l0.7,0.7c0.9,0.9,2.3,1.1,3.5,0.5l4-2.3
			c1.4-0.8,3.1-0.3,3.9,1l3.9,6.7c0.8,1.4,0.3,3.1-1,3.9l-4,2.3c-1.1,0.6-1.7,2-1.3,3.2l0.2,0.9c0.3,1.3,1.5,2.1,2.8,2.1h4.6
			c1.6,0,2.9,1.3,2.9,2.9v7.8C480.1,650.4,478.8,651.7,477.3,651.7z M435,621.4c-13,0-23.6,10.6-23.6,23.6s10.6,23.6,23.6,23.6
			s23.6-10.6,23.6-23.6S448,621.4,435,621.4z"/>
		<circle class="st0" cx="435" cy="645" r="9.6"/>
	</g>
	<g>
		<path class="st1" d="M567.5,210.6h-4.6c-1.3,0-2.4,0.9-2.8,2.1l-0.2,0.9c-0.3,1.3,0.2,2.6,1.3,3.2l4,2.3c1.4,0.8,1.8,2.5,1,3.9
			l-3.9,6.7c-0.8,1.4-2.5,1.8-3.9,1l-4-2.3c-1.1-0.6-2.5-0.5-3.5,0.5l-0.7,0.7c-0.9,0.9-1.1,2.3-0.5,3.5l2.3,4
			c0.8,1.4,0.3,3.1-1,3.9l-6.7,3.9c-1.4,0.8-3.1,0.3-3.9-1l-2.3-4c-0.6-1.1-2-1.7-3.2-1.3l-0.9,0.2c-1.3,0.3-2.1,1.5-2.1,2.8v4.6
			c0,1.6-1.3,2.9-2.9,2.9h-7.8c-1.6,0-2.9-1.3-2.9-2.9v-4.6c0-1.3-0.9-2.4-2.1-2.8l-0.9-0.2c-1.3-0.3-2.6,0.2-3.2,1.3l-2.3,4
			c-0.8,1.4-2.5,1.8-3.9,1l-6.7-3.9c-1.4-0.8-1.8-2.5-1-3.9l2.3-4c0.6-1.1,0.5-2.5-0.5-3.5l-0.7-0.7c-0.9-0.9-2.3-1.1-3.5-0.5
			l-4,2.3c-1.4,0.8-3.1,0.3-3.9-1l-3.9-6.7c-0.8-1.4-0.3-3.1,1-3.9l4-2.3c1.1-0.6,1.7-2,1.3-3.2l-0.2-0.9c-0.3-1.3-1.5-2.1-2.8-2.1
			H483c-1.6,0-2.9-1.3-2.9-2.9V200c0-1.6,1.3-2.9,2.9-2.9h4.6c1.3,0,2.4-0.9,2.8-2.1l0.2-0.9c0.3-1.3-0.2-2.6-1.3-3.2l-4-2.3
			c-1.4-0.8-1.8-2.5-1-3.9l3.9-6.7c0.8-1.4,2.5-1.8,3.9-1l4,2.3c1.1,0.6,2.5,0.5,3.5-0.5l0.7-0.7c0.9-0.9,1.1-2.3,0.5-3.5l-2.3-4
			c-0.8-1.4-0.3-3.1,1-3.9l6.7-3.9c1.4-0.8,3.1-0.3,3.9,1l2.3,4c0.6,1.1,2,1.7,3.2,1.3l0.9-0.2c1.3-0.3,2.1-1.5,2.1-2.8v-4.6
			c0-1.6,1.3-2.9,2.9-2.9h7.8c1.6,0,2.9,1.3,2.9,2.9v4.6c0,1.3,0.9,2.4,2.1,2.8l0.9,0.2c1.3,0.3,2.6-0.2,3.2-1.3l2.3-4
			c0.8-1.4,2.5-1.8,3.9-1l6.7,3.9c1.4,0.8,1.8,2.5,1,3.9l-2.3,4c-0.6,1.1-0.5,2.5,0.5,3.5l0.7,0.7c0.9,0.9,2.3,1.1,3.5,0.5l4-2.3
			c1.4-0.8,3.1-0.3,3.9,1l3.9,6.7c0.8,1.4,0.3,3.1-1,3.9l-4,2.3c-1.1,0.6-1.7,2-1.3,3.2l0.2,0.9c0.3,1.3,1.5,2.1,2.8,2.1h4.6
			c1.6,0,2.9,1.3,2.9,2.9v7.8C570.4,209.4,569.1,210.6,567.5,210.6z M525.3,180.3c-13,0-23.6,10.6-23.6,23.6
			c0,13,10.6,23.6,23.6,23.6s23.6-10.6,23.6-23.6C548.9,190.9,538.3,180.3,525.3,180.3z"/>
		<circle class="st0" cx="525.3" cy="203.9" r="9.6"/>
	</g>
</g>
</svg>
