<?xml version="1.0" encoding="utf-8"?>
<!-- Generator: Adobe Illustrator 24.1.1, SVG Export Plug-In . SVG Version: 6.00 Build 0)  -->
<svg version="1.1" id="Layer_1" xmlns="http://www.w3.org/2000/svg" xmlns:xlink="http://www.w3.org/1999/xlink" x="0px" y="0px"
	 viewBox="0 0 75 100" style="enable-background:new 0 0 75 100;" xml:space="preserve">
<style type="text/css">
	.st0{fill:#D4060C;}
	.st1{fill:#FFFFFF;}
	.st2{fill:#40535A;}
	.st3{fill:#B01117;}
</style>
<path class="st0" d="M69.4,100H5.6c-2.8,0-5.2-2.3-5.2-5.2V5.2C0.4,2.3,2.7,0,5.6,0h63.9c2.8,0,5.2,2.3,5.2,5.2v89.7
	C74.6,97.7,72.3,100,69.4,100z"/>
<path class="st1" d="M68.8,98.6H6.2c-2.4,0-4.4-2-4.4-4.4V5.8c0-2.4,2-4.4,4.4-4.4h62.7c2.4,0,4.4,2,4.4,4.4v88.5
	C73.2,96.7,71.3,98.6,68.8,98.6z"/>
<path class="st0" d="M72.2,55V6.3c0-2.2-1.8-4-4-4H6.7c-2.2,0-4,1.8-4,4V55H72.2z"/>
<path class="st0" d="M2.8,84v9.6c0,2.2,1.8,4,4,4h61.5c2.2,0,4-1.8,4-4V84H2.8z"/>
<g>
	<path class="st1" d="M17.7,93.7v-0.9h1.6V89c-0.1,0.1-0.3,0.2-0.5,0.4c-0.2,0.1-0.5,0.2-0.7,0.2v-0.9c0.5-0.1,0.9-0.4,1.3-0.8h0.9
		v5h1.3v0.9H17.7z"/>
	<path class="st1" d="M25.2,91.1c0,0-0.1,0.1-0.1,0.1c-0.1,0-0.2,0.1-0.4,0.2c-0.2,0.1-0.4,0.1-0.6,0.1c-0.6,0-1.1-0.2-1.4-0.5
		c-0.3-0.3-0.5-0.8-0.5-1.3s0.2-1,0.6-1.4c0.4-0.3,0.9-0.5,1.4-0.5c0.6,0,1.1,0.2,1.4,0.5c0.4,0.3,0.5,0.8,0.5,1.3V92
		c0,0.6-0.2,1-0.5,1.3c-0.4,0.3-0.8,0.5-1.4,0.5c-0.6,0-1.1-0.1-1.4-0.4s-0.5-0.7-0.5-1.2v-0.1h1c0,0.6,0.3,0.9,0.9,0.9
		c0.3,0,0.5-0.1,0.7-0.2c0.2-0.2,0.3-0.4,0.3-0.7V91.1z M24.9,90.4c0.2-0.2,0.3-0.4,0.3-0.7c0-0.3-0.1-0.6-0.3-0.7
		c-0.2-0.2-0.4-0.3-0.7-0.3c-0.7,0-1,0.3-1,1c0,0.7,0.3,1,1,1C24.5,90.7,24.7,90.6,24.9,90.4z"/>
	<path class="st1" d="M29.9,91.1c0,0-0.1,0.1-0.1,0.1c-0.1,0-0.2,0.1-0.4,0.2c-0.2,0.1-0.4,0.1-0.6,0.1c-0.6,0-1.1-0.2-1.4-0.5
		c-0.3-0.3-0.5-0.8-0.5-1.3s0.2-1,0.6-1.4c0.4-0.3,0.9-0.5,1.4-0.5c0.6,0,1.1,0.2,1.4,0.5c0.4,0.3,0.5,0.8,0.5,1.3V92
		c0,0.6-0.2,1-0.5,1.3s-0.8,0.5-1.4,0.5c-0.6,0-1.1-0.1-1.4-0.4S27,92.7,27,92.2v-0.1h1c0,0.6,0.3,0.9,0.9,0.9
		c0.3,0,0.5-0.1,0.7-0.2c0.2-0.2,0.3-0.4,0.3-0.7V91.1z M29.6,90.4c0.2-0.2,0.3-0.4,0.3-0.7c0-0.3-0.1-0.6-0.3-0.7
		c-0.2-0.2-0.4-0.3-0.7-0.3c-0.7,0-1,0.3-1,1c0,0.7,0.3,1,1,1C29.2,90.7,29.4,90.6,29.6,90.4z"/>
	<path class="st1" d="M31.8,93.7v-0.9l2-2c0.2-0.2,0.4-0.5,0.5-0.7c0.1-0.2,0.2-0.4,0.2-0.6c0-0.6-0.3-0.8-0.9-0.8
		c-0.6,0-0.9,0.3-0.9,0.9h-1v-0.1c0-0.5,0.2-1,0.5-1.3c0.4-0.3,0.8-0.5,1.4-0.5c0.6,0,1.1,0.2,1.4,0.5c0.3,0.3,0.5,0.7,0.5,1.2
		c0,0.3-0.1,0.6-0.2,0.9c-0.1,0.3-0.4,0.6-0.8,1l-1.4,1.4h2.4v0.9H31.8z"/>
	<rect x="36.3" y="91" class="st1" width="2.4" height="0.9"/>
	<path class="st1" d="M39.5,93.7v-0.9l2-2c0.2-0.2,0.4-0.5,0.5-0.7c0.1-0.2,0.2-0.4,0.2-0.6c0-0.6-0.3-0.8-0.9-0.8
		c-0.6,0-0.9,0.3-0.9,0.9h-1v-0.1c0-0.5,0.2-1,0.5-1.3s0.8-0.5,1.4-0.5c0.6,0,1.1,0.2,1.4,0.5c0.3,0.3,0.5,0.7,0.5,1.2
		c0,0.3-0.1,0.6-0.2,0.9c-0.1,0.3-0.4,0.6-0.8,1l-1.4,1.4h2.4v0.9H39.5z"/>
	<path class="st1" d="M48,92.1c0,0.5-0.2,1-0.6,1.3c-0.4,0.3-0.8,0.5-1.4,0.5s-1.1-0.2-1.4-0.5C44.2,93,44,92.6,44,92.1v-2.5
		c0-0.5,0.2-1,0.6-1.3c0.4-0.3,0.8-0.5,1.4-0.5s1.1,0.2,1.4,0.5c0.4,0.3,0.6,0.8,0.6,1.3V92.1z M47,89.6c0-0.3-0.1-0.6-0.3-0.7
		c-0.2-0.2-0.4-0.3-0.7-0.3s-0.5,0.1-0.7,0.3c-0.2,0.2-0.3,0.4-0.3,0.7V92c0,0.3,0.1,0.6,0.3,0.7c0.2,0.2,0.4,0.3,0.7,0.3
		s0.5-0.1,0.7-0.3S47,92.3,47,92V89.6z"/>
	<path class="st1" d="M48.8,93.7v-0.9h1.6V89c-0.1,0.1-0.3,0.2-0.5,0.4c-0.2,0.1-0.5,0.2-0.7,0.2v-0.9c0.5-0.1,0.9-0.4,1.3-0.8h0.9
		v5h1.3v0.9H48.8z"/>
	<polygon class="st1" points="54.2,93.7 56.2,88.8 53.4,88.8 53.4,87.9 57.3,87.9 57.3,88.8 55.3,93.7 	"/>
</g>
<g>
	<g>
		<polygon class="st2" points="15.3,66.9 15.3,72.9 12.7,72.9 12.7,58.3 22.2,58.3 22.2,60.6 15.3,60.6 15.3,64.6 21.6,64.6 
			21.6,66.9 		"/>
		<path class="st2" d="M62.3,69.2c0,2.6-1.8,4-4.5,4c-2.7,0-4.5-1.5-4.5-4.1v-2.6c0-2.6,1.8-4.1,4.5-4.1c2.7,0,4.5,1.4,4.5,4v0.2H60
			c0-1.5-0.8-2.1-2.2-2.1c-1.4,0-2.1,0.7-2.1,2.2v2.2c0,1.5,0.8,2.2,2.1,2.2c1.4,0,2.2-0.6,2.2-2.1h2.3V69.2z"/>
		<path class="st2" d="M30.2,72.9v-1.2l-1.1,0.6c-1,0.5-1.7,0.7-2.7,0.7c-1.9,0-3.1-1.2-3.1-3c0-2.2,1.7-3.2,3.8-3.2h3.1v-0.6
			c0-1.3-0.8-2-2.1-2c-1.4,0-2.2,0.6-2.2,1.8h-2.3V66c0-2.3,1.9-3.7,4.6-3.7c2.8,0,4.5,1.4,4.5,3.9v6.7H30.2z M30.2,68.7h-2.8
			c-1.4,0-1.8,0.7-1.8,1.4c0,0.7,0.5,1.2,1.2,1.2c0.6,0,1.2-0.2,1.8-0.5l1.5-0.8V68.7z"/>
		<path class="st2" d="M39.4,72.9c-2.4,0-4-1.2-4-3.6v-4.8h-1.6v-2h1.6v-2.8h2.4v2.8h2.9v2h-2.9v4.7c0,1.2,0.6,1.6,1.7,1.6h1.2v2.1
			H39.4z"/>
		<path class="st2" d="M51.3,69.7c0,2.1-1.8,3.4-4.6,3.4c-2.7,0-4.6-1.5-4.6-4v-2.5c0-2.6,1.9-4.3,4.6-4.3c2.7,0,4.6,1.6,4.6,4.3
			v1.8h-6.9V69c0,1.5,1,2.1,2.3,2.1c1.3,0,2.2-0.5,2.2-1.6L51.3,69.7L51.3,69.7z M49,66.7c0-1.5-0.9-2.3-2.3-2.3
			c-1.5,0-2.3,0.8-2.3,2.3v0.3H49V66.7z"/>
	</g>
	<g>
		<polygon class="st3" points="19.1,79.6 19.1,75.3 17.7,75.3 17.7,74.5 21.5,74.5 21.5,75.3 20.1,75.3 20.1,79.6 		"/>
		<path class="st3" d="M23.8,79.6v-0.4l-0.4,0.2c-0.3,0.2-0.6,0.3-1,0.3c-0.6,0-1.1-0.4-1.1-1c0-0.8,0.6-1.1,1.3-1.1h1.1v-0.2
			c0-0.5-0.3-0.7-0.7-0.7c-0.5,0-0.8,0.2-0.8,0.6h-0.8v0c0-0.8,0.6-1.3,1.6-1.3c1,0,1.6,0.5,1.6,1.4v2.3H23.8z M23.8,78.1h-1
			c-0.5,0-0.6,0.2-0.6,0.5c0,0.3,0.2,0.4,0.4,0.4c0.2,0,0.4-0.1,0.6-0.2l0.5-0.3V78.1z"/>
		<path class="st3" d="M27.9,80.8v-1.7l-0.4,0.2c-0.3,0.2-0.5,0.2-0.8,0.2c-0.7,0-1.2-0.5-1.2-1.2v-1.2c0-0.7,0.5-1.3,1.3-1.3
			c0.3,0,0.5,0.1,0.8,0.2l0.4,0.2V76h0.8v4.9H27.9z M27.9,77.1l-0.6-0.3c-0.2-0.1-0.3-0.1-0.5-0.1c-0.3,0-0.6,0.2-0.6,0.6v1
			c0,0.4,0.2,0.6,0.6,0.6c0.2,0,0.4-0.1,0.5-0.1l0.6-0.3V77.1z"/>
		<path class="st3" d="M31.8,79.6v-0.4l-0.4,0.2c-0.3,0.2-0.5,0.2-0.8,0.2c-0.7,0-1.1-0.5-1.1-1.2V76h0.8v2.4c0,0.3,0.2,0.5,0.5,0.5
			c0.2,0,0.3-0.1,0.5-0.2l0.5-0.3V76h0.8v3.6H31.8z"/>
		<path class="st3" d="M35.8,79.6v-0.4l-0.4,0.2c-0.3,0.2-0.6,0.3-1,0.3c-0.6,0-1.1-0.4-1.1-1c0-0.8,0.6-1.1,1.3-1.1h1.1v-0.2
			c0-0.5-0.3-0.7-0.7-0.7c-0.5,0-0.8,0.2-0.8,0.6h-0.8v0c0-0.8,0.6-1.3,1.6-1.3c1,0,1.6,0.5,1.6,1.4v2.3H35.8z M35.8,78.1h-1
			c-0.5,0-0.6,0.2-0.6,0.5c0,0.3,0.2,0.4,0.4,0.4c0.2,0,0.4-0.1,0.6-0.2l0.5-0.3V78.1z"/>
		<path class="st3" d="M37.4,79.6V76h0.8v0.5l0.2-0.2c0.3-0.3,0.5-0.4,0.9-0.4h0.2v0.8h-0.2c-0.3,0-0.5,0.1-0.8,0.2l-0.3,0.2v2.3
			H37.4z"/>
		<path class="st3" d="M41,75c0,0.3-0.2,0.4-0.5,0.4c-0.3,0-0.5-0.1-0.5-0.4v-0.2c0-0.3,0.2-0.4,0.5-0.4c0.3,0,0.5,0.1,0.5,0.4V75z
			 M40.1,76h0.8v3.6h-0.8V76z"/>
		<path class="st3" d="M43.4,79.6c-0.8,0-1.4-0.4-1.4-1.2v-1.7h-0.5V76H42v-1h0.8v1h1v0.7h-1v1.6c0,0.4,0.2,0.6,0.6,0.6h0.4v0.7
			H43.4z"/>
		<path class="st3" d="M45.5,75c0,0.3-0.2,0.4-0.5,0.4c-0.3,0-0.5-0.1-0.5-0.4v-0.2c0-0.3,0.2-0.4,0.5-0.4c0.3,0,0.5,0.1,0.5,0.4V75
			z M44.6,76h0.8v3.6h-0.8V76z"/>
		<path class="st3" d="M48.6,79.6v-2.4c0-0.3-0.2-0.5-0.5-0.5c-0.2,0-0.3,0.1-0.5,0.2l-0.5,0.3v2.4h-0.8V76h0.8v0.4l0.4-0.2
			c0.3-0.2,0.5-0.2,0.8-0.2c0.7,0,1.1,0.5,1.1,1.2v2.5H48.6z"/>
		<path class="st3" d="M51,78.3c-0.2,0-0.2,0.1-0.2,0.2c0,0.1,0.1,0.2,0.2,0.2h1.4c0.8,0,1.3,0.3,1.3,1c0,0.8-0.7,1.2-1.7,1.2
			c-1.1,0-1.6-0.5-1.6-1.4v-0.4c-0.2-0.1-0.4-0.3-0.4-0.6c0-0.4,0.2-0.6,0.5-0.7c0,0-0.3-0.2-0.3-0.7c0-0.8,0.5-1.2,1.3-1.2h2.1v0.7
			h-0.5c0,0,0.2,0.1,0.2,0.5c0,0.7-0.5,1.1-1.3,1.1H51z M51.9,77.7c0.4,0,0.7-0.2,0.7-0.5c0-0.4-0.2-0.5-0.6-0.5h-0.3
			c-0.4,0-0.6,0.1-0.6,0.5c0,0.4,0.2,0.5,0.6,0.5H51.9z M51.2,79.3v0.2c0,0.5,0.2,0.8,0.9,0.8c0.6,0,0.9-0.2,0.9-0.5
			c0-0.3-0.2-0.4-0.6-0.4H51.2z"/>
		<path class="st3" d="M56.5,79.6v-0.4l-0.4,0.2c-0.3,0.2-0.6,0.3-1,0.3c-0.6,0-1.1-0.4-1.1-1c0-0.8,0.6-1.1,1.3-1.1h1.1v-0.2
			c0-0.5-0.3-0.7-0.7-0.7c-0.5,0-0.8,0.2-0.8,0.6h-0.8v0c0-0.8,0.6-1.3,1.6-1.3c1,0,1.6,0.5,1.6,1.4v2.3H56.5z M56.5,78.1h-1
			c-0.5,0-0.6,0.2-0.6,0.5c0,0.3,0.2,0.4,0.4,0.4c0.2,0,0.4-0.1,0.6-0.2l0.5-0.3V78.1z"/>
	</g>
</g>
<path class="st1" d="M41,52.1c-2.4,0-4.5-0.4-5.8-1.1c-0.3-0.2-0.4-0.6-0.3-0.9c0.1-0.2,0.4-0.4,0.6-0.4c0.1,0,0.1,0,0.2,0
	c1.1,0.3,2.2,0.5,3.5,0.5c6.5,0,14-4.4,15-11.5c0.3-2.6-0.2-4.6-1.5-6.2c-1.5-1.7-4-2.6-6.8-2.6c-1.3,0-2.6,0.2-3.8,0.6l0,0
	c-0.4,0.1-0.9-0.2-0.8-0.7l3.3-13.7c0.1-0.4,0.5-0.8,1-0.8h17.5v0.6c0,2.1-1.7,3.8-3.8,3.8H48.1c-0.3,0-0.5,0.2-0.6,0.5l-1.8,6.4
	c0.5-0.1,1.4-0.2,2.4-0.2c1.6,0,7.2,0.3,10.2,3.9c1.8,2.1,2.4,5,1.9,8.5c-0.9,5.5-4.6,8.6-7.5,10.3C49.4,51,45.1,52.1,41,52.1z"/>
<path class="st1" d="M12.9,42.3c-0.3,0-0.5-0.1-0.7-0.3c-0.3-0.2-0.4-0.6-0.3-0.9l0.5-2.4c0.1-0.2,0.2-0.4,0.4-0.6
	c2.5-1.8,15.7-11.6,20-16.3c2.2-2.4,3.2-5.4,2.5-8c-0.5-2.1-2-3.6-4-4.3c-0.6-0.2-1.2-0.3-1.8-0.3c-3,0-6.4,2.8-7.8,4.1
	c-0.3,0.3-0.7,0.4-1.1,0.4c-0.3,0-0.6-0.1-0.8-0.2c-0.7-0.4-1-1.4-0.6-2.1c1.4-2.3,4.5-6.2,10.5-6.2c3.8,0,7.1,1.8,9,4.9
	c1.9,3.1,1.9,7.1,0.1,10.5c-3.3,6.2-16.4,15-19.1,16.9h14l0.8-1.4c0.3-0.4,0.7-0.7,1.2-0.7h2.4l-1.5,6.1c-0.1,0.4-0.5,0.8-1,0.8
	H12.9z"/>
<path class="st1" d="M13.2,52.1c-0.5,0-0.9-0.2-1.1-0.5c-0.2-0.3-0.3-0.7-0.2-1.2l0.3-1.9c0.1-0.5,0.3-0.9,0.7-1.2
	c0.4-0.3,0.8-0.5,1.3-0.5c0.4,0,0.8,0.1,1.2,0.3l1.4,0.8L16,52h-0.8l0.1-0.8l-1,0.5C14,52,13.6,52.1,13.2,52.1z M14.2,47.6
	c-0.3,0-0.6,0.1-0.8,0.3c-0.2,0.2-0.3,0.4-0.4,0.8l-0.3,1.6c-0.1,0.4,0,0.6,0.1,0.9c0.1,0.2,0.3,0.3,0.7,0.3c0.3,0,0.6-0.1,0.9-0.2
	l1-0.5l0.4-2.3L15,47.8C14.7,47.7,14.5,47.6,14.2,47.6z"/>
<path class="st1" d="M20.8,52.1l0.6-3.4c0-0.3,0-0.5-0.1-0.7c-0.1-0.2-0.3-0.3-0.6-0.3c-0.2,0-0.5,0.1-0.8,0.3l-0.9,0.5l-0.6,3.7
	h-0.8l0.9-5.1h0.8c0,0,0,0.1,0,0.1c0,0.2-0.1,0.3-0.1,0.3l-0.2,0.5l1.1-0.6c0.4-0.2,0.7-0.3,1.1-0.3c0.5,0,0.8,0.1,1,0.4
	c0.2,0.3,0.3,0.7,0.2,1.2l-0.6,3.6H20.8z"/>
<path class="st1" d="M25.3,52.1c-0.7,0-1.2-0.2-1.5-0.6c-0.3-0.4-0.5-0.9-0.4-1.5l0.2-1.2c0.1-0.7,0.4-1.1,0.9-1.5
	c0.5-0.4,1-0.5,1.7-0.5c0.7,0,1.2,0.2,1.5,0.6c0.3,0.4,0.5,0.9,0.4,1.5L27.8,50c-0.1,0.7-0.4,1.2-0.9,1.5
	C26.5,51.9,26,52.1,25.3,52.1z M26,47.5c-0.4,0-0.8,0.1-1.1,0.4c-0.3,0.3-0.5,0.6-0.6,1.1l-0.2,1c-0.1,0.4,0,0.8,0.2,1.1
	c0.2,0.3,0.5,0.4,1,0.4c0.4,0,0.8-0.1,1.1-0.4c0.3-0.3,0.5-0.6,0.6-1.1l0.2-0.9c0.1-0.5,0-0.8-0.2-1.1C26.8,47.6,26.5,47.5,26,47.5z
	"/>
<path class="st1" d="M30.7,52.1c-0.6,0-1.1-0.1-1.4-0.4c-0.3-0.2-0.5-0.5-0.5-0.9l0-0.1h0.9c0,0.3,0.2,0.9,1.2,0.9
	c0.4,0,0.7-0.1,1-0.2c0.3-0.2,0.4-0.4,0.4-0.7c0-0.2-0.1-0.5-0.4-0.6c-0.2-0.1-0.5-0.2-0.8-0.2c-0.3,0-0.6-0.1-0.9-0.2
	c-0.3-0.1-0.5-0.2-0.7-0.4c-0.2-0.2-0.3-0.4-0.3-0.7c0-0.5,0.2-0.9,0.6-1.2c0.4-0.3,1-0.4,1.7-0.4c0.6,0,1.1,0.1,1.4,0.4
	c0.3,0.2,0.5,0.5,0.5,0.9l0,0.2h-0.8c0-0.3-0.2-0.9-1.1-0.9c-0.4,0-0.7,0.1-1,0.3c-0.3,0.2-0.4,0.4-0.4,0.7c0,0.2,0.1,0.4,0.3,0.6
	c0.2,0.1,0.4,0.2,0.6,0.2c0.2,0,0.5,0.1,0.7,0.1c0.3,0.1,0.5,0.1,0.7,0.2c0.2,0.1,0.3,0.2,0.5,0.3c0.1,0.2,0.2,0.4,0.2,0.6
	c0,0.5-0.2,0.9-0.6,1.2C32,51.9,31.4,52.1,30.7,52.1z"/>
</svg>
