<?xml version="1.0" encoding="utf-8"?>
<!-- Generator: Adobe Illustrator 24.1.1, SVG Export Plug-In . SVG Version: 6.00 Build 0)  -->
<svg version="1.1" id="Layer_1" xmlns="http://www.w3.org/2000/svg" xmlns:xlink="http://www.w3.org/1999/xlink" x="0px" y="0px"
	 viewBox="0 0 160 100" style="enable-background:new 0 0 160 100;" xml:space="preserve">
<style type="text/css">
	.st0{fill-rule:evenodd;clip-rule:evenodd;fill:#12120D;}
	.st1{fill-rule:evenodd;clip-rule:evenodd;fill:#B00402;}
	.st2{fill-rule:evenodd;clip-rule:evenodd;fill:#868887;}
</style>
<g>
	<g>
		<g>
			<polygon class="st0" points="0,70.5 0,62.6 1,62.6 3.6,69.6 6.2,62.6 7.2,62.6 7.2,70.5 6.5,70.5 6.5,63.6 4,70.5 3.3,70.5 
				0.7,63.6 0.7,70.5 0,70.5 			"/>
			<path class="st0" d="M10,67.5H13l-1.5-4.1L10,67.5L10,67.5z M8.1,70.5l3-7.9h0.9l3,7.9h-0.8l-0.9-2.4H9.7l-0.9,2.4H8.1L8.1,70.5z
				"/>
			<path class="st0" d="M16.5,66.3h2.1c0.7,0,1.3-0.1,1.6-0.4c0.3-0.3,0.5-0.7,0.5-1.2c0-0.3-0.1-0.5-0.2-0.7
				c-0.1-0.2-0.2-0.4-0.4-0.5c-0.1-0.1-0.3-0.2-0.5-0.2c-0.2,0-0.5-0.1-1-0.1h-0.3h-1.8V66.3L16.5,66.3z M15.8,70.5v-7.9h2.6
				c0.6,0,1.1,0,1.3,0.1c0.3,0,0.5,0.1,0.7,0.2c0.3,0.2,0.6,0.4,0.7,0.7c0.2,0.3,0.3,0.7,0.3,1.1c0,0.5-0.1,0.9-0.3,1.2
				c-0.2,0.3-0.5,0.6-0.9,0.7c0.3,0.1,0.6,0.3,0.7,0.5c0.1,0.2,0.2,0.7,0.3,1.3l0.1,1.2c0,0.2,0,0.3,0.1,0.5c0,0.1,0.1,0.2,0.2,0.3
				v0.1h-0.8c0-0.1-0.1-0.2-0.1-0.3c0-0.1,0-0.3-0.1-0.5l-0.1-1c-0.1-0.7-0.2-1.2-0.4-1.4c-0.2-0.2-0.6-0.3-1.2-0.3h-2.3v3.5H15.8
				L15.8,70.5z"/>
			<path class="st0" d="M23.9,67.5h3.1l-1.5-4.1L23.9,67.5L23.9,67.5z M22,70.5l3-7.9h0.9l3,7.9h-0.8l-0.9-2.4h-3.6l-0.9,2.4H22
				L22,70.5z"/>
			<polygon class="st0" points="31.4,70.5 31.4,63.3 28.9,63.3 28.9,62.6 34.6,62.6 34.6,63.3 32.1,63.3 32.1,70.5 31.4,70.5 			"/>
			<path class="st0" d="M35.9,66.6c0,1.1,0.3,1.9,0.8,2.6c0.5,0.6,1.2,0.9,2.1,0.9c0.9,0,1.6-0.3,2.1-0.9c0.5-0.6,0.8-1.5,0.8-2.6
				c0-1.1-0.3-1.9-0.8-2.6c-0.5-0.6-1.2-0.9-2.1-0.9c-0.9,0-1.6,0.3-2.1,1C36.2,64.6,35.9,65.5,35.9,66.6L35.9,66.6z M35.2,66.6
				c0-1.3,0.3-2.3,1-3.1c0.6-0.7,1.5-1.1,2.6-1.1c1.1,0,2,0.4,2.7,1.1c0.6,0.7,1,1.8,1,3.1c0,1.3-0.3,2.3-1,3.1
				c-0.6,0.7-1.5,1.1-2.7,1.1c-1.1,0-2-0.4-2.6-1.1C35.5,68.9,35.2,67.9,35.2,66.6L35.2,66.6z"/>
			<polygon class="st0" points="43.9,70.5 43.9,62.6 44.7,62.6 49.1,69.4 49.1,62.6 49.9,62.6 49.9,70.5 49,70.5 44.6,63.8 
				44.6,70.5 43.9,70.5 			"/>
			<path class="st0" d="M52.6,67.5h3.1l-1.5-4.1L52.6,67.5L52.6,67.5z M50.7,70.5l3-7.9h0.9l3,7.9h-0.8l-0.9-2.4h-3.6l-0.9,2.4H50.7
				L50.7,70.5z"/>
			<path class="st0" d="M62.1,69.9h1.5c0.6,0,1,0,1.3-0.1c0.3,0,0.5-0.1,0.7-0.2c0.4-0.2,0.7-0.6,0.9-1.1c0.2-0.5,0.3-1.1,0.3-1.9
				c0-0.7-0.1-1.4-0.3-1.9c-0.2-0.5-0.5-0.9-0.8-1.1c-0.2-0.1-0.4-0.2-0.7-0.3c-0.3-0.1-0.7-0.1-1.4-0.1h-0.2h-1.3V69.9L62.1,69.9z
				 M63.2,62.6h0.5c0.6,0,1.1,0,1.5,0.1c0.3,0.1,0.6,0.2,0.8,0.3c0.5,0.3,0.9,0.8,1.1,1.4c0.3,0.6,0.4,1.3,0.4,2.1
				c0,0.9-0.1,1.7-0.4,2.3c-0.3,0.6-0.7,1.1-1.2,1.4c-0.2,0.1-0.5,0.2-0.8,0.3c-0.3,0.1-0.8,0.1-1.5,0.1h-2.2v-7.9H63.2L63.2,62.6z"
				/>
			<polygon class="st0" points="69,70.5 69,62.6 74.2,62.6 74.2,63.3 69.7,63.3 69.7,66.2 73.8,66.2 73.8,66.8 69.7,66.8 69.7,69.9 
				74.3,69.9 74.3,70.5 69,70.5 			"/>
			<path class="st0" d="M79.3,66.4H81c0.8,0,1.3-0.1,1.7-0.4c0.3-0.3,0.5-0.7,0.5-1.2c0-0.5-0.2-0.9-0.5-1.2
				c-0.3-0.3-0.8-0.4-1.4-0.4h-2V66.4L79.3,66.4z M78.6,70.5v-7.9h2.8c0.9,0,1.5,0.2,1.9,0.6c0.4,0.4,0.6,0.9,0.6,1.7
				c0,0.8-0.2,1.3-0.7,1.7c-0.5,0.4-1.2,0.6-2.2,0.6h-1.7v3.4H78.6L78.6,70.5z"/>
			<path class="st0" d="M86,66.3h2.1c0.7,0,1.3-0.1,1.6-0.4c0.3-0.3,0.5-0.7,0.5-1.2c0-0.3-0.1-0.5-0.2-0.7
				c-0.1-0.2-0.2-0.4-0.4-0.5c-0.1-0.1-0.3-0.2-0.5-0.2c-0.2,0-0.5-0.1-1-0.1h-0.3H86V66.3L86,66.3z M85.3,70.5v-7.9h2.6
				c0.6,0,1.1,0,1.3,0.1c0.3,0,0.5,0.1,0.7,0.2c0.3,0.2,0.6,0.4,0.7,0.7c0.2,0.3,0.3,0.7,0.3,1.1c0,0.5-0.1,0.9-0.3,1.2
				c-0.2,0.3-0.5,0.6-0.9,0.7c0.3,0.1,0.6,0.3,0.7,0.5c0.1,0.2,0.2,0.7,0.3,1.3l0.1,1.2c0,0.2,0,0.3,0.1,0.5c0,0.1,0.1,0.2,0.2,0.3
				v0.1h-0.8c0-0.1-0.1-0.2-0.1-0.3c0-0.1,0-0.3-0.1-0.5l-0.1-1c-0.1-0.7-0.2-1.2-0.4-1.4c-0.2-0.2-0.6-0.3-1.2-0.3H86v3.5H85.3
				L85.3,70.5z"/>
			<path class="st0" d="M92.8,66.6c0,1.1,0.3,1.9,0.8,2.6c0.5,0.6,1.2,0.9,2.1,0.9c0.9,0,1.6-0.3,2.1-0.9c0.5-0.6,0.8-1.5,0.8-2.6
				c0-1.1-0.3-1.9-0.8-2.6c-0.5-0.6-1.2-0.9-2.1-0.9c-0.9,0-1.6,0.3-2.1,1C93.1,64.6,92.8,65.5,92.8,66.6L92.8,66.6z M92,66.6
				c0-1.3,0.3-2.3,1-3.1c0.6-0.7,1.5-1.1,2.6-1.1c1.1,0,2,0.4,2.7,1.1c0.6,0.7,1,1.8,1,3.1c0,1.3-0.3,2.3-1,3.1
				c-0.6,0.7-1.5,1.1-2.7,1.1c-1.1,0-2-0.4-2.6-1.1C92.4,68.9,92,67.9,92,66.6L92,66.6z"/>
			<path class="st0" d="M106.8,70.5l-0.1-1.4c-0.2,0.5-0.6,0.9-1.1,1.2c-0.5,0.3-1,0.4-1.7,0.4c-1.1,0-2-0.4-2.6-1.1
				c-0.6-0.7-0.9-1.8-0.9-3.1c0-1.3,0.3-2.3,1-3c0.6-0.7,1.5-1.1,2.6-1.1c0.9,0,1.7,0.2,2.2,0.7c0.6,0.4,0.9,1.1,1,1.9h-0.7
				c-0.1-0.6-0.4-1-0.8-1.4c-0.5-0.3-1-0.5-1.7-0.5c-0.9,0-1.6,0.3-2.1,0.9c-0.5,0.6-0.7,1.5-0.7,2.6c0,1.1,0.3,1.9,0.7,2.6
				c0.5,0.6,1.2,0.9,2,0.9c0.9,0,1.6-0.3,2-0.8c0.5-0.5,0.7-1.2,0.7-2.2v0h-2.6v-0.6h3.3v4.1H106.8L106.8,70.5z"/>
			<path class="st0" d="M109.7,66.3h2.1c0.7,0,1.3-0.1,1.6-0.4c0.3-0.3,0.5-0.7,0.5-1.2c0-0.3-0.1-0.5-0.2-0.7
				c-0.1-0.2-0.2-0.4-0.4-0.5c-0.1-0.1-0.3-0.2-0.5-0.2c-0.2,0-0.5-0.1-1-0.1h-0.3h-1.8V66.3L109.7,66.3z M109,70.5v-7.9h2.6
				c0.6,0,1.1,0,1.3,0.1c0.3,0,0.5,0.1,0.7,0.2c0.3,0.2,0.6,0.4,0.7,0.7c0.2,0.3,0.3,0.7,0.3,1.1c0,0.5-0.1,0.9-0.3,1.2
				c-0.2,0.3-0.5,0.6-0.9,0.7c0.3,0.1,0.6,0.3,0.7,0.5c0.1,0.2,0.2,0.7,0.3,1.3l0.1,1.2c0,0.2,0,0.3,0.1,0.5c0,0.1,0.1,0.2,0.2,0.3
				v0.1h-0.8c0-0.1-0.1-0.2-0.1-0.3c0-0.1,0-0.3-0.1-0.5l-0.1-1c-0.1-0.7-0.2-1.2-0.4-1.4c-0.2-0.2-0.6-0.3-1.2-0.3h-2.3v3.5H109
				L109,70.5z"/>
			<path class="st0" d="M117.1,67.5h3.1l-1.5-4.1L117.1,67.5L117.1,67.5z M115.2,70.5l3-7.9h0.9l3,7.9h-0.8l-0.9-2.4h-3.6l-0.9,2.4
				H115.2L115.2,70.5z"/>
			<polygon class="st0" points="122.9,70.5 122.9,62.6 123.9,62.6 126.5,69.6 129.1,62.6 130.1,62.6 130.1,70.5 129.4,70.5 
				129.4,63.6 126.8,70.5 126.2,70.5 123.6,63.6 123.6,70.5 122.9,70.5 			"/>
			<path class="st0" d="M132.8,67.5h3.1l-1.5-4.1L132.8,67.5L132.8,67.5z M130.9,70.5l3-7.9h0.9l3,7.9H137l-0.9-2.4h-3.6l-0.9,2.4
				H130.9L130.9,70.5z"/>
			<path class="st0" d="M144.2,67.9h0.7c-0.1,0.9-0.4,1.6-0.9,2.1c-0.6,0.5-1.3,0.7-2.2,0.7c-1.1,0-1.9-0.4-2.5-1.1
				c-0.6-0.7-0.9-1.8-0.9-3.1c0-1.3,0.3-2.3,0.9-3c0.6-0.7,1.5-1.1,2.5-1.1c0.9,0,1.6,0.2,2.2,0.7c0.6,0.5,0.9,1.1,0.9,1.8h-0.7
				c-0.1-0.6-0.3-1-0.7-1.4c-0.4-0.3-1-0.5-1.6-0.5c-0.9,0-1.5,0.3-2,0.9c-0.5,0.6-0.7,1.5-0.7,2.6c0,1.1,0.2,2,0.7,2.6
				c0.5,0.6,1.2,0.9,2,0.9c0.7,0,1.3-0.2,1.7-0.6C143.9,69.2,144.1,68.6,144.2,67.9L144.2,67.9z"/>
			<path class="st0" d="M140.5,72.8c0.3,0.1,0.5,0.1,0.7,0.2c0.2,0,0.4,0.1,0.6,0.1c0.4,0,0.7-0.1,0.9-0.2c0.2-0.2,0.3-0.4,0.3-0.7
				c0-0.3-0.1-0.5-0.3-0.7c-0.2-0.2-0.5-0.2-0.9-0.2h-0.1v-0.6h-0.4v1c0,0,0.1,0,0.1,0c0,0,0.1,0,0.2,0c0.3,0,0.5,0,0.6,0.1
				c0.1,0.1,0.2,0.2,0.2,0.4c0,0.2-0.1,0.3-0.2,0.4c-0.1,0.1-0.3,0.1-0.5,0.1c-0.2,0-0.3,0-0.6,0c-0.2,0-0.5-0.1-0.7-0.1V72.8
				L140.5,72.8z"/>
			<path class="st0" d="M147.3,67.5h3.1l-1.5-4.1L147.3,67.5L147.3,67.5z M145.4,70.5l3-7.9h0.9l3,7.9h-0.8l-0.9-2.4H147l-0.9,2.4
				H145.4L145.4,70.5z"/>
			<path class="st0" d="M150.5,60.4c-0.1,0.3-0.2,0.6-0.4,0.7c-0.2,0.2-0.4,0.2-0.6,0.2c0,0-0.1,0-0.2,0c-0.1,0-0.1,0-0.2,0
				l-0.5-0.2c0,0-0.1,0-0.1,0c-0.1,0-0.1,0-0.2,0c-0.1,0-0.2,0-0.3,0.1c-0.1,0.1-0.2,0.2-0.2,0.3h-0.4c0.1-0.3,0.2-0.6,0.4-0.7
				c0.2-0.2,0.4-0.3,0.7-0.3c0.1,0,0.1,0,0.2,0c0.1,0,0.1,0,0.1,0l0.5,0.2c0,0,0.1,0,0.2,0c0,0,0.1,0,0.1,0c0.1,0,0.2,0,0.3-0.1
				c0.1-0.1,0.2-0.2,0.2-0.3H150.5L150.5,60.4z"/>
			<path class="st0" d="M153.5,66.6c0,1.1,0.3,1.9,0.8,2.6c0.5,0.6,1.2,0.9,2.1,0.9c0.9,0,1.6-0.3,2.1-0.9c0.5-0.6,0.8-1.5,0.8-2.6
				c0-1.1-0.3-1.9-0.8-2.6c-0.5-0.6-1.2-0.9-2.1-0.9c-0.9,0-1.6,0.3-2.1,1C153.8,64.6,153.5,65.5,153.5,66.6L153.5,66.6z
				 M152.7,66.6c0-1.3,0.3-2.3,1-3.1c0.6-0.7,1.5-1.1,2.6-1.1c1.1,0,2,0.4,2.7,1.1c0.6,0.7,1,1.8,1,3.1c0,1.3-0.3,2.3-1,3.1
				c-0.6,0.7-1.5,1.1-2.7,1.1c-1.1,0-2-0.4-2.6-1.1C153.1,68.9,152.7,67.9,152.7,66.6z"/>
		</g>
		<g>
			<polygon class="st1" points="0,77.2 0,100 3,100 3,77.2 0,77.2 			"/>
			<path class="st1" d="M8,100H11v-9.9c0-0.5,0.1-1,0.2-1.4c0.5-1.7,2-3,4-3c2.8,0,3.8,2.2,3.8,4.9v9.4h2.9v-9.8
				c0-5.6-3.5-6.9-5.8-6.9c-2.7,0-4.6,1.5-5.4,3h-0.1l-0.1-2.7H7.9C8,85,8,86.4,8,88V100L8,100z"/>
			<path class="st1" d="M27.5,79.3v4H25v2.2h2.5v8.9c0,1.9,0.3,3.4,1.1,4.3c0.7,0.8,1.9,1.3,3.2,1.3c1.2,0,2.1-0.2,2.7-0.4l-0.1-2.2
				c-0.4,0.1-0.9,0.2-1.7,0.2c-1.7,0-2.2-1.2-2.2-3.2v-8.8h4.3v-2.2h-4.3v-4.7L27.5,79.3L27.5,79.3z"/>
			<path class="st1" d="M51.2,92c0.1-0.3,0.1-0.8,0.1-1.4c0-3-1.4-7.7-6.7-7.7c-4.8,0-7.7,3.9-7.7,8.8c0,4.9,3,8.3,8.1,8.3
				c2.6,0,4.4-0.6,5.5-1l-0.5-2.1c-1.1,0.5-2.4,0.8-4.5,0.8c-3,0-5.6-1.7-5.6-5.7H51.2L51.2,92z M39.7,89.8c0.2-2.1,1.6-4.8,4.6-4.8
				c3.4,0,4.2,2.9,4.1,4.8H39.7L39.7,89.8z"/>
			<path class="st1" d="M55,100h2.9v-8.8c0-0.4,0-0.9,0.1-1.4c0.4-2.2,1.9-3.8,4-3.8c0.4,0,0.7,0,1,0.1v-2.8
				c-0.2-0.1-0.5-0.1-0.8-0.1c-2,0-3.8,1.4-4.6,3.6h-0.1l-0.1-3.2h-2.6c0.1,1.5,0.1,3.1,0.1,5.1V100z"/>
			<polygon class="st0" points="71.2,90.5 71.2,100 67.1,100 67.1,77.1 82,77.1 82,80.7 71.2,80.7 71.2,86.9 81,86.9 81,90.5 			"/>
			<path class="st0" d="M144.6,93.8c0,4.1-2.8,6.2-7,6.2c-4.2,0-7-2.3-7-6.3v-4c0-4,2.8-6.4,7-6.4c4.2,0,7,2.2,7,6.2v0.3H141
				c0-2.3-1.3-3.3-3.4-3.3c-2.1,0-3.4,1.1-3.4,3.5v3.4c0,2.3,1.2,3.5,3.4,3.5c2.2,0,3.4-0.9,3.4-3.2h3.6V93.8z"/>
			<path class="st0" d="M94.5,93.1h-4.3c-2.2,0-2.8,1-2.8,2.1c0,1.1,0.7,1.8,1.9,1.8c1,0,1.9-0.3,2.8-0.8l2.3-1.3V93.1L94.5,93.1z
				 M94.5,99.8v-1.9l-1.7,0.9c-1.5,0.8-2.7,1.2-4.3,1.2c-2.9,0-4.8-1.9-4.8-4.6c0-3.4,2.6-5,6-5h4.8v-1c0-2.1-1.2-3.1-3.3-3.1
				c-2.2,0-3.5,0.9-3.5,2.8H84V89c0-3.7,2.9-5.7,7.1-5.7c4.4,0,7,2.2,7,6.1v10.4H94.5z"/>
			<path class="st0" d="M108.9,100c-3.8,0-6.2-1.9-6.2-5.6v-7.5h-2.5v-3.2h2.5v-4.4h3.8v4.4h4.5v3.2h-4.5v7.3c0,1.9,0.9,2.6,2.7,2.6
				h1.9v3.2H108.9z"/>
			<path class="st0" d="M123.9,89.9c0-2.3-1.4-3.6-3.6-3.6c-2.3,0-3.7,1.3-3.7,3.6v0.4h7.3V89.9L123.9,89.9z M127.4,94.6
				c0,3.3-2.8,5.4-7.1,5.4c-4.2,0-7.2-2.3-7.2-6.3v-3.9c0-4.1,3-6.7,7.2-6.7c4.2,0,7.1,2.4,7.1,6.7v2.9h-10.8v0.8
				c0,2.3,1.5,3.3,3.7,3.3c2.1,0,3.5-0.7,3.5-2.5h3.6V94.6z"/>
			<path class="st0" d="M156.9,88.5c0-1.9-1.1-2.7-3.2-2.7c-2,0-3.1,0.9-3.1,2.3c0,3.9,9.4,0.5,9.4,7c0,3-2.4,4.9-6.3,4.9
				c-3.9,0-6.3-1.6-6.3-5.1v-0.2h3c0,1.9,1.2,2.7,3.4,2.7c2.2,0,3.3-0.9,3.3-2.3c0-3.8-9.4-0.5-9.4-7.1c0-3,2.4-4.9,6.2-4.9
				c3.8,0,6.2,1.6,6.2,5v0.2H156.9z"/>
		</g>
		<g>
			<path class="st2" d="M67,20.6c0.3,1.9,1.7,2.1,2,3.6c0.3,1.5-4.1,5.9-3.5,7.2c0.6,1.3,3.5,1.9,3.5,1.9s-0.5,1.1-0.1,1.6
				c0.4,0.4,0.6,0.5,0.6,0.5s-0.8,0.8-0.6,1.4c0.2,0.6,2,2,2,2s-1.3,5.1,3.2,5c1.5,0,3-0.2,4.2-0.4c-2.2-1.2-1.3-4.6-1.3-4.6
				s-1.8-1.4-2-2c-0.2-0.6,0.6-1.4,0.6-1.4s-0.2,0-0.6-0.5c-0.4-0.4,0.1-1.6,0.1-1.6s-2.9-0.5-3.5-1.9c-0.6-1.3,3.7-5.8,3.5-7.2
				c-0.3-1.5-1.7-1.6-2-3.6c-1.5-10.7,8.4-17,18.9-18C79.7,1.3,65.2,7.7,67,20.6L67,20.6z"/>
			<path class="st0" d="M80.8,20.6c0.3,1.9,1.7,2.1,2,3.6c0.3,1.5-4.1,5.9-3.5,7.2c0.6,1.3,3.5,1.9,3.5,1.9s-0.5,1.1-0.1,1.6
				c0.4,0.4,0.6,0.5,0.6,0.5s-0.8,0.8-0.6,1.4c0.2,0.6,2,2,2,2s-1.3,5.1,3.2,5c4.5-0.1,8.2-1.2,8.2-1.2l2.4,3.4c0,0-1.8,3.5-1.2,5.3
				c0.5,1.8,3.1,3.2,11.5,1.4c8.4-1.8,17.3-8.2,17.3-8.2s-7.2-2.9-9.2-6.5c-2.1-3.6,0.1-5.7,2.6-10.9C135-5,77.3-4.3,80.8,20.6z"/>
			<path class="st0" d="M41.8,0c0,0,11.7,45.3,10,46.8c-1.7,1.4-8.2-15.6-8.2-15.6s-3.8,10.5-4.2,14.5c-0.4,4,10.6,7.7,8.9,7.6
				C46.7,53.2,34,53.2,34,53.2c1.9-11.2,3.3-14.6,8.4-24.5c0,0-4-24.6-3.8-26.4C38.9,0.5,41.8,0,41.8,0L41.8,0z"/>
			<path class="st0" d="M49.2,49.3l0.6,2.1c3-0.3,13.5-0.6,14.8,2l4.1,0.1c0,0-0.6-1.4-1.9-2.2C62.8,48.5,54.1,49.3,49.2,49.3z"/>
			<path class="st2" d="M89.6,51.3C89,49.5,90.8,46,90.8,46l-1.6-2.3c0,0,0,0,0,0c-0.4,0-0.9,0.1-1.4,0.1c-1,0-1.7-0.2-2.2-0.6
				c0,0,0,0,0,0c-0.8,0.1-1.7,0.3-2.6,0.4l1.7,2.4c0,0-1.8,3.5-1.2,5.3c0.5,1.6,2.5,2.8,8.5,1.9C90.5,52.8,89.8,52.1,89.6,51.3z"/>
		</g>
	</g>
</g>
</svg>
