<?xml version="1.0" encoding="utf-8"?>
<!-- Generator: Adobe Illustrator 24.1.1, SVG Export Plug-In . SVG Version: 6.00 Build 0)  -->
<svg version="1.1" id="Layer_1" xmlns="http://www.w3.org/2000/svg" xmlns:xlink="http://www.w3.org/1999/xlink" x="0px" y="0px"
	 viewBox="0 0 735 137.2" style="enable-background:new 0 0 735 137.2;" xml:space="preserve">
<style type="text/css">
	.st0{fill:#4A555C;}
	.st1{fill:#B01117;}
</style>
<g>
	<g>
		<polygon class="st0" points="16.3,53.2 16.3,90.7 0,90.7 0,0 58.9,0 58.9,14.4 16.3,14.4 16.3,38.8 55.2,38.8 55.2,53.2 		"/>
		<path class="st0" d="M306.9,67.3c0,16.1-11.1,24.5-27.8,24.5c-16.6,0-27.7-9.1-27.7-25.1v-16c0-16,11.1-25.2,27.7-25.2
			c16.7,0,27.8,8.5,27.8,24.6v1.1h-14.3c0-9.1-5-12.9-13.5-12.9c-8.4,0-13.3,4.4-13.3,13.7v13.4c0,9.3,4.9,13.7,13.3,13.7
			c8.5,0,13.5-3.7,13.5-12.8h14.3V67.3z"/>
		<path class="st0" d="M108.4,90.7v-7.4l-6.7,3.7c-6,3.2-10.6,4.6-16.9,4.6c-11.4,0-19.1-7.4-19.1-18.3c0-13.4,10.5-19.6,23.8-19.6
			h19.1v-3.8c0-8.3-4.8-12.3-13.2-12.3c-8.8,0-13.9,3.7-13.9,11.2H67.1v-0.8c0-14.5,11.5-22.7,28.2-22.7c17.6,0,27.7,8.8,27.7,24.1
			v41.3L108.4,90.7L108.4,90.7z M108.4,64.1H91.3c-8.9,0-11,4.2-11,8.4c0,4.5,2.8,7.2,7.7,7.2c4,0,7.4-1.2,11.1-3.2l9.3-5
			C108.4,71.6,108.4,64.1,108.4,64.1z"/>
		<path class="st0" d="M165.4,90.7c-14.9,0-24.5-7.4-24.5-22.1V39h-9.8V26.5h9.8V9H156v17.4h17.8V39H156v28.8
			c0,7.6,3.4,10.1,10.6,10.1h7.6v12.8H165.4z"/>
		<path class="st0" d="M238.5,70.5c0,13-11.2,21.3-28.2,21.3c-16.6,0-28.4-9-28.4-24.7V51.8c0-16.2,11.8-26.3,28.4-26.3
			c16.7,0,28.3,9.6,28.3,26.6v11.3H196v3.2c0,9.1,6.1,13.2,14.5,13.2c8.3,0,13.9-2.9,13.9-9.9h14.1V70.5z M224.8,51.8
			c0-9.1-5.4-14.1-14.3-14.1c-9,0-14.5,5-14.5,14.3v1.6h28.8L224.8,51.8L224.8,51.8z"/>
	</g>
	<g>
		<polygon class="st1" points="109.5,130.5 109.5,108.3 102,108.3 102,104.2 121.9,104.2 121.9,108.3 114.4,108.3 114.4,130.5 		"/>
		<path class="st1" d="M133.9,130.5v-2.2l-1.9,1.1c-1.7,0.9-3.1,1.3-4.9,1.3c-3.3,0-5.6-2.2-5.6-5.3c0-3.9,3-5.7,6.9-5.7h5.6v-1.1
			c0-2.4-1.4-3.6-3.8-3.6c-2.6,0-4,1.1-4,3.3h-4.2V118c0-4.2,3.3-6.6,8.2-6.6c5.1,0,8,2.6,8,7v12H133.9z M133.9,122.8h-5
			c-2.6,0-3.2,1.2-3.2,2.4c0,1.3,0.8,2.1,2.2,2.1c1.2,0,2.2-0.3,3.2-0.9l2.7-1.4L133.9,122.8L133.9,122.8z"/>
		<path class="st1" d="M154.7,137v-8.6l-2.1,1.2c-1.4,0.8-2.8,1.1-4.2,1.1c-3.9,0-6.4-2.6-6.4-6.4v-6.3c0-3.8,2.6-6.5,6.5-6.5
			c1.3,0,2.7,0.3,4.1,1.1l2.2,1.2v-2h4.2V137H154.7z M154.7,117.8l-3-1.7c-0.8-0.4-1.6-0.7-2.6-0.7c-1.8,0-2.9,1.2-2.9,3.1v5.3
			c0,1.8,1.2,3.1,2.9,3.1c1,0,1.8-0.3,2.6-0.7l3-1.6V117.8z"/>
		<path class="st1" d="M175.3,130.5v-2.2l-2,1.2c-1.3,0.8-2.6,1.2-4.1,1.2c-3.6,0-5.9-2.4-5.9-6.1v-12.8h4.3v12.3
			c0,1.6,1,2.7,2.5,2.7c0.9,0,1.7-0.3,2.4-0.8l2.7-1.6v-12.6h4.3v18.7L175.3,130.5L175.3,130.5z"/>
		<path class="st1" d="M195.7,130.5v-2.2l-1.9,1.1c-1.7,0.9-3.1,1.3-4.9,1.3c-3.3,0-5.6-2.2-5.6-5.3c0-3.9,3-5.7,6.9-5.7h5.6v-1.1
			c0-2.4-1.4-3.6-3.8-3.6c-2.6,0-4,1.1-4,3.3h-4.2V118c0-4.2,3.3-6.6,8.2-6.6c5.1,0,8,2.6,8,7v12H195.7z M195.7,122.8h-5
			c-2.6,0-3.2,1.2-3.2,2.4c0,1.3,0.8,2.1,2.2,2.1c1.2,0,2.2-0.3,3.2-0.9l2.7-1.4L195.7,122.8L195.7,122.8z"/>
		<path class="st1" d="M204.1,130.5v-18.7h4.3v2.7l0.8-0.8c1.4-1.3,2.8-2,4.6-2h1.1v4.3h-1.1c-1.6,0-2.7,0.3-3.9,1.3l-1.4,1.2v12
			L204.1,130.5L204.1,130.5z"/>
		<path class="st1" d="M222.4,106.8c0,1.3-1,2-2.4,2c-1.4,0-2.4-0.7-2.4-2V106c0-1.3,1.1-2.1,2.4-2.1c1.4,0,2.4,0.7,2.4,2.1V106.8z
			 M217.8,111.8h4.4v18.7h-4.4V111.8z"/>
		<path class="st1" d="M235.1,130.5c-4.3,0-7.1-2.2-7.1-6.4v-8.6h-2.8v-3.7h2.8v-5.1h4.4v5.1h5.2v3.7h-5.2v8.3c0,2.2,1,2.9,3.1,2.9
			h2.2v3.7H235.1z"/>
		<path class="st1" d="M245.7,106.8c0,1.3-1,2-2.4,2c-1.4,0-2.4-0.7-2.4-2V106c0-1.3,1.1-2.1,2.4-2.1c1.4,0,2.4,0.7,2.4,2.1V106.8z
			 M241.1,111.8h4.4v18.7h-4.4V111.8z"/>
		<path class="st1" d="M262,130.5v-12.3c0-1.4-0.8-2.8-2.5-2.8c-1,0-1.7,0.3-2.4,0.8l-2.7,1.6v12.6H250v-18.7h4.3v2.2l2-1.2
			c1.4-0.9,2.7-1.2,4.1-1.2c3.6,0,5.9,2.4,5.9,6.1v12.8L262,130.5L262,130.5z"/>
		<path class="st1" d="M274.3,123.7c-0.9,0-1.3,0.4-1.3,1.2c0,0.7,0.5,1.2,1.2,1.2h7.2c4.3,0,6.7,1.7,6.7,5.1c0,3.9-3.5,6-8.6,6
			c-5.7,0-8.3-2.6-8.3-7.1v-1.9c-1.2-0.5-1.8-1.6-1.8-3.3c0-2,1.1-3.2,2.5-3.6c0,0-1.3-1.1-1.3-3.5c0-4,2.8-6,6.9-6h10.8v3.6h-2.7
			c0,0,0.9,0.7,0.9,2.6c0,3.6-2.6,5.7-6.8,5.7L274.3,123.7L274.3,123.7z M279.2,120.6c2.3,0,3.5-0.8,3.5-2.8c0-1.8-1.2-2.7-3.2-2.7
			h-1.6c-2,0-3.3,0.6-3.3,2.8c0,1.9,1.2,2.7,3.2,2.7H279.2z M275.1,129.3v0.8c0,2.6,1.1,4,4.4,4c3,0,4.5-0.8,4.5-2.6
			c0-1.6-1.2-2.1-3.2-2.1L275.1,129.3L275.1,129.3z"/>
		<path class="st1" d="M302.9,130.5v-2.2l-2,1.1c-1.7,0.9-3.1,1.3-4.9,1.3c-3.3,0-5.6-2.2-5.6-5.3c0-3.9,3-5.7,6.9-5.7h5.6v-1.1
			c0-2.4-1.4-3.6-3.8-3.6c-2.5,0-4,1.1-4,3.3h-4.2V118c0-4.2,3.3-6.6,8.2-6.6c5.1,0,8,2.6,8,7v12H302.9z M302.9,122.8h-5
			c-2.6,0-3.2,1.2-3.2,2.4c0,1.3,0.8,2.1,2.2,2.1c1.2,0,2.2-0.3,3.2-0.9l2.7-1.4L302.9,122.8L302.9,122.8z"/>
	</g>
</g>
<polygon class="st0" points="371.1,68.6 348.3,96.1 348.3,137.2 343.7,137.2 343.7,0 348.3,0 348.3,41.2 "/>
<g>
	<path class="st0" d="M441.2,43.3c0,5.7-1.8,10.1-5.4,13.2c-3.6,3.1-8.4,4.6-14.6,4.6c-6,0-10.8-1.7-14.6-5
		c-3.8-3.3-5.7-8.4-5.7-15.1v-9.8c0-6.8,1.9-11.9,5.7-15.2c3.8-3.4,8.7-5,14.7-5c6.1,0,11,1.6,14.6,4.7s5.4,7.5,5.4,13.2v0.8h-8.9
		c0-7.3-3.6-10.9-10.9-10.9c-7.7,0-11.5,4.3-11.5,13v8.7c0,8.7,3.8,13,11.5,13c3.5,0,6.2-0.9,8.1-2.7c1.9-1.8,2.8-4.6,2.8-8.2h8.9
		V43.3z"/>
	<path class="st0" d="M478.6,49.5c0,3.5-1.4,6.3-4.1,8.4S468,61,463.4,61c-4.6,0-8.3-1.2-11.1-3.6s-4.2-5.6-4.2-9.8v-8.2
		c0-4.3,1.4-7.8,4.3-10.4c2.9-2.6,6.5-3.8,11.1-3.8c4.6,0,8.3,1.3,11.1,3.8c2.8,2.5,4.2,6.1,4.2,10.5v6.1h-23v1.7
		c0,2.4,0.7,4.1,2.1,5.3c1.4,1.2,3.3,1.8,5.7,1.8c5,0,7.5-1.8,7.5-5.3h7.6V49.5z M471.2,39.5c0-2.5-0.7-4.3-2-5.7
		c-1.4-1.3-3.2-2-5.7-2c-2.5,0-4.4,0.7-5.8,2s-2.1,3.2-2.1,5.7v0.9h15.5V39.5z"/>
	<path class="st0" d="M508.4,60.4V37.7c0-1.4-0.4-2.7-1.2-3.7c-0.8-1-1.9-1.5-3.4-1.5c-1.3,0-2.8,0.5-4.5,1.5l-5.1,3v23.4h-8V25.8
		h7.9v4.1l3.7-2.2c2.3-1.4,4.8-2.1,7.7-2.2c3.4,0,6,1,8,3.1c2,2.1,2.9,4.8,2.9,8.2v23.8H508.4z"/>
	<path class="st0" d="M539.6,60.4c-4.1,0-7.4-1-9.7-3.1s-3.5-5-3.5-8.8v-16h-5.3v-6.8h5.3v-9.4h8.2v9.4h9.6v6.8h-9.6v15.5
		c0,2,0.5,3.4,1.4,4.2s2.4,1.3,4.3,1.3h4.1v6.9H539.6z"/>
	<path class="st0" d="M550.5,60.4V25.8h8v4.9l1.5-1.5c2.6-2.5,5.4-3.7,8.6-3.7h2v8.1h-2c-2.8,0-5.2,0.8-7.3,2.4l-2.7,2.2v22.2H550.5
		z"/>
	<path class="st0" d="M597.5,60.4v-4l-3.6,2c-3.2,1.7-6.2,2.5-9.1,2.5c-3.1,0-5.6-0.9-7.5-2.7s-2.9-4.2-2.9-7.1
		c0-3.5,1.2-6.1,3.6-7.9s5.5-2.7,9.2-2.7h10.3v-2c0-4.4-2.4-6.6-7.1-6.6c-5,0-7.5,2-7.5,6.1h-7.8v-0.5c0-3.9,1.4-6.9,4.1-9
		s6.4-3.2,11.1-3.2c4.7,0,8.4,1.1,11,3.4c2.6,2.3,3.9,5.5,3.9,9.6v22.3H597.5z M597.5,46.1h-9.2c-3.9,0-5.9,1.5-5.9,4.5
		c0,1.2,0.4,2.2,1.1,2.9c0.7,0.7,1.7,1,3.1,1c1.8,0,3.8-0.6,6-1.7l5-2.7V46.1z"/>
	<path class="st0" d="M613.3,60.4v-49h8.2v49H613.3z"/>
	<path class="st0" d="M671.5,60.4v-3.8l-4,2.2c-2.4,1.4-5,2-7.8,2c-3.6,0-6.4-1.1-8.6-3.3s-3.3-5-3.3-8.6V37.4
		c0-3.5,1.1-6.4,3.4-8.6c2.2-2.2,5.1-3.4,8.7-3.4c2.7,0,5.2,0.7,7.6,2l3.9,2.2V11.5h7.8v49H671.5z M671.5,37l-5.5-3.1
		c-1.6-0.9-3.2-1.3-4.9-1.3c-1.7,0-3,0.5-4,1.5c-1,1-1.5,2.4-1.5,4.1v9.9c0,1.8,0.5,3.1,1.5,4.2c1,1,2.3,1.5,4,1.5
		c1.5,0,3.2-0.5,4.9-1.4l5.5-3V37z"/>
	<path class="st0" d="M717.4,49.5c0,3.5-1.4,6.3-4.1,8.4s-6.4,3.1-11.1,3.1c-4.6,0-8.3-1.2-11.1-3.6s-4.2-5.6-4.2-9.8v-8.2
		c0-4.3,1.4-7.8,4.3-10.4c2.9-2.6,6.5-3.8,11.1-3.8c4.6,0,8.3,1.3,11.1,3.8c2.8,2.5,4.2,6.1,4.2,10.5v6.1h-23v1.7
		c0,2.4,0.7,4.1,2.1,5.3c1.4,1.2,3.3,1.8,5.7,1.8c5,0,7.5-1.8,7.5-5.3h7.6V49.5z M710,39.5c0-2.5-0.7-4.3-2-5.7
		c-1.4-1.3-3.2-2-5.7-2c-2.5,0-4.4,0.7-5.8,2s-2.1,3.2-2.1,5.7v0.9H710V39.5z"/>
	<path class="st1" d="M401.7,126.4v-49h16.7c6.3,0,11.5,1.7,15.5,5.1s6,8.7,6,15.9v7c0,3.7-0.6,6.9-1.7,9.7c-1.2,2.8-2.8,5-4.8,6.6
		c-2,1.6-4.3,2.8-6.8,3.6c-2.5,0.8-5.3,1.2-8.3,1.2H401.7z M431.1,98.5c0-8.9-4.2-13.4-12.7-13.4h-7.8v33.6h7.8
		c8.5,0,12.7-4.4,12.7-13.2V98.5z"/>
	<path class="st1" d="M478.3,113c0,4.3-1.4,7.7-4.3,10.3c-2.9,2.6-6.7,3.8-11.3,3.8s-8.4-1.3-11.3-3.8c-2.9-2.6-4.3-6-4.3-10.3v-7.6
		c0-4.3,1.4-7.8,4.3-10.4c2.9-2.6,6.7-3.8,11.3-3.8s8.4,1.3,11.3,3.8c2.9,2.6,4.3,6,4.3,10.4V113z M470.7,106.2c0-2.5-0.7-4.5-2.2-6
		c-1.5-1.4-3.4-2.1-5.8-2.1c-2.4,0-4.4,0.7-5.8,2.1c-1.5,1.4-2.2,3.4-2.2,6v6c0,2.5,0.7,4.5,2.2,6c1.5,1.4,3.4,2.1,5.8,2.1
		c2.4,0,4.4-0.7,5.8-2.1c1.5-1.4,2.2-3.4,2.2-6V106.2z"/>
	<path class="st1" d="M513.8,126.4l-7.2-22.8l-7.1,22.8h-9.2l-7.8-34.7h8.6l4.6,25.5l7.8-25.5h6.8l8,25.5l4.7-25.5h8.2l-7.9,34.7
		H513.8z"/>
	<path class="st1" d="M558.7,126.4v-22.8c0-1.4-0.4-2.7-1.2-3.7c-0.8-1-1.9-1.5-3.4-1.5c-1.3,0-2.8,0.5-4.5,1.5l-5.1,3v23.4h-8V91.7
		h7.9v4.1l3.7-2.2c2.3-1.4,4.8-2.1,7.7-2.2c3.4,0,6,1,8,3.1c2,2.1,2.9,4.8,2.9,8.2v23.8H558.7z"/>
	<path class="st1" d="M574.8,126.4v-49h8.2v49H574.8z"/>
	<path class="st1" d="M621.9,113c0,4.3-1.4,7.7-4.3,10.3c-2.9,2.6-6.7,3.8-11.3,3.8s-8.4-1.3-11.3-3.8c-2.9-2.6-4.3-6-4.3-10.3v-7.6
		c0-4.3,1.4-7.8,4.3-10.4c2.9-2.6,6.7-3.8,11.3-3.8s8.4,1.3,11.3,3.8c2.9,2.6,4.3,6,4.3,10.4V113z M614.3,106.2c0-2.5-0.7-4.5-2.2-6
		c-1.5-1.4-3.4-2.1-5.8-2.1c-2.4,0-4.4,0.7-5.8,2.1c-1.5,1.4-2.2,3.4-2.2,6v6c0,2.5,0.7,4.5,2.2,6c1.5,1.4,3.4,2.1,5.8,2.1
		c2.4,0,4.4-0.7,5.8-2.1c1.5-1.4,2.2-3.4,2.2-6V106.2z"/>
	<path class="st1" d="M651.3,126.4v-4l-3.6,2c-3.2,1.7-6.2,2.5-9.1,2.5c-3.1,0-5.6-0.9-7.5-2.7s-2.9-4.2-2.9-7.1
		c0-3.5,1.2-6.1,3.6-7.9c2.4-1.8,5.5-2.7,9.2-2.7h10.3v-2c0-4.4-2.4-6.6-7.1-6.6c-5,0-7.5,2-7.5,6.1H629v-0.5c0-3.9,1.4-6.9,4.1-9
		s6.4-3.2,11.1-3.2c4.7,0,8.4,1.1,11,3.4c2.6,2.3,3.9,5.5,3.9,9.6v22.3H651.3z M651.3,112.1h-9.2c-3.9,0-5.9,1.5-5.9,4.5
		c0,1.2,0.4,2.2,1.1,2.9s1.7,1,3.1,1c1.8,0,3.8-0.6,6-1.7l5-2.7V112.1z"/>
	<path class="st1" d="M690,126.4v-3.8l-4,2.2c-2.4,1.4-5,2-7.8,2c-3.6,0-6.4-1.1-8.6-3.3c-2.2-2.2-3.3-5-3.3-8.6v-11.6
		c0-3.5,1.1-6.4,3.4-8.6c2.2-2.2,5.1-3.4,8.7-3.4c2.7,0,5.2,0.7,7.6,2l3.9,2.2V77.4h7.8v49H690z M689.9,102.9l-5.5-3.1
		c-1.6-0.9-3.2-1.3-4.9-1.3c-1.7,0-3,0.5-4,1.5c-1,1-1.5,2.4-1.5,4.1v9.9c0,1.8,0.5,3.1,1.5,4.2c1,1,2.3,1.5,4,1.5
		c1.5,0,3.2-0.5,4.9-1.4l5.5-3V102.9z"/>
	<path class="st1" d="M727,103c0-3.6-2.3-5.4-7-5.4c-2.1,0-3.8,0.4-5,1.2c-1.2,0.8-1.8,1.8-1.8,3.1c0,1.4,0.7,2.5,2.2,3.1
		c1.5,0.6,3.3,1.1,5.4,1.3c2.1,0.2,4.3,0.5,6.4,1s4,1.3,5.5,2.8c1.5,1.4,2.2,3.5,2.2,6.1c0,3.4-1.3,6-4,7.9s-6.3,2.9-11,2.9
		c-4.8,0-8.5-1-11.2-3c-2.7-2-4-4.8-4-8.3v-0.4h8c0,3.6,2.4,5.4,7.2,5.4c2.2,0,4-0.4,5.2-1.2c1.3-0.8,1.9-1.8,1.9-3.1
		c0-1.1-0.5-2-1.6-2.6c-1.1-0.6-2.4-1-4-1.1c-1.6-0.1-3.4-0.4-5.2-0.7c-1.9-0.4-3.6-0.8-5.2-1.3c-1.6-0.5-3-1.5-4-3
		c-1.1-1.4-1.6-3.3-1.6-5.5c0-3.4,1.3-6,3.9-8s6.2-2.9,10.8-2.9c4.7,0,8.3,1,10.9,3c2.5,2,3.8,4.8,3.8,8.4v0.4H727z"/>
</g>
</svg>
