<?xml version="1.0" encoding="utf-8"?>
<!-- Generator: Adobe Illustrator 23.0.1, SVG Export Plug-In . SVG Version: 6.00 Build 0)  -->
<svg version="1.1" id="Layer_1" xmlns="http://www.w3.org/2000/svg" xmlns:xlink="http://www.w3.org/1999/xlink" x="0px" y="0px"
	 viewBox="0 0 800 800" style="enable-background:new 0 0 800 800;" xml:space="preserve">
<style type="text/css">
	.st0{fill:#89BC0E;}
	.st1{fill:#00A0E4;}
	.st2{fill:#527500;}
	.st3{fill:#12120D;}
	.st4{fill-rule:evenodd;clip-rule:evenodd;fill:#231F1E;}
</style>
<g>
	<g>
		<path class="st0" d="M400,800c220.9,0,400-179.1,400-400S631.8,16.3,400.7,40.7c-118.5,0-156.7,155-164.9,196.8
			c-1.2,6.2,1.4,12.5,6.6,16l0,0c6.3,4.3,14.7,3.5,20.1-1.9l46.6-46.6l-36.4,52.4c-4.5,6.4-2.7,15.3,3.8,19.5h0
			c5.2,3.4,12,2.9,16.6-1.2l49.6-43.2l-39,48.7c-4.4,5.5-4,13.5,1,18.5l0,0c5.2,5.2,13.5,5.4,19,0.6l50.7-45.1l-37,44.2
			c-5.5,6.6-4.4,16.4,2.3,21.6l0,0c5.6,4.4,13.5,4.2,19-0.4l133.6-112.1c38-31.9,95.2-27.4,126.8,10.9
			c40.4,49.1,64.7,111.9,64.7,180.5c0,156.8-127.1,283.9-283.9,283.9V800z"/>
		<path class="st1" d="M400,800C179.1,800,0,620.9,0,400S179.1,0,400,0c60.3,0,77.4,42,77.4,42c-223.2,21.2-198.2,86.8-174.9,81.3
			S400,94.5,400,94.5c53.2,22.6,110.5,104,132.5,137.9c5.3,8.1,2.9,19-5.3,24.2v0c-7.1,4.5-16.4,3.3-22.1-2.8l-52.3-56.1
			c-0.6-0.6-1.5,0.1-1.1,0.8l38.6,61c4.4,7,2.2,16.2-5,20.4h0c-5.9,3.4-13.4,2.3-18-2.8l-53.8-58.7c-0.6-0.6-1.5,0.1-1.1,0.8
			l35.9,58.5c4.3,7,1.8,16.2-5.4,20.1l0,0c-6,3.3-13.6,1.8-17.9-3.6l-50.7-62.1c-0.5-0.7-1.5,0-1.1,0.8l33.7,61.8
			c3.7,6.8,1.1,15.3-5.7,18.9l0,0c-5.6,3-12.5,1.7-16.8-3l-63.1-70.2c-47.2-52.4-131.8-43.7-167.2,17.4
			c-24.2,41.8-38.1,90.3-38.1,142.1c0,158.2,125.2,286.2,283.9,283.9V800z"/>
	</g>
	<g>
		<g>
			<g>
				<path class="st0" d="M416,526.1l6.5,5.1l-6.1,11.7c-3.1,5.4,2.2,10.7,5.5,12.5c3.3,1.8,8.4,2,13.2,2l8.6-14.1l6.5,3.5
					l-11.3-20.9L416,526.1z"/>
				<path class="st2" d="M416.9,554.8l14,25.8c2.8,3.6,8.1,4.4,13.6,4.3h14.7v-24.4l-27.9-0.2C427,560.5,421.3,559.6,416.9,554.8
					L416.9,554.8z"/>
				<path class="st0" d="M504.8,507.3l-7.6,3.2l-7.3-11c-3.2-5.3-10.4-3.3-13.6-1.2c-3.2,2-5.8,6.4-8.1,10.6l8.1,14.4l-6.2,4
					l23.8,0.3L504.8,507.3z"/>
				<path class="st2" d="M479.2,494.2l-29.3-0.3c-4.5,0.7-7.8,4.9-10.3,9.8l-7.1,12.9l21.4,11.8l13.7-24.3
					C469.4,500.2,472.9,495.6,479.2,494.2L479.2,494.2z"/>
				<path class="st0" d="M480.5,593.7l0.9-8.2l13.2-1c6.2-0.3,7.9-7.5,7.7-11.3c-0.2-3.8-2.7-8.2-5.3-12.2l-16.5,0.2l-0.5-7.4
					l-11.8,20.7L480.5,593.7z"/>
				<path class="st2" d="M504.4,577.7l14.5-25.5c1.6-4.3-0.5-9.2-3.6-13.8l-7.8-12.5l-20.7,12.9l14.6,23.8
					C503.9,566.2,506.1,571.5,504.4,577.7L504.4,577.7z"/>
				<path class="st0" d="M504.4,577.7"/>
			</g>
			<polygon class="st3" points="508.7,412.8 508.7,368.2 498.9,368.2 498.9,418.7 484.4,427.5 484.4,407.7 473.5,414 473.5,379.4 
				464.5,379.4 464.5,419.3 449.9,427.7 449.9,410.9 415.4,430.4 415.4,463.8 519.4,463.8 519.4,406.4 			"/>
		</g>
		<g>
			<path id="XMLID_29_" class="st4" d="M351.8,586.6c4.2-1.3,8.3-3,8.3-3s1.9,1.5,2.5,2.1c0.6,0.6,1,1,1,1c0.1,0.7,0.1,2.1,0.6,2.1
				c0.5,0.1,0.6-0.5,0.6-1.1c0-0.6,0.1-1.2,0.6-1.2c0.5-0.1,1.2-0.5,1.7-0.2c0.5,0.3,0.9,1.2,1.1,2.1c0.3,0.9,0.3,1.3,0.8,1.2
				c0.5-0.2,0.5-0.9,0.5-0.9s0.6,0.7,0.9,0.4c0.3-0.3,0.2-0.5,0.1-1.1c-0.1-0.6,0.3-1.4,0.5-1.5c0.2-0.1,1,1.7,1.1,2.8
				c0.1,1.1-0.2,5.3,0.1,6.6c0.3,1.3,0.5,1.3,0.3,2.8c-0.2,1.4-0.9,4.9-1.4,5.6c-0.5,0.8-1.4,0.9-1.6,1.3c-0.2,0.4-0.2,0.6-0.5,0.8
				c-0.3,0.2-1,1-1.5,1.3s-0.6,0.6-0.4,0.8c0.2,0.2,3,0.4,3.9,0.3c0.9-0.1,1.3-0.1,1.3-0.1s-1.4,1.1-1.3,1.5
				c0.1,0.3,0.5,0.3,0.7,0.3c0.1,0,0,0.2,0.5,0.3c0.6,0.1,2.5-0.1,3.4-0.3c1-0.2,1.1-0.5,1.3-0.7c0.2-0.2,0.5,0,0.6-0.6
				c0.1-0.6-0.1-1.3,0.2-1.7c0.3-0.4,0.3-0.2,0.6-0.7c0.3-0.5,0-1.2-0.1-1.6c-0.1-0.4-0.1-1.7-0.1-2.3c0-0.6,0.4-6.1,1.2-9.7
				c0.7-3.6,1.2-5.2,0.5-6.4c-0.7-1.1-2.4-4.6-2.1-6.2c0.3-1.7,4.4-8.4,5-12.2c0.6-3.8,1.1-6.1,1.1-7.9c-0.1-1.8-0.1-2-0.1-2
				s0.9,18.2,0.8,19.3c-0.1,1.1-0.9,3-1.3,6.2c-0.4,3.2-0.5,4.3,0.1,6c0.7,1.7,0.8,4.1,0.8,3.8c0-0.3,0.7-3,1.7-5.2
				c1-2.2,1.4-5.8,1.1-8.3c-0.3-2.5-0.5-2.4-0.7-3.4c-0.2-1-0.2-15.2-0.7-19.3c-0.5-4.1-1.5-6.4-3.9-7.6c-2.4-1.2-4.6-1.3-7-1.3
				c-2.3,0.1-6.5-0.6-14.4,0.9c-7.9,1.5-22.8,3.2-25.9,2.9c-3-0.3-2.1-1.2-8.1-1.5c-6-0.3-10.1,0.4-14.5-0.1c-4.4-0.5-6.3-1-6.3-1
				s0.3-1.8,0.3-2.6s0.2-1.3-0.4-1.4c-0.6-0.1-2.7,1.4-3,1.7c-0.3,0.3-0.9,0.7-0.9,0.7s0.4-1-0.2-1.9c-0.5-0.9-1.6-1.1-3.4-2.5
				c-1.7-1.5-1.9-2.9-2.2-2.6c-0.3,0.3-0.1,1.6,0.3,2.7c0.4,1.1,0.7,2,0.7,2s-0.8-0.1-1.1-0.3c-0.3-0.2-2-1.6-2.9-2.5
				c-0.9-0.9-1-1.4-1.1-1.2c-0.1,0.2,0.2,1.4,1.3,3.5c1.1,2.1,2,2.5,1.9,2.7c-0.1,0.3-1,0.5-1.3,0.9c-0.6,0.8-1.6,1.8-2.6,2.8
				c0,0-0.8,0.6-1.1,1.7c-0.3,1.1,0.2,1.3-0.5,2.1c-0.7,0.8-3.1,3.7-3.7,4.4c-0.6,0.7-0.3,0.6-1.1,1.1c-0.8,0.5-1.5,1-1.4,1.5
				c0.1,0.4,0.5,1.3,1.6,2.1c1.1,0.7,1.7,0.7,2.7,0.9c1,0.2,1,0.3,1.5-0.1c0.5-0.4,1.3-0.5,1.6-0.3c0.3,0.1,4.3,1,5.5,0.9
				c1.2-0.1,1.1-0.2,2,0.2c0.9,0.4,1.8,0.1,2.4,0.7c0.6,0.7,3.4,0.7,5.3,3.2c1.9,2.5,3.4,9.8,4.6,11.6c1.2,1.8,2.9,2.8,5.1,4.7
				c2.2,1.9,4.5,1.4,4.5,1.4s0.2,1.5,0.8,2.6c0.6,1,0.6,3.8,0.9,5.2c0.3,1.4,1,1.5,1.2,4.2c0.2,2.7-0.3,4.9-0.5,5.8
				c-0.3,0.8-0.4,1-0.9,1.3c-0.5,0.3-0.7,0.2-0.8,0.7c-0.2,0.5,0.1,0.3-0.4,0.9c-0.5,0.5-1,0.7-1.2,1.2c-0.2,0.5,1.1,1.1,2.8,0.9
				c1.7-0.1,2.9-0.1,3-0.8c0.1-0.7-0.5-1.5-0.1-1.8c0.4-0.3,0.4-0.3,0.8-0.5c0.3-0.2,0.3,0.1,0.5-0.5c0.2-0.5,0.1-1.4,0.1-1.6
				c0-0.2-0.1-5.3-0.1-6.7c0.1-1.3,0.3-2.3,0.6-3.3c0.2-0.9,0.2-1.3,0.2-1.3s0.7,1.7,1.3,2.9c0.6,1.2,1,1.7,1.1,2.5
				c0.1,0.8,0.2,3.5,0.2,4.5c0,1-0.6,1-0.9,1.5c-0.3,0.5,0.1,0.4-0.4,1.1c-0.5,0.7-1.2,1-1.2,1.6c0,0.5,2.7,0.5,3.5,0.6
				c0.8,0,0.9-0.5,1.3-0.6c0.4-0.1,0.7,0.3,0.9-0.2c0.2-0.5-0.2-1.4-0.1-1.8c0.1-0.4,0.6-0.3,0.7-0.9c0.1-0.5,0-0.9,0-1.1
				c-0.1-0.1-2-5.6-1.7-8.1c0.3-2.5-0.1-3.6-0.5-7s-0.3-4.6-0.3-4.6s6.9-0.3,10.5,0.6C345.2,586.2,347.6,587.8,351.8,586.6z"/>
			<g>
				<path class="st3" d="M385.7,401.7v3.7c0,0.2-0.1,0.3-0.3,0.3h-0.3c0,0.4-0.1,0.8-0.2,1.2l0.3,0.1c0.2,0,0.3,0.2,0.2,0.4l-1,3.6
					c0,0.2-0.2,0.3-0.4,0.2l-0.3-0.1c-0.1,0.4-0.3,0.7-0.5,1.1l0.3,0.2c0.1,0.1,0.2,0.3,0.1,0.4l-1.9,3.2c-0.1,0.1-0.3,0.2-0.4,0.1
					l-0.3-0.2c-0.2,0.3-0.5,0.6-0.7,1l0.2,0.2c0.1,0.1,0.1,0.3,0,0.4l-2.6,2.6c-0.1,0.1-0.3,0.1-0.4,0l-0.2-0.2
					c-0.3,0.3-0.6,0.5-1,0.7l0.2,0.3c0.1,0.1,0,0.3-0.1,0.4l-3.2,1.9c-0.1,0.1-0.3,0-0.4-0.1l-0.2-0.3c-0.4,0.2-0.7,0.3-1.1,0.5
					l0.1,0.3c0,0.2-0.1,0.3-0.2,0.4l-3.6,1c-0.2,0-0.3-0.1-0.4-0.2l-0.1-0.3c-0.4,0.1-0.8,0.1-1.2,0.2v0.3c0,0.2-0.1,0.3-0.3,0.3
					h-3.7c-0.2,0-0.3-0.1-0.3-0.3v-0.3c-0.4,0-0.8-0.1-1.2-0.2l-0.1,0.3c0,0.2-0.2,0.3-0.4,0.2l-3.6-1c-0.2,0-0.3-0.2-0.2-0.4
					l0.1-0.3c-0.4-0.1-0.7-0.3-1.1-0.5l-0.2,0.3c-0.1,0.1-0.3,0.2-0.4,0.1l-3.2-1.9c-0.1-0.1-0.2-0.3-0.1-0.4l0.2-0.3
					c-0.3-0.2-0.6-0.5-1-0.7l-0.2,0.2c-0.1,0.1-0.3,0.1-0.4,0l-2.6-2.6c-0.1-0.1-0.1-0.3,0-0.4l0.2-0.2c-0.3-0.3-0.5-0.6-0.7-1
					l-0.3,0.2c-0.1,0.1-0.3,0-0.4-0.1l-1.9-3.2c-0.1-0.1,0-0.3,0.1-0.4l0.3-0.2c-0.2-0.4-0.3-0.7-0.5-1.1l-0.3,0.1
					c-0.2,0-0.3-0.1-0.4-0.2l-1-3.6c0-0.2,0.1-0.3,0.2-0.4l0.3-0.1c-0.1-0.4-0.1-0.8-0.2-1.2h-0.3c-0.2,0-0.3-0.1-0.3-0.3v-3.7
					c0-0.2,0.1-0.3,0.3-0.3h0.3c0-0.4,0.1-0.8,0.2-1.2l-0.3-0.1c-0.2,0-0.3-0.2-0.2-0.4l1-3.6c0-0.2,0.2-0.3,0.4-0.2l0.3,0.1
					c0.1-0.4,0.3-0.7,0.5-1.1l-0.3-0.2c-0.1-0.1-0.2-0.3-0.1-0.4l1.9-3.2c0.1-0.1,0.3-0.2,0.4-0.1l0.3,0.2c0.2-0.3,0.5-0.6,0.7-1
					l-0.2-0.2c-0.1-0.1-0.1-0.3,0-0.4l2.6-2.6c0.1-0.1,0.3-0.1,0.4,0l0.2,0.2c0.3-0.3,0.6-0.5,1-0.7l-0.2-0.3
					c-0.1-0.1,0-0.3,0.1-0.4l3.2-1.9c0.1-0.1,0.3,0,0.4,0.1l0.2,0.3c0.4-0.2,0.7-0.3,1.1-0.5l-0.1-0.3c0-0.2,0.1-0.3,0.2-0.4l3.6-1
					c0.2,0,0.3,0.1,0.4,0.2l0.1,0.3c0.4-0.1,0.8-0.1,1.2-0.2v-0.3c0-0.2,0.1-0.3,0.3-0.3h3.7c0.2,0,0.3,0.1,0.3,0.3v0.3
					c0.4,0,0.8,0.1,1.2,0.2l0.1-0.3c0-0.2,0.2-0.3,0.4-0.2l3.6,1c0.2,0,0.3,0.2,0.2,0.4l-0.1,0.3c0.4,0.1,0.7,0.3,1.1,0.5l0.2-0.3
					c0.1-0.1,0.3-0.2,0.4-0.1l3.2,1.9c0.1,0.1,0.2,0.3,0.1,0.4l-0.2,0.3c0.3,0.2,0.6,0.5,1,0.7l0.2-0.2c0.1-0.1,0.3-0.1,0.4,0
					l2.6,2.6c0.1,0.1,0.1,0.3,0,0.4l-0.2,0.2c0.3,0.3,0.5,0.6,0.7,1l0.3-0.2c0.1-0.1,0.3,0,0.4,0.1l1.9,3.2c0.1,0.1,0,0.3-0.1,0.4
					l-0.3,0.2c0.2,0.4,0.3,0.7,0.5,1.1l0.3-0.1c0.2,0,0.3,0.1,0.4,0.2l1,3.6c0,0.2-0.1,0.3-0.2,0.4l-0.3,0.1
					c0.1,0.4,0.1,0.8,0.2,1.2h0.3C385.6,401.4,385.7,401.5,385.7,401.7z M364.1,392.3c-6.2,0-11.3,5-11.3,11.3
					c0,6.2,5,11.3,11.3,11.3c6.2,0,11.3-5,11.3-11.3C375.3,397.3,370.3,392.3,364.1,392.3z"/>
				<path class="st3" d="M319.2,405.8v3.1c0,0.1-0.1,0.2-0.2,0.2h-0.3c0,0.3-0.1,0.7-0.1,1l0.3,0.1c0.1,0,0.2,0.2,0.2,0.3l-0.8,3
					c0,0.1-0.2,0.2-0.3,0.2l-0.3-0.1c-0.1,0.3-0.2,0.6-0.4,0.9l0.2,0.1c0.1,0.1,0.2,0.2,0.1,0.3l-1.5,2.7c-0.1,0.1-0.2,0.2-0.3,0.1
					l-0.2-0.1c-0.2,0.3-0.4,0.5-0.6,0.8l0.2,0.2c0.1,0.1,0.1,0.3,0,0.4l-2.2,2.2c-0.1,0.1-0.3,0.1-0.4,0l-0.2-0.2
					c-0.3,0.2-0.5,0.4-0.8,0.6l0.1,0.2c0.1,0.1,0,0.3-0.1,0.3l-2.7,1.5c-0.1,0.1-0.3,0-0.3-0.1l-0.1-0.2c-0.3,0.1-0.6,0.3-0.9,0.4
					l0.1,0.3c0,0.1,0,0.3-0.2,0.3l-3,0.8c-0.1,0-0.3,0-0.3-0.2l-0.1-0.3c-0.3,0.1-0.7,0.1-1,0.1v0.3c0,0.1-0.1,0.2-0.2,0.2h-3.1
					c-0.1,0-0.2-0.1-0.2-0.2v-0.3c-0.3,0-0.7-0.1-1-0.1l-0.1,0.3c0,0.1-0.2,0.2-0.3,0.2l-3-0.8c-0.1,0-0.2-0.2-0.2-0.3l0.1-0.3
					c-0.3-0.1-0.6-0.2-0.9-0.4l-0.1,0.2c-0.1,0.1-0.2,0.2-0.3,0.1l-2.7-1.5c-0.1-0.1-0.2-0.2-0.1-0.3l0.1-0.2
					c-0.3-0.2-0.5-0.4-0.8-0.6l-0.2,0.2c-0.1,0.1-0.3,0.1-0.4,0l-2.2-2.2c-0.1-0.1-0.1-0.3,0-0.4l0.2-0.2c-0.2-0.3-0.4-0.5-0.6-0.8
					l-0.2,0.1c-0.1,0.1-0.3,0-0.3-0.1l-1.5-2.7c-0.1-0.1,0-0.3,0.1-0.3l0.2-0.1c-0.1-0.3-0.3-0.6-0.4-0.9l-0.3,0.1
					c-0.1,0-0.3,0-0.3-0.2l-0.8-3c0-0.1,0-0.3,0.2-0.3l0.3-0.1c-0.1-0.3-0.1-0.7-0.1-1h-0.3c-0.1,0-0.2-0.1-0.2-0.2v-3.1
					c0-0.1,0.1-0.2,0.2-0.2h0.3c0-0.3,0.1-0.7,0.1-1l-0.3-0.1c-0.1,0-0.2-0.2-0.2-0.3l0.8-3c0-0.1,0.2-0.2,0.3-0.2l0.3,0.1
					c0.1-0.3,0.2-0.6,0.4-0.9l-0.2-0.1c-0.1-0.1-0.2-0.2-0.1-0.3l1.5-2.7c0.1-0.1,0.2-0.2,0.3-0.1l0.2,0.1c0.2-0.3,0.4-0.5,0.6-0.8
					l-0.2-0.2c-0.1-0.1-0.1-0.3,0-0.4l2.2-2.2c0.1-0.1,0.3-0.1,0.4,0l0.2,0.2c0.3-0.2,0.5-0.4,0.8-0.6l-0.1-0.2
					c-0.1-0.1,0-0.3,0.1-0.3l2.7-1.5c0.1-0.1,0.3,0,0.3,0.1l0.1,0.2c0.3-0.1,0.6-0.3,0.9-0.4l-0.1-0.3c0-0.1,0-0.3,0.2-0.3l3-0.8
					c0.1,0,0.3,0,0.3,0.2l0.1,0.3c0.3-0.1,0.7-0.1,1-0.1v-0.3c0-0.1,0.1-0.2,0.2-0.2h3.1c0.1,0,0.2,0.1,0.2,0.2v0.3
					c0.3,0,0.7,0.1,1,0.1l0.1-0.3c0-0.1,0.2-0.2,0.3-0.2l3,0.8c0.1,0,0.2,0.2,0.2,0.3l-0.1,0.3c0.3,0.1,0.6,0.2,0.9,0.4l0.1-0.2
					c0.1-0.1,0.2-0.2,0.3-0.1l2.7,1.5c0.1,0.1,0.2,0.2,0.1,0.3l-0.1,0.2c0.3,0.2,0.5,0.4,0.8,0.6l0.2-0.2c0.1-0.1,0.3-0.1,0.4,0
					l2.2,2.2c0.1,0.1,0.1,0.3,0,0.4l-0.2,0.2c0.2,0.3,0.4,0.5,0.6,0.8l0.2-0.1c0.1-0.1,0.3,0,0.3,0.1l1.5,2.7c0.1,0.1,0,0.3-0.1,0.3
					l-0.2,0.1c0.1,0.3,0.3,0.6,0.4,0.9l0.3-0.1c0.1,0,0.3,0,0.3,0.2l0.8,3c0,0.1,0,0.3-0.2,0.3l-0.3,0.1c0.1,0.3,0.1,0.7,0.1,1h0.3
					C319.1,405.5,319.2,405.6,319.2,405.8z M301.3,398c-5.1,0-9.3,4.2-9.3,9.3c0,5.1,4.2,9.3,9.3,9.3c5.1,0,9.3-4.2,9.3-9.3
					C310.6,402.2,306.4,398,301.3,398z"/>
				<path class="st3" d="M367.2,377.2l-3.9-16.9h2.3c0.7,0,1.2-0.5,1.2-1.2v-2.7c0-0.7-0.5-1.2-1.2-1.2h-17.3v-0.1
					c0-0.3-0.3-0.6-0.6-0.6h-0.3v-2.1c0-0.7-0.5-1.2-1.2-1.2h-0.7c-0.7,0-1.2,0.5-1.2,1.2v2.1h-0.3c-0.3,0-0.6,0.3-0.6,0.6v0.1h-7
					c-0.7,0-1.2,0.5-1.2,1.2v2.7c0,0.6,0.5,1.1,1.1,1.2l-4.7,15.9c0,0-1,0-2.7-0.1v-12.4h-0.2v-2.3l-4.8-6.7v3.8l2.1,3v2.3h-0.2
					v12.3c-8.4-0.1-23.6,0.2-30.2,3c-3.9,1.7-4.4,11.8-4.4,11.8c3-1.8,6.4-2.9,10.2-2.9c10.7,0,19.3,8.7,19.3,19.3l17.1-0.1h3.6
					c-0.2-1.2-0.3-2.5-0.3-3.7c0-12.7,10.3-23,23-23c8,0,15,4.1,19.1,10.2h4.1C383.3,383.5,375.9,378.3,367.2,377.2z M364.1,377
					c-10.6,0-19.7,6.2-24,15.1l0,0h-5.9v-15.9l4.7-15.9h21.7l3.9,16.7C364.3,377,364.2,377,364.1,377z"/>
			</g>
			<g>
				<path class="st3" d="M324.9,526.1h21.5l24.8-34c-3-1.1-6.1-2.1-9.3-3L324.9,526.1z"/>
				<path class="st3" d="M346.8,485.7c-8.5-1.5-49.6-3.1-63.4,2v17.6L346.8,485.7z"/>
				<path class="st3" d="M362.7,526.1h16.9v-30.7c-1.4-0.7-3-1.2-4.4-1.8L362.7,526.1z"/>
				<path class="st3" d="M359.5,488.4c-3.1-0.8-6.2-1.5-9.4-2.1l-66.7,34.1v5.8h22.4L359.5,488.4z"/>
				<path class="st3" d="M387.3,456.9c0-4-2.7-7.4-6.3-8.5c-0.8-3.4-3.8-5.9-7.4-5.9c-2.7,0-5.1,1.4-6.5,3.6
					c-1.6-1.2-3.5-1.9-5.6-1.9c-3.7,0-6.8,2.2-8.3,5.3c-0.7,0.3-1.3,0.7-1.8,1.2c-1.1,1.1-1.7,2.6-1.6,4.1c-2.3,1.4-3.9,4-3.9,6.9
					c0,4.5,3.7,8.2,8.2,8.2c0.6,0,1.1-0.1,1.7-0.2c0.7,1.5,2.2,2.5,3.9,2.5c0.7,0,1.3-0.2,1.9-0.5v9.1h7.4v-10.2
					c0.7-0.5,1.3-1.2,1.6-2c0.7,0.2,1.4,0.3,2.2,0.3c2.7,0,5.1-1.3,6.8-3.2C383.9,465.2,387.3,461.5,387.3,456.9z"/>
				<path class="st3" d="M314.4,477c5.1-0.2,10.1-0.3,15-0.2c0.6-1.8,0.9-3.7,0.9-5.6c0-9.9-8-17.9-17.9-17.9
					c-9.9,0-17.9,8-17.9,17.9c0,2.5,0.5,5,1.5,7.2C301.8,477.7,308,477.2,314.4,477z"/>
				
					<rect x="298.3" y="446.6" transform="matrix(0.852 -0.5235 0.5235 0.852 -191.105 223.542)" class="st3" width="3" height="6.4"/>
				
					<rect x="287.4" y="461.7" transform="matrix(0.2323 -0.9727 0.9727 0.2323 -230.4154 637.884)" class="st3" width="3" height="6.4"/>
				
					<rect x="287.7" y="474.3" transform="matrix(-0.2852 -0.9585 0.9585 -0.2852 -86.029 890.8937)" class="st3" width="3" height="6.4"/>
				
					<rect x="334.8" y="473.1" transform="matrix(-0.2323 0.9727 -0.9727 -0.2323 877.6975 259.7936)" class="st3" width="3" height="6.4"/>
				
					<rect x="331.9" y="454.6" transform="matrix(0.5235 0.852 -0.852 0.5235 548.9379 -65.9072)" class="st3" width="3" height="6.4"/>
				
					<rect x="316.8" y="443.7" transform="matrix(0.9727 0.2323 -0.2323 0.9727 112.4969 -61.7063)" class="st3" width="3" height="6.4"/>
			</g>
		</g>
	</g>
</g>
</svg>
