<?xml version="1.0" encoding="utf-8"?>
<!-- Generator: Adobe Illustrator 24.1.1, SVG Export Plug-In . SVG Version: 6.00 Build 0)  -->
<svg version="1.1" id="Layer_1" xmlns="http://www.w3.org/2000/svg" xmlns:xlink="http://www.w3.org/1999/xlink" x="0px" y="0px"
	 viewBox="0 0 425 100" style="enable-background:new 0 0 425 100;" xml:space="preserve">
<style type="text/css">
	.st0{fill:#B01F24;}
	.st1{fill:#4A555C;}
</style>
<g>
	<g>
		<g>
			<rect x="420.5" y="67.3" class="st0" width="4.4" height="25.9"/>
			<path class="st0" d="M412.2,93.2v-2.1l-1.9,1c-1.7,0.9-3.3,1.3-4.8,1.3c-1.6,0-2.9-0.5-4-1.4c-1-1-1.5-2.2-1.5-3.8
				c0-1.8,0.6-3.2,1.9-4.2c1.3-1,2.9-1.4,4.9-1.4h5.5v-1.1c0-2.3-1.3-3.5-3.8-3.5c-2.7,0-4,1.1-4,3.2h-4.1V81c0-2,0.7-3.6,2.2-4.8
				c1.5-1.1,3.4-1.7,5.9-1.7c2.5,0,4.5,0.6,5.8,1.8c1.4,1.2,2.1,2.9,2.1,5.1v11.8H412.2z M412.2,85.6h-4.9c-2.1,0-3.1,0.8-3.1,2.4
				c0,0.7,0.2,1.2,0.6,1.5c0.4,0.4,0.9,0.5,1.6,0.5c1,0,2-0.3,3.2-0.9l2.7-1.4V85.6z"/>
			<g>
				<rect x="391.9" y="74.8" class="st0" width="4.3" height="18.4"/>
				<path class="st0" d="M396.5,69.9c0,0.6-0.2,1.1-0.7,1.5c-0.4,0.3-1,0.5-1.7,0.5c-0.7,0-1.3-0.2-1.7-0.5
					c-0.5-0.3-0.7-0.8-0.7-1.5v-0.8c0-0.7,0.2-1.2,0.7-1.5c0.5-0.3,1-0.5,1.7-0.5c0.7,0,1.3,0.2,1.7,0.5c0.4,0.3,0.7,0.8,0.7,1.5
					V69.9z"/>
			</g>
			<path class="st0" d="M378.5,93.2V74.8h4.2v2.6l0.8-0.8c1.4-1.3,2.9-2,4.5-2h1.1V79h-1c-1.5,0-2.8,0.4-3.9,1.3l-1.4,1.2v11.8
				H378.5z"/>
			<path class="st0" d="M372.6,93.2c-2.2,0-3.9-0.5-5.1-1.6c-1.2-1.1-1.9-2.6-1.9-4.7v-8.5h-2.8v-3.6h2.8v-5h4.3v5h5.1v3.6H370v8.2
				c0,1,0.2,1.8,0.7,2.2s1.3,0.7,2.3,0.7h2.2v3.7H372.6z"/>
			<path class="st0" d="M356.4,80.8c0-1.9-1.2-2.9-3.7-2.9c-1.1,0-2,0.2-2.6,0.6c-0.6,0.4-0.9,1-0.9,1.6c0,0.8,0.4,1.3,1.2,1.7
				c0.8,0.3,1.7,0.6,2.9,0.7c1.1,0.1,2.3,0.3,3.4,0.5c1.1,0.2,2.1,0.7,2.9,1.5c0.8,0.8,1.2,1.8,1.2,3.2c0,1.8-0.7,3.2-2.1,4.2
				c-1.4,1-3.4,1.5-5.8,1.5c-2.5,0-4.5-0.5-5.9-1.6c-1.4-1.1-2.1-2.5-2.1-4.4v-0.2h4.3c0,1.9,1.3,2.9,3.8,2.9c1.2,0,2.1-0.2,2.8-0.6
				c0.7-0.4,1-1,1-1.6c0-0.6-0.3-1-0.9-1.4c-0.6-0.3-1.3-0.5-2.1-0.6c-0.9-0.1-1.8-0.2-2.8-0.4c-1-0.2-1.9-0.4-2.8-0.7
				c-0.9-0.3-1.6-0.8-2.1-1.6c-0.6-0.8-0.9-1.7-0.9-2.9c0-1.8,0.7-3.2,2.1-4.2c1.4-1,3.3-1.5,5.7-1.5c2.5,0,4.4,0.5,5.8,1.6
				c1.3,1.1,2,2.5,2,4.4v0.2H356.4z"/>
			<path class="st0" d="M336.7,93.2v-2.1l-2,1.2c-1.3,0.8-2.6,1.2-4.1,1.2c-1.8,0-3.2-0.5-4.2-1.6c-1-1.1-1.6-2.5-1.6-4.3V74.8h4.3
				v12.1c0,0.8,0.2,1.5,0.7,2c0.4,0.5,1,0.7,1.8,0.7c0.7,0,1.5-0.3,2.4-0.8l2.7-1.6V74.8h4.2v18.4H336.7z"/>
			<path class="st0" d="M316.5,93.2v-2l-2.1,1.2c-1.3,0.7-2.7,1.1-4.1,1.1c-1.9,0-3.4-0.6-4.6-1.7c-1.2-1.2-1.7-2.7-1.7-4.6V81
				c0-1.9,0.6-3.4,1.8-4.6c1.2-1.2,2.7-1.8,4.6-1.8c1.4,0,2.8,0.4,4,1.1l2.1,1.2v-9.6h4.1v25.9H316.5z M316.4,80.8l-2.9-1.6
				c-0.9-0.5-1.7-0.7-2.6-0.7c-0.9,0-1.6,0.3-2.1,0.8c-0.5,0.5-0.8,1.3-0.8,2.2v5.2c0,0.9,0.3,1.7,0.8,2.2c0.5,0.5,1.2,0.8,2.1,0.8
				c0.8,0,1.7-0.2,2.6-0.7l2.9-1.6V80.8z"/>
			<path class="st0" d="M295.8,93.2V81.1c0-0.8-0.2-1.4-0.6-1.9c-0.4-0.5-1-0.8-1.8-0.8c-0.7,0-1.5,0.3-2.4,0.8l-2.7,1.6v12.4H284
				V74.8h4.2V77l2-1.2c1.2-0.7,2.6-1.1,4.1-1.2c1.8,0,3.2,0.5,4.2,1.6s1.6,2.5,1.6,4.3v12.6H295.8z"/>
			<rect x="274.6" y="67.3" class="st0" width="4.8" height="25.9"/>
		</g>
		<g>
			<path class="st0" d="M262.6,86.1c0,2.3-0.8,4.1-2.3,5.5c-1.5,1.4-3.5,2-6,2c-2.5,0-4.5-0.7-6-2c-1.5-1.4-2.3-3.2-2.3-5.5v-4
				c0-2.3,0.8-4.1,2.3-5.5c1.5-1.4,3.5-2,6-2c2.5,0,4.5,0.7,6,2c1.5,1.4,2.3,3.2,2.3,5.5V86.1z M258.6,82.5c0-1.3-0.4-2.4-1.2-3.2
				c-0.8-0.8-1.8-1.1-3.1-1.1c-1.3,0-2.3,0.4-3.1,1.1c-0.8,0.8-1.2,1.8-1.2,3.2v3.2c0,1.3,0.4,2.4,1.2,3.2c0.8,0.8,1.8,1.1,3.1,1.1
				c1.3,0,2.3-0.4,3.1-1.1c0.8-0.8,1.2-1.8,1.2-3.2V82.5z"/>
			<g>
				<path class="st0" d="M238.1,93.2v-2.1l-1.9,1c-1.7,0.9-3.3,1.3-4.8,1.3c-1.6,0-2.9-0.5-4-1.4c-1-1-1.5-2.2-1.5-3.8
					c0-1.8,0.6-3.2,1.9-4.2c1.3-1,2.9-1.4,4.9-1.4h5.5v-1.1c0-2.3-1.3-3.5-3.8-3.5c-2.7,0-4,1.1-4,3.2h-4.1V81c0-2,0.7-3.6,2.2-4.8
					c1.5-1.1,3.4-1.7,5.9-1.7c2.5,0,4.5,0.6,5.8,1.8c1.4,1.2,2.1,2.9,2.1,5.1v11.8H238.1z M238.1,85.6h-4.9c-2.1,0-3.1,0.8-3.1,2.4
					c0,0.7,0.2,1.2,0.6,1.5c0.4,0.4,0.9,0.5,1.6,0.5c1,0,2-0.3,3.2-0.9l2.7-1.4V85.6z"/>
				<path class="st0" d="M241.7,67.5c0,1.5-0.4,2.7-1.1,3.6c-0.7,0.9-1.8,1.4-3.1,1.4c-0.8,0-1.5-0.2-2.1-0.5
					c-0.6-0.4-1.2-0.7-1.7-1.1c-0.5-0.3-0.9-0.5-1.3-0.5c-0.9,0-1.4,0.7-1.4,2h-3.4v-0.2c0-1.5,0.4-2.7,1.1-3.6
					c0.7-0.9,1.8-1.4,3.1-1.4c0.8,0,1.5,0.2,2.1,0.5c0.6,0.3,1.2,0.7,1.6,1c0.5,0.3,0.9,0.5,1.3,0.5c1,0,1.4-0.7,1.4-2h3.4V67.5z"/>
			</g>
			<path class="st0" d="M212.1,96l1.4-2.6c-2.1-0.2-3.7-0.9-5-2.1c-1.2-1.2-1.8-2.9-1.8-5v-4.6c0-2.3,0.7-4,2.2-5.3
				c1.4-1.3,3.4-1.9,5.8-1.9c2.4,0,4.4,0.6,5.8,1.8c1.4,1.2,2.1,3,2.1,5.2v0.3h-4.1c0-2.5-1.3-3.7-3.9-3.7c-2.5,0-3.8,1.3-3.8,3.9
				v3.8c0,2.6,1.3,3.9,3.8,3.9c2.6,0,3.9-1.2,3.9-3.7h4.1v0.3c0,2-0.6,3.6-1.7,4.8c-1.2,1.2-2.7,1.9-4.8,2.1l-0.7,1.2
				c0.9,0,1.6,0.2,2.1,0.6c0.5,0.4,0.7,1,0.7,1.8c0,0.9-0.3,1.6-1,2.2c-0.7,0.5-1.7,0.8-2.9,0.8c-1.2,0-2.2-0.3-2.8-0.8
				c-0.7-0.5-1-1.2-1-2.1v-0.1h2.6c0,0.6,0.4,0.9,1.3,0.9c0.8,0,1.3-0.3,1.3-1s-0.6-1-1.8-1H212.1z"/>
			<path class="st0" d="M198.6,93.2v-2.1l-2,1.2c-1.3,0.8-2.6,1.2-4.1,1.2c-1.8,0-3.2-0.5-4.2-1.6c-1-1.1-1.6-2.5-1.6-4.3V74.8h4.3
				v12.1c0,0.8,0.2,1.5,0.7,2c0.4,0.5,1,0.7,1.8,0.7c0.7,0,1.5-0.3,2.4-0.8l2.7-1.6V74.8h4.2v18.4H198.6z"/>
			<path class="st0" d="M178.4,93.2v-2l-2.1,1.2c-1.3,0.7-2.7,1.1-4.1,1.1c-1.9,0-3.4-0.6-4.6-1.7c-1.2-1.2-1.7-2.7-1.7-4.6V81
				c0-1.9,0.6-3.4,1.8-4.6c1.2-1.2,2.7-1.8,4.6-1.8c1.4,0,2.8,0.4,4,1.1l2.1,1.2v-9.6h4.1v25.9H178.4z M178.4,80.8l-2.9-1.6
				c-0.9-0.5-1.7-0.7-2.6-0.7c-0.9,0-1.6,0.3-2.1,0.8c-0.5,0.5-0.8,1.3-0.8,2.2v5.2c0,0.9,0.3,1.7,0.8,2.2c0.5,0.5,1.2,0.8,2.1,0.8
				c0.8,0,1.7-0.2,2.6-0.7l2.9-1.6V80.8z"/>
			<path class="st0" d="M162.2,86.1c0,2.3-0.8,4.1-2.3,5.5c-1.5,1.4-3.5,2-6,2s-4.5-0.7-6-2c-1.5-1.4-2.3-3.2-2.3-5.5v-4
				c0-2.3,0.8-4.1,2.3-5.5c1.5-1.4,3.5-2,6-2s4.5,0.7,6,2c1.5,1.4,2.3,3.2,2.3,5.5V86.1z M158.2,82.5c0-1.3-0.4-2.4-1.2-3.2
				c-0.8-0.8-1.8-1.1-3.1-1.1s-2.3,0.4-3.1,1.1c-0.8,0.8-1.2,1.8-1.2,3.2v3.2c0,1.3,0.4,2.4,1.2,3.2c0.8,0.8,1.8,1.1,3.1,1.1
				s2.3-0.4,3.1-1.1c0.8-0.8,1.2-1.8,1.2-3.2V82.5z"/>
			<path class="st0" d="M132.7,93.2V74.8h4.2v2.6l0.8-0.8c1.4-1.3,2.9-2,4.5-2h1.1V79h-1c-1.5,0-2.8,0.4-3.9,1.3l-1.4,1.2v11.8
				H132.7z"/>
			<path class="st0" d="M110.2,93.2V67.3h10.9c2.4,0,4.3,0.7,5.8,2.1s2.3,3.4,2.3,5.9c0,2.5-0.8,4.5-2.5,5.9
				c-1.7,1.5-3.6,2.2-5.9,2.2h-6.1v9.8H110.2z M120.6,79.4c1.2,0,2.2-0.4,3-1.1s1.1-1.8,1.1-3.1c0-1.3-0.3-2.3-1-2.9
				c-0.7-0.7-1.7-1-2.9-1h-5.9v8.2H120.6z"/>
		</g>
		<g>
			<path class="st0" d="M320.6,60.5v-2.1l-1.9,1c-1.7,0.9-3.3,1.3-4.8,1.3c-1.6,0-2.9-0.5-4-1.4c-1-1-1.5-2.2-1.5-3.8
				c0-1.8,0.6-3.2,1.9-4.2c1.3-1,2.9-1.4,4.9-1.4h5.5v-1.1c0-2.3-1.3-3.5-3.8-3.5c-2.7,0-4,1.1-4,3.2h-4.1v-0.2c0-2,0.7-3.6,2.2-4.8
				c1.5-1.1,3.4-1.7,5.9-1.7c2.5,0,4.5,0.6,5.8,1.8c1.4,1.2,2.1,2.9,2.1,5.1v11.8H320.6z M320.6,52.9h-4.9c-2.1,0-3.1,0.8-3.1,2.4
				c0,0.7,0.2,1.2,0.6,1.5c0.4,0.4,0.9,0.5,1.6,0.5c1,0,2-0.3,3.2-0.9l2.7-1.4V52.9z"/>
			<path class="st0" d="M300.6,60.5v-2l-2.1,1.2c-1.3,0.7-2.7,1.1-4.1,1.1c-1.9,0-3.4-0.6-4.6-1.7c-1.2-1.2-1.7-2.7-1.7-4.6v-6.2
				c0-1.9,0.6-3.4,1.8-4.6c1.2-1.2,2.7-1.8,4.6-1.8c1.4,0,2.8,0.4,4,1.1l2.1,1.2v-9.6h4.1v25.9H300.6z M300.5,48l-2.9-1.6
				c-0.9-0.5-1.7-0.7-2.6-0.7c-0.9,0-1.6,0.3-2.1,0.8c-0.5,0.5-0.8,1.3-0.8,2.2v5.2c0,0.9,0.3,1.7,0.8,2.2c0.5,0.5,1.2,0.8,2.1,0.8
				c0.8,0,1.7-0.2,2.6-0.7l2.9-1.6V48z"/>
		</g>
		<g>
			<path class="st0" d="M279,53.3c0,2.3-0.8,4.1-2.3,5.5c-1.5,1.4-3.5,2-6,2s-4.5-0.7-6-2c-1.5-1.4-2.3-3.2-2.3-5.5v-4
				c0-2.3,0.8-4.1,2.3-5.5c1.5-1.4,3.5-2,6-2s4.5,0.7,6,2c1.5,1.4,2.3,3.2,2.3,5.5V53.3z M275,49.8c0-1.3-0.4-2.4-1.2-3.2
				c-0.8-0.8-1.8-1.1-3.1-1.1s-2.3,0.4-3.1,1.1c-0.8,0.8-1.2,1.8-1.2,3.2v3.2c0,1.3,0.4,2.4,1.2,3.2c0.8,0.8,1.8,1.1,3.1,1.1
				s2.3-0.4,3.1-1.1c0.8-0.8,1.2-1.8,1.2-3.2V49.8z"/>
			<g>
				<path class="st0" d="M254.5,60.5v-2.1l-1.9,1c-1.7,0.9-3.3,1.3-4.8,1.3c-1.6,0-2.9-0.5-4-1.4c-1-1-1.5-2.2-1.5-3.8
					c0-1.8,0.6-3.2,1.9-4.2c1.3-1,2.9-1.4,4.9-1.4h5.5v-1.1c0-2.3-1.3-3.5-3.8-3.5c-2.7,0-4,1.1-4,3.2h-4.1v-0.2
					c0-2,0.7-3.6,2.2-4.8c1.5-1.1,3.4-1.7,5.9-1.7c2.5,0,4.5,0.6,5.8,1.8c1.4,1.2,2.1,2.9,2.1,5.1v11.8H254.5z M254.5,52.9h-4.9
					c-2.1,0-3.1,0.8-3.1,2.4c0,0.7,0.2,1.2,0.6,1.5c0.4,0.4,0.9,0.5,1.6,0.5c1,0,2-0.3,3.2-0.9l2.7-1.4V52.9z"/>
				<path class="st0" d="M258.1,34.7c0,1.5-0.4,2.7-1.1,3.6c-0.7,0.9-1.8,1.4-3.1,1.4c-0.8,0-1.5-0.2-2.1-0.5
					c-0.6-0.4-1.2-0.7-1.7-1.1c-0.5-0.3-0.9-0.5-1.3-0.5c-0.9,0-1.4,0.7-1.4,2H244v-0.2c0-1.5,0.4-2.7,1.1-3.6s1.8-1.4,3.1-1.4
					c0.8,0,1.5,0.2,2.1,0.5c0.6,0.3,1.2,0.7,1.6,1c0.5,0.3,0.9,0.5,1.3,0.5c1,0,1.4-0.7,1.4-2h3.4V34.7z"/>
			</g>
			<path class="st0" d="M237.1,60.5c-2.2,0-3.9-0.5-5.1-1.6c-1.2-1.1-1.9-2.6-1.9-4.7v-8.5h-2.8v-3.6h2.8v-5h4.3v5h5.1v3.6h-5.1v8.2
				c0,1,0.2,1.8,0.7,2.2c0.5,0.4,1.3,0.7,2.3,0.7h2.2v3.7H237.1z"/>
			<path class="st0" d="M220.8,48c0-1.9-1.2-2.9-3.7-2.9c-1.1,0-2,0.2-2.6,0.6c-0.6,0.4-0.9,1-0.9,1.6c0,0.8,0.4,1.3,1.2,1.7
				c0.8,0.3,1.7,0.6,2.9,0.7c1.1,0.1,2.3,0.3,3.4,0.5c1.1,0.2,2.1,0.7,2.9,1.5c0.8,0.8,1.2,1.8,1.2,3.2c0,1.8-0.7,3.2-2.1,4.2
				c-1.4,1-3.4,1.5-5.8,1.5c-2.5,0-4.5-0.5-5.9-1.6c-1.4-1.1-2.1-2.5-2.1-4.4v-0.2h4.3c0,1.9,1.3,2.9,3.8,2.9c1.2,0,2.1-0.2,2.8-0.6
				c0.7-0.4,1-1,1-1.6c0-0.6-0.3-1-0.9-1.4c-0.6-0.3-1.3-0.5-2.1-0.6c-0.9-0.1-1.8-0.2-2.8-0.4c-1-0.2-1.9-0.4-2.8-0.7
				c-0.9-0.3-1.6-0.8-2.1-1.6c-0.6-0.8-0.9-1.7-0.9-2.9c0-1.8,0.7-3.2,2.1-4.2c1.4-1,3.3-1.5,5.7-1.5c2.5,0,4.4,0.5,5.8,1.6
				c1.3,1.1,2,2.5,2,4.4V48H220.8z"/>
			<path class="st0" d="M205.7,54.7c0,1.9-0.7,3.3-2.2,4.4c-1.5,1.1-3.4,1.7-5.9,1.7c-2.4,0-4.4-0.6-5.9-1.9c-1.5-1.3-2.2-3-2.2-5.2
				v-4.4c0-2.3,0.8-4.1,2.3-5.5c1.5-1.4,3.5-2,5.9-2c2.4,0,4.4,0.7,5.9,2c1.5,1.3,2.2,3.2,2.2,5.6v3.2h-12.2v0.9
				c0,1.3,0.4,2.2,1.1,2.8c0.8,0.6,1.8,0.9,3,0.9c2.6,0,4-0.9,4-2.8h4V54.7z M201.7,49.3c0-1.3-0.4-2.3-1.1-3c-0.7-0.7-1.7-1-3-1
				c-1.3,0-2.3,0.4-3.1,1.1c-0.7,0.7-1.1,1.7-1.1,3v0.5h8.2V49.3z"/>
			<path class="st0" d="M185.6,51.6c0,3-1,5.2-2.9,6.8c-1.9,1.6-4.5,2.4-7.7,2.4c-3.2,0-5.8-0.9-7.8-2.7c-2-1.8-3-4.4-3-8V45
				c0-3.6,1-6.3,3-8c2-1.8,4.6-2.7,7.8-2.7c3.3,0,5.8,0.8,7.7,2.4c1.9,1.6,2.9,3.9,2.9,6.9v0.4H181c0-1.9-0.5-3.3-1.6-4.3
				c-1-1-2.5-1.4-4.4-1.4c-4.1,0-6.2,2.3-6.2,6.9V50c0,4.6,2.1,6.9,6.2,6.9c2,0,3.5-0.5,4.5-1.4c1-0.9,1.5-2.3,1.5-4.1h-4.8V48h9.4
				V51.6z"/>
		</g>
		<g>
			<path class="st0" d="M151,60.5V48c0-1.5-0.7-2.3-2-2.3c-0.6,0-1.3,0.2-2.2,0.7l-2.2,1.4v12.7h-4.2V48c0-1.5-0.6-2.3-1.9-2.3
				c-0.6,0-1.3,0.2-2.2,0.7l-2.2,1.4v12.7h-4.2V42.1h4.1V44l1.6-1c1.3-0.7,2.5-1.1,3.9-1.1c2.1,0,3.6,0.8,4.4,2.5l2-1.2
				c1.3-0.8,2.8-1.3,4.2-1.3c1.6,0,2.9,0.5,3.8,1.5c0.9,1,1.4,2.3,1.4,4.1v13H151z"/>
			<path class="st0" d="M125.8,54.7c0,1.9-0.7,3.3-2.2,4.4c-1.5,1.1-3.4,1.7-5.9,1.7c-2.4,0-4.4-0.6-5.9-1.9c-1.5-1.3-2.2-3-2.2-5.2
				v-4.4c0-2.3,0.8-4.1,2.3-5.5c1.5-1.4,3.5-2,5.9-2c2.4,0,4.4,0.7,5.9,2c1.5,1.3,2.2,3.2,2.2,5.6v3.2h-12.2v0.9
				c0,1.3,0.4,2.2,1.1,2.8c0.8,0.6,1.8,0.9,3,0.9c2.6,0,4-0.9,4-2.8h4V54.7z M121.8,49.3c0-1.3-0.4-2.3-1.1-3c-0.7-0.7-1.7-1-3-1
				c-1.3,0-2.3,0.4-3.1,1.1c-0.7,0.7-1.1,1.7-1.1,3v0.5h8.2V49.3z"/>
		</g>
		<g>
			<path class="st0" d="M360.2,20.6c0,2.3-0.8,4.1-2.3,5.5s-3.5,2-6,2c-2.5,0-4.5-0.7-6-2s-2.3-3.2-2.3-5.5v-4
				c0-2.3,0.8-4.1,2.3-5.5s3.5-2,6-2c2.5,0,4.5,0.7,6,2s2.3,3.2,2.3,5.5V20.6z M356.1,17c0-1.3-0.4-2.4-1.2-3.2
				c-0.8-0.8-1.8-1.1-3.1-1.1c-1.3,0-2.3,0.4-3.1,1.1c-0.8,0.8-1.2,1.8-1.2,3.2v3.2c0,1.3,0.4,2.4,1.2,3.2c0.8,0.8,1.8,1.1,3.1,1.1
				c1.3,0,2.3-0.4,3.1-1.1c0.8-0.8,1.2-1.8,1.2-3.2V17z"/>
			<g>
				<path class="st0" d="M335.6,27.7v-2.1l-1.9,1c-1.7,0.9-3.3,1.3-4.8,1.3c-1.6,0-2.9-0.5-4-1.4c-1-1-1.5-2.2-1.5-3.8
					c0-1.8,0.6-3.2,1.9-4.2c1.3-1,2.9-1.4,4.9-1.4h5.5V16c0-2.3-1.3-3.5-3.8-3.5c-2.7,0-4,1.1-4,3.2h-4.1v-0.2c0-2,0.7-3.6,2.2-4.8
					c1.5-1.1,3.4-1.7,5.9-1.7c2.5,0,4.5,0.6,5.8,1.8c1.4,1.2,2.1,2.9,2.1,5.1v11.8H335.6z M335.6,20.1h-4.9c-2.1,0-3.1,0.8-3.1,2.4
					c0,0.7,0.2,1.2,0.6,1.5c0.4,0.4,0.9,0.5,1.6,0.5c1,0,2-0.3,3.2-0.9l2.7-1.4V20.1z"/>
				<path class="st0" d="M339.3,2c0,1.5-0.4,2.7-1.1,3.6C337.4,6.5,336.4,7,335,7c-0.8,0-1.5-0.2-2.1-0.5c-0.6-0.4-1.2-0.7-1.7-1.1
					c-0.5-0.3-0.9-0.5-1.3-0.5c-0.9,0-1.4,0.7-1.4,2h-3.4V6.6c0-1.5,0.4-2.7,1.1-3.6c0.7-0.9,1.8-1.4,3.1-1.4c0.8,0,1.5,0.2,2.1,0.5
					c0.6,0.3,1.2,0.7,1.6,1c0.5,0.3,0.9,0.5,1.3,0.5c1,0,1.4-0.7,1.4-2h3.4V2z"/>
			</g>
			<path class="st0" d="M309.7,30.5l1.4-2.6c-2.1-0.2-3.7-0.9-5-2.1c-1.2-1.2-1.8-2.9-1.8-5v-4.6c0-2.3,0.7-4,2.2-5.3
				c1.4-1.3,3.4-1.9,5.8-1.9c2.4,0,4.4,0.6,5.8,1.8c1.4,1.2,2.1,3,2.1,5.2v0.3h-4.1c0-2.5-1.3-3.7-3.9-3.7c-2.5,0-3.8,1.3-3.8,3.9
				v3.8c0,2.6,1.3,3.9,3.8,3.9c2.6,0,3.9-1.2,3.9-3.7h4.1V21c0,2-0.6,3.6-1.7,4.8c-1.2,1.2-2.7,1.9-4.8,2.1l-0.7,1.2
				c0.9,0,1.6,0.2,2.1,0.6s0.7,1,0.7,1.8c0,0.9-0.3,1.6-1,2.2c-0.7,0.5-1.7,0.8-2.9,0.8c-1.2,0-2.2-0.3-2.8-0.8
				c-0.7-0.5-1-1.2-1-2.1v-0.1h2.6c0,0.6,0.4,0.9,1.3,0.9c0.8,0,1.3-0.3,1.3-1c0-0.7-0.6-1-1.8-1H309.7z"/>
			<path class="st0" d="M296.4,27.7v-2.1l-1.9,1c-1.7,0.9-3.3,1.3-4.8,1.3c-1.6,0-2.9-0.5-4-1.4c-1-1-1.5-2.2-1.5-3.8
				c0-1.8,0.6-3.2,1.9-4.2c1.3-1,2.9-1.4,4.9-1.4h5.5V16c0-2.3-1.3-3.5-3.8-3.5c-2.7,0-4,1.1-4,3.2h-4.1v-0.2c0-2,0.7-3.6,2.2-4.8
				c1.5-1.1,3.4-1.7,5.9-1.7c2.5,0,4.5,0.6,5.8,1.8c1.4,1.2,2.1,2.9,2.1,5.1v11.8H296.4z M296.4,20.1h-4.9c-2.1,0-3.1,0.8-3.1,2.4
				c0,0.7,0.2,1.2,0.6,1.5c0.4,0.4,0.9,0.5,1.6,0.5c1,0,2-0.3,3.2-0.9l2.7-1.4V20.1z"/>
			<path class="st0" d="M276.3,27.7v-2.1l-2,1.2c-1.3,0.8-2.6,1.2-4.1,1.2c-1.8,0-3.2-0.5-4.2-1.6c-1-1.1-1.6-2.5-1.6-4.3V9.3h4.3
				v12.1c0,0.8,0.2,1.5,0.7,2c0.4,0.5,1,0.7,1.8,0.7c0.7,0,1.5-0.3,2.4-0.8l2.7-1.6V9.3h4.2v18.4H276.3z"/>
			<path class="st0" d="M256.1,27.7v-2l-2.1,1.2c-1.3,0.7-2.7,1.1-4.1,1.1c-1.9,0-3.4-0.6-4.6-1.7c-1.2-1.2-1.7-2.7-1.7-4.6v-6.2
				c0-1.9,0.6-3.4,1.8-4.6s2.7-1.8,4.6-1.8c1.4,0,2.8,0.4,4,1.1l2.1,1.2V1.8h4.1v25.9H256.1z M256.1,15.3l-2.9-1.6
				c-0.9-0.5-1.7-0.7-2.6-0.7c-0.9,0-1.6,0.3-2.1,0.8c-0.5,0.5-0.8,1.3-0.8,2.2v5.2c0,0.9,0.3,1.7,0.8,2.2c0.5,0.5,1.2,0.8,2.1,0.8
				c0.8,0,1.7-0.2,2.6-0.7l2.9-1.6V15.3z"/>
			<path class="st0" d="M235.6,27.7v-2.1l-1.9,1c-1.7,0.9-3.3,1.3-4.8,1.3c-1.6,0-2.9-0.5-4-1.4c-1-1-1.5-2.2-1.5-3.8
				c0-1.8,0.6-3.2,1.9-4.2c1.3-1,2.9-1.4,4.9-1.4h5.5V16c0-2.3-1.3-3.5-3.8-3.5c-2.7,0-4,1.1-4,3.2h-4.1v-0.2c0-2,0.7-3.6,2.2-4.8
				c1.5-1.1,3.4-1.7,5.9-1.7c2.5,0,4.5,0.6,5.8,1.8c1.4,1.2,2.1,2.9,2.1,5.1v11.8H235.6z M235.6,20.1h-4.9c-2.1,0-3.1,0.8-3.1,2.4
				c0,0.7,0.2,1.2,0.6,1.5c0.4,0.4,0.9,0.5,1.6,0.5c1,0,2-0.3,3.2-0.9l2.7-1.4V20.1z"/>
			<path class="st0" d="M210.7,27.7V9.3h4.2v2.6l0.8-0.8c1.4-1.3,2.9-2,4.5-2h1.1v4.3h-1c-1.5,0-2.8,0.4-3.9,1.3l-1.4,1.2v11.8
				H210.7z"/>
			<path class="st0" d="M206.5,18.9c0,3-1,5.2-2.9,6.8c-1.9,1.6-4.5,2.4-7.7,2.4c-3.2,0-5.8-0.9-7.8-2.7c-2-1.8-3-4.4-3-8v-5.2
				c0-3.6,1-6.3,3-8c2-1.8,4.6-2.7,7.8-2.7c3.3,0,5.8,0.8,7.7,2.4c1.9,1.6,2.9,3.9,2.9,6.9v0.4h-4.7c0-1.9-0.5-3.3-1.6-4.3
				c-1-1-2.5-1.4-4.4-1.4c-4.1,0-6.2,2.3-6.2,6.9v4.7c0,4.6,2.1,6.9,6.2,6.9c2,0,3.5-0.5,4.5-1.4c1-0.9,1.5-2.3,1.5-4.1H197v-3.5
				h9.4V18.9z"/>
			<rect x="170.8" y="15.6" class="st0" width="10.4" height="3.8"/>
			<path class="st0" d="M163.3,15.3c0-1.9-1.2-2.9-3.7-2.9c-1.1,0-2,0.2-2.6,0.6c-0.6,0.4-0.9,1-0.9,1.6c0,0.8,0.4,1.3,1.2,1.7
				c0.8,0.3,1.7,0.6,2.9,0.7c1.1,0.1,2.3,0.3,3.4,0.5s2.1,0.7,2.9,1.5c0.8,0.8,1.2,1.8,1.2,3.2c0,1.8-0.7,3.2-2.1,4.2
				c-1.4,1-3.4,1.5-5.8,1.5c-2.5,0-4.5-0.5-5.9-1.6c-1.4-1.1-2.1-2.5-2.1-4.4v-0.2h4.3c0,1.9,1.3,2.9,3.8,2.9c1.2,0,2.1-0.2,2.8-0.6
				c0.7-0.4,1-1,1-1.6c0-0.6-0.3-1-0.9-1.4c-0.6-0.3-1.3-0.5-2.1-0.6c-0.9-0.1-1.8-0.2-2.8-0.4c-1-0.2-1.9-0.4-2.8-0.7
				c-0.9-0.3-1.6-0.8-2.1-1.6c-0.6-0.8-0.9-1.7-0.9-2.9c0-1.8,0.7-3.2,2.1-4.2c1.4-1,3.3-1.5,5.7-1.5c2.5,0,4.4,0.5,5.8,1.6
				c1.3,1.1,2,2.5,2,4.4v0.2H163.3z"/>
			<g>
				<path class="st0" d="M148.2,20.6c0,2.3-0.8,4.1-2.3,5.5c-1.5,1.4-3.5,2-6,2s-4.5-0.7-6-2c-1.5-1.4-2.3-3.2-2.3-5.5v-4
					c0-2.3,0.8-4.1,2.3-5.5c1.5-1.4,3.5-2,6-2s4.5,0.7,6,2c1.5,1.4,2.3,3.2,2.3,5.5V20.6z M144.1,17c0-1.3-0.4-2.4-1.2-3.2
					c-0.8-0.8-1.8-1.1-3.1-1.1c-1.3,0-2.3,0.4-3.1,1.1c-0.8,0.8-1.2,1.8-1.2,3.2v3.2c0,1.3,0.4,2.4,1.2,3.2c0.8,0.8,1.8,1.1,3.1,1.1
					c1.3,0,2.3-0.4,3.1-1.1c0.8-0.8,1.2-1.8,1.2-3.2V17z"/>
				<polygon class="st0" points="136.6,6.9 140.4,1.8 145.8,1.8 141.3,6.9 				"/>
			</g>
			<path class="st0" d="M110.2,27.7V1.8h10.9c2.4,0,4.3,0.7,5.8,2.1s2.3,3.4,2.3,5.9c0,2.5-0.8,4.5-2.5,5.9
				c-1.7,1.5-3.6,2.2-5.9,2.2h-6.1v9.8H110.2z M120.6,13.9c1.2,0,2.2-0.4,3-1.1s1.1-1.8,1.1-3.1c0-1.3-0.3-2.3-1-2.9
				c-0.7-0.7-1.7-1-2.9-1h-5.9v8.2H120.6z"/>
		</g>
	</g>
	<g>
		<path class="st1" d="M94.9,62.6H81.7c-0.5,0-0.9,0.4-0.9,0.9v31.1c0,0.5,0.4,0.9,0.9,0.9h13.2c0.5,0,0.9-0.4,0.9-0.9V63.5
			C95.8,63,95.4,62.6,94.9,62.6z"/>
		<path class="st1" d="M74.7,68.6H61.5c-0.5,0-0.9,0.4-0.9,0.9v25.2c0,0.5,0.4,0.9,0.9,0.9h13.2c0.5,0,0.9-0.4,0.9-0.9V69.5
			C75.6,69,75.2,68.6,74.7,68.6z"/>
		<path class="st1" d="M54.5,77.6H41.3c-0.5,0-0.9,0.4-0.9,0.9v16.2c0,0.5,0.4,0.9,0.9,0.9h13.2c0.5,0,0.9-0.4,0.9-0.9V78.5
			C55.4,78,55,77.6,54.5,77.6z"/>
		<path class="st1" d="M34.3,68.6H21.1c-0.5,0-0.9,0.4-0.9,0.9v25.2c0,0.5,0.4,0.9,0.9,0.9h13.2c0.5,0,0.9-0.4,0.9-0.9V69.5
			C35.2,69,34.8,68.6,34.3,68.6z"/>
		<path class="st1" d="M14.1,83.5H0.9c-0.5,0-0.9,0.4-0.9,0.9v10.2c0,0.5,0.4,0.9,0.9,0.9h13.2c0.5,0,0.9-0.4,0.9-0.9V84.4
			C15,83.9,14.6,83.5,14.1,83.5z"/>
		<path class="st0" d="M94.8,36.3l-4.7,1.6c-0.5,0.2-0.9,0.6-1,1.1c-0.2,0.7-0.3,1.3-0.5,2c-0.2,0.5,0,1.1,0.3,1.4l3.3,3.7
			c0.4,0.5,0.5,1.2,0.2,1.7l-1.9,3.3c-0.3,0.6-1,0.8-1.6,0.7l-4.8-1c-0.5-0.1-1,0.1-1.4,0.5c-0.5,0.5-0.9,1-1.4,1.4
			c-0.4,0.4-0.6,0.9-0.5,1.4l1,4.8c0.1,0.6-0.2,1.3-0.7,1.6l-3.3,1.9c-0.6,0.3-1.3,0.3-1.7-0.2L72.3,59c-0.4-0.4-0.9-0.5-1.4-0.3
			c-0.6,0.2-1.3,0.4-2,0.5c-0.5,0.1-0.9,0.5-1.1,1l-1.6,4.7c-0.2,0.6-0.8,1-1.4,1H61c-0.6,0-1.2-0.4-1.4-1L58,60.2
			c-0.2-0.5-0.6-0.9-1.1-1c-0.7-0.2-1.3-0.3-2-0.5c-0.5-0.2-1.1,0-1.4,0.3l-3.7,3.3c-0.5,0.4-1.2,0.5-1.7,0.2l-3.3-1.9
			c-0.6-0.3-0.8-1-0.7-1.6l1-4.8c0.1-0.5-0.1-1-0.5-1.4c-0.5-0.5-1-0.9-1.4-1.4c-0.4-0.4-0.9-0.6-1.4-0.5l-4.8,1
			c-0.6,0.1-1.3-0.2-1.6-0.7l-1.9-3.3c-0.3-0.6-0.3-1.3,0.2-1.7l3.3-3.7c0.4-0.4,0.5-0.9,0.3-1.4c-0.2-0.6-0.4-1.3-0.5-2
			c-0.1-0.5-0.5-0.9-1-1.1L31,36.3c-0.6-0.2-1-0.8-1-1.4V31c0-0.6,0.4-1.2,1-1.4l4.7-1.6c0.5-0.2,0.9-0.6,1-1.1
			c0.2-0.7,0.3-1.3,0.5-2c0.2-0.5,0-1.1-0.3-1.4l-3.3-3.7c-0.4-0.5-0.5-1.2-0.2-1.7l1.9-3.3c0.3-0.6,1-0.8,1.6-0.7l4.8,1
			c0.5,0.1,1-0.1,1.4-0.5c0.5-0.5,0.9-1,1.4-1.4c0.4-0.4,0.6-0.9,0.5-1.4L44,7c-0.1-0.6,0.2-1.3,0.7-1.6l3.3-1.9
			c0.6-0.3,1.3-0.3,1.7,0.2l3.7,3.3c0.4,0.4,0.9,0.5,1.4,0.3c0.6-0.2,1.3-0.4,2-0.5c0.5-0.1,0.9-0.5,1.1-1L59.5,1
			c0.2-0.6,0.8-1,1.4-1h3.8c0.6,0,1.2,0.4,1.4,1l1.6,4.7c0.2,0.5,0.6,0.9,1.1,1c0.7,0.2,1.3,0.3,2,0.5c0.5,0.2,1.1,0,1.4-0.3L76,3.6
			c0.5-0.4,1.2-0.5,1.7-0.2L81,5.4c0.6,0.3,0.8,1,0.7,1.6l-1,4.8c-0.1,0.5,0.1,1,0.5,1.4c0.5,0.5,1,0.9,1.4,1.4
			c0.4,0.4,0.9,0.6,1.4,0.5l4.8-1c0.6-0.1,1.3,0.2,1.6,0.7l1.9,3.3c0.3,0.6,0.3,1.3-0.2,1.7l-3.3,3.7c-0.4,0.4-0.5,0.9-0.3,1.4
			c0.2,0.6,0.4,1.3,0.5,2c0.1,0.5,0.5,0.9,1,1.1l4.7,1.6c0.6,0.2,1,0.8,1,1.4v3.8C95.8,35.5,95.4,36.1,94.8,36.3z M62.9,9
			c-13.2,0-24,10.7-24,24s10.7,24,24,24s24-10.7,24-24S76.1,9,62.9,9z"/>
		<path class="st0" d="M83.8,32.9c0,11.6-9.4,21-21,21s-21-9.4-21-21s9.4-21,21-21S83.8,21.4,83.8,32.9z M62.9,15c-9.9,0-18,8-18,18
			s8,18,18,18s18-8,18-18S72.8,15,62.9,15z"/>
		<path class="st1" d="M33.3,27.3l-4,0.4c-0.3,0-0.5,0.2-0.7,0.4c-0.3,0.5-0.7,0.9-1,1.4c-0.2,0.2-0.3,0.5-0.2,0.7l0.7,4
			c0.1,0.4-0.1,0.7-0.4,0.9L25,36.6c-0.3,0.2-0.7,0.2-1-0.1l-3.1-2.6c-0.2-0.2-0.5-0.2-0.7-0.2c-0.6,0.1-1.1,0.2-1.7,0.2
			c-0.3,0-0.5,0.1-0.7,0.4l-2.4,3.3c-0.2,0.3-0.6,0.4-1,0.3l-2.8-0.8c-0.4-0.1-0.6-0.4-0.7-0.8l-0.4-4c0-0.3-0.2-0.5-0.4-0.7
			c-0.5-0.3-0.9-0.7-1.4-1c-0.2-0.2-0.5-0.3-0.7-0.2l-4,0.7c-0.4,0.1-0.7-0.1-0.9-0.4l-1.5-2.6c-0.2-0.3-0.2-0.7,0.1-1L4.3,24
			c0.2-0.2,0.2-0.5,0.2-0.7c-0.1-0.6-0.2-1.1-0.2-1.7c0-0.3-0.1-0.5-0.4-0.7l-3.3-2.4c-0.3-0.2-0.4-0.6-0.3-1L1,14.7
			c0.1-0.4,0.4-0.6,0.8-0.7l4-0.4c0.3,0,0.5-0.2,0.7-0.4c0.3-0.5,0.7-0.9,1-1.4c0.2-0.2,0.3-0.5,0.2-0.7l-0.7-4
			C7,6.8,7.2,6.4,7.5,6.2l2.6-1.5c0.3-0.2,0.7-0.2,1,0.1l3.1,2.6c0.2,0.2,0.5,0.2,0.7,0.2c0.6-0.1,1.1-0.2,1.7-0.2
			c0.3,0,0.5-0.1,0.7-0.4l2.4-3.3c0.2-0.3,0.6-0.4,1-0.3l2.8,0.8c0.4,0.1,0.6,0.4,0.7,0.8l0.4,4c0,0.3,0.2,0.5,0.4,0.7
			c0.5,0.3,0.9,0.7,1.4,1c0.2,0.2,0.5,0.3,0.7,0.2l4-0.7c0.4-0.1,0.7,0.1,0.9,0.4l1.5,2.6c0.2,0.3,0.2,0.7-0.1,1l-2.6,3.1
			c-0.2,0.2-0.2,0.5-0.2,0.7c0.1,0.6,0.2,1.1,0.2,1.7c0,0.3,0.1,0.5,0.4,0.7l3.3,2.4c0.3,0.2,0.4,0.6,0.3,1l-0.8,2.8
			C34,27,33.7,27.2,33.3,27.3z M17.6,9.6c-6.1,0-11.1,5-11.1,11.1s5,11.1,11.1,11.1s11.1-5,11.1-11.1S23.7,9.6,17.6,9.6z"/>
		<path class="st1" d="M17.6,11.1c-5.3,0-9.6,4.3-9.6,9.6s4.3,9.6,9.6,9.6s9.6-4.3,9.6-9.6S22.8,11.1,17.6,11.1z M17.6,28.1
			c-4.1,0-7.5-3.4-7.5-7.5s3.4-7.5,7.5-7.5s7.5,3.4,7.5,7.5S21.7,28.1,17.6,28.1z"/>
		<path class="st1" d="M17.6,15.6c-2.8,0-5.1,2.3-5.1,5.1c0,2.8,2.3,5.1,5.1,5.1c2.8,0,5.1-2.3,5.1-5.1
			C22.6,17.8,20.4,15.6,17.6,15.6z M17.6,23.7c-1.7,0-3-1.3-3-3c0-1.7,1.3-3,3-3s3,1.3,3,3C20.6,22.3,19.2,23.7,17.6,23.7z"/>
		<path class="st1" d="M31.3,46.6l-6.9,6.9c-0.2,0.2-0.6,0.2-0.8,0L12.4,42.3c-0.2-0.2-0.6-0.2-0.8,0L0.4,53.5
			C0.2,53.7,0,54.1,0,54.5v7.7c0,1.3,1.6,2,2.6,1.1l9-9c0.2-0.2,0.6-0.2,0.8,0l11.1,11.1c0.2,0.2,0.6,0.2,0.8,0l11.4-11.4
			C33.9,51.8,32.4,49.3,31.3,46.6z"/>
		<path class="st1" d="M63.3,32.5c-0.2,0.2-0.6,0.2-0.8,0l-8.1-8.1c-0.2-0.2-0.6-0.2-0.8,0l-7,7c0,0.5-0.1,1-0.1,1.6
			c0,3,0.8,5.8,2.2,8.2l4.8-4.8c0.2-0.2,0.6-0.2,0.8,0l8.1,8.1c0.2,0.2,0.6,0.2,0.8,0L78.8,29c-0.7-2.9-2.2-5.6-4.3-7.7L63.3,32.5z"
			/>
		<path class="st1" d="M95.4,12.4c0.3-0.3,0.4-0.7,0.4-1.1V3.6c0-1.3-1.6-2-2.6-1.1l-6,6c2,2,3.8,4.3,5.2,6.7L95.4,12.4z"/>
	</g>
</g>
</svg>
