<?xml version="1.0" encoding="utf-8"?>
<!-- Generator: Adobe Illustrator 23.0.1, SVG Export Plug-In . SVG Version: 6.00 Build 0)  -->
<svg version="1.1" id="Layer_1" xmlns="http://www.w3.org/2000/svg" xmlns:xlink="http://www.w3.org/1999/xlink" x="0px" y="0px"
	 viewBox="0 0 800 307.4" style="enable-background:new 0 0 800 307.4;" xml:space="preserve">
<style type="text/css">
	.st0{fill:#B01116;}
	.st1{fill:#4A555C;}
</style>
<g>
	<path class="st0" d="M696.7,41.8c-3.7,2.8-6.9,5.1-9.4,6.9c-2.5,1.8-4.8,3.3-6.7,4.5c-1.9,1.2-3.7,2.4-5.4,3.8
		c-2.7,2.1-7.5,1.6-14.4-1.6c-5.7-2.6-4.3-7.1,4-13.4c-0.2,0.1,0-0.1,0.6-0.6l0.7-0.4c1.4-0.9,3-1.9,4.6-3l1.1-1.2l0.2-0.1
		c4.2-2.8,10.1-6.6,17.5-11.4c7.4-4.9,13.6-8.7,18.5-11.4c4.9-2.8,10.3-5.2,16.1-7.4c5.8-2.2,12.2-4.3,19.3-6.2
		c2.2,1.7,4.1,3.3,5.6,4.7c4,5.1,2.3,9-4.9,11.9c-1,0.5-2.5,1-4.4,1.6c-1.6,0.5-3.6,1.3-5.9,2.3c-2.3,1.1-4.9,2.3-7.8,3.7
		c0,3.4,0.1,9.1,0.1,17.3c0,8.1-0.1,17.7-0.6,28.5c-0.4,10.9-1,22.7-1.9,35.4c-0.9,12.7-2.1,25.2-3.8,37.7
		c-1.7,12.4-3.8,24.2-6.5,35.3c-2.6,11.1-5.8,20.7-9.5,28.7c-5,3.4-9.7,5.9-14,7.5c-4.3,1.6-8.3,2.5-12,2.6
		c-3.7,0.1-7.2-0.3-10.5-1.4c-3.3-1.1-6.1-2.6-8.7-4.7c-0.8-0.5-1.3-1.1-1.7-1.5c-0.3-0.5-0.8-0.9-1.5-1.4
		c-3.4-3.5-6.4-7.2-8.7-11.1c-2.4-3.9-4.4-8-6-12.3c-1.7-4.6-2.9-9.2-3.9-13.8c-0.9-4.6-1.6-8.9-2-12.9c-0.4-4-0.6-7.6-0.7-10.7
		c-0.1-3.1,0-5.5,0.1-7.1c0.2-5.9,0.6-11.9,1.3-17.9c0.7-6,1.7-12.4,3-19.2c2-1.9,4-3.5,6.1-4.7c1.8-1.1,3.8-1.9,6-2.5
		c2.2-0.6,4-0.4,5.4,0.7c1.3,1,1,4.3-1.2,9.9l-0.1,0.8c-0.3,1.7-0.9,5.6-1.7,11.6c-0.8,6-1.3,13.3-1.4,21.9l-0.2,0.6
		c-0.1,2.6,0,7.1,0.3,13.5c0.2,6.4,1.2,13.4,2.8,20.9c0.3,0.8,0.5,1.6,0.7,2.4c0.2,0.8,0.4,1.6,0.7,2.4c1.2,3.7,2.5,7.3,4.1,10.8
		c1.5,3.5,3.4,6.5,5.5,9c2.1,2.5,4.6,4.4,7.5,5.6c2.9,1.2,6.2,1.4,10,0.4c1.2-0.4,3.1-1.1,5.5-2.1c0.1-0.1,0.3-0.4,0.4-1
		c0.2-0.5,0.4-1,0.6-1.6c0.2-0.6,0.4-1.4,0.8-2.5c0-0.5,0.7-2.9,1.9-7.2c1.2-4.2,2.6-10,4.1-17.3c1.5-7.3,3.2-16,5-26
		c1.8-10,3.3-21,4.6-33c1.2-12,2-24.8,2.4-38.6c0.3-13.7,0.1-28-0.8-42.7c-3.2,2.1-6.6,4.4-10.4,6.9L696.7,41.8z"/>
	<path class="st0" d="M733.9,96.2c0.1-4.5,0.4-8.4,0.9-11.8c-0.1-0.5-0.2-0.9-0.3-1.4l0.3-0.4c0.1-3.4,0.3-6.7,0.8-9.7
		c0.2-1.7,0.4-3.2,0.4-4.6c0.4-3.7,3.3-3.5,8.6,0.6c5.3,4.1,8.3,7.1,9.1,9c0,0.7-0.1,1.5-0.5,2.6c0,0.7-0.1,1.6-0.3,2.8
		c-0.2,1.2-0.3,2.6-0.4,3.9l-0.9,5.1c-0.1,1.4-0.2,2.9-0.4,4.6c-0.3,2.9-0.7,6.3-1.1,10.1c2.1-8.1,4.3-15.5,6.7-22.2
		c2.4-6.7,4.6-12.7,6.8-17.9c2.4-5.7,4.7-11.1,7-16.3c0.6,0,1.5-0.2,2.8-0.6c1.2-0.3,2.7-0.5,4.3-0.4c1.6,0.1,3.5,0.5,5.5,1.1
		c2,0.6,4,1.8,6,3.5c1.4,3.8,2.2,7.6,2.5,11.5c0.3,3.9,0.4,7.5,0.2,10.9c-0.2,3.4-0.6,6.3-1.1,8.9c-0.5,2.6-1,4.5-1.5,5.6
		c-2.6,1.3-5.3,2.2-8,2.8c-2.3,0.5-4.8,0.8-7.6,0.9c-2.8,0.1-5.3-0.5-7.6-1.8l0.7-2.7l1.2,0c1.8-0.1,3.2-1.3,4.1-3.7
		c0.9-2.3,1.5-4.9,1.7-7.8c0.3-3.4,0.3-7.1,0-11.2c0-0.9,0-1.6-0.2-2.2c-0.2-0.6-0.3-1.4-0.3-2.4c-1.4,3.6-3.4,8.7-5.8,15.3
		c-2.4,6.6-4.8,14.3-7.2,23.2c-2.3,8.9-4.4,18.8-6.1,29.6c-1.8,10.9-2.7,22.3-2.7,34.5c-0.2,1.5-1.1,2.4-2.7,2.9l-0.2,0.1
		c-1.9,0.3-3.3,0.5-4.2,0.5c-2.8-0.2-4.9-0.8-6.5-1.9c-1.5-1.1-2.6-2-3.1-2.7c-0.5-5.8-1-11.7-1.3-17.6c-0.3-5.9-0.5-11.5-0.6-16.7
		c0.1-6.2,0.2-11.5,0.4-15.9c0.2-4.4,0.3-7.2,0.4-8.3c0-2.1,0.1-4.1,0.2-6.3C733.8,98.9,733.8,97.6,733.9,96.2z"/>
	<path class="st0" d="M797,141.2c-1.9,4.4-3.7,7.3-5.2,8.5c-1.5,1.3-2.9,1.9-4,1.9c-1.3-0.1-2.4-0.9-3.2-2.4
		c-0.8-1.5-1.3-3.4-1.6-5.7c-0.2-2.2-0.2-4.5,0.1-6.7c0.3-2.2,0.9-4.4,1.7-6.4s1.9-3.6,3.3-4.6c1.1-1.2,2.3-2,3.5-2.4
		c1.2-0.4,2.4-0.7,3.6-0.9c0.4-0.2,1.2-0.2,2.5,0c1.3,0.2,2,1.4,2.2,3.5c0.3,1.7,0,3.9-0.7,6.7C798.4,135.6,797.7,138.4,797,141.2z"
		/>
	<g>
		<polygon class="st1" points="32.3,140.9 32.3,215.2 0,215.2 0,35.6 116.6,35.6 116.6,64.1 32.3,64.1 32.3,112.4 109.3,112.4 
			109.3,140.9 		"/>
		<path class="st1" d="M607.6,168.9c0,31.9-22,48.5-55.1,48.5c-32.8,0-54.8-18.1-54.8-49.7V136c0-31.6,22-50,54.8-50
			c33.1,0,55.1,16.9,55.1,48.8v2.2h-28.2c0-18.1-9.9-25.6-26.8-25.6c-16.6,0-26.3,8.7-26.3,27V165c0,18.4,9.7,27,26.3,27
			c16.9,0,26.8-7.2,26.8-25.3h28.2V168.9z"/>
		<path class="st1" d="M214.7,215.2v-14.7l-13.3,7.2c-11.8,6.3-21,9.2-33.6,9.2c-22.7,0-37.9-14.7-37.9-36.2
			c0-26.5,20.8-38.9,47.1-38.9h37.9v-7.5c0-16.4-9.4-24.4-26.1-24.4c-17.4,0-27.5,7.2-27.5,22.2h-28.5v-1.7
			c0-28.7,22.7-44.9,55.8-44.9c34.8,0,54.8,17.4,54.8,47.8v81.8H214.7z M214.7,162.6h-33.8c-17.6,0-21.7,8.2-21.7,16.7
			c0,8.9,5.5,14.2,15.2,14.2c8,0,14.7-2.4,22-6.3l18.3-9.9V162.6z"/>
		<path class="st1" d="M327.5,215.2c-29.5,0-48.5-14.7-48.5-43.7v-58.7h-19.3V88h19.3V53.5h29.9V88h35.2v24.9h-35.2v57
			c0,15,6.8,20,21,20h15v25.3H327.5z"/>
		<path class="st1" d="M472.3,175.1c0,25.8-22.2,42.2-55.8,42.2c-32.8,0-56.2-17.9-56.2-49v-30.2c0-32.1,23.4-52.1,56.2-52.1
			c33.1,0,56,19.1,56,52.6v22.4h-84.5v6.3c0,18.1,12.1,26.1,28.7,26.1c16.4,0,27.5-5.8,27.5-19.6h28V175.1z M445.1,138.2
			c0-18.1-10.6-28-28.2-28c-17.8,0-28.7,9.9-28.7,28.2v3.1h57V138.2z"/>
	</g>
	<g>
		<polygon class="st0" points="216.9,294 216.9,250 202,250 202,241.8 241.3,241.8 241.3,250 226.6,250 226.6,294 		"/>
		<path class="st0" d="M265.2,294v-4.3l-3.9,2.1c-3.4,1.8-6.1,2.7-9.7,2.7c-6.6,0-11-4.3-11-10.5c0-7.7,6-11.3,13.7-11.3h11v-2.2
			c0-4.8-2.7-7.1-7.6-7.1c-5,0-8,2.1-8,6.4h-8.3v-0.5c0-8.3,6.6-13,16.2-13c10.1,0,15.9,5,15.9,13.9V294H265.2z M265.2,278.7h-9.8
			c-5.1,0-6.3,2.4-6.3,4.8c0,2.6,1.6,4.1,4.4,4.1c2.3,0,4.3-0.7,6.4-1.8l5.3-2.9V278.7z"/>
		<path class="st0" d="M306.3,306.9v-17l-4.2,2.3c-2.9,1.5-5.5,2.2-8.3,2.2c-7.6,0-12.7-5.1-12.7-12.6v-12.4
			c0-7.5,5.2-12.8,12.8-12.8c2.6,0,5.3,0.6,8.1,2.2l4.3,2.3v-4h8.3v49.8H306.3z M306.3,268.9l-5.9-3.3c-1.5-0.8-3.2-1.4-5.2-1.4
			c-3.5,0-5.8,2.4-5.8,6v10.5c0,3.6,2.3,6,5.8,6c2,0,3.6-0.6,5.2-1.5l5.9-3.2V268.9z"/>
		<path class="st0" d="M347.1,294v-4.3l-3.9,2.3c-2.6,1.6-5.3,2.4-8.2,2.4c-7.2,0-11.6-4.8-11.6-12V257h8.6v24.3
			c0,3.2,1.9,5.4,4.9,5.4c1.8,0,3.3-0.7,4.8-1.6l5.4-3.2v-25h8.5V294H347.1z"/>
		<path class="st0" d="M387.5,294v-4.3l-3.9,2.1c-3.4,1.8-6.1,2.7-9.7,2.7c-6.6,0-11-4.3-11-10.5c0-7.7,6-11.3,13.7-11.3h11v-2.2
			c0-4.8-2.7-7.1-7.6-7.1c-5,0-8,2.1-8,6.4h-8.3v-0.5c0-8.3,6.6-13,16.2-13c10.1,0,15.9,5,15.9,13.9V294H387.5z M387.5,278.7h-9.8
			c-5.1,0-6.3,2.4-6.3,4.8c0,2.6,1.6,4.1,4.4,4.1c2.3,0,4.3-0.7,6.4-1.8l5.3-2.9V278.7z"/>
		<path class="st0" d="M404.2,294V257h8.5v5.3l1.6-1.6c2.7-2.6,5.5-3.9,9.1-3.9h2.2v8.6h-2.1c-3.2,0-5.3,0.6-7.8,2.5l-2.9,2.4V294
			H404.2z"/>
		<path class="st0" d="M440.4,247.1c0,2.6-2,4-4.8,4c-2.7,0-4.8-1.4-4.8-4v-1.5c0-2.7,2.1-4.1,4.8-4.1c2.8,0,4.8,1.4,4.8,4.1V247.1z
			 M431.2,257h8.7V294h-8.7V257z"/>
		<path class="st0" d="M465.6,294c-8.6,0-14.1-4.3-14.1-12.7v-17h-5.6V257h5.6v-10h8.7v10h10.2v7.2h-10.2v16.5c0,4.3,2,5.8,6.1,5.8
			h4.3v7.4H465.6z"/>
		<path class="st0" d="M486.6,247.1c0,2.6-2,4-4.8,4c-2.7,0-4.8-1.4-4.8-4v-1.5c0-2.7,2.1-4.1,4.8-4.1c2.8,0,4.8,1.4,4.8,4.1V247.1z
			 M477.4,257h8.7V294h-8.7V257z"/>
		<path class="st0" d="M518.7,294v-24.3c0-2.8-1.5-5.5-4.9-5.5c-1.9,0-3.3,0.7-4.8,1.6l-5.4,3.2V294h-8.5V257h8.4v4.3l3.9-2.4
			c2.8-1.8,5.4-2.3,8.2-2.4c7.2,0,11.6,4.8,11.6,12V294H518.7z"/>
		<path class="st0" d="M543.2,280.6c-1.7,0-2.5,0.8-2.5,2.5c0,1.5,0.9,2.3,2.4,2.3h14.3c8.6,0,13.2,3.3,13.2,10.2
			c0,7.7-6.9,11.8-17,11.8c-11.4,0-16.5-5.1-16.5-14v-3.7c-2.3-1.1-3.6-3.2-3.6-6.6c0-4,2.1-6.4,5-7.1c0,0-2.7-2.1-2.7-7
			c0-7.8,5.5-11.8,13.6-11.8h21.4v7.1h-5.3c0,0,1.8,1.5,1.8,5c0,7.1-5.2,11.4-13.4,11.4H543.2z M552.8,274.4c4.5,0,7-1.7,7-5.5
			c0-3.6-2.3-5.4-6.3-5.4h-3.2c-4,0-6.4,1.3-6.4,5.5c0,3.7,2.3,5.3,6.3,5.3H552.8z M544.8,291.6v1.5c0,5,2.1,7.8,8.8,7.8
			c5.9,0,9-1.6,9-5.3c0-3.2-2.5-4.1-6.3-4.1H544.8z"/>
		<path class="st0" d="M599.7,294v-4.3l-3.9,2.1c-3.4,1.8-6.1,2.7-9.7,2.7c-6.6,0-11-4.3-11-10.5c0-7.7,6-11.3,13.7-11.3h11v-2.2
			c0-4.8-2.7-7.1-7.6-7.1c-5,0-8,2.1-8,6.4h-8.3v-0.5c0-8.3,6.6-13,16.2-13c10.1,0,15.9,5,15.9,13.9V294H599.7z M599.7,278.7h-9.8
			c-5.1,0-6.3,2.4-6.3,4.8c0,2.6,1.6,4.1,4.4,4.1c2.3,0,4.3-0.7,6.4-1.8l5.3-2.9V278.7z"/>
	</g>
</g>
</svg>
