<?xml version="1.0" encoding="utf-8"?>
<!-- Generator: Adobe Illustrator 23.0.1, SVG Export Plug-In . SVG Version: 6.00 Build 0)  -->
<svg version="1.1" id="Layer_1" xmlns="http://www.w3.org/2000/svg" xmlns:xlink="http://www.w3.org/1999/xlink" x="0px" y="0px"
	 viewBox="0 0 800 677.1" style="enable-background:new 0 0 800 677.1;" xml:space="preserve">
<g>
	<path d="M800,321.1c0,0-60.2-255.6-400-255.6S0,321.1,0,321.1S-3.2,0,400,0S800,321.1,800,321.1z"/>
	<path d="M0,356c0,0,60.2,255.6,400,255.6S800,356,800,356s3.2,321.1-400,321.1S0,356,0,356z"/>
	<path d="M95.2,346c0,0,11.1-134.4,65.8-198.8c0,0,90-55.4,218.9-61.6C379.9,85.5,123.2,148.8,95.2,346z"/>
	<path d="M188.1,375.1c0,0,0.7-129.5,65.1-218.9c0,0,94.2-61,227.2-70.7C480.4,85.5,204.7,168.7,188.1,375.1z"/>
	<path d="M609.9,293.3c0,0-4.2,120.5-64.4,227.9c0,0-99.7,63-239.7,63C305.8,584.3,570.4,545.1,609.9,293.3z"/>
	<path d="M708.6,314.8c0,0-10.4,135.1-66.5,215.1c0,0-130.9,68.6-252.5,62.3C389.6,592.2,660.8,555.9,708.6,314.8z"/>
</g>
</svg>
