<?xml version="1.0" encoding="utf-8"?>
<!-- Generator: Adobe Illustrator 24.1.1, SVG Export Plug-In . SVG Version: 6.00 Build 0)  -->
<svg version="1.1" id="Layer_1" xmlns="http://www.w3.org/2000/svg" xmlns:xlink="http://www.w3.org/1999/xlink" x="0px" y="0px"
	 viewBox="0 0 325 100" style="enable-background:new 0 0 325 100;" xml:space="preserve">
<style type="text/css">
	.st0{fill:#4A555C;}
	.st1{fill:#00A096;}
	.st2{fill:#00A0E6;}
</style>
<g>
	<path class="st0" d="M321.9,93.3v-1.5l-1.3,0.7c-1.2,0.6-2.3,0.9-3.4,0.9c-1.1,0-2-0.3-2.8-1c-0.7-0.7-1.1-1.5-1.1-2.6
		c0-1.3,0.4-2.2,1.3-2.9c0.9-0.7,2-1,3.4-1h3.8v-0.8c0-1.6-0.9-2.5-2.6-2.5c-1.8,0-2.8,0.7-2.8,2.2h-2.9v-0.2c0-1.4,0.5-2.5,1.5-3.3
		c1-0.8,2.4-1.2,4.1-1.2c1.7,0,3.1,0.4,4.1,1.3c1,0.8,1.4,2,1.4,3.5v8.2H321.9z M321.9,88h-3.4c-1.5,0-2.2,0.6-2.2,1.7
		c0,0.5,0.1,0.8,0.4,1.1c0.3,0.3,0.6,0.4,1.1,0.4c0.7,0,1.4-0.2,2.2-0.6l1.8-1V88z"/>
	<path class="st0" d="M302.3,88.7c-0.6,0-0.9,0.3-0.9,0.8c0,0.5,0.3,0.8,0.8,0.8h4.9c3.1,0,4.6,1.2,4.6,3.5c0,1.3-0.5,2.3-1.6,3
		c-1.1,0.7-2.5,1.1-4.3,1.1c-3.8,0-5.7-1.6-5.7-4.9v-1.3c-0.8-0.4-1.3-1.1-1.3-2.3c0-0.7,0.2-1.2,0.5-1.6c0.3-0.4,0.7-0.7,1.2-0.8
		c-0.1,0-0.1-0.1-0.3-0.2c-0.1-0.1-0.2-0.4-0.4-0.8c-0.2-0.4-0.3-0.9-0.3-1.4c0-1.3,0.4-2.3,1.3-3c0.8-0.7,2-1.1,3.4-1.1h7.4V83
		h-1.8c0.4,0.3,0.6,0.9,0.6,1.7c0,1.2-0.4,2.2-1.2,2.9c-0.8,0.7-2,1.1-3.4,1.1H302.3z M305.7,86.5c1.6,0,2.4-0.6,2.4-1.9
		c0-1.2-0.7-1.9-2.2-1.9h-1.1c-0.7,0-1.3,0.1-1.7,0.4c-0.4,0.3-0.6,0.8-0.6,1.5c0,1.2,0.7,1.8,2.2,1.8H305.7z M302.9,92.5V93
		c0,0.9,0.2,1.6,0.7,2c0.5,0.4,1.2,0.7,2.4,0.7c2.1,0,3.1-0.6,3.1-1.8c0-1-0.7-1.4-2.2-1.4H302.9z"/>
	<path class="st0" d="M293.8,93.3v-8.4c0-0.5-0.1-1-0.4-1.3c-0.3-0.4-0.7-0.5-1.3-0.5c-0.5,0-1,0.2-1.7,0.6l-1.9,1.1v8.6h-2.9V80.5
		h2.9V82l1.4-0.8c0.8-0.5,1.8-0.8,2.8-0.8c1.2,0,2.2,0.4,2.9,1.1c0.7,0.8,1.1,1.8,1.1,3v8.8H293.8z"/>
	<rect x="279.6" y="80.5" class="st0" width="3" height="12.8"/>
	<path class="st0" d="M282.7,77.1c0,0.4-0.2,0.8-0.5,1c-0.3,0.2-0.7,0.4-1.2,0.4c-0.5,0-0.9-0.1-1.2-0.4c-0.3-0.2-0.5-0.6-0.5-1
		v-0.5c0-0.5,0.2-0.8,0.5-1c0.3-0.2,0.7-0.4,1.2-0.4c0.5,0,0.9,0.1,1.2,0.4s0.5,0.6,0.5,1V77.1z"/>
	<path class="st0" d="M275.5,93.3c-1.5,0-2.7-0.4-3.6-1.1c-0.9-0.8-1.3-1.8-1.3-3.3V83h-1.9v-2.5h1.9v-3.5h3v3.5h3.5V83h-3.5v5.7
		c0,0.7,0.2,1.2,0.5,1.6c0.3,0.3,0.9,0.5,1.6,0.5h1.5v2.5H275.5z"/>
	<rect x="263.6" y="80.5" class="st0" width="3" height="12.8"/>
	<path class="st0" d="M266.7,77.1c0,0.4-0.2,0.8-0.5,1c-0.3,0.2-0.7,0.4-1.2,0.4c-0.5,0-0.9-0.1-1.2-0.4c-0.3-0.2-0.5-0.6-0.5-1
		v-0.5c0-0.5,0.2-0.8,0.5-1c0.3-0.2,0.7-0.4,1.2-0.4c0.5,0,0.9,0.1,1.2,0.4c0.3,0.2,0.5,0.6,0.5,1V77.1z"/>
	<path class="st0" d="M254.2,93.3V80.5h2.9v1.8l0.6-0.6c1-0.9,2-1.4,3.2-1.4h0.8v3h-0.7c-1,0-1.9,0.3-2.7,0.9l-1,0.8v8.2H254.2z"/>
	<path class="st0" d="M248.4,93.3v-1.5l-1.3,0.7c-1.2,0.6-2.3,0.9-3.4,0.9c-1.1,0-2-0.3-2.8-1c-0.7-0.7-1.1-1.5-1.1-2.6
		c0-1.3,0.4-2.2,1.3-2.9c0.9-0.7,2-1,3.4-1h3.8v-0.8c0-1.6-0.9-2.5-2.6-2.5c-1.8,0-2.8,0.7-2.8,2.2h-2.9v-0.2c0-1.4,0.5-2.5,1.5-3.3
		c1-0.8,2.4-1.2,4.1-1.2c1.7,0,3.1,0.4,4.1,1.3c1,0.8,1.4,2,1.4,3.5v8.2H248.4z M248.4,88H245c-1.5,0-2.2,0.6-2.2,1.7
		c0,0.5,0.1,0.8,0.4,1.1c0.3,0.3,0.6,0.4,1.1,0.4c0.7,0,1.4-0.2,2.2-0.6l1.8-1V88z"/>
	<path class="st0" d="M234.4,93.3v-1.5l-1.4,0.8c-0.9,0.6-1.8,0.8-2.8,0.8c-1.2,0-2.2-0.4-2.9-1.1c-0.7-0.8-1.1-1.8-1.1-3v-8.8h3V89
		c0,0.6,0.2,1,0.5,1.4c0.3,0.3,0.7,0.5,1.2,0.5c0.5,0,1-0.2,1.7-0.6l1.9-1.1v-8.6h2.9v12.8H234.4z"/>
	<path class="st0" d="M220.4,97.8v-5.9l-1.5,0.8c-0.9,0.5-1.9,0.8-2.9,0.8c-1.3,0-2.4-0.4-3.2-1.2c-0.8-0.8-1.2-1.9-1.2-3.2v-4.3
		c0-1.3,0.4-2.4,1.2-3.2c0.8-0.8,1.9-1.2,3.2-1.2c0.9,0,1.9,0.3,2.8,0.8l1.5,0.8v-1.4h2.9v17.2H220.4z M220.4,84.6l-2-1.1
		c-0.6-0.3-1.2-0.5-1.8-0.5c-0.6,0-1.1,0.2-1.5,0.6c-0.4,0.4-0.5,0.9-0.5,1.5v3.6c0,0.6,0.2,1.1,0.5,1.5c0.4,0.4,0.9,0.6,1.5,0.6
		c0.6,0,1.2-0.2,1.8-0.5l2-1.1V84.6z"/>
	<path class="st0" d="M206.1,93.3v-1.5l-1.3,0.7c-1.2,0.6-2.3,0.9-3.4,0.9c-1.1,0-2-0.3-2.8-1c-0.7-0.7-1.1-1.5-1.1-2.6
		c0-1.3,0.4-2.2,1.3-2.9c0.9-0.7,2-1,3.4-1h3.8v-0.8c0-1.6-0.9-2.5-2.6-2.5c-1.8,0-2.8,0.7-2.8,2.2h-2.9v-0.2c0-1.4,0.5-2.5,1.5-3.3
		c1-0.8,2.4-1.2,4.1-1.2c1.7,0,3.1,0.4,4.1,1.3c1,0.8,1.4,2,1.4,3.5v8.2H206.1z M206.1,88h-3.4c-1.5,0-2.2,0.6-2.2,1.7
		c0,0.5,0.1,0.8,0.4,1.1c0.3,0.3,0.6,0.4,1.1,0.4c0.7,0,1.4-0.2,2.2-0.6l1.8-1V88z"/>
	<polygon class="st0" points="189.4,93.3 189.4,78.1 184.3,78.1 184.3,75.3 197.8,75.3 197.8,78.1 192.8,78.1 192.8,93.3 	"/>
	<path class="st0" d="M175.3,88.7c0,1.6-0.5,2.8-1.5,3.6c-1,0.8-2.3,1.3-4,1.3c-1.7,0-3-0.4-4-1.3c-1-0.9-1.5-2.1-1.5-3.7v-3.2
		c0-1.6,0.5-2.8,1.5-3.7c1-0.9,2.3-1.3,4-1.3c1.7,0,3,0.4,4,1.3c1,0.8,1.5,2.1,1.5,3.6v0.2h-2.8c0-1.7-0.9-2.6-2.7-2.6
		c-1.8,0-2.6,0.9-2.6,2.7v2.7c0,1.8,0.9,2.7,2.6,2.7c1.8,0,2.7-0.8,2.7-2.5h2.8V88.7z"/>
	<path class="st0" d="M161.7,89.3c0,1.3-0.5,2.3-1.5,3.1c-1,0.8-2.4,1.2-4.1,1.2c-1.7,0-3-0.4-4.1-1.3c-1-0.9-1.6-2.1-1.6-3.6v-3
		c0-1.6,0.5-2.9,1.6-3.8c1.1-0.9,2.4-1.4,4.1-1.4c1.7,0,3.1,0.5,4.1,1.4c1,0.9,1.5,2.2,1.5,3.9v2.3h-8.5v0.6c0,0.9,0.3,1.5,0.8,2
		c0.5,0.4,1.2,0.7,2.1,0.7c1.8,0,2.8-0.7,2.8-2h2.8V89.3z M159,85.6c0-0.9-0.3-1.6-0.8-2.1c-0.5-0.5-1.2-0.7-2.1-0.7
		c-0.9,0-1.6,0.2-2.1,0.7c-0.5,0.5-0.8,1.2-0.8,2.1v0.3h5.7V85.6z"/>
	<path class="st0" d="M147.2,93.3c-1.5,0-2.7-0.4-3.6-1.1c-0.9-0.8-1.3-1.8-1.3-3.3V83h-1.9v-2.5h1.9v-3.5h3v3.5h3.5V83h-3.5v5.7
		c0,0.7,0.2,1.2,0.5,1.6c0.3,0.3,0.9,0.5,1.6,0.5h1.5v2.5H147.2z"/>
	<path class="st0" d="M135.8,93.3v-1.5l-1.3,0.7c-1.2,0.6-2.3,0.9-3.4,0.9c-1.1,0-2-0.3-2.8-1c-0.7-0.7-1.1-1.5-1.1-2.6
		c0-1.3,0.4-2.2,1.3-2.9c0.9-0.7,2-1,3.4-1h3.8v-0.8c0-1.6-0.9-2.5-2.6-2.5c-1.8,0-2.8,0.7-2.8,2.2h-2.9v-0.2c0-1.4,0.5-2.5,1.5-3.3
		c1-0.8,2.4-1.2,4.1-1.2c1.7,0,3.1,0.4,4.1,1.3c1,0.8,1.4,2,1.4,3.5v8.2H135.8z M135.8,88h-3.4c-1.5,0-2.2,0.6-2.2,1.7
		c0,0.5,0.1,0.8,0.4,1.1c0.3,0.3,0.6,0.4,1.1,0.4c0.7,0,1.4-0.2,2.2-0.6l1.8-1V88z"/>
	<polygon class="st0" points="117.5,85.8 117.5,93.3 114.3,93.3 114.3,75.3 126,75.3 126,78.1 117.5,78.1 117.5,83 125.3,83 
		125.3,85.8 	"/>
</g>
<g>
	<rect x="309.2" y="36.5" class="st1" width="4.5" height="27.1"/>
	<path class="st1" d="M300.5,63.6v-2.2l-2,1.1c-1.7,0.9-3.4,1.4-5.1,1.4c-1.7,0-3.1-0.5-4.1-1.5c-1.1-1-1.6-2.3-1.6-3.9
		c0-1.9,0.7-3.4,2-4.4c1.3-1,3-1.5,5.1-1.5h5.7v-1.1c0-2.4-1.3-3.7-3.9-3.7c-2.8,0-4.1,1.1-4.1,3.3h-4.3v-0.3c0-2.1,0.8-3.8,2.3-5
		c1.5-1.2,3.6-1.8,6.1-1.8c2.6,0,4.7,0.6,6.1,1.9c1.4,1.3,2.2,3,2.2,5.3v12.3H300.5z M300.5,55.6h-5.1c-2.2,0-3.3,0.8-3.3,2.5
		c0,0.7,0.2,1.2,0.6,1.6c0.4,0.4,1,0.6,1.7,0.6c1,0,2.1-0.3,3.3-0.9l2.8-1.5V55.6z"/>
	<rect x="279.3" y="44.4" class="st1" width="4.5" height="19.2"/>
	<path class="st1" d="M284.1,39.2c0,0.7-0.2,1.2-0.7,1.5c-0.5,0.4-1.1,0.5-1.8,0.5c-0.7,0-1.3-0.2-1.8-0.5c-0.5-0.4-0.7-0.9-0.7-1.5
		v-0.8c0-0.7,0.2-1.2,0.7-1.6c0.5-0.4,1.1-0.5,1.8-0.5c0.8,0,1.4,0.2,1.8,0.5c0.5,0.4,0.7,0.9,0.7,1.6V39.2z"/>
	<path class="st1" d="M265.3,63.6V44.4h4.4v2.7l0.8-0.8c1.4-1.4,3-2,4.7-2h1.1v4.5h-1.1c-1.6,0-2.9,0.4-4,1.3l-1.5,1.2v12.3H265.3z"
		/>
	<path class="st1" d="M256.6,63.6v-2.2l-2,1.1c-1.7,0.9-3.4,1.4-5.1,1.4c-1.7,0-3.1-0.5-4.1-1.5c-1.1-1-1.6-2.3-1.6-3.9
		c0-1.9,0.7-3.4,2-4.4c1.3-1,3-1.5,5.1-1.5h5.7v-1.1c0-2.4-1.3-3.7-3.9-3.7c-2.8,0-4.1,1.1-4.1,3.3h-4.3v-0.3c0-2.1,0.8-3.8,2.3-5
		c1.5-1.2,3.6-1.8,6.1-1.8c2.6,0,4.7,0.6,6.1,1.9c1.4,1.3,2.2,3,2.2,5.3v12.3H256.6z M256.6,55.6h-5.1c-2.2,0-3.3,0.8-3.3,2.5
		c0,0.7,0.2,1.2,0.6,1.6c0.4,0.4,1,0.6,1.7,0.6c1,0,2.1-0.3,3.3-0.9l2.8-1.5V55.6z"/>
	<path class="st1" d="M236.2,50.6c0-2-1.3-3-3.9-3c-1.2,0-2.1,0.2-2.8,0.7s-1,1-1,1.7c0,0.8,0.4,1.4,1.2,1.7c0.8,0.4,1.8,0.6,3,0.7
		c1.2,0.1,2.4,0.3,3.5,0.5c1.2,0.2,2.2,0.7,3,1.5c0.8,0.8,1.2,1.9,1.2,3.4c0,1.9-0.7,3.3-2.2,4.4c-1.5,1.1-3.5,1.6-6.1,1.6
		c-2.6,0-4.7-0.6-6.2-1.7c-1.5-1.1-2.2-2.6-2.2-4.6v-0.2h4.4c0,2,1.3,3,4,3c1.2,0,2.2-0.2,2.9-0.7c0.7-0.4,1-1,1-1.7
		c0-0.6-0.3-1.1-0.9-1.4c-0.6-0.3-1.3-0.5-2.2-0.6c-0.9-0.1-1.9-0.2-2.9-0.4c-1-0.2-2-0.4-2.9-0.7c-0.9-0.3-1.6-0.9-2.2-1.7
		c-0.6-0.8-0.9-1.8-0.9-3.1c0-1.9,0.7-3.3,2.2-4.4c1.5-1.1,3.4-1.6,6-1.6c2.6,0,4.6,0.6,6,1.7s2.1,2.7,2.1,4.6v0.2H236.2z"/>
	<path class="st1" d="M220.4,57.5c0,1.9-0.8,3.5-2.3,4.6c-1.5,1.2-3.6,1.7-6.1,1.7c-2.5,0-4.6-0.7-6.1-2c-1.6-1.3-2.3-3.1-2.3-5.4
		v-4.5c0-2.4,0.8-4.3,2.4-5.7c1.6-1.4,3.6-2.1,6.1-2.1c2.5,0,4.6,0.7,6.1,2.1c1.5,1.4,2.3,3.3,2.3,5.8v3.4h-12.7v0.9
		c0,1.3,0.4,2.3,1.2,2.9c0.8,0.7,1.8,1,3.1,1c2.8,0,4.1-1,4.1-2.9h4.2V57.5z M216.3,51.9c0-1.4-0.4-2.4-1.1-3.1
		c-0.8-0.7-1.8-1.1-3.1-1.1c-1.4,0-2.4,0.4-3.2,1.1c-0.8,0.7-1.1,1.8-1.1,3.1v0.5h8.6V51.9z"/>
	<path class="st1" d="M190,63.6V44.4h4.4v2.7l0.8-0.8c1.4-1.4,3-2,4.7-2h1.1v4.5H200c-1.6,0-2.9,0.4-4,1.3l-1.5,1.2v12.3H190z"/>
	<path class="st1" d="M168.4,70.2V44.4h4.3v2.1l2.2-1.2c1.4-0.8,2.8-1.1,4.3-1.1c2,0,3.6,0.6,4.8,1.8c1.2,1.2,1.8,2.8,1.8,4.7v6.4
		c0,2-0.6,3.6-1.9,4.8c-1.2,1.2-2.9,1.9-4.8,1.9c-1.4,0-2.8-0.4-4.2-1.1l-2.2-1.2v8.8H168.4z M181.5,51.2c0-0.9-0.3-1.7-0.8-2.3
		c-0.5-0.6-1.3-0.9-2.2-0.9s-1.8,0.2-2.7,0.7l-3,1.7v6.8l3,1.7c0.9,0.5,1.8,0.8,2.7,0.8c0.9,0,1.6-0.3,2.2-0.9
		c0.5-0.6,0.8-1.3,0.8-2.3V51.2z"/>
	<path class="st1" d="M159.5,63.6v-13c0-1.6-0.7-2.4-2-2.4c-0.6,0-1.4,0.3-2.3,0.8l-2.3,1.4v13.2h-4.4v-13c0-1.6-0.7-2.4-2-2.4
		c-0.6,0-1.4,0.2-2.3,0.7l-2.3,1.4v13.2h-4.4V44.4h4.3v2l1.7-1c1.3-0.8,2.7-1.2,4-1.2c2.2,0,3.7,0.9,4.5,2.6l2.1-1.3
		c1.4-0.9,2.9-1.3,4.4-1.3c1.7,0,3,0.5,3.9,1.5c0.9,1,1.4,2.4,1.4,4.3v13.5H159.5z"/>
	<polygon class="st1" points="115.2,63.6 115.2,36.5 133.2,36.5 133.2,40.8 120,40.8 120,47.7 131.8,47.7 131.8,52 120,52 120,59.2 
		133.2,59.2 133.2,63.6 	"/>
	<path class="st1" d="M234.6,22c0,2.4-0.8,4.3-2.4,5.7c-1.6,1.4-3.7,2.1-6.3,2.1c-2.6,0-4.7-0.7-6.3-2.1c-1.6-1.4-2.4-3.3-2.4-5.7
		v-4.2c0-2.4,0.8-4.3,2.4-5.7c1.6-1.4,3.7-2.1,6.3-2.1c2.6,0,4.7,0.7,6.3,2.1c1.6,1.4,2.4,3.3,2.4,5.7V22z M230.4,18.2
		c0-1.4-0.4-2.5-1.2-3.3c-0.8-0.8-1.9-1.2-3.2-1.2c-1.3,0-2.4,0.4-3.2,1.2c-0.8,0.8-1.2,1.9-1.2,3.3v3.3c0,1.4,0.4,2.5,1.2,3.3
		c0.8,0.8,1.9,1.2,3.2,1.2c1.3,0,2.4-0.4,3.2-1.2c0.8-0.8,1.2-1.9,1.2-3.3V18.2z"/>
	<path class="st1" d="M209,29.4v-2.2l-2,1.1c-1.7,0.9-3.4,1.4-5.1,1.4c-1.7,0-3.1-0.5-4.1-1.5c-1.1-1-1.6-2.3-1.6-3.9
		c0-1.9,0.7-3.4,2-4.4c1.3-1,3-1.5,5.1-1.5h5.7v-1.1c0-2.4-1.3-3.7-3.9-3.7c-2.8,0-4.1,1.1-4.1,3.3h-4.3v-0.3c0-2.1,0.8-3.8,2.3-5
		c1.5-1.2,3.6-1.8,6.1-1.8c2.6,0,4.7,0.6,6.1,1.9s2.2,3,2.2,5.3v12.3H209z M209,21.4h-5.1c-2.2,0-3.3,0.8-3.3,2.5
		c0,0.7,0.2,1.2,0.6,1.6c0.4,0.4,1,0.6,1.7,0.6c1,0,2.1-0.3,3.3-0.9l2.8-1.5V21.4z"/>
	<path class="st1" d="M212.8,2.5c0,1.6-0.4,2.8-1.2,3.8c-0.8,1-1.9,1.4-3.3,1.4c-0.8,0-1.6-0.2-2.2-0.6c-0.7-0.4-1.2-0.7-1.7-1.1
		c-0.5-0.4-1-0.5-1.4-0.5c-1,0-1.5,0.7-1.5,2.1H198V7.4c0-1.5,0.4-2.8,1.2-3.7c0.8-1,1.9-1.4,3.3-1.4c0.8,0,1.6,0.2,2.2,0.5
		c0.6,0.4,1.2,0.7,1.7,1.1c0.5,0.4,1,0.5,1.4,0.5c1,0,1.5-0.7,1.5-2.1h3.5V2.5z"/>
	<path class="st1" d="M190.9,29.4c-2.3,0-4.1-0.6-5.4-1.7c-1.3-1.1-1.9-2.8-1.9-4.9v-8.8h-2.9v-3.7h2.9V5h4.5v5.2h5.3v3.7h-5.3v8.6
		c0,1.1,0.3,1.9,0.8,2.3c0.5,0.5,1.3,0.7,2.4,0.7h2.3v3.8H190.9z"/>
	<path class="st1" d="M173.9,16.4c0-2-1.3-3-3.9-3c-1.2,0-2.1,0.2-2.8,0.7c-0.7,0.4-1,1-1,1.7c0,0.8,0.4,1.4,1.2,1.7
		c0.8,0.4,1.8,0.6,3,0.7c1.2,0.1,2.4,0.3,3.5,0.5c1.2,0.2,2.2,0.7,3,1.5c0.8,0.8,1.2,1.9,1.2,3.4c0,1.9-0.7,3.3-2.2,4.4
		c-1.5,1.1-3.5,1.6-6.1,1.6c-2.6,0-4.7-0.6-6.2-1.7c-1.5-1.1-2.2-2.6-2.2-4.6v-0.2h4.4c0,2,1.3,3,4,3c1.2,0,2.2-0.2,2.9-0.7
		c0.7-0.4,1-1,1-1.7c0-0.6-0.3-1.1-0.9-1.4s-1.3-0.5-2.2-0.6c-0.9-0.1-1.9-0.2-2.9-0.4c-1-0.2-2-0.4-2.9-0.7
		c-0.9-0.3-1.6-0.9-2.2-1.7c-0.6-0.8-0.9-1.8-0.9-3.1c0-1.9,0.7-3.3,2.2-4.4c1.5-1.1,3.4-1.6,6-1.6c2.6,0,4.6,0.6,6,1.7
		s2.1,2.7,2.1,4.6v0.2H173.9z"/>
	<path class="st1" d="M158,23.3c0,1.9-0.8,3.5-2.3,4.6c-1.5,1.2-3.6,1.7-6.1,1.7c-2.5,0-4.6-0.7-6.1-2c-1.6-1.3-2.3-3.1-2.3-5.4
		v-4.5c0-2.4,0.8-4.3,2.4-5.7c1.6-1.4,3.6-2.1,6.1-2.1c2.5,0,4.6,0.7,6.1,2.1c1.5,1.4,2.3,3.3,2.3,5.8v3.4h-12.7v0.9
		c0,1.3,0.4,2.3,1.2,2.9c0.8,0.7,1.8,1,3.1,1c2.8,0,4.1-1,4.1-2.9h4.2V23.3z M153.9,17.8c0-1.4-0.4-2.4-1.1-3.1
		c-0.8-0.7-1.8-1.1-3.1-1.1c-1.4,0-2.4,0.4-3.2,1.1c-0.8,0.7-1.1,1.8-1.1,3.1v0.5h8.6V17.8z"/>
	<path class="st1" d="M137.1,20.1c0,3.1-1,5.5-3,7.1c-2,1.7-4.7,2.5-8.1,2.5c-3.3,0-6-0.9-8.2-2.8c-2.1-1.8-3.2-4.6-3.2-8.4v-5.4
		c0-3.7,1.1-6.5,3.2-8.4c2.1-1.9,4.8-2.8,8.2-2.8c3.4,0,6.1,0.8,8.1,2.5c2,1.7,3,4.1,3,7.2v0.4h-4.9c0-2-0.5-3.5-1.6-4.5
		s-2.6-1.5-4.6-1.5c-4.3,0-6.4,2.4-6.4,7.2v4.9c0,4.8,2.1,7.2,6.4,7.2c2.1,0,3.6-0.5,4.7-1.4c1.1-1,1.6-2.4,1.6-4.2h-5v-3.6h9.8
		V20.1z"/>
</g>
<g>
	<rect x="80.8" y="38.5" class="st1" width="19.2" height="61.5"/>
	<rect x="53.8" y="50" class="st1" width="19.2" height="50"/>
	<rect x="26.9" y="61.5" class="st1" width="19.2" height="38.5"/>
	<rect y="73.1" class="st1" width="19.2" height="26.9"/>
	<polygon class="st2" points="100,11.5 69.2,42.3 46.2,19.2 7.7,57.7 0,50 0,38.5 7.7,46.2 46.2,7.7 69.2,30.8 100,0 	"/>
</g>
</svg>
