<?xml version="1.0" encoding="utf-8"?>
<!-- Generator: Adobe Illustrator 23.0.1, SVG Export Plug-In . SVG Version: 6.00 Build 0)  -->
<svg version="1.1" id="Layer_1" xmlns="http://www.w3.org/2000/svg" xmlns:xlink="http://www.w3.org/1999/xlink" x="0px" y="0px"
	 viewBox="0 0 800 349.8" style="enable-background:new 0 0 800 349.8;" xml:space="preserve">
<g>
	<path d="M788,74.5c3.3-3-2.5-0.2-2.7-0.1C786.2,74.5,787.1,74.5,788,74.5z"/>
	<path d="M795.5,32.6c-18.3-11.1-34.5-24.6-56.2-27.2c-19.4-2.3-43.6-8.5-62.8-3.4C659,6.7,641.1,22.3,628,34.6
		c-11.8,11-21.3,24.6-24.1,40.8c-6.3,36.6,21.3,68.6,44.7,93c14.6,15.3,29.4,30.5,44.1,45.9c13.3,13.9,26.8,27.4,34.5,45.4
		c-6.2,2-11.7-1.4-17.3-3.7c3.6,7.5,9.6,7.4,15.9,10.8c7.3,3.9,4.4,10.4,3.9,18.4c4.9-2.4,9.8-4.8,14.8-7.2c-3-1.6-6-3.2-9-4.9
		c2.1-3.3,4.2-6.6,6.3-10c-3.2-1.3-6.5-2.5-9.7-3.8c1.5-1,4.5-0.8,6.8,0.5c7.1,3.9,0.5,4.1,2.2,10.9c0.9,3.4,4.3,1.9,5.7,5.4
		c1.8,4.6-6.1,8.4-8.8,10.6c1.6,0.4,3.2,1.6,4.8,1.9c-6.2,1-11.2,1.3-16.6,4.7c5.5,3,9.2,2.3,15.4,2c-6.2,3.2-13.2,3.4-19.8,1.7
		c3.8,6.3,11.2,8.3,17.8,10.4c-6,2.9-9.7-0.3-15.1-2.5c-4.3-1.8-15.4-4.2-10.5,3.3c2.8,4.2,15,5.6,19.3,4.8
		c6.3-1.2,11.1-6.3,14-12.1c13.4-27.4-9.3-61.9-24.7-83.3c-19.8-27.5-41.2-53.8-61-81.3c-20-27.8-25.6-51.6-13.1-83.9
		c2.4,6.5,3.9,5.5,8.1,10.7c3.2,3.9,2.2,9.2,2,13.8c-0.6,15.5,0.7,29.7,6.9,44.2c12.7,29.7,35.7,56.3,54.1,82.6
		c15.5,22.2,35.3,47.9,35.8,76.3c0.5,30-25.6,42.7-49,54c20-0.9,43.1-4.3,59.1-17.4c23.8-19.6,19.1-51,9.1-76.1
		c-10.6-26.7-24.8-51.2-31.6-79.4c-6.8-28.7-7-58.5-11.7-87.6c7.5,6.6,13.7,19.2,25.2,18.4c10-0.7,20.8-11.9,28.8-17.3
		c-8.2-0.6-13.8,0.1-21.8,2.1c-0.1-4.4-4.3-34.8,2.9-34.7c9.1,0.1,1.5,28,2.6,31.4c2.8-3.7,5.5-7.3,8.3-11c1,10.7,1.3,12.4,7,0.6
		c3.1-6.5,5.9-13.3,10.6-18.9C799.4,38.7,803.4,37.3,795.5,32.6z M757.9,23.4c-7.1,5-9.2,4.4-16.9-4.8L757.9,23.4z M670.1,70.1
		c-0.8-4.5,2.4-7.4,6.8-7.6c-11.1,7.3,1.8,9.7,8.6,11.4c10.2,2.6,20.2,6,30.7,4.6c-0.2,4.7,0.7,8.9-4.1,10.8
		c-4.3,1.6-16.3-2.7-21-3.5c-5.6-1-15.1-0.7-19.8-3.8C663.3,76.6,671.1,77.7,670.1,70.1z M710.4,72.9c-9.1-3-18.2-5.9-27.3-8.9
		c0.2-0.4,0.4-0.7,0.6-1.1C688.4,64.5,710.8,69.3,710.4,72.9z M716.2,216.8c-0.6,2-1.1,4-1.7,6c2.2,0.2,4.5,0.5,6.7,0.7
		c-1.9,1.1-6.3,1.1-9.4,1.3C713,221.8,713.7,217.6,716.2,216.8z M660.5,30.1c-2.3,1.7-4.9,4.2-7.2,4.6c0.9-0.9,1.6-2,2.5-2.9
		c-6.4-2.8-6.1,5.8-7.4,8.6c-1.5,3.2-6.2,9.3-8.8,11.6c-2.5,2.1-8.5,2.6-9.2,6.3c-0.4,1.9,1.5,2.9,1.6,3.6c0,0.6,1,3.7,1,5.3
		c0.2,7.7-2.4,15.1-1.5,23.1c0.9,7.6,3.2,15,6.3,22c7.4,16.2,19.5,30,30.1,44.2c-2.1-1.9-4.2-3.8-6.3-5.7c-0.3,1.1-2.5,5.8-2,6.6
		c1.6,2.5,2.4-0.4,4.6,0.1c3.6,0.9,3.4-2.5,6.9,2.2c2.7,3.5,1.8,6.2,0.6,10.4c5.4,0.7,6.3,0.6,10,4.2c2.6,2.5,1.2,5.1,5.9,5.9
		c-3,2.7-10.5,1.3-11.8-3.3c-0.8,2.1-1.7,4.1-2.5,6.2c3.2,0.3,14.7-0.6,17.3,1.6c2.9,2.5,1,4.8,0.7,8.5c2.5,0.3,5,0.7,7.5,1
		c-0.1,0.5-0.1,1-0.2,1.4c-3.6-0.2-7.2-0.4-10.8-0.6c0.6-2.7,1.1-5.3,1.7-8c-3.6-1.3-4.4,7.1-3.4,8.5c1.2,1.6,5.1,1.7,6.8,1.9
		c8.5,1.4,12.4-0.5,10.5,10c2.4,0.3,4.7,0.7,7.1,1c0,0.4,0,0.9,0,1.3c-8.9-0.3-8.8-0.1-9.6-9.2c-1.3,3.4-2.6,6.7-4,10.1
		c6.9,0.3,16.4-2.5,15.6,4.7c-0.5,4.2-5.2,6.1-1.7,10.1c4.4,5.1,11.7-2.6,14.7,4.8c0.5,1.3-2,3.9-0.9,5.8c1.6,2.8,5.6,2.8,8.5,2.8
		c-2.1,2.8-7.3,1.4-10.7,1.3c-0.1,0.3-0.1,0.6-0.2,0.8c10.3,1.8,17.1,1.5,12.3,13.1c2.2,0.7,4.4,1.4,6.6,2.2
		c-0.1,0.5-0.2,0.9-0.4,1.4c-3.8-0.6-7.6-1.2-11.5-1.8c1.6-3.3,3.2-6.6,4.8-9.9c-3.5-1.1-11-1.4-13.3-4.4c-3-3.8,0-8,0.9-12.3
		c-12.9-1.6-16.5-2.5-12.7-15.7c-13.1-0.5-14.7-0.7-11.9-13.7c-4.7-0.5-9.4-1-14.1-1.5c2.8,2.7,11.8,2.2,6.8,8
		c-4-2.5-7.3-5.7-7.7-10.5c-0.3-3.1,2.9-6.9,0.2-9.4c-2.4-2.2-7.4,1.1-10-0.3c-3.5-1.9-2.6-5.3-2.4-9.1c-12.6,1.6-8.6-3.1-4.9-12.8
		c-9.6,2-10.7,3.3-17.7-3.5c6.2,0.7,6.1-1.9,7.4-7.1c-3.4-0.6-6.5-0.7-8.7-0.3c-5.1,1,1.2,4-3.8,1.6c-0.9-0.4-0.6-3-1.2-3.9
		c-2.4-3.2-7-5-8.9-8.6c-1.8-3.2,0.3-10.5-4.3-10.3c0.2,0.9,0.5,1.9,0.7,2.8c-0.4,0.2-0.8,0.4-1.1,0.5c-7.1-8-11.8-19.6-14.4-29.8
		c-0.7-2.9-3.1-9.8-2.5-12.8c0.7-3.6,2.5-3.9,2.5-7.4c-1.3-1-2.2-2.2-2.7-3.7c0.2-2.5,0.5-5,1-7.5c0.7-3.7,1.8-7.4,3.4-10.9
		c1.1-2.4,2.4-4.7,4-6.9c2,0.5,3.9,0.1,5.7-1c1.7-2.9,0.8-6.1,0.8-9.4c2,0.8,4.1,1.5,6.1,2.3c-1.2,1.1-1.9,2.9-3.2,3.9
		c4-0.3,7.6-2.5,7.7-6.7c0.2-5.7-4.6-5.1,1.4-9.1c2.9-2,5-0.1,8.5-3.4c3.4-3.2,3-5.7,8-8.4c-1.5,1.2-2.6,3.1-4,4.4
		c7.6,2.8,8.9-13.8,16-11.5c-1.6,1.4-3.3,2.8-4.9,4.3c6.3,4.5,11.8-16.2,20.4-10.4c-2,0.8-4,1.6-6,2.4c0.2,0.4,0.4,0.9,0.5,1.3
		c9.8-2.8,13.6-6.5,24.4-4.4c-0.1,0.4-0.2,0.8-0.3,1.2c-2-0.5-4.2-0.1-6.2-0.6c1.4,1.7,3.2,2.8,5.3,3.2c1.8-0.5,3.1-1.7,3.8-3.6
		c4.4,0.7,6.5,4.5,6.9,8.6c-5.9-3.1-17.8-6-22.4-4.9c-3,0.7-7.7,8.1-10.8,1.8c-3,3.5-3.8,6-8.4,7.8C663,26.4,660.5,22.6,660.5,30.1z
		 M708.3,23.4c-18.7-3.9-29.1,2.8-45,11.8C675.3,23.6,692,16,708.3,23.4z M666.8,87.8c0.6-7.9,19.3-1.3,24.2-0.4
		c4.1,0.7,27.3,1.8,22.8,9.4C710.8,101.9,666.3,95.1,666.8,87.8z M667.6,99.4c-0.7-8.3,17.7-2.4,21.7-1.8c8.9,1.3,19.4,0.7,25.1,8
		C708.3,108.2,667.8,108.7,667.6,99.4z M670.2,110.8c-2.3-8.9,45.4-3.3,44.6,3.5C714.1,120.3,672.6,120.2,670.2,110.8z M681.2,118.7
		c5.5,0,31.3-3.5,34.5,2.3c3.9,6.8-8.9,7.2-11.3,5.7c-6.4,0.5-17,3-23.4,0.9C674.9,125.5,672.4,118.7,681.2,118.7z M680.3,132.4
		c1.2-5.3,34.8-4.4,36.1-3C726.7,140.3,677.1,145.3,680.3,132.4z M686.7,145.1c-1.3-4.1,32.8-12,33.6-1.5c0.5,6.4-13.6,6-17.7,6.7
		C695.6,151.3,689.3,153.4,686.7,145.1z M693.7,156.1c0.7-5.6,25.5-8.2,28.4-4.2c6.9,9.9-13.2,10.1-18.6,11.2
		C700.2,163.1,693,160.9,693.7,156.1z M701.6,168.7c-1.2-6.4,22.2-10.3,25.4-3.7C731.7,174.9,703.7,179.6,701.6,168.7z M709.7,180.5
		c-1.4-6.6,20.2-9.6,23-2.8C736.4,187.1,712.1,191.5,709.7,180.5z M718.4,192.8c-2.1-4.5,19.6-11.9,21.1-1.5
		C741.2,202.1,722.5,201.7,718.4,192.8z M726.5,205.1c-0.7-7.4,22.2-11.5,21.1,0.4C746.7,214.8,727.5,215.9,726.5,205.1z M734.6,218
		c-0.3-7.3,21.8-11.4,20.1,0.1C753.4,226.6,735,229.2,734.6,218z M741.9,230.4c2.3-6.5,20.5-11.3,19-0.3
		C759.6,239,739.5,241.4,741.9,230.4z M748.4,242.7c1.6-5.7,17.9-10.8,17.3-1C765.2,249.8,747.1,254,748.4,242.7z M754.3,259.2
		c-4.5-8.3,13.8-16.7,15.3-6.5C770.7,260,758.7,267.1,754.3,259.2z M760.9,276.9c-10.6-0.8,1-18,8.3-16
		C779.5,263.8,768.3,277.5,760.9,276.9z M739.6,319.9c2.1-4.1,4.6-7.5,12.2-6.1L739.6,319.9z M750.7,307.7c-0.3-0.5-0.6-1.1-0.9-1.6
		c3.6-1.2,13.1-6.4,15.8-4C760.6,303.9,755.7,305.8,750.7,307.7z M755.5,299.1c4-8.1,8.9-8.9,17.1-12.3
		C773.8,295.3,761.5,298.1,755.5,299.1z M771.9,283.9c-4,3.9-8.5,4.1-13.7,4.8c2-10.1,5.1-10.3,14.3-15
		C774.9,277.2,774.9,280.9,771.9,283.9z M732.3,133c2.1,23.1,9.2,45.3,18.8,66.4c8.7,19.2,21.8,38.6,23.7,60.1
		c-7-28.5-24.6-51.9-36.6-78.2c-11.8-25.7-19.9-55.6-17-84C732.8,101.6,731.4,122.9,732.3,133z M784,57.4
		c-2.6-2.2,1.9-11.7-0.4-13.4c-3.1-2.4-6.7,9.3-7.7,11.5c-2.8-2.6,0.8-7.6-0.8-11.3c-2.1-4.8-7.6-4.5-12.3-5.3
		c-6-1-28.7-8.4-32.7-1.4c-3.5,6.1,10.4,29.5,13.5,34.9c2.1,3.8,5.7,11.5,10.5,12.1c4.5,0.5,12.2-5,16.8-6.2
		c-3.1,2.5-6.2,4.9-9.3,7.4c2.8,0.1,7-2.9,10-4.5c-5.9,4.6-11.1,10.3-19.4,7.2c-7.4-2.8-13.4-14.6-17.9-21
		C724.3,53,710.5,33.3,717,14.7c10.4,6.7,16.8,15.1,29.5,18.2c15.2,3.6,31.2,4.5,46.5,7.5C790,46,787,51.7,784,57.4z"/>
	<path d="M586.6,298c8.6-13.1,22.3-5.5,31.9-1.3c0.7,1,1.1,2.1,1,3.4c1.8-0.6,3.6-0.8,5.5-0.6c2.7,0.8,5.4,2,8.1,2.8
		c1.3,2.7,2.9,3.3,4.8,1.9c1.6-0.9,3.3-1.3,5.2-1.3c4.5,0.1,5.1,3.6,8.7,4.3c4.2,0.8,11-2.8,16.3-1.9c2.1,0.3,4.6,1.9,6.6,1.9
		c4.4,0.1,9.7-3.3,14.3-4c3.6-0.6,10.8,1.2,13.8,0.4c2.6-0.7,8.3-6.3,10.7-8c5.4-3.7,11.3-6.9,13.5-13.6c-2.4,0.1-6.3-0.8-8.5,0.8
		c-1.6,1.2-0.4,4.4-2.3,5.3c-1.8,0.9-3,0.5-4.9,0.7c-6.8,0.5-6.2-4.1-9.4,2.4c-2.8,5.8,0.1,8.6-7.5,7c-6.9-1.4-14.5-7.9-20.5-11.5
		c0.5,5.2,0.9,10.4,1.4,15.7c-6.1-3.4-12.3-6.8-18.4-10.2c0,3.6,0,7.2,0,10.8c-4.4-2.8-8.9-5.6-13.3-8.4c-0.1,1.7-1,3.5-0.9,5.3
		c-4.5-7-4.9-14.3-14.5-16.4c0.4,4.8,0.9,9.6,1.3,14.4c-6.2-5.7-12.4-11.5-18.6-17.2c0,3-0.1,6-0.1,9c-13.3-4.9-16.7-13.9-21.5-26.1
		c-6.4,10.8-5.3,17.2,4.6,25c-2.8,2.8-5.6,5.5-8.5,8.3C585.7,297.2,586.2,297.6,586.6,298z M631.5,288.2l4,8.2
		C628.9,295.2,628.7,294.9,631.5,288.2z"/>
	<path d="M715,326.1c-8.4-2.6-16.7-5.3-25.1-7.9c2.4,5,4.8,7.7,8.9,11.5c-7.8,0.8-8-3-12.5-7c-4.3-3.7-6.6-3.2-12.6-3.4
		c2.6,2.9,5.1,5.8,7.7,8.7c-4.4,1.9-15.9-8.1-20.4-11c-3,6.6,2.1,11.1,7.3,14.2c-5.4-1.1-10.4-3.5-14.9-6.6
		c-2.2-1.6-9.3-9.9-11.5-10c-3.6-0.1-2.9,8.3-3.3,11.2c-8.4-1.4-12.5-5.9-17.1-12.4c-5.2-7.6-2.5-5.7-6,0.5
		c-0.6,1.1-0.3,5.2-1.3,5.7c-2,1.1-8.3-2.7-9.9-4c-5.3-4.4-6-11-5.5-17.5c-3.5,2.3-6.9,4.5-10.4,6.8c0.1-1.5-0.6-3.1-0.4-4.6
		c-8.4,7.3,13.6,17.9,18.6,19.3c11.2,3.2,22.4,5.4,33.6,8.3c5.4,1.4,9.6,4.6,15.2,5.3c6.3,0.8,12.7-0.9,19-0.6
		C686.5,333.4,704.6,334.4,715,326.1z"/>
	<path d="M661.8,245.4c-3-3-6.8-9-11.6-6.9c-4.5,1.9-3.9,7.8-2.6,11.3c4.1,10.5,18.5,14.7,27.4,19.7c-5,4.2-5.2,4.2-11.6,2.5
		c2.7,2.7,5.4,5.3,8.1,8c1.1-2.2,2-5.5,3.7-7.2c3.3-3.4,0.5-1.9,5.9-1.5c7.3,0.5,15.3,3.5,22.4,5c4.3,0.9,17,5.9,21,3.9
		c4.8-2.4,1.9-3.4-1.2-5.3c-2.3-1.4-5.1-1.4-6.7-2.9c-0.6-0.5,1-2.2,0.5-2.8c-3.3-3.8-8.1-7-11.9-10.3c1.4,2.4,10,15,2.8,16.1
		c-2.1,0.3-9.8-7.7-11.7-9.3c2.3-0.4,4.7-0.7,7-1.1c-6.2-5.6-10.5-10.8-15.9-16.8c4.2,7.5,9.4,14.9,8.2,23.9
		c-3.4-2.8-20.7-10.6-7.7-12.6c-9.5-4.4-9.7-11.5-18.8-16.6c4.1,8,9.3,12.1,8.5,22.1c-4.1-2.3-8.1-4.6-12.2-6.6
		c2.6,0,3.6-2.8,6.5-1.9c-3.3-3.2-8.7-1.7-11.9-4.4C656.5,249,655.3,245.4,661.8,245.4z"/>
	<path d="M669.8,295.7c1.2-7.1,3.6-14.3-6.4-18.8C655.2,284.3,658.4,290.4,669.8,295.7z"/>
	<path d="M697.4,295.9c0.6-3.2,3.6-9.5,2.4-12.6c-0.5-1.3-2.5-2.9-3.7-3.5c-4-1.7-3.5-0.6-5.9,3.3
		C685.5,290.7,689.6,294.7,697.4,295.9z"/>
	<path d="M608.3,287.1c-0.3-3.1,0.2-7.6-0.9-10.5c-1.6-4.1-5-5.8-6.6-10.8C593.5,274.7,600,282.2,608.3,287.1z"/>
	<path d="M732.5,315.6c-7-1.2-14-2.4-21-3.7C712.9,324.4,726.2,322.1,732.5,315.6z"/>
	<path d="M624.5,288c0.6-3.8,1.2-7.6,1.8-11.4c-7.9,1.8-7,1.4-9.3-6.5C611.3,278.3,615.7,285.1,624.5,288z"/>
	<path d="M653.5,297.7c1.2-6.1,2-12-6.9-15.6C642.8,287.9,646.5,296.3,653.5,297.7z"/>
	<path d="M677.3,278.4c-1.3,4.5,3,12.3,8.1,9.9c1.8-0.9,3.4-10.3,4.1-12.3C684.5,277.8,682.8,282.8,677.3,278.4z"/>
	<path d="M716.1,322.3c-7.7-4.9-10-11.6-19-6.2C702,320.9,709.3,323.3,716.1,322.3z"/>
	<path d="M632,277.1c0.9,1.2,5.5,9.6,7.1,9.7c4.7,0.3,5-10.9,1.7-13.1c-0.1,1.7-1.6,3.2-1.8,4.9C636.7,277.1,634.3,275.9,632,277.1z
		"/>
	<path d="M659.2,272.9c-5.9,1.3-4.3,3.5-9.9-1.2c-1.8,5.6,1.9,9.5,6.5,12C656.9,280.1,658.1,276.5,659.2,272.9z"/>
	<path d="M610.1,271.4c1.5-3,4.4-4.9,6.2-7.7c-3.7-0.9-7.6-1-11.2-2.8C606.8,264.2,606,270.9,610.1,271.4z"/>
	<path d="M624.3,264.7c-2.4,2.2,2.4,7.4,5,9.1c1-3.8,4.6-6.2,5.6-10C630.9,263.7,628.2,268.1,624.3,264.7z"/>
	<path d="M625.7,313.2c1.7,2.1,8.6,11.6,9.1,6.1c0.2-2.4-3.8-8.2-4.9-10.5C628.3,310,626.9,311.5,625.7,313.2z"/>
	<path d="M599.6,254c-4.3,2.2-10.6,6.5-5.6,11.5c1.8-3.5,7.4-4.6,7.4-9.1c-2.4,0.8-3.8,3.7-6.5,3.7C596.8,258.2,597,255.4,599.6,254
		z"/>
	<path d="M605.2,303.4c-2.6,4.4-1.7,6.6,5.3,11.1C609,310,612.2,305.2,605.2,303.4z"/>
	<path d="M645.5,272.5c1.7-3.9,3.1-9.5,6.2-12.5C647,263,637.9,266.6,645.5,272.5z"/>
	<path d="M622.1,254.1c-2.7,2.1-2.1,4.9-2.1,7.8c2.6-2.6,5.9-4.2,9-6C626.4,257.2,623.2,257.4,622.1,254.1z"/>
	<path d="M689.2,313.3c3.6-1.2,7.2-2.3,10.8-3.5c-3-0.9-6.1-1.8-9.1-2.7C690.3,309.2,689.8,311.2,689.2,313.3z"/>
	<path d="M714.3,281.2c-3.1,1-6.2,2-9.3,3c3,1,6,2.1,8.9,3.1C714.1,285.3,714.5,283.1,714.3,281.2z"/>
	<path d="M638.6,262.6c2.3-2.1,4.5-4.1,6.8-6.2c-2.9,0.6-5.8,1.1-8.7,1.6C637.2,259.5,637.9,261.1,638.6,262.6z"/>
	<path d="M610.1,250.1c-1.7,1.1-2.6,2.7-2.8,4.7c2.9-1.8,5.8-3.4,8.8-5C614.1,249.1,612.1,249.2,610.1,250.1z"/>
	<path d="M664.9,173.9c4.2,0.3,8.5,0.6,12.7,1c0-0.1,0.1-1.2,0.2-1.3c-3.3-0.4-6.6-0.8-10-1.2c0.7-2.5,1.3-5,2-7.4
		C666.8,164.6,665.3,171.7,664.9,173.9z"/>
	<path d="M646.2,133.9c-2.8-0.7-5.9-1.5-8.8-2.2c-0.2,0.4-0.3,0.8-0.5,1.3C639.9,135,643.1,137,646.2,133.9z"/>
	<path d="M627.8,78c0.9-2.8,1.7-5.7,2.6-8.5C624.3,71.5,622.6,73.3,627.8,78z"/>
	<path d="M625,63.3c-2.1,2.9-3.8,5.8-5.5,9c7.2-3.7,10.8-8,6.2-15.9c-2.5,2.5-5.1,4.9-7.6,7.4C620.1,65.1,622.4,64.2,625,63.3z"/>
	<path d="M616.3,91.4c-1.4,2.4-2.8,4.8-4.2,7.1c2,0.5,4.2-0.3,6-1.8c-0.8,2.7-1.6,5.5-2.4,8.2h0C621.5,100.1,623.9,96.3,616.3,91.4z
		"/>
	<path d="M630.6,109.1c-1.4-0.6-6.8-3.9-8.2-3.5c-3.8,1-3.6,6.6,0.8,7.9c-0.3-0.5-1.6-6.4,0.7-4.7c1.5,1.1,2.3,4.6,3.2,6.3
		C628.3,113.1,629.4,111.1,630.6,109.1z"/>
	<path d="M626.7,91.8c2.6-2.9-1.6-7-3.3-8.9c-1.4,1.8-2.9,3.8-4.3,5.7c0,0,0.1,0,0,0c1.5-0.2,3.2,0.6,4.7,0.4
		c-0.9,1.8-0.9,4.1-1.9,5.8C623.8,94.1,625.3,93.1,626.7,91.8z"/>
	<path d="M634.2,144.2c0.9-1.2,2.8-2.3,3.9-3.3c0.5,1,2.1,5.9,2.8,6c1.9,0.3,3.6-4.2,3.3-5.6c-0.5-1.8-7.4-3.2-9.3-3.9
		C634.7,139.6,634.4,142.4,634.2,144.2z"/>
	<path d="M616.1,86c2.1-1.4,10.8-8.3,3.8-10.8c-1.1-0.4-5.8,3.3-6.8,3.9c1.7,0,3.5,1,5.2,1.1C617.6,82.1,616.8,84,616.1,86z"/>
	<path d="M649.3,145.3c1.4,1.5,4.8,2.1,6.2,0.2C660.3,139.1,641.1,136.8,649.3,145.3z"/>
	<path d="M633.7,125.6c-4.8-8.4-6.3-1.6-7.7,2.7c0.1-0.1,0.1-0.1,0,0c1.4-1.3,3.5-2.3,5.1-3.4c0.2,2.2,0.4,4.3,0.6,6.5
		c0-0.1,0.1-0.1,0,0C633.2,130,634.9,127.8,633.7,125.6z"/>
	<path d="M631.9,102.5l-2.1-7.8C625.1,99.9,625.3,100.6,631.9,102.5z"/>
	<path d="M674.9,80.7c8.9-0.4,17.7-1.5,26.4,1.4c1.5,0.5,10.9,5.8,11.2,5.5c2.3-1.9,0.4-3.3-1.7-5.1c-5.2-4.6-24.2-6.3-30.8-7.5
		c-2.7-0.5-7.6-2.7-9.8,0.2C667.1,79.4,671.6,80.8,674.9,80.7z"/>
	<path d="M2,66.5c-0.2,0.9-0.4,1.7-0.4,2.6C2,68.3,2.1,67.4,2,66.5z"/>
	<path d="M14.2,110.2c-3.7-8.8-8.8-16.8-12.1-25.8c-0.2-1.3,1.1,4.5,0.9,4.5c-0.2-1.3-0.6-2.6-1.2-3.7C3,93.6,9.3,103.6,14.2,110.2z
		 M11.9,105.8c-0.4,0.1-1.5-2.2-2.4-3.7C10.5,103.2,11.3,104.4,11.9,105.8z"/>
	<path d="M2.6,89.2c-0.3-0.9-0.6-1.8-0.9-2.7c0.4,1.6,0.8,3.2,1.4,4.7C3.1,90.5,3,89.8,2.6,89.2z"/>
	<path d="M38.6,52.9c-0.2,1.2-0.4,2.4-0.7,3.5C38.2,55.3,38.4,54,38.6,52.9z"/>
	<path d="M190.1,64.4c0.4-7.5,0-18.2-7.8-22c-9.8-4.7-18.5,7.3-23.9,13.5c-7.3,8.2-11,14.1-7.9,25c2.4,8.8,2.7,17.9,2.5,27
		c-0.1,5.7-0.6,64.9-3.6,65.4c-4.5-2.8-8.9-8.9-12.7-12.7c-8.5-8.6-17.1-17.2-25.5-26c-7.9-8.2-15.7-16.4-23.5-24.7
		C77.3,99,63,86.5,57.3,72.2c-1.5-3.8-1.4-8.1-2.9-11.8c-3.5-8.5-10.2-5.8-14-11.4c-3.7-5.5-0.8-14.2-9.7-16.7
		C15.2,27.7,2.1,59.6,0.7,71.1c-4.4-2.1,14.1-28.8,16-30.7c14-14.1,19-4.3,23.2,11.2c0.1-0.2-1,0.9-1.2,1.3c1.5,0.2,1.2-0.2,1.9,1
		c-0.8,0.7-1.8,2-2.6,2.6c1.6-3.1,3.8-3.4,6.4-3.3c8.5,0.3,8.7,9.2,10.6,15.4c4.4,13.9,16.1,25.7,25.9,36.3
		c20.1,21.6,40.4,43,61.3,63.7c7.9,7.8,8.6,10,9.1-1.8c0.5-11.3,1.4-22.6,1.9-33.9c0.4-10.8,1.4-21.7,1.2-32.5
		c-0.2-13.7-7.9-26.5,0.9-38.4c10.7-14.5,31.7-31.8,32.9-0.5c1.1,29.5-6,60.3-8.2,89.7c-1.4,19.3-3.2,38.8-3.4,58.1
		c-0.1,11.7,4.6,20.5,6.2,31.7c1.4,9.8-2.8,18.1-9,25.5c-9.1,11-24.5,22-31.9,4c-6.9-16.7-15.1-31.1-26.6-45.3
		c-13.6-16.7-29-31.7-44.4-46.7c-4.1-3.9-8-8-12.1-11.9c-1.7-1.7-10-12.4-12.7-12.4c-6.5-0.1-6.2,70-4.4,79.4
		c-4.9-15.9-2.6-34.4-1.9-50.7c0.3-7.5,0.6-15,1.1-22.5c1.1-16.2,3-12.4,13.3-2.4c28.8,27.9,63.1,56.1,82,92.3
		c3.2,6.1,5.1,12,7.6,18.3c5.5,14,14,10.3,23.5,1.5c6.1-5.6,12.3-13.2,13.8-21.5c1.4-8.3-2.9-15.7-4.9-23.6
		c-4.9-19.9,0-46.1,1.2-66.4c1.4-23.9,4.2-47.6,6.3-71.4c0.6-6.4,7.9-41.2-6.6-41.3c-8.3,0-24.3,19.5-24.4,28c0,5.5,3.6,12,4.2,17.7
		c1.4,12.7,0.2,25.8-0.2,38.6c-0.3,9.8-0.9,19.5-1.4,29.3c-0.3,6,1.8,19.2-1.5,23.5c-1.8,2.4,0.4,1.9-2.1,1.3
		c-3-0.8-8.6-9.2-10.9-11.7c-6.5-6.8-13-13.5-19.6-20.2c-13.1-13.2-26-26.7-38.8-40.3c-7.8-8.3-15.6-16.7-22.4-25.9
		c-3.4-4.6-6.8-9.4-8.9-14.8c-1.9-4.9-1.1-11.2-6.3-13.9c-2-1-5.7,0.6-7.4-0.5c-2.9-2-3.4-9.6-4.3-12.5c-1.9-6.1-3-9.5-9.7-5.3
		C17.8,43.1,13.2,50.9,10.2,57C-3.4,84.9,24,103.9,23.5,131.3c-0.4,23.5-3.2,47.4-5.8,70.8c-2.4,22.3-5.4,44.9,2.1,66.5
		c6,17.1,15.9,32.7,29.9,44.1c6.8,5.4,13.9,10.5,21.7,14.4c2.5,1.3,5.1,2.4,7.7,3.4c2.2,0.8,13.6,5.8,11.2,1.6
		c0.4,0.6,0.8,1.3,1.2,1.9c-42.8-6.2-63.3-39.8-76.5-76.3c-2.2,15.7,10.6,37.4,21.9,49.9c16.1,17.9,39,27.8,62.3,31.4
		c-14.3-23.1-34.2-42.1-47.9-65.4c-6.2-10.5-10-22.6-13.3-34.3c-2.6-9-6.5-23.6-2.7-32.4c-0.1,26.2,8.6,51.7,23.9,73.1
		c14.8,20.6,30.5,39.7,43.2,61.9c-23.2-4.6-42.3-12.1-60.8-27.9c-7.5-6.4-12.4-13.1-17.2-21.9c-2.5-4.7-8.3-25.6-12.6-26.1
		c-1.6-0.2-3-0.5-3.7,1.9c-1.6,5.7,5,16,7.3,20.6c4.2,8.6,9,16.9,15.6,23.9c22.6,23.8,51.8,31.3,82.7,37.4
		c-7.6-13-14.6-26.8-23.5-38.9c-10.8-14.7-23.6-28.5-32.4-44.4c-9-16.2-14.7-36-14-54.6c0.7-17.2,3-35.2,3-52
		c2.1-1.5,31.5,29.8,33.2,31.4c21.2,20.9,45.2,43.8,56.7,71.8c5.7,13.9,10.1,26.8,27.3,15.7c6.8-4.4,13-11.1,17.1-18.1
		c8.4-14.5,1.5-23.9-1.5-38.8c-2.7-13.3,0.2-29.8,1-43.1C183,140.6,188.5,102.6,190.1,64.4z M184.7,66.1 M176.9,238.4
		c0.3,1.2,1,16.9-1.4,15.7c5.3-10.2-1.1-19.8-3.2-29.9c-2.4-11.7-0.5-24.7,0.2-36.5C171.8,206,172.3,220.6,176.9,238.4z M180.2,91.1
		C180.6,89.3,180.2,94,180.2,91.1L180.2,91.1z M46,60c2.4,2.7,2.2,6.9,3.1,10.1c2.5,9.2,8.3,16.8,14.3,24.2
		C72.2,105,81.9,115,91.5,125c11.3,11.9,22.6,23.9,34,35.7c5.9,6.1,11.8,12.2,17.7,18.4c2.7,2.9,6.1,8,9.5,10.2
		c5.8,3.8,4.2,0.7,4.8-6.4c1.6-18.9,2.5-37.9,3.1-56.8c0.5-15.1,2-31.6-2.2-46.3c-1.5-5.2-3-6.4,0.6-12.3
		c2.7-4.3,12.2-18.2,17.7-18.1c7.5,0.1,7.1,34,3.7,37.8c0.5-5.3,5-39.3-5-36.6c-5.1,1.4-17,16.2-18.1,20.8
		c-0.9,4.1,1.8,8.5,2.7,12.6c1.3,5.9,1.7,12,1.8,18c0.1,8.4-4.9,91.2-6.1,90.9c-4.9-1-13-13.7-16.4-17.2
		c-6.5-6.9-13.1-13.7-19.7-20.6c-12.2-12.7-24.4-25.5-36.5-38.3C73.1,106,62.5,95,54.5,82.4C51,76.8,48.1,62.2,46,60z M44.9,59.5
		c-0.5-0.1-1.1-0.1-1.6-0.2C43.9,59.3,44.4,59.3,44.9,59.5z M30.2,40.2c2.4,4.1,1.9,18.3,8,18.8c-3.9,0.1-4.4-6-5.2-8.5
		C32.3,47.7,30.2,40.1,30.2,40.2z M29.6,39.5C29.6,39.5,29.6,39.6,29.6,39.5C29.6,39.5,29.6,39.5,29.6,39.5z M29.3,39.4 M9.8,272.5"
		/>
	<path d="M37.9,56.5"/>
	<path d="M7.7,232.7c2-2,1.8-14,2.3-17.5c0.9-6.2,1.5-12.4,2.2-18.6c0.6-5.5,1.3-11,1.8-16.5c0.8-7.3,5.1-21.7,2.7-28.5
		c0.1,0.4-0.4,4.7-0.7,4.7c0-0.6,0.3-9.9,0.5-10c-0.3,5-0.7,10.5-1.7,15.4c0.2-1.3,0.3-2.6,0.2-3.9c-1.7,12.2-2.5,25-3.9,37.1
		c-0.8,7.5-4.1,19.7-3.2,27.6c-0.1-1.1,0.1-2,0.6-3C8,223.9,7.9,228.3,7.7,232.7z M14.8,163.5 M10.7,202.6c0.7,0.3-0.3,3.9-0.5,4.4
		C10.4,205.6,10.5,204.1,10.7,202.6z"/>
	<path d="M292.8,138.9L292.8,138.9L292.8,138.9z"/>
	<path d="M292.8,138.8"/>
	<path d="M292.7,138.8"/>
	<path d="M293,138.9"/>
	<path d="M292.9,139"/>
	<path d="M292.9,139.1"/>
	<path d="M292.7,138.8L292.7,138.8C292.7,138.8,292.7,138.8,292.7,138.8z"/>
	<path d="M292.8,138.9"/>
	<path d="M243.7,182.2c5.5-8.2,2.7-15.6,13.3-17.2c9.7-1.5,21.8-2.2,31.5-0.7c6.8,1,5.7,3,8,10.1c2.8,8.4,6.9,16,9.9,24.2
		c0.5-0.6-10.7-33.2-13.7-35.1c-1.1-0.7-7.1,0.1-8.2,0.1c-6.6-0.2-13.1-0.6-19.8-0.1c-3.7,0.3-9.2-0.2-12.7,1.5
		c-6,2.9-6.6,10.7-9.3,16.1c0.1-0.4,0.1-0.7,0-1c-4.7,8.4,0.5,19.2-3.9,27.8c-2.9,5.7-22.4,18.2-30,13.1c-6.9-4.6,0.4-21.9,2.6-28
		c1.8-4.9,22.9-50.3,23.6-49.8c0.8,0.5-2.5,8.8-2.4,9.8c0.9,1.1,15.7-25.6,16.5-27.1c6.4-11.9,12.6-23.8,18.2-36
		c5-10.8,8.5-26.3,16.3-35.5c2.5-2.9,21.3-24.3,24.6-23.1c-0.2,0.1,2.3,1.5,3.6,3.6c2.3,4,1.2,10.4,1.7,14.7
		c0.4,3.5,7.5,35.6,5.2,36.3c-5.7,1.6-7.8-26.2-8.2-30.2c-0.3-3.3,1.4-19.8-0.7-21.3c-4.4-3-12.5,10.2-15.3,12.9
		c-10.7,10.7-14.4,21.5-20.4,35.1c-8.3,18.5-18.1,36.2-28.2,53.7c-5.3,9.1-48.2,78.9-32,82.2c5.3,1.1,14.2-5.6,17.4-9.4
		c5.3-6.4,4-13.9,5.6-21.5c3.9-18.7,9.5-27.3,28.5-29.4c7.8-0.9,23.2-4.2,30.3-1.1c6.1,2.6,6.9,12.5,8.8,18.4
		c4.7,14.3,11.6,28.9,18.3,42.4c-5.5-6.5-9.3-13.2-14.3-19.1c0.5,0.3-0.7,0.4-0.7,0.3c0.9,2.9,7.1,11.9,9.6,13.3
		c-0.3-0.5-0.5-1.1-0.6-1.6c2,1.3,5.3,7.7,6.9,9.8c6.1,8,11,14.9,21.1,18.1c23.8,7.5,42.9-9.9,44.7-33.4
		c-14.7,14.7-26.6,2.1-35.2-12.1c-3.1-5.1-18.7-34.1-15.4-37.1c2.7-2.4,15.1-1.3,19.5-2.9c2.4-0.9,10.5-4,11.6-6
		c3.4-6-5.6-5.1-10.7-5.9c0.5-0.1,2.2-1,1.6-1.3c-5.2-1.7-11.7-0.2-17.1-0.3c-11.3-0.1-14.6-2.2-17.1-13.9
		c-2.7-12.5-7.8-26-10.9-39.5c3.4,0.7,2.6,2.3,3.8-1.5c1-3-1.8-10.4-2.3-13.4c-1.4-8.2-3.1-16.4-3.7-24.8
		c-0.2-3.8-0.1-15.1-4.3-16.6c-5.7-2-13.2,10.9-16.2,14.1c-3.1,3.4-6.4,4.7-9.3,7.9c-4.8,5.3-7.2,13-9.9,19.5
		c-4,9.8-8.5,19.4-13.2,28.8c-8.3,16.7-16,34.9-26.8,50.2c0.2-1.1,3.4-9,2.4-10.2c-0.9-1.2-16.3,28.4-18.1,32.2
		c-4.3,9.1-8.9,18.9-11.6,28.6c-2,7.2-4.2,19.8,4.7,22c9.9,2.4,24.6-8.8,27.8-15.7c0,0.4,0.1,0.7,0.1,1.1
		C241.2,204.3,240.7,183.5,243.7,182.2z M263,129.1 M259,136.6 M292,140.4c0.4-0.7,0.4-1.3,1-1.1c-0.3-0.4-0.2-0.7-0.5-1.3
		c0,1.9-3.4,0.7-4.5,1.1c0.2,0,0.3,0,0.3,0.2c1.3,0,2.5-0.3,3.9-0.2c-1.7,3.6-18.3,2.6-22.3,3.2c-1.7,0.3-11.4,3.3-12.7,2.2
		c-2.9-2.2,2.1-5.4,2.3-5.2c-0.2-0.2-1.3-0.2-1.5-0.3c-0.7-0.9,2.3-1.5,2.7-1.7c-2.1,1.2,3.9-8.5,3.1-6.9c0.8-1.6,0.3-4,1.4-6.3
		c2.7-0.3,2.3,2.6,5,0.6c0.8-0.6,0.8-2.5,1.3-3.3c1.9-3.2,0.8-5.2,3-8.3c2.6-3.8,3.8-8.3,6.6-12.5c1,2.3-1.2,8.5-1.3,11.4
		c0.4-1.1,1.8-3.6,1.9-3.3c0.2,0.9,0.2,5,0.4,5.2c1.1-0.3,2.4,8.2,2.4,9.6c0.1,6,1.3,9.7,2.6,15.8c0.4-0.2-3-22.8-3.1-23.4
		c-0.1-0.6-1.5-1.7-1.7-2.3c-0.4-1.8,2-2.2,1.1-4.4c-0.7-1.7-3-2.3-3,0.5c0.1-0.6,0-0.7-0.1-0.3c0.2-3.4,2.3-6.7,1.8-10.2
		c-0.3-1.2-1.5,0.8-1.4,0.7c-1.4,1.4-3.9,7.9-5.4,10.8c-0.7,1.5-2.8,4.4-3.2,5.3c-0.6,1.4-1,6.2-2.1,7.4c-0.9,1-2.4,3.6-3.8,0.9
		c-1.5-3.1,9-22.9,12.4-26.6c4.5-4.8,3.4-3.9,5.8,0.7c1.8,3.5,2.1,8.9,3,12.7C288.1,114.3,295.9,140.3,292,140.4z M355.1,140.1
		c1.2,0,6.7,0.9-1.6,0C354.1,140.1,354.6,140.1,355.1,140.1z M322.3,110.1c0.4,0.8,3.5,7.1,3,8.8
		C323.1,117.2,323.5,111.9,322.3,110.1z"/>
	<path d="M394.2,251.2c-0.2,0.3-0.4,0.6-0.4,1C394.1,252.1,394.5,251.5,394.2,251.2z"/>
	<path d="M390,256.8c-0.3,0.5-0.8,0.9-1.4,0.9c0.6-0.2,0.9-0.6,0.9-1.2c-1.8,0.9-3.4,2.8-5.2,3.8c0.3-0.1,0.6-0.2,0.9-0.3
		c-1.9,0.7-3.6,1.6-5.4,2.7c1.8-0.3,4.1-0.8,5.7-1.6C384.2,262.2,389.6,257.9,390,256.8z M382.7,261.9c0-0.4,1.3-0.8,2.1-1.2
		C384.2,261.5,383.5,261.9,382.7,261.9z"/>
	<path d="M388.8,256.5c-0.6-0.2-1,0.1-1.3,1C388.2,257.5,388.6,257.2,388.8,256.5z"/>
	<path d="M474.4,160.4c0-26.5-1.3-53.1-3.7-79.4c-1.6-17,1-48.6-23.8-41.4c-11,3.2-25.6,7.8-34.7,15.3c-5.6,4.6-4.9,6.2-3.2,12.2
		c2.4,8.6,3.8,16.3,3.6,25.4c-0.5,21.4-3.2,43.2-5.6,64.4c-1.9,16.7-3,33.5-4.2,50.3c-1,13.9-1.8,33.3-10,45.2
		c1.9,1.8,10.2-27.1,10.5-28.6c2-12.5,2.1-25.3,3.5-37.9c2.1-20.3,4-40.6,5.3-61c0.9-14.9,3.3-30.6,1.3-45.5
		c-1.1-7.9-7.7-16.8-1.3-23c8.1-8,24.2-12.2,34.5-15.2c8.4-2.4,14.6-3.8,18.3,5.7c7.1,18.2,4.6,44.5,5.3,64.1
		c1.2,33.5,1.7,67.4-6.6,100.1c0.1-0.3,0.2-0.6,0.3-0.9c-7,32.6-25.8,62.5-54.8,79.4c-6.3,3.7-12.9,6.4-19.9,8.6
		c-12.2,3.8-26.7,8.1-39.4,8.8c22.1-9.2,44.8-14,64.4-28.3c23.6-17.2,35.5-44.5,43.5-69.4c3.6-14.7,7.2-28.6,9-43.5
		c1.8-14.1,1.1-28.2,1.1-42.3c0-18.4-1.1-37.3-2.2-55.8c-0.8-13-0.3-29.3-17-24.9c-9.8,2.6-20.1,6.5-29,11.4
		c-4.6,2.5-8.6,4.6-8.7,9.8c0,5,4.7,13.1,5.3,18.4c3.7,32.1-0.8,67.2-3,99.3c-1.8,26.2,2.5,62.6-19.9,81.7
		c-14.5,12.4-42.1,7.7-59.3,5.2c-5.4-0.8-10.8-1.7-16.2-2.1c-8.4-0.7-18.1,3.7-24.1,4.2c-8,1.5-13.1-1.7-20.5-3.5
		c-6.6-1.6-13.4-1.9-19.9-3.5c5.8,9.3,14.9,15.3,24.8,19.3c-10.7-3.9-19.5-9.9-25.5-19.6c1.1,1.2,9.9,1.3,12.6,1.9
		c8.3,1.7,15.9,5,24.2,5.5c-2.5-0.5-5.4-0.9-7.8-1.8c1.9,1.1,3.3-0.3,3.8-0.1c-6.4,0-14.9-5.2-21.6-7.1c-7-1.9-13.7-4.1-20.4-6.9
		c6.5,8.4,8.9,18.3,17,26c13.9,13.4,35.5,22.5,53.4,29.7c20.5,8.2,44.1,2.5,64.7-2.5c15.8-3.9,28.5-8.7,41.8-18.5
		c27.3-20.1,40-46.3,48-78.1c-0.1,0.4-0.2,0.9-0.4,1.3C471.9,195.8,474.4,177.5,474.4,160.4z M399,261.1c0.1-0.1,0.2-0.2,0.2-0.3
		C399.2,260.9,399.1,261,399,261.1z M461.9,63.7C462.1,62.5,462.2,65.4,461.9,63.7L461.9,63.7z M462.1,47 M416.4,198.1
		c2-34.7,3.9-69.8,2.8-104.5c-0.3-8.6-1.2-18-4.3-26c-3.1-8-1.3-8.9,7.3-13.2c7.8-3.9,22.2-11.6,31.3-10.9c4.5,0.3,4.9,0.6,6.8,5.3
		c0.8,2,2.8,11,1.4,12.6c-0.2-7-0.2-17-8.3-17.5c-6.9-0.4-16.5,4.8-22.7,7.4c-6,2.5-17.8,5.9-17.3,12.6c0.1,1.8,2.4,5.2,3,7.1
		c1.4,4.8,2.1,9.9,2.5,14.9c3.7,39.8-0.4,81.4-2.9,121.2C415.7,204.3,416.3,200.8,416.4,198.1z M415.7,210c0.5-1.6,0.5-0.9,0,2.2
		C415.7,211.5,415.7,210.8,415.7,210z M415.1,217.4c-1.1-2.3-1-3.7,0.5-4.1c-0.2,2.1-0.4,4.1-0.7,6.2
		C414.9,218.8,415,218.1,415.1,217.4z M414.3,223.3c-0.1,0.7-0.2,1.5-0.4,2.2C414,224.7,414.1,224,414.3,223.3z M413.1,228.7
		c0.2-0.7,0.4-1.3,0.6-2C413.3,229.8,413.1,230.5,413.1,228.7z M412.2,233.4 M397.9,262.2c-0.2,0.2-0.5,0.5-0.7,0.7
		C397.4,262.7,397.7,262.5,397.9,262.2z M341.6,301.3c-16.8,4.2-29.3-1-45.2-6.5c-19.4-6.8-36.2-14.8-46.8-32.8
		c0.9-0.8,1.4-1.8,2-2.4c9,3.3,18.9,4.1,27.5,7.9c-5.8-2.3-12.3-2.9-18.3-4.5c-5.6-1.5-5.9-0.4-10.3-0.7c1.2,0,11,14,13.9,16.2
		c11.8,8.9,26,11.8,40,15.1c8.2,1.9,16.5,5.6,25.1,5.9c7.7,0.3,16.9-1.5,24.4-3.3c2-0.5,9.1-4.3,10.6-3
		C357.3,296.5,349.6,299.3,341.6,301.3z"/>
	<path d="M285.2,268.5C285.2,268.5,285.2,268.5,285.2,268.5C285.3,268.5,285.2,268.5,285.2,268.5z"/>
	<path d="M353.7,266.6c-0.1,0,3.1-0.2,3-0.5c-1,0.1-13.5,0.6-6.9,0c-12.5-0.8-28.7-4.5-40.5-2c5.4-1.3-6.1,1.6-6,1.6
		c7.4,0,14.5-1.4,22.2-0.8c9.3,0.7,18.6,1.8,27.9,1.8c-0.9,0.1-1.8,0.1-2.6-0.1C351.8,266.6,352.8,266.6,353.7,266.6z M319.3,264.3
		c0.9,0,1.9,0.1,2.8,0.2C321.1,264.5,320.2,264.4,319.3,264.3z M346.5,266.2"/>
	<path d="M542.1,204"/>
	<path d="M541.9,204C541.9,204,541.9,204,541.9,204C541.9,204,541.9,204,541.9,204z"/>
	<path d="M541.5,203.2"/>
	<path d="M587.8,237.7c7.3-1.9,49.5-14.6,38-27.9c0.3,0.1,0.6,0.1,0.8,0.2c-2.7-4.3-12.8-1.3-16.6-0.8c-6.9,0.8-14.1-2.1-17.1-9
		c-2.8-6.4-1.8-14.8-0.8-21.6c2-14.4,0.5-29.2,1.9-43.8c-2,0.9-1.2,14.5-1.2,17.3c-0.1,10.7-1.5,21.3-2.4,31.8
		c-1,12.5,2.8,19.2,12.3,26.2c-0.3-0.1-0.5-0.1-0.7,0.1c3.6,2.7,12-0.8,16.2-0.9c11.1-0.1,9.4,7,2.2,12.9
		c-9.9,8.1-20.4,12.5-33,14.5c-7.4,1.2-17.4,2.8-24.7,0.2c-1.4-0.5-17-11.6-15.4-12.6c0.6-0.4,6.5,4.2,7.6,4.4
		c-0.2,0.1-5.8-11.4-7.8-11.8c-6.1-1-19.1,13.1-25.1,15.4c-12.7,4.9-27,1-33.8-11.6c-3.3-6.2-5.1-23.8,0.1-28.9
		c-0.2-6.1,28.6-36.2,31.8-29.7c1.1,2.3-20,16.3-22.7,19.8c-7.8,10.1-13.2,27.6-5.4,39.1c9.7,14.2,26.2,10.6,38.5,3.2
		c5.4-3.2,13.8-11.7,19-8.3c6.3,4.1,7.8,13,16.1,16c12.9,4.7,32.3,0.3,43.8-6c3.7-2,15.3-8,11-13.3c-1.1-1.4-9.4,1.9-11.6,2
		c-4.6,0.2-8.8-0.9-12.6-3.6c-12.3-8.5-11.6-24.4-10.8-37.6c1.1-18.3,5-39.5,0-57.3c5,5.5,3.8,13.3,7.2,18.4c-0.3-0.4,0.8-0.1,0.8,0
		c0.6-2.5-2-11.6-4.1-13.1c0.2,0.5,0.2,0.9,0.1,1.4c-3.4-3.1-6-13.2-8.5-17.2c-7-11.3-16.9-11.8-28.6-8.4
		c-12.3,3.6-24.4,8.8-35.9,14.4c-12.1,5.9-14.3,12.6-21.2,23c0.4,0.3,0.9,0.1,1,0.1c0,0.8-0.5-0.2-0.5,0.5c0.5,0,0.7,0.2,0.6,0.7
		c0.2-0.4,0.5-0.4,0.9-0.1c-0.3-1,0.1-0.1,0.8-0.1c-1-3.5,17.3-12.8,20.4-14.4c7.3-3.7,14.9-5.9,21.3-3.4c7.4,3,7.4,6.3,10.1,13.5
		c2.9,7.6,4.6,22.3-1.6,25c-2.5,1.1-8.8,1.4-11.7,2.4c-5.1,1.8-10.3,3.3-15.2,5.5c-1.8-3.1,2-3.7-3.8-3.2c-2.8,0.2-7.3,3.5-9.7,5
		c-6.9,4.6-12,10.7-15.9,17.9c-4.8,9-9,19.8-6.7,30.9c4.6,22.6,30.8,23.4,46.6,13.3c3.4-2.2,10-10.5,14.1-10
		c2.8,0.3,5.8,4.5,7.7,8.1c-1.3-0.5-6.7-6-7.7-3c-1.1,3.6,10.8,11.1,13,12.3C566.5,240.2,579.1,240.1,587.8,237.7z M518.1,179.9
		 M517.4,187.1c0.3,0.2,0.8,0.5,0.1,0.7C517.5,187.5,517.4,187.3,517.4,187.1z M544.9,206.8c-1.3,0-2.5,0.6-3.5,1.9
		c1-2.3,0.8-4.7-0.3-5.9c2,4.2-0.6,6.8-5.6,6.9c-11.1,0.3-17.1-15.2-17.9-21.6c0.6,0,1-0.1,1.5-0.3c-0.2,0.2-0.9-9.9,0.2-12.4
		c6.1,3.1,5.3-3.7,7-3.1c0.4,0.5,23.5-3.6,14,4.2c-0.1-1,2.5,0.5,2.8,1.2c0.8,1.6,1.6,2.6,1.9,4c0.4,2.1-1.4,4.1-0.9,4.4
		c2.4-0.3-4.3,15.5-5.4,17.5c3.8,1.8,12.5-31.4,2.4-27.8c0.1-0.2,0.1-0.3-0.1-0.2c1.6-3.6,4.4-3-1-4.6c-3.9-1.2-12.1-0.6-14.2,0.9
		c-0.8,0.5-7.6,9.5-5.4,1.5c2.4-8.7,21.1-6.6,25.7-1.9C554,179.8,549.4,198,544.9,206.8z M548.3,126.6c1.2,0.5,1.7,1.7,1.3,3.7
		C548.8,129.2,548.3,128,548.3,126.6z M542.2,158c1.2-0.5,2.4-0.6,3.6-0.4c-0.4,0.6-5.8,1.1-6.1,1.1
		C540.6,158.5,541.4,158.2,542.2,158z"/>
</g>
</svg>
