<?xml version="1.0" encoding="utf-8"?>
<!-- Generator: Adobe Illustrator 23.0.1, SVG Export Plug-In . SVG Version: 6.00 Build 0)  -->
<svg version="1.1" id="Layer_1" xmlns="http://www.w3.org/2000/svg" xmlns:xlink="http://www.w3.org/1999/xlink" x="0px" y="0px"
	 viewBox="0 0 810.6 367.5" style="enable-background:new 0 0 810.6 367.5;" xml:space="preserve">
<style type="text/css">
	.st0{fill:url(#SVGID_1_);stroke:#12120D;stroke-width:5.7052;stroke-miterlimit:10;}
	.st1{fill:url(#SVGID_2_);stroke:#12120D;stroke-width:5.7052;stroke-miterlimit:10;}
	.st2{fill:url(#SVGID_3_);stroke:#12120D;stroke-width:5.7052;stroke-miterlimit:10;}
	.st3{fill:url(#SVGID_4_);stroke:#12120D;stroke-width:5.7052;stroke-miterlimit:10;}
	.st4{fill:url(#SVGID_5_);stroke:#12120D;stroke-width:3.5658;stroke-miterlimit:10;}
	.st5{fill:url(#SVGID_6_);stroke:#12120D;stroke-width:3.5658;stroke-miterlimit:10;}
	.st6{fill:url(#SVGID_7_);stroke:#12120D;stroke-width:3.5658;stroke-miterlimit:10;}
	.st7{fill:url(#SVGID_8_);stroke:#12120D;stroke-width:3.5658;stroke-miterlimit:10;}
	.st8{fill:url(#SVGID_9_);stroke:#12120D;stroke-width:3.5658;stroke-miterlimit:10;}
	.st9{fill:url(#SVGID_10_);stroke:#12120D;stroke-width:3.5658;stroke-miterlimit:10;}
</style>
<g>
	<linearGradient id="SVGID_1_" gradientUnits="userSpaceOnUse" x1="271.8636" y1="95.66" x2="96.373" y2="271.1506">
		<stop  offset="0" style="stop-color:#FFEC00"/>
		<stop  offset="0.1205" style="stop-color:#FFEC04"/>
		<stop  offset="0.2454" style="stop-color:#FFED11"/>
		<stop  offset="0.3724" style="stop-color:#FFEF25"/>
		<stop  offset="0.5008" style="stop-color:#FFF143"/>
		<stop  offset="0.6304" style="stop-color:#FFF468"/>
		<stop  offset="0.761" style="stop-color:#FFF796"/>
		<stop  offset="0.8898" style="stop-color:#FFFBCB"/>
		<stop  offset="1" style="stop-color:#FFFFFF"/>
	</linearGradient>
	<path class="st0" d="M179.8,363L4.5,187.8c-2.2-2.2-2.2-5.8,0-8L179.8,4.5c2.2-2.2,5.8-2.2,8,0L363,179.8c2.2,2.2,2.2,5.8,0,8
		L187.8,363C185.6,365.2,182,365.2,179.8,363z"/>
	<linearGradient id="SVGID_2_" gradientUnits="userSpaceOnUse" x1="340.3262" y1="95.66" x2="164.8357" y2="271.1506">
		<stop  offset="0" style="stop-color:#E6000E"/>
		<stop  offset="0.1205" style="stop-color:#E60412"/>
		<stop  offset="0.2454" style="stop-color:#E8111E"/>
		<stop  offset="0.3724" style="stop-color:#EA2531"/>
		<stop  offset="0.5008" style="stop-color:#ED434D"/>
		<stop  offset="0.6304" style="stop-color:#F06870"/>
		<stop  offset="0.761" style="stop-color:#F5969C"/>
		<stop  offset="0.8898" style="stop-color:#FACBCE"/>
		<stop  offset="1" style="stop-color:#FFFFFF"/>
	</linearGradient>
	<path class="st1" d="M248.2,363L73,187.8c-2.2-2.2-2.2-5.8,0-8L248.2,4.5c2.2-2.2,5.8-2.2,8,0l175.2,175.2c2.2,2.2,2.2,5.8,0,8
		L256.2,363C254,365.2,250.4,365.2,248.2,363z"/>
	<linearGradient id="SVGID_3_" gradientUnits="userSpaceOnUse" x1="408.7889" y1="95.66" x2="233.2983" y2="271.1506">
		<stop  offset="0" style="stop-color:#44A929"/>
		<stop  offset="0.1318" style="stop-color:#48AB2D"/>
		<stop  offset="0.2685" style="stop-color:#53B03A"/>
		<stop  offset="0.4074" style="stop-color:#65B84E"/>
		<stop  offset="0.5479" style="stop-color:#7EC46B"/>
		<stop  offset="0.6897" style="stop-color:#9FD391"/>
		<stop  offset="0.8324" style="stop-color:#C7E5BF"/>
		<stop  offset="0.9735" style="stop-color:#F6FBF4"/>
		<stop  offset="1" style="stop-color:#FFFFFF"/>
	</linearGradient>
	<path class="st2" d="M316.7,363L141.4,187.8c-2.2-2.2-2.2-5.8,0-8L316.7,4.5c2.2-2.2,5.8-2.2,8,0l175.2,175.2c2.2,2.2,2.2,5.8,0,8
		L324.7,363C322.5,365.2,318.9,365.2,316.7,363z"/>
	<linearGradient id="SVGID_4_" gradientUnits="userSpaceOnUse" x1="477.2515" y1="95.66" x2="301.7609" y2="271.1506">
		<stop  offset="0" style="stop-color:#004D9C"/>
		<stop  offset="0.1205" style="stop-color:#04509E"/>
		<stop  offset="0.2454" style="stop-color:#1159A2"/>
		<stop  offset="0.3724" style="stop-color:#2567AB"/>
		<stop  offset="0.5008" style="stop-color:#437BB6"/>
		<stop  offset="0.6304" style="stop-color:#6896C4"/>
		<stop  offset="0.761" style="stop-color:#96B6D6"/>
		<stop  offset="0.8898" style="stop-color:#CBDBEB"/>
		<stop  offset="1" style="stop-color:#FFFFFF"/>
	</linearGradient>
	<path class="st3" d="M385.1,363L209.9,187.8c-2.2-2.2-2.2-5.8,0-8L385.1,4.5c2.2-2.2,5.8-2.2,8,0l175.2,175.2c2.2,2.2,2.2,5.8,0,8
		L393.2,363C390.9,365.2,387.4,365.2,385.1,363z"/>
	<g>
		<linearGradient id="SVGID_5_" gradientUnits="userSpaceOnUse" x1="277.3039" y1="195.8049" x2="808.0333" y2="195.8049">
			<stop  offset="0" style="stop-color:#B1B2B2"/>
			<stop  offset="1" style="stop-color:#373836"/>
		</linearGradient>
		<path class="st4" d="M808.8,183.3h-34.7v-11.8c0-4.1-0.4-6.9-1.2-8.4c-0.8-1.5-2.2-2.2-4.4-2.2c-2.1,0-3.6,0.6-4.3,1.9
			c-0.7,1.3-1.1,4.2-1.1,8.6v48.3c0,3.7,0.5,6.4,1.6,8.2c1.1,1.8,2.7,2.7,4.8,2.7c2.5,0,4.2-1,5.1-2.9c0.9-1.9,1.3-5.5,1.3-10.8
			v-12.2h32.8c-0.1,8.2-0.4,14.3-1,18.4c-0.6,4.1-2.7,8.3-6.1,12.6c-3.4,4.3-7.9,7.5-13.4,9.7c-5.5,2.2-12.4,3.3-20.5,3.3
			c-10.4,0-18.6-1.5-24.7-4.5c-6.1-3-10.4-7.2-12.9-12.7c-2.5-5.4-3.8-13.1-3.8-23.1v-29.1c0-8.7,1-15.3,3.1-19.7
			c2.1-4.4,6.5-8.4,13.2-11.9c6.7-3.5,14.9-5.2,24.6-5.2c9.6,0,17.8,1.7,24.6,5.2c6.8,3.4,11.3,7.8,13.6,13
			C807.7,166.2,808.8,173.6,808.8,183.3z"/>
		<linearGradient id="SVGID_6_" gradientUnits="userSpaceOnUse" x1="277.3039" y1="195.8049" x2="808.0333" y2="195.8049">
			<stop  offset="0" style="stop-color:#B1B2B2"/>
			<stop  offset="1" style="stop-color:#373836"/>
		</linearGradient>
		<path class="st5" d="M715.5,197.6h-47.6v22.2c0,4.6,0.4,7.6,1.2,9c0.8,1.3,2.3,2,4.6,2c2.8,0,4.7-0.9,5.6-2.7
			c0.9-1.8,1.4-5.2,1.4-10.3v-13.5h34.9v7.6c0,6.3-0.5,11.2-1.4,14.6c-0.9,3.4-3.1,7-6.6,10.9c-3.5,3.9-7.8,6.8-13.2,8.7
			c-5.3,1.9-12,2.9-20,2.9c-7.8,0-14.6-1-20.6-2.9c-5.9-1.9-10.6-4.5-13.9-7.8c-3.3-3.3-5.6-7-6.9-11c-1.3-4-1.9-9.8-1.9-17.4v-29.9
			c0-9,1.4-16,4.3-21.2c2.9-5.2,7.5-9.1,14-11.9c6.5-2.8,14-4.1,22.4-4.1c10.3,0,18.8,1.7,25.5,5c6.7,3.3,11.4,7.7,14.1,13.2
			c2.7,5.5,4.1,13.2,4.1,23.1V197.6z M678.6,180.9v-7.5c0-5.3-0.3-8.7-1-10.3c-0.7-1.5-2-2.3-4.1-2.3c-2.5,0-4.1,0.7-4.7,2
			c-0.6,1.3-0.9,4.9-0.9,10.6v7.5H678.6z"/>
		<linearGradient id="SVGID_7_" gradientUnits="userSpaceOnUse" x1="277.3039" y1="186.3867" x2="808.0333" y2="186.3867">
			<stop  offset="0" style="stop-color:#B1B2B2"/>
			<stop  offset="1" style="stop-color:#373836"/>
		</linearGradient>
		<polygon class="st6" points="632.4,123.9 632.4,148.9 609.6,148.9 609.6,248.9 571.3,248.9 571.3,148.9 548.6,148.9 548.6,123.9 
					"/>
		<linearGradient id="SVGID_8_" gradientUnits="userSpaceOnUse" x1="277.3039" y1="183.7618" x2="808.0333" y2="183.7618">
			<stop  offset="0" style="stop-color:#B1B2B2"/>
			<stop  offset="1" style="stop-color:#373836"/>
		</linearGradient>
		<path class="st7" d="M540.9,194.5c0,12.6-0.4,21.4-1,26.7c-0.7,5.2-2.9,10-6.6,14.3c-3.7,4.3-8.6,7.6-14.9,10
			c-6.3,2.3-13.5,3.5-21.9,3.5c-7.9,0-15-1.1-21.3-3.3c-6.3-2.2-11.3-5.5-15.2-9.8c-3.8-4.4-6.1-9.1-6.8-14.3
			c-0.7-5.1-1.1-14.2-1.1-27v-21.4c0-12.6,0.3-21.4,1-26.7c0.7-5.2,2.9-10,6.6-14.3c3.7-4.3,8.6-7.6,14.9-10
			c6.3-2.3,13.5-3.5,21.9-3.5c7.9,0,15,1.1,21.3,3.3c6.3,2.2,11.3,5.5,15.2,9.8c3.8,4.4,6.1,9.1,6.8,14.3c0.7,5.1,1.1,14.2,1.1,27
			V194.5z M502.5,153.4c0-5.8-0.4-9.5-1.1-11.2c-0.8-1.6-2.3-2.4-4.7-2.4c-2,0-3.5,0.7-4.6,2c-1.1,1.3-1.6,5.2-1.6,11.6v58.4
			c0,7.3,0.3,11.7,1,13.4c0.7,1.7,2.3,2.5,4.9,2.5c2.6,0,4.3-1,5-2.9c0.7-2,1.1-6.6,1.1-14V153.4z"/>
		<linearGradient id="SVGID_9_" gradientUnits="userSpaceOnUse" x1="277.3039" y1="186.3867" x2="808.0333" y2="186.3867">
			<stop  offset="0" style="stop-color:#B1B2B2"/>
			<stop  offset="1" style="stop-color:#373836"/>
		</linearGradient>
		<polygon class="st8" points="375.8,123.9 439.7,123.9 439.7,148.9 414.1,148.9 414.1,172.6 438.1,172.6 438.1,196.4 414.1,196.4 
			414.1,223.9 442.3,223.9 442.3,248.9 375.8,248.9 		"/>
		<linearGradient id="SVGID_10_" gradientUnits="userSpaceOnUse" x1="277.3039" y1="186.3867" x2="808.0333" y2="186.3867">
			<stop  offset="0" style="stop-color:#B1B2B2"/>
			<stop  offset="1" style="stop-color:#373836"/>
		</linearGradient>
		<polygon class="st9" points="360.4,123.9 360.4,248.9 326.8,248.9 306.9,192.1 306.9,248.9 274.8,248.9 274.8,123.9 306.9,123.9 
			328.3,180.2 328.3,123.9 		"/>
	</g>
</g>
</svg>
