<svg version="1" xmlns="http://www.w3.org/2000/svg" width="1066.667" height="1066.667" viewBox="0 0 800.000000 800.000000"><path d="M0 400v400h800V0H0v400zm193.8-134.3l-.3 15.8-46.2.3-46.3.2v53h85v31h-85v82H65V250h129.1l-.3 15.7zM406 289v19h38v28h-38v35.2c0 33.1.1 35.4 2 39.3 1.3 2.7 3.4 5 6.3 6.6 3.7 2.1 5.6 2.4 17.5 2.7l13.2.4V448h-15.2c-16.7 0-24.3-1.3-33.3-5.6-7.5-3.5-14.6-10.2-18.4-17.3-5.5-10.3-6.1-15.6-6.1-54.4V336h-21v-28h21v-38h34v19zm-111.5 18.5c15 4 26.4 12.3 32.3 23.4 6.1 11.3 6.2 12.6 6.2 67.3V448h-32v-7.5c0-4.1-.1-7.5-.3-7.5-.2 0-6.4 3.1-13.8 6.9-16.7 8.6-24.7 10.6-39.5 9.9-9.4-.4-11-.8-17.8-4.2-8.9-4.4-15.5-11.1-18.8-19.4-3.2-8.2-3.2-24.2.1-32.4 4.3-11 14.9-19.8 29.1-24.4 4.6-1.4 10.4-1.8 33.9-2.2l28.4-.4-.7-8.1c-1.2-15.8-7.8-23.5-21.8-25.7-8-1.2-19.1.1-24.7 2.9-7 3.6-12.1 11.5-12.1 18.8 0 2.3-.1 2.3-16 2.3h-16v-3.8c0-5.5 2.6-15.5 5.5-21.2 4.8-9.4 17.1-19.2 28.9-23 13-4.2 36.5-4.9 49.1-1.5zm248.8.4c11.3 2.9 18.1 6.6 25.8 13.9C582 333.9 586 346 586 372.7V389h-93v5.8c0 12.5 4.8 21 14.8 25.9 5.3 2.6 6.6 2.8 17.2 2.8 10.3 0 12.1-.3 17.1-2.6 6.7-3.1 10.7-7.9 11.7-14l.8-4.4 15.2-.3c17.6-.3 17-.6 15.3 8.9-3.3 18.9-17.8 32.3-40.6 37.5-5.8 1.4-11.6 1.8-21 1.8-21.4-.2-35.3-5.2-47.1-16.9-6.6-6.6-10.5-13.5-13-23.3-1.3-5.3-1.5-11-1.2-33.5.4-26.3.5-27.4 2.9-33.9 1.5-3.7 4.1-8.9 5.8-11.7 7.1-11 21.3-20.6 35.1-23.5 9.9-2.2 28.1-2 37.3.3zm149.2-.4c14.4 3.1 27.5 11.6 34.4 22.3 4.1 6.4 6.8 15.3 7.7 24.5l.7 7.7h-32l-.6-5.4c-1-9.7-7-17.8-15.4-20.7-2.2-.8-7.9-1.4-13.3-1.4-8.4 0-10.2.3-15.3 2.9-4.4 2.1-6.6 4-8.8 7.3-4.3 6.9-5.1 12.9-4.7 36.6.3 20.5.4 21.4 2.9 26.8 4.6 9.8 12 13.8 26 13.9 17.7 0 26.4-6.7 28.6-22l.8-5.5h31l-.2 6.9c-.5 13.1-5.3 24.7-13.7 33.2-15.5 15.4-47 20.6-72.4 12-16.9-5.8-27.5-16.8-32.9-34.1-1.6-5.2-1.8-9.6-1.8-33.5 0-30.1.5-34 5.7-44.4 3.7-7.3 12.4-16.7 19.2-20.5 4.9-2.8 15.3-6.5 20.6-7.4 6.3-1.1 27-.6 33.5.8zM331 482v5h-16v48h-11v-47.9l-8.2-.3-8.3-.3-.3-3.3c-.6-6.4-1.3-6.2 22.3-6.2H331v5zm218.7-2.4c1.5 2.4 1.5 2.9.2 5.3-2 3.6-7.1 4.1-9.3.9-2-2.9-2-4.7.1-7 2.4-2.7 6.9-2.3 9 .8zm50.1-1.4c2 2 1.5 7.6-.7 8.8-4.1 2.2-9.1-.2-9.1-4.3 0-4.5 6.7-7.6 9.8-4.5zM572 488.5v5.4l5.8.3 5.7.3.3 3.7.3 3.7-5.8.3-5.8.3-.3 10c-.3 12 .4 13.5 7.1 14.2 4.7.6 4.7.6 4.7 4.4v3.9h-5.6c-12.7 0-16.3-5-16.4-22.3V502h-3c-2.8 0-3-.2-3-4s.2-4 3-4c3 0 3-.1 3-5.5V483h10v5.5zm-212.8 7.2c6.6 3.9 7.3 5.8 7.6 23.4l.4 15.9h-5.1c-4.5 0-5.1-.2-5.1-2.1 0-1.1-.3-1.9-.7-1.7-5.8 3-9.7 4.1-13.8 4.2-8.7 0-13.3-5.1-12.2-13.7 1-7.4 7.2-10.7 20-10.7 6.3 0 6.7-.1 6.7-2.3 0-4.5-2.7-6.7-8-6.7-5 0-7.3 1.3-8.5 5-.5 1.6-1.5 2-5.1 2-4.1 0-4.4-.2-4.4-2.5 0-8.3 8.6-13.9 19.8-13 2.9.2 6.7 1.2 8.4 2.2zm38.9.4c3.6 1.8 3.7 1.8 4.2-.1.4-1.6 1.4-2 5.1-2h4.6v55h-8.8l-.7-9-.7-9.1-2.3 1.5c-1.3.8-4.4 2-6.9 2.7-3.9 1-5.4.9-9.2-.6-7.2-2.7-8.4-5.6-8.4-20.3V502l3.3-3.6c5-5.5 11.9-6.3 19.8-2.3zm95.8-.6c6.2 3.2 7.1 6.1 7.1 23.7V535h-4.5c-3.8 0-4.5-.3-4.5-2 0-2.5-.2-2.5-4.8-.1-11.9 6.1-22.2 1.9-22.2-9 0-9.1 5.8-12.9 19.8-12.9 7 0 7.2-.1 7.2-2.5 0-4-3.3-6.5-8.5-6.5-4.7 0-8.5 2.5-8.5 5.5 0 1.1-1.2 1.5-4.6 1.5h-4.7l.6-4.1c.8-5.8 4.2-9.2 11.2-11 4.3-1.2 12.8-.3 16.4 1.6zm234.2.1c6 3.1 6.9 6.1 6.9 23.6V535h-4.5c-3.8 0-4.5-.3-4.5-2 0-2.5-.1-2.5-5.3.2-5.7 2.9-13.6 3-17.4.2-5.7-4.2-6.2-13.4-1-18.2 3.2-3 7.8-4.2 16.4-4.2 7.9 0 8.6-.7 6.2-5.3-1.7-3.1-2.8-3.7-8-3.7-4.7 0-6.8 1.4-8.2 5.3-.5 1.4-1.6 1.8-4.9 1.5-4.1-.3-4.3-.4-4-3.3.6-5.6 4.9-9.9 11.5-11.6 4.3-1.1 13.2-.2 16.8 1.7zM431 508.7c0 12.2.3 14.9 1.7 16.5 2.1 2.4 3.4 2.3 9.3-.7l5-2.5v-28h10v41h-5c-4.4 0-5-.3-5-2 0-2 0-2-4.2.2-5.3 2.7-12.5 2.9-16.3.4-4.6-3-5.5-6.9-5.5-24.1V494h10v14.7zm89-12.2v2.4l3.6-2.4c2.1-1.4 5.1-2.5 7-2.5h3.4v10h-3.4c-1.8 0-4.8 1-6.7 2.3l-3.4 2.3-.3 13.2-.3 13.2H510v-41h5c4.7 0 5 .2 5 2.5zm30 18V535h-10v-41h10v20.5zm51 0V535h-10v-41h10v20.5zm19-18.5c0 1.1.1 2 .3 2 .1 0 2-.9 4.2-2 4.2-2.1 10.8-2.6 14.9-1 1.4.5 3.5 2.4 4.6 4.2 1.8 2.9 2 5.1 2 19.5V535h-10v-15c0-14.9 0-15-2.5-16.6-2.4-1.6-2.8-1.5-8 1.1l-5.5 2.8V535h-10v-19.8c0-10.9.3-20.2.7-20.5.3-.4 2.6-.7 5-.7 3.6 0 4.3.3 4.3 2zm74 2c0 3.5-.3 4-2.4 4-2.2 0-2.3.3-1.8 4.9.9 9.5-3.8 13.1-17.3 13.1-9.5 0-12.2.8-11.2 3.3.4 1.2 3.1 1.6 12.4 1.9 7.1.3 12.9 1 14.6 1.8 5.5 2.7 7.3 9.9 3.7 15.7-3 5-7.2 6.7-16.5 6.7-12.4 0-18.5-4.6-18.5-14.2 0-2.9-.6-4.8-2-6.2-2.9-2.9-2.7-9.4.3-12.3 2.1-2 2.2-2.5 1-4.7-3-5.9-.4-13.2 5.9-16 3.6-1.6 6.6-2 18.1-2H694v4z"/><path d="M256.7 391c-10.1 1.7-15.7 7.6-15.7 16.7 0 11.6 6.4 17.1 18.9 16 8-.7 15.2-3.3 29.9-11.2l11.2-6V390l-19.7.1c-10.9.1-21.9.5-24.6.9zM511.3 334.8c-11.2 4-17.1 12.3-18.1 25.2l-.5 7h62.6l-.6-7.4c-.8-11.2-5.4-18.9-14-23.3-7-3.6-21.4-4.3-29.4-1.5zM342.2 519.6c-2.4 1.7-2.9 5.3-1 7.2 1.8 1.8 4.7 1.4 10.6-1.3 4.3-2 5.2-2.9 5.2-5 0-2.4-.2-2.5-6.3-2.5-4 0-7 .5-8.5 1.6zM386.6 504.1c-2.4 1.9-2.6 2.6-2.6 10.5 0 7.1.3 8.7 2 10.4 2.6 2.6 5 2.5 11-.5l5-2.5v-15.1l-5.2-2.4c-6.4-3-6.9-3-10.2-.4zM477.3 519c-1.3.5-2.4 1.7-2.4 2.7-.5 7 3.1 8.1 11.9 3.6 4.1-2.1 5.2-3.1 5-4.7-.3-1.8-1.1-2.1-6.3-2.3-3.3-.1-7 .2-8.2.7zM711.3 519c-2.4 1-3.7 3.9-2.7 6.4 1.2 3 5.2 3 11.5 0 4.8-2.2 5.9-3.2 5.7-4.9-.3-1.7-1.1-2-6.3-2.2-3.3-.1-7 .2-8.2.7zM666.2 503.2c-.7.7-1.2 2.6-1.2 4.3 0 4.4 1.6 5.5 7.7 5.5 4 0 5.8-.5 7.3-2 2.4-2.4 2.5-3.8.4-6.8-1.3-1.8-2.5-2.2-7.3-2.2-3.1 0-6.2.5-6.9 1.2zM666 535.8c0 3.3 2.2 5.6 6.3 6.6 7.1 1.7 14.2-2.7 11.7-7.3-.9-1.9-2-2.1-9.5-2.1H666v2.8z"/></svg>