<?xml version="1.0" encoding="utf-8"?>
<!-- Generator: Adobe Illustrator 24.1.1, SVG Export Plug-In . SVG Version: 6.00 Build 0)  -->
<svg version="1.1" id="Layer_1" xmlns="http://www.w3.org/2000/svg" xmlns:xlink="http://www.w3.org/1999/xlink" x="0px" y="0px"
	 viewBox="0 0 1920 360" style="enable-background:new 0 0 1920 360;" xml:space="preserve">
<style type="text/css">
	.st0{opacity:0.1;}
	.st1{fill:url(#SVGID_1_);}
	.st2{fill:#EC1C24;}
	.st3{fill:#FAFAFA;}
	.st4{fill:#B01117;}
	.st5{fill:#C3161C;}
	.st6{fill:#BBBDBF;}
	.st7{fill:#CCCCCC;}
	.st8{fill:#F1F1F2;}
	.st9{opacity:0.3;fill:#FFFFFF;enable-background:new    ;}
</style>
<path class="st0" d="M1323.5,217.7l-111.7-40.2c-5.6-2-11.8,0.9-13.8,6.5l-8.3,23.1l0.1,0.1l-1.8,5.1l-0.1,0l-30,83.5
	c-2,5.6,0.9,11.8,6.5,13.8l111.7,40.2c5.6,2,11.8-0.8,13.8-6.5l29.9-83.4l0.1,0l1.9-5.2l0,0l8.3-23.1
	C1332,225.9,1329.1,219.7,1323.5,217.7z M1231.7,197.6c-1.5,4.2-6.1,6.3-10.3,4.8c-4.2-1.5-6.3-6.1-4.8-10.3
	c1.5-4.2,6.1-6.3,10.3-4.8C1231.1,188.8,1233.2,193.4,1231.7,197.6z M1295.4,220.4c1.5-4.2,6.1-6.3,10.3-4.8
	c4.2,1.6,6.3,6.1,4.8,10.3c-1.5,4.2-6.1,6.3-10.3,4.8C1296.1,229.3,1294,224.7,1295.4,220.4z"/>
<radialGradient id="SVGID_1_" cx="527.1489" cy="-189.0996" r="543.8314" gradientTransform="matrix(1 0 0 0.9159 0 0)" gradientUnits="userSpaceOnUse">
	<stop  offset="0" style="stop-color:#ED1C24"/>
	<stop  offset="1" style="stop-color:#9E0B0F"/>
</radialGradient>
<polygon class="st1" points="0,0 1920,0 1920,254.3 0,360 "/>
<g>
	<path class="st2" d="M1319,249.3L1187,201.9l8.3-23.1c2-5.6,8.2-8.5,13.8-6.5l111.7,40.2c5.6,2,8.5,8.2,6.5,13.8L1319,249.3z
		 M1224.1,182c-4.2-1.5-8.8,0.6-10.3,4.8c-1.5,4.2,0.6,8.8,4.8,10.3c4.2,1.5,8.8-0.6,10.3-4.8C1230.5,188.1,1228.4,183.5,1224.1,182
		z M1303,210.3c-4.2-1.5-8.8,0.6-10.3,4.8c-1.5,4.2,0.6,8.8,4.8,10.3c4.2,1.5,8.8-0.6,10.3-4.8
		C1309.3,216.4,1307.2,211.8,1303,210.3z"/>
	<path class="st3" d="M1273.4,344.4l-111.7-40.2c-5.6-2-8.5-8.2-6.5-13.8l30-83.5l131.9,47.4l-30,83.5
		C1285.1,343.6,1278.9,346.4,1273.4,344.4z"/>
	
		<rect x="1249.3" y="158.1" transform="matrix(0.338 -0.9412 0.9412 0.338 614.1393 1329.5099)" class="st4" width="5.6" height="140.2"/>
	<path class="st5" d="M1231.6,193.2c-2,5.7-8.3,8.6-13.9,6.5c-5.7-2-8.6-8.3-6.5-13.9c2-5.7,8.3-8.6,13.9-6.5
		C1230.7,181.5,1233.7,187.6,1231.6,193.2z M1224.1,182c-4.2-1.5-8.8,0.6-10.3,4.8c-1.5,4.2,0.6,8.8,4.8,10.3
		c4.2,1.5,8.8-0.6,10.3-4.8C1230.5,188.1,1228.4,183.5,1224.1,182z"/>
	<g>
		
			<rect x="1288.7" y="257.2" transform="matrix(0.338 -0.9412 0.9412 0.338 609.5178 1392.0112)" class="st6" width="11.1" height="11.1"/>
		
			<rect x="1272.6" y="251.4" transform="matrix(0.338 -0.9412 0.9412 0.338 604.3057 1373.0455)" class="st6" width="11.1" height="11.1"/>
		
			<rect x="1256.5" y="245.6" transform="matrix(0.338 -0.9412 0.9412 0.338 599.0935 1354.0801)" class="st6" width="11.1" height="11.1"/>
		
			<rect x="1283.1" y="272.7" transform="matrix(0.338 -0.9412 0.9412 0.338 591.1795 1397.0874)" class="st6" width="11.1" height="11.1"/>
		
			<rect x="1267" y="267" transform="matrix(0.338 -0.9412 0.9412 0.338 585.9675 1378.1219)" class="st6" width="11.1" height="11.1"/>
		
			<rect x="1250.9" y="261.2" transform="matrix(0.338 -0.9412 0.9412 0.338 580.7552 1359.1563)" class="st6" width="11.1" height="11.1"/>
		
			<rect x="1234.7" y="255.4" transform="matrix(0.338 -0.9412 0.9412 0.338 575.511 1340.074)" class="st6" width="11.1" height="11.1"/>
		
			<rect x="1218.6" y="249.6" transform="matrix(0.338 -0.9412 0.9412 0.338 570.2989 1321.1085)" class="st6" width="11.1" height="11.1"/>
		
			<rect x="1202.6" y="243.8" transform="matrix(0.338 -0.9412 0.9412 0.338 565.0866 1302.1429)" class="st6" width="11.1" height="11.1"/>
		
			<rect x="1186.5" y="238" transform="matrix(0.338 -0.9412 0.9412 0.338 559.8745 1283.1772)" class="st6" width="11.1" height="11.1"/>
		
			<rect x="1277.5" y="288.4" transform="matrix(0.338 -0.9412 0.9412 0.338 572.7247 1402.1958)" class="st6" width="11.1" height="11.1"/>
		
			<rect x="1261.3" y="282.6" transform="matrix(0.338 -0.9412 0.9412 0.338 567.4804 1383.1135)" class="st6" width="11.1" height="11.1"/>
		
			<rect x="1245.2" y="276.8" transform="matrix(0.338 -0.9412 0.9412 0.338 562.2682 1364.1479)" class="st6" width="11.1" height="11.1"/>
		
			<rect x="1229.1" y="271.1" transform="matrix(0.338 -0.9412 0.9412 0.338 557.0562 1345.1824)" class="st6" width="11.1" height="11.1"/>
		
			<rect x="1213.1" y="265.3" transform="matrix(0.338 -0.9412 0.9412 0.338 551.8439 1326.2168)" class="st6" width="11.1" height="11.1"/>
		
			<rect x="1197" y="259.5" transform="matrix(0.338 -0.9412 0.9412 0.338 546.6318 1307.2511)" class="st6" width="11.1" height="11.1"/>
		
			<rect x="1180.9" y="253.7" transform="matrix(0.338 -0.9412 0.9412 0.338 541.4197 1288.2856)" class="st6" width="11.1" height="11.1"/>
		
			<rect x="1271.8" y="304" transform="matrix(0.338 -0.9412 0.9412 0.338 554.3543 1407.1555)" class="st6" width="11.1" height="11.1"/>
		
			<rect x="1255.8" y="298.2" transform="matrix(0.338 -0.9412 0.9412 0.338 549.1422 1388.1897)" class="st6" width="11.1" height="11.1"/>
		
			<rect x="1239.7" y="292.4" transform="matrix(0.338 -0.9412 0.9412 0.338 543.9301 1369.2244)" class="st6" width="11.1" height="11.1"/>
		
			<rect x="1223.6" y="286.6" transform="matrix(0.338 -0.9412 0.9412 0.338 538.7179 1350.2587)" class="st6" width="11.1" height="11.1"/>
		
			<rect x="1207.5" y="280.8" transform="matrix(0.338 -0.9412 0.9412 0.338 533.5057 1331.2931)" class="st6" width="11.1" height="11.1"/>
		
			<rect x="1191.4" y="275.1" transform="matrix(0.338 -0.9412 0.9412 0.338 528.2935 1312.3275)" class="st6" width="11.1" height="11.1"/>
		
			<rect x="1175.2" y="269.3" transform="matrix(0.338 -0.9412 0.9412 0.338 523.0494 1293.2454)" class="st6" width="11.1" height="11.1"/>
		
			<rect x="1250.2" y="313.8" transform="matrix(0.338 -0.9412 0.9412 0.338 530.804 1393.2661)" class="st6" width="11.1" height="11.1"/>
		
			<rect x="1234.1" y="308" transform="matrix(0.338 -0.9412 0.9412 0.338 525.5917 1374.3005)" class="st6" width="11.1" height="11.1"/>
		
			<rect x="1218" y="302.2" transform="matrix(0.338 -0.9412 0.9412 0.338 520.3796 1355.3348)" class="st6" width="11.1" height="11.1"/>
		
			<rect x="1201.8" y="296.4" transform="matrix(0.338 -0.9412 0.9412 0.338 515.1354 1336.2528)" class="st6" width="11.1" height="11.1"/>
		
			<rect x="1185.7" y="290.6" transform="matrix(0.338 -0.9412 0.9412 0.338 509.9232 1317.2871)" class="st6" width="11.1" height="11.1"/>
		
			<rect x="1169.7" y="284.8" transform="matrix(0.338 -0.9412 0.9412 0.338 504.7111 1298.3215)" class="st6" width="11.1" height="11.1"/>
	</g>
	<path class="st5" d="M1310.5,221.5c-2,5.7-8.3,8.6-13.9,6.5c-5.6-2.1-8.6-8.3-6.5-13.9c2-5.7,8.3-8.6,13.9-6.5
		C1309.5,209.7,1312.6,215.9,1310.5,221.5z M1303,210.3c-4.2-1.5-8.8,0.6-10.3,4.8c-1.5,4.2,0.6,8.8,4.8,10.3
		c4.2,1.5,8.8-0.6,10.3-4.8C1309.3,216.4,1307.2,211.8,1303,210.3z"/>
	<path class="st7" d="M1219.5,194.7L1219.5,194.7c-3.4-1.2-5-4.9-3.9-8.2l5-14.1c1.2-3.4,4.9-5,8.2-3.9l0,0c3.4,1.2,5,4.9,3.9,8.2
		l-5,14.1C1226.6,194.2,1222.9,196,1219.5,194.7z"/>
	<path class="st7" d="M1298.4,223.1L1298.4,223.1c-3.4-1.2-5-4.9-3.9-8.2l5-14.1c1.2-3.4,4.9-5,8.2-3.9l0,0c3.4,1.2,5,4.9,3.9,8.2
		l-5,14.1C1305.4,222.6,1301.7,224.2,1298.4,223.1z"/>
	<path class="st8" d="M1297.5,219L1297.5,219c-0.8-0.3-1.4-1.3-1.1-2.1l5.9-16.5c0.3-0.8,1.3-1.4,2.1-1.1l0,0
		c0.8,0.3,1.4,1.3,1.1,2.1l-5.9,16.5C1299.4,218.9,1298.5,219.3,1297.5,219z"/>
	<path class="st8" d="M1218.5,190.6L1218.5,190.6c-0.8-0.3-1.4-1.3-1.1-2.1l5.9-16.5c0.3-0.8,1.3-1.4,2.1-1.1l0,0
		c0.8,0.3,1.4,1.3,1.1,2.1l-5.9,16.5C1220.4,190.5,1219.3,190.9,1218.5,190.6z"/>
</g>
<g>
	<g class="st0">
		<path d="M1132.1,254.3l-57.9-164.9l0.1,0l-3.6-10.4l-0.1,0l-16.1-45.7c-3.9-11-16.1-16.8-27.1-13L806.6,97.7
			c-11,3.9-16.8,16.1-13,27.1l16.1,45.7l0.2,0l3.6,10.2l-0.2,0.1l58,165c3.9,11,16.1,16.8,27.1,13l220.9-77.4
			C1130.2,277.5,1136.1,265.4,1132.1,254.3z M852.2,123.9c-8.3,3-17.2-1.5-20.2-9.8c-3-8.3,1.5-17.2,9.8-20.2
			c8.3-3,17.2,1.5,20.2,9.8C865,112,860.5,121,852.2,123.9z M1008.1,69.1c-8.3,3-17.2-1.5-20.2-9.8c-3-8.3,1.5-17.2,9.8-20.2
			c8.4-2.8,17.2,1.5,20.2,9.8C1020.8,57.2,1016.4,66.2,1008.1,69.1z"/>
	</g>
	<g>
		<path class="st2" d="M1060.4,76.8l-256.8,90.1l-15.8-45c-3.8-10.8,1.9-22.9,12.8-26.7l217.3-76.2c10.8-3.8,22.9,1.9,26.7,12.8
			L1060.4,76.8z M835.2,91.6c-8.1,2.9-12.5,11.8-9.6,19.9s11.8,12.5,19.9,9.6c8.1-2.9,12.5-11.8,9.6-19.9S843.3,88.6,835.2,91.6z
			 M988.6,37.6c-8.1,2.9-12.5,11.8-9.6,19.9s11.8,12.5,19.9,9.6c8.1-2.9,12.5-11.8,9.6-19.9C1005.5,39.1,996.8,34.9,988.6,37.6z"/>
		<path class="st3" d="M1108.1,276l-217.3,76.2c-10.8,3.8-22.9-1.9-26.7-12.8l-57-162.4l256.8-90.1l57,162.4
			C1124.8,260.3,1119,272.2,1108.1,276z"/>
		
			<rect x="797.9" y="121.5" transform="matrix(0.9435 -0.3313 0.3313 0.9435 10.6762 316.5437)" class="st4" width="272" height="10.8"/>
		<path class="st5" d="M860.2,99.4c3.9,11-2,23.2-12.9,26.8c-11,3.9-23.2-2-26.8-12.9c-3.9-11,2-23.2,12.9-26.8
			C844.4,82.8,856.4,88.2,860.2,99.4z M835.2,91.6c-8.1,2.9-12.5,11.8-9.6,19.9s11.8,12.5,19.9,9.6c8.1-2.9,12.5-11.8,9.6-19.9
			S843.3,88.6,835.2,91.6z"/>
		<g>
			
				<rect x="1028.8" y="116.6" transform="matrix(0.9435 -0.3313 0.3313 0.9435 16.4909 351.5884)" class="st6" width="21.6" height="21.6"/>
			
				<rect x="997.5" y="127.6" transform="matrix(0.9435 -0.3313 0.3313 0.9435 11.0831 341.8391)" class="st6" width="21.6" height="21.6"/>
			
				<rect x="966.2" y="138.6" transform="matrix(0.9435 -0.3313 0.3313 0.9435 5.6753 332.0898)" class="st6" width="21.6" height="21.6"/>
			
				<rect x="1039.5" y="146.9" transform="matrix(0.9435 -0.3313 0.3313 0.9435 7.069 356.8374)" class="st6" width="21.6" height="21.6"/>
			
				<rect x="1008.2" y="157.9" transform="matrix(0.9435 -0.3313 0.3313 0.9435 1.6613 347.0882)" class="st6" width="21.6" height="21.6"/>
			
				<rect x="976.9" y="168.8" transform="matrix(0.9435 -0.3313 0.3313 0.9435 -3.7466 337.3389)" class="st6" width="21.6" height="21.6"/>
			
				<rect x="945.4" y="179.9" transform="matrix(0.9435 -0.3313 0.3313 0.9435 -9.1877 327.5296)" class="st6" width="21.6" height="21.6"/>
			
				<rect x="914.1" y="190.9" transform="matrix(0.9435 -0.3313 0.3313 0.9435 -14.5955 317.7804)" class="st6" width="21.6" height="21.6"/>
			
				<rect x="882.8" y="201.9" transform="matrix(0.9435 -0.3313 0.3313 0.9435 -20.0033 308.0311)" class="st6" width="21.6" height="21.6"/>
			
				<rect x="851.5" y="212.9" transform="matrix(0.9435 -0.3313 0.3313 0.9435 -25.4111 298.2818)" class="st6" width="21.6" height="21.6"/>
			
				<rect x="1050.2" y="177.3" transform="matrix(0.9435 -0.3313 0.3313 0.9435 -2.4129 362.1198)" class="st6" width="21.6" height="21.6"/>
			
				<rect x="1018.7" y="188.4" transform="matrix(0.9435 -0.3313 0.3313 0.9435 -7.8539 352.3105)" class="st6" width="21.6" height="21.6"/>
			
				<rect x="987.4" y="199.4" transform="matrix(0.9435 -0.3313 0.3313 0.9435 -13.2618 342.5612)" class="st6" width="21.6" height="21.6"/>
			
				<rect x="956.1" y="210.4" transform="matrix(0.9435 -0.3313 0.3313 0.9435 -18.6695 332.8119)" class="st6" width="21.6" height="21.6"/>
			
				<rect x="924.8" y="221.3" transform="matrix(0.9435 -0.3313 0.3313 0.9435 -24.0774 323.0627)" class="st6" width="21.6" height="21.6"/>
			
				<rect x="893.5" y="232.3" transform="matrix(0.9435 -0.3313 0.3313 0.9435 -29.4852 313.3133)" class="st6" width="21.6" height="21.6"/>
			
				<rect x="862.2" y="243.3" transform="matrix(0.9435 -0.3313 0.3313 0.9435 -34.893 303.5641)" class="st6" width="21.6" height="21.6"/>
			
				<rect x="1060.7" y="207.7" transform="matrix(0.9435 -0.3313 0.3313 0.9435 -11.868 367.3088)" class="st6" width="21.6" height="21.6"/>
			
				<rect x="1029.4" y="218.6" transform="matrix(0.9435 -0.3313 0.3313 0.9435 -17.2759 357.5595)" class="st6" width="21.6" height="21.6"/>
			
				<rect x="998.1" y="229.6" transform="matrix(0.9435 -0.3313 0.3313 0.9435 -22.6836 347.8103)" class="st6" width="21.6" height="21.6"/>
			
				<rect x="966.8" y="240.6" transform="matrix(0.9435 -0.3313 0.3313 0.9435 -28.0915 338.061)" class="st6" width="21.6" height="21.6"/>
			
				<rect x="935.5" y="251.6" transform="matrix(0.9435 -0.3313 0.3313 0.9435 -33.4993 328.3117)" class="st6" width="21.6" height="21.6"/>
			
				<rect x="904.2" y="262.6" transform="matrix(0.9435 -0.3313 0.3313 0.9435 -38.9071 318.5625)" class="st6" width="21.6" height="21.6"/>
			
				<rect x="872.7" y="273.7" transform="matrix(0.9435 -0.3313 0.3313 0.9435 -44.3481 308.7532)" class="st6" width="21.6" height="21.6"/>
			
				<rect x="1040.1" y="248.9" transform="matrix(0.9435 -0.3313 0.3313 0.9435 -26.6977 362.8086)" class="st6" width="21.6" height="21.6"/>
			
				<rect x="1008.8" y="259.9" transform="matrix(0.9435 -0.3313 0.3313 0.9435 -32.1056 353.0594)" class="st6" width="21.6" height="21.6"/>
			
				<rect x="977.5" y="270.9" transform="matrix(0.9435 -0.3313 0.3313 0.9435 -37.5134 343.31)" class="st6" width="21.6" height="21.6"/>
			
				<rect x="946" y="281.9" transform="matrix(0.9435 -0.3313 0.3313 0.9435 -42.9544 333.5009)" class="st6" width="21.6" height="21.6"/>
			
				<rect x="914.7" y="292.9" transform="matrix(0.9435 -0.3313 0.3313 0.9435 -48.3623 323.7515)" class="st6" width="21.6" height="21.6"/>
			
				<rect x="883.4" y="303.9" transform="matrix(0.9435 -0.3313 0.3313 0.9435 -53.7701 314.0023)" class="st6" width="21.6" height="21.6"/>
		</g>
		<path class="st5" d="M1013.6,45.4c3.9,11-2,23.2-12.9,26.8c-11,3.7-23.2-2-26.8-12.9c-3.9-11,2-23.2,12.9-26.8
			C997.8,28.9,1009.9,34.5,1013.6,45.4z M988.6,37.6c-8.1,2.9-12.5,11.8-9.6,19.9s11.8,12.5,19.9,9.6c8.1-2.9,12.5-11.8,9.6-19.9
			C1005.5,39.1,996.8,34.9,988.6,37.6z"/>
		<path class="st7" d="M843.8,116.4L843.8,116.4c-6.5,2.4-13.6-1.3-15.9-7.6l-9.6-27.4c-2.4-6.5,1.3-13.6,7.6-15.9l0,0
			c6.5-2.4,13.6,1.3,15.9,7.6l9.6,27.4C853.8,107,850.4,114.2,843.8,116.4z"/>
		<path class="st7" d="M997.3,62.6L997.3,62.6c-6.5,2.4-13.6-1.3-15.9-7.6l-9.6-27.4c-2.4-6.5,1.3-13.6,7.6-15.9l0,0
			c6.5-2.4,13.6,1.3,15.9,7.6l9.6,27.4C1007.3,53.2,1003.8,60.2,997.3,62.6z"/>
		<path class="st8" d="M991,57.5L991,57.5c-1.7,0.6-3.6-0.2-4.2-1.9l-11.3-32.1c-0.6-1.7,0.2-3.6,1.9-4.2l0,0
			c1.7-0.6,3.6,0.2,4.2,1.9l11.3,32.1C993.8,55,992.8,56.8,991,57.5z"/>
		<path class="st8" d="M837.2,111.5L837.2,111.5c-1.7,0.6-3.6-0.2-4.2-1.9l-11.3-32.1c-0.6-1.7,0.2-3.6,1.9-4.2l0,0
			c1.7-0.6,3.6,0.2,4.2,1.9l11.3,32.1C839.9,109,838.9,110.9,837.2,111.5z"/>
	</g>
</g>
<g>
	<path class="st2" d="M757.2,215.2l-113.5-26.5l4.7-19.9c1.1-4.8,5.9-7.8,10.7-6.7l96.1,22.5c4.8,1.1,7.8,5.9,6.7,10.7L757.2,215.2z
		 M672.4,168.8c-3.6-0.9-7.2,1.4-8,4.9c-0.9,3.6,1.4,7.2,4.9,8c3.6,0.9,7.2-1.4,8-4.9C678.3,173.3,676,169.7,672.4,168.8z
		 M740.3,184.6c-3.6-0.9-7.2,1.4-8,4.9c-0.9,3.6,1.4,7.2,4.9,8s7.2-1.4,8-4.9C746.1,189.1,743.9,185.5,740.3,184.6z"/>
	<path class="st3" d="M728.7,298.3l-96.1-22.5c-4.8-1.1-7.8-5.9-6.7-10.7l16.8-71.8l113.5,26.5l-16.8,71.8
		C738.3,296.4,733.5,299.4,728.7,298.3z"/>
	
		<rect x="697.7" y="146.1" transform="matrix(0.2272 -0.9739 0.9739 0.2272 341.9603 839.5749)" class="st4" width="4.6" height="116.5"/>
	<path class="st5" d="M679.7,177.3c-1.1,4.8-6,7.9-10.9,6.8c-4.8-1.1-7.9-6-6.8-10.9c1.1-4.8,6-7.9,10.9-6.8
		C677.8,167.7,680.9,172.5,679.7,177.3z M672.4,168.8c-3.6-0.9-7.2,1.4-8,4.9c-0.9,3.6,1.4,7.2,4.9,8c3.6,0.9,7.2-1.4,8-4.9
		C678.3,173.3,676,169.7,672.4,168.8z"/>
	<g>
		
			<rect x="733.4" y="224.1" transform="matrix(0.2272 -0.9739 0.9739 0.2272 347.6035 895.5479)" class="st6" width="9.3" height="9.3"/>
		
			<rect x="719.6" y="220.9" transform="matrix(0.2272 -0.9739 0.9739 0.2272 340.0358 879.6064)" class="st6" width="9.3" height="9.3"/>
		
			<rect x="705.8" y="217.7" transform="matrix(0.2272 -0.9739 0.9739 0.2272 332.4682 863.665)" class="st6" width="9.3" height="9.3"/>
		
			<rect x="730.3" y="237.6" transform="matrix(0.2272 -0.9739 0.9739 0.2272 332.1035 902.9386)" class="st6" width="9.3" height="9.3"/>
		
			<rect x="716.5" y="234.4" transform="matrix(0.2272 -0.9739 0.9739 0.2272 324.5357 886.9971)" class="st6" width="9.3" height="9.3"/>
		
			<rect x="702.6" y="231.2" transform="matrix(0.2272 -0.9739 0.9739 0.2272 316.9024 870.9169)" class="st6" width="9.3" height="9.3"/>
		
			<rect x="688.8" y="227.8" transform="matrix(0.2272 -0.9739 0.9739 0.2272 309.4734 854.9099)" class="st6" width="9.3" height="9.3"/>
		
			<rect x="674.9" y="224.6" transform="matrix(0.2272 -0.9739 0.9739 0.2272 301.9057 838.9683)" class="st6" width="9.3" height="9.3"/>
		
			<rect x="661.1" y="221.4" transform="matrix(0.2272 -0.9739 0.9739 0.2272 294.3379 823.0269)" class="st6" width="9.3" height="9.3"/>
		
			<rect x="647.2" y="218.2" transform="matrix(0.2272 -0.9739 0.9739 0.2272 286.7047 806.9467)" class="st6" width="9.3" height="9.3"/>
		
			<rect x="727.2" y="251.1" transform="matrix(0.2272 -0.9739 0.9739 0.2272 316.6032 910.3293)" class="st6" width="9.3" height="9.3"/>
		
			<rect x="713.3" y="247.8" transform="matrix(0.2272 -0.9739 0.9739 0.2272 308.97 894.2491)" class="st6" width="9.3" height="9.3"/>
		
			<rect x="699.5" y="244.5" transform="matrix(0.2272 -0.9739 0.9739 0.2272 301.5409 878.2421)" class="st6" width="9.3" height="9.3"/>
		
			<rect x="685.7" y="241.3" transform="matrix(0.2272 -0.9739 0.9739 0.2272 293.9732 862.3005)" class="st6" width="9.3" height="9.3"/>
		
			<rect x="671.8" y="238.1" transform="matrix(0.2272 -0.9739 0.9739 0.2272 286.4056 846.3591)" class="st6" width="9.3" height="9.3"/>
		
			<rect x="657.9" y="234.9" transform="matrix(0.2272 -0.9739 0.9739 0.2272 278.7723 830.2789)" class="st6" width="9.3" height="9.3"/>
		
			<rect x="644.1" y="231.7" transform="matrix(0.2272 -0.9739 0.9739 0.2272 271.2046 814.3374)" class="st6" width="9.3" height="9.3"/>
		
			<rect x="724.1" y="264.4" transform="matrix(0.2272 -0.9739 0.9739 0.2272 301.1763 917.5157)" class="st6" width="9.3" height="9.3"/>
		
			<rect x="710.2" y="261.2" transform="matrix(0.2272 -0.9739 0.9739 0.2272 293.6086 901.5742)" class="st6" width="9.3" height="9.3"/>
		
			<rect x="696.4" y="258" transform="matrix(0.2272 -0.9739 0.9739 0.2272 286.0408 885.6328)" class="st6" width="9.3" height="9.3"/>
		
			<rect x="682.5" y="254.7" transform="matrix(0.2272 -0.9739 0.9739 0.2272 278.4076 869.5526)" class="st6" width="9.3" height="9.3"/>
		
			<rect x="668.6" y="251.5" transform="matrix(0.2272 -0.9739 0.9739 0.2272 270.8398 853.6111)" class="st6" width="9.3" height="9.3"/>
		
			<rect x="654.8" y="248.3" transform="matrix(0.2272 -0.9739 0.9739 0.2272 263.2721 837.6696)" class="st6" width="9.3" height="9.3"/>
		
			<rect x="641" y="245" transform="matrix(0.2272 -0.9739 0.9739 0.2272 255.8431 821.6627)" class="st6" width="9.3" height="9.3"/>
		
			<rect x="707.1" y="274.6" transform="matrix(0.2272 -0.9739 0.9739 0.2272 278.1083 908.965)" class="st6" width="9.3" height="9.3"/>
		
			<rect x="693.2" y="271.4" transform="matrix(0.2272 -0.9739 0.9739 0.2272 270.4751 892.8848)" class="st6" width="9.3" height="9.3"/>
		
			<rect x="679.4" y="268.2" transform="matrix(0.2272 -0.9739 0.9739 0.2272 262.9074 876.9434)" class="st6" width="9.3" height="9.3"/>
		
			<rect x="665.6" y="264.9" transform="matrix(0.2272 -0.9739 0.9739 0.2272 255.4784 860.9363)" class="st6" width="9.3" height="9.3"/>
		
			<rect x="651.7" y="261.7" transform="matrix(0.2272 -0.9739 0.9739 0.2272 247.9107 844.9946)" class="st6" width="9.3" height="9.3"/>
		
			<rect x="637.8" y="258.4" transform="matrix(0.2272 -0.9739 0.9739 0.2272 240.2774 828.9146)" class="st6" width="9.3" height="9.3"/>
	</g>
	<path class="st5" d="M747.6,193.3c-1.1,4.8-6,7.9-10.9,6.8c-4.8-1.1-7.9-6-6.8-10.9c1.1-4.8,6-7.9,10.9-6.8
		C745.7,183.5,748.7,188.3,747.6,193.3z M740.3,184.6c-3.6-0.9-7.2,1.4-8,4.9c-0.9,3.6,1.4,7.2,4.9,8s7.2-1.4,8-4.9
		C746.1,189.1,743.9,185.5,740.3,184.6z"/>
	<path class="st7" d="M670,179.8L670,179.8c-2.8-0.6-4.7-3.6-3.9-6.4l2.8-12.2c0.6-2.8,3.6-4.7,6.4-3.9l0,0c2.8,0.6,4.7,3.6,3.9,6.4
		l-2.8,12.2C675.6,178.7,672.8,180.4,670,179.8z"/>
	<path class="st7" d="M737.7,195.6L737.7,195.6c-2.8-0.6-4.7-3.6-3.9-6.4l2.8-12.2c0.6-2.8,3.6-4.7,6.4-3.9l0,0
		c2.8,0.6,4.7,3.6,3.9,6.4l-2.8,12.2C743.5,194.5,740.7,196.3,737.7,195.6z"/>
	<path class="st8" d="M736.6,192.4L736.6,192.4c-0.7-0.1-1.2-0.9-1-1.6l3.3-14.2c0.1-0.7,0.9-1.2,1.6-1l0,0c0.7,0.1,1.2,0.9,1,1.6
		l-3.3,14.2C738.2,192,737.5,192.5,736.6,192.4z"/>
	<path class="st8" d="M668.6,176.5L668.6,176.5c-0.7-0.1-1.2-0.9-1-1.6l3.3-14.2c0.1-0.7,0.9-1.2,1.6-1l0,0c0.7,0.1,1.2,0.9,1,1.6
		l-3.3,14.2C670.1,176.2,669.3,176.6,668.6,176.5z"/>
</g>
<path class="st9" d="M329,235H199c-11,0-20-9-20-20V85c0-11,9-20,20-20h130c11,0,20,9,20,20v130C349,226,340,235,329,235z"/>
<path class="st9" d="M312,11h120c11,0,20,9,20,20v120c0,11-9,20-20,20H312c-11,0-20-9-20-20V31C292,20,301,11,312,11z"/>
<path class="st9" d="M571,232.7h-45c-11,0-20-9-20-20v-45c0-11,9-20,20-20h45c11,0,20,9,20,20v45C591,223.7,582,232.7,571,232.7z"/>
<path class="st9" d="M137,334H99c-11,0-20-9-20-20v-38c0-11,9-20,20-20h38c11,0,20,9,20,20v38C157,325,148,334,137,334z"/>
<path class="st9" d="M1594,183.4h-56c-11,0-20-9-20-20v-56c0-11,9-20,20-20h56c11,0,20,9,20,20v56C1614,174.4,1605,183.4,1594,183.4
	z"/>
<path class="st9" d="M1819,207.4h-116c-11,0-20-9-20-20v-116c0-11,9-20,20-20h116c11,0,20,9,20,20v116
	C1839,198.4,1830,207.4,1819,207.4z"/>
<path class="st9" d="M1634,139.4h-48c-11,0-20-9-20-20v-48c0-11,9-20,20-20h48c11,0,20,9,20,20v48C1654,130.4,1645,139.4,1634,139.4
	z"/>
<path class="st9" d="M1413.1,156.6h-90c-11,0-20-9-20-20v-90c0-11,9-20,20-20h90c11,0,20,9,20,20v90
	C1433.1,147.6,1424.1,156.6,1413.1,156.6z"/>
<path class="st9" d="M1479,260.7h-50c-11,0-20-9-20-20v-50c0-11,9-20,20-20h50c11,0,20,9,20,20v50C1499,251.7,1490,260.7,1479,260.7
	z"/>
<path class="st9" d="M392,284H275c-11,0-20-9-20-20V147c0-11,9-20,20-20h117c11,0,20,9,20,20v117C412,275,403,284,392,284z"/>
</svg>
