<?xml version="1.0" encoding="utf-8"?>
<!-- Generator: Adobe Illustrator 24.1.1, SVG Export Plug-In . SVG Version: 6.00 Build 0)  -->
<svg version="1.1" id="Layer_1" xmlns="http://www.w3.org/2000/svg" xmlns:xlink="http://www.w3.org/1999/xlink" x="0px" y="0px"
	 viewBox="0 0 1920 360" style="enable-background:new 0 0 1920 360;" xml:space="preserve">
<style type="text/css">
	.st0{fill:#FFDF00;}
	.st1{opacity:0.1;enable-background:new    ;}
	.st2{opacity:0.1;}
	.st3{fill-rule:evenodd;clip-rule:evenodd;}
	.st4{fill:#63A3C3;}
	.st5{fill:#7FD2ED;}
	.st6{fill:#2F6994;}
	.st7{fill:#53585C;}
	.st8{fill:#686969;}
	.st9{fill:#5CC8DE;}
	.st10{fill:#4A4F54;}
	.st11{fill:#98D0CC;}
	.st12{fill:#3C5DAA;}
	.st13{fill:#72BFEA;}
	.st14{fill:#ACACAC;}
	.st15{fill:#7DC4C3;}
	.st16{opacity:0.5;fill:#98D0CC;enable-background:new    ;}
	.st17{fill-rule:evenodd;clip-rule:evenodd;fill:#8BD0C1;}
	.st18{fill-rule:evenodd;clip-rule:evenodd;fill:#63A3C3;}
	.st19{fill-rule:evenodd;clip-rule:evenodd;fill:#F38F70;}
	.st20{fill:#FFFFFF;}
	.st21{fill:#DCDBDB;}
	.st22{fill:#253643;}
	.st23{fill:#425C70;}
	.st24{fill:#364A5E;}
	.st25{fill:#BBBBBB;}
	.st26{fill:url(#SVGID_1_);}
	.st27{fill:url(#SVGID_2_);}
	.st28{fill:#3A4245;}
	.st29{fill:#97C4E9;}
	.st30{fill:#8BD0C1;}
	.st31{fill:#5B6567;}
	.st32{opacity:0.3;fill:#FFFFFF;enable-background:new    ;}
	.st33{fill:#6B6F73;}
	.st34{fill:#4B4F52;}
	.st35{fill:#9AA2A4;}
	.st36{fill:#D6DBDB;}
	.st37{fill:#7DCDC7;}
	.st38{fill:#154D71;}
	.st39{fill:#2F91C8;}
	.st40{fill:#F0544D;}
	.st41{fill:#D2DD62;}
	.st42{fill:#4B6075;}
	.st43{fill:#9DD0CF;}
	.st44{fill:#B8D057;}
	.st45{opacity:0.3;fill:#B8D057;enable-background:new    ;}
	.st46{fill:#BD9C7E;}
	.st47{fill:#D6BC9C;}
	.st48{fill:url(#SVGID_3_);}
	.st49{fill:#8A6A54;}
	.st50{opacity:0.5;fill:#CAA889;enable-background:new    ;}
	.st51{fill:#8F6550;}
	.st52{fill:url(#SVGID_4_);}
	.st53{fill:url(#SVGID_5_);}
	.st54{fill:#785343;}
	.st55{fill:url(#SVGID_6_);}
	.st56{fill:#7D5543;}
	.st57{opacity:0.4;fill:#CAA889;enable-background:new    ;}
	.st58{fill:#737374;}
	.st59{fill:#676868;}
	.st60{fill:#9F9F9F;}
	.st61{fill:#A7A6A6;}
	.st62{fill:#3A3B3A;}
	.st63{fill:#8C8C8C;}
	.st64{fill:#525252;}
	.st65{fill:#DDE6ED;}
	.st66{fill:#A6B1B6;}
	.st67{fill:#30383E;}
	.st68{fill:#DAD6D5;}
	.st69{fill:url(#SVGID_7_);}
	.st70{fill:#CBAC79;}
	.st71{fill:url(#SVGID_8_);}
	.st72{fill:#644C47;}
	.st73{opacity:0.4;fill:#CBAC79;enable-background:new    ;}
	.st74{fill:#B5C0C6;}
	.st75{fill:#30373D;}
	.st76{fill:#9B9A9F;}
	.st77{fill:#C0C2C1;}
	.st78{opacity:0.4;fill:#9B9A9F;enable-background:new    ;}
	.st79{opacity:0.5;fill:#9B9A9F;enable-background:new    ;}
	.st80{fill:#34495E;}
	.st81{fill:#DBDDDE;}
	.st82{opacity:0.1;fill:#020202;}
	.st83{fill:#3DB4D1;}
</style>
<polygon class="st0" points="0,0 0,59.2 0.4,59.2 0.4,178.7 0,178.7 0,275.7 1920,275.7 1920,0 "/>
<path class="st1" d="M1164.2,155.3L858.6,85.8c-5.1-1.2-10.2,0.4-13.8,3.7c-2.1,2-121.1,117.6-121.1,117.6
	c-8.1,8.2-9.3,16.3-2.5,18.2l33.5,7.6c-5.5,20.6-4.2,38.4-4.8,51.1c-0.1,1.5,8.1,2.3,8.2,0c0.1-1.7,0.1-3.6,0.1-5.7l2.7,0.1
	l-0.2,6.6l3.8,0.1l-0.3,11.1L772,310l8.9,0.2l3.5,0.1h1.5v-1.4c7-0.6,12.5-6.5,12.7-13.6l0.1-5.9c0.9,0.4,1.7,0.7,2.7,0.9l43.2,9.8
	l-11.3,10.7c-3.3,3.2-4.8,7.6-4.3,11.8l0.7,3c0.5,1.3,1.1,2.6,1.9,3.8l-1,1l9.6,10.2l15.5-3.5l8.1-7.6l2.6,2.8l4.8-4.5l1.9,2
	c-1.6,1.4-3,2.7-4.2,3.9c-1.7,1.6,4.4,7.1,5.5,6.1c6.9-6.9,16.9-15,26.5-26.6L1107,360c4.7,1.1,9.5-0.2,13-3
	c2.5-2.1,11.5-11.9,13.7-13.7c2.5-2,4.3-4.9,5.1-8.3l36.6-161.1C1177.5,165.3,1172.4,157.1,1164.2,155.3z M765.5,244.6l-0.2,11.1
	l-3.8-0.1l-0.2,6.6l-2.7-0.1c0.5-8.2,1.6-17.5,4.3-27.3l7.6,1.7L765.5,244.6z M885,318.3l-1.8-1.9l4.8-4.5l-2.4-2.5l6.4,1.4
	C889.7,313.4,887.3,316,885,318.3z"/>
<path class="st1" d="M347.5,193.3l-9.1-13.6c0.5-0.3,1-0.6,1.5-0.9l0.6-0.4l-24-35.9c-1.3-1.9-2.8-3.5-4.5-4.9
	c-7.5-6.2-18.4-7-27-1.4l-27-40.3c-4.1-6.2-8.8-11.7-13.8-16.8c0,0,0,0,0,0.1c-18.4-18.6-42.4-29.7-67.4-32.5
	c-17.1-9.9-40.2-9.3-59.2,3.4L82.5,73.6c-19,12.7-28.4,33.9-25.8,53.5c-8.9,30.8-4.7,65.1,14.5,93.8l27,40.3c-4.9,3.2-8,8-9.3,13.3
	c-1.5,6-0.6,12.5,3.1,18.1l24,35.9h0.1l0,0l0.6-0.4c0.4-0.2,0.7-0.5,1-0.8c0.1,0,0.1-0.1,0.2-0.1l9,13.5
	c8.3,12.4,21.9,19.2,35.8,19.3c5.4,0.1,10.9-0.9,16.1-2.9c6,0.6,12.1-0.4,17.9-2.8c0.3-0.1,0.5-0.2,0.8-0.3c0.1-0.1,0.3-0.1,0.4-0.2
	c1.7-0.8,3.3-1.7,4.9-2.7l125.5-83.9c7.3-4.9,12.3-11.9,14.7-19.7c7.7-8.1,11.9-18.8,12-29.7C354.9,209.4,352.5,200.8,347.5,193.3z"
	/>
<g class="st2">
	<path d="M1814.9,57.8l-18,0l0-1.7l-6.5,0l0,1.7l-26.5-0.1l0.1-22.6l-7.9,5.6l-7.9-5.6l-0.1,22.6l-4.7,0l0.1-22.6l-7.9,5.6l-7.9-5.6
		l-0.1,22.6l-6.9,0c-3.1,0-5.8,1.2-7.9,3.1c-1.6,1.5-7.2,7.2-8.7,8.6c-2,2.1-3.3,4.9-3.3,8.1l0,2.3c-1.6,0.6-6.4,3.5-6.9,7.3
		c-0.6,4.6,6.9,4.6,6.9,4.6l0,13.2c-1.6,0.6-6.4,3.5-6.9,7.3c-0.6,4.6,6.9,4.6,6.9,4.6l0,13.2c-1.6,0.6-6.4,3.5-6.9,7.3
		c-0.6,4.6,6.9,4.6,6.9,4.6l0,13.2c-1.6,0.5-6.4,3.4-6.9,7.3c-0.6,4.6,6.9,4.7,6.9,4.7l0,13.1c-1.6,0.6-6.4,3.5-6.9,7.3
		c-0.6,4.6,6.9,4.6,6.9,4.6l0,13.5c-1.6,0.6-6.4,3.5-6.9,7.3c-0.6,4.6,6.9,4.6,6.9,4.6l0,10.3c0,6.5,5.3,11.7,11.7,11.7l69.7,0.2
		l0,2.2l6.4,0l0-2.1l18,0c3.2,0,6.2-1.3,8.2-3.5c1.4-1.4,7.4-7.1,8.9-9c1.6-2,2.7-4.6,2.7-7.4l0.1-29.4l0.2-63.2l0.1-57.7
		C1826.6,63.1,1821.3,57.8,1814.9,57.8z"/>
	<path d="M1885.5,169.2l-6.2-66.3l5.7-5.6l-4-45.5l-6.4,0.6l-0.1-0.5c-0.3-3.3-3.2-5.6-6.4-5.3l-9.7,0.9c-1.4,0.1-2.7,0.8-3.7,1.8
		c-1.1,1.2-5.6,5.5-6.6,6.6c-1,1.2-1.6,2.8-1.5,4.5l2.3,25.1l8.7,92.3c0.1,1.1,1.1,1.9,2.2,1.8l0.2,0l0.6,5.7l17.4-1.7l6.4-6.4
		l-0.5-5.3l1.1-1.1l0,0C1885.4,170.3,1885.6,169.8,1885.5,169.2z"/>
	<path class="st3" d="M1630.9,314.8l-12.8,16.3c-1.9,2.5-2.7,6.1,1,9c3.7,2.8,7.2,1.1,9.3-1.5l15-19.4c0.9-1.2,1.9-4.1-1.1-6.5
		c-3-2.4-5.8-0.7-6.9,0.5l-12,15.4c-0.7,1-1.5,3.3,0.6,5.1c0.9,0.8,1.8,1.1,2.8,1c1.5-0.2,2.4-1.2,2.5-1.4l9.4-12
		c0.1,0,0.1-0.1,0.2-0.1c0.2-0.3,0.2-0.7-0.1-1c-0.3-0.2-0.7-0.2-1,0.1c0,0,0,0,0,0.1l0,0l-9.5,12.1c-0.2,0.2-0.8,0.8-1.6,0.9
		c-0.6,0.1-1.2-0.2-1.8-0.6c-1.7-1.4-0.6-3.1-0.5-3.3l12-15.4c0.2-0.2,2.3-2.5,5-0.3c2.7,2.2,1.1,4.4,0.9,4.7l-15,19.4
		c-1.1,1.3-3.9,4-7.4,1.3c-3.5-2.7-1.7-5.9-0.8-7.1c0,0,11.8-15,12.7-16.3c0.1-0.1,0.1-0.1,0.1-0.1c0.3-0.3,0.2-0.7-0.1-1
		C1631.6,314.4,1631.2,314.4,1630.9,314.8C1630.9,314.7,1630.9,314.8,1630.9,314.8z"/>
	<path class="st3" d="M1676.9,287.2l-8.8-18.8c-1.4-2.9-4.3-5.1-8.4-3.2c-4.2,2-4.2,5.9-2.8,8.9l10.5,22.2c0.7,1.4,2.8,3.5,6.3,1.9
		c3.5-1.6,3.2-4.9,2.6-6.4l-8.3-17.7c-0.6-1.1-2.2-2.8-4.8-1.7c-1.1,0.5-1.8,1.2-2.1,2.1c-0.5,1.4,0,2.7,0.1,2.8l6.5,13.8
		c0,0.1,0,0.1,0,0.2c0.2,0.3,0.6,0.5,0.9,0.3s0.5-0.6,0.3-0.9c0,0,0,0,0-0.1l0,0l-6.5-13.9c-0.1-0.2-0.3-1-0.1-1.8
		c0.2-0.6,0.7-1,1.4-1.3c2-0.9,3,0.9,3.1,1.1l8.3,17.7c0.1,0.3,1.2,3.2-1.9,4.6c-3.1,1.4-4.5-1-4.6-1.3l-10.5-22.2
		c-0.7-1.5-1.9-5.3,2.2-7.2c4-1.9,6,1.1,6.6,2.5c0,0,8.1,17.2,8.8,18.7c0,0.1,0,0.1,0,0.2c0.2,0.3,0.6,0.5,0.9,0.3
		C1676.9,288,1677.1,287.6,1676.9,287.2L1676.9,287.2z"/>
	<path class="st3" d="M1680.6,333.8l20.7-0.6c3.2-0.1,6.4-1.9,6.3-6.5c-0.1-4.6-3.7-6.2-7.1-6.2l-24.6,0.7c-1.5,0.1-4.4,1.2-4.3,5
		c0.1,3.9,3.2,4.9,4.8,4.9l19.5-0.6c1.2-0.1,3.5-0.9,3.5-3.7c0-1.2-0.3-2.1-1-2.8c-1.1-1-2.5-1-2.7-1l-15.2,0.4
		c-0.1,0-0.1,0-0.2-0.1c-0.4,0-0.7,0.3-0.7,0.7c0,0.4,0.3,0.7,0.7,0.7l0.1,0l0,0l15.3-0.4c0.3,0,1.1,0.1,1.7,0.6
		c0.4,0.4,0.6,1,0.7,1.8c0,2.2-2,2.4-2.2,2.4l-19.5,0.6c-0.3,0-3.4-0.2-3.4-3.6c-0.1-3.4,2.7-3.7,3-3.7l24.5-0.7
		c1.7-0.1,5.6,0.4,5.7,4.9c0.2,4.4-3.4,5.1-4.9,5.1c0,0-19.1,0.5-20.6,0.6c-0.1,0-0.1,0-0.2,0c-0.4,0-0.7,0.3-0.7,0.7
		C1679.9,333.5,1680.2,333.8,1680.6,333.8L1680.6,333.8z"/>
	<path d="M1494,49.3l-107.6-0.3c-0.7,2.5-3,4.3-5.7,4.3l-18.9,0c-2.7,0-5-1.8-5.7-4.3l-108.9-0.3c-5,0-9.1,4-9.1,9l0,3l-15.5,15.5
		l-0.4,167.9l112.9,0.3c7.4,0,10.7-4,13.5-11.3l0,0c2.8,7.3,6,11.3,13.5,11.3l112.9,0.3l14.6-16.1l4.2,0c5,0,9-4,9-9l0.4-161.3
		C1503,53.3,1499,49.3,1494,49.3z"/>
	<path d="M523.9,214.6l-169.1-0.4c-1.9,0-3.5,0.8-4.6,2.1c-0.8,1-4.6,4.5-5.7,5.7c-1,1.1-1.6,2.5-1.6,4l-0.3,110.3c0,3.3,2.7,6,6,6
		l169.1,0.4c1.6,0,3.1-0.6,4.1-1.6c1.1-1.1,4.8-4.9,5.9-5.9c1.2-1.1,1.9-2.6,1.9-4.3l0.3-110.3C529.8,217.2,527.2,214.6,523.9,214.6
		z"/>
	<g>
		<path d="M1612.7,214.8c-1.4-1.3-3.5-2.7-5.9-2.5l-76.5,73.3c1.3-0.3,2.5,0,3.5,0.9c0.8,0.8,1,2,0.8,3.1L1612.7,214.8z"/>
		<g>
			<g>
				<path d="M1528.8,286.3l-13.5,13.1c-0.3,0.2-0.5,0.7-0.7,1c-0.6,0.8-0.7,2-0.5,3l6.1,20.7c0.6,2,2.5,3,4.4,2.4
					c1.8-0.6,2.9-2.7,2.3-4.5l-5.5-18.6l12.1-11.8c1.4-1.4,1.5-3.7,0.1-5.1C1532.5,284.9,1530.3,284.9,1528.8,286.3z"/>
			</g>
		</g>
		<path d="M1587.4,240.3l-88.4,57.2c-0.7,2.4,0,4.9,0.9,6.5l90.2-58.5c-1-0.1-2.1-0.7-2.7-1.6
			C1586.8,242.7,1586.8,241.3,1587.4,240.3z"/>
		<g>
			<g>
				<path d="M1588.5,238.9l15.7-10.2c0.3-0.2,0.7-0.3,1.2-0.5c0.9-0.3,2-0.2,2.9,0.2l18,11.3c1.7,1,2.2,3.2,1.3,5
					c-1,1.7-3.2,2.3-4.9,1.2l-16.2-10.2l-14.1,9.1c-1.6,1-3.8,0.6-4.9-1.2C1586.4,242.3,1586.9,240,1588.5,238.9z"/>
			</g>
		</g>
		<path d="M1616.9,198.9c-2.7,1-38.7,15.8-54.6,38.7c-1.7,2.5-2.7,5.1-2.8,7.4c-2.9,8.4-8.8,13.1-17.4,13.9c-2.3-0.3-4.9-0.1-7.6,1
			c-25.5,10-48.7,42.1-50.4,44.5c-1.7,2.4,7.4,9.8,9,8.5c1.5-1.3,2.8-2.3,5.8,1.3c9.6,11.2,24,21.5,46.1,3.9
			c18.5-14.8,20.2-27.7,13.7-41.4c-1.5-3.1-5.7-11.4-0.8-15.3c4.9-3.9,11.8,2.5,14.4,4.9c11.2,9.7,23.8,11.4,42.3-3.4
			c22.1-17.5,16.3-34.5,8-46.8c-2.7-3.9-1.3-4.9,0.2-6.1C1624.3,208.8,1619.6,198,1616.9,198.9z M1541.3,313.5
			c-17.9,14.3-29.1,7.3-40.3-7.5c-1.2-1.5-4.4-6.5-0.8-10.7c0.1-0.1,0.1-0.1,0.2-0.2c4-5.7,9.8-11.4,16.5-16.9
			c6.9-5.5,14.3-9.9,20.7-12.6c0,0,0.1-0.1,0.2-0.1c4-2,8.4,3.9,8.7,4.2C1558.6,287,1560.9,298,1541.3,313.5z M1611,258.3
			c-19.5,15.6-29.3,10.4-42.6-5.9c-0.2-0.2-4.6-6.2-1.8-9.7c0-0.1,0.1-0.1,0.1-0.1c4.2-5.8,10.2-11.9,17.1-17.4
			c6.7-5.3,13.6-9.6,20-12.2c0,0,0.1,0,0.2-0.1c5-2.4,8.9,2.1,9.9,3.6C1625.3,231.2,1629.1,244,1611,258.3z"/>
	</g>
	<path d="M1656.4,61.6l-7.8,0c0-2.2-2-5.1-4.2-5.1c-2.2,0-4.1,3.1-4.1,5.1c0,0-10.1,0-11.4,0c0-2.2-2-5.1-4.2-5.1
		c-2.2,0-4.1,3.1-4.1,5.1l-5.9,0l-5.5,0c0-2.2-2-5.1-4.2-5.1c-2.2,0-4.1,3.1-4.1,5.1l-11.4,0c0-2.2-2-5.1-4.2-5.1
		c-2.2,0-4.1,3.1-4.1,5.1l-11.6,0c0-2.2-2-5.1-4.2-5.1c-2.2,0-4.1,3.1-4.1,5.1l0,2.4c-0.6,0.4-1.1,0.9-1.5,1.4
		c-1.4,1.5-7.6,7.3-9.2,9.2c-1.9,2-3,4.7-3,7.7l-0.2,67c0,6.3,5.1,11.5,11.5,11.5l88.4,0.2c3,0,5.8-1.2,7.8-3.1
		c1.8-1.6,7.8-7.9,9.4-9.4c2.1-2.1,3.4-5,3.4-8.2l0.2-67C1667.9,66.8,1662.7,61.6,1656.4,61.6z"/>
	<path d="M528.2,115l-7.8-15.7l-5.2,2.6l0,0c-0.5-0.9-1.6-1.3-2.6-0.8l-70.8,34.8l5.4-5.4l-1.6-3.3l-41,20l-6.4,6.4l2.5,5.1
		c0,0-1.5,1.7-2,2.3c-1.5,1.7-1.9,4.3-0.8,6.5l4.3,8.8c1.4,2.9,5,4.1,7.9,2.7l105.8-52.1c0.2-0.1,0.5-0.3,0.6-0.5
		c0.1-0.1,4.6-4.7,4.6-4.7l0.7-0.3L528.2,115z"/>
	<g>
		<path d="M680.1,221.4l-4.3-7.9l0-13.3l-1.3,0l0-14.6l1.3,0l4.3-6.6l0.1-25.6l-1.4,0l0-11.3l1.4,0l0-5.8l3.2-8.6l1.6-3.2l-0.7,0
			c-4.8,0-8.8-3.1-10.1-7.4l-3.6,0l-9.5,12.8c-9,12.2-23.8,12.1-32.8-0.1l-12.9-17.4l0,0c-1.8-2.2-2.9-5-2.9-8.1l0-12.2l0-11.9
			l0-7.1c0-0.4,0.1-0.9,0.1-1.3l-66,65.6c-2.7,2.7-4.3,6.4-4.3,10.3l-0.1,24.5c0,4.1,1.3,7.9,3.5,11.1c1.5,2,21.6,19.3,21.6,19.3
			c13.1,11.1,34.9,11.2,48.2-0.4l12.1-10.5l3.5,0c0,0-0.1,60-0.2,71.4c0,11.4,10.1,20.4,21.2,19c18.2-2.4,41.1-15.5,57-30.6
			c10.7-10.3,17.8-22.2,17.5-30L680.1,221.4L680.1,221.4z"/>
		<path d="M750.3,117.2l-3.3,0c-1.4,4.3-5.4,7.4-10.1,7.4l-0.7,0l1.6,3.2l2.1,5.6l20.2-20.2l-0.2-0.4
			C757.5,115.4,754.1,117.2,750.3,117.2z"/>
	</g>
	<path d="M639,213l-38.9-10.6c-3-0.8-6,0-8.1,1.9c-1,0.9-4.7,4.6-5.7,5.6c-1,1-1.7,2.3-2.1,3.7l-18.1,66.2
		c-1.3,4.7,1.5,9.6,6.2,10.9l38.9,10.6c2.6,0.7,5.1,0.2,7.2-1.1c1.5-1,5.6-5.3,6.4-6.1c1.1-1.1,1.9-2.4,2.3-4l18-66.2
		C646.5,219.2,643.8,214.3,639,213z"/>
	<path d="M1329.2,267c-9.4-15.1-28.9-20.1-44.2-11.6c-0.5,0.2-31.5,18.4-39.1,23.2c-20.7,13-27.1,40.1-14.2,60.9
		c12.9,20.6,40.1,27.1,60.9,14.2c3.3-2,6.2-4.5,8.7-7.2c8-8.5,27.1-42.2,29.7-47.7C1335.6,288.9,1335.3,276.9,1329.2,267z"/>
</g>
<g>
	<g>
		<path class="st4" d="M1720.4,56.1h94.1c6.4,0,11.7,5.2,11.7,11.7v150.4c0,6.4-5.3,11.7-11.7,11.7h-94.1c-6.5,0-11.7-5.2-11.7-11.7
			V67.8C1708.7,61.4,1713.9,56.1,1720.4,56.1z"/>
		<rect x="1708.7" y="125.6" class="st5" width="117.5" height="63.2"/>
		<g>
			<g>
				<path class="st6" d="M1721.5,80.2c0,2.1-1.7,3.7-3.7,3.7c-2.1,0-3.7-1.7-3.7-3.7c0-2.1,1.7-3.7,3.7-3.7
					C1719.9,76.4,1721.5,78.1,1721.5,80.2z"/>
				<path class="st7" d="M1701.1,82.2h16.7c1.1,0,2-0.9,2-2l0,0c0-1.1-0.9-2-2-2h-16.7c-1.1,0-2,0.9-2,2l0,0
					C1699.1,81.3,1700,82.2,1701.1,82.2z"/>
			</g>
			<g>
				<path class="st6" d="M1721.5,105.3c0,2.1-1.7,3.7-3.7,3.7c-2.1,0-3.7-1.7-3.7-3.7c0-2.1,1.7-3.7,3.7-3.7
					C1719.9,101.6,1721.5,103.2,1721.5,105.3z"/>
				<path class="st7" d="M1701.1,107.3h16.7c1.1,0,2-0.9,2-2l0,0c0-1.1-0.9-2-2-2h-16.7c-1.1,0-2,0.9-2,2l0,0
					C1699.1,106.4,1700,107.3,1701.1,107.3z"/>
			</g>
			<g>
				<path class="st6" d="M1721.5,130.4c0,2.1-1.7,3.7-3.7,3.7c-2.1,0-3.7-1.7-3.7-3.7c0-2.1,1.7-3.7,3.7-3.7
					C1719.9,126.7,1721.5,128.4,1721.5,130.4z"/>
				<path class="st7" d="M1701.1,132.4h16.7c1.1,0,2-0.9,2-2l0,0c0-1.1-0.9-2-2-2h-16.7c-1.1,0-2,0.9-2,2l0,0
					C1699.1,131.6,1700,132.4,1701.1,132.4z"/>
			</g>
			<g>
				<path class="st6" d="M1721.5,155.6c0,2.1-1.7,3.7-3.7,3.7c-2.1,0-3.7-1.7-3.7-3.7c0-2.1,1.7-3.7,3.7-3.7
					C1719.9,151.8,1721.5,153.5,1721.5,155.6z"/>
				<path class="st7" d="M1701.1,157.6h16.7c1.1,0,2-0.9,2-2l0,0c0-1.1-0.9-2-2-2h-16.7c-1.1,0-2,0.9-2,2l0,0
					C1699.1,156.7,1700,157.6,1701.1,157.6z"/>
			</g>
			<g>
				<path class="st6" d="M1721.5,180.7c0,2.1-1.7,3.7-3.7,3.7c-2.1,0-3.7-1.7-3.7-3.7s1.7-3.7,3.7-3.7
					C1719.9,177,1721.5,178.7,1721.5,180.7z"/>
				<path class="st7" d="M1701.1,182.7h16.7c1.1,0,2-0.9,2-2l0,0c0-1.1-0.9-2-2-2h-16.7c-1.1,0-2,0.9-2,2l0,0
					C1699.1,181.8,1700,182.7,1701.1,182.7z"/>
			</g>
			<g>
				<path class="st6" d="M1721.5,205.9c0,2.1-1.7,3.7-3.7,3.7c-2.1,0-3.7-1.7-3.7-3.7c0-2.1,1.7-3.7,3.7-3.7
					C1719.9,202.1,1721.5,203.8,1721.5,205.9z"/>
				<path class="st7" d="M1701.1,207.9h16.7c1.1,0,2-0.9,2-2l0,0c0-1.1-0.9-2-2-2h-16.7c-1.1,0-2,0.9-2,2l0,0
					C1699.1,207,1700,207.9,1701.1,207.9z"/>
			</g>
		</g>
		<polygon class="st8" points="1751.2,25.4 1743.3,31 1735.4,25.4 1735.4,56.1 1751.2,56.1 		"/>
		<polygon class="st9" points="1771.7,25.4 1763.8,31 1755.9,25.4 1755.9,56.1 1771.7,56.1 		"/>
		<rect x="1790.1" y="54.4" class="st10" width="6.5" height="177.7"/>
	</g>
</g>
<g>
	<g>
		<path class="st11" d="M1855.1,77l8.9,92.3c0.1,1.1,1.1,1.9,2.2,1.8l17.5-1.7c1.1-0.1,1.9-1.1,1.8-2.2l-8.9-92.3L1855.1,77z"/>
		<polygon class="st12" points="1867.4,63.4 1861.8,63.9 1855.1,77 1876.6,75 		"/>
		<polygon class="st12" points="1866.6,55.2 1861.1,55.7 1861.8,63.9 1867.4,63.4 		"/>
		<polygon class="st13" points="1866.3,55.2 1865.8,50.7 1861.7,49.5 1862.3,55.6 		"/>
		
			<rect x="1866.6" y="170.3" transform="matrix(0.9954 -9.604423e-02 9.604423e-02 0.9954 -7.9659 180.9214)" class="st14" width="17.5" height="5.8"/>
		<path class="st15" d="M1867.7,44.5l-9.7,0.9c-3.2,0.3-5.6,3.2-5.3,6.4l2.4,25.1l21.5-2.1l-2.4-25.1
			C1873.8,46.6,1870.9,44.2,1867.7,44.5z"/>
		<path class="st16" d="M1859.5,81.5l-2.4-25.1c-0.3-3.3,2.1-6.1,5.3-6.4l9.7-0.9c0.6-0.1,1.3,0,1.9,0.1c-0.6-2.8-3.3-4.9-6.3-4.6
			l-9.7,0.9c-3.2,0.3-5.6,3.2-5.3,6.4l2.4,25.1l8.9,92.3c0.1,1.1,1.1,1.9,2.2,1.8l2-0.2L1859.5,81.5z"/>
		<polygon class="st14" points="1874.2,50.4 1874.5,53.9 1877.2,53.6 1881,95.6 1884.7,95.3 1880.6,49.8 		"/>
	</g>
</g>
<g>
	<g>
		<path class="st17" d="M1631.2,312.5l-12.8,16.3c-1.9,2.5-2.7,6.1,1,9c3.7,2.8,7.2,1.1,9.3-1.5l15.1-19.5c0.9-1.2,1.9-4.1-1.2-6.5
			c-3-2.4-5.8-0.7-6.8,0.6l-12,15.4c-0.7,1-1.5,3.3,0.6,5.1c0.9,0.7,1.8,1.1,2.8,1c1.5-0.2,2.4-1.2,2.5-1.4l9.4-12
			c0.1,0,0.1-0.1,0.2-0.1c0.2-0.3,0.2-0.7-0.1-1c-0.3-0.2-0.7-0.2-1,0.1l0,0l0,0l-9.5,12.1c-0.1,0.2-0.8,0.8-1.6,0.9
			c-0.6,0.1-1.2-0.2-1.8-0.7c-1.7-1.4-0.6-3.1-0.4-3.2l12-15.4c0.2-0.2,2.3-2.5,5-0.3c2.7,2.1,1.1,4.4,0.9,4.7l-15,19.4
			c-1.1,1.3-3.9,4-7.4,1.3s-1.7-5.9-0.8-7c0,0,11.8-15,12.7-16.3c0.1-0.1,0.1-0.1,0.1-0.1c0.3-0.3,0.2-0.7-0.1-1
			C1631.9,312.1,1631.5,312.1,1631.2,312.5C1631.3,312.4,1631.3,312.4,1631.2,312.5z"/>
	</g>
	<g>
		<path class="st18" d="M1677,284.8l-8.8-18.8c-1.4-2.9-4.3-5.1-8.4-3.2c-4.2,2-4.2,5.9-2.8,8.9l10.6,22.2c0.7,1.4,2.8,3.5,6.3,1.9
			s3.2-4.9,2.6-6.4l-8.3-17.7c-0.6-1.1-2.2-2.8-4.8-1.7c-1.1,0.5-1.8,1.2-2.1,2.1c-0.5,1.4,0,2.7,0.1,2.8l6.5,13.8
			c0,0.1,0,0.1,0,0.2c0.2,0.3,0.6,0.5,0.9,0.3s0.5-0.6,0.3-0.9c0,0,0,0-0.1-0.1l0,0l-6.5-13.9c-0.1-0.2-0.3-1-0.1-1.8
			c0.2-0.6,0.7-1,1.4-1.3c2-0.9,3,0.9,3.1,1.1l8.3,17.7c0.1,0.3,1.2,3.2-1.9,4.6s-4.5-1-4.6-1.3l-10.6-22.2
			c-0.7-1.5-1.9-5.3,2.2-7.2c4-1.9,6,1.1,6.6,2.5c0,0,8.1,17.3,8.8,18.7c0,0.1,0,0.1,0,0.2c0.2,0.4,0.6,0.5,0.9,0.3
			C1677.1,285.6,1677.2,285.2,1677,284.8C1677.1,284.8,1677,284.8,1677,284.8z"/>
	</g>
	<g>
		<path class="st19" d="M1680.7,331.4l20.7-0.6c3.2-0.1,6.4-1.9,6.3-6.5c-0.2-4.6-3.7-6.2-7.1-6.2l-24.6,0.8c-1.5,0.1-4.3,1.2-4.3,5
			c0.1,3.9,3.2,4.9,4.8,4.9l19.6-0.6c1.2-0.1,3.5-0.9,3.5-3.7c0-1.2-0.3-2.1-1-2.8c-1.1-1-2.5-1.1-2.7-1.1l-15.2,0.4
			c-0.1,0-0.1-0.1-0.2-0.1c-0.4,0-0.7,0.3-0.7,0.7c0,0.4,0.3,0.7,0.7,0.7c0,0,0,0,0.1,0l0,0l15.3-0.4c0.3,0,1.1,0.1,1.7,0.6
			c0.4,0.4,0.6,1.1,0.7,1.8c0,2.2-2,2.4-2.2,2.4l-19.5,0.6c-0.3,0-3.4-0.2-3.4-3.6c-0.1-3.4,2.7-3.7,3-3.7l24.5-0.8
			c1.7,0,5.6,0.4,5.7,4.9c0.1,4.4-3.4,5.1-4.9,5.1c0,0-19,0.5-20.6,0.6c-0.1,0-0.1,0-0.2,0c-0.4,0-0.7,0.3-0.7,0.7
			C1679.9,331.1,1680.3,331.4,1680.7,331.4L1680.7,331.4z"/>
	</g>
</g>
<g>
	<g>
		<polygon class="st20" points="1364.8,49.8 1364.8,213.8 1481.9,213.8 1481.9,49.8 1481.9,49.8 		"/>
		<g>
			<path class="st21" d="M1469.6,81h-90.4c-0.5,0-0.9-0.4-0.9-0.9s0.4-0.9,0.9-0.9h90.4c0.5,0,0.9,0.4,0.9,0.9S1470.1,81,1469.6,81z
				"/>
			<path class="st21" d="M1469.6,92.4h-90.4c-0.5,0-0.9-0.4-0.9-0.9s0.4-0.9,0.9-0.9h90.4c0.5,0,0.9,0.4,0.9,0.9
				S1470.1,92.4,1469.6,92.4z"/>
			<path class="st21" d="M1469.6,103.9h-90.4c-0.5,0-0.9-0.4-0.9-0.9s0.4-0.9,0.9-0.9h90.4c0.5,0,0.9,0.4,0.9,0.9
				S1470.1,103.9,1469.6,103.9z"/>
			<path class="st21" d="M1469.6,115.3h-90.4c-0.5,0-0.9-0.4-0.9-0.9s0.4-0.9,0.9-0.9h90.4c0.5,0,0.9,0.4,0.9,0.9
				S1470.1,115.3,1469.6,115.3z"/>
			<path class="st21" d="M1469.6,126.8h-90.4c-0.5,0-0.9-0.4-0.9-0.9s0.4-0.9,0.9-0.9h90.4c0.5,0,0.9,0.4,0.9,0.9
				S1470.1,126.8,1469.6,126.8z"/>
			<path class="st21" d="M1469.6,138.3h-90.4c-0.5,0-0.9-0.4-0.9-0.9s0.4-0.9,0.9-0.9h90.4c0.5,0,0.9,0.4,0.9,0.9
				C1470.5,137.9,1470.1,138.3,1469.6,138.3z"/>
			<path class="st21" d="M1469.6,149.7h-90.4c-0.5,0-0.9-0.4-0.9-0.9s0.4-0.9,0.9-0.9h90.4c0.5,0,0.9,0.4,0.9,0.9
				S1470.1,149.7,1469.6,149.7z"/>
			<path class="st21" d="M1469.6,161.2h-90.4c-0.5,0-0.9-0.4-0.9-0.9s0.4-0.9,0.9-0.9h90.4c0.5,0,0.9,0.4,0.9,0.9
				S1470.1,161.2,1469.6,161.2z"/>
			<path class="st21" d="M1469.6,172.6h-90.4c-0.5,0-0.9-0.4-0.9-0.9s0.4-0.9,0.9-0.9h90.4c0.5,0,0.9,0.4,0.9,0.9
				C1470.5,172.2,1470.1,172.6,1469.6,172.6z"/>
			<path class="st21" d="M1469.6,184.1h-90.4c-0.5,0-0.9-0.4-0.9-0.9s0.4-0.9,0.9-0.9h90.4c0.5,0,0.9,0.4,0.9,0.9
				C1470.5,183.7,1470.1,184.1,1469.6,184.1z"/>
			<path class="st21" d="M1469.6,195.6h-90.4c-0.5,0-0.9-0.4-0.9-0.9s0.4-0.9,0.9-0.9h90.4c0.5,0,0.9,0.4,0.9,0.9
				C1470.5,195.2,1470.1,195.6,1469.6,195.6z"/>
		</g>
		<path class="st22" d="M1482.8,45h-107.6c-0.7,2.5-3,4.3-5.7,4.3h-18.9c-2.7,0-5-1.8-5.7-4.3H1236c-5,0-9.1,4.1-9.1,9v161.3
			c0,5,4.1,9,9.1,9h107c0.7,2.5,3,4.3,5.7,4.3h21.3c2.7,0,5-1.8,5.7-4.3h107.2c5,0,9-4,9-9V54.1C1491.9,49.1,1487.9,45,1482.8,45z"
			/>
		<path class="st23" d="M1482.8,42.1h-107.6c-0.7,2.5-3,4.3-5.7,4.3h-18.9c-2.7,0-5-1.8-5.7-4.3H1236c-5,0-9.1,4-9.1,9v161.3
			c0,5,4.1,9,9.1,9h108.3c0.7,2.5,3,4.3,5.7,4.3h18.9c2.7,0,5-1.8,5.7-4.3h108.3c5,0,9-4,9-9V51.2
			C1491.9,46.2,1487.9,42.1,1482.8,42.1z"/>
		<path class="st24" d="M1369.5,46.4h-18.9c-2.7,0-5-1.8-5.7-4.3l-0.6,179.4c0.7,2.5,3,4.3,5.7,4.3h18.9c2.7,0,5-1.8,5.7-4.3
			l0.7-179.4C1374.5,44.6,1372.3,46.4,1369.5,46.4z"/>
		<path class="st25" d="M1372.9,196.2c-7.4,0-10.7,4-13.4,11.3l0,0c-2.8-7.3-6-11.3-13.5-11.3h-112.9v19.9h113.7
			c1.3-4.1,6.5-7.1,12.6-7.1s11.3,3,12.6,7.1h113.7v-19.9H1372.9z"/>
		<g>
			<g>
				<linearGradient id="SVGID_1_" gradientUnits="userSpaceOnUse" x1="1359.4" y1="119.8" x2="1485.7001" y2="119.8">
					<stop  offset="0" style="stop-color:#CECCCB"/>
					<stop  offset="2.737765e-03" style="stop-color:#D0CECD"/>
					<stop  offset="4.335671e-02" style="stop-color:#E5E4E3"/>
					<stop  offset="8.750109e-02" style="stop-color:#F3F3F3"/>
					<stop  offset="0.1378" style="stop-color:#FCFCFC"/>
					<stop  offset="0.2071" style="stop-color:#FFFFFF"/>
					<stop  offset="1" style="stop-color:#FFFFFF"/>
				</linearGradient>
				<path class="st26" d="M1372.9,32.1c-7.4,0-10.7,4-13.5,11.3v164.1c2.8-7.3,6-11.3,13.5-11.3h112.8V32.1H1372.9z"/>
				<g>
					<path class="st21" d="M1472.3,63.3h-90.4c-0.5,0-0.9-0.4-0.9-0.9s0.4-0.9,0.9-0.9h90.4c0.5,0,0.9,0.4,0.9,0.9
						C1473.2,62.9,1472.8,63.3,1472.3,63.3z"/>
					<path class="st21" d="M1472.3,74.8h-90.4c-0.5,0-0.9-0.4-0.9-0.9s0.4-0.9,0.9-0.9h90.4c0.5,0,0.9,0.4,0.9,0.9
						S1472.8,74.8,1472.3,74.8z"/>
					<path class="st21" d="M1472.3,86.2h-90.4c-0.5,0-0.9-0.4-0.9-0.9s0.4-0.9,0.9-0.9h90.4c0.5,0,0.9,0.4,0.9,0.9
						C1473.2,85.8,1472.8,86.2,1472.3,86.2z"/>
					<path class="st21" d="M1472.3,97.7h-90.4c-0.5,0-0.9-0.4-0.9-0.9s0.4-0.9,0.9-0.9h90.4c0.5,0,0.9,0.4,0.9,0.9
						C1473.2,97.3,1472.8,97.7,1472.3,97.7z"/>
					<path class="st21" d="M1472.3,109.1h-90.4c-0.5,0-0.9-0.4-0.9-0.9s0.4-0.9,0.9-0.9h90.4c0.5,0,0.9,0.4,0.9,0.9
						C1473.2,108.8,1472.8,109.1,1472.3,109.1z"/>
					<path class="st21" d="M1472.3,120.6h-90.4c-0.5,0-0.9-0.4-0.9-0.9s0.4-0.9,0.9-0.9h90.4c0.5,0,0.9,0.4,0.9,0.9
						S1472.8,120.6,1472.3,120.6z"/>
					<path class="st21" d="M1472.3,132.1h-90.4c-0.5,0-0.9-0.4-0.9-0.9s0.4-0.9,0.9-0.9h90.4c0.5,0,0.9,0.4,0.9,0.9
						C1473.2,131.7,1472.8,132.1,1472.3,132.1z"/>
					<path class="st21" d="M1472.3,143.5h-90.4c-0.5,0-0.9-0.4-0.9-0.9s0.4-0.9,0.9-0.9h90.4c0.5,0,0.9,0.4,0.9,0.9
						S1472.8,143.5,1472.3,143.5z"/>
					<path class="st21" d="M1472.3,155h-90.4c-0.5,0-0.9-0.4-0.9-0.9s0.4-0.9,0.9-0.9h90.4c0.5,0,0.9,0.4,0.9,0.9
						S1472.8,155,1472.3,155z"/>
					<path class="st21" d="M1472.3,166.4h-90.4c-0.5,0-0.9-0.4-0.9-0.9s0.4-0.9,0.9-0.9h90.4c0.5,0,0.9,0.4,0.9,0.9
						S1472.8,166.4,1472.3,166.4z"/>
					<path class="st21" d="M1472.3,177.9h-90.4c-0.5,0-0.9-0.4-0.9-0.9s0.4-0.9,0.9-0.9h90.4c0.5,0,0.9,0.4,0.9,0.9
						S1472.8,177.9,1472.3,177.9z"/>
				</g>
			</g>
			<g>
				
					<linearGradient id="SVGID_2_" gradientUnits="userSpaceOnUse" x1="-1.8336" y1="119.8" x2="124.4664" y2="119.8" gradientTransform="matrix(-1 0 0 1 1357.5664 0)">
					<stop  offset="0" style="stop-color:#CECCCB"/>
					<stop  offset="2.737765e-03" style="stop-color:#D0CECD"/>
					<stop  offset="4.335671e-02" style="stop-color:#E5E4E3"/>
					<stop  offset="8.750109e-02" style="stop-color:#F3F3F3"/>
					<stop  offset="0.1378" style="stop-color:#FCFCFC"/>
					<stop  offset="0.2071" style="stop-color:#FFFFFF"/>
					<stop  offset="1" style="stop-color:#FFFFFF"/>
				</linearGradient>
				<path class="st27" d="M1345.9,32.1c7.4,0,10.7,4,13.5,11.3v164.1c-2.8-7.3-6-11.3-13.5-11.3h-112.8V32.1H1345.9z"/>
				<g>
					<path class="st21" d="M1246.5,63.3h90.4c0.5,0,0.9-0.4,0.9-0.9s-0.4-0.9-0.9-0.9h-90.4c-0.5,0-0.9,0.4-0.9,0.9
						C1245.6,62.9,1246,63.3,1246.5,63.3z"/>
					<path class="st21" d="M1246.5,74.8h90.4c0.5,0,0.9-0.4,0.9-0.9s-0.4-0.9-0.9-0.9h-90.4c-0.5,0-0.9,0.4-0.9,0.9
						S1246,74.8,1246.5,74.8z"/>
					<path class="st21" d="M1246.5,86.2h90.4c0.5,0,0.9-0.4,0.9-0.9s-0.4-0.9-0.9-0.9h-90.4c-0.5,0-0.9,0.4-0.9,0.9
						C1245.6,85.8,1246,86.2,1246.5,86.2z"/>
					<path class="st21" d="M1246.5,97.7h90.4c0.5,0,0.9-0.4,0.9-0.9s-0.4-0.9-0.9-0.9h-90.4c-0.5,0-0.9,0.4-0.9,0.9
						C1245.6,97.3,1246,97.7,1246.5,97.7z"/>
					<path class="st21" d="M1246.5,109.1h90.4c0.5,0,0.9-0.4,0.9-0.9s-0.4-0.9-0.9-0.9h-90.4c-0.5,0-0.9,0.4-0.9,0.9
						C1245.6,108.8,1246,109.1,1246.5,109.1z"/>
					<path class="st21" d="M1246.5,120.6h90.4c0.5,0,0.9-0.4,0.9-0.9s-0.4-0.9-0.9-0.9h-90.4c-0.5,0-0.9,0.4-0.9,0.9
						S1246,120.6,1246.5,120.6z"/>
					<path class="st21" d="M1246.5,132.1h90.4c0.5,0,0.9-0.4,0.9-0.9s-0.4-0.9-0.9-0.9h-90.4c-0.5,0-0.9,0.4-0.9,0.9
						C1245.6,131.7,1246,132.1,1246.5,132.1z"/>
					<path class="st21" d="M1246.5,143.5h90.4c0.5,0,0.9-0.4,0.9-0.9s-0.4-0.9-0.9-0.9h-90.4c-0.5,0-0.9,0.4-0.9,0.9
						S1246,143.5,1246.5,143.5z"/>
					<path class="st21" d="M1246.5,155h90.4c0.5,0,0.9-0.4,0.9-0.9s-0.4-0.9-0.9-0.9h-90.4c-0.5,0-0.9,0.4-0.9,0.9
						S1246,155,1246.5,155z"/>
					<path class="st21" d="M1246.5,166.4h90.4c0.5,0,0.9-0.4,0.9-0.9s-0.4-0.9-0.9-0.9h-90.4c-0.5,0-0.9,0.4-0.9,0.9
						S1246,166.4,1246.5,166.4z"/>
					<path class="st21" d="M1246.5,177.9h90.4c0.5,0,0.9-0.4,0.9-0.9s-0.4-0.9-0.9-0.9h-90.4c-0.5,0-0.9,0.4-0.9,0.9
						S1246,177.9,1246.5,177.9z"/>
				</g>
			</g>
		</g>
	</g>
</g>
<g>
	<g>
		<path class="st28" d="M529.9,329.1c0,3.3-2.7,6-6,6H354.8c-3.3,0-6-2.7-6-6V218.8c0-3.3,2.7-6,6-6h169.1c3.3,0,6,2.6,6,6V329.1z"
			/>
		<rect x="371.6" y="218.1" class="st20" width="135.5" height="111.9"/>
		<rect x="387" y="264.9" class="st29" width="104.7" height="65"/>
		<rect x="387" y="218.1" class="st30" width="104.7" height="43.1"/>
		<path class="st31" d="M519.2,263.7c0.7,0,1.3,0.6,1.3,1.3v18.1c0,0.7-0.6,1.3-1.3,1.3h-1.5c-0.7,0-1.3-0.6-1.3-1.3V265
			c0-0.7,0.6-1.3,1.3-1.3H519.2z"/>
		<path class="st32" d="M464.1,335.1h59.8c3.3,0,6-2.7,6-6V218.8c0-3.3-2.7-6-6-6H420.1L464.1,335.1z"/>
	</g>
</g>
<g>
	<g>
		<path class="st33" d="M1602.2,222.1c-1.3-1.2-3.2-2.6-5.7-2.5l-73.6,69.2c1.2-0.3,2.5,0,3.3,0.9c0.8,0.8,1,1.9,0.8,2.9
			L1602.2,222.1z"/>
		<g>
			<g>
				<path class="st34" d="M1521.5,289.6l-13,12.3c-0.3,0.3-0.6,0.6-0.7,1c-0.6,0.8-0.7,1.8-0.4,2.8l6,19.5c0.6,1.8,2.5,2.8,4.2,2.2
					c1.8-0.6,2.8-2.5,2.2-4.2l-5.4-17.5l11.7-11c1.3-1.2,1.5-3.5,0.1-4.8C1525.1,288.5,1522.9,288.3,1521.5,289.6z"/>
			</g>
		</g>
		<path class="st33" d="M1577.9,246.2l-85.2,54.1c-0.7,2.2,0,4.6,0.9,6.1l87-55.2c-1-0.1-2-0.6-2.6-1.6
			C1577.4,248.6,1577.4,247.3,1577.9,246.2z"/>
		<g>
			<g>
				<path class="st34" d="M1579,245l15.2-9.6c0.3-0.2,0.7-0.3,1.1-0.4c0.9-0.3,1.9-0.2,2.8,0.2l17.4,10.6c1.6,1,2.1,3,1.2,4.7
					c-1,1.6-3.1,2.1-4.7,1.1l-15.6-9.6l-13.6,8.6c-1.6,1-3.7,0.6-4.7-1C1577,248.1,1577.5,246,1579,245z"/>
			</g>
		</g>
		<path class="st8" d="M1606.4,207.4c-2.6,1-37.4,14.9-52.8,36.5c-1.7,2.3-2.6,4.7-2.7,6.9c-2.8,7.9-8.5,12.3-16.8,13
			c-2.2-0.3-4.6-0.1-7.4,0.9c-24.6,9.5-47,39.7-48.5,41.9c-1.6,2.2,7.1,9.3,8.7,8c1.6-1.1,2.7-2.2,5.7,1.2
			c9.3,10.6,23.2,20.1,44.5,3.6c18-13.9,19.4-26.1,13.2-38.9c-1.5-3-5.5-10.8-0.8-14.4s11.4,2.3,13.9,4.6c10.8,9,23,10.6,40.8-3.2
			c21.3-16.5,15.6-32.5,7.6-44.1c-2.6-3.7-1.2-4.6,0.2-5.8C1613.5,216.5,1608.9,206.4,1606.4,207.4z M1533.7,315.2
			c-17.3,13.5-28.1,6.9-38.9-7c-1-1.3-4.2-6.1-0.8-10.1c0.1,0,0.1-0.1,0.1-0.2c4-5.4,9.5-10.8,16-15.8c6.7-5.1,13.8-9.4,20-11.8
			c0,0,0.1-0.1,0.2-0.1c3.9-1.8,8.1,3.8,8.4,4C1550.3,290.2,1552.5,300.6,1533.7,315.2z M1600.9,263.1c-18.9,14.6-28.3,9.8-41.2-5.5
			c-0.2-0.2-4.5-5.8-1.8-9c0-0.1,0.1-0.1,0.1-0.2c4-5.5,9.8-11.3,16.5-16.4c6.5-5,13.2-9,19.3-11.5c0.1,0,0.1,0,0.2-0.1
			c4.8-2.2,8.6,2,9.6,3.3C1614.5,237.6,1618.2,249.6,1600.9,263.1z"/>
		<path class="st32" d="M1593.2,223.1c-0.1,0.1-0.1,0.1-0.2,0.1c-5.6,2.2-11.6,5.8-17.4,10.4c-4.2,3.3-8.1,6.9-11.4,10.5
			c13.5,13.3,25.7,16.1,45.6,2.1c0.8-6.5-2.6-13-8-20.1C1601,224.9,1597.6,221,1593.2,223.1z"/>
		<path class="st32" d="M1528.1,273.5c-0.1,0.1-0.1,0.1-0.2,0.1c-5.6,2.2-11.6,5.8-17.4,10.4c-4.2,3.3-8.1,6.9-11.4,10.5
			c13.5,13.3,25.7,16.1,45.6,2.1c0.8-6.5-2.7-12.9-8.1-20.1C1535.8,275.3,1532.4,271.4,1528.1,273.5z"/>
	</g>
</g>
<g>
	<g>
		<g>
			<path class="st35" d="M1657.9,79.5c0-6.3-5.1-11.5-11.5-11.5H1558c-6.3,0-11.5,5.1-11.5,11.5v61.6c0,6.3,5.1,11.5,11.5,11.5h88.4
				c6.3,0,11.5-5.1,11.5-11.5V79.5z"/>
			<path class="st36" d="M1657.9,74.1c0-6.3-5.1-11.5-11.5-11.5H1558c-6.3,0-11.5,5.1-11.5,11.5v61.6c0,6.3,5.1,11.5,11.5,11.5h88.4
				c6.3,0,11.5-5.1,11.5-11.5V74.1z"/>
			<path class="st37" d="M1657.9,82.6v-8.5c0-6.3-5.1-11.5-11.5-11.5H1558c-6.3,0-11.5,5.1-11.5,11.5v8.5H1657.9z"/>
		</g>
		<g>
			<g>
				<rect x="1558.3" y="90.6" class="st20" width="11.9" height="11.9"/>
				<rect x="1577.2" y="90.6" class="st20" width="11.9" height="11.9"/>
				<rect x="1596.2" y="90.6" class="st20" width="11.9" height="11.9"/>
				<rect x="1615.2" y="90.6" class="st20" width="11.9" height="11.9"/>
				<rect x="1634.2" y="90.6" class="st20" width="11.9" height="11.9"/>
			</g>
			<g>
				<rect x="1558.3" y="108.7" class="st20" width="11.9" height="11.9"/>
				<rect x="1577.2" y="108.7" class="st20" width="11.9" height="11.9"/>
				<rect x="1596.2" y="108.7" class="st20" width="11.9" height="11.9"/>
				<rect x="1615.2" y="108.7" class="st20" width="11.9" height="11.9"/>
				<rect x="1634.2" y="108.7" class="st20" width="11.9" height="11.9"/>
			</g>
			<g>
				<rect x="1558.3" y="126.7" class="st20" width="11.9" height="11.9"/>
				<rect x="1577.2" y="126.7" class="st20" width="11.9" height="11.9"/>
				<rect x="1596.2" y="126.7" class="st20" width="11.9" height="11.9"/>
				<rect x="1615.2" y="126.7" class="st20" width="11.9" height="11.9"/>
			</g>
		</g>
		<g>
			<g>
				<path class="st38" d="M1645.7,69.4c0,2.2-1.8,4-4,4s-4-1.8-4-4s1.8-4,4-4C1643.9,65.4,1645.7,67.2,1645.7,69.4z"/>
				<path class="st39" d="M1641.7,71.8L1641.7,71.8c-1.3,0-2.4-1.1-2.4-2.4V54.1c0-1.3,1.1-2.4,2.4-2.4l0,0c1.3,0,2.4,1.1,2.4,2.4
					v15.3C1644.1,70.7,1643,71.8,1641.7,71.8z"/>
			</g>
			<g>
				<path class="st38" d="M1626,69.4c0,2.2-1.8,4-4,4s-4-1.8-4-4s1.8-4,4-4S1626,67.2,1626,69.4z"/>
				<path class="st39" d="M1621.9,71.8L1621.9,71.8c-1.3,0-2.4-1.1-2.4-2.4V54.1c0-1.3,1.1-2.4,2.4-2.4l0,0c1.3,0,2.4,1.1,2.4,2.4
					v15.3C1624.3,70.7,1623.3,71.8,1621.9,71.8z"/>
			</g>
			<g>
				<path class="st38" d="M1606.2,69.4c0,2.2-1.8,4-4,4s-4-1.8-4-4s1.8-4,4-4C1604.4,65.4,1606.2,67.2,1606.2,69.4z"/>
				<path class="st39" d="M1602.2,71.8L1602.2,71.8c-1.3,0-2.4-1.1-2.4-2.4V54.1c0-1.3,1.1-2.4,2.4-2.4l0,0c1.3,0,2.4,1.1,2.4,2.4
					v15.3C1604.6,70.7,1603.5,71.8,1602.2,71.8z"/>
			</g>
			<g>
				<path class="st38" d="M1586.4,69.4c0,2.2-1.8,4-4,4s-4-1.8-4-4s1.8-4,4-4S1586.4,67.2,1586.4,69.4z"/>
				<path class="st39" d="M1582.4,71.8L1582.4,71.8c-1.3,0-2.4-1.1-2.4-2.4V54.1c0-1.3,1.1-2.4,2.4-2.4l0,0c1.3,0,2.4,1.1,2.4,2.4
					v15.3C1584.8,70.7,1583.7,71.8,1582.4,71.8z"/>
			</g>
			<g>
				<path class="st38" d="M1566.7,69.4c0,2.2-1.8,4-4,4s-4-1.8-4-4s1.8-4,4-4C1564.9,65.4,1566.7,67.2,1566.7,69.4z"/>
				<path class="st39" d="M1562.6,71.8L1562.6,71.8c-1.3,0-2.4-1.1-2.4-2.4V54.1c0-1.3,1.1-2.4,2.4-2.4l0,0c1.3,0,2.4,1.1,2.4,2.4
					v15.3C1565,70.7,1564,71.8,1562.6,71.8z"/>
			</g>
		</g>
		<path class="st40" d="M1583.2,103.9c-0.6,0-1.1-0.3-1.4-0.8c-3.5-5.6-5.5-10.1-5.6-10.3c-0.4-0.8,0-1.9,0.7-2.5
			c0.6-0.6,1.9-0.6,2.4,0.4c0,0,1.8,3.7,4.1,7.7c2.3-5.9,4.6-10.1,7-13.7c0.5-0.7,1.3-1.1,2.1-0.6c0.8,0.5,0.7,1.4,0.2,2.1
			c-2.8,4-5.6,9.3-8,16.6C1584.5,103.4,1584,103.8,1583.2,103.9C1583.4,103.9,1583.3,103.9,1583.2,103.9L1583.2,103.9z"/>
		<path class="st40" d="M1621.1,139.7c-0.6,0-1.1-0.3-1.4-0.8c-3.4-5.6-5.5-10.1-5.6-10.3c-0.4-0.8,0-1.9,0.7-2.5
			c0.6-0.6,1.8-0.6,2.4,0.4c0,0,1.8,3.6,4.1,7.7c2.3-5.9,4.6-10.1,7-13.7c0.5-0.8,1.3-1.1,2.1-0.6c0.7,0.5,0.7,1.4,0.2,2.1
			c-2.8,4.1-5.6,9.4-8,16.6C1622.4,139.2,1621.9,139.7,1621.1,139.7C1621.2,139.7,1621.1,139.7,1621.1,139.7L1621.1,139.7z"/>
	</g>
</g>
<g>
	<g>
		<path class="st41" d="M432.8,156.7l83.1-41.2c1-0.5,1.4-1.7,0.9-2.7L509,97c-0.5-1-1.7-1.4-2.7-0.9l-83.1,41.2L432.8,156.7z"/>
		<polygon class="st42" points="415.6,150 418.1,155 432.8,156.7 423.2,137.3 		"/>
		<polygon class="st42" points="408.2,153.7 410.7,158.7 418.1,155 415.6,150 		"/>
		<polygon class="st43" points="408.4,154 404.3,156 404.7,160.3 410.2,157.6 		"/>
		<polygon class="st14" points="508.9,96.9 516.7,112.6 521.8,110 514.1,94.3 		"/>
		<path class="st44" d="M397.9,156.4l4.3,8.8c1.5,2.9,5,4.1,7.9,2.7l22.6-11.2l-9.6-19.4l-22.6,11.2
			C397.7,150,396.5,153.5,397.9,156.4z"/>
		<path class="st45" d="M515.7,110.5l-80.5,39.9l-22.6,11.2c-2.9,1.5-6.5,0.2-7.9-2.7l-4.3-8.8c-0.2-0.4-0.3-0.8-0.4-1.2
			c-2.4,1.7-3.2,4.8-1.9,7.4l4.3,8.8c1.5,2.9,5,4.1,7.9,2.7l22.6-11.2l83.1-41.2c1-0.5,1.4-1.7,0.9-2.7L515.7,110.5z"/>
		<polygon class="st14" points="401.1,148.3 404.2,146.7 403,144.3 440.9,125.8 439.3,122.5 398.3,142.5 		"/>
	</g>
</g>
<g>
	<g>
		<path class="st46" d="M128.7,340.9l-4-5.9l-48-71.8c-9.3,6.2-11.8,18.8-5.6,28.1l33,49.4c11.5,17.2,33.3,23.6,51.8,16.4
			C145.3,356.1,135.1,350.5,128.7,340.9z"/>
		<path class="st47" d="M263.6,138.3l48,71.8l4,5.9c6.4,9.6,7.7,21.2,4.5,31.4c13.7-14.4,16.2-36.9,4.7-54.1l-33-49.4
			C285.5,134.6,272.9,132.1,263.6,138.3z"/>
		<linearGradient id="SVGID_3_" gradientUnits="userSpaceOnUse" x1="81.1103" y1="276.3551" x2="243.0545" y2="114.411">
			<stop  offset="0" style="stop-color:#99785E"/>
			<stop  offset="1" style="stop-color:#BD9C7E"/>
		</linearGradient>
		<path class="st48" d="M79.5,65L79.5,65C27.9,99.5,14,169.3,48.5,220.9l80.2,120c11.3,16.9,34.2,21.5,51.1,10.2l125.5-83.9
			c16.9-11.3,21.5-34.2,10.2-51.1l-80.2-120C200.8,44.4,131,30.5,79.5,65z"/>
		<path class="st49" d="M294,252.3l-123.6,82.6c-9.1,6.1-21.5,3.6-27.6-5.5L63.9,211.2C35,168.1,46.6,109.4,89.8,80.5
			s101.8-17.2,130.7,26l78.9,118.1C305.6,233.8,303.1,246.2,294,252.3z"/>
		<path class="st46" d="M92.4,84.4c-41.1,27.5-52.1,83.2-24.7,124.2l79,118.1c4.7,7,14.2,8.9,21.2,4.2l123.6-82.6
			c7-4.7,8.9-14.2,4.2-21.1l-79-118.1C189.2,68.1,133.5,57,92.4,84.4z"/>
		<path class="st50" d="M294.3,232.6l-42.1-63.1c-5.4-8.1-16.4-10.3-24.5-4.9l-127.3,85.1c-8.2,5.5-10.4,16.5-5,24.6l42.1,63.1
			c6.6,9.8,19.8,12.5,29.7,5.9l121.1-81C298.2,255.7,300.8,242.4,294.3,232.6z"/>
		<path class="st51" d="M233.9,158.4l-127.3,85.1c-8.1,5.4-10.3,16.4-4.9,24.5l42.1,63.1c6.6,9.8,19.8,12.4,29.7,5.9l121.1-81
			c9.8-6.6,12.5-19.8,5.9-29.7l-42.1-63C253,155.1,242.1,152.9,233.9,158.4z"/>
		<linearGradient id="SVGID_4_" gradientUnits="userSpaceOnUse" x1="274.6874" y1="185.7494" x2="140.6029" y2="319.8339">
			<stop  offset="0" style="stop-color:#D6BC9C"/>
			<stop  offset="1" style="stop-color:#BD9C7E"/>
		</linearGradient>
		<path class="st52" d="M101.8,267.9l42.1,63.1c6.6,9.8,19.8,12.4,29.7,5.9l121.1-81c9.8-6.6,12.5-19.8,5.9-29.7l-42.1-63
			L101.8,267.9z"/>
		<path class="st50" d="M227.4,162.7l-120.7,80.7c-2.7,1.8-4.6,4.2-6,6.9l22.4,34.2c17.2,25.8,52.1,32.7,77.9,15.5l34.7-23.2
			c25.8-17.2,32.7-52.1,15.5-77.9L227.4,162.7z"/>
		<linearGradient id="SVGID_5_" gradientUnits="userSpaceOnUse" x1="140.5204" y1="291.5559" x2="250.4807" y2="181.5956">
			<stop  offset="0" style="stop-color:#D6BC9C"/>
			<stop  offset="1.387572e-02" style="stop-color:#D6BD9D"/>
			<stop  offset="0.3672" style="stop-color:#E5D2B1"/>
			<stop  offset="0.7029" style="stop-color:#EEDFBE"/>
			<stop  offset="1" style="stop-color:#F1E4C2"/>
		</linearGradient>
		<path class="st53" d="M106.3,243.7l23.1,34.6c17.2,25.8,52.1,32.7,77.9,15.5l34.7-23.2c25.8-17.2,32.7-52.1,15.5-77.9l-23.1-34.5
			L106.3,243.7z"/>
		<path class="st50" d="M234.3,288.6l-0.5-0.7l1-0.6l-2.4-3.7l-1,0.6l-17.8-26.6c-2.7-4.1-8.2-5.2-12.3-2.4
			c-4.1,2.7-5.2,8.2-2.5,12.3l17.8,26.7l-1,0.6l2.4,3.6l1-0.6l0.5,0.7c1.5,2.2,4.5,2.8,6.7,1.3l6.8-4.5
			C235.2,293.8,235.8,290.8,234.3,288.6z"/>
		<path class="st51" d="M236.2,292.1l-6.8,4.5c-2.2,1.5-5.2,0.9-6.7-1.3l-20.7-31c-2.7-4.1-1.6-9.6,2.5-12.3l0,0
			c4.1-2.7,9.6-1.6,12.3,2.5l20.7,31C239,287.7,238.4,290.7,236.2,292.1z"/>
		<path class="st54" d="M214.3,256.2c1.8,2.7,1.1,6.4-1.6,8.2c-2.7,1.8-6.4,1.1-8.2-1.6s-1.1-6.4,1.6-8.2
			C208.8,252.7,212.5,253.5,214.3,256.2z"/>
		<path class="st50" d="M160.9,64.5c-5.4-8.1-12.5-14.2-20.6-18.4c-21,0.3-42.1,6.4-60.8,18.9c-28.7,19.2-45.6,49.2-49.2,80.9
			c0.8,1.4,1.6,2.8,2.5,4.2l7.1,10.6c17.2,25.8,52.1,32.7,77.9,15.5l34.7-23.2c25.8-17.2,32.7-52.1,15.5-77.9L160.9,64.5z"/>
		
			<linearGradient id="SVGID_6_" gradientUnits="userSpaceOnUse" x1="13.2259" y1="101.8898" x2="122.2201" y2="-7.1044" gradientTransform="matrix(0.9704 -4.430000e-02 -4.430000e-02 0.9338 44.9157 67.6711)">
			<stop  offset="0" style="stop-color:#D6BC9C"/>
			<stop  offset="1.387572e-02" style="stop-color:#D6BD9D"/>
			<stop  offset="0.3672" style="stop-color:#E5D2B1"/>
			<stop  offset="0.7029" style="stop-color:#EEDFBE"/>
			<stop  offset="1" style="stop-color:#F1E4C2"/>
		</linearGradient>
		<path class="st55" d="M94.9,50.1L59.8,73.6c-25.7,17.2-33.9,49.9-18.4,73.1l6.4,9.6c15.6,23.3,49.1,28.2,74.9,11l34.7-23.2
			c25.8-17.2,34.1-50.1,18.5-73.4l-6.4-9.6C154,37.9,120.6,33,94.9,50.1z"/>
		<g>
			<path class="st50" d="M129.8,186.6l-2.5-3.7l0.9-0.6l-2.4-3.7l-0.9,0.6l-19.8-29.6c-2.7-4.1-8.2-5.2-12.3-2.4
				c-4.1,2.7-5.2,8.3-2.5,12.3L110,189l-1,0.7l2.4,3.6l1-0.7l2.5,3.7c1.5,2.2,4.5,2.8,6.7,1.3l6.8-4.5
				C130.6,191.8,131.2,188.8,129.8,186.6z"/>
			<path class="st51" d="M95.9,144c-4.1,2.7-5.2,8.3-2.5,12.3l24.7,36.9c1.5,2.2,4.5,2.8,6.7,1.3l6.8-4.5c2.2-1.5,2.8-4.5,1.3-6.7
				l-24.7-36.9C105.5,142.4,100,141.3,95.9,144z"/>
			<path class="st54" d="M105.8,148.2c1.8,2.7,1.1,6.4-1.6,8.2s-6.4,1.1-8.2-1.6c-1.8-2.7-1.1-6.4,1.6-8.2
				C100.3,144.8,104,145.5,105.8,148.2z"/>
			
				<rect x="111.7" y="180.6" transform="matrix(0.8312 -0.556 0.556 0.8312 -81.0845 98.5436)" class="st54" width="20.1" height="4.4"/>
		</g>
		<g>
			<path class="st50" d="M180,153l-2.5-3.7l1-0.6l-2.4-3.7l-1,0.6l-19.7-29.5c-2.7-4.1-8.2-5.2-12.3-2.5s-5.2,8.3-2.5,12.3
				l19.7,29.6l-1,0.6l2.4,3.7l1-0.6l2.5,3.7c1.5,2.2,4.5,2.8,6.7,1.3l6.8-4.5C180.9,158.2,181.5,155.2,180,153z"/>
			<path class="st51" d="M146.2,110.4c-4.1,2.7-5.2,8.3-2.5,12.3l24.7,36.9c1.5,2.2,4.5,2.8,6.7,1.3l6.8-4.5
				c2.2-1.5,2.8-4.5,1.3-6.7l-24.7-36.9C155.8,108.8,150.3,107.7,146.2,110.4z"/>
			<g>
				<path class="st54" d="M156.1,114.6c1.8,2.7,1.1,6.4-1.6,8.2c-2.7,1.8-6.4,1.1-8.2-1.6s-1.1-6.4,1.6-8.2
					C150.6,111.2,154.3,111.9,156.1,114.6z"/>
			</g>
			<polygon class="st54" points="181.7,145.4 165,156.6 162.5,153 179.2,141.8 			"/>
		</g>
		<polygon class="st54" points="238,284.1 221.3,295.3 218.8,291.6 235.5,280.4 		"/>
		<path class="st56" d="M69.2,292.6l24,35.9l0.6-0.4c10.1-6.7,12.8-20.4,6.1-30.5l-24.4-36.4l0,0C65.1,268.2,62.3,282.2,69.2,292.6z
			"/>
		<path class="st51" d="M262.3,136.4L262.3,136.4l24.4,36.4c6.7,10.1,20.4,12.8,30.5,6l0.6-0.4l-24-35.9
			C286.7,132.2,272.7,129.4,262.3,136.4z"/>
	</g>
	<path class="st57" d="M315.6,179.6c0.5-0.3,1-0.5,1.5-0.8l0.6-0.4l-24-35.9c-7-10.4-21-13.2-31.4-6.3l-27-40.3
		c-4.1-6.2-8.8-11.7-13.8-16.8c0,0,0.4,8.1-7.6,24.7c-0.2,12.4-6.6,33.8-43.2,68.2c-32.5,30.5-77.9,60.4-90.2,59.1
		c-11.9,7.1-19.3,8.4-19.3,8.4l15.6,23.7l0,0l-1.3-2c-10.4,6.9-13.2,21-6.2,31.4l24,35.9l0.6-0.4c0.5-0.3,0.9-0.7,1.3-1.1l9.1,13.7
		c11.5,17.2,33.2,23.6,51.8,16.4c8.1,0.7,16.5-1.2,23.8-6l125.5-83.9c7.3-4.9,12.3-11.9,14.7-19.7c13.7-14.4,16.2-36.9,4.7-54.1
		L315.6,179.6z"/>
</g>
<g>
	<g>
		<g>
			<path class="st58" d="M750.1,61.5h-125c-7,0-12.7,5.7-12.7,12.7v31.2c0,7,5.7,12.7,12.7,12.7H750c7,0,12.7-5.7,12.7-12.7V74.2
				C762.8,67.2,757.1,61.5,750.1,61.5z"/>
			<path class="st59" d="M750.1,68.6h-107c-1.4-3-4.4-5-7.9-5s-6.5,2.1-7.9,5h-2.2c-7,0-12.7,5.7-12.7,12.7v24
				c0,3.1,1.1,5.9,2.9,8.1l0,0l12.9,17.4c9,12.2,23.8,12.2,32.8,0l9.5-12.8H750c7,0,12.7-5.7,12.7-12.7v-24
				C762.8,74.3,757.1,68.6,750.1,68.6z"/>
			<g>
				<path class="st60" d="M651,126.7c0,3.5-2.8,6.3-6.3,6.3s-6.3-2.8-6.3-6.3s2.8-6.3,6.3-6.3C648.1,120.4,651,123.2,651,126.7z"/>
			</g>
			<g>
				<rect x="622.2" y="78.8" class="st61" width="44.9" height="21"/>
				<g>
					<path class="st60" d="M631.4,107.1c0,2.3-1.8,4.1-4.1,4.1s-4.1-1.8-4.1-4.1c0-2.3,1.8-4.1,4.1-4.1
						C629.6,103,631.4,104.8,631.4,107.1z"/>
					<path class="st60" d="M648.7,107.1c0,2.3-1.8,4.1-4.1,4.1s-4.1-1.8-4.1-4.1c0-2.3,1.8-4.1,4.1-4.1S648.7,104.8,648.7,107.1z"/>
					<path class="st60" d="M666,107.1c0,2.3-1.8,4.1-4.1,4.1s-4.1-1.8-4.1-4.1c0-2.3,1.8-4.1,4.1-4.1S666,104.8,666,107.1z"/>
				</g>
			</g>
			<g>
				<path class="st60" d="M752.9,90.9c0,6.4-5.2,11.7-11.7,11.7c-6.4,0-11.7-5.2-11.7-11.7c0-6.4,5.2-11.7,11.7-11.7
					C747.7,79.2,752.9,84.5,752.9,90.9z"/>
				<path class="st62" d="M750.9,90.9c0,5.3-4.3,9.6-9.6,9.6s-9.6-4.3-9.6-9.6c0-5.3,4.3-9.6,9.6-9.6
					C746.6,81.3,750.9,85.6,750.9,90.9z"/>
			</g>
			<rect x="649.1" y="58.5" class="st58" width="11.5" height="3"/>
		</g>
		<g>
			<path class="st62" d="M732.4,58.5v-2.4c0-2.2-1.8-4-4-4h-36c-2.2,0-4,1.8-4,4v2.4H732.4z"/>
			<path class="st62" d="M748.2,61.5c-0.4-1.7-2-3-3.8-3h-67.7c-1.9,0-3.4,1.3-3.8,3H748.2z"/>
		</g>
		<g>
			<rect x="700.3" y="73.3" class="st60" width="20.3" height="17.8"/>
			<rect x="705" y="73.3" class="st63" width="10.9" height="17.8"/>
		</g>
		<g>
			<path class="st62" d="M674.1,118.1c1.4,4.3,5.4,7.4,10.1,7.4h52.4c4.7,0,8.8-3.1,10.1-7.4H674.1z"/>
			<rect x="680.2" y="137.3" class="st59" width="60.5" height="42.8"/>
			<g>
				<rect x="678.8" y="143.1" class="st58" width="63.2" height="11.3"/>
				<rect x="680.7" y="144.3" class="st64" width="2.6" height="8.9"/>
				<rect x="685.8" y="144.3" class="st64" width="2.6" height="8.9"/>
				<rect x="691" y="144.3" class="st64" width="2.6" height="8.9"/>
				<rect x="696.2" y="144.3" class="st64" width="2.6" height="8.9"/>
				<rect x="701.3" y="144.3" class="st64" width="2.6" height="8.9"/>
				<rect x="706.5" y="144.3" class="st64" width="2.6" height="8.9"/>
				<rect x="711.7" y="144.3" class="st64" width="2.6" height="8.9"/>
				<rect x="716.8" y="144.3" class="st64" width="2.6" height="8.9"/>
				<rect x="722" y="144.3" class="st64" width="2.6" height="8.9"/>
				<rect x="727.2" y="144.3" class="st64" width="2.6" height="8.9"/>
				<rect x="732.4" y="144.3" class="st64" width="2.6" height="8.9"/>
				<rect x="737.5" y="144.3" class="st64" width="2.6" height="8.9"/>
			</g>
			<rect x="696.3" y="159.5" class="st64" width="28.4" height="12.4"/>
			<rect x="699.5" y="161.7" class="st62" width="21.8" height="7.9"/>
			<polygon class="st62" points="737.5,128.7 683.4,128.7 680.2,137.3 740.7,137.3 			"/>
			<polygon class="st60" points="737.5,128.7 683.4,128.7 685,125.5 735.9,125.5 			"/>
			<polygon class="st62" points="740.7,180 680.2,180 675.9,186.7 745,186.7 			"/>
			<polygon class="st60" points="740.7,222.4 680.2,222.4 675.9,214.6 745,214.6 			"/>
			<rect x="675.9" y="186.7" class="st62" width="69.2" height="27.9"/>
			<g>
				<rect x="674.6" y="186.7" class="st58" width="71.8" height="14.6"/>
				<rect x="676.6" y="188" class="st64" width="2.2" height="11.9"/>
				<rect x="681.3" y="188" class="st64" width="2.1" height="11.9"/>
				<rect x="686" y="188" class="st64" width="2.2" height="11.9"/>
				<rect x="690.6" y="188" class="st64" width="2.2" height="11.9"/>
				<rect x="695.3" y="188" class="st64" width="2.1" height="11.9"/>
				<rect x="700" y="188" class="st64" width="2.2" height="11.9"/>
				<rect x="704.7" y="188" class="st64" width="2.2" height="11.9"/>
				<rect x="709.3" y="188" class="st64" width="2.2" height="11.9"/>
				<rect x="714" y="188" class="st64" width="2.2" height="11.9"/>
				<rect x="718.7" y="188" class="st64" width="2.2" height="11.9"/>
				<rect x="723.3" y="188" class="st64" width="2.2" height="11.9"/>
				<rect x="728" y="188" class="st64" width="2.2" height="11.9"/>
				<rect x="732.7" y="188" class="st64" width="2.2" height="11.9"/>
				<rect x="737.4" y="188" class="st64" width="2.2" height="11.9"/>
				<rect x="742" y="188" class="st64" width="2.2" height="11.9"/>
			</g>
		</g>
	</g>
</g>
<g>
	<g>
		<path class="st65" d="M627.5,291.3c-1.3,4.7-6.2,7.6-11,6.3l-38.9-10.5c-4.7-1.3-7.5-6.2-6.2-10.9l17.9-66.2
			c1.3-4.8,6.2-7.6,10.9-6.3l38.9,10.5c4.8,1.3,7.6,6.2,6.3,11L627.5,291.3z"/>
		<path class="st66" d="M591.8,230.2c-1.8-0.5-2.9-2.4-2.4-4.2l4-14.8c0.5-1.8,2.4-2.9,4.2-2.4l41.2,11.1c1.8,0.5,2.9,2.3,2.4,4.1
			l-4,14.8c-0.5,1.8-2.3,2.9-4.1,2.4L591.8,230.2z"/>
		<path class="st66" d="M584.9,274.3l-6.1-1.6c-0.7-0.2-1.5,0.2-1.7,1l-1.6,6c-0.2,0.7,0.2,1.5,0.9,1.7l6.1,1.6
			c0.7,0.2,1.5-0.2,1.7-1l1.6-6C586.1,275.3,585.6,274.5,584.9,274.3z M597,277.6l-6.1-1.6c-0.8-0.2-1.5,0.2-1.7,1l-1.6,6.1
			c-0.2,0.7,0.2,1.5,0.9,1.7l6.1,1.7c0.7,0.2,1.5-0.2,1.7-1l1.6-6.1C598.2,278.6,597.8,277.8,597,277.6z M609.2,280.9l-6.1-1.6
			c-0.8-0.2-1.5,0.2-1.7,1l-1.6,6c-0.2,0.7,0.2,1.5,1,1.7l6.1,1.6c0.8,0.2,1.5-0.3,1.7-1l1.6-6.1
			C610.3,281.8,609.9,281.1,609.2,280.9z M621.3,284.2l-6.1-1.6c-0.7-0.2-1.5,0.2-1.7,1l-1.6,6.1c-0.2,0.7,0.2,1.5,1,1.7l6.1,1.6
			c0.8,0.2,1.5-0.2,1.7-1l1.6-6C622.5,285.1,622.1,284.4,621.3,284.2z M588.1,262.3l-6.1-1.6c-0.7-0.2-1.5,0.2-1.7,1l-1.6,6
			c-0.2,0.8,0.2,1.5,1,1.7l6.1,1.6c0.8,0.2,1.5-0.2,1.7-1l1.6-6C589.3,263.3,588.9,262.5,588.1,262.3z M600.3,265.6l-6.1-1.6
			c-0.7-0.2-1.5,0.3-1.7,1l-1.6,6.1c-0.2,0.7,0.2,1.5,0.9,1.7l6.1,1.6c0.7,0.2,1.5-0.2,1.7-1l1.6-6
			C601.5,266.6,601,265.8,600.3,265.6z M612.4,268.9l-6.1-1.6c-0.7-0.2-1.5,0.2-1.7,1l-1.6,6c-0.2,0.8,0.3,1.5,1,1.7l6.1,1.6
			c0.8,0.2,1.5-0.2,1.7-1l1.6-6.1C613.6,269.8,613.2,269.1,612.4,268.9z M624.6,272.1l-6-1.6c-0.8-0.2-1.5,0.2-1.7,1l-1.6,6.1
			c-0.2,0.8,0.2,1.5,1,1.7l6,1.6c0.7,0.2,1.5-0.2,1.7-1l1.6-6C625.7,273.1,625.3,272.3,624.6,272.1z M582.9,257.4l6.1,1.6
			c0.8,0.2,1.5-0.2,1.7-1l1.6-6c0.2-0.7-0.3-1.5-1-1.7l-6.1-1.6c-0.7-0.2-1.5,0.3-1.7,1l-1.6,6.1
			C581.7,256.4,582.1,257.2,582.9,257.4z M595,260.6l6.1,1.7c0.7,0.2,1.5-0.2,1.7-1l1.6-6.1c0.2-0.7-0.3-1.5-1-1.7l-6.1-1.6
			c-0.7-0.2-1.5,0.3-1.7,1L594,259C593.9,259.7,594.3,260.5,595,260.6z M607.2,263.9l6.1,1.6c0.7,0.2,1.5-0.2,1.7-1l1.6-6
			c0.2-0.7-0.2-1.5-1-1.7l-6.1-1.6c-0.8-0.2-1.5,0.2-1.7,1l-1.6,6.1C606,263,606.5,263.7,607.2,263.9z M627.8,260.1l-6.1-1.6
			c-0.7-0.2-1.5,0.2-1.7,1l-1.6,6c-0.2,0.7,0.2,1.5,1,1.7l6.1,1.6c0.7,0.2,1.5-0.2,1.7-1l1.6-6C629,261.1,628.5,260.3,627.8,260.1z
			 M586.1,245.4l6.1,1.6c0.8,0.2,1.5-0.3,1.7-1l1.6-6c0.2-0.8-0.3-1.5-1-1.7l-6.1-1.7c-0.7-0.2-1.5,0.2-1.7,1l-1.6,6
			C585,244.4,585.4,245.2,586.1,245.4z M598.3,248.7l6.1,1.6c0.8,0.2,1.5-0.2,1.7-1l1.6-6c0.2-0.7-0.2-1.5-1-1.7l-6.1-1.7
			c-0.8-0.2-1.5,0.2-1.7,1l-1.6,6.1C597.2,247.7,597.5,248.4,598.3,248.7z M610.5,252l6.1,1.6c0.8,0.2,1.5-0.3,1.7-1l1.6-6.1
			c0.2-0.8-0.2-1.5-1-1.7l-6.1-1.6c-0.8-0.2-1.5,0.2-1.7,1l-1.6,6.1C609.3,251,609.7,251.7,610.5,252z M631,248.1l-6.1-1.6
			c-0.7-0.2-1.5,0.2-1.7,1l-1.6,6c-0.2,0.7,0.3,1.5,1,1.7l6.1,1.6c0.7,0.2,1.5-0.2,1.7-1l1.6-6C632.2,249.1,631.8,248.3,631,248.1z"
			/>
		<path class="st67" d="M585.9,273.3l-6.1-1.6c-0.7-0.2-1.5,0.2-1.7,1l-1.6,6c-0.2,0.8,0.2,1.5,0.9,1.7l6.1,1.6
			c0.8,0.2,1.5-0.2,1.7-1l1.6-6C587.1,274.2,586.7,273.5,585.9,273.3z M598.1,276.5l-6.1-1.6c-0.8-0.2-1.5,0.3-1.7,1l-1.6,6
			c-0.2,0.7,0.2,1.5,0.9,1.7l6.1,1.7c0.7,0.2,1.5-0.2,1.7-1l1.6-6.1C599.3,277.5,598.8,276.7,598.1,276.5z M610.2,279.8l-6.1-1.6
			c-0.8-0.2-1.5,0.2-1.7,1l-1.6,6c-0.2,0.8,0.2,1.5,1,1.7l6.1,1.6c0.8,0.2,1.5-0.3,1.7-1l1.6-6.1C611.4,280.8,611,280,610.2,279.8z
			 M622.4,283.1l-6.1-1.6c-0.7-0.2-1.5,0.2-1.7,1l-1.6,6.1c-0.2,0.7,0.2,1.5,1,1.7l6.1,1.6c0.7,0.2,1.5-0.3,1.7-1l1.6-6
			C623.6,284,623.1,283.3,622.4,283.1z M589.2,261.2l-6.1-1.6c-0.7-0.2-1.5,0.3-1.7,1l-1.6,6c-0.2,0.7,0.2,1.5,0.9,1.7l6.1,1.6
			c0.7,0.2,1.5-0.2,1.7-1l1.6-6C590.4,262.2,589.9,261.4,589.2,261.2z M601.3,264.5l-6.1-1.6c-0.7-0.2-1.5,0.2-1.7,1l-1.6,6.1
			c-0.2,0.7,0.2,1.5,0.9,1.7l6.1,1.6c0.7,0.2,1.5-0.2,1.7-0.9l1.6-6.1C602.5,265.5,602.1,264.7,601.3,264.5z M613.5,267.8l-6.1-1.6
			c-0.8-0.2-1.5,0.2-1.7,1l-1.6,6.1c-0.2,0.7,0.3,1.5,1,1.7l6.1,1.6c0.7,0.2,1.5-0.2,1.7-1l1.6-6C614.6,268.8,614.2,268,613.5,267.8
			z M625.6,271.1l-6.1-1.6c-0.8-0.2-1.5,0.2-1.7,1l-1.6,6c-0.2,0.8,0.2,1.5,1,1.7l6,1.6c0.8,0.2,1.5-0.2,1.7-1l1.6-6
			C626.8,272,626.4,271.3,625.6,271.1z M583.9,256.3l6.1,1.6c0.8,0.2,1.5-0.2,1.7-1l1.6-6.1c0.2-0.7-0.3-1.5-1-1.7l-6.1-1.6
			c-0.7-0.2-1.5,0.3-1.7,1l-1.6,6C582.8,255.4,583.2,256.1,583.9,256.3z M596.1,259.6l6.1,1.7c0.7,0.2,1.5-0.2,1.7-1l1.6-6
			c0.2-0.7-0.3-1.5-1-1.7l-6.1-1.6c-0.8-0.2-1.5,0.3-1.7,1l-1.6,6C595,258.7,595.4,259.4,596.1,259.6z M608.3,262.9l6.1,1.6
			c0.8,0.2,1.5-0.2,1.7-1l1.6-6.1c0.2-0.7-0.2-1.5-1-1.7l-6.1-1.6c-0.8-0.2-1.5,0.2-1.7,1l-1.6,6.1
			C607.1,261.9,607.5,262.7,608.3,262.9z M628.9,259.1l-6.1-1.6c-0.7-0.2-1.5,0.3-1.7,1l-1.6,6c-0.2,0.7,0.2,1.5,1,1.7l6,1.6
			c0.7,0.2,1.5-0.2,1.7-1l1.6-6C630,260,629.6,259.3,628.9,259.1z M587.2,244.3l6.1,1.6c0.8,0.2,1.5-0.2,1.7-1l1.6-6.1
			c0.2-0.7-0.2-1.5-1-1.7l-6.1-1.6c-0.7-0.2-1.5,0.2-1.7,1l-1.6,6C586,243.3,586.4,244.1,587.2,244.3z M599.3,247.6l6.1,1.6
			c0.8,0.2,1.5-0.2,1.7-1l1.6-6c0.2-0.7-0.2-1.5-1-1.7l-6.1-1.6c-0.8-0.2-1.5,0.2-1.7,1l-1.6,6C598.2,246.6,598.6,247.4,599.3,247.6
			z M611.5,250.9l6.1,1.6c0.8,0.2,1.5-0.2,1.7-1l1.6-6c0.2-0.8-0.2-1.5-1-1.7l-6.1-1.6c-0.8-0.2-1.5,0.2-1.7,1l-1.6,6
			C610.3,249.9,610.8,250.6,611.5,250.9z M632.1,247.1l-6.1-1.6c-0.8-0.2-1.5,0.2-1.7,1l-1.6,6c-0.2,0.7,0.2,1.5,1,1.7l6.1,1.6
			c0.7,0.2,1.5-0.3,1.7-1l1.6-6C633.3,248,632.9,247.3,632.1,247.1z"/>
	</g>
</g>
<g>
	<g>
		<g>
			<path class="st20" d="M1242.5,324.7c-1.4-2.2-2.6-4.5-3.7-6.9l-17,10.7c-2.3,1.4-3,4.4-1.6,6.7l3.1,4.9c1.4,2.3,4.4,3,6.7,1.6
				l17-10.6C1245.4,329,1243.9,326.9,1242.5,324.7z"/>
			<path class="st20" d="M1242.5,324.7c-16-25.6-8.2-59.2,17.4-75.2s59.2-8.2,75.2,17.4c15.9,25.5,8.2,59.2-17.4,75.2
				C1292.1,358,1258.4,350.2,1242.5,324.7z"/>
			<path class="st68" d="M1247.8,321.3c-14.1-22.7-7.2-52.4,15.4-66.5c22.6-14.2,52.4-7.2,66.5,15.4s7.2,52.4-15.4,66.5
				S1261.9,343.9,1247.8,321.3z"/>
			<linearGradient id="SVGID_7_" gradientUnits="userSpaceOnUse" x1="1274.8843" y1="314.4128" x2="1310.1913" y2="267.1558">
				<stop  offset="0" style="stop-color:#907C67"/>
				<stop  offset="0.2118" style="stop-color:#806A5B"/>
				<stop  offset="0.4941" style="stop-color:#705950"/>
				<stop  offset="0.7625" style="stop-color:#674F49"/>
				<stop  offset="1" style="stop-color:#644C47"/>
			</linearGradient>
			<path class="st69" d="M1250.1,319.9c-13.3-21.4-6.8-49.5,14.6-62.9c21.4-13.3,49.5-6.8,62.8,14.6c13.4,21.3,6.9,49.5-14.5,62.8
				C1291.5,347.8,1263.4,341.2,1250.1,319.9z"/>
			<path class="st70" d="M1327.4,271.6c-13.3-21.4-41.5-27.9-62.8-14.6c-21.4,13.4-27.9,41.5-14.6,62.9
				c13.4,21.3,41.5,27.9,62.8,14.5C1334.3,321.1,1340.8,292.9,1327.4,271.6z M1310.9,326.4c-8,4.4-8.9,4.3-16.4,3.8
				c-7-0.4-8.2-5-9.1-7.2c-0.9-2.1-3.8-9-13.4-7.8c-5.5,0.7-8.9,0.7-10.4-3.8c-1.1-3.4-2.4-6-6.1-8.3c-4.3-2.7-4.6-10.7-3.5-16.6
				c2.3-9.2,8-17.6,16.7-23c17.7-11.1,41.1-5.7,52.2,12.1C1331.5,292.7,1327,314.8,1310.9,326.4z"/>
			<linearGradient id="SVGID_8_" gradientUnits="userSpaceOnUse" x1="1275.5613" y1="314.2682" x2="1309.1764" y2="266.7911">
				<stop  offset="0" style="stop-color:#644C47"/>
				<stop  offset="6.905198e-04" style="stop-color:#644C47"/>
				<stop  offset="0.3588" style="stop-color:#57413D"/>
				<stop  offset="0.6989" style="stop-color:#4F3A37"/>
				<stop  offset="1" style="stop-color:#4D3835"/>
			</linearGradient>
			<path class="st71" d="M1267.8,315.6c1.2,0,2.6-0.1,4.2-0.3c0.8-0.1,1.5-0.1,2.1-0.1c7.9,0,10.4,6,11.2,8c0.8,2.1,2.1,6.8,9.1,7.2
				c2,0.1,3.5,0.2,4.8,0.2c3.7,0,5.7-0.8,11.6-4.1c16-11.6,20.6-33.7,10-50.7c-7.2-11.5-19.5-17.8-32.2-17.8c-6.8,0-13.8,1.9-20,5.7
				c-8.7,5.4-14.4,13.8-16.7,23c-1.1,5.9-0.8,13.9,3.5,16.6c3.7,2.3,5,4.8,6.1,8.3C1262.7,314.7,1264.7,315.6,1267.8,315.6
				L1267.8,315.6z M1254.9,287.2c2.2-8.8,7.7-16.3,15.4-21.1c5.5-3.5,11.9-5.3,18.5-5.3c12.1,0,23.3,6.2,29.7,16.5
				c9.7,15.5,5.7,36-9.1,46.7c-5.7,3.2-7.2,3.6-10,3.6c-1.1,0-2.5-0.1-4.2-0.2h-0.4c-4.6-0.3-5.5-2.7-6.4-4.8l-0.2-0.6
				c-3.4-8.5-10.2-9.8-14-9.8c-0.8,0-1.6,0-2.5,0.2c-1.3,0.2-2.7,0.3-3.8,0.3c-2.4,0-2.9-0.5-3.4-2.1c-1.3-4.1-3-7.1-7.3-9.8
				C1254.7,299.1,1253.7,293.4,1254.9,287.2L1254.9,287.2z"/>
		</g>
		<path class="st72" d="M1283.2,328.4c0,1.7-1.4,3.1-3.1,3.1s-3.1-1.4-3.1-3.1s1.4-3.1,3.1-3.1S1283.2,326.7,1283.2,328.4z"/>
		<path class="st72" d="M1287,335.3c0,1.1-0.9,1.9-1.9,1.9c-1.1,0-1.9-0.9-1.9-1.9c0-1.1,0.9-1.9,1.9-1.9
			C1286.2,333.3,1287,334.2,1287,335.3z"/>
		<path class="st72" d="M1283.2,322.1c0,1.2-0.9,2.1-2.1,2.1s-2.1-0.9-2.1-2.1c0-1.1,0.9-2.1,2.1-2.1S1283.2,320.9,1283.2,322.1z"/>
		<path class="st72" d="M1280.8,336c0,1.2-1,2.2-2.2,2.2s-2.1-1-2.1-2.2s1-2.2,2.1-2.2C1279.8,333.8,1280.8,334.8,1280.8,336z"/>
		<path class="st72" d="M1262.7,325.9c0,1.3-1.1,2.4-2.4,2.4c-1.4,0-2.4-1.1-2.4-2.4c0-1.4,1.1-2.4,2.4-2.4
			S1262.7,324.6,1262.7,325.9z"/>
		<path class="st72" d="M1283.7,338.7c0,0.7-0.6,1.3-1.3,1.3c-0.7,0-1.3-0.6-1.3-1.3c0-0.7,0.6-1.3,1.3-1.3
			C1283.1,337.4,1283.7,338,1283.7,338.7z"/>
		<path class="st72" d="M1303.4,336.8c0,0.8-0.7,1.5-1.5,1.5s-1.5-0.7-1.5-1.5s0.7-1.5,1.5-1.5S1303.4,336,1303.4,336.8z"/>
		<path class="st72" d="M1252.1,316.6c0,0.8-0.7,1.5-1.5,1.5s-1.5-0.7-1.5-1.5s0.7-1.5,1.5-1.5S1252.1,315.8,1252.1,316.6z"/>
		<path class="st72" d="M1266.4,318c0,0.9-0.8,1.7-1.7,1.7c-0.9,0-1.7-0.8-1.7-1.7c0-0.9,0.7-1.7,1.7-1.7
			C1265.6,316.3,1266.4,317.1,1266.4,318z"/>
		<path class="st72" d="M1295.8,332.1c0,0.9-0.7,1.7-1.7,1.7c-0.9,0-1.7-0.8-1.7-1.7c0-0.9,0.7-1.7,1.7-1.7
			C1295.1,330.4,1295.8,331.2,1295.8,332.1z"/>
		<path class="st72" d="M1248.2,304c0,1-0.8,1.7-1.7,1.7c-0.9,0-1.7-0.7-1.7-1.7c0-0.9,0.8-1.7,1.7-1.7
			C1247.5,302.3,1248.2,303.1,1248.2,304z"/>
		<path class="st72" d="M1260.8,312.2c0,0.8-0.7,1.5-1.5,1.5s-1.5-0.7-1.5-1.5s0.7-1.5,1.5-1.5
			C1260.1,310.7,1260.8,311.4,1260.8,312.2z"/>
		<path class="st72" d="M1246.6,297.9c0,0.8-0.7,1.5-1.5,1.5s-1.5-0.7-1.5-1.5s0.7-1.5,1.5-1.5S1246.6,297.1,1246.6,297.9z"/>
		<circle class="st72" cx="1305" cy="335.2" r="1.5"/>
		<path class="st72" d="M1264.9,324.3c0,0.5-0.5,1-1,1s-1-0.4-1-1c0-0.5,0.4-1,1-1C1264.4,323.3,1264.9,323.8,1264.9,324.3z"/>
		<path class="st72" d="M1275.1,336.8c0,0.5-0.4,1-1,1c-0.5,0-1-0.4-1-1c0-0.5,0.4-1,1-1S1275.1,336.2,1275.1,336.8z"/>
		<path class="st72" d="M1278,332.3c0,0.4-0.3,0.7-0.6,0.7c-0.4,0-0.7-0.3-0.7-0.7c0-0.4,0.3-0.6,0.7-0.6
			C1277.7,331.7,1278,331.9,1278,332.3z"/>
		<path class="st72" d="M1284.8,324.9c0,0.4-0.3,0.7-0.7,0.7c-0.4,0-0.7-0.3-0.7-0.7c0-0.4,0.3-0.7,0.7-0.7
			S1284.8,324.5,1284.8,324.9z"/>
		<path class="st72" d="M1279.8,319.1c0,0.4-0.3,0.7-0.7,0.7c-0.4,0-0.7-0.3-0.7-0.7c0-0.4,0.3-0.7,0.7-0.7
			C1279.5,318.3,1279.8,318.6,1279.8,319.1z"/>
		<path class="st72" d="M1249.7,313.4c0,0.4-0.3,0.7-0.7,0.7c-0.4,0-0.7-0.3-0.7-0.7c0-0.4,0.3-0.7,0.7-0.7
			C1249.3,312.7,1249.7,313,1249.7,313.4z"/>
		<path class="st72" d="M1263.1,322.1c0,0.5-0.4,1-1,1c-0.5,0-1-0.4-1-1c0-0.5,0.4-1,1-1C1262.7,321.2,1263.1,321.6,1263.1,322.1z"
			/>
		<path class="st72" d="M1257.1,323.9c0,0.5-0.4,1-1,1s-1-0.4-1-1c0-0.5,0.4-1,1-1S1257.1,323.4,1257.1,323.9z"/>
		<path class="st72" d="M1273.3,331.6c0,0.5-0.4,0.9-1,0.9c-0.5,0-1-0.4-1-0.9s0.4-1,1-1S1273.3,331,1273.3,331.6z"/>
		<path class="st72" d="M1286.2,339.4c0,0.5-0.4,0.8-0.8,0.8c-0.5,0-0.9-0.4-0.9-0.8c0-0.5,0.4-0.9,0.9-0.9
			C1285.8,338.5,1286.2,338.9,1286.2,339.4z"/>
		<path class="st72" d="M1303,333.3c0,0.5-0.4,1-1,1c-0.5,0-1-0.4-1-1c0-0.5,0.4-1,1-1S1303,332.7,1303,333.3z"/>
		<path class="st72" d="M1311,329.9c0,0.5-0.4,1-1,1c-0.5,0-1-0.4-1-1c0-0.5,0.4-1,1-1S1311,329.3,1311,329.9z"/>
		<path class="st72" d="M1247.6,287.8c0,0.5-0.4,1-1,1c-0.5,0-1-0.4-1-1s0.4-1,1-1S1247.6,287.2,1247.6,287.8z"/>
		<path class="st72" d="M1252.2,299.1c0,0.5-0.4,1-1,1c-0.5,0-1-0.4-1-1c0-0.5,0.5-1,1-1C1251.8,298.2,1252.2,298.6,1252.2,299.1z"
			/>
		<path class="st72" d="M1254.6,313.4c0,0.5-0.4,0.9-1,0.9c-0.5,0-1-0.4-1-0.9s0.4-1,1-1C1254.1,312.4,1254.6,312.9,1254.6,313.4z"
			/>
		<path class="st72" d="M1246.3,294.4c0,0.5-0.4,1-1,1c-0.5,0-1-0.4-1-1c0-0.5,0.4-1,1-1C1245.9,293.5,1246.3,293.9,1246.3,294.4z"
			/>
		<path class="st72" d="M1275.9,328.7c0,0.6-0.5,1.1-1.1,1.1s-1.1-0.5-1.1-1.1s0.5-1.1,1.1-1.1S1275.9,328.1,1275.9,328.7z"/>
		<path class="st72" d="M1291.5,331.3c0,0.6-0.5,1.1-1.1,1.1s-1.1-0.5-1.1-1.1s0.5-1.1,1.1-1.1S1291.5,330.7,1291.5,331.3z"/>
		<path class="st72" d="M1297,338.3c0,0.6-0.5,1.1-1.1,1.1s-1.1-0.5-1.1-1.1s0.5-1.1,1.1-1.1S1297,337.7,1297,338.3z"/>
		<path class="st72" d="M1250.2,306.9c0,0.6-0.5,1.1-1.1,1.1s-1.1-0.5-1.1-1.1s0.5-1.1,1.1-1.1S1250.2,306.3,1250.2,306.9z"/>
		<path class="st72" d="M1258.4,308.7c0,2-1.6,3.6-3.6,3.6s-3.6-1.6-3.6-3.6s1.6-3.6,3.6-3.6
			C1256.8,305.2,1258.4,306.8,1258.4,308.7z"/>
		<path class="st72" d="M1277.6,321.9c0,2.8-2.3,5.1-5.1,5.1c-2.8,0-5.1-2.3-5.1-5.1c0-2.8,2.3-5.1,5.1-5.1
			C1275.4,316.8,1277.6,319.1,1277.6,321.9z"/>
		<path class="st73" d="M1320,327.3c-21.4,13.3-49.5,6.8-62.8-14.5c-10.6-16.9-8.6-38,3.2-52.7c-17.9,14.3-22.7,39.9-10.3,59.8
			c13.4,21.3,41.5,27.9,62.8,14.5c4.5-2.8,8.3-6.3,11.4-10.2C1322.9,325.3,1321.5,326.4,1320,327.3z"/>
	</g>
</g>
<g>
	<g>
		<g>
			<g>
				<g>
					<path class="st65" d="M797.2,267.7c-1.9,8.6,3.4,17.1,12,19.1l320.6,72.9c8.6,2,17.1-3.4,19.1-12l38.4-169
						c2-8.6-3.4-17.1-12-19.1l-320.6-73c-8.6-2-17.1,3.4-19.1,12L797.2,267.7z"/>
				</g>
			</g>
			<polygon class="st74" points="819.2,217.7 1150.4,292.9 1178.2,170.7 847,95.4 			"/>
			<path class="st74" d="M930.5,300.5c-0.8,3.5,1.4,6.9,4.9,7.7l71.4,16.2c3.5,0.8,7-1.4,7.7-4.9l9.4-41.2c0.8-3.5-1.4-6.9-4.9-7.8
				l-71.4-16.2c-3.5-0.8-7,1.4-7.8,4.9L930.5,300.5z"/>
			<g>
				<g>
					<path class="st20" d="M1206.5,113.4c-120-27.3-240-54.5-360-81.8c-4.6-1.1-6.8,0.4-7.5,3.1l0,0c0.3-1.1,1.7-7.4,1.9-8.3
						c0.7-2.9,2.8-4.5,7.6-3.4c120,27.3,240,54.5,360,81.8c4.6,1,5.9,3.3,5.4,6c-0.2,0.9-1.6,6.9-2,8.8
						C1212.4,116.8,1211.1,114.5,1206.5,113.4z"/>
					<path class="st65" d="M1211.8,119.9L1211.8,119.9c0,0.1,0,0.2-0.1,0.2C1211.8,120,1211.8,119.9,1211.8,119.9z"/>
				</g>
				<path class="st75" d="M841.2,75.3c0.3,4.6,2.7,8.8,8.2,10.1c110.4,25.1,220.9,50.2,331.3,75.3c5.4,1.2,9.5-1.6,11.7-5.6
					c6.1-10.8,12.2-21.6,18.2-32.4c2.3-4,2.1-7.8-4.2-9.2c-120-27.3-240-54.5-360-81.8c-6.3-1.4-8.1,1.9-7.8,6.5
					C839.6,50.5,840.4,62.9,841.2,75.3z"/>
				<path class="st76" d="M849.9,38.1c0.7,14,1.4,28,2.1,42c109.6,24.9,219.1,49.8,328.6,74.7c6.7-12.3,13.3-24.7,20-37
					C1083.7,91.3,966.8,64.7,849.9,38.1z"/>
			</g>
			<polygon class="st75" points="1151.8,154.2 1150.1,161.6 876.6,99.4 878.2,92 			"/>
			<g>
				<g>
					<g>
						<path class="st75" d="M1137.9,170.3c-0.3,1.5,0.6,3,2.1,3.3l11.6,2.6c1.5,0.3,3-0.6,3.3-2.1l0.1-0.5c0.3-1.5-0.6-3-2.1-3.3
							l-11.6-2.6c-1.5-0.3-3,0.6-3.3,2.1L1137.9,170.3z"/>
						<path class="st75" d="M866.4,108.6c-0.3,1.5,0.6,3,2.1,3.3l11.6,2.6c1.5,0.3,3-0.6,3.3-2.1l0.1-0.5c0.3-1.5-0.6-3-2.1-3.3
							l-11.6-2.6c-1.5-0.3-3,0.6-3.3,2.1L866.4,108.6z"/>
						<path class="st75" d="M887.3,113.3c-0.3,1.5,0.6,3,2.1,3.3l11.6,2.6c1.5,0.3,3-0.6,3.3-2.1l0.1-0.5c0.4-1.5-0.6-3-2.1-3.3
							l-11.6-2.6c-1.5-0.3-3,0.6-3.3,2.1L887.3,113.3z"/>
						<path class="st75" d="M908.2,118.1c-0.3,1.5,0.6,3,2.1,3.3l11.6,2.6c1.5,0.3,3-0.6,3.3-2.1l0.1-0.5c0.3-1.5-0.6-3-2.1-3.3
							l-11.6-2.6c-1.5-0.3-3,0.6-3.3,2.1L908.2,118.1z"/>
						<path class="st75" d="M929.1,122.8c-0.3,1.5,0.6,3,2.1,3.3l11.6,2.6c1.5,0.3,3-0.6,3.3-2.1l0.1-0.5c0.3-1.5-0.6-3-2.1-3.3
							l-11.6-2.6c-1.5-0.3-3,0.6-3.3,2.1L929.1,122.8z"/>
						<path class="st75" d="M949.9,127.6c-0.3,1.5,0.6,3,2.1,3.3l11.6,2.6c1.5,0.3,3-0.6,3.3-2.1l0.1-0.5c0.3-1.5-0.6-3-2.1-3.3
							l-11.6-2.6c-1.5-0.3-3,0.6-3.3,2.1L949.9,127.6z"/>
						<path class="st75" d="M970.8,132.3c-0.4,1.5,0.6,3,2.1,3.3l11.6,2.6c1.5,0.3,3-0.6,3.3-2.1l0.1-0.5c0.3-1.5-0.6-3-2.1-3.3
							l-11.6-2.6c-1.5-0.3-3,0.6-3.3,2.1L970.8,132.3z"/>
						<path class="st75" d="M991.7,137.1c-0.3,1.5,0.6,3,2.1,3.3l11.6,2.6c1.5,0.3,3-0.6,3.3-2.1l0.1-0.5c0.3-1.5-0.6-3-2.1-3.3
							l-11.6-2.6c-1.5-0.3-3,0.6-3.3,2.1L991.7,137.1z"/>
						<path class="st75" d="M1012.6,141.8c-0.3,1.5,0.6,3,2.1,3.3l11.6,2.6c1.5,0.3,3-0.6,3.3-2.1l0.1-0.5c0.3-1.5-0.6-3-2.1-3.3
							l-11.6-2.6c-1.5-0.3-3,0.6-3.3,2.1L1012.6,141.8z"/>
						<path class="st75" d="M1033.5,146.6c-0.3,1.5,0.6,3,2.1,3.3l11.6,2.6c1.5,0.3,3-0.6,3.3-2.1l0.1-0.5c0.3-1.5-0.6-3-2.1-3.3
							l-11.6-2.6c-1.5-0.3-3,0.6-3.3,2.1L1033.5,146.6z"/>
						<path class="st75" d="M1054.4,151.3c-0.3,1.5,0.6,3,2.1,3.3l11.6,2.6c1.5,0.3,3-0.6,3.3-2.1l0.1-0.5c0.4-1.5-0.6-3-2.1-3.3
							l-11.6-2.6c-1.5-0.3-3,0.6-3.3,2.1L1054.4,151.3z"/>
						<path class="st75" d="M1075.2,156c-0.3,1.5,0.6,3,2.1,3.3l11.6,2.6c1.5,0.3,3-0.6,3.3-2.1l0.1-0.5c0.3-1.5-0.6-3-2.1-3.3
							l-11.6-2.6c-1.5-0.3-3,0.6-3.3,2.1L1075.2,156z"/>
						<path class="st75" d="M1096.1,160.8c-0.3,1.5,0.6,3,2.1,3.3l11.6,2.6c1.5,0.3,3-0.6,3.3-2.1l0.1-0.5c0.3-1.5-0.6-3-2.1-3.3
							l-11.6-2.6c-1.5-0.3-3,0.6-3.3,2.1L1096.1,160.8z"/>
						<path class="st75" d="M1117,165.5c-0.3,1.5,0.6,3,2.1,3.3l11.6,2.6c1.5,0.3,3-0.6,3.3-2.1l0.1-0.5c0.3-1.5-0.6-3-2.1-3.3
							l-11.6-2.6c-1.5-0.3-3,0.6-3.3,2.1L1117,165.5z"/>
					</g>
				</g>
				<g>
					<path class="st75" d="M1133.2,190.9c-0.3,1.5,0.6,3,2.1,3.3l11.6,2.6c1.5,0.3,3-0.6,3.3-2.1l2.6-11.6c0.3-1.5-0.6-3-2.1-3.3
						l-11.6-2.6c-1.5-0.3-3,0.6-3.3,2.1L1133.2,190.9z"/>
					<path class="st75" d="M1113.1,186.3c-0.3,1.5,0.6,3,2.1,3.3l11.6,2.6c1.5,0.3,3-0.6,3.3-2.1l2.6-11.6c0.3-1.5-0.6-3-2.1-3.3
						l-11.6-2.6c-1.5-0.3-3,0.6-3.3,2.1L1113.1,186.3z"/>
					<path class="st75" d="M1092.9,181.7c-0.3,1.5,0.6,3,2.1,3.3l11.6,2.6c1.5,0.3,3-0.6,3.3-2.1l2.7-11.6c0.3-1.5-0.6-3-2.1-3.3
						l-11.6-2.6c-1.5-0.3-3,0.6-3.3,2.1L1092.9,181.7z"/>
					<path class="st75" d="M1072.8,177.2c-0.3,1.5,0.6,3,2.1,3.3l11.6,2.6c1.5,0.3,3-0.6,3.3-2.1l2.6-11.6c0.3-1.5-0.6-3-2.1-3.3
						l-11.6-2.6c-1.5-0.3-3,0.6-3.3,2.1L1072.8,177.2z"/>
					<path class="st75" d="M1052.6,172.6c-0.3,1.5,0.6,3,2.1,3.3l11.6,2.6c1.5,0.3,3-0.6,3.3-2.1l2.6-11.6c0.3-1.5-0.6-3-2.1-3.3
						l-11.6-2.6c-1.5-0.3-3,0.6-3.3,2.1L1052.6,172.6z"/>
					<path class="st75" d="M1032.5,168c-0.3,1.5,0.6,3,2.1,3.3l11.6,2.6c1.5,0.3,3-0.6,3.3-2.1l2.7-11.6c0.3-1.5-0.6-3-2.1-3.3
						l-11.6-2.6c-1.5-0.3-3,0.6-3.3,2.1L1032.5,168z"/>
					<path class="st75" d="M1012.3,163.4c-0.4,1.5,0.6,3,2.1,3.3l11.6,2.6c1.5,0.3,3-0.6,3.3-2.1l2.6-11.6c0.3-1.5-0.6-3-2.1-3.3
						l-11.6-2.6c-1.5-0.3-3,0.6-3.3,2.1L1012.3,163.4z"/>
					<path class="st75" d="M992.2,158.9c-0.3,1.5,0.6,3,2.1,3.3l11.6,2.6c1.5,0.3,3-0.6,3.3-2.1l2.6-11.6c0.3-1.5-0.6-3-2.1-3.3
						l-11.6-2.7c-1.5-0.3-3,0.6-3.3,2.1L992.2,158.9z"/>
					<path class="st75" d="M972,154.3c-0.3,1.5,0.6,3,2.1,3.3l11.6,2.6c1.5,0.3,3-0.6,3.3-2.1l2.6-11.6c0.4-1.5-0.6-3-2.1-3.3
						l-11.6-2.6c-1.5-0.3-3,0.6-3.3,2.1L972,154.3z"/>
					<path class="st75" d="M951.9,149.7c-0.4,1.5,0.6,3,2.1,3.3l11.6,2.6c1.5,0.3,3-0.6,3.3-2.1l2.6-11.6c0.3-1.5-0.6-3-2.1-3.3
						l-11.6-2.6c-1.5-0.3-3,0.6-3.3,2.1L951.9,149.7z"/>
					<path class="st75" d="M931.8,145.1c-0.4,1.5,0.6,3,2.1,3.3l11.6,2.6c1.5,0.3,3-0.6,3.3-2.1l2.6-11.6c0.3-1.5-0.6-3-2.1-3.3
						l-11.6-2.6c-1.5-0.3-3,0.6-3.3,2.1L931.8,145.1z"/>
					<path class="st75" d="M911.6,140.5c-0.3,1.5,0.6,3,2.1,3.3l11.6,2.6c1.5,0.3,3-0.6,3.3-2.1l2.6-11.6c0.4-1.5-0.6-3-2.1-3.3
						l-11.6-2.6c-1.5-0.3-3,0.6-3.3,2.1L911.6,140.5z"/>
					<path class="st75" d="M891.5,136c-0.3,1.5,0.6,3,2.1,3.3l11.6,2.6c1.5,0.3,3-0.6,3.3-2.1l2.6-11.6c0.3-1.5-0.6-3-2.1-3.3
						l-11.6-2.6c-1.5-0.3-3,0.6-3.3,2.1L891.5,136z"/>
					<path class="st75" d="M861.7,129.2c-0.3,1.5,0.6,3,2.1,3.3l21.2,4.8c1.5,0.3,3-0.6,3.3-2.1l2.6-11.6c0.3-1.5-0.6-3-2.1-3.3
						l-21.2-4.8c-1.5-0.4-3,0.6-3.3,2.1L861.7,129.2z"/>
				</g>
				<g>
					<path class="st75" d="M1112.8,251.3c-0.3,1.5,0.6,3,2.1,3.3l18,4.1c1.5,0.3,3-0.6,3.3-2.1l2.6-11.6c0.3-1.5-0.6-3-2.1-3.3
						l-18-4.1c-1.5-0.3-3,0.6-3.3,2.1L1112.8,251.3z"/>
					<path class="st75" d="M1091.7,246.5c-0.3,1.5,0.6,3,2.1,3.3l11.6,2.6c1.5,0.3,3-0.6,3.3-2.1l2.6-11.6c0.3-1.5-0.6-3-2.1-3.3
						l-11.6-2.6c-1.5-0.3-3,0.6-3.3,2.1L1091.7,246.5z"/>
					<path class="st75" d="M1071.5,242c-0.3,1.5,0.6,3,2.1,3.3l11.6,2.6c1.5,0.3,3-0.6,3.3-2.1l2.6-11.6c0.3-1.5-0.6-3-2.1-3.3
						l-11.6-2.6c-1.5-0.3-3,0.6-3.3,2.1L1071.5,242z"/>
					<path class="st75" d="M1051.4,237.4c-0.3,1.5,0.6,3,2.1,3.3l11.6,2.6c1.5,0.3,3-0.6,3.3-2.1l2.6-11.6c0.3-1.5-0.6-3-2.1-3.3
						l-11.6-2.6c-1.5-0.3-3,0.6-3.3,2.1L1051.4,237.4z"/>
					<path class="st75" d="M1031.2,232.8c-0.3,1.5,0.6,3,2.1,3.3l11.6,2.6c1.5,0.3,3-0.6,3.3-2.1l2.6-11.6c0.3-1.5-0.6-3-2.1-3.3
						l-11.6-2.6c-1.5-0.3-3,0.6-3.3,2.1L1031.2,232.8z"/>
					<path class="st75" d="M1011.1,228.2c-0.3,1.5,0.6,3,2.1,3.3l11.6,2.6c1.5,0.3,3-0.6,3.3-2.1l2.6-11.6c0.3-1.5-0.6-3-2.1-3.3
						l-11.6-2.6c-1.5-0.3-3,0.6-3.3,2.1L1011.1,228.2z"/>
					<path class="st75" d="M990.9,223.6c-0.4,1.5,0.6,3,2.1,3.3l11.6,2.6c1.5,0.3,3-0.6,3.3-2.1l2.6-11.6c0.4-1.5-0.6-3-2.1-3.3
						l-11.6-2.6c-1.5-0.3-3,0.6-3.3,2.1L990.9,223.6z"/>
					<path class="st75" d="M970.8,219.1c-0.3,1.5,0.6,3,2.1,3.3l11.6,2.6c1.5,0.3,3-0.6,3.3-2.1l2.6-11.6c0.3-1.5-0.6-3-2.1-3.3
						l-11.6-2.6c-1.5-0.3-3,0.6-3.3,2.1L970.8,219.1z"/>
					<path class="st75" d="M950.6,214.5c-0.3,1.5,0.6,3,2.1,3.3l11.6,2.6c1.5,0.3,3-0.6,3.3-2.1l2.6-11.6c0.4-1.5-0.6-3-2.1-3.3
						l-11.6-2.6c-1.5-0.3-3,0.6-3.3,2.1L950.6,214.5z"/>
					<path class="st75" d="M930.5,209.9c-0.3,1.5,0.6,3,2.1,3.3l11.6,2.6c1.5,0.3,3-0.6,3.3-2.1l2.6-11.6c0.3-1.5-0.6-3-2.1-3.3
						l-11.6-2.6c-1.5-0.3-3,0.6-3.3,2.1L930.5,209.9z"/>
					<path class="st75" d="M910.4,205.3c-0.3,1.5,0.6,3,2.1,3.3l11.6,2.6c1.5,0.3,3-0.6,3.3-2.1l2.6-11.6c0.3-1.5-0.6-3-2.1-3.3
						l-11.6-2.6c-1.5-0.3-3,0.6-3.3,2.1L910.4,205.3z"/>
					<path class="st75" d="M890.2,200.7c-0.3,1.5,0.6,3,2.1,3.3l11.6,2.6c1.5,0.3,3-0.6,3.3-2.1l2.6-11.6c0.3-1.5-0.6-3-2.1-3.3
						l-11.6-2.6c-1.5-0.3-3,0.6-3.3,2.1L890.2,200.7z"/>
					<path class="st75" d="M847.6,191.1c-0.3,1.5,0.6,3,2.1,3.3l34,7.7c1.5,0.3,3-0.6,3.3-2.1l2.6-11.6c0.3-1.5-0.6-3-2.1-3.3
						l-34.1-7.7c-1.5-0.3-3,0.6-3.3,2.1L847.6,191.1z"/>
				</g>
				<g>
					<path class="st75" d="M896.8,146.7c0.3-1.5-0.6-3-2.1-3.3l-11.6-2.6c-1.5-0.3-3,0.6-3.3,2.1l-2.6,11.6c-0.3,1.5,0.6,3,2.1,3.3
						l11.6,2.6c1.5,0.3,3-0.6,3.3-2.1L896.8,146.7z"/>
					<path class="st75" d="M863,136.1l11.6,2.6c1.5,0.3,2.4,1.8,2.1,3.3l-2.6,11.6c-0.3,1.5-1.8,2.4-3.3,2.1L867,155l-4.1,17.9
						c-0.3,1.5-1.8,2.4-3.3,2.1l-5.2-1.2c-1.5-0.3-2.4-1.8-2.1-3.3l7.3-32.2C860,136.7,861.5,135.8,863,136.1z"/>
					<path class="st75" d="M917,151.3c0.3-1.5-0.6-3-2.1-3.3l-11.6-2.6c-1.5-0.3-3,0.6-3.3,2.1l-2.6,11.6c-0.3,1.5,0.6,3,2.1,3.3
						L911,165c1.5,0.3,3-0.6,3.3-2.1L917,151.3z"/>
					<path class="st75" d="M937.1,155.8c0.3-1.5-0.6-3-2.1-3.3l-11.6-2.6c-1.5-0.3-3,0.6-3.3,2.1l-2.6,11.6c-0.3,1.5,0.6,3,2.1,3.3
						l11.6,2.6c1.5,0.3,3-0.6,3.3-2.1L937.1,155.8z"/>
					<path class="st75" d="M957.3,160.4c0.3-1.5-0.6-3-2.1-3.3l-11.6-2.6c-1.5-0.3-3,0.6-3.3,2.1l-2.6,11.6c-0.3,1.5,0.6,3,2.1,3.3
						l11.6,2.6c1.5,0.3,3-0.6,3.3-2.1L957.3,160.4z"/>
					<path class="st75" d="M977.4,165c0.3-1.5-0.6-3-2.1-3.3l-11.6-2.6c-1.5-0.3-3,0.6-3.3,2.1l-2.6,11.6c-0.3,1.5,0.6,3,2.1,3.3
						l11.6,2.6c1.5,0.3,3-0.6,3.3-2.1L977.4,165z"/>
					<path class="st75" d="M997.6,169.6c0.3-1.5-0.6-3-2.1-3.3l-11.6-2.6c-1.5-0.3-3,0.6-3.3,2.1l-2.6,11.6c-0.4,1.5,0.6,3,2.1,3.3
						l11.6,2.6c1.5,0.3,3-0.6,3.3-2.1L997.6,169.6z"/>
					<path class="st75" d="M1017.7,174.1c0.3-1.5-0.6-3-2.1-3.3l-11.6-2.6c-1.5-0.3-3,0.6-3.3,2.1l-2.6,11.6c-0.4,1.5,0.6,3,2.1,3.3
						l11.6,2.6c1.5,0.3,3-0.6,3.3-2.1L1017.7,174.1z"/>
					<path class="st75" d="M1037.9,178.7c0.3-1.5-0.6-3-2.1-3.3l-11.6-2.6c-1.5-0.3-3,0.6-3.3,2.1l-2.6,11.6c-0.3,1.5,0.6,3,2.1,3.3
						l11.6,2.6c1.5,0.3,3-0.6,3.3-2.1L1037.9,178.7z"/>
					<path class="st75" d="M1058,183.3c0.3-1.5-0.6-3-2.1-3.3l-11.6-2.6c-1.5-0.3-3,0.6-3.3,2.1l-2.6,11.6c-0.3,1.5,0.6,3,2.1,3.3
						l11.6,2.6c1.5,0.3,3-0.6,3.3-2.1L1058,183.3z"/>
					<path class="st75" d="M1078.1,187.9c0.3-1.5-0.6-3-2.1-3.3l-11.6-2.6c-1.5-0.3-3,0.6-3.3,2.1l-2.6,11.6c-0.3,1.5,0.6,3,2.1,3.3
						l11.6,2.6c1.5,0.3,3-0.6,3.3-2.1L1078.1,187.9z"/>
					<path class="st75" d="M1098.3,192.5c0.3-1.5-0.6-3-2.1-3.3l-11.6-2.6c-1.5-0.3-3,0.6-3.3,2.1l-2.6,11.6c-0.4,1.5,0.6,3,2.1,3.3
						l11.6,2.6c1.5,0.3,3-0.6,3.3-2.1L1098.3,192.5z"/>
					<path class="st75" d="M1118.5,197c0.3-1.5-0.6-3-2.1-3.3l-11.6-2.6c-1.5-0.3-3,0.6-3.3,2.1l-2.6,11.6c-0.3,1.5,0.6,3,2.1,3.3
						l11.6,2.6c1.5,0.3,3-0.6,3.4-2.1L1118.5,197z"/>
					<path class="st75" d="M1148.2,203.8c0.3-1.5-0.6-3-2.1-3.3l-21.2-4.8c-1.5-0.3-3,0.6-3.3,2.1l-2.6,11.6c-0.3,1.5,0.6,3,2.1,3.3
						l21.2,4.8c1.5,0.3,3-0.6,3.3-2.1L1148.2,203.8z"/>
				</g>
				<g>
					<g>
						<path class="st75" d="M1072.7,251.7c0.4-1.5-0.6-3-2.1-3.3l-18-4.1c-1.5-0.3-3,0.6-3.3,2.1l-2.6,11.6c-0.3,1.5,0.6,3,2.1,3.3
							l18,4.1c1.5,0.3,3-0.6,3.3-2.1L1072.7,251.7z"/>
						<path class="st75" d="M945.5,222.8c0.3-1.5-0.6-3-2.1-3.3l-14.8-3.4c-1.5-0.3-3,0.6-3.3,2.1l-2.6,11.6c-0.3,1.5,0.6,3,2.1,3.3
							l14.8,3.4c1.5,0.3,3-0.6,3.3-2.1L945.5,222.8z"/>
						<path class="st75" d="M1093.8,256.5c0.3-1.5-0.6-3-2.1-3.3l-11.6-2.6c-1.5-0.4-3,0.6-3.3,2.1l-2.6,11.6
							c-0.3,1.5,0.6,3,2.1,3.3l11.6,2.6c1.5,0.3,3-0.6,3.3-2.1L1093.8,256.5z"/>
						<path class="st75" d="M1114,261.1c0.3-1.5-0.6-3-2.1-3.3l-11.6-2.6c-1.5-0.3-3,0.6-3.3,2.1l-2.6,11.6c-0.3,1.5,0.6,3,2.1,3.3
							l11.6,2.6c1.5,0.3,3-0.6,3.3-2.1L1114,261.1z"/>
						<path class="st75" d="M1134.1,265.7c0.3-1.5-0.6-3-2.1-3.3l-11.6-2.6c-1.5-0.3-3,0.6-3.3,2.1l-2.6,11.6
							c-0.3,1.5,0.6,3,2.1,3.3l11.6,2.6c1.5,0.3,3-0.6,3.3-2.1L1134.1,265.7z"/>
						<path class="st75" d="M951.9,221.4l92.2,20.9c1.5,0.3,2.4,1.8,2.1,3.3l-2.6,11.6c-0.4,1.5-1.9,2.4-3.3,2.1l-92.2-20.9
							c-1.5-0.3-2.4-1.8-2.1-3.3l2.6-11.6C949,222,950.4,221.1,951.9,221.4z"/>
						<path class="st75" d="M902.5,225.2c-0.3,1.5,0.6,3,2.1,3.3l11.6,2.6c1.5,0.3,3-0.6,3.3-2.1l2.6-11.6c0.3-1.5-0.6-3-2.1-3.3
							l-11.6-2.6c-1.5-0.3-3,0.6-3.3,2.1L902.5,225.2z"/>
						<path class="st75" d="M860.5,213.6c0.3-1.5-0.6-3-2.1-3.3l-11.6-2.6c-1.5-0.3-3,0.6-3.3,2.1l-0.5,2c-0.3,1.5,0.6,3,2.1,3.3
							l11.6,2.6c1.5,0.3,3-0.6,3.3-2.1L860.5,213.6z"/>
						<path class="st75" d="M882.8,208.5c0.3-1.5-0.6-3-2.1-3.3l-11.6-2.6c-1.5-0.3-3,0.6-3.3,2.1l-2.6,11.6c-0.3,1.5,0.6,3,2.1,3.3
							l11.6,2.6c1.5,0.3,3-0.6,3.3-2.1L882.8,208.5z"/>
						<path class="st75" d="M900.8,222.7c0.3-1.5-0.6-3-2.1-3.3l-11.6-2.6c-1.5-0.3-3,0.6-3.3,2.1l-0.4,2c-0.3,1.5,0.6,3,2.1,3.3
							l11.6,2.6c1.5,0.3,3-0.6,3.3-2.1L900.8,222.7z"/>
					</g>
				</g>
				<g>
					<path class="st75" d="M885.8,165.8c0.3-1.5-0.6-3-2.1-3.3l-11.6-2.6c-1.5-0.3-3,0.6-3.3,2.1l-2.6,11.6c-0.3,1.5,0.6,3,2.1,3.3
						l11.6,2.6c1.5,0.3,3-0.6,3.3-2.1L885.8,165.8z"/>
					<path class="st75" d="M905.9,170.4c0.3-1.5-0.6-3-2.1-3.3l-11.6-2.6c-1.5-0.3-3,0.6-3.3,2.1l-2.6,11.6c-0.3,1.5,0.6,3,2.1,3.3
						l11.6,2.6c1.5,0.3,3-0.6,3.3-2.1L905.9,170.4z"/>
					<path class="st75" d="M926.1,175c0.3-1.5-0.6-3-2.1-3.3l-11.6-2.6c-1.5-0.3-3,0.6-3.3,2.1l-2.6,11.6c-0.4,1.5,0.6,3,2.1,3.3
						l11.6,2.6c1.5,0.3,3-0.6,3.3-2.1L926.1,175z"/>
					<path class="st75" d="M946.2,179.6c0.3-1.5-0.6-3-2.1-3.4l-11.6-2.6c-1.5-0.3-3,0.6-3.3,2.1l-2.6,11.6c-0.3,1.5,0.6,3,2.1,3.3
						l11.6,2.6c1.5,0.3,3-0.6,3.3-2.1L946.2,179.6z"/>
					<path class="st75" d="M966.3,184.2c0.3-1.5-0.6-3-2.1-3.3l-11.6-2.6c-1.5-0.3-3,0.6-3.3,2.1l-2.6,11.6c-0.3,1.5,0.6,3,2.1,3.3
						l11.6,2.6c1.5,0.4,3-0.6,3.3-2.1L966.3,184.2z"/>
					<path class="st75" d="M986.5,188.7c0.4-1.5-0.6-3-2.1-3.3l-11.6-2.6c-1.5-0.3-3,0.6-3.3,2.1l-2.6,11.6c-0.3,1.5,0.6,3,2.1,3.3
						l11.6,2.6c1.5,0.3,3-0.6,3.3-2.1L986.5,188.7z"/>
					<path class="st75" d="M1006.6,193.3c0.3-1.5-0.6-3-2.1-3.3l-11.6-2.6c-1.5-0.3-3,0.6-3.3,2.1l-2.6,11.6c-0.3,1.5,0.6,3,2.1,3.3
						l11.6,2.6c1.5,0.3,3-0.6,3.3-2.1L1006.6,193.3z"/>
					<path class="st75" d="M1026.8,197.9c0.3-1.5-0.6-3-2.1-3.3l-11.6-2.6c-1.5-0.3-3,0.6-3.3,2.1l-2.6,11.6c-0.3,1.5,0.6,3,2.1,3.3
						l11.6,2.6c1.5,0.3,3-0.6,3.3-2.1L1026.8,197.9z"/>
					<path class="st75" d="M1046.9,202.5c0.3-1.5-0.6-3-2.1-3.3l-11.6-2.6c-1.5-0.3-3,0.6-3.3,2.1l-2.6,11.6c-0.4,1.5,0.6,3,2.1,3.3
						l11.6,2.6c1.5,0.3,3-0.6,3.3-2.1L1046.9,202.5z"/>
					<path class="st75" d="M1067.1,207c0.3-1.5-0.6-3-2.1-3.3l-11.7-2.6c-1.5-0.3-3,0.6-3.3,2.1l-2.6,11.6c-0.3,1.5,0.6,3,2.1,3.3
						l11.6,2.6c1.5,0.3,3-0.6,3.3-2.1L1067.1,207z"/>
					<path class="st75" d="M1087.2,211.6c0.3-1.5-0.6-3-2.1-3.3l-11.6-2.6c-1.5-0.3-3,0.6-3.3,2.1l-2.6,11.6c-0.3,1.5,0.6,3,2.1,3.3
						l11.6,2.6c1.5,0.3,3-0.6,3.3-2.1L1087.2,211.6z"/>
					<path class="st75" d="M1107.4,216.2c0.3-1.5-0.6-3-2.1-3.3l-11.6-2.6c-1.5-0.3-3,0.6-3.3,2.1l-2.6,11.6c-0.3,1.5,0.6,3,2.1,3.3
						l11.6,2.6c1.5,0.3,3-0.6,3.3-2.1L1107.4,216.2z"/>
					<path class="st75" d="M1143.5,224.4c0.3-1.5-0.6-3-2.1-3.3l-27.6-6.3c-1.5-0.3-3,0.6-3.3,2.1l-2.6,11.6c-0.3,1.5,0.6,3,2.1,3.3
						l27.6,6.3c1.5,0.3,3-0.6,3.3-2.1L1143.5,224.4z"/>
				</g>
			</g>
			<path class="st77" d="M918.3,90.9c0.6-10.8,1.3-21.7,1.9-32.5l208.3,47.3c-4.1,10-8.2,20.1-12.3,30.1L918.3,90.9z"/>
		</g>
		<path class="st78" d="M1173.9,159.1L854.7,86.6c-8.6-2-17.1,3.4-19.1,12l-32.2,141.6l232.5,52.8c7.1,2,19.8-3.4,28.3-12l106.5-103
			C1179,169.6,1180.3,161.4,1173.9,159.1z"/>
	</g>
	<path class="st79" d="M889.8,279.1l-1,1c-5.5-4.6-13.6-4.4-18.9,0.6l-16.8,15.9l40.9,9.3l1.1-1.1l4.4-15.5L889.8,279.1z
		 M925.4,220.7c-7.8-20.3-25.1-36.5-49.6-47c-19.1-8.8-37.9-11.9-54.9-8.9l-4.5,20c18.6-6.3,37.8-1,52.1,5.8
		c18,7.4,39.9,22.4,42.9,49.9c0.6,5.2,3.9,9.4,8.3,11.4c0.5,0.2,1,0.3,1.6,0.5c-0.9,10.5-3.9,21.6-9,33c-3.6,8.2-8.1,15.3-12.8,21.6
		l9,2.1c4.2-5.9,8.1-12.6,11.6-20.2C930.9,264.3,933.2,241,925.4,220.7z M799.7,280.1l0.6-24.7l-2.9,12.7
		C796.4,272.4,797.4,276.7,799.7,280.1z"/>
	<g>
		<g>
			<path class="st80" d="M899.1,269.7c-5.5-4.6-13.6-4.4-18.9,0.6l-35.4,33.5c-5.3,5-5.9,13.1-1.6,18.8L899.1,269.7z"/>
			<polygon class="st20" points="851.9,333.9 842.1,323.6 900.1,268.7 909.9,279 			"/>
			<polygon class="st81" points="875.7,322.6 878.4,325.4 900,305 897.3,302.2 			"/>
			<polygon class="st63" points="885.2,323 883.2,320.8 895.1,309.6 897.1,311.7 			"/>
			<polygon class="st63" points="851.9,333.9 867.5,330.4 905.5,294.4 909.9,279 			"/>
		</g>
		<path class="st80" d="M931.7,242.1c0.8-10.2-0.5-19.8-3.9-28.7c-7-18.1-22.6-32.6-45.1-42.2C860.2,160.7,839,159,821,166
			c-8.9,3.4-17,9-24,16.4c4.7,2.9,10.9,2.9,15.6-0.6c22.5-16.3,48.2-10,66.3-1.5c18,7.4,39.9,22.4,42.9,49.9
			c0.6,5.2,3.9,9.4,8.3,11.4C930.5,241.9,931.1,241.9,931.7,242.1z"/>
		<g>
			<path class="st80" d="M798.5,225c7,1,12.4,7.1,12.2,14.4l-1.1,48.7c-0.2,7.3-5.8,13.2-12.9,13.8L798.5,225z"/>
			
				<rect x="750.7" y="256.3" transform="matrix(2.305982e-02 -0.9997 0.9997 2.305982e-02 508.9913 1047.7589)" class="st20" width="79.8" height="14.2"/>
			<polygon class="st81" points="774.9,277.8 771.1,277.8 771.8,248 775.6,248.1 			"/>
			<polygon class="st63" points="768.3,271 771.2,271.1 771.6,254.7 768.7,254.6 			"/>
			<polygon class="st63" points="782.6,303.1 774.7,289.1 775.9,236.9 784.4,223.3 			"/>
		</g>
		<path class="st20" d="M935.7,210.3c-7.8-20.3-25.1-36.5-49.6-46.9c-24.1-11.2-47.8-13.1-68.1-5.3s-36.1,25.2-47,49.7
			c-12.5,28.2-10.2,52.9-11,69.1c-0.1,1.5,8.2,2.3,8.3,0c0.5-12.7-1.4-39,10.4-65.6c10-22.5,24.2-38.3,42.3-45.3s39.4-5.1,61.6,5.2
			c22.5,9.6,38.2,24.1,45.1,42.2c6.9,18.1,4.8,39.2-5.2,61.7c-11.8,26.6-32.5,42.8-41.7,51.7c-1.7,1.6,4.5,7.2,5.5,6.2
			c11.5-11.4,31.3-26.2,43.9-54.4C941.2,254,943.5,230.6,935.7,210.3z"/>
	</g>
</g>
<g>
	<polygon class="st82" points="407.9,96.7 385.7,56 373.3,62.8 377.3,45.8 332.2,35.3 321.7,80.3 349.9,86.9 367.2,118.8 	"/>
	<g>
		<polygon class="st5" points="368.8,88.8 323.7,78.3 334.3,33.3 379.3,43.8 		"/>
		
			<rect x="355.4" y="62.1" transform="matrix(0.878 -0.4786 0.4786 0.878 5.366 191.5666)" class="st83" width="46.3" height="46.3"/>
	</g>
</g>
</svg>
