<?xml version="1.0" encoding="utf-8"?>
<!-- Generator: Adobe Illustrator 24.1.1, SVG Export Plug-In . SVG Version: 6.00 Build 0)  -->
<svg version="1.1" id="Layer_1" xmlns="http://www.w3.org/2000/svg" xmlns:xlink="http://www.w3.org/1999/xlink" x="0px" y="0px"
	 viewBox="0 0 1920 360" style="enable-background:new 0 0 1920 360;" xml:space="preserve">
<style type="text/css">
	.st0{fill:url(#SVGID_1_);}
	.st1{fill:url(#SVGID_2_);}
	.st2{fill:#394144;}
	.st3{fill:#FFFFFF;}
	.st4{fill:#94C5F2;}
	.st5{fill:#89D3C2;}
	.st6{fill:#5B6466;}
	.st7{opacity:0.3;fill:#FFFFFF;enable-background:new    ;}
	.st8{fill:#2F363E;}
	.st9{fill:#E8E8E8;}
	.st10{fill:#484F59;}
	.st11{fill:#2F3640;}
	.st12{fill:#575D69;}
	.st13{opacity:0.2;fill:#0C0C0C;enable-background:new    ;}
	.st14{fill:#7EC8EF;}
	.st15{fill:#37BBF4;}
	.st16{enable-background:new    ;}
	.st17{fill:#D8D8D8;}
	.st18{fill:#E2E2E2;}
	.st19{opacity:0.1;enable-background:new    ;}
	.st20{fill:#74C8F4;}
	.st21{fill:#6C7BF0;}
	.st22{fill:#F2FCFE;}
	.st23{fill:#DEDFE2;}
	.st24{fill:#A991FF;}
	.st25{fill:#985CFB;}
	.st26{fill:#3CAED6;}
	.st27{opacity:0.1;fill:#0C0C0C;enable-background:new    ;}
	.st28{fill:#C41E10;}
	.st29{fill:#B5C0C6;}
	.st30{fill:#DDE6ED;}
	.st31{fill:#30373D;}
	.st32{fill:#818C91;}
	.st33{fill:#515151;}
	.st34{fill:#1A1D26;}
	.st35{fill:#FFFFFD;}
	.st36{opacity:0.3;fill:url(#SVGID_3_);}
</style>
<radialGradient id="SVGID_1_" cx="796.7659" cy="-0.1688" r="507.864" gradientTransform="matrix(1 0 0 0.8215 0 5.354463e-02)" gradientUnits="userSpaceOnUse">
	<stop  offset="0" style="stop-color:#00448C"/>
	<stop  offset="1" style="stop-color:#003049"/>
</radialGradient>
<path class="st0" d="M0,0.3h1920V360c0,0-534.8-124.2-960-124.2S0,360,0,360V0.3z"/>
<radialGradient id="SVGID_2_" cx="960" cy="360.1667" r="678.8225" gradientUnits="userSpaceOnUse">
	<stop  offset="0" style="stop-color:#FCC221"/>
	<stop  offset="1" style="stop-color:#FBB03B"/>
</radialGradient>
<rect y="360" class="st1" width="1920" height="0.3"/>
<g>
	<g>
		<path class="st2" d="M1344.4,192c2.3,1.4,3.1,4.3,1.7,6.6L1276,316.2c-1.4,2.3-4.3,3-6.6,1.7l-76.8-45.7c-2.3-1.4-3-4.3-1.6-6.6
			l70.1-117.6c1.4-2.3,4.3-3.1,6.6-1.7L1344.4,192z"/>
		
			<rect x="1213.5" y="186.9" transform="matrix(0.5116 -0.8592 0.8592 0.5116 419.9808 1203.2289)" class="st3" width="109.7" height="90.6"/>
		
			<rect x="1242.3" y="215.6" transform="matrix(0.5116 -0.8592 0.8592 0.5116 419.6014 1221.9857)" class="st4" width="84.8" height="52.6"/>
		
			<rect x="1202.2" y="200.6" transform="matrix(0.5116 -0.8592 0.8592 0.5116 420.4894 1175.8171)" class="st5" width="84.8" height="34.9"/>
		<path class="st6" d="M1294.3,172.3c0.3-0.5,1-0.7,1.5-0.3l12.6,7.5c0.5,0.3,0.7,1,0.4,1.5l-0.7,1.1c-0.3,0.5-1,0.7-1.5,0.4
			l-12.6-7.5c-0.5-0.3-0.7-1-0.3-1.5L1294.3,172.3z"/>
		<path class="st7" d="M1321.2,240.2l24.8-41.6c1.4-2.3,0.6-5.3-1.7-6.6l-76.8-45.7c-2.3-1.4-5.2-0.7-6.6,1.7l-43,72.2L1321.2,240.2
			z"/>
	</g>
</g>
<g>
	<g>
		<g>
			<path class="st8" d="M1464.4,219.6c0-12,9.8-21.8,21.8-21.8h253.2c12,0,21.8,9.8,21.8,21.8v48.5c0,12-9.8,21.8-21.8,21.8h-253.2
				c-12,0-21.8-9.8-21.8-21.8V219.6z"/>
		</g>
		<polygon class="st9" points="1716.3,178.4 1681.5,146.2 1510,146.2 1510,329.7 1716.3,329.7 		"/>
		<g>
			<path class="st10" d="M1794.1,253.6c0-9-7.3-15.9-16.3-15.9h-329.3c-9,0-16.3,7.3-16.3,16.3v66.9c0,4.8,3.9,8.8,8.8,8.8h344.3
				c4.8,0,8.8-3.9,8.8-8.8L1794.1,253.6L1794.1,253.6z"/>
			<rect x="1721.6" y="265.7" class="st11" width="11.4" height="9.8"/>
			<rect x="1760.6" y="265.7" class="st11" width="11.4" height="9.8"/>
		</g>
	</g>
	<rect x="1514.4" y="250.4" class="st12" width="104.7" height="5"/>
	<path class="st13" d="M1690.2,178.4c-2.4,0-4.4-1.1-5.9-3l32,43.4v-40.3L1690.2,178.4L1690.2,178.4z"/>
	<path class="st14" d="M1716.3,178.4h-26.6c-3.9,0-8.1-4.1-8.1-8v-24.2L1716.3,178.4z"/>
</g>
<g>
	<path class="st15" d="M456.1,69.3l-84.7-3.2c-3.8-0.1-7.1,3-7.2,6.8l-2.3,61.3c-0.1,3.8,2.9,7,6.7,7.1l9.8,0.4l-0.8,20.5l33.7-19.3
		l41.9,1.6c3.8,0.1,6.9-2.8,7-6.6l2.3-61.3C462.7,72.8,459.9,69.4,456.1,69.3z"/>
	<path class="st9" d="M381.4,93.7l63.1,2.4l0.2-4.1l-63.1-2.4L381.4,93.7z M381,102.4l63.1,2.4l0.2-4l-63.1-2.4L381,102.4z
		 M380.7,111.1l63.1,2.4l0.2-4.1l-63.1-2.4L380.7,111.1z M380.4,118.6l63.1,2.4l0.1-4.1l-63.1-2.4L380.4,118.6z"/>
</g>
<g>
	<g>
		<g>
			<g>
				<g class="st16">
					<g>
						<polygon class="st3" points="1425.7,44.7 1390.9,84 1384.2,74.4 1377.3,64.5 						"/>
					</g>
					<g>
						<polygon class="st3" points="1361.1,41.2 1425.7,44.7 1372.2,55.3 						"/>
					</g>
					<g>
						<polygon class="st17" points="1372.2,55.3 1425.7,44.7 1377.3,64.5 1371.2,72.7 						"/>
					</g>
				</g>
			</g>
		</g>
		<g>
			<g>
				<polygon class="st18" points="1377.3,64.5 1381.8,70.5 1371.2,72.7 				"/>
			</g>
		</g>
		<g class="st19">
			<g>
				<polygon class="st3" points="1377.3,64.5 1381.8,70.5 1371.2,72.7 				"/>
			</g>
		</g>
	</g>
	<g>
		<g>
			<path class="st3" d="M1367.5,74.7c-0.1,0.1-2.1,1-5.7,2.5l-0.8-1.9c3.5-1.4,5.6-2.5,5.6-2.5L1367.5,74.7z"/>
		</g>
		<g>
			<path class="st3" d="M1350.3,81.6c-3.9,1.3-7.8,2.6-11.6,3.7l-0.6-2c3.8-1.1,7.7-2.4,11.6-3.7L1350.3,81.6z M1326.8,88.3
				c-4.2,0.9-8.2,1.6-12.1,2.1l-0.2-2.1c3.8-0.5,7.8-1.1,11.9-2.1L1326.8,88.3z M1302.5,91.1c-4.4,0-8.6-0.4-12.3-1.2l0.4-2
				c3.6,0.7,7.6,1.1,11.9,1.1V91.1z M1264,96.6c-3.6,2.1-7.4,3.8-11.2,5.1l-0.7-1.9c3.6-1.3,7.3-3,10.8-5.1L1264,96.6z M1274.3,89.9
				l-1.3-1.7c1.3-1,2.6-2.1,4-3.1c-3.3-1.9-6.2-4.1-8.5-6.7l1.5-1.4c2.3,2.5,5.2,4.8,8.6,6.7c1.2-1,2.4-2.1,3.6-3.2l1.4,1.5
				C1280.6,84.7,1277.6,87.4,1274.3,89.9z M1292,72.9l-1.6-1.3c2.7-3.2,5.1-6.4,7.2-9.7l1.7,1.1C1297.2,66.3,1294.7,69.6,1292,72.9z
				 M1241,104.9c-4.1,0.6-8.2,0.9-12.4,0.6l0.1-2.1c4,0.2,7.9,0,11.9-0.6L1241,104.9z M1305.1,52.1l-1.9-0.7
				c1.7-4.5,2.4-8.3,1.9-11.3l2.1-0.3C1307.6,43,1307,47.2,1305.1,52.1z M1216.4,103.6c-3.9-1-7.8-2.5-11.6-4.4l0.9-1.8
				c3.6,1.8,7.4,3.2,11.2,4.2L1216.4,103.6z M1264.3,66.9l-2,0.6c-1.2-4-1.5-8.2-0.9-12.5l2.1,0.3
				C1262.9,59.3,1263.1,63.3,1264.3,66.9z M1297.8,32.6c-3.1-0.9-7.1-1-11.6-0.3l-0.3-2.1c4.9-0.7,9.1-0.6,12.5,0.4L1297.8,32.6z
				 M1267.2,44.3l-1.8-1c2.3-4,5.1-7.1,8.5-9.3l1.1,1.7C1272,37.6,1269.3,40.6,1267.2,44.3z"/>
		</g>
		<g>
			<path class="st3" d="M1194.3,92.9c-1.7-1.2-3.3-2.5-5-3.8l1.3-1.6c1.6,1.3,3.2,2.5,4.9,3.7L1194.3,92.9z"/>
		</g>
	</g>
</g>
<g>
	<g>
		<path class="st20" d="M439.9,277.2c0,21.5-17.5,39-39,39s-39-17.5-39-39s17.5-39,39-39C422.5,238.2,439.9,255.7,439.9,277.2z"/>
	</g>
	<path class="st3" d="M395.8,288.6l-0.2-2c-0.5-4.2,0.9-8.8,4.8-13.5c3.5-4.2,5.5-7.2,5.5-10.7c0-4-2.5-6.7-7.4-6.7
		c-2.8,0-5.9,0.9-7.9,2.4l-1.9-4.9c2.6-2,7-3.2,11.2-3.2c9,0,13.1,5.6,13.1,11.6c0,5.2-3,9.1-6.7,13.5c-3.4,4.1-4.7,7.6-4.5,11.6
		l0.1,2L395.8,288.6L395.8,288.6z M398.7,304.5c-2.7,0-4.5-2.1-4.5-4.8c0-2.9,2-4.9,4.6-4.9c2.8,0,4.6,2,4.6,4.9
		C403.4,302.4,401.6,304.5,398.7,304.5L398.7,304.5z"/>
</g>
<g>
	<g>
		<path class="st20" d="M1464.7,161.2c0,21.5-17.5,39-39,39s-39-17.5-39-39s17.5-39,39-39C1447.2,122.2,1464.7,139.7,1464.7,161.2z"
			/>
	</g>
	<g class="st16">
		<path class="st3" d="M1425.6,185.8c-2.4,0-4.2-1.9-4.2-4.5c0-2.6,1.8-4.5,4.2-4.5c2.6,0,4.2,1.9,4.2,4.5
			C1430,183.9,1428.3,185.8,1425.6,185.8L1425.6,185.8z M1423.3,171.2l-1-34.6h6.9l-1,34.6H1423.3z"/>
	</g>
</g>
<g>
	<g>
		<path class="st21" d="M284.5,117.5c-1.6-4-2.7-5-7.7-6.3L219.1,97c-8.6-1.9-19.9,2.4-25.3,9.4l-34.3,48.6
			c-2.9,4.3-3.1,5.8-1.7,9.9l0,0l28.1,75.2c1,2.7,4.2,4.3,6.9,3.2l116.9-43.6c2.7-1,4.1-4.3,3.1-7L284.5,117.5L284.5,117.5z"/>
		<g>
			
				<rect x="164" y="99.2" transform="matrix(0.9368 -0.35 0.35 0.9368 -36.858 87.1758)" class="st22" width="117.5" height="92.8"/>
			<g>
				
					<rect x="158.6" y="120.2" transform="matrix(0.9368 -0.35 0.35 0.9368 -31.7119 72.5447)" class="st23" width="52.4" height="7.6"/>
				<rect x="211" y="100.6" transform="matrix(0.9368 -0.35 0.35 0.9368 -21.53 89.6385)" class="st23" width="52.5" height="7.6"/>
				
					<rect x="164.2" y="119.6" transform="matrix(0.9368 -0.35 0.35 0.9368 -33.0946 84.9453)" class="st23" width="108.5" height="29"/>
			</g>
		</g>
		<g>
			<path class="st24" d="M247.4,173.3c-5.3,7-16.5,11.3-25,9.3l-64.7-17.7l28.1,75.2c1,2.7,4.2,4.3,6.9,3.2l116.9-43.6
				c2.7-1,4.1-4.3,3.1-7l-28.2-75.2L247.4,173.3z"/>
			<polygon class="st13" points="309.5,199.5 252.5,165.7 249.3,170.5 			"/>
			<polygon class="st13" points="213.5,180.2 192.6,243.1 219.1,181.8 			"/>
			<path class="st25" d="M309.5,199.7l-68.2-32.9c-6.9-2.6-15.2,0.6-18.7,7.1l-29.9,69.5L309.5,199.7z"/>
		</g>
	</g>
</g>
<g>
	<g>
		<g>
			<path class="st26" d="M640,58.6c-68.3,0-123.8,55.5-123.8,123.8c0,68.3,55.5,123.8,123.8,123.8c68.3,0,123.8-55.5,123.8-123.8
				C763.8,114.1,708.3,58.6,640,58.6z"/>
			<path class="st26" d="M640,58.6c-68.3,0-123.8,55.5-123.8,123.8c0,68.3,55.5,123.8,123.8,123.8c68.3,0,123.8-55.5,123.8-123.8
				C763.8,114.1,708.3,58.6,640,58.6z"/>
			<path class="st13" d="M758.7,172.1c-2.3-23.6-11.9-45.1-26.6-62.1l-9.7,3.7l-4-4.8l8.7-4.3c-0.1-0.1-0.3-0.3-0.4-0.4l-16.7-3.6
				l-16.4,6.8l-5.9,8.2l-3.4,8.1l8.9,4l6.3-3.1l-0.3-6.2l-1.2-0.1l6.4-8.3l2.9,3l-4.8,4.2l1.6,3.7l9,0.6l-7.3,2.9l-5.5,4.2l-7.3,0.4
				l-2-1.1l-3.8-0.3l-5.1,9l-6.4,3.2l1.1,5.9l-8.2,1.6l3.7,10.4l16.8-12.3l7.2,10.4l3.6-5.1l-5.3-7.7l1.3-0.9l13,16.8l-0.7-7.1
				l5.8,7.3l4.1-4.8l-5.8,7.1l-10.5-1.7l-8.3,0.8l-5.6-6.1l-12.8,3.7l-11.9,10.6l-2.1,4.6l0,4.5l6.1,13.2l22.8,7.2l-2.7,1.4l5,6
				l0.2,13.8l6.8,18.5l3.1,2.5l11.4-4.5l12.6-21.4l-1.5-7.5l14.4-21l-3.8,0l-11.5-6.7l-5.7-12.9l1.5-3.1l2.8,2l8.1,15.7l5.3,1.9
				l11-8.4l-7.2-3.3l-2.4-1.9l-2.5-4.1l22.5,4.2L758.7,172.1z M580.9,84.5l-5.6,6.3l21.6,17.8l-6,6.5l-2.2,0.6l-11.5-2l1.3-7.5
				l-5.3,10l-14.1,6.2l16,11.7l2-15.8l14.2,2.4l1.6,1.2l11.5,13.7l-12.4,7l-12.2,16.1l-2.7,10.7l-1.3,0.5l-9.8-4.7l-1.4,0l-8.8,6.5
				l1.3,2.7l4.4,1.8l2.1-1.1l2.8-0.1l0.9,2.6l-0.4,3.2l3.7,1l1.2,6.2l17-2.3l10.8,2l1,6.3h7.2l1.1,6.3l18.6,8.8l-7.3,15.5
				l-26.1,27.8l-4.9,12.5l3.2,4.7l-2.8,3.5h-0.1l-7.1-8.4l-0.6-3.4l3.7-33.7l-4-8.8l-2.1-2.5l-5.2-13.2l0.3-3.8l2.6-7.2l-3.2-0.5
				l-6.6-3.9l-2-1.9l-28.6-15.3l-10.1-13.3l-1.4-4C533.7,123.5,554.1,98.8,580.9,84.5z M630.8,66.4c2.9-0.2,5.9-0.3,8.8-0.3
				c8,0,15.8,0.8,23.3,2.3c-0.4,4.1-0.8,7.9-1.3,8.4c0.8-0.2,1.9,2.4-5.2,3.8c0.8,0.7,3.3,1.6,2.3,2.3c-1.5,1-12.8,1.8-16,4.7
				c-9.7,8.8-11,5.3-10.6,5.2c0-0.1,1.6-7.3,2.1-7.1c2.2-0.8,3.2-2.6-0.7-2.2C635.3,82.2,616.6,76.1,630.8,66.4z M596.4,295.4
				c11.1-3.9,27.7-6.3,46.4-6.3c16.8,0,32,2,42.9,5.2c-14.2,6-29.7,9.3-46,9.3C624.4,303.6,609.8,300.7,596.4,295.4z"/>
			<path class="st9" d="M758.7,169.6c-2.3-23.6-11.9-45.1-26.6-62.1l-9.7,3.7l-4-4.8l8.7-4.3c-0.1-0.1-0.3-0.3-0.4-0.5L710,98
				l-16.4,6.8l-5.9,8.2l-3.4,8.1l8.9,4l6.3-3.1l-0.3-6.2l-1.2-0.1l6.4-8.3l2.9,3l-4.8,4.2l1.6,3.6l9,0.6l-7.3,2.9l-5.5,4.2l-7.3,0.4
				l-2-1.1l-3.8-0.3l-5.1,9l-6.4,3.2l1.1,5.9l-8.2,1.6l3.7,10.4l16.8-12.3l7.2,10.4l3.6-5.1l-5.3-7.7l1.3-0.9l13,16.8l-0.7-7.1
				l5.8,7.3l4.1-4.8l-5.8,7.1l-10.5-1.7l-8.3,0.8l-5.6-6.1l-12.8,3.7l-11.9,10.6l-2.1,4.6l0,4.5l6.1,13.2l22.8,7.2l-2.7,1.4l5,6
				l0.2,13.8l6.8,18.5l3.1,2.5l11.4-4.5l12.6-21.4l-1.5-7.5l14.4-21l-3.8,0l-11.5-6.7l-5.7-12.9l1.5-3.1l2.8,2l8.1,15.7l5.3,1.9
				l11-8.4l-7.2-3.3l-2.4-1.9l-2.5-4.1l22.5,4.2L758.7,169.6z M580.9,82.1l-5.6,6.3l21.6,17.8l-6,6.5l-2.2,0.6l-11.5-2l1.3-7.5
				l-5.3,10l-14.1,6.2l16,11.7l2-15.8l14.2,2.4l1.6,1.2l11.5,13.7l-12.4,7l-12.2,16.1l-2.7,10.8l-1.3,0.5l-9.8-4.7l-1.4,0l-8.8,6.5
				l1.3,2.7l4.4,1.8l2.1-1.1l2.8-0.1l0.9,2.6l-0.4,3.2l3.7,1l1.2,6.2l17-2.3l10.8,2l1,6.3h7.2l1.1,6.3l18.6,8.8l-7.3,15.5L594.2,250
				l-4.9,12.5l3.2,4.8l-2.8,3.6h-0.1l-7.1-8.5l-0.6-3.4l3.7-33.8l-4-8.8l-2.1-2.5l-5.2-13.2l0.3-3.8l2.6-7.2l-3.2-0.5l-6.6-3.9
				l-2-1.9L536.6,168l-10.1-13.3l-1.4-4C533.7,121,554.1,96.3,580.9,82.1z M630.8,64c2.9-0.2,5.9-0.3,8.8-0.3c8,0,15.8,0.8,23.3,2.3
				c-0.4,4.1-0.8,7.9-1.3,8.4c0.8-0.2,1.9,2.4-5.2,3.8c0.8,0.7,3.3,1.6,2.3,2.3c-1.5,1.1-12.8,1.8-16,4.7c-9.7,8.8-11,5.3-10.6,5.2
				c0-0.1,1.6-7.3,2.1-7.1c2.2-0.8,3.2-2.6-0.7-2.2C635.3,79.7,616.6,73.6,630.8,64z M596.4,292.9c11.1-3.9,27.7-6.3,46.4-6.3
				c16.8,0,32,2,42.9,5.2c-14.2,6-29.7,9.3-46,9.3C624.4,301.1,609.8,298.2,596.4,292.9z"/>
		</g>
		<path class="st27" d="M517.9,182.4c0,68.3,55.1,123.8,123.8,123.8V58.6C573,58.6,517.9,114.1,517.9,182.4z"/>
	</g>
	<path class="st28" d="M579,60.4c-0.6-0.9-1.2-1.7-2-2.4h0c-2.4-2.5-5.6-4.2-9.2-4.8h0c-0.3,0-0.5-0.1-0.7-0.1
		c-0.4,0-0.8-0.1-1.2-0.1c-9.3-0.4-17.1,6.8-17.5,16.1c-0.2,3.7,1.1,7,2.8,10c0.1,0.2,0.3,0.5,0.4,0.7c0,0.1,0.1,0.1,0.1,0.2
		c2.9,4.6,5.2,9.1,6.9,13c0.6,1.3,1,2.5,1.5,3.7c2.6,7,3.3,11.7,3.3,11.7s3.1-12.2,13-25.7c0.2-0.2,0.3-0.4,0.5-0.6
		c0.2-0.3,0.5-0.6,0.7-1c0.2-0.2,0.4-0.5,0.6-0.7c0,0,0,0,0,0c1.3-1.8,2.4-3.7,3.1-5.9c0.4-1.2,0.6-2.5,0.7-3.9
		C582,66.8,581,63.3,579,60.4z M557.4,70.1c0-0.2,0-0.4,0-0.6c0-0.3,0-0.6,0.1-0.9v0c0.3-2,1.4-3.8,3-4.9c0.4-0.3,0.8-0.6,1.3-0.8
		c1.1-0.5,2.3-0.8,3.6-0.7c4.2,0.2,7.5,3.8,7.3,8c-0.2,4.2-3.8,7.5-8,7.3C560.7,77.3,557.5,74,557.4,70.1z"/>
</g>
<g>
	<g>
		<g>
			<path class="st29" d="M1208,346.1c0-0.4-0.1-0.8-0.4-1.3c-15.2-25.3-30.4-50.7-45.6-76c-2.4-3.9-12-7-21.7-7
				c-120.2,0-240.4,0-360.6,0c-9.6,0-19.3,3.1-21.7,7c-15.2,25.3-30.4,50.7-45.6,76c-0.3,0.4-0.4,0.8-0.4,1.2c-0.1,1.2,0,7.9,0,8.3
				c0.1,3.2,7.6,5.6,18.5,5.6c153,0,306,0,459,0c10.8,0,18.3-2.4,18.5-5.6C1208,354,1208,347.3,1208,346.1z"/>
			<g>
				<path class="st30" d="M1207.6,344.8c2.4,3.9-5.7,7-18.1,7c-153,0-306,0-459,0c-12.3,0-20.4-3.1-18.1-7
					c15.2-25.3,30.4-50.7,45.6-76c2.4-3.9,12-7,21.7-7c120.2,0,240.4,0,360.6,0c9.6,0,19.3,3.1,21.7,7
					C1177.2,294.2,1192.4,319.5,1207.6,344.8z"/>
			</g>
			<path class="st29" d="M1180.1,321.3c-146.6,0-293.1,0-439.7,0c10.4-18.3,20.7-36.7,31-55c125.9,0,251.8,0,377.6,0
				C1159.3,284.7,1169.7,303,1180.1,321.3z"/>
			<path class="st29" d="M1019.3,345.9c0.2,1.6-3.6,2.8-8.6,2.8c-33.8,0-67.6,0-101.4,0c-5,0-8.8-1.3-8.6-2.8
				c0.9-6.2,1.8-12.3,2.7-18.5c0.2-1.6,4.2-2.8,8.9-2.8c31.9,0,63.7,0,95.6,0c4.7,0,8.6,1.3,8.9,2.8
				C1017.5,333.6,1018.4,339.7,1019.3,345.9z"/>
			<path class="st31" d="M806.1,261.8c-0.5,1.1-1.1,2.3-1.6,3.4c103.6,0,207.3,0,310.9,0c-0.5-1.1-1.1-2.3-1.6-3.4
				C1011.3,261.8,908.7,261.8,806.1,261.8z"/>
			<g>
				<g>
					<path class="st32" d="M793.8,270.3c0,0.6,1.1,1,2.6,1c4.5,0,9,0,13.4,0c1.8,0,3.4-0.5,3.7-1.2c0-0.1,0.1-0.1,0.1-0.2
						c0-0.1,0-0.1,0-0.2c0-0.2,0-1.4,0-1.5c0-0.6-1.1-1-2.6-1c-4.4,0-8.9,0-13.3,0c-1.7,0-3.4,0.5-3.7,1.2c0,0.1-0.1,0.1-0.1,0.2
						c0,0.1-0.1,0.2-0.1,0.2C793.8,269.1,793.8,270.3,793.8,270.3z"/>
					<path class="st32" d="M1106.8,269.9c0,0.1,0.1,0.2,0.1,0.2c0.3,0.7,1.9,1.2,3.7,1.2c4.5,0,9,0,13.4,0c1.5,0,2.6-0.4,2.6-1
						c0-0.1,0-1.3,0-1.5c0-0.1,0-0.1,0-0.2c0-0.1-0.1-0.1-0.1-0.2c-0.3-0.7-2-1.2-3.7-1.2c-4.4,0-8.9,0-13.3,0c-1.5,0-2.6,0.4-2.6,1
						c0,0.1,0,1.2,0,1.5C1106.8,269.8,1106.8,269.8,1106.8,269.9z"/>
					<path class="st32" d="M1082.8,269.9c0,0.1,0.1,0.2,0.1,0.2c0.3,0.7,1.8,1.2,3.6,1.2c4.5,0,9,0,13.5,0c1.5,0,2.6-0.4,2.7-1
						c0-0.1,0-1.3,0-1.5c0-0.1,0-0.1,0-0.2c0-0.1,0-0.1-0.1-0.2c-0.3-0.7-1.9-1.2-3.6-1.2c-4.4,0-8.9,0-13.3,0
						c-1.6,0-2.7,0.5-2.7,1.1c0,0,0,1.2,0,1.5C1082.7,269.8,1082.8,269.8,1082.8,269.9z"/>
					<path class="st32" d="M1058.7,269.9c0,0.1,0,0.2,0.1,0.2c0.2,0.7,1.8,1.2,3.5,1.2c4.5,0,9,0,13.5,0c1.6,0,2.7-0.4,2.7-1
						c0-0.1,0-1.3,0-1.5c0,0,0-0.1,0-0.2c0-0.1,0-0.1-0.1-0.2c-0.2-0.7-1.8-1.2-3.5-1.2c-4.4,0-8.9,0-13.4,0c-1.6,0-2.7,0.5-2.8,1
						c0,0.1,0,1.3,0,1.5C1058.7,269.8,1058.7,269.8,1058.7,269.9z"/>
					<path class="st32" d="M1034.6,269.9c0,0.1,0,0.2,0.1,0.2c0.1,0.7,1.7,1.2,3.4,1.2c4.5,0,9,0,13.4,0c1.6,0,2.8-0.5,2.8-1.1
						c0,0,0-1.2,0-1.5c0,0,0-0.1,0-0.1c0-0.1,0-0.1-0.1-0.2c-0.2-0.7-1.7-1.2-3.5-1.2c-4.4,0-8.9,0-13.3,0c-1.7,0-3,0.5-2.8,1.2
						C1034.6,268.5,1034.6,269.6,1034.6,269.9z"/>
					<path class="st32" d="M1010.6,269.9c0,0.1,0,0.2,0,0.2c0.1,0.7,1.6,1.2,3.3,1.2c4.5,0,9,0,13.4,0c1.7,0,3-0.5,2.9-1.2
						c0-0.1,0.1-1.2,0-1.5c0-0.1,0-0.1,0-0.2c-0.1-0.7-1.6-1.2-3.4-1.2c-4.4,0-8.9,0-13.3,0c-1.7,0-3,0.5-2.9,1.2
						C1010.6,268.5,1010.5,269.6,1010.6,269.9z"/>
					<path class="st32" d="M986.5,270.1c0,0.7,1.5,1.2,3.2,1.2c4.5,0,9,0,13.5,0c1.7,0,3.1-0.5,3-1.2c0-0.1,0-1.2,0-1.5
						c0-0.1,0-0.1,0-0.2c-0.1-0.7-1.6-1.2-3.3-1.2c-4.4,0-8.9,0-13.4,0c-1.7,0-3.1,0.5-3,1.2C986.5,268.5,986.5,270,986.5,270.1z"/>
					<path class="st32" d="M962.4,270.1c0,0.7,1.4,1.2,3.2,1.2c4.5,0,9,0,13.5,0c1.7,0,3.1-0.5,3-1.2c0-0.1,0-1.6,0-1.7
						c0-0.7-1.5-1.2-3.2-1.2c-4.4,0-8.9,0-13.3,0c-1.7,0-3.1,0.5-3.1,1.2C962.4,268.5,962.4,270,962.4,270.1z"/>
					<path class="st32" d="M938.4,270.1c0,0.7,1.3,1.2,3.1,1.2c4.5,0,8.9,0,13.4,0c1.7,0,3.1-0.5,3.1-1.2c0-0.1,0-1.6,0-1.7
						c0-0.7-1.4-1.2-3.1-1.2c-4.4,0-8.9,0-13.3,0c-1.7,0-3.1,0.5-3.2,1.2c0,0.1,0,0.1,0,0.2C938.3,268.9,938.4,270,938.4,270.1z"/>
					<path class="st32" d="M914.3,270.1c-0.1,0.7,1.2,1.2,3,1.2c4.5,0,9,0,13.5,0c1.7,0,3.2-0.5,3.2-1.2c0-0.1,0-0.1,0-0.2
						c0-0.2,0-1.4,0-1.5c0-0.7-1.3-1.2-3-1.2c-4.4,0-8.9,0-13.3,0c-1.7,0-3.2,0.5-3.3,1.2c0,0.1,0,0.1,0,0.2
						C914.3,268.9,914.3,270,914.3,270.1z"/>
					<path class="st32" d="M890.2,270.2c0,0.6,1.2,1.1,2.9,1.1c4.5,0,9,0,13.4,0c1.7,0,3.2-0.5,3.3-1.2c0-0.1,0-0.1,0-0.2
						c0-0.3,0-1.4,0-1.5c0.1-0.7-1.2-1.2-2.9-1.2c-4.4,0-8.9,0-13.3,0c-1.7,0-3.2,0.5-3.3,1.2c0,0.1,0,0.1,0,0.2c0,0,0,0.1,0,0.1
						C890.2,269,890.2,270.2,890.2,270.2z"/>
					<path class="st32" d="M866.1,270.2c0,0.6,1.2,1.1,2.8,1.1c4.5,0,9,0,13.4,0c1.8,0,3.3-0.5,3.4-1.2c0-0.1,0-0.1,0-0.2
						c0.1-0.3,0-1.4,0-1.5c0.1-0.7-1.1-1.2-2.9-1.2c-4.4,0-8.9,0-13.3,0c-1.7,0-3.2,0.5-3.4,1.2c0,0.1,0,0.1-0.1,0.2
						c0,0,0,0.1,0,0.1C866.1,269,866.1,270.2,866.1,270.2z"/>
					<path class="st32" d="M842,270.3c0,0.6,1.2,1,2.8,1c4.5,0,9,0,13.5,0c1.7,0,3.3-0.5,3.5-1.2c0-0.1,0-0.1,0.1-0.2
						c0,0,0-0.1,0-0.1c0-0.2,0-1.5,0-1.5c0-0.6-1.2-1.1-2.8-1.1c-4.4,0-8.9,0-13.3,0c-1.7,0-3.3,0.5-3.5,1.2c0,0.1,0,0.1-0.1,0.2
						c0,0,0,0.1,0,0.1C842,269,842,270.2,842,270.3z"/>
					<path class="st32" d="M817.9,270.3c0,0.6,1.1,1,2.7,1c4.5,0,9,0,13.4,0c1.7,0,3.3-0.5,3.6-1.2c0-0.1,0-0.1,0.1-0.2
						c0-0.1,0-0.1,0-0.2c0-0.2,0-1.4,0-1.4c0.1-0.6-1.1-1.1-2.7-1.1c-4.4,0-8.9,0-13.3,0c-1.7,0-3.3,0.5-3.6,1.2
						c0,0.1-0.1,0.1-0.1,0.2c0,0.1,0,0.1,0,0.2C817.9,269.1,817.9,270.2,817.9,270.3z"/>
					<path class="st32" d="M792,280.6c4.6,0,9.2,0,13.8,0c1.8,0,3.5-0.5,3.7-1.2c0.8-1.7,1.5-3.5,2.3-5.2c0,0,0-0.1,0-0.1
						c0-0.2,0-1.5,0-1.6c0-0.6-1.1-1-2.7-1c-4.5,0-9,0-13.5,0c-1.7,0-3.4,0.5-3.7,1.2c-0.9,1.7-1.7,3.5-2.6,5.2c0,0.1-0.1,0.2,0,0.3
						c0,0.2,0,1.4,0,1.5C789.3,280.2,790.4,280.6,792,280.6z"/>
					<path class="st32" d="M1027,274.2c0.4,1.7,0.7,3.5,1,5.2c0.1,0.7,1.7,1.2,3.5,1.2c4.6,0,9.2,0,13.8,0c1.7,0,2.9-0.5,2.9-1.1
						c0,0,0-1.3,0-1.5c0,0,0-0.1,0-0.1c-0.4-1.7-0.9-3.5-1.3-5.2c-0.2-0.7-1.7-1.2-3.5-1.2c-4.5,0-9,0-13.5,0
						c-1.6,0-2.9,0.5-2.9,1.1c0,0,0,1.3,0,1.5C1026.9,274.1,1027,274.1,1027,274.2z"/>
					<path class="st32" d="M1050.5,274.2c0.4,1.7,0.9,3.5,1.4,5.2c0.2,0.7,1.8,1.2,3.6,1.2c4.6,0,9.2,0,13.8,0
						c1.6,0,2.8-0.5,2.8-1.1c0,0,0-1.3,0-1.5c0-0.1,0-0.1,0-0.2c-0.6-1.7-1.1-3.5-1.7-5.2c-0.2-0.7-1.8-1.2-3.5-1.2
						c-4.5,0-9,0-13.5,0c-1.6,0-2.8,0.4-2.9,1C1050.4,272.6,1050.5,273.9,1050.5,274.2C1050.5,274.1,1050.5,274.1,1050.5,274.2z"/>
					<path class="st32" d="M1095.9,278.1c0-0.1,0-0.1,0-0.2c-0.7-1.7-1.4-3.5-2-5.2c-0.3-0.7-1.9-1.2-3.6-1.2c-4.5,0-9,0-13.5,0
						c-1.6,0-2.7,0.4-2.8,1l0,1.5c0,0,0,0.1,0,0.2c0.6,1.7,1.2,3.5,1.7,5.2c0.2,0.7,1.8,1.2,3.6,1.2c4.6,0,9.2,0,13.8,0
						c1.6,0,2.8-0.5,2.8-1.1C1095.9,279.5,1095.9,278.3,1095.9,278.1z"/>
					<path class="st32" d="M807.8,300.3c0-0.6-1.3-1-2.9-1c-7.6,0-15.1,0-22.7,0c-1.9,0-3.7,0.5-4,1.2c-0.8,1.7-1.7,3.5-2.6,5.2
						c0,0.1,0,0.1,0,0.2v1.5c0,0.6,1.2,1,2.9,1c7.7,0,15.4,0,23.1,0c1.9,0,3.7-0.5,4-1.2c0.7-1.7,1.4-3.5,2.1-5.2c0-0.1,0-0.1,0-0.2
						V300.3z"/>
					<path class="st32" d="M1037.7,300.5c-0.1-0.7-1.8-1.2-3.7-1.2c-4.9,0-9.7,0-14.6,0c-1.9,0-3.3,0.5-3.2,1.2v1.5
						c0.3,1.7,0.5,3.5,0.8,5.2c0.1,0.7,1.7,1.2,3.7,1.2c5,0,10,0,14.9,0c1.9,0,3.4-0.5,3.2-1.2v-1.5
						C1038.5,304,1038.1,302.2,1037.7,300.5z"/>
					<path class="st32" d="M1064.6,305.9c0,0,0-0.1,0-0.1c-0.5-1.7-1-3.5-1.5-5.2c-0.2-0.7-1.9-1.2-3.7-1.2c-4.9,0-9.7,0-14.6,0
						c-1.8,0-3.1,0.5-3.1,1.1c0,0,0,1.3,0,1.5c0,0.1,0,0.1,0,0.1c0.4,1.7,0.8,3.5,1.2,5.2c0.2,0.7,1.8,1.2,3.7,1.2c5,0,10,0,14.9,0
						c1.8,0,3.1-0.5,3.1-1.1V305.9z"/>
					<path class="st32" d="M1090.4,305.9c0-0.1,0-0.1,0-0.2c-0.6-1.7-1.2-3.5-1.8-5.2c-0.2-0.7-2-1.2-3.8-1.2c-4.9,0-9.7,0-14.6,0
						c-1.7,0-3,0.5-3.1,1.1c0,0,0,1.3,0,1.5c0,0,0,0.1,0,0.1c0.5,1.7,1,3.5,1.5,5.2c0.2,0.7,1.9,1.2,3.8,1.2c5,0,10,0,14.9,0
						c1.8,0,3.1-0.5,3.1-1.1V305.9z"/>
					<path class="st32" d="M1144.9,306c0-0.1,0-0.1,0-0.2c-0.9-1.7-1.7-3.5-2.6-5.2c-0.3-0.7-2.1-1.2-4-1.2c-14.3,0-28.5,0-42.8,0
						c-1.7,0-3,0.5-3,1.1l0,1.4c0,0.1,0,0.1,0,0.2c0.6,1.7,1.2,3.5,1.9,5.2c0.2,0.7,2,1.2,3.9,1.2c14.6,0,29.1,0,43.7,0
						c1.7,0,2.9-0.4,2.9-1C1144.9,307.3,1144.9,306.1,1144.9,306z"/>
					<path class="st32" d="M1111.2,287.4c0-0.1,0-0.1,0-0.2c-0.7-1.7-1.5-3.5-2.2-5.2c-0.3-0.7-2-1.2-3.7-1.2c-4.6,0-9.2,0-13.9,0
						c-1.6,0-2.7,0.4-2.8,1c0,0.1,0,1.4,0,1.5c0,0.1,0,0.1,0,0.2c0.6,1.7,1.3,3.5,1.9,5.2c0.2,0.7,1.9,1.2,3.7,1.2
						c4.7,0,9.5,0,14.2,0c1.6,0,2.8-0.4,2.8-1C1111.2,288.8,1111.2,287.6,1111.2,287.4z"/>
					<path class="st32" d="M1086.7,287.4c0-0.1,0-0.1,0-0.2c-0.6-1.7-1.2-3.5-1.9-5.2c-0.3-0.7-1.9-1.2-3.7-1.2c-4.6,0-9.2,0-13.9,0
						c-1.6,0-2.9,0.4-2.9,1c0,0.1,0,1.3,0,1.5c0,0.1,0,0.1,0,0.2c0.5,1.7,1,3.5,1.6,5.2c0.2,0.7,1.9,1.2,3.7,1.2c4.7,0,9.5,0,14.2,0
						c1.6,0,2.8-0.4,2.9-1C1086.7,288.8,1086.7,287.5,1086.7,287.4z"/>
					<path class="st32" d="M1062.2,287.3c0,0,0-0.1,0-0.1c-0.5-1.7-1-3.5-1.5-5.2c-0.2-0.7-1.8-1.2-3.6-1.2c-4.6,0-9.2,0-13.9,0
						c-1.8,0-3.1,0.5-3,1.2v1.3c0,0,0,0.1,0,0.1c0.4,1.7,0.8,3.5,1.2,5.2c0.2,0.7,1.7,1.2,3.6,1.2c4.7,0,9.5,0,14.2,0
						c1.7,0,3-0.5,3-1.1C1062.2,288.7,1062.2,287.5,1062.2,287.3z"/>
					<path class="st32" d="M1037.7,287.2c-0.4-1.7-0.8-3.5-1.1-5.2c-0.1-0.7-1.7-1.2-3.5-1.2c-4.6,0-9.2,0-13.9,0
						c-1.8,0-3.2,0.5-3,1.2v1.5c0.3,1.7,0.6,3.5,0.8,5.2c0.1,0.7,1.7,1.2,3.5,1.2c4.7,0,9.4,0,14.2,0c1.7,0,3-0.5,3-1.1
						c0,0,0-1.3,0-1.5C1037.7,287.3,1037.7,287.2,1037.7,287.2z"/>
					<path class="st32" d="M1012.4,282c-0.1-0.7-1.7-1.2-3.4-1.2c-4.6,0-9.3,0-13.9,0c-1.8,0-3.2,0.5-3.1,1.2v1.5
						c0.2,1.7,0.3,3.5,0.5,5.2c0,0.7,1.6,1.2,3.4,1.2c4.7,0,9.5,0,14.2,0c1.8,0,3.2-0.5,3.1-1.2v-1.5
						C1013,285.4,1012.7,283.7,1012.4,282z"/>
					<path class="st32" d="M988.3,282c0-0.7-1.5-1.2-3.3-1.2c-4.6,0-9.2,0-13.9,0c-1.8,0-3.2,0.5-3.2,1.2c0,0.5,0,1.5,0,1.5
						c0,1.7,0.1,3.5,0.1,5.2c0,0.7,1.5,1.2,3.3,1.2c4.7,0,9.5,0,14.2,0c1.8,0,3.3-0.5,3.2-1.2v-1.5
						C988.6,285.4,988.4,283.7,988.3,282z"/>
					<path class="st32" d="M964.1,282c0-0.7-1.5-1.2-3.2-1.2c-4.6,0-9.3,0-13.9,0c-1.8,0-3.3,0.5-3.3,1.2c-0.1,1.7-0.2,3.5-0.2,5.2
						v1.5c0,0.7,1.4,1.2,3.2,1.2c4.7,0,9.5,0,14.2,0c1.8,0,3.3-0.5,3.3-1.2v-1.5C964.2,285.4,964.2,283.7,964.1,282z"/>
					<path class="st32" d="M936.8,280.7c-4.6,0-9.2,0-13.9,0c-1.8,0-3.3,0.5-3.4,1.2c-0.2,1.7-0.4,3.5-0.6,5.2v1.5
						c-0.1,0.7,1.3,1.2,3.2,1.2c4.7,0,9.4,0,14.2,0c1.8,0,3.3-0.5,3.4-1.2c0.1-1.7,0.2-3.5,0.3-5.2V282
						C940,281.3,938.6,280.7,936.8,280.7z"/>
					<path class="st32" d="M912.8,280.7c-4.6,0-9.3,0-13.9,0c-1.8,0-3.3,0.5-3.5,1.2c-0.3,1.7-0.6,3.5-1,5.2c0,0.2,0,1.5,0,1.6
						c0,0.6,1.3,1.1,3.1,1.1c4.7,0,9.5,0,14.2,0c1.8,0,3.4-0.5,3.5-1.2c0.2-1.7,0.4-3.5,0.7-5.2V282
						C916,281.3,914.5,280.7,912.8,280.7z"/>
					<path class="st32" d="M888.7,280.7c-4.6,0-9.3,0-13.9,0c-1.8,0-3.4,0.5-3.6,1.2c-0.4,1.7-0.9,3.5-1.3,5.2c0,0,0,0.1,0,0.1
						c0,0.1,0,1.4,0,1.5c0,0.6,1.3,1.1,3,1.1c4.7,0,9.5,0,14.2,0c1.8,0,3.4-0.5,3.5-1.2c0.3-1.7,0.7-3.5,1-5.2V282
						C891.8,281.3,890.5,280.7,888.7,280.7z"/>
					<path class="st32" d="M848.4,289.9c4.7,0,9.5,0,14.2,0c1.8,0,3.5-0.5,3.6-1.2c0.5-1.7,0.9-3.5,1.4-5.2c0-0.1,0-0.1,0-0.2
						c0-0.2,0-1.4,0-1.5c0-0.6-1.3-1.1-2.9-1.1c-4.6,0-9.3,0-13.9,0c-1.8,0-3.4,0.5-3.6,1.2c-0.6,1.7-1.1,3.5-1.7,5.2
						c0,0,0,0.1,0,0.1c0,0.2,0,1.4,0,1.5C845.4,289.4,846.7,289.9,848.4,289.9z"/>
					<path class="st32" d="M823.8,289.9c4.7,0,9.5,0,14.2,0c1.8,0,3.5-0.5,3.7-1.2c0.6-1.7,1.2-3.5,1.7-5.2c0-0.1,0-0.1,0-0.2
						c0-0.2,0-1.4,0-1.4c0-0.6-1.2-1.1-2.8-1.1c-4.6,0-9.3,0-13.9,0c-1.8,0-3.5,0.5-3.7,1.2c-0.7,1.7-1.4,3.5-2,5.2c0,0,0,0.1,0,0.2
						c0,0.2,0,1.4,0,1.4C820.9,289.4,822.1,289.9,823.8,289.9z"/>
					<path class="st32" d="M787.5,289.9c8.6,0,17.3,0,25.9,0c1.8,0,3.5-0.5,3.8-1.2c0.7-1.7,1.4-3.5,2.1-5.2c0-0.1,0-0.1,0-0.2
						c0-0.2,0-1.4,0-1.5c0-0.6-1.2-1-2.8-1c-8.5,0-16.9,0-25.4,0c-1.8,0-3.5,0.5-3.8,1.2c-0.9,1.7-1.7,3.5-2.6,5.2
						c0,0.1,0,0.1,0,0.2c0,0.2,0,1.4,0,1.5C784.7,289.4,785.8,289.9,787.5,289.9z"/>
					<path class="st32" d="M1149.5,315.3c0-0.1,0-0.2-0.1-0.3c-0.1-0.3-0.3-0.6-0.4-0.9c-0.3-0.7-2.2-1.2-4.1-1.2
						c-5.1,0-10.1,0-15.2,0c-1.8,0-3.1,0.5-3,1.1v1.4c0,0,0,0.1,0,0.2c0.1,0.3,0.3,0.6,0.4,0.9c0.3,0.7,2.1,1.2,4.1,1.2
						c5.1,0,10.2,0,15.3,0c1.7,0,2.9-0.4,3-1V315.3z"/>
					<path class="st32" d="M996.9,291.2c-0.1-0.7-1.6-1.2-3.5-1.2c-4.8,0-9.5,0-14.2,0c-1.8,0-3.3,0.5-3.3,1.2v1.5
						c0.1,1.7,0.1,3.5,0.2,5.2c0,0.7,1.6,1.2,3.5,1.2c4.8,0,9.7,0,14.5,0c1.9,0,3.3-0.5,3.3-1.2v-1.5
						C997.3,294.7,997.1,293,996.9,291.2z"/>
					<path class="st32" d="M972.3,297.9c0-0.4,0-1.4,0-1.5c-0.1-1.7-0.1-3.5-0.2-5.2c0-0.7-1.5-1.2-3.4-1.2c-4.7,0-9.5,0-14.2,0
						c-1.8,0-3.3,0.5-3.3,1.2c0,1.7-0.1,3.5-0.1,5.2c0,0,0,1,0,1.5c0,0.7,1.5,1.2,3.3,1.2c4.8,0,9.7,0,14.5,0
						C970.8,299.1,972.3,298.6,972.3,297.9z"/>
					<path class="st32" d="M947.3,291.2c0-0.7-1.4-1.2-3.3-1.2c-4.8,0-9.5,0-14.3,0c-1.8,0-3.4,0.5-3.4,1.2
						c-0.2,1.7-0.3,3.5-0.5,5.2v1.5c-0.1,0.7,1.4,1.2,3.3,1.2c4.9,0,9.7,0,14.6,0c1.9,0,3.4-0.5,3.4-1.2c0.1-1.7,0.1-3.5,0.2-5.2
						C947.3,292.6,947.3,291.7,947.3,291.2z"/>
					<path class="st32" d="M919.4,290c-4.8,0-9.5,0-14.3,0c-1.8,0-3.4,0.5-3.5,1.2c-0.3,1.7-0.6,3.5-0.8,5.2v1.5
						c-0.1,0.7,1.3,1.2,3.2,1.2c4.8,0,9.7,0,14.5,0c1.9,0,3.4-0.5,3.5-1.2c0.2-1.7,0.4-3.5,0.5-5.2v-1.5
						C922.6,290.5,921.2,290,919.4,290z"/>
					<path class="st32" d="M894.7,290c-4.8,0-9.5,0-14.3,0c-1.8,0-3.4,0.5-3.6,1.2c-0.4,1.7-0.8,3.5-1.2,5.2c0,0,0,0.1,0,0.1
						c0,0.1,0,1.4,0,1.5c0,0.6,1.4,1.1,3.1,1.1c4.8,0,9.7,0,14.6,0c1.8,0,3.5-0.5,3.6-1.2c0.3-1.7,0.6-3.5,0.9-5.2v-1.5
						C897.9,290.5,896.5,290,894.7,290z"/>
					<path class="st32" d="M846.6,297.9c0.5-1.7,1.1-3.5,1.6-5.2c0,0,0-0.1,0-0.2c0-0.2,0-1.4,0-1.4c0-0.6-1.2-1.1-3-1.1
						c-4.8,0-9.5,0-14.3,0c-1.8,0-3.5,0.5-3.7,1.2c-0.6,1.7-1.3,3.5-1.9,5.2c0,0,0,0.1,0,0.2c0,0.2,0,1.4,0,1.5c0,0.6,1.2,1,2.9,1
						c4.9,0,9.7,0,14.6,0C844.7,299.1,846.4,298.6,846.6,297.9z"/>
					<path class="st32" d="M783,299.1c11.5,0,23.1,0,34.6,0c1.9,0,3.6-0.5,3.8-1.2c0.7-1.7,1.3-3.5,2-5.2c0-0.1,0-0.1,0-0.2
						c0-0.2,0-1.4,0-1.5c0-0.6-1.2-1-2.9-1c-11.3,0-22.6,0-33.9,0c-1.8,0-3.6,0.5-3.9,1.2c-0.9,1.7-1.7,3.5-2.6,5.2
						c0,0.1,0,0.1,0,0.2c0,0.2,0,1.4,0,1.5C780.1,298.7,781.3,299.1,783,299.1z"/>
					<path class="st32" d="M813.2,279.6c0,0.6,1.1,1,2.7,1c4.6,0,9.2,0,13.8,0c1.8,0,3.4-0.5,3.7-1.2c0.6-1.7,1.3-3.5,1.9-5.2
						c0,0,0-0.1,0-0.2c0-0.2,0-1.4,0-1.5c0-0.6-1.1-1-2.8-1c-4.5,0-9,0-13.5,0c-1.7,0-3.4,0.5-3.6,1.2c-0.7,1.7-1.5,3.5-2.2,5.2
						c0,0.1,0,0.1,0,0.2C813.2,278.3,813.2,279.5,813.2,279.6z"/>
					<path class="st32" d="M837,279.6c0,0.6,1.2,1,2.8,1c4.6,0,9.2,0,13.8,0c1.8,0,3.4-0.5,3.6-1.2c0.5-1.7,1-3.5,1.6-5.2
						c0,0,0-0.1,0-0.1c0-0.2,0-1.4,0-1.5c0-0.6-1.2-1.1-2.8-1.1c-4.5,0-9,0-13.5,0c-1.7,0-3.3,0.5-3.6,1.2c-0.6,1.7-1.2,3.5-1.9,5.2
						c0,0.1,0,0.1,0,0.2C837,278.3,837,279.5,837,279.6z"/>
					<path class="st32" d="M860.9,279.5c0,0.6,1.3,1.1,2.9,1.1c4.6,0,9.2,0,13.8,0c1.8,0,3.3-0.5,3.5-1.2c0.4-1.7,0.8-3.5,1.2-5.2
						c0,0,0-0.1,0-0.1c0-0.1,0-1.4,0-1.5c0-0.6-1.2-1.1-2.9-1.1c-4.5,0-9,0-13.5,0c-1.7,0-3.3,0.5-3.5,1.2c-0.5,1.7-1,3.5-1.5,5.2
						c0,0,0,0.1,0,0.1C860.9,278.2,860.9,279.5,860.9,279.5z"/>
					<path class="st32" d="M902.8,271.5c-4.5,0-9,0-13.5,0c-1.7,0-3.3,0.5-3.4,1.2c-0.4,1.7-0.8,3.5-1.1,5.2c0,0,0,0.1,0,0.1
						c0,0.1,0,1.4,0,1.4c0,0.6,1.3,1.1,3,1.1c4.6,0,9.2,0,13.8,0c1.8,0,3.3-0.5,3.4-1.2c0.3-1.7,0.6-3.5,0.8-5.2v-1.5
						C905.9,272,904.6,271.5,902.8,271.5z"/>
					<path class="st32" d="M926.3,271.5c-4.5,0-9,0-13.5,0c-1.7,0-3.2,0.5-3.3,1.2c-0.3,1.7-0.5,3.5-0.8,5.2v1.5
						c-0.1,0.7,1.3,1.2,3,1.2c4.6,0,9.2,0,13.8,0c1.8,0,3.3-0.5,3.3-1.2c0.2-1.7,0.3-3.5,0.5-5.2v-1.5
						C929.4,272,928,271.5,926.3,271.5z"/>
					<path class="st32" d="M952.8,272.7c0-0.7-1.4-1.2-3.1-1.2c-4.5,0-9,0-13.5,0c-1.7,0-3.2,0.5-3.2,1.2c-0.1,1.7-0.3,3.5-0.4,5.2
						v1.5c0,0.7,1.3,1.2,3.1,1.2c4.6,0,9.2,0,13.8,0c1.8,0,3.2-0.5,3.2-1.2c0-1.7,0.1-3.5,0.1-5.2
						C952.8,274.1,952.8,273.2,952.8,272.7z"/>
					<path class="st32" d="M976.3,272.7c0-0.7-1.5-1.2-3.2-1.2c-4.5,0-9,0-13.5,0c-1.7,0-3.2,0.5-3.2,1.2c0,1.7,0,3.5,0,5.2
						c0,0,0,1,0,1.5c0,0.7,1.4,1.2,3.2,1.2c4.6,0,9.2,0,13.8,0c1.8,0,3.2-0.5,3.2-1.2v-1.5C976.5,276.2,976.4,274.4,976.3,272.7z"/>
					<path class="st32" d="M999.8,272.7c-0.1-0.7-1.6-1.2-3.3-1.2c-4.5,0-9,0-13.5,0c-1.7,0-3.1,0.5-3.1,1.2v1.5
						c0.1,1.7,0.2,3.5,0.3,5.2c0,0.7,1.5,1.2,3.3,1.2c4.6,0,9.2,0,13.8,0c1.8,0,3.2-0.5,3.1-1.2v-1.5
						C1000.2,276.2,1000,274.4,999.8,272.7z"/>
					<path class="st32" d="M1024.3,278c0,0,0-0.1,0-0.1c-0.3-1.7-0.7-3.5-1-5.2c-0.1-0.7-1.6-1.2-3.4-1.2c-4.5,0-9,0-13.5,0
						c-1.7,0-3.1,0.5-3,1.2v1.5c0.2,1.7,0.4,3.5,0.7,5.2c0.1,0.7,1.6,1.2,3.4,1.2c4.6,0,9.2,0,13.8,0c1.7,0,3-0.5,3-1.1
						C1024.3,279.5,1024.3,278.2,1024.3,278z"/>
					<path class="st32" d="M1100.1,271.5c-1.5,0-2.6,0.4-2.7,1c0,0.1,0,1.3,0,1.5c0,0.1,0,0.1,0,0.2c0.7,1.7,1.4,3.5,2.1,5.2
						c0.3,0.7,1.9,1.2,3.7,1.2c8.4,0,16.8,0,25.2,0c1.6,0,2.6-0.4,2.7-1c0-0.1,0-1.3,0-1.5c0-0.1,0-0.1-0.1-0.2
						c-0.8-1.7-1.7-3.5-2.6-5.2c-0.3-0.7-2-1.2-3.7-1.2C1116.6,271.5,1108.4,271.5,1100.1,271.5z"/>
					<path class="st32" d="M834.4,300.3c-0.1-0.6-1.3-1-3-1c-4.9,0-9.7,0-14.6,0c-1.9,0-3.6,0.5-3.9,1.2c-0.7,1.7-1.4,3.5-2.1,5.2
						c0,0,0,0.1,0,0.2v1.5c0,0.6,1.3,1,3,1c5,0,10,0,14.9,0c1.9,0,3.7-0.5,3.9-1.2c0.6-1.7,1.2-3.5,1.8-5.2c0,0,0-0.1,0-0.1V300.3z"
						/>
					<path class="st32" d="M856.7,299.3c-4.9,0-9.7,0-14.6,0c-1.9,0-3.6,0.5-3.8,1.2c-0.6,1.7-1.2,3.5-1.7,5.2c0,0,0,0.1,0,0.1v1.5
						c0,0.6,1.3,1.1,3.1,1.1c5,0,9.9,0,14.9,0c2,0,3.7-0.5,3.8-1.2c0.5-1.7,0.9-3.5,1.4-5.2c0,0,0-0.1,0-0.1l0-1.5
						C859.8,299.8,858.5,299.3,856.7,299.3z"/>
					<path class="st32" d="M885.2,300.4c0-0.6-1.4-1.1-3.2-1.1c-4.9,0-9.7,0-14.6,0c-1.9,0-3.5,0.5-3.7,1.2
						c-0.4,1.7-0.9,3.5-1.4,5.2c0,0,0,0.1,0,0.1v1.5c0,0.6,1.4,1.1,3.2,1.1c5,0,9.9,0,14.9,0c1.9,0,3.6-0.5,3.7-1.2
						c0.4-1.7,0.7-3.5,1.1-5.2c0,0,0-0.1,0-0.1C885.2,301.7,885.2,300.4,885.2,300.4z"/>
					<path class="st32" d="M907.4,299.3c-4.9,0-9.8,0-14.6,0c-1.9,0-3.5,0.5-3.6,1.2c-0.3,1.7-0.7,3.5-1,5.2c0,0,0,0.1,0,0.1v1.5
						c0,0.6,1.4,1.1,3.2,1.1c5,0,10,0,14.9,0c1.9,0,3.6-0.5,3.6-1.2c0.2-1.7,0.5-3.5,0.7-5.2v-1.5
						C910.8,299.8,909.3,299.3,907.4,299.3z"/>
					<path class="st32" d="M932.7,299.3c-4.9,0-9.7,0-14.6,0c-1.9,0-3.5,0.5-3.6,1.2c-0.2,1.7-0.4,3.5-0.6,5.2c0,0,0,0,0,0.1
						c0,0.1,0,1.4,0,1.4c0,0.7,1.5,1.2,3.3,1.2c5,0,9.9,0,14.9,0c2,0,3.5-0.5,3.6-1.2c0.1-1.7,0.2-3.5,0.3-5.2c0-0.1,0-1.1,0-1.5
						C936.1,299.8,934.6,299.3,932.7,299.3z"/>
					<path class="st32" d="M961.5,300.5c0-0.7-1.5-1.2-3.4-1.2c-4.9,0-9.7,0-14.6,0c-1.9,0-3.4,0.5-3.5,1.2
						c-0.1,1.7-0.2,3.5-0.3,5.2c0,0.1,0,1.1,0,1.5c0,0.7,1.5,1.2,3.4,1.2c5,0,10,0,14.9,0c1.9,0,3.5-0.5,3.5-1.2
						C961.5,306.7,961.5,302.2,961.5,300.5z"/>
					<path class="st32" d="M986.9,300.5c0-0.7-1.6-1.2-3.5-1.2c-4.9,0-9.7,0-14.6,0c-1.9,0-3.4,0.5-3.4,1.2c0,0.5,0,5,0.1,6.7
						c0,0.7,1.6,1.2,3.5,1.2c5,0,9.9,0,14.9,0c1.9,0,3.4-0.5,3.4-1.2v-1.5C987.1,304,987,302.2,986.9,300.5z"/>
					<path class="st32" d="M1012.3,300.5c-0.1-0.7-1.7-1.2-3.6-1.2c-4.9,0-9.7,0-14.6,0c-1.9,0-3.4,0.5-3.3,1.2c0,0.4,0,1.4,0,1.5
						c0.1,1.7,0.3,3.5,0.4,5.2c0,0.7,1.7,1.2,3.6,1.2c5,0,9.9,0,14.9,0c1.9,0,3.4-0.5,3.3-1.2v-1.5
						C1012.8,304,1012.5,302.2,1012.3,300.5z"/>
					<path class="st32" d="M1115.4,280.7c-1.6,0-2.8,0.4-2.7,1c0,0.1,0,1.3,0,1.5c0,0.1,0,0.1,0,0.2c0.8,1.7,1.5,3.5,2.3,5.2
						c0.3,0.7,2,1.2,3.8,1.2c1.5,0,3,0,4.5,0c1.2,2.7,2.4,5.4,3.7,8.1c0.3,0.7,2.1,1.2,3.9,1.2c2.2,0,4.4,0,6.6,0
						c1.6,0,2.8-0.4,2.8-1c0-0.1,0-1.3,0-1.5c0-0.1,0-0.1,0-0.2c-2.4-4.8-4.8-9.7-7.2-14.5c-0.3-0.7-2.1-1.2-3.8-1.2
						C1124.7,280.7,1120,280.7,1115.4,280.7z"/>
					<path class="st32" d="M883.4,309.7c0-0.6-1.4-1.1-3.3-1.1c-7.7,0-15.5,0-23.2,0c-1.9,0-3.6,0.5-3.8,1.2c-0.5,1.7-1,3.5-1.5,5.2
						c0,0,0,0.1,0,0.2v1.5c0,0.6,1.4,1.1,3.2,1.1c7.9,0,15.8,0,23.7,0c2,0,3.7-0.5,3.8-1.2c0.4-1.7,0.7-3.5,1.1-5.2c0,0,0-0.1,0-0.1
						V309.7z"/>
					<path class="st32" d="M1045,315.1c0,0,0-0.1,0-0.1c-0.4-1.7-0.8-3.5-1.2-5.2c-0.1-0.7-1.8-1.2-3.8-1.2c-6.4,0-12.7,0-19.1,0
						c-1.8,0-3.2,0.5-3.3,1.1v1.5c0,0,0,0,0,0.1c0.3,1.7,0.5,3.5,0.8,5.2c0.1,0.7,1.8,1.2,3.7,1.2c6.5,0,13,0,19.5,0
						c1.8,0,3.3-0.5,3.3-1.1V315.1z"/>
					<path class="st32" d="M844.7,308.6c-5,0-10,0-15,0c-2,0-3.7,0.5-3.9,1.2c-0.6,1.7-1.2,3.5-1.9,5.2c0,0.1,0,0.1,0,0.2v1.5
						c0,0.6,1.3,1.1,3.1,1.1c5.1,0,10.2,0,15.3,0c2,0,3.7-0.5,3.9-1.2c0.5-1.7,1-3.5,1.6-5.2c0,0,0-0.1,0-0.1v-1.5
						C847.8,309,846.5,308.6,844.7,308.6z"/>
					<path class="st32" d="M818.7,308.6c-5,0-10,0-15,0c-1.9,0-3.7,0.5-4,1.2c-0.7,1.7-1.5,3.5-2.2,5.2c0,0.1,0,0.1,0,0.2v1.5
						c0,0.6,1.3,1,3.1,1c5.1,0,10.2,0,15.3,0c2,0,3.8-0.5,4-1.2c0.6-1.7,1.3-3.5,1.9-5.2c0,0,0-0.1,0-0.2v-1.5
						C821.8,309,820.5,308.6,818.7,308.6z"/>
					<path class="st32" d="M792.8,308.6c-5,0-10,0-15,0c-1.9,0-3.7,0.5-4.1,1.2c-0.8,1.7-1.7,3.5-2.6,5.2c0,0.1,0,0.1,0,0.2
						c0,0.2,0,1.4,0,1.5c0,0.6,1.3,1,3,1c5.1,0,10.2,0,15.3,0c2,0,3.8-0.5,4.1-1.2c0.8-1.7,1.5-3.5,2.3-5.2c0,0,0-0.1,0-0.2v-1.5
						C795.7,309,794.5,308.6,792.8,308.6z"/>
					<path class="st32" d="M1013.6,309.8c-0.1-0.7-1.7-1.2-3.7-1.2c-39.6,0-79.2,0-118.9,0c-1.9,0-3.6,0.5-3.7,1.2
						c-0.3,1.7-0.7,3.5-1,5.2c0,0,0,0.1,0,0.1v1.5c0.1,0.6,1.5,1.1,3.3,1.1c40.4,0,80.9,0,121.3,0c1.8,0,3.3-0.5,3.4-1.1v-1.5
						c0,0,0-0.1,0-0.1C1014.1,313.3,1013.9,311.5,1013.6,309.8z"/>
					<path class="st32" d="M1071.4,315.2c0,0,0-0.1,0-0.2c-0.5-1.7-1-3.5-1.5-5.2c-0.2-0.7-1.9-1.2-3.8-1.2c-5,0-10,0-15,0
						c-1.8,0-3.2,0.5-3.2,1.1v1.5c0,0,0,0.1,0,0.1c0.4,1.7,0.8,3.5,1.2,5.2c0.1,0.7,1.9,1.2,3.9,1.2c5.1,0,10.2,0,15.3,0
						c1.8,0,3.2-0.4,3.2-1V315.2z"/>
					<path class="st32" d="M1123,315.2c0-0.1,0-0.1,0-0.2c-0.7-1.7-1.5-3.5-2.2-5.2c-0.3-0.7-2.1-1.2-4-1.2c-5,0-10,0-15,0
						c-1.7,0-3,0.4-3.1,1v1.5c0,0.1,0,0.1,0,0.2c0.6,1.7,1.3,3.5,1.9,5.2c0.2,0.7,2,1.2,4,1.2c5.1,0,10.2,0,15.3,0
						c1.8,0,3.1-0.4,3.1-1V315.2z"/>
					<path class="st32" d="M1096.6,315.2c0-0.1,0-0.1,0-0.2c-0.1-0.3-0.2-0.6-0.3-0.9c-0.2-0.7-2-1.2-4-1.2c-5.1,0-10.1,0-15.2,0
						c-1.8,0-3.2,0.5-3.2,1.1v1.5c0,0,0,0.1,0,0.1c0.1,0.3,0.2,0.6,0.3,0.9c0.2,0.7,2,1.2,3.9,1.2c5.1,0,10.2,0,15.3,0
						c1.8,0,3.2-0.5,3.2-1.1V315.2z"/>
					<path class="st32" d="M1123.1,296.5c-0.8-1.7-1.6-3.5-2.3-5.2c-0.3-0.7-2-1.2-3.9-1.2c-4.8,0-9.5,0-14.3,0
						c-1.7,0-2.9,0.5-2.9,1.1c0,0.1,0,1.3,0,1.5c0,0,0,0.1,0,0.2c0.7,1.7,1.4,3.5,2,5.2c0.3,0.7,2,1.2,3.9,1.2c4.8,0,9.7,0,14.5,0
						c1.7,0,2.9-0.4,2.9-1c0-0.1,0-1.3,0-1.5C1123.2,296.6,1123.2,296.5,1123.1,296.5z"/>
					<path class="st32" d="M1098,296.5c-0.7-1.7-1.3-3.5-2-5.2c-0.3-0.7-1.9-1.2-3.8-1.2c-4.8,0-9.5,0-14.3,0c-1.7,0-3,0.5-2.9,1.1
						c0,0,0,1.3,0,1.4c0,0,0,0.1,0,0.2c0.5,1.7,1.1,3.5,1.7,5.2c0.2,0.7,1.9,1.2,3.8,1.2c4.8,0,9.7,0,14.6,0c1.7,0,2.9-0.4,2.9-1
						c0,0,0-1.3,0-1.5C1098,296.6,1098,296.5,1098,296.5z"/>
					<path class="st32" d="M1072.8,296.5c-0.5-1.7-1.1-3.5-1.6-5.2c-0.2-0.7-1.9-1.2-3.7-1.2c-4.8,0-9.5,0-14.3,0
						c-1.7,0-3,0.5-3,1.1c0,0,0,1.3,0,1.5c0,0,0,0.1,0,0.1c0.4,1.7,0.9,3.5,1.3,5.2c0.2,0.7,1.8,1.2,3.7,1.2c4.9,0,9.7,0,14.6,0
						c1.7,0,3-0.4,3-1c0,0,0-1.3,0-1.5C1072.9,296.5,1072.9,296.5,1072.8,296.5z"/>
					<path class="st32" d="M1047.7,296.5c-0.4-1.7-0.8-3.5-1.2-5.2c-0.2-0.7-1.8-1.2-3.6-1.2c-4.8,0-9.5,0-14.2,0
						c-1.7,0-3.1,0.5-3.1,1.1c0,0,0,1.3,0,1.5c0,0,0,0.1,0,0.1c0.3,1.7,0.6,3.5,0.9,5.2c0.1,0.7,1.8,1.2,3.6,1.2c4.8,0,9.7,0,14.5,0
						c1.7,0,3-0.4,3.1-1.1c0,0,0-1.4,0-1.5C1047.7,296.5,1047.7,296.5,1047.7,296.5z"/>
					<path class="st32" d="M1021.7,291.2c-0.1-0.7-1.7-1.2-3.5-1.2c-4.8,0-9.5,0-14.2,0c-1.9,0-3.2,0.5-3.2,1.2v1.5
						c0.2,1.7,0.4,3.5,0.6,5.2c0.1,0.7,1.6,1.2,3.5,1.2c4.8,0,9.7,0,14.5,0c1.9,0,3.3-0.5,3.2-1.2v-1.5
						C1022.3,294.7,1022,293,1021.7,291.2z"/>
					<path class="st32" d="M870,290c-4.8,0-9.5,0-14.3,0c-1.8,0-3.5,0.5-3.7,1.2c-0.5,1.7-1,3.5-1.6,5.2c0,0,0,0.1,0,0.1
						c0,0.2,0,1.4,0,1.5c0,0.6,1.3,1.1,3.1,1.1c4.8,0,9.7,0,14.6,0c1.8,0,3.5-0.5,3.7-1.2c0.4-1.7,0.8-3.5,1.3-5.2c0,0,0-0.1,0-0.1
						c0-0.1,0-1.4,0-1.5C873,290.5,871.7,290,870,290z"/>
				</g>
				<g>
					<g>
						<path class="st31" d="M813.5,268.6c-0.3,0.7-1.9,1.2-3.7,1.2c-4.5,0-9,0-13.4,0c-1.7,0-2.9-0.5-2.5-1.2c0-0.1,0.1-0.1,0.1-0.2
							c0.3-0.7,2-1.2,3.7-1.2c4.4,0,8.9,0,13.3,0c1.7,0,2.9,0.5,2.6,1.2C813.6,268.5,813.6,268.6,813.5,268.6z"/>
						<path class="st31" d="M1126.6,268.6c0.3,0.7-0.8,1.2-2.5,1.2c-4.5,0-9,0-13.4,0c-1.7,0-3.4-0.5-3.7-1.2c0-0.1,0-0.1-0.1-0.2
							c-0.3-0.7,0.9-1.2,2.6-1.2c4.4,0,8.9,0,13.3,0c1.7,0,3.4,0.5,3.7,1.2C1126.5,268.5,1126.5,268.6,1126.6,268.6z"/>
						<path class="st31" d="M1102.5,268.6c0.3,0.7-0.9,1.2-2.6,1.2c-4.5,0-9,0-13.5,0c-1.7,0-3.3-0.5-3.6-1.2c0-0.1,0-0.1-0.1-0.2
							c-0.2-0.7,0.9-1.2,2.7-1.2c4.4,0,8.9,0,13.3,0c1.7,0,3.4,0.5,3.6,1.2C1102.4,268.5,1102.5,268.6,1102.5,268.6z"/>
						<path class="st31" d="M1078.4,268.6c0.2,0.7-1,1.2-2.7,1.2c-4.5,0-9,0-13.5,0c-1.7,0-3.3-0.5-3.5-1.2c0-0.1,0-0.1-0.1-0.2
							c-0.2-0.7,1.1-1.2,2.8-1.2c4.4,0,8.9,0,13.4,0c1.7,0,3.3,0.5,3.5,1.2C1078.4,268.5,1078.4,268.6,1078.4,268.6z"/>
						<path class="st31" d="M1054.3,268.6c0.2,0.7-1.1,1.2-2.8,1.2c-4.5,0-9,0-13.4,0c-1.7,0-3.2-0.5-3.4-1.2c0-0.1,0-0.1-0.1-0.2
							c-0.1-0.7,1.1-1.2,2.8-1.2c4.4,0,8.9,0,13.3,0c1.7,0,3.3,0.5,3.5,1.2C1054.3,268.5,1054.3,268.6,1054.3,268.6z"/>
						<path class="st31" d="M1030.2,268.6c0.1,0.7-1.2,1.2-2.9,1.2c-4.5,0-9,0-13.4,0c-1.7,0-3.2-0.5-3.3-1.2c0-0.1,0-0.1,0-0.2
							c-0.1-0.7,1.2-1.2,2.9-1.2c4.4,0,8.9,0,13.3,0c1.7,0,3.2,0.5,3.4,1.2C1030.2,268.5,1030.2,268.6,1030.2,268.6z"/>
						<path class="st31" d="M1006.2,268.6c0.1,0.7-1.2,1.2-3,1.2c-4.5,0-9,0-13.5,0c-1.7,0-3.2-0.5-3.2-1.2c0-0.1,0-0.1,0-0.2
							c0-0.7,1.3-1.2,3-1.2c4.4,0,8.9,0,13.4,0c1.7,0,3.2,0.5,3.3,1.2C1006.2,268.5,1006.2,268.6,1006.2,268.6z"/>
						<path class="st31" d="M982.1,268.6c0,0.7-1.3,1.2-3,1.2c-4.5,0-9,0-13.5,0c-1.7,0-3.1-0.5-3.2-1.2c0-0.1,0-0.1,0-0.2
							c0-0.7,1.4-1.2,3.1-1.2c4.4,0,8.9,0,13.3,0c1.7,0,3.1,0.5,3.2,1.2C982.1,268.5,982.1,268.6,982.1,268.6z"/>
						<path class="st31" d="M958,268.6c0,0.7-1.4,1.2-3.1,1.2c-4.5,0-9,0-13.4,0c-1.7,0-3.1-0.5-3.1-1.2c0-0.1,0-0.1,0-0.2
							c0-0.7,1.5-1.2,3.2-1.2c4.4,0,8.9,0,13.3,0c1.7,0,3.1,0.5,3.1,1.2C958,268.5,958,268.6,958,268.6z"/>
						<path class="st31" d="M933.9,268.6c0,0.7-1.5,1.2-3.2,1.2c-4.5,0-9,0-13.5,0c-1.7,0-3.1-0.5-3-1.2c0-0.1,0-0.1,0-0.2
							c0.1-0.7,1.6-1.2,3.3-1.2c4.4,0,8.9,0,13.3,0c1.7,0,3.1,0.5,3,1.2C933.9,268.5,933.9,268.6,933.9,268.6z"/>
						<path class="st31" d="M909.9,268.6c-0.1,0.7-1.6,1.2-3.3,1.2c-4.5,0-9,0-13.4,0c-1.7,0-3-0.5-2.9-1.2c0-0.1,0-0.1,0-0.2
							c0.1-0.7,1.6-1.2,3.3-1.2c4.4,0,8.9,0,13.3,0c1.7,0,3,0.5,2.9,1.2C909.9,268.5,909.9,268.6,909.9,268.6z"/>
						<path class="st31" d="M885.8,268.6c-0.1,0.7-1.7,1.2-3.4,1.2c-4.5,0-9,0-13.4,0c-1.7,0-3-0.5-2.8-1.2c0-0.1,0-0.1,0.1-0.2
							c0.2-0.7,1.7-1.2,3.4-1.2c4.4,0,8.9,0,13.3,0c1.7,0,3,0.5,2.9,1.2C885.8,268.5,885.8,268.6,885.8,268.6z"/>
						<path class="st31" d="M861.7,268.6c-0.2,0.7-1.8,1.2-3.5,1.2c-4.5,0-9,0-13.5,0c-1.7,0-2.9-0.5-2.7-1.2c0-0.1,0-0.1,0.1-0.2
							c0.2-0.7,1.8-1.2,3.5-1.2c4.4,0,8.9,0,13.3,0c1.7,0,3,0.5,2.8,1.2C861.7,268.5,861.7,268.6,861.7,268.6z"/>
						<path class="st31" d="M837.6,268.6c-0.2,0.7-1.8,1.2-3.6,1.2c-4.5,0-9,0-13.4,0c-1.7,0-2.9-0.5-2.6-1.2c0-0.1,0.1-0.1,0.1-0.2
							c0.3-0.7,1.9-1.2,3.6-1.2c4.5,0,8.9,0,13.3,0c1.7,0,2.9,0.5,2.7,1.2C837.7,268.5,837.6,268.6,837.6,268.6z"/>
					</g>
					<g>
						<path class="st31" d="M809.5,277.9c-0.3,0.7-2,1.2-3.7,1.2c-4.6,0-9.2,0-13.8,0c-1.8,0-2.9-0.5-2.6-1.2
							c0.9-1.7,1.7-3.5,2.6-5.2c0.3-0.7,2-1.2,3.7-1.2c4.5,0,9,0,13.5,0c1.8,0,2.9,0.5,2.6,1.2C811,274.4,810.3,276.2,809.5,277.9z"
							/>
						<path class="st31" d="M833.4,277.9c-0.3,0.7-1.9,1.2-3.7,1.2c-4.6,0-9.2,0-13.8,0c-1.8,0-3-0.5-2.7-1.2
							c0.7-1.7,1.5-3.5,2.2-5.2c0.3-0.7,1.9-1.2,3.6-1.2c4.5,0,9,0,13.5,0c1.8,0,3,0.5,2.7,1.2C834.7,274.4,834,276.2,833.4,277.9z"
							/>
						<path class="st31" d="M857.2,277.9c-0.2,0.7-1.8,1.2-3.6,1.2c-4.6,0-9.2,0-13.8,0c-1.8,0-3-0.5-2.8-1.2
							c0.6-1.7,1.2-3.5,1.9-5.2c0.2-0.7,1.8-1.2,3.6-1.2c4.5,0,9,0,13.5,0c1.8,0,3,0.5,2.8,1.2C858.3,274.4,857.7,276.2,857.2,277.9
							z"/>
						<path class="st31" d="M881.1,277.9c-0.1,0.7-1.7,1.2-3.5,1.2c-4.6,0-9.2,0-13.8,0c-1.8,0-3.1-0.5-2.9-1.2
							c0.5-1.7,1-3.5,1.5-5.2c0.2-0.7,1.8-1.2,3.5-1.2c4.5,0,9,0,13.5,0c1.7,0,3,0.5,2.9,1.2C881.9,274.4,881.5,276.2,881.1,277.9z"
							/>
						<path class="st31" d="M905,277.9c-0.1,0.7-1.6,1.2-3.4,1.2c-4.6,0-9.2,0-13.8,0c-1.8,0-3.1-0.5-3-1.2c0.4-1.7,0.8-3.5,1.1-5.2
							c0.2-0.7,1.7-1.2,3.4-1.2c4.5,0,9,0,13.5,0c1.8,0,3.1,0.5,3,1.2C905.5,274.4,905.2,276.2,905,277.9z"/>
						<path class="st31" d="M928.8,277.9c-0.1,0.7-1.6,1.2-3.3,1.2c-4.6,0-9.2,0-13.8,0c-1.8,0-3.1-0.5-3-1.2
							c0.3-1.7,0.5-3.5,0.8-5.2c0.1-0.7,1.6-1.2,3.3-1.2c4.5,0,9,0,13.5,0c1.7,0,3.1,0.5,3,1.2C929.1,274.4,929,276.2,928.8,277.9z"
							/>
						<path class="st31" d="M952.7,277.9c0,0.7-1.5,1.2-3.2,1.2c-4.6,0-9.2,0-13.8,0c-1.8,0-3.2-0.5-3.1-1.2
							c0.1-1.7,0.3-3.5,0.4-5.2c0.1-0.7,1.5-1.2,3.2-1.2c4.5,0,9,0,13.5,0c1.7,0,3.1,0.5,3.1,1.2
							C952.8,274.4,952.7,276.2,952.7,277.9z"/>
						<path class="st31" d="M976.6,277.9c0,0.7-1.4,1.2-3.2,1.2c-4.6,0-9.2,0-13.8,0c-1.8,0-3.2-0.5-3.2-1.2c0-1.7,0-3.5,0-5.2
							c0-0.7,1.4-1.2,3.2-1.2c4.5,0,9,0,13.5,0c1.7,0,3.2,0.5,3.2,1.2C976.4,274.4,976.5,276.2,976.6,277.9z"/>
						<path class="st31" d="M1000.4,277.9c0.1,0.7-1.3,1.2-3.1,1.2c-4.6,0-9.2,0-13.8,0c-1.8,0-3.2-0.5-3.3-1.2
							c-0.1-1.7-0.2-3.5-0.3-5.2c0-0.7,1.3-1.2,3.1-1.2c4.5,0,9,0,13.5,0c1.7,0,3.2,0.5,3.3,1.2
							C1000,274.4,1000.2,276.2,1000.4,277.9z"/>
						<path class="st31" d="M1024.3,277.9c0.1,0.7-1.2,1.2-3,1.2c-4.6,0-9.2,0-13.8,0c-1.8,0-3.3-0.5-3.4-1.2
							c-0.2-1.7-0.4-3.5-0.7-5.2c-0.1-0.7,1.2-1.2,3-1.2c4.5,0,9,0,13.5,0c1.7,0,3.2,0.5,3.4,1.2
							C1023.7,274.4,1024,276.2,1024.3,277.9z"/>
						<path class="st31" d="M1048.2,277.9c0.2,0.7-1.1,1.2-2.9,1.2c-4.6,0-9.2,0-13.8,0c-1.8,0-3.3-0.5-3.5-1.2
							c-0.3-1.7-0.7-3.5-1-5.2c-0.1-0.7,1.2-1.2,2.9-1.2c4.5,0,9,0,13.5,0c1.7,0,3.3,0.5,3.5,1.2
							C1047.3,274.4,1047.7,276.2,1048.2,277.9z"/>
						<path class="st31" d="M1072,277.9c0.2,0.7-1,1.2-2.8,1.2c-4.6,0-9.2,0-13.8,0c-1.8,0-3.4-0.5-3.6-1.2
							c-0.5-1.7-0.9-3.5-1.4-5.2c-0.2-0.7,1.1-1.2,2.8-1.2c4.5,0,9,0,13.5,0c1.7,0,3.3,0.5,3.5,1.2
							C1070.9,274.4,1071.5,276.2,1072,277.9z"/>
						<path class="st31" d="M1095.9,277.9c0.3,0.7-1,1.2-2.7,1.2c-4.6,0-9.2,0-13.8,0c-1.8,0-3.4-0.5-3.6-1.2
							c-0.6-1.7-1.2-3.5-1.7-5.2c-0.2-0.7,1-1.2,2.7-1.2c4.5,0,9,0,13.5,0c1.7,0,3.4,0.5,3.6,1.2
							C1094.5,274.4,1095.2,276.2,1095.9,277.9z"/>
						<path class="st31" d="M1131.1,277.9c0.3,0.7-0.8,1.2-2.6,1.2c-8.4,0-16.8,0-25.2,0c-1.8,0-3.4-0.5-3.7-1.2
							c-0.7-1.7-1.4-3.5-2.1-5.2c-0.3-0.7,0.9-1.2,2.7-1.2c8.2,0,16.5,0,24.7,0c1.8,0,3.4,0.5,3.7,1.2
							C1129.4,274.4,1130.3,276.2,1131.1,277.9z"/>
					</g>
					<g>
						<path class="st31" d="M805.7,305.7c-0.3,0.7-2.1,1.2-4,1.2c-7.7,0-15.4,0-23.1,0c-1.9,0-3.2-0.5-2.9-1.2
							c0.8-1.7,1.7-3.5,2.6-5.2c0.3-0.7,2.1-1.2,4-1.2c7.6,0,15.1,0,22.7,0c1.9,0,3.2,0.6,2.9,1.2
							C807.1,302.2,806.4,304,805.7,305.7z"/>
						<path class="st31" d="M832.6,305.7c-0.2,0.7-2,1.2-3.9,1.2c-5,0-10,0-14.9,0c-1.9,0-3.2-0.5-3-1.2c0.7-1.7,1.4-3.5,2.1-5.2
							c0.3-0.7,2-1.2,3.9-1.2c4.9,0,9.7,0,14.6,0c1.9,0,3.2,0.6,3,1.2C833.8,302.2,833.2,304,832.6,305.7z"/>
						<path class="st31" d="M858.4,305.7c-0.2,0.7-1.9,1.2-3.8,1.2c-5,0-9.9,0-14.9,0c-1.9,0-3.3-0.5-3.1-1.2
							c0.6-1.7,1.2-3.5,1.7-5.2c0.2-0.7,1.9-1.2,3.8-1.2c4.9,0,9.7,0,14.6,0c1.9,0,3.3,0.6,3.1,1.2
							C859.4,302.2,858.9,304,858.4,305.7z"/>
						<path class="st31" d="M884.2,305.7c-0.1,0.7-1.8,1.2-3.7,1.2c-5,0-10,0-14.9,0c-1.9,0-3.3-0.5-3.2-1.2
							c0.5-1.7,0.9-3.5,1.4-5.2c0.2-0.7,1.8-1.2,3.7-1.2c4.9,0,9.7,0,14.6,0c1.9,0,3.3,0.6,3.2,1.2
							C884.9,302.2,884.5,304,884.2,305.7z"/>
						<path class="st31" d="M910,305.7c-0.1,0.7-1.7,1.2-3.6,1.2c-5,0-10,0-14.9,0c-1.9,0-3.4-0.5-3.2-1.2c0.3-1.7,0.7-3.5,1-5.2
							c0.1-0.7,1.8-1.2,3.6-1.2c4.9,0,9.8,0,14.6,0c1.9,0,3.3,0.6,3.2,1.2C910.4,302.2,910.2,304,910,305.7z"/>
						<path class="st31" d="M935.7,305.7c0,0.7-1.6,1.2-3.6,1.2c-5,0-9.9,0-14.9,0c-1.9,0-3.4-0.5-3.3-1.2c0.2-1.7,0.4-3.5,0.6-5.2
							c0.1-0.7,1.7-1.2,3.6-1.2c4.9,0,9.7,0,14.6,0c1.9,0,3.4,0.6,3.4,1.2C936,302.2,935.9,304,935.7,305.7z"/>
						<path class="st31" d="M961.5,305.7c0,0.7-1.5,1.2-3.5,1.2c-5,0-10,0-14.9,0c-1.9,0-3.4-0.5-3.4-1.2c0.1-1.7,0.2-3.5,0.3-5.2
							c0-0.7,1.6-1.2,3.5-1.2c4.9,0,9.7,0,14.6,0c1.9,0,3.4,0.6,3.4,1.2C961.5,302.2,961.5,304,961.5,305.7z"/>
						<path class="st31" d="M987.3,305.7c0,0.7-1.4,1.2-3.4,1.2c-5,0-9.9,0-14.9,0c-1.9,0-3.5-0.5-3.5-1.2c0-1.7,0-3.5-0.1-5.2
							c0-0.7,1.5-1.2,3.4-1.2c4.9,0,9.7,0,14.6,0c1.9,0,3.4,0.6,3.5,1.2C987,302.2,987.1,304,987.3,305.7z"/>
						<path class="st31" d="M1013,305.7c0.1,0.7-1.4,1.2-3.3,1.2c-5,0-10,0-14.9,0c-1.9,0-3.5-0.5-3.6-1.2c-0.1-1.7-0.3-3.5-0.4-5.2
							c-0.1-0.7,1.4-1.2,3.3-1.2c4.9,0,9.7,0,14.6,0c1.9,0,3.5,0.6,3.6,1.2C1012.5,302.2,1012.8,304,1013,305.7z"/>
						<path class="st31" d="M1038.9,305.7c0.1,0.7-1.3,1.2-3.2,1.2c-5,0-9.9,0-14.9,0c-1.9,0-3.6-0.5-3.7-1.2
							c-0.3-1.7-0.5-3.5-0.8-5.2c-0.1-0.7,1.4-1.2,3.2-1.2c4.9,0,9.7,0,14.6,0c1.9,0,3.5,0.6,3.7,1.2
							C1038.1,302.2,1038.5,304,1038.9,305.7z"/>
						<path class="st31" d="M1064.6,305.7c0.2,0.7-1.2,1.2-3.1,1.2c-5,0-10,0-14.9,0c-1.9,0-3.6-0.5-3.7-1.2
							c-0.4-1.7-0.8-3.5-1.2-5.2c-0.1-0.7,1.2-1.2,3.1-1.2c4.9,0,9.7,0,14.6,0c1.9,0,3.5,0.6,3.7,1.2
							C1063.6,302.2,1064.1,304,1064.6,305.7z"/>
						<path class="st31" d="M1090.4,305.7c0.2,0.7-1.1,1.2-3.1,1.2c-5,0-9.9,0-14.9,0c-1.9,0-3.6-0.5-3.8-1.2
							c-0.5-1.7-1-3.5-1.5-5.2c-0.2-0.7,1.2-1.2,3.1-1.2c4.9,0,9.7,0,14.6,0c1.9,0,3.6,0.6,3.8,1.2
							C1089.2,302.2,1089.8,304,1090.4,305.7z"/>
						<path class="st31" d="M1144.8,305.7c0.3,0.7-0.9,1.2-2.9,1.2c-14.6,0-29.1,0-43.7,0c-1.9,0-3.6-0.5-3.9-1.2
							c-0.6-1.7-1.2-3.5-1.9-5.2c-0.2-0.7,1.1-1.2,2.9-1.2c14.3,0,28.5,0,42.8,0c1.9,0,3.7,0.6,4,1.2
							C1143.1,302.2,1144,304,1144.8,305.7z"/>
					</g>
					<g>
						<path class="st31" d="M1088.6,282c-0.3-0.7,1-1.2,2.8-1.2c4.6,0,9.3,0,13.9,0c1.8,0,3.5,0.5,3.7,1.2c0.7,1.7,1.5,3.5,2.2,5.2
							c0.3,0.7-0.9,1.2-2.8,1.2c-4.7,0-9.5,0-14.2,0c-1.8,0-3.5-0.6-3.7-1.2C1089.9,285.4,1089.2,283.7,1088.6,282z"/>
						<path class="st31" d="M1129.3,280.7c-4.6,0-9.3,0-13.9,0c-1.8,0-3,0.5-2.7,1.2c0.8,1.7,1.5,3.5,2.3,5.2c0.3,0.7,2,1.2,3.8,1.2
							c1.5,0,3,0,4.5,0c1.2,2.7,2.4,5.4,3.7,8c0.3,0.7,2.1,1.2,3.9,1.2c2.2,0,4.4,0,6.6,0c1.8,0,3.1-0.5,2.8-1.2
							c-2.4-4.8-4.8-9.7-7.2-14.5C1132.8,281.3,1131.1,280.7,1129.3,280.7z"/>
						<path class="st31" d="M1064.4,282c-0.2-0.7,1.1-1.2,2.9-1.2c4.6,0,9.2,0,13.9,0c1.8,0,3.4,0.5,3.7,1.2
							c0.6,1.7,1.2,3.5,1.9,5.2c0.2,0.7-1.1,1.2-2.9,1.2c-4.7,0-9.5,0-14.2,0c-1.8,0-3.5-0.6-3.7-1.2
							C1065.5,285.4,1064.9,283.7,1064.4,282z"/>
						<path class="st31" d="M1040.3,282c-0.1-0.7,1.2-1.2,3-1.2c4.6,0,9.2,0,13.9,0c1.8,0,3.4,0.5,3.6,1.2c0.5,1.7,1,3.5,1.5,5.2
							c0.2,0.7-1.1,1.2-3,1.2c-4.7,0-9.4,0-14.2,0c-1.8,0-3.4-0.6-3.6-1.2C1041.1,285.4,1040.7,283.7,1040.3,282z"/>
						<path class="st31" d="M1016.2,282c-0.1-0.7,1.3-1.2,3-1.2c4.6,0,9.2,0,13.9,0c1.8,0,3.3,0.5,3.5,1.2c0.4,1.7,0.8,3.5,1.1,5.2
							c0.1,0.7-1.2,1.2-3,1.2c-4.7,0-9.5,0-14.2,0c-1.8,0-3.4-0.6-3.5-1.2C1016.7,285.4,1016.4,283.7,1016.2,282z"/>
						<path class="st31" d="M992,282c-0.1-0.7,1.3-1.2,3.1-1.2c4.6,0,9.3,0,13.9,0c1.7,0,3.3,0.5,3.4,1.2c0.3,1.7,0.5,3.5,0.8,5.2
							c0.1,0.7-1.3,1.2-3.1,1.2c-4.7,0-9.5,0-14.2,0c-1.8,0-3.4-0.6-3.4-1.2C992.3,285.4,992.2,283.7,992,282z"/>
						<path class="st31" d="M967.8,282c0-0.7,1.4-1.2,3.2-1.2c4.6,0,9.2,0,13.9,0c1.8,0,3.3,0.5,3.3,1.2c0.1,1.7,0.3,3.5,0.4,5.2
							c0,0.7-1.4,1.2-3.2,1.2c-4.7,0-9.5,0-14.2,0c-1.8,0-3.3-0.6-3.3-1.2C967.9,285.4,967.9,283.7,967.8,282z"/>
						<path class="st31" d="M943.7,282c0-0.7,1.5-1.2,3.3-1.2c4.6,0,9.2,0,13.9,0c1.8,0,3.2,0.5,3.2,1.2c0,1.7,0,3.5,0.1,5.2
							c0,0.7-1.5,1.2-3.3,1.2c-4.7,0-9.5,0-14.2,0c-1.8,0-3.3-0.6-3.2-1.2C943.5,285.4,943.6,283.7,943.7,282z"/>
						<path class="st31" d="M919.6,282c0.1-0.7,1.6-1.2,3.4-1.2c4.6,0,9.2,0,13.9,0c1.8,0,3.2,0.5,3.2,1.2c-0.1,1.7-0.2,3.5-0.3,5.2
							c0,0.7-1.5,1.2-3.4,1.2c-4.7,0-9.4,0-14.2,0c-1.8,0-3.3-0.6-3.2-1.2C919.2,285.4,919.4,283.7,919.6,282z"/>
						<path class="st31" d="M895.4,282c0.1-0.7,1.7-1.2,3.5-1.2c4.6,0,9.3,0,13.9,0c1.8,0,3.2,0.5,3.1,1.2c-0.2,1.7-0.4,3.5-0.7,5.2
							c-0.1,0.7-1.6,1.2-3.5,1.2c-4.7,0-9.5,0-14.2,0c-1.8,0-3.2-0.6-3.1-1.2C894.8,285.4,895.1,283.7,895.4,282z"/>
						<path class="st31" d="M871.3,282c0.2-0.7,1.8-1.2,3.6-1.2c4.6,0,9.2,0,13.9,0c1.8,0,3.1,0.5,3,1.2c-0.3,1.7-0.7,3.5-1,5.2
							c-0.1,0.7-1.7,1.2-3.5,1.2c-4.7,0-9.5,0-14.2,0c-1.8,0-3.2-0.6-3-1.2C870.4,285.4,870.8,283.7,871.3,282z"/>
						<path class="st31" d="M847.1,282c0.2-0.7,1.8-1.2,3.6-1.2c4.6,0,9.3,0,13.9,0c1.8,0,3.1,0.5,2.9,1.2c-0.5,1.7-0.9,3.5-1.4,5.2
							c-0.2,0.7-1.8,1.2-3.6,1.2c-4.7,0-9.5,0-14.2,0c-1.8,0-3.1-0.6-2.9-1.2C846,285.4,846.6,283.7,847.1,282z"/>
						<path class="st31" d="M823,282c0.3-0.7,1.9-1.2,3.7-1.2c4.6,0,9.3,0,13.9,0c1.8,0,3,0.5,2.8,1.2c-0.6,1.7-1.2,3.5-1.7,5.2
							c-0.2,0.7-1.9,1.2-3.7,1.2c-4.7,0-9.4,0-14.2,0c-1.8,0-3.1-0.6-2.8-1.2C821.6,285.4,822.3,283.7,823,282z"/>
						<path class="st31" d="M787.4,282c0.3-0.7,2-1.2,3.8-1.2c8.4,0,16.9,0,25.4,0c1.8,0,3,0.5,2.7,1.2c-0.7,1.7-1.4,3.5-2.1,5.2
							c-0.3,0.7-2,1.2-3.8,1.2c-8.6,0-17.3,0-25.9,0c-1.8,0-3-0.6-2.7-1.2C785.6,285.4,786.5,283.7,787.4,282z"/>
					</g>
					<g>
						<path class="st31" d="M853.1,309.8c0.2-0.7,1.9-1.2,3.8-1.2c7.7,0,15.5,0,23.2,0c2,0,3.4,0.5,3.3,1.2
							c-0.4,1.7-0.7,3.5-1.1,5.2c-0.1,0.7-1.8,1.2-3.8,1.2c-7.9,0-15.8,0-23.7,0c-2,0-3.4-0.5-3.2-1.2
							C852.1,313.3,852.6,311.5,853.1,309.8z"/>
						<path class="st31" d="M1017.7,309.8c-0.1-0.7,1.4-1.2,3.3-1.2c6.4,0,12.8,0,19.1,0c1.9,0,3.6,0.5,3.8,1.2
							c0.4,1.7,0.8,3.5,1.2,5.2c0.2,0.7-1.3,1.2-3.3,1.2c-6.5,0-13,0-19.5,0c-2,0-3.6-0.5-3.7-1.2
							C1018.2,313.3,1017.9,311.5,1017.7,309.8z"/>
						<path class="st31" d="M825.8,309.8c0.2-0.7,2-1.2,3.9-1.2c5,0,10,0,15,0c1.9,0,3.3,0.5,3.1,1.2c-0.5,1.7-1,3.5-1.6,5.2
							c-0.2,0.7-1.9,1.2-3.9,1.2c-5.1,0-10.2,0-15.3,0c-2,0-3.4-0.5-3.1-1.2C824.6,313.3,825.2,311.5,825.8,309.8z"/>
						<path class="st31" d="M799.7,309.8c0.3-0.7,2.1-1.2,4-1.2c5,0,10,0,15,0c1.9,0,3.3,0.5,3,1.2c-0.6,1.7-1.3,3.5-1.9,5.2
							c-0.3,0.7-2.1,1.2-4,1.2c-5.1,0-10.2,0-15.3,0c-2,0-3.3-0.5-3.1-1.2C798.2,313.3,799,311.5,799.7,309.8z"/>
						<path class="st31" d="M773.7,309.8c0.3-0.7,2.2-1.2,4.1-1.2c5,0,10,0,15,0c1.9,0,3.2,0.5,2.9,1.2c-0.8,1.7-1.5,3.5-2.3,5.2
							c-0.3,0.7-2.1,1.2-4.1,1.2c-5.1,0-10.2,0-15.3,0c-2,0-3.3-0.5-3-1.2C772,313.3,772.8,311.5,773.7,309.8z"/>
						<path class="st31" d="M1010,308.6c-39.6,0-79.2,0-118.9,0c-1.9,0-3.6,0.5-3.7,1.2c-0.3,1.7-0.7,3.5-1,5.2
							c-0.1,0.7,1.4,1.2,3.3,1.2c40.4,0,80.8,0,121.3,0c2,0,3.5-0.5,3.4-1.2c-0.2-1.7-0.5-3.5-0.7-5.2
							C1013.5,309.1,1011.9,308.6,1010,308.6z"/>
						<path class="st31" d="M1071.4,315c0.2,0.7-1.2,1.2-3.2,1.2c-5.1,0-10.2,0-15.3,0c-2,0-3.7-0.5-3.9-1.2
							c-0.4-1.7-0.8-3.5-1.2-5.2c-0.2-0.7,1.3-1.2,3.2-1.2c5,0,10,0,15,0c1.9,0,3.6,0.5,3.8,1.2
							C1070.4,311.5,1070.8,313.3,1071.4,315z"/>
						<path class="st31" d="M1126.7,314.1c-0.3-0.7,1.1-1.2,3-1.2c5,0,10.1,0,15.2,0c1.9,0,3.8,0.5,4.1,1.2c0.1,0.3,0.3,0.6,0.4,0.9
							c0.3,0.7-1,1.2-2.9,1.2c-5.1,0-10.2,0-15.3,0c-2,0-3.8-0.5-4.1-1.2C1126.9,314.7,1126.8,314.4,1126.7,314.1z"/>
						<path class="st31" d="M1098.8,309.8c-0.3-0.7,1.1-1.2,3-1.2c5,0,10,0,15,0c1.9,0,3.7,0.5,4,1.2c0.7,1.7,1.5,3.5,2.2,5.2
							c0.3,0.7-1.1,1.2-3,1.2c-5.1,0-10.2,0-15.3,0c-2,0-3.8-0.5-4-1.2C1100,313.3,1099.4,311.5,1098.8,309.8z"/>
						<path class="st31" d="M1074,314.1c-0.2-0.7,1.2-1.2,3.2-1.2c5.1,0,10.1,0,15.2,0c2,0,3.7,0.5,4,1.2c0.1,0.3,0.2,0.6,0.3,0.9
							c0.2,0.7-1.2,1.2-3.1,1.2c-5.1,0-10.2,0-15.3,0c-2,0-3.7-0.5-3.9-1.2C1074.1,314.7,1074.1,314.4,1074,314.1z"/>
					</g>
					<g>
						<path class="st31" d="M1099.8,291.2c-0.3-0.7,1-1.2,2.8-1.2c4.8,0,9.5,0,14.3,0c1.8,0,3.6,0.5,3.9,1.2
							c0.8,1.7,1.6,3.5,2.3,5.2c0.3,0.7-1,1.2-2.8,1.2c-4.8,0-9.7,0-14.5,0c-1.9,0-3.6-0.5-3.9-1.2
							C1101.2,294.7,1100.5,293,1099.8,291.2z"/>
						<path class="st31" d="M1075.1,291.2c-0.2-0.7,1.1-1.2,2.9-1.2c4.8,0,9.5,0,14.3,0c1.8,0,3.5,0.5,3.8,1.2
							c0.7,1.7,1.3,3.5,2,5.2c0.3,0.7-1,1.2-2.9,1.2c-4.9,0-9.7,0-14.6,0c-1.9,0-3.6-0.5-3.8-1.2
							C1076.2,294.7,1075.6,293,1075.1,291.2z"/>
						<path class="st31" d="M1050.3,291.2c-0.2-0.7,1.2-1.2,3-1.2c4.8,0,9.5,0,14.3,0c1.8,0,3.5,0.5,3.7,1.2
							c0.5,1.7,1.1,3.5,1.6,5.2c0.2,0.7-1.2,1.2-3,1.2c-4.9,0-9.7,0-14.6,0c-1.9,0-3.5-0.5-3.7-1.2
							C1051.1,294.7,1050.7,293,1050.3,291.2z"/>
						<path class="st31" d="M1025.5,291.2c-0.1-0.7,1.3-1.2,3.1-1.2c4.7,0,9.5,0,14.2,0c1.8,0,3.4,0.5,3.6,1.2
							c0.4,1.7,0.8,3.5,1.2,5.2c0.2,0.7-1.2,1.2-3.1,1.2c-4.8,0-9.7,0-14.5,0c-1.9,0-3.5-0.5-3.6-1.2
							C1026.1,294.7,1025.8,293,1025.5,291.2z"/>
						<path class="st31" d="M1000.7,291.2c-0.1-0.7,1.3-1.2,3.2-1.2c4.8,0,9.5,0,14.2,0c1.8,0,3.4,0.5,3.5,1.2
							c0.3,1.7,0.6,3.5,0.9,5.2c0.1,0.7-1.3,1.2-3.2,1.2c-4.8,0-9.7,0-14.5,0c-1.9,0-3.4-0.5-3.5-1.2
							C1001.1,294.7,1000.9,293,1000.7,291.2z"/>
						<path class="st31" d="M975.9,291.2c0-0.7,1.4-1.2,3.3-1.2c4.8,0,9.5,0,14.2,0c1.8,0,3.4,0.5,3.5,1.2c0.2,1.7,0.4,3.5,0.5,5.2
							c0.1,0.7-1.4,1.2-3.3,1.2c-4.8,0-9.7,0-14.5,0c-1.9,0-3.4-0.5-3.5-1.2C976.1,294.7,976,293,975.9,291.2z"/>
						<path class="st31" d="M951.2,291.2c0-0.7,1.5-1.2,3.3-1.2c4.8,0,9.5,0,14.2,0c1.8,0,3.3,0.5,3.4,1.2c0,1.7,0.1,3.5,0.2,5.2
							c0,0.7-1.5,1.2-3.4,1.2c-4.8,0-9.7,0-14.5,0c-1.9,0-3.4-0.5-3.3-1.2C951.1,294.7,951.1,293,951.2,291.2z"/>
						<path class="st31" d="M926.4,291.2c0-0.7,1.6-1.2,3.4-1.2c4.8,0,9.5,0,14.3,0c1.8,0,3.3,0.5,3.3,1.2c-0.1,1.7-0.1,3.5-0.2,5.2
							c0,0.7-1.6,1.2-3.4,1.2c-4.9,0-9.7,0-14.6,0c-1.9,0-3.3-0.5-3.3-1.2C926,294.7,926.2,293,926.4,291.2z"/>
						<path class="st31" d="M901.6,291.2c0.1-0.7,1.7-1.2,3.5-1.2c4.8,0,9.5,0,14.3,0c1.8,0,3.2,0.5,3.2,1.2
							c-0.2,1.7-0.4,3.5-0.5,5.2c-0.1,0.7-1.6,1.2-3.5,1.2c-4.8,0-9.7,0-14.5,0c-1.9,0-3.3-0.5-3.2-1.2
							C901,294.7,901.3,293,901.6,291.2z"/>
						<path class="st31" d="M876.8,291.2c0.2-0.7,1.8-1.2,3.6-1.2c4.8,0,9.5,0,14.3,0c1.8,0,3.2,0.5,3.1,1.2
							c-0.3,1.7-0.6,3.5-0.9,5.2c-0.1,0.7-1.7,1.2-3.6,1.2c-4.9,0-9.7,0-14.6,0c-1.9,0-3.3-0.5-3.1-1.2
							C876,294.7,876.4,293,876.8,291.2z"/>
						<path class="st31" d="M852,291.2c0.2-0.7,1.9-1.2,3.7-1.2c4.8,0,9.5,0,14.3,0c1.8,0,3.2,0.5,3,1.2c-0.4,1.7-0.8,3.5-1.3,5.2
							c-0.1,0.7-1.8,1.2-3.7,1.2c-4.8,0-9.7,0-14.6,0c-1.9,0-3.2-0.5-3-1.2C851,294.7,851.5,293,852,291.2z"/>
						<path class="st31" d="M827.3,291.2c0.3-0.7,1.9-1.2,3.7-1.2c4.8,0,9.5,0,14.3,0c1.8,0,3.1,0.5,2.9,1.2
							c-0.5,1.7-1.1,3.5-1.6,5.2c-0.2,0.7-1.9,1.2-3.8,1.2c-4.8,0-9.7,0-14.6,0c-1.9,0-3.2-0.5-2.9-1.2
							C826,294.7,826.6,293,827.3,291.2z"/>
						<path class="st31" d="M782.8,291.2c0.3-0.7,2.1-1.2,3.9-1.2c11.3,0,22.6,0,33.9,0c1.8,0,3.1,0.5,2.8,1.2
							c-0.7,1.7-1.3,3.5-2,5.2c-0.2,0.7-2,1.2-3.8,1.2c-11.5,0-23.1,0-34.6,0c-1.9,0-3.1-0.5-2.8-1.2
							C781.1,294.7,781.9,293,782.8,291.2z"/>
					</g>
				</g>
			</g>
		</g>
		<g>
			<g>
				<g>
					<g>
						<path class="st33" d="M1160.4,248.2c0,7.6-6.1,13.7-13.7,13.7H773.3c-7.6,0-13.7-6.1-13.7-13.7V47.5c0-7.6,6.1-13.7,13.7-13.7
							h373.4c7.6,0,13.7,6.1,13.7,13.7V248.2z"/>
						<path class="st34" d="M1146.7,33.8H773.3c-7.6,0-13.7,6.1-13.7,13.7v200.7c0,7.6,6.1,13.7,13.7,13.7h373.4
							c7.6,0,13.7-6.1,13.7-13.7V47.5C1160.4,39.9,1154.3,33.8,1146.7,33.8z M1148.2,248.2c0,0.8-0.6,1.4-1.4,1.4H773.3
							c-0.8,0-1.4-0.7-1.4-1.4V47.5c0-0.8,0.6-1.4,1.4-1.4h373.4c0.8,0,1.4,0.6,1.4,1.4V248.2z"/>
					</g>
				</g>
			</g>
		</g>
	</g>
	<g>
		<rect x="786.9" y="60.9" class="st35" width="346.2" height="188"/>
		<g>
			<rect x="800.2" y="87.6" class="st23" width="154.3" height="22.5"/>
			<rect x="964.9" y="87.6" class="st23" width="154.8" height="22.5"/>
			<rect x="800.2" y="118.6" class="st23" width="319.5" height="85.2"/>
		</g>
	</g>
	<linearGradient id="SVGID_3_" gradientUnits="userSpaceOnUse" x1="979.4067" y1="175.3772" x2="1149.6378" y2="96.8092">
		<stop  offset="0" style="stop-color:#FFFFFF"/>
		<stop  offset="1" style="stop-color:#524F4F"/>
	</linearGradient>
	<path class="st36" d="M1010.6,261.8h136.2c7.6,0,13.7-6.1,13.7-13.7V47.5c0-7.6-6.1-13.7-13.7-13.7H928.5L1010.6,261.8z"/>
</g>
</svg>
