<?xml version="1.0" encoding="utf-8"?>
<!-- Generator: Adobe Illustrator 24.1.1, SVG Export Plug-In . SVG Version: 6.00 Build 0)  -->
<svg version="1.1" id="Layer_1" xmlns="http://www.w3.org/2000/svg" xmlns:xlink="http://www.w3.org/1999/xlink" x="0px" y="0px"
	 viewBox="0 0 1920 360" style="enable-background:new 0 0 1920 360;" xml:space="preserve">
<style type="text/css">
	.st0{fill:url(#SVGID_1_);}
	.st1{fill:none;stroke:#FFFFFF;stroke-width:2;stroke-miterlimit:10;}
	.st2{fill:#999999;}
	.st3{fill:#3B4A6D;}
	.st4{fill:#2B3851;}
	.st5{opacity:0.4;fill:#FFFFFF;enable-background:new    ;}
	.st6{fill:#FFFFFF;}
	.st7{fill:#E5E5E5;}
	.st8{fill:#FFC809;}
	.st9{fill:#EDEDED;}
	.st10{fill:#CECECE;}
	.st11{fill:#FF5148;}
	.st12{enable-background:new    ;}
	.st13{fill:#00A4D6;}
	.st14{fill:#383C40;}
	.st15{fill:#B7B7B7;}
	.st16{fill:#B2B2B2;}
	.st17{fill:url(#SVGID_2_);}
	.st18{fill:url(#SVGID_3_);}
	.st19{fill:url(#SVGID_4_);}
	.st20{fill:url(#SVGID_5_);}
	.st21{fill:url(#SVGID_6_);}
	.st22{fill:url(#SVGID_7_);}
	.st23{fill:#899DA8;}
	.st24{fill:#A0B1B7;}
	.st25{fill:#768891;}
	.st26{fill:#B8C8CC;}
	.st27{fill:#9EB53A;}
	.st28{fill:#4A454C;}
	.st29{fill:#FFD261;}
	.st30{fill:#3C5775;}
	.st31{fill:#8CD0CF;}
	.st32{fill:#5E5B60;}
	.st33{fill:#1D7CB5;}
	.st34{fill:#B8E4CD;}
	.st35{fill:#50C6C8;}
	.st36{fill:#585C60;}
	.st37{fill:#383C3F;}
	.st38{opacity:0.3;fill:#FFFFFF;enable-background:new    ;}
	.st39{fill:#394144;}
	.st40{fill:#5B6466;}
	.st41{fill:#65CDD8;}
	.st42{opacity:0.3;fill:url(#SVGID_8_);enable-background:new    ;}
	.st43{fill:#879296;}
	.st44{fill:#FF312C;}
	.st45{fill:#949494;}
	.st46{fill:#ABABAB;}
	.st47{fill:#FF7471;}
	.st48{fill:#FF635F;}
	.st49{fill:url(#SVGID_9_);}
	.st50{opacity:0.1;fill:#F2CDA0;enable-background:new    ;}
	.st51{fill:#F7D2AA;}
	.st52{fill:#93A5AA;}
	.st53{fill:url(#SVGID_10_);}
	.st54{fill:#FFE3C9;}
	.st55{fill:#FFE8D7;}
	.st56{opacity:0.2;fill:#F2CDA0;enable-background:new    ;}
	.st57{fill:url(#SVGID_11_);}
	.st58{fill:#DF6C4E;}
	.st59{fill:#EE7B5D;}
	.st60{fill:#E37F61;}
	.st61{fill:#F28E70;}
	.st62{fill:#BABABA;}
	.st63{fill:#C9C9C9;}
	.st64{fill:#686868;}
	.st65{fill:#32373C;}
	.st66{fill:#494E53;}
	.st67{fill:#D9D9D9;}
	.st68{fill:#F0F0F0;}
	.st69{fill:#EFF5E7;}
	.st70{fill:#595959;}
	.st71{fill:#2A2A2A;}
	.st72{fill:#404040;}
	.st73{fill:url(#SVGID_12_);}
	.st74{opacity:0.15;fill:#67ADB7;enable-background:new    ;}
	.st75{fill:url(#SVGID_13_);}
	.st76{opacity:0.3;fill:#67ADB7;enable-background:new    ;}
	.st77{fill:#79C3C9;}
	.st78{fill:#80CDD3;}
	.st79{fill:#E0E0E0;}
	.st80{fill:#C1C1C1;}
	.st81{fill:#8EE4ED;}
	.st82{fill:#7FD9DD;}
	.st83{fill:#D8D8D8;}
	.st84{fill:#97EDF2;}
	.st85{fill:#F4F4F4;}
	.st86{fill:#68D8EA;}
	.st87{fill:#E6E6E6;}
	.st88{fill:#CCCCCC;}
	.st89{fill:#47BBD4;}
	.st90{fill:#536675;}
	.st91{fill:#5DCFE3;}
	.st92{fill:#34495E;}
	.st93{fill:#446077;}
	.st94{fill:#443846;}
	.st95{fill:#E8E8E8;}
	.st96{fill:#FFC23B;}
	.st97{fill:#513A2A;}
</style>
<radialGradient id="SVGID_1_" cx="1567.3191" cy="-104.2553" r="522.5717" gradientUnits="userSpaceOnUse">
	<stop  offset="0" style="stop-color:#87CEB5"/>
	<stop  offset="1" style="stop-color:#00B8B4"/>
</radialGradient>
<rect class="st0" width="1920" height="308.9"/>
<g>
	<polyline class="st1" points="0,77.8 176,77.8 176,265 574.6,265 	"/>
	<polyline class="st1" points="0,209.4 108,209.4 108,0 	"/>
	<polyline class="st1" points="1612.9,0 1612.9,99 1920,99 	"/>
	<polyline class="st1" points="1734,4 1734,271 1244,271 	"/>
	<polyline class="st1" points="1920,172.5 1821,172.5 1821,304.9 	"/>
	<polyline class="st1" points="0,291.8 275,291.8 275,129 	"/>
</g>
<g>
	<rect x="252.4" y="47.6" class="st2" width="173.3" height="118.5"/>
	<rect x="252.4" y="143.8" class="st3" width="173.3" height="22.3"/>
	<rect x="252.4" y="143.8" class="st4" width="22.6" height="22.3"/>
	<rect x="403.1" y="143.8" class="st4" width="22.6" height="22.3"/>
	<g>
		<path class="st5" d="M366.3,96c0,15.6-12.7,28.3-28.3,28.3c-15.6,0-28.3-12.7-28.3-28.3s12.7-28.3,28.3-28.3
			C353.6,67.7,366.3,80.4,366.3,96z"/>
		<polygon class="st6" points="329.3,77.8 353.9,95.6 329.3,113.3 		"/>
	</g>
	<g>
		<path class="st7" d="M396.7,155.5c0,0.5-0.4,0.8-0.8,0.8H284.5c-0.5,0-0.8-0.4-0.8-0.8l0,0c0-0.5,0.4-0.8,0.8-0.8h111.4
			C396.3,154.7,396.7,155.1,396.7,155.5L396.7,155.5z"/>
		<path class="st6" d="M329.4,155.5c0,0.8-0.7,1.5-1.5,1.5h-42.7c-0.8,0-1.5-0.6-1.5-1.5l0,0c0-0.8,0.7-1.5,1.5-1.5h42.7
			C328.7,154.1,329.4,154.7,329.4,155.5L329.4,155.5z"/>
		<path class="st8" d="M333.5,155.5c0,2.3-1.9,4.2-4.2,4.2c-2.3,0-4.2-1.9-4.2-4.2s1.9-4.2,4.2-4.2
			C331.6,151.4,333.5,153.2,333.5,155.5z"/>
	</g>
	<g>
		<rect x="259.3" y="150.3" class="st6" width="2.4" height="9.4"/>
		<rect x="264.6" y="150.3" class="st6" width="2.4" height="9.4"/>
	</g>
	<g>
		<path class="st6" d="M416.1,153.4l-0.7,0.7c0.5,0.4,0.9,1.1,0.9,1.8s-0.4,1.4-0.9,1.8l0.7,0.7c0.7-0.6,1.2-1.5,1.2-2.5
			C417.4,154.8,416.9,154,416.1,153.4z M419.5,155.9c0-1.6-0.7-3.1-1.8-4.1l-0.7,0.7c0.9,0.8,1.5,2,1.5,3.3s-0.6,2.5-1.5,3.3
			l0.7,0.7C418.8,158.9,419.5,157.5,419.5,155.9z M421.7,155.9c0-2.2-1-4.2-2.5-5.6l-0.7,0.7c1.3,1.2,2.2,3,2.2,4.9
			s-0.8,3.7-2.2,4.9l0.7,0.7C420.7,160.1,421.7,158.1,421.7,155.9z"/>
		<rect x="406.8" y="153.7" class="st6" width="2.6" height="4.3"/>
		<polygon class="st6" points="413.9,160.3 410.2,158 410.2,153.7 413.9,151.4 		"/>
	</g>
</g>
<g>
	<polygon class="st9" points="1452.4,352.2 1441,190.3 1235.5,190.3 1220.4,352.2 	"/>
	<g>
		<path class="st10" d="M1283.1,246.5c-19.2,0-34.2-8-34.2-18.2s15-18.2,34.2-18.2s34.2,8,34.2,18.2
			C1317.3,238.4,1302.3,246.5,1283.1,246.5z M1283.1,212.9c-16.9,0-31.3,7-31.3,15.3s14.3,15.3,31.3,15.3c16.9,0,31.3-7,31.3-15.3
			S1300,212.9,1283.1,212.9z"/>
		<path class="st11" d="M1283.1,242.6c-1.9,0-3.7-0.5-4.7-1.3c-11.6-9.7-18.5-17.5-18.8-17.8c-1.3-1.4,0-3.2,2.3-4.2
			c2.1-1,6.2-1,8.2,0.6c0.1,0.1,6.2,6.3,13.9,13.3c7.7-10.1,15.5-17.4,23.7-23.6c1.7-1.3,4.4-1.9,6.9-1.1c2.5,0.9,2.3,2.3,0.6,3.6
			c-9.3,7-19,16.1-26.9,28.6c-0.7,1.1-2.5,1.8-4.6,1.9C1283.5,242.6,1283.3,242.6,1283.1,242.6L1283.1,242.6z"/>
	</g>
</g>
<g>
	<g>
		<g class="st12">
			<g>
				<path d="M1107.9,151.5c-0.3,0-0.5,0-0.8-0.1c-0.2-0.1-0.5-0.2-0.7-0.3s-0.4-0.3-0.5-0.5s-0.2-0.4-0.2-0.6l-2.7-18.9
					c0-0.2,0-0.4,0.1-0.6c0.1-0.2,0.2-0.3,0.4-0.4c0.2-0.1,0.4-0.2,0.6-0.3s0.5-0.1,0.8-0.1s0.5,0,0.8,0.1c0.2,0.1,0.5,0.2,0.7,0.3
					s0.4,0.3,0.5,0.4c0.1,0.2,0.2,0.4,0.2,0.6l2.8,18.9c0,0.2,0,0.4-0.1,0.6s-0.2,0.3-0.4,0.5c-0.2,0.1-0.4,0.2-0.6,0.3
					C1108.5,151.4,1108.2,151.5,1107.9,151.5z"/>
			</g>
			<g>
				<polygon class="st13" points="1103.4,223 782.8,223 803.3,69.3 1083,69.3 				"/>
			</g>
			<g>
				<polygon class="st13" points="1103.4,223 782.8,223 803.3,69.3 1083,69.3 				"/>
			</g>
			<g>
				<path class="st14" d="M1118.7,239.3H767.4c-2.2,0-4.2-0.3-6-1c-1.8-0.6-3.3-1.5-4.6-2.7c-1.2-1.1-2.2-2.5-2.7-3.9
					c-0.6-1.5-0.7-3.1-0.5-4.8L779,66.4c0.2-1.2,0.7-2.4,1.6-3.5c0.8-1.1,1.9-2,3.3-2.8c1.3-0.8,2.8-1.4,4.5-1.9
					c1.6-0.4,3.4-0.7,5.2-0.7h298.8c1.8,0,3.6,0.2,5.2,0.7c1.6,0.4,3.2,1.1,4.5,1.9s2.4,1.8,3.3,2.8c0.8,1.1,1.4,2.2,1.6,3.5
					l25.4,160.5c0.3,1.7,0.1,3.3-0.5,4.8s-1.5,2.8-2.7,3.9c-1.3,1.1-2.8,2-4.6,2.7C1122.9,238.9,1120.9,239.3,1118.7,239.3z
					 M1083,69.3H803.3L782.9,223h320.6L1083,69.3L1083,69.3z M1106.9,131.2c0-0.2-0.1-0.4-0.2-0.6c-0.1-0.2-0.3-0.3-0.5-0.4
					c-0.2-0.1-0.4-0.2-0.7-0.3c-0.2-0.1-0.5-0.1-0.8-0.1s-0.6,0-0.8,0.1c-0.2,0.1-0.4,0.2-0.6,0.3s-0.3,0.3-0.4,0.4
					c-0.1,0.2-0.1,0.4-0.1,0.6l2.7,18.9c0,0.2,0.1,0.4,0.2,0.6c0.1,0.2,0.3,0.3,0.5,0.5c0.2,0.1,0.4,0.2,0.7,0.3
					c0.3,0.1,0.5,0.1,0.8,0.1s0.6,0,0.8-0.1c0.2-0.1,0.4-0.2,0.6-0.3s0.3-0.3,0.4-0.5s0.1-0.4,0.1-0.6L1106.9,131.2L1106.9,131.2z"
					/>
			</g>
			<g>
				<path class="st15" d="M1119,241.3H767.1c-2.5,0-4.9-0.4-6.9-1.2c-2.1-0.7-3.9-1.8-5.3-3.1c-1.4-1.3-2.5-2.9-3.2-4.6
					c-0.6-1.7-0.8-3.6-0.5-5.6L777,66.4c0.2-1.4,0.9-2.8,1.9-4.1c1-1.2,2.3-2.4,3.8-3.3s3.3-1.7,5.2-2.2s4-0.8,6.1-0.8h298.3
					c2.1,0,4.2,0.3,6.1,0.8s3.7,1.3,5.2,2.2c1.5,0.9,2.9,2,3.8,3.3c1,1.3,1.6,2.6,1.9,4.1l25.8,160.5c0.3,2,0.1,3.8-0.5,5.6
					c-0.7,1.7-1.7,3.3-3.2,4.6s-3.3,2.4-5.3,3.1C1123.9,240.9,1121.6,241.3,1119,241.3z M1107.1,66.4c-0.2-1.2-0.8-2.4-1.6-3.5
					c-0.8-1.1-2-2-3.3-2.8s-2.9-1.4-4.5-1.9c-1.6-0.4-3.4-0.7-5.2-0.7H793.7c-1.8,0-3.6,0.2-5.2,0.7c-1.6,0.4-3.2,1.1-4.5,1.9
					s-2.4,1.8-3.3,2.8c-0.8,1.1-1.4,2.2-1.6,3.5l-25.4,160.5c-0.3,1.7-0.1,3.3,0.5,4.8c0.5,1.5,1.5,2.8,2.7,3.9
					c1.2,1.1,2.8,2,4.6,2.7c1.8,0.6,3.8,1,6,1h351.3c2.2,0,4.2-0.3,6-1c1.8-0.6,3.3-1.5,4.6-2.7c1.3-1.1,2.2-2.5,2.7-3.9
					c0.6-1.5,0.7-3.1,0.5-4.8L1107.1,66.4L1107.1,66.4z"/>
			</g>
			<path class="st2" d="M1133.1,235.1c-0.9,1.3-2.1,2.4-3.5,3.3s-3,1.7-4.8,2.2s-3.7,0.8-5.8,0.8H767.1c-2.1,0-4-0.3-5.8-0.8
				s-3.4-1.2-4.7-2.1c-1.4-0.9-2.5-2-3.4-3.3c-0.9-1.2-1.5-2.6-1.9-4.1l1.4,6.1c0.3,1.5,1,2.9,1.8,4.1c0.9,1.2,2.1,2.3,3.4,3.3
				c1.4,0.9,3,1.6,4.7,2.1c1.8,0.5,3.7,0.8,5.7,0.8h349.4c2.1,0,4-0.3,5.8-0.8s3.4-1.2,4.8-2.2c1.4-0.9,2.5-2,3.4-3.3
				c0.9-1.2,1.5-2.6,1.9-4.1l1.4-6.1C1134.6,232.5,1134,233.9,1133.1,235.1z"/>
		</g>
	</g>
	<g>
		<polygon class="st16" points="809,72.7 789.5,219.6 942.7,219.6 942.7,72.7 		"/>
		
			<linearGradient id="SVGID_2_" gradientUnits="userSpaceOnUse" x1="791.4" y1="216.894" x2="942.7" y2="216.894" gradientTransform="matrix(1 0 0 -1 0 360)">
			<stop  offset="0" style="stop-color:#C5C5C5"/>
			<stop  offset="0.309" style="stop-color:#C4C4C4"/>
			<stop  offset="0.6404" style="stop-color:#C5C5C5"/>
			<stop  offset="0.8628" style="stop-color:#C2C2C2"/>
			<stop  offset="0.9663" style="stop-color:#BDBDBD"/>
			<stop  offset="0.9944" style="stop-color:#BBBBBB"/>
		</linearGradient>
		<path class="st17" d="M810.6,70.3c10.3,3,121.8-6.9,132.1,0.9c0,12.2,0,134.6,0,146.9c-11.9-9.1-139.4,5.6-151.3-3.5L810.6,70.3z"
			/>
		
			<linearGradient id="SVGID_3_" gradientUnits="userSpaceOnUse" x1="793.4" y1="219.9278" x2="942.7" y2="219.9278" gradientTransform="matrix(1 0 0 -1 0 360)">
			<stop  offset="0" style="stop-color:#D8D8D8"/>
			<stop  offset="0.309" style="stop-color:#D5D5D5"/>
			<stop  offset="0.6404" style="stop-color:#D8D8D8"/>
			<stop  offset="0.8171" style="stop-color:#D5D5D5"/>
			<stop  offset="0.9398" style="stop-color:#CCCCCC"/>
			<stop  offset="0.9663" style="stop-color:#C9C9C9"/>
			<stop  offset="0.9944" style="stop-color:#C3C3C3"/>
		</linearGradient>
		<path class="st18" d="M812.2,67.9c20.6,6,109.9-13.8,130.5,1.8c0,24.5,0,122.4,0,146.9c-23.8-18.2-125.5,11.2-149.3-7L812.2,67.9z
			"/>
		
			<linearGradient id="SVGID_4_" gradientUnits="userSpaceOnUse" x1="797.2" y1="226.05" x2="942.7" y2="226.05" gradientTransform="matrix(1 0 0 -1 0 360)">
			<stop  offset="0" style="stop-color:#FDFDFD"/>
			<stop  offset="0.1575" style="stop-color:#F9F9F9"/>
			<stop  offset="0.2284" style="stop-color:#FBFBFB"/>
			<stop  offset="0.6404" style="stop-color:#FFFFFF"/>
			<stop  offset="0.829" style="stop-color:#FDFDFD"/>
			<stop  offset="0.8969" style="stop-color:#F6F6F6"/>
			<stop  offset="0.9454" style="stop-color:#EBEBEB"/>
			<stop  offset="0.9842" style="stop-color:#DADADA"/>
			<stop  offset="0.9944" style="stop-color:#D4D4D4"/>
		</linearGradient>
		<path class="st19" d="M815.4,63c41.1,12,86.2-27.7,127.3,3.7c0,49,0,97.9,0,146.9c-47.6-36.3-97.8,22.4-145.5-13.9L815.4,63z"/>
	</g>
	<g>
		<polygon class="st16" points="1076.4,72.7 1095.9,219.6 942.7,219.6 942.7,72.7 		"/>
		
			<linearGradient id="SVGID_5_" gradientUnits="userSpaceOnUse" x1="588.4764" y1="216.894" x2="739.7765" y2="216.894" gradientTransform="matrix(-1 0 0 -1 1682.4766 360)">
			<stop  offset="0" style="stop-color:#C5C5C5"/>
			<stop  offset="0.309" style="stop-color:#C4C4C4"/>
			<stop  offset="0.6404" style="stop-color:#C5C5C5"/>
			<stop  offset="0.8628" style="stop-color:#C2C2C2"/>
			<stop  offset="0.9663" style="stop-color:#BDBDBD"/>
			<stop  offset="0.9944" style="stop-color:#BBBBBB"/>
		</linearGradient>
		<path class="st20" d="M1074.8,70.3c-10.3,3-121.8-6.9-132.1,0.9c0,12.2,0,134.6,0,146.9c11.9-9.1,139.4,5.6,151.3-3.5L1074.8,70.3
			z"/>
		
			<linearGradient id="SVGID_6_" gradientUnits="userSpaceOnUse" x1="590.4766" y1="219.9278" x2="739.7766" y2="219.9278" gradientTransform="matrix(-1 0 0 -1 1682.4766 360)">
			<stop  offset="0" style="stop-color:#D8D8D8"/>
			<stop  offset="0.309" style="stop-color:#D5D5D5"/>
			<stop  offset="0.6404" style="stop-color:#D8D8D8"/>
			<stop  offset="0.8171" style="stop-color:#D5D5D5"/>
			<stop  offset="0.9398" style="stop-color:#CCCCCC"/>
			<stop  offset="0.9663" style="stop-color:#C9C9C9"/>
			<stop  offset="0.9944" style="stop-color:#C3C3C3"/>
		</linearGradient>
		<path class="st21" d="M1073.2,67.9c-20.6,6-109.9-13.8-130.5,1.8c0,24.5,0,122.4,0,146.9c23.8-18.2,125.5,11.2,149.3-7
			L1073.2,67.9z"/>
		
			<linearGradient id="SVGID_7_" gradientUnits="userSpaceOnUse" x1="594.2766" y1="226.05" x2="739.7766" y2="226.05" gradientTransform="matrix(-1 0 0 -1 1682.4766 360)">
			<stop  offset="0" style="stop-color:#FDFDFD"/>
			<stop  offset="0.1575" style="stop-color:#F9F9F9"/>
			<stop  offset="0.2284" style="stop-color:#FBFBFB"/>
			<stop  offset="0.6404" style="stop-color:#FFFFFF"/>
			<stop  offset="0.829" style="stop-color:#FDFDFD"/>
			<stop  offset="0.8969" style="stop-color:#F6F6F6"/>
			<stop  offset="0.9454" style="stop-color:#EBEBEB"/>
			<stop  offset="0.9842" style="stop-color:#DADADA"/>
			<stop  offset="0.9944" style="stop-color:#D4D4D4"/>
		</linearGradient>
		<path class="st22" d="M1070,63c-41.1,12-86.2-27.7-127.3,3.7c0,49,0,97.9,0,146.9c47.6-36.3,97.8,22.4,145.5-13.9L1070,63z"/>
	</g>
</g>
<g>
	<path class="st23" d="M1248.6,160.3c-14,0-26-2.3-32.4-5.7v6.6l0,0c0,5.2,14.5,9.5,32.4,9.5s32.4-4.3,32.4-9.5v-6.6
		C1274.6,158,1262.5,160.3,1248.6,160.3z"/>
	<path class="st24" d="M1248.6,101.2c-20.5,0-37.1-4.9-37.2-10.9v59l0,0c0,6,16.6,10.9,37.2,10.9c20.5,0,37.2-4.9,37.2-10.9v-59
		C1285.7,96.3,1269.1,101.2,1248.6,101.2z"/>
	<path class="st25" d="M1285.7,90.3c0,6-16.6,10.9-37.2,10.9c-20.5,0-37.2-4.9-37.2-10.9s16.6-10.9,37.2-10.9
		S1285.7,84.3,1285.7,90.3z"/>
	<path class="st26" d="M1248.6,79.4c-20.5,0-37.2,4.9-37.2,10.9s16.6,10.9,37.2,10.9c20.5,0,37.2-4.9,37.2-10.9
		C1285.7,84.3,1269.1,79.4,1248.6,79.4z M1248.6,99.9c-18,0-32.5-4.3-32.5-9.6c0-5.3,14.6-9.6,32.5-9.6c18,0,32.5,4.3,32.5,9.6
		S1266.5,99.9,1248.6,99.9z"/>
	<g>
		<path class="st27" d="M1248.6,99.9c0.3,0,0.6,0,0.8,0l-2-64.5l-19.9,0.7l1.9,62C1234.8,99.2,1241.4,99.9,1248.6,99.9z"/>
		<polygon class="st28" points="1233.8,24.6 1240.2,24.4 1247.4,35.4 1227.5,36 		"/>
		<polygon class="st28" points="1233.6,17.2 1239.9,17 1240.2,24.4 1233.8,24.6 		"/>
		<polygon class="st27" points="1234.7,17.2 1234.5,13.1 1239,11.6 1239.2,17 		"/>
	</g>
	<g>
		<path class="st29" d="M1216.2,89.2L1216.2,89.2l0.1,2.5c1.6,3.3,8.7,6,18.5,7.3l-2.5-47.9l-18.1,0.9l1.8,34.3L1216.2,89.2z"/>
		<polygon class="st30" points="1220.5,41.3 1225.1,41 1232.4,51.1 1214.3,52 		"/>
		<polygon class="st30" points="1220.1,34.4 1224.8,34.1 1225.1,41 1220.5,41.3 		"/>
		<polygon class="st31" points="1220.4,34.3 1220.2,30.5 1223.5,29.1 1223.8,34.2 		"/>
		<g>
			<polygon class="st29" points="1231,24.5 1212.8,25.5 1214.2,51.5 1232.4,50.5 			"/>
			<polygon class="st32" points="1213.3,33.7 1213.1,30.8 1207.8,31 1209.8,69.3 1213,69.1 1211.1,33.8 			"/>
		</g>
	</g>
	<g>
		<path class="st33" d="M1263.7,98.8l0.6-55.1l-15.1-0.4l-0.6,56.7C1254,99.9,1259.2,99.5,1263.7,98.8z"/>
		<polygon class="st30" points="1258.8,33 1254.8,32.9 1249.2,43.2 1264.3,43.6 		"/>
		<polygon class="st30" points="1258.8,26.1 1254.9,26 1254.8,32.9 1258.8,33 		"/>
		<polygon class="st31" points="1258.6,26.1 1258.6,22.3 1255.8,21 1255.8,26.1 		"/>
		<g>
			<polygon class="st33" points="1249.4,16.4 1264.6,16.9 1264.3,42.9 1249.2,42.4 			"/>
			<polygon class="st32" points="1264.5,25.1 1264.5,22.2 1268.9,22.3 1268.5,60.6 1265.9,60.5 1266.3,25.2 			"/>
		</g>
	</g>
	<g>
		<path class="st34" d="M1279.7,93l1.5-48.7l-14.7-0.4l-1.7,54.6C1271.9,97.4,1277.3,95.4,1279.7,93z"/>
		<polygon class="st28" points="1271.9,33.7 1276.6,33.8 1281.3,44.4 1266.6,43.9 		"/>
		<polygon class="st28" points="1272.1,26.7 1276.8,26.9 1276.6,33.8 1271.9,33.7 		"/>
		<polygon class="st31" points="1272.9,26.8 1273,23 1276.4,21.8 1276.2,26.9 		"/>
	</g>
	<g>
		<path class="st35" d="M1248.6,99.9c1.8,0,3.6-0.1,5.3-0.1l0.1-46.9h-14.7l-0.1,46.6C1242.1,99.7,1245.3,99.9,1248.6,99.9z"/>
		<polygon class="st28" points="1244.2,42.4 1248.9,42.4 1254,52.9 1239.2,52.8 		"/>
		<polygon class="st28" points="1244.2,35.5 1248.9,35.5 1248.9,42.4 1244.2,42.4 		"/>
		<polygon class="st35" points="1245,35.5 1245,31.7 1248.4,30.4 1248.4,35.5 		"/>
	</g>
</g>
<g>
	<path class="st36" d="M1497.8,59c-0.3-1.7-1-3.8-2.9-5.2l-96.5,9.3c1.1,0.5,1.9,1.4,2,2.6c0.1,1.1-0.4,2-1.1,2.7L1497.8,59z"/>
	<g>
		<g>
			<path class="st37" d="M1396.8,62.8l-17.1,1.7c-0.4,0-0.7,0.2-1.1,0.3c-0.9,0.3-1.6,0.9-1.9,1.9l-6.9,18.3
				c-0.6,1.7,0.2,3.5,1.9,4.2c1.7,0.6,3.6-0.2,4.2-1.9l6.2-16.5l15.4-1.5c1.8-0.1,3.1-1.8,2.9-3.6
				C1400.2,64,1398.6,62.7,1396.8,62.8z"/>
		</g>
	</g>
	<path class="st36" d="M1465.2,63l-96.4-9c-1.9,1.3-2.6,3.4-2.9,5.2l98.5,9.2c-0.7-0.7-1.2-1.6-1.1-2.7
		C1463.3,64.5,1464.1,63.5,1465.2,63z"/>
	<g>
		<g>
			<path class="st37" d="M1466.7,62.8l17.1,1.6c0.4,0,0.7,0.2,1.1,0.3c0.9,0.3,1.6,0.9,1.9,1.8l6.9,18.2c0.7,1.7-0.2,3.6-1.8,4.2
				c-1.7,0.6-3.6-0.2-4.2-1.9l-6.3-16.5l-15.3-1.5c-1.8-0.2-3.1-1.8-3-3.6C1463.3,63.9,1465,62.6,1466.7,62.8z"/>
		</g>
	</g>
	<path class="st14" d="M1509.6,50.2c-2.5-0.8-37.2-10.6-61.4-3.2c-2.7,0.8-4.7,2.1-6.1,3.6c-6.8,4.4-13.6,4.4-20.4,0
		c-1.5-1.5-3.4-2.8-6.1-3.6c-24.3-7.3-59,2.6-61.5,3.4c-2.5,0.8,0,11.2,1.9,11.2c1.8,0,3.3-0.1,3.6,4.2c0.8,13.4,5.9,28.9,31.7,28.9
		c21.8,0,30-8.4,32.8-21.8c0.7-3.1,2.2-11.4,7.8-11.4c5.6,0,7.2,8.5,7.9,11.6c2.9,13.3,11.2,21.5,32.9,21.5
		c25.9,0,30.9-15.5,31.6-29c0.2-4.3,1.8-4.2,3.6-4.2C1509.6,61.4,1512.1,50.9,1509.6,50.2z M1391,89.4c-21.1,0-25.4-11.2-25.4-28.2
		c0-1.7,0.4-7.1,5.3-8.2c0.1,0,0.2,0,0.2-0.1c6.1-1.7,13.5-2.6,21.4-2.7c8.1,0,16,1,22.2,2.8c0,0,0.1,0,0.2,0c4,0.9,4,7.7,4,7.9
		C1418.3,80.2,1413.9,89.4,1391,89.4z M1472.6,89.3c-22.9,0-27.3-9.2-28-28.3c0-0.3,0-7,4-7.9c0,0,0.1,0,0.2-0.1
		c6.2-1.8,14-2.8,22.2-2.8c7.9,0,15.3,0.9,21.4,2.6c0,0,0.1,0.1,0.2,0c5,1.1,5.4,6.5,5.4,8.2C1498,78,1493.7,89.3,1472.6,89.3z"/>
	<path class="st38" d="M1490.4,54.4c-0.1,0-0.2,0-0.2-0.1c-5.5-1.5-12.2-2.4-19.3-2.3c-5.2,0-10.3,0.5-14.8,1.3
		c2.4,18,10.1,27.3,33.4,28.4c4.4-4.5,5.6-11.4,5.6-20C1495.2,60.3,1494.9,55.4,1490.4,54.4z"/>
	<path class="st38" d="M1411.3,54.4c-0.1,0-0.1,0-0.2-0.1c-5.5-1.5-12.2-2.4-19.3-2.3c-5.2,0-10.2,0.5-14.8,1.3
		c2.4,18,10.1,27.3,33.4,28.4c4.4-4.5,5.6-11.4,5.6-20C1416.1,60.3,1415.8,55.4,1411.3,54.4z"/>
</g>
<g class="st12">
	<path class="st39" d="M1425.5,245.7l-71.5,0.9c-1.1,0-2.2-0.1-3.3-0.4c-1-0.3-2-0.7-2.9-1.2c-0.8-0.5-1.6-1.1-2.1-1.8
		c-0.6-0.7-0.9-1.5-1.1-2.3l-6.2-110.3c-0.1-0.6,0-1.2,0.2-1.7s0.7-1,1.2-1.4c0.6-0.4,1.2-0.7,2-0.9c0.8-0.2,1.7-0.3,2.7-0.4l63.5-1
		c0.9,0,1.8,0.1,2.7,0.3c0.9,0.2,1.7,0.5,2.4,0.9c0.7,0.4,1.4,0.8,1.9,1.3s0.9,1.1,1.1,1.7l15.1,110.1c0.3,0.8,0.3,1.6,0.1,2.3
		c-0.2,0.7-0.5,1.3-1,1.9c-0.5,0.5-1.2,1-2.1,1.3C1427.5,245.5,1426.5,245.7,1425.5,245.7z"/>
	<g>
		<path class="st40" d="M1396.5,242.9l-16,0.2c-0.3,0-0.5,0-0.8-0.1c-0.2-0.1-0.5-0.2-0.7-0.3s-0.4-0.2-0.5-0.4
			c-0.1-0.1-0.2-0.3-0.3-0.4l-0.3-1.3c0-0.2,0-0.3,0-0.5c0.1-0.2,0.2-0.3,0.3-0.4c0.2-0.1,0.3-0.2,0.5-0.2c0.2-0.1,0.4-0.1,0.7-0.1
			l15.9-0.2c0.3,0,0.5,0,0.7,0.1s0.5,0.2,0.7,0.3s0.4,0.2,0.5,0.4s0.2,0.3,0.3,0.5l0.4,1.3c0.1,0.2,0,0.3,0,0.5
			c0,0.1-0.1,0.3-0.3,0.4c-0.1,0.1-0.3,0.2-0.5,0.3C1397,242.9,1396.8,242.9,1396.5,242.9z"/>
	</g>
	<g>
		<g>
			<polygon class="st41" points="1423.5,233.3 1350.5,234.1 1343.9,131.1 1411,130.1 			"/>
		</g>
	</g>
	
		<linearGradient id="SVGID_8_" gradientUnits="userSpaceOnUse" x1="1387.1699" y1="171.0304" x2="1426.1401" y2="185.157" gradientTransform="matrix(1 0 0 -1 0 360)">
		<stop  offset="0" style="stop-color:#FFFFFF"/>
		<stop  offset="1" style="stop-color:#524F4F"/>
	</linearGradient>
	<path class="st42" d="M1407.5,246l18-0.2c1.1,0,2-0.2,2.9-0.6c0.8-0.3,1.5-0.8,2.1-1.3c0.5-0.5,0.9-1.2,1-1.9
		c0.2-0.7,0.1-1.5-0.1-2.3l-15.3-110.1c-0.2-0.6-0.6-1.1-1.1-1.7c-0.5-0.5-1.1-1-1.9-1.3c-0.7-0.4-1.5-0.7-2.4-0.9s-1.8-0.3-2.7-0.3
		l-43.8,0.7L1407.5,246z"/>
	<path class="st43" d="M1431.4,242.1c-0.1,0.5-0.4,1-0.7,1.4c-0.3,0.4-0.8,0.8-1.3,1.1s-1.1,0.6-1.8,0.8c-0.7,0.2-1.4,0.3-2.2,0.3
		l-71.5,0.9c-1.1,0-2.2-0.1-3.3-0.4c-1-0.3-2-0.7-2.9-1.2c-0.8-0.5-1.6-1.1-2.1-1.8c-0.6-0.7-0.9-1.5-1.1-2.3l-6.2-110.5
		c0,3.1,0,12.6,0,13c0,0.9,0.3,2.4,0.3,2.4l4.1,102.6c0.2,0.8,0.5,1.6,1.1,2.3c0.5,0.7,1.3,1.3,2.1,1.8c0.8,0.5,1.8,0.9,2.8,1.2
		s2.1,0.4,3.2,0.3c0,0,71.8-0.7,73.6-0.7c1.7,0,5.9-1.3,5.9-4.1C1431.5,246.3,1431.4,242.1,1431.4,242.1z"/>
</g>
<g>
	<path class="st44" d="M1396.6,294.3c0-0.2,0-0.4-0.1-0.6c-0.5-2.2-1-4.5-1.4-6.7c-0.5-2.2-3.6-4.1-6.9-4.1c-0.4,0-0.8,0-1.2,0
		c2.9,0.3,5.4,1.9,5.9,3.9c0.5,2.1,0.9,4.3,1.4,6.5c0.5,2.1-1.9,3.9-5.2,3.9c-8.6,0-17.3,0-25.9,0v11.7c5.6,0,17.4,0,26.8,0
		c3.7,0,6.7-3,6.6-6.7C1396.6,299.8,1396.6,294.6,1396.6,294.3z"/>
	<path class="st45" d="M1264,300.6c0-2,0-3.8,0-4c0-0.1,0-0.1,0-0.2c0.8-4,1.6-7.9,2.3-11.9h-2.8c-1.8,0-3.3,1.2-3.7,3
		c-0.5,2.1-0.9,4.3-1.4,6.4c0,0.2-0.1,0.3-0.1,0.5c0,0.7,0,5.9,0,6.1c0.1,1.1,1,2,2.1,2h3.9C1264.1,301.9,1264,301.2,1264,300.6z"/>
	<path class="st11" d="M1266.7,293.1c0.6-3.1,1.3-6.4,1.8-8.9c0.1-0.6,0.9-1.1,1.8-1.3c-0.6,0-1.2,0-1.7,0c-1.1,0-2.1,0.6-2.3,1.4
		c-0.8,4-1.6,8-2.4,12c0,0.1,0,0.1,0,0.2c0,0.2,0,5,0,7c0,2.9,2.4,5.3,5.3,5.3c30.6,0,63.6,0,93.9,0v-11.7c-29.6,0-63.1,0-93.2,0
		C1267.9,297.2,1266.3,295.2,1266.7,293.1z"/>
	<path class="st46" d="M1264,296.5c0.8-4,1.6-8,2.4-12h-2.9c-1.8,0-3.3,1.2-3.7,3c-0.5,2.1-0.9,4.3-1.4,6.4
		c-0.3,1.3,0.7,2.5,2.1,2.5h3.5V296.5z"/>
	<path class="st47" d="M1361.6,282.9c-30.3,0-60.6,0-90.8,0c-1.1,0-2.1,0.6-2.2,1.3c-0.5,2.5-1.2,5.8-1.8,8.9
		c-0.4,2.1,1.2,4.1,3.3,4.1c30.1,0,63.6,0,93.2,0C1362.6,292.4,1362.1,287.6,1361.6,282.9z"/>
	<path class="st48" d="M1394.3,293.2c-0.5-2.1-0.9-4.3-1.4-6.5s-3.4-3.9-6.6-3.9c-8.2,0-16.5,0-24.7,0c0.5,4.8,1.1,9.5,1.6,14.3
		c8.6,0,17.3,0,25.9,0C1392.4,297.1,1394.8,295.4,1394.3,293.2z"/>
	<g>
		<path class="st45" d="M1390.9,302.1l-0.3-1.6c-1.2,0-2.5,0-3.7,0v1.6v0.2l-43.6-0.1l0,0c-0.7,0.1-1.2,0.6-1.2,1.3
			c0,0.3,0,1.3,0,1.6c0,0.7,0.6,1.3,1.3,1.3l45.2,0.1c1.3,0,2.3-1,2.3-2.2c0-0.2,0-1.5,0-1.7
			C1390.9,302.4,1390.9,302.2,1390.9,302.1z"/>
		<path class="st46" d="M1390.6,300.5c-1.2,0-2.5,0-3.7,0l0.3,1.8l-43.9-0.1l0,0c-0.7,0.1-1.2,0.6-1.2,1.3c0,0.7,0.6,1.3,1.3,1.3
			l45.2,0.1c1.5,0,2.6-1.3,2.3-2.7L1390.6,300.5z"/>
	</g>
</g>
<g>
	
		<linearGradient id="SVGID_9_" gradientUnits="userSpaceOnUse" x1="1081.0277" y1="166.6863" x2="1059.0436" y2="111.3189" gradientTransform="matrix(1 0 0 -1 0 360)">
		<stop  offset="0" style="stop-color:#EFCA9D"/>
		<stop  offset="1" style="stop-color:#E1BC8F"/>
	</linearGradient>
	<path class="st49" d="M1116.2,242c11.9-3.3,20.9-2.4,26.6,1c-4.1-10.9-7.6-20.1-7.8-20.7c-0.7-11.1,7.3-37.1-8.7-78.4
		c-1.3-3.4-4-8.7-3.4-7.5c-1,2.3-1.7,3.3-4,4.3c-3.3,1.4-4.4,0.1-8.2,1.1c-3.8,1-2.5,3.6-7.5,5.6c-3.8,1.6-10.5-0.3-13.6,0.9
		s-5.9,7-10.3,9.1s-12.6,1.8-16,3.4c-3,1.4-3.9,5.4-9.2,7.8c-4.5,2-13.4,1.7-15.1-0.3c4.8,12.8,8.6,22.8,8.6,22.8l-13.3-14.6
		c0,0-1.5-10.2-7.6-17.3c-5.9-6.9-15.1-5.1-13.1,2.1c4,14.3,0,16.3,2.4,22.3c2.3,5.9,23.1,29.6,28.6,34.9c7.6,7.2,33.3,19,37.9,24.4
		c0,0,3.2,8.5,7.2,19C1093,254.1,1100.5,246.4,1116.2,242z"/>
	<path class="st50" d="M1100.3,249.2c-2.1-6.4-3.8-12.1-4.4-14.5c-1.6-6.8-6.2-38.5-18.3-76.7c-4.6,1.4-11.3,1.4-14.3,2.7
		c-3,1.4-3.9,5.4-9.2,7.8c-4.5,2-13.4,1.7-15.1-0.3c4.8,12.8,8.6,22.8,8.6,22.8l-13.3-14.6c0,0-1.5-10.2-7.6-17.3
		c-5.9-6.9-15.1-5.1-13.1,2.1c4,14.3,0,16.3,2.4,22.3c2.3,5.9,23.1,29.6,28.6,34.9c7.6,7.2,33.3,19,37.9,24.4c0,0,3.2,8.5,7.2,19
		C1091.6,257.4,1094.9,253,1100.3,249.2z"/>
	<g>
		<path class="st50" d="M1038.9,168.2L1038.9,168.2C1038.8,168,1038.8,167.9,1038.9,168.2z"/>
	</g>
	<path class="st51" d="M1026.1,175c-0.1-3-0.3-11.4-7.9-20.2c-3.3,0.1-5.7,2.4-4.5,6.4c4,14.3,0,16.3,2.4,22.3
		c0.1,0.4,0.3,0.8,0.6,1.2C1023,185.8,1026.2,180.1,1026.1,175z"/>
	<path class="st51" d="M1106.9,128.4c-7.2-1.7-11.8-2.9-14.4,2.7c-4.1-2.2-9.3-3.8-11.4-4.6c-9.6-3.5-13.5,1-15.8,3
		c-6-3.9-8.8-6.3-13.3-7.6c-5.3-1.5-10.6,1-11.2,5.9c-3.5-5.3-7.1-7.7-13.9-11.1c-7.2-3.7-13.2-5.4-14.9-6c-4.9-1.8-6.8-2.5-9.3-1.9
		c-5.5,1.3-7.5,7.2-1,12.4c6.7,5.4,10.5,8.2,20.1,14.1c5.4,9.3,12.9,21.6,17.2,32.9c1.6,2.1,10.6,2.4,15.1,0.4
		c5.3-2.4,6.2-6.4,9.2-7.8c3.3-1.5,11.6-1.3,16-3.4c4.4-2.1,7.2-7.9,10.3-9.1c3.1-1.2,9.8,0.7,13.6-0.9c5-2.1,3.7-4.6,7.5-5.6
		s4.9,0.3,8.2-1.1c2.3-1,3.1-2.1,4-4.3C1120,132.4,1111.6,129.5,1106.9,128.4z"/>
	<path class="st50" d="M1093.2,255.9c-2.7-7.5-5.6-15.5-7.1-18.7c-10-27.5-28.2-58.5-32.1-68.6c-11.8-2.8-17.7-27.5-26.6-39.6
		c-15.1-7.3-32.5-16-25-20.1c-5.3,1.4-7.1,7.2-0.7,12.3c6.7,5.4,10.5,8.2,20.1,14.1c5.4,9.3,12.9,21.6,17.2,32.9
		c0.1,0.1,0.2,0.1,0.2,0.2c-0.1-0.1-0.2-0.1-0.2-0.2c4.8,12.8,8.6,22.8,8.6,22.8l-13.3-14.6c0,0-1.5-10.2-7.6-17.3
		c-5.9-6.9-15.1-5.1-13.1,2.1c4,14.3,0,16.3,2.4,22.3c2.3,5.9,23.1,29.6,28.6,34.9c7.6,7.2,33.3,19,37.9,24.4c0,0,3.2,8.5,7.2,19
		C1090.6,259.8,1091.7,257.9,1093.2,255.9z"/>
	<path class="st24" d="M1148.4,249.4c-3.4-8.1-14.8-12.3-32.2-7.4c-26.6,7.4-29.9,24.7-27.8,34.4c1.9,8.3,4.7,19.6,8,32.4h76
		C1162.6,284.1,1153.7,262.2,1148.4,249.4z"/>
	<path class="st52" d="M1100.3,249.2c-12,8.5-13.5,20-11.9,27.3c1.9,8.3,4.7,19.6,8,32.4h16.9
		C1103.9,277.1,1098.1,253.9,1100.3,249.2z"/>
	<g>
		
			<linearGradient id="SVGID_10_" gradientUnits="userSpaceOnUse" x1="1013.4084" y1="197.75" x2="1020.345" y2="197.75" gradientTransform="matrix(1 0 0 -1 0 360)">
			<stop  offset="0" style="stop-color:#FFFFFF"/>
			<stop  offset="1" style="stop-color:#FDE3C8"/>
		</linearGradient>
		<path class="st53" d="M1019.5,158.3c-0.6-1.6-1.7-2.7-2.8-3.3c-2.5,0.7-4,2.8-3,6.2s1.5,6.1,1.7,8.3
			C1017.8,166.6,1022.1,165.2,1019.5,158.3z"/>
		<path class="st54" d="M1018.9,158.2c-1.3-3.5-4.3-3.8-5.6-2.6c-0.9,0.8-0.1,3.8,0.4,5.7c0.9,3.1,1.3,5.5,1.6,7.6
			C1017.4,165.8,1021.3,164.8,1018.9,158.2z"/>
		<path class="st55" d="M1014.7,165.5c0.2,1.2,0.4,2.3,0.6,3.3c1.2-1.8,3-2.9,3.9-4.7C1016.9,164.2,1015.7,164.8,1014.7,165.5z"/>
	</g>
	<path class="st56" d="M1053.6,201.2c-0.3-2.5-5.7-20-8.5-30s-17.7-35-20-38.9c-19.5-9.7-25.8-17.3-26.9-20.6
		c-1.4,2.5-0.7,6.1,3.4,9.4c6.7,5.4,10.5,8.2,20.1,14.1c5.4,9.3,12.9,21.7,17.2,32.9l0,0c4.8,12.8,8.6,22.8,8.6,22.8l-13.2-14.6
		c0,0-1.5-10-7.5-17.1c4.4,8.1,4.7,17.4,4.3,18.7C1032.2,178.8,1046.6,194.7,1053.6,201.2z"/>
	<path class="st56" d="M1062.2,152.6c-6.1-8.6-19.1-25.2-17.3-30.3c-2.2,1-3.8,2.9-4.1,5.5c4.5,6.6,14.1,21,15.8,24
		C1057.5,152.3,1061,152.9,1062.2,152.6z"/>
	<path class="st56" d="M1087.4,142.7c0,0-18.2-11.4-17.5-16.6c-2.2,1-3.6,2.4-4.7,3.4l14.9,12.6L1087.4,142.7z"/>
	<path class="st56" d="M1096.4,127.3c-1.6,0.5-3,1.6-4,3.8l13.5,5.7l4.6-1C1110.5,135.7,1090.4,130.5,1096.4,127.3z"/>
	<g>
		
			<linearGradient id="SVGID_11_" gradientUnits="userSpaceOnUse" x1="997.2033" y1="251.7227" x2="1011.0392" y2="246.337" gradientTransform="matrix(1 0 0 -1 0 360)">
			<stop  offset="0" style="stop-color:#FFFFFF"/>
			<stop  offset="1" style="stop-color:#FDE3C8"/>
		</linearGradient>
		<path class="st57" d="M1012,110.7c-4.9-1.8-6.8-2.5-9.3-1.9c-1.3,0.3-2.3,0.8-3.1,1.5c0.5,1.2,1.6,2.7,3,3.5
			c6.3,3.6,8.5-0.4,11.8-2.4C1013.3,111.2,1012.5,110.9,1012,110.7z"/>
		<path class="st54" d="M1002.7,113.1c-3.3-1.9-3.1-4.9-1.7-6c1-0.8,3.8,0.5,5.5,1.3c2.9,1.3,5.2,2.2,7.2,2.8
			C1010.4,112.8,1008.8,116.6,1002.7,113.1z"/>
		<path class="st55" d="M1010.6,110.2c1.2,0.4,2.2,0.8,3.2,1.1c-1.9,0.9-3.3,2.5-5.3,3.1C1008.9,112.2,1009.7,111,1010.6,110.2z"/>
	</g>
</g>
<g>
	<g>
		<path class="st58" d="M673.4,96.1h-2.3c-2,0-3.9,1-4.2,2.3l-1.2,5.2c0,0.1,0,0.2,0,0.3c0,0.3,0,2.3,0,2.4c0,1.1,1.3,1.9,3.2,1.9
			h2.3c0-0.1,2.3-9.7,2.3-9.8C673.4,98.5,673.4,96.2,673.4,96.1z M668.5,104.2l0.8-3.5c0.1-0.3,0.5-0.6,1-0.7l-1,4.4l0,0
			C668.9,104.4,668.7,104.4,668.5,104.2z"/>
		<path class="st59" d="M671.2,105.7l2.2-9.5c0,0,0-0.1,0.1-0.1h-2.3c-2,0-3.9,1-4.2,2.3l-1.2,5.2c-0.3,1.3,1.1,2.3,3.1,2.3h2.3
			C671.2,105.8,671.2,105.8,671.2,105.7z M669.2,104.4c-0.7,0-1.3-0.4-1.2-0.8l1.2-5.2c0.1-0.4,0.8-0.8,1.5-0.8l0,0L669.2,104.4
			L669.2,104.4z"/>
	</g>
	<g>
		<path class="st60" d="M731.4,93.1c-0.1-1.3-1.7-2.3-3.9-2.3h-48.8c-2.5,0-4.8,1.3-5.2,2.8l-2.2,9.5c0,0.2-0.1,0.3-0.1,0.5
			c0,0.7,0,6.5,0,6.7c0,1.3,1.7,2.4,3.9,2.4h49c2.5,0,4.8-1.3,5.2-2.8l2.1-9.5c0-0.1,0-0.3,0-0.4C731.4,99.2,731.4,93.2,731.4,93.1z
			"/>
		<path class="st61" d="M675.1,105.9c-2.5,0-4.3-1.3-3.9-2.8l2.2-9.5c0.4-1.5,2.7-2.8,5.2-2.8h48.8c2.5,0,4.3,1.3,3.9,2.8l-2.1,9.5
			c-0.4,1.6-2.7,2.8-5.2,2.8H675.1z"/>
	</g>
	<g>
		<path class="st62" d="M744.5,95.2h-13l-0.1,0.5v0.1l-2.1,9.4v2.7h13.5l1.7-9.9L744.5,95.2L744.5,95.2z"/>
		<path class="st63" d="M731.3,95.8l-2.1,9.4h13.5l1.7-9.9h-13L731.3,95.8C731.3,95.8,731.3,95.8,731.3,95.8z"/>
		<g>
			<g>
				<polygon class="st64" points="736.6,99 737.2,96.6 739.6,96.6 739,99 				"/>
				<polygon class="st64" points="735.5,103.8 736,101.4 738.5,101.4 737.9,103.8 				"/>
			</g>
		</g>
	</g>
</g>
<g>
	<path class="st6" d="M1177.8,241.2c-0.4,2.4-2.8,4.3-5.6,4.3c-2.7,0-4.6-1.9-4.3-4.3c0.4-2.4,2.9-4.3,5.6-4.3
		S1178.1,238.8,1177.8,241.2z"/>
	<path class="st29" d="M1174.8,241.2c-0.1,0.9-1.1,1.7-2.2,1.7c-1,0-1.8-0.7-1.7-1.7c0.1-0.9,1.1-1.7,2.2-1.7
		C1174.2,239.5,1174.9,240.3,1174.8,241.2z"/>
	<path class="st6" d="M1146,105.2c1.6,0,2.9,0.8,3.5,1.9l0,0l-7.2-16.7c-0.4-0.9-1.7-0.6-1.7,0.4c0,0,0,18.3,0.3,18.3
		C1141.3,106.9,1143.6,105.2,1146,105.2z"/>
	<path class="st29" d="M1167.9,241.2c0.4-2.4,2.9-4.3,5.6-4.3c2.1,0,3.7,1.1,4.2,2.7c0,0.1-27.8-131.5-27.8-131.6
		c-0.3-1.6-1.8-2.8-3.8-2.8c-2.5,0-4.7,1.7-5,3.9c-0.1,0.3,0,0.6,0,0.9l27,132.5l0,0C1167.9,242.1,1167.9,241.6,1167.9,241.2z"/>
	<path class="st29" d="M1142.8,93.7c0.6,0,1.1,0.2,1.4,0.6l-1.7-3.9c-0.4-0.9-1.7-0.6-1.7,0.4c0,0,0,1.9,0,4.4
		C1140.9,94.3,1141.8,93.7,1142.8,93.7z"/>
</g>
<g>
	<path class="st6" d="M1194.8,206.2c-0.3,2.6-3,4.7-6,4.8s-5.1-2-4.8-4.6c0.3-2.6,3-4.7,6-4.8C1193,201.5,1195.2,203.6,1194.8,206.2
		z"/>
	<path class="st35" d="M1191.6,206.2c-0.1,1-1.2,1.8-2.3,1.9c-1.2,0-2-0.8-1.9-1.8s1.2-1.8,2.3-1.9
		C1190.8,204.5,1191.7,205.2,1191.6,206.2z"/>
	<path class="st6" d="M1157.1,58.7c1.8,0,3.2,0.8,3.9,2l0,0l-8.2-18c-0.4-1-1.9-0.6-1.8,0.4c0,0,0.4,19.9,0.7,19.9
		C1152,60.7,1154.4,58.7,1157.1,58.7z"/>
	<path class="st35" d="M1184.1,206.4c0.3-2.6,3-4.7,6-4.8c2.3-0.1,4,1.1,4.6,2.8c0,0.1-33.3-142.7-33.3-142.8c-0.3-1.8-2-3.1-4.3-3
		c-2.7,0-5.1,2-5.4,4.3c0,0.4,0,0.7,0,1l32.4,143.8l0,0C1184.1,207.4,1184,206.9,1184.1,206.4z"/>
	<path class="st35" d="M1153.3,46.2c0.7,0,1.2,0.3,1.5,0.7l-1.9-4.3c-0.4-1-1.9-0.6-1.8,0.4c0,0,0,2,0.1,4.8
		C1151.3,47,1152.2,46.2,1153.3,46.2z"/>
</g>
<g>
	<path class="st65" d="M661.2,172c-3.7,0-6.3-1.9-5.8-4.3c0,0.2-0.1,0.4-0.1,0.6c0,0.8,0,6.3,0,6.5c0,2.1,2.5,3.7,5.9,3.7h25.6V172
		H661.2z"/>
	<path class="st66" d="M661.2,172h25.6l2.9-15.3h-25.2c-3.7,0-7,1.9-7.5,4.4l-1.7,6.6C654.9,170.1,657.5,172,661.2,172z"/>
	<path class="st67" d="M720.8,160.5c0-0.1,0-0.1,0-0.2c0,0.2,0,0.5,0,0.7l-1.3,6.6c-0.5,2.4-3.8,4.3-7.5,4.3h-25.2v6.6H712
		c3.7,0,7-1.9,7.5-4.3l1.3-6.6c0-0.2,0.1-0.4,0.1-0.6C720.8,166.3,720.8,160.7,720.8,160.5z"/>
	<path class="st68" d="M712,172c3.7,0,7-1.9,7.5-4.3l1.3-6.6c0.5-2.4-2.1-4.4-5.8-4.4h-25.2l-2.9,15.3H712z"/>
</g>
<g>
	<g>
		<g>
			<rect x="374.2" y="325.1" class="st6" width="215.7" height="27.4"/>
			<rect x="374.2" y="348.5" class="st69" width="215.7" height="1.5"/>
			<rect x="374.2" y="344.3" class="st69" width="215.7" height="1.5"/>
			<rect x="374.2" y="340.1" class="st69" width="215.7" height="1.5"/>
			<rect x="374.2" y="335.8" class="st69" width="215.7" height="1.5"/>
			<rect x="374.2" y="331.6" class="st69" width="215.7" height="1.5"/>
			<rect x="374.2" y="327.4" class="st69" width="215.7" height="1.5"/>
		</g>
		<path class="st70" d="M600.6,335.7v8.2c0,5.9-4.8,10.7-10.7,10.7h-223v5.4h223c8.8,0,16-7.2,16-16.1v-8.2c0-8.8-7.2-16-16-16h-223
			v5.4h223C595.8,325.1,600.6,329.8,600.6,335.7z"/>
		<path class="st71" d="M589.9,325.1v27.4H374.2v-10.2l-7.3,12.4h223c5.9,0,10.7-4.8,10.7-10.7v-8.2
			C600.6,329.8,595.8,325.1,589.9,325.1z"/>
		<path class="st70" d="M415.7,242.6l-48.9,77.1h223h0.1l17.8-77.1L415.7,242.6L415.7,242.6z"/>
		<path class="st72" d="M606,335.7v8.2c0,0.6-0.1,1.2-0.1,1.8c0,0,15.8-80.7,15.8-81.1v-8.4c0-7.6-6.2-13.8-13.8-13.8h-0.1
			L590,319.7C598.8,319.8,606,326.9,606,335.7z"/>
	</g>
	<g>
		
			<linearGradient id="SVGID_12_" gradientUnits="userSpaceOnUse" x1="485.05" y1="40.3" x2="485.05" y2="79.2" gradientTransform="matrix(1 0 0 -1 0 360)">
			<stop  offset="0" style="stop-color:#5E9AA2"/>
			<stop  offset="2.553705e-03" style="stop-color:#5E9BA3"/>
			<stop  offset="7.336604e-02" style="stop-color:#63A5AE"/>
			<stop  offset="0.1729" style="stop-color:#66ABB5"/>
			<stop  offset="0.4495" style="stop-color:#67ADB7"/>
			<stop  offset="0.7486" style="stop-color:#69AEB8"/>
			<stop  offset="0.8564" style="stop-color:#70B2BB"/>
			<stop  offset="0.9329" style="stop-color:#7BB8C0"/>
			<stop  offset="0.9947" style="stop-color:#8CC1C8"/>
			<stop  offset="1" style="stop-color:#8EC2C9"/>
		</linearGradient>
		<rect x="395.5" y="280.8" class="st73" width="179.1" height="38.9"/>
		<rect x="395.5" y="314" class="st74" width="179.1" height="5.7"/>
		
			<linearGradient id="SVGID_13_" gradientUnits="userSpaceOnUse" x1="454.85" y1="40.3" x2="454.85" y2="79.2" gradientTransform="matrix(1 0 0 -1 0 360)">
			<stop  offset="5.050510e-03" style="stop-color:#387F9B"/>
			<stop  offset="7.393394e-02" style="stop-color:#438AA6"/>
			<stop  offset="0.1733" style="stop-color:#4A91AD"/>
			<stop  offset="0.4495" style="stop-color:#4C93AF"/>
			<stop  offset="0.8225" style="stop-color:#4E95B1"/>
			<stop  offset="0.9567" style="stop-color:#559CB8"/>
			<stop  offset="1" style="stop-color:#59A0BC"/>
		</linearGradient>
		<rect x="442.6" y="280.8" class="st75" width="24.5" height="38.9"/>
		<rect x="442.6" y="314" class="st76" width="24.5" height="5.7"/>
		<rect x="395.5" y="280.8" class="st74" width="179.1" height="5.7"/>
		<rect x="442.6" y="280.8" class="st76" width="24.5" height="5.7"/>
		<polygon class="st77" points="395.5,280.8 574.6,280.8 588.5,230.3 427.3,230.3 		"/>
		<polygon class="st6" points="587.8,242.9 577.3,281.2 577.3,297.6 587.8,258.3 		"/>
		<polygon class="st78" points="577.3,281.2 588.5,240.6 588.5,230.3 574.6,280.8 574.6,319.7 588.4,266.1 588.4,256 577.3,297.6 		
			"/>
	</g>
	<g>
		<path class="st79" d="M599.2,246.7c0-3.8,0.5-7.7,1.4-11.4l7.5-30.7V197l-9.6,37.7c-1,3.9-1.5,7.9-1.5,11.9v33.2
			c0,0.5,0.4,0.8,0.8,0.8c0.3,0,0.7-0.2,0.8-0.6l9.5-46.7v-9l-9,42.6L599.2,246.7L599.2,246.7z"/>
		<path class="st10" d="M597.1,280v-33.2c0-2,0.1-4,0.4-6.1H374.6v40.1h223.3l0,0C597.5,280.7,597.1,280.5,597.1,280z"/>
		<path class="st80" d="M597.1,280v-4.4H374.6v5.2h223.3l0,0C597.5,280.7,597.1,280.5,597.1,280z"/>
		<rect x="415.3" y="240.7" class="st81" width="40.6" height="40.1"/>
		<rect x="415.3" y="275.6" class="st82" width="40.6" height="5.2"/>
		<path class="st83" d="M597.5,240.7H374.6v5.2h222.5C597.2,244.1,597.3,242.4,597.5,240.7z"/>
		<rect x="415.3" y="240.7" class="st84" width="40.6" height="5.2"/>
		<path class="st7" d="M598.6,234.8l9.6-37.7H405.7l-31.1,43.6h222.9C597.8,238.7,598.1,236.7,598.6,234.8z"/>
		<path class="st85" d="M600.7,235.3c-1,3.7-1.4,7.6-1.4,11.4V267l8.1-38.5v-20.4L600.7,235.3z"/>
	</g>
	<g>
		<path class="st86" d="M438.2,164.5l-28.1,40.3c3.1-4.5,8.3-7.4,14.1-7.4h151l12.9-39H450.5C445.5,158.4,441.1,160.8,438.2,164.5z"
			/>
		<path class="st86" d="M579.6,195.9v1l-11.5,36.2H424.2l-1.2,1.8c0.4,0,0.8,0.1,1.2,0.1h151l11.8-39h-7.4V195.9z"/>
		<g>
			<polygon class="st85" points="575.2,203.1 568.1,203.1 568.1,233 579.6,196.8 579.6,189.6 			"/>
			<rect x="424.2" y="203.1" class="st87" width="143.9" height="29.8"/>
			<rect x="424.2" y="205.8" class="st88" width="143.9" height="1.6"/>
			<rect x="424.2" y="210.4" class="st88" width="143.9" height="1.6"/>
			<rect x="424.2" y="215" class="st88" width="143.9" height="1.6"/>
			<rect x="424.2" y="219.6" class="st88" width="143.9" height="1.6"/>
			<rect x="424.2" y="224.2" class="st88" width="143.9" height="1.6"/>
			<rect x="424.2" y="228.8" class="st88" width="143.9" height="1.6"/>
		</g>
		<path class="st89" d="M412.7,223.4v-8.9c0-6.3,5.1-11.4,11.5-11.4h151v-5.7h-151c-9.5,0-17.2,7.7-17.2,17.2v8.9
			c0,9.5,7.7,17.2,17.2,17.2h151V235h-151C417.9,234.9,412.7,229.8,412.7,223.4z"/>
		<path class="st90" d="M424.2,203.1c-6.3,0-11.5,5.1-11.5,11.4v8.9c0,5.9,4.5,10.7,10.3,11.4l1.2-1.8V203.1z"/>
		<polygon class="st91" points="575.2,197.4 588.1,158.4 588.1,163.3 575.2,203.1 		"/>
		<polygon class="st91" points="575.2,240.7 575.2,234.9 587,195.9 587,201.1 		"/>
	</g>
</g>
<g>
	<path class="st92" d="M608,115.1L648.6,45l-161.2,0.2L608,115.1z M620.5,61.2L602.2,93l-54.8-31.7L620.5,61.2z"/>
	<polygon class="st93" points="640.9,45 602.2,111.7 608,115.1 648.6,45 	"/>
	<path class="st92" d="M624,87.5l0.4-0.7l-4.5-2.6c-0.1-0.1-0.2-0.1-0.3-0.1s-0.2,0.1-0.3,0.2c-0.1,0.2,0,0.5,0.2,0.6L624,87.5z
		 M620,94.5l0.4-0.8l-4.5-2.6c-0.1-0.1-0.2-0.1-0.3,0c-0.1,0-0.2,0.1-0.3,0.2c-0.1,0.2,0,0.5,0.2,0.6L620,94.5z M615.9,101.5
		l0.4-0.8l-4.5-2.6c-0.1-0.1-0.2-0.1-0.3,0c-0.1,0-0.2,0.1-0.3,0.2c-0.1,0.2,0,0.5,0.1,0.6L615.9,101.5z M607.4,105.8l4.5,2.6
		l0.4-0.7l-4.5-2.6c-0.1-0.1-0.2-0.1-0.3,0c-0.1,0-0.2,0.1-0.3,0.2C607.1,105.5,607.2,105.7,607.4,105.8z M628.1,80.5l0.4-0.7
		l-4.5-2.6c-0.1-0.1-0.2-0.1-0.3,0c-0.1,0-0.2,0.1-0.3,0.2c-0.1,0.2-0.1,0.5,0.2,0.6L628.1,80.5z M640.2,59.5l0.4-0.7l-4.5-2.6
		c-0.1-0.1-0.2-0.1-0.3-0.1s-0.2,0.1-0.3,0.2c-0.1,0.2,0,0.5,0.2,0.6L640.2,59.5z M632.1,73.5l0.4-0.7l-4.5-2.6
		c-0.1,0-0.2-0.1-0.3,0c-0.1,0-0.2,0.1-0.3,0.2c-0.1,0.2-0.1,0.5,0.2,0.6L632.1,73.5z M644.3,52.5l0.4-0.7l-4.5-2.6
		c-0.1-0.1-0.2-0.1-0.3-0.1s-0.2,0.1-0.3,0.2c-0.1,0.2-0.1,0.5,0.2,0.6L644.3,52.5z M636.2,66.5l0.4-0.8l-4.5-2.6
		c-0.1-0.1-0.2-0.1-0.3,0c-0.1,0-0.2,0.1-0.3,0.2c-0.1,0.2-0.1,0.5,0.2,0.6L636.2,66.5z"/>
	<path class="st92" d="M622,90.9l0.4-0.6l-1.8-1c-0.1,0-0.2-0.1-0.3,0c-0.1,0-0.2,0.1-0.2,0.2c-0.1,0.2,0,0.4,0.1,0.5L622,90.9z
		 M626.1,83.9l0.4-0.6l-1.8-1c-0.1,0-0.2-0.1-0.3,0c-0.1,0-0.2,0.1-0.2,0.2c-0.1,0.2,0,0.4,0.1,0.5L626.1,83.9z M618,97.9l0.4-0.6
		l-1.8-1c-0.1,0-0.2,0-0.3,0s-0.2,0.1-0.2,0.2c-0.1,0.2-0.1,0.4,0.1,0.5L618,97.9z M608.1,110.9l1.8,1l0.4-0.6l-1.8-1
		c-0.1-0.1-0.2-0.1-0.3,0c-0.1,0-0.2,0.1-0.2,0.2C607.9,110.5,607.9,110.8,608.1,110.9z M613.9,104.9l0.4-0.6l-1.8-1
		c-0.1,0-0.2,0-0.3,0s-0.2,0.1-0.2,0.2c-0.1,0.2,0,0.4,0.1,0.5L613.9,104.9z M630.1,76.9l0.4-0.6l-1.8-1c-0.1,0-0.2-0.1-0.3,0
		c-0.1,0-0.2,0.1-0.2,0.2c-0.1,0.2-0.1,0.4,0.1,0.5L630.1,76.9z M646.3,48.9l0.4-0.6l-1.8-1c-0.1-0.1-0.2-0.1-0.3,0
		c-0.1,0-0.2,0.1-0.2,0.2c-0.1,0.2,0,0.4,0.1,0.5L646.3,48.9z M634.2,69.9l0.4-0.6l-1.8-1c-0.1-0.1-0.2-0.1-0.3,0
		c-0.1,0-0.2,0.1-0.2,0.2c-0.1,0.2,0,0.4,0.1,0.5L634.2,69.9z M642.3,55.9l0.4-0.6l-1.8-1c-0.1-0.1-0.2-0.1-0.3,0
		c-0.1,0-0.2,0.1-0.2,0.2c-0.1,0.2,0,0.4,0.1,0.5L642.3,55.9z M638.2,62.9l0.4-0.6l-1.7-1c-0.1-0.1-0.2-0.1-0.3-0.1
		s-0.2,0.1-0.2,0.2c-0.1,0.2,0,0.4,0.1,0.5L638.2,62.9z"/>
</g>
<g>
	<path class="st94" d="M1599,313.5v-19.2c1,0,2,0.1,3,0.1c1.1,0,2.1,0,3.2-0.1v19.2H1599z"/>
	<path class="st94" d="M1583.5,320.7c0-4,3.2-7.2,7.2-7.2h22.8c3.9,0,7.2,3.2,7.2,7.2H1583.5z"/>
	<path class="st94" d="M1564.2,334.4v-4.7c0-5,4-9,9-9h57.8c5,0,9,4,9,9v4.7H1564.2z"/>
	<g>
		<path class="st94" d="M1542,164.5l-6.8-6.8c-1.2-1.2-1.2-3.2,0-4.4s3.2-1.2,4.4,0l6.8,6.8c-1.5,1.5-2.8,3-4.2,4.5
			C1542.2,164.5,1542.1,164.5,1542,164.5z"/>
		<path class="st94" d="M1657.7,271.4l6.8,6.8c1.2,1.2,1.2,3.2,0,4.4c-0.6,0.6-1.4,0.9-2.2,0.9c-0.8,0-1.6-0.3-2.2-0.9l-6.8-6.8
			c-0.1-0.1-0.1-0.2-0.2-0.2C1654.7,274.2,1656.2,272.8,1657.7,271.4z"/>
		<path class="st94" d="M1602,294.4c20.2,0,40.3-7.7,55.6-23l-4.4-4.4c-28.3,28.3-74.3,28.3-102.5,0s-28.2-74.2,0-102.5l-4.4-4.4
			c-30.7,30.7-30.7,80.6,0,111.3C1561.7,286.7,1581.9,294.4,1602,294.4z"/>
	</g>
	<g>
		<path class="st89" d="M1538,215.7c0,35.4,28.7,64,64,64c35.4,0,64-28.7,64-64s-28.7-64-64-64S1538,180.4,1538,215.7z"/>
		<path class="st95" d="M1640.9,165.4c0.2,0,0.5,0,0.7,0c-0.5-0.4-1.1-0.8-1.6-1.3c-0.6-0.4-1.3-0.5-1.9-0.4
			c-0.5,0.1-1.8,0.3-1.2,0.8c0.6,0.5,0.4,0.8,1.1,1s1.4-0.3,1.6-0.1C1639.8,165.5,1640.3,165.4,1640.9,165.4z M1640.4,178.6
			c-0.5,0-0.2,0.4-0.1,0.5c0.2,0.1,0.2,0.3,0.5,0.5c0.2,0.2,0.3,0.4,0.7,0.2c0.5-0.1,0.3-0.6,0.1-0.8
			C1641.4,178.8,1640.8,178.6,1640.4,178.6z M1640.8,177.5c0.2-0.4,0.6,0,0.9,0.4c0.3,0.5,0.7,0.8,1.3,0.3c0.6-0.4,0.6-0.6,0.3-0.9
			c-0.3-0.4-0.7-1.9-1.4-1.6c-0.7,0.3-1.6,0.7-2.3,1.1c-0.7,0.4-1.2,0.8-0.4,1.3C1640.1,178.6,1640.6,177.9,1640.8,177.5z
			 M1627.3,224.8c-0.4-0.1-0.6,0.3-0.6,0.3c0,0.1,0.3,0.6,0.7,0.6c0.4,0,0.4-0.1,0.5-0.4C1628,225.1,1627.7,224.9,1627.3,224.8z
			 M1625.5,224.1c0,0.2,0.3,0.2,0.4,0.2c0.4-0.2,0.4-0.3,0.1-0.5c-0.3-0.1-0.5-0.5-0.5-0.6s-0.4-0.1-0.6,0c-0.2,0.2-0.3,0.4,0.2,0.6
			C1625.8,224,1625.5,224,1625.5,224.1z M1625,223.1c0.2-0.1,0.3-0.3,0.4-0.4c0-0.1-0.1-0.3-0.3-0.3c-0.2,0-0.6,0.1-0.6,0.4
			C1624.5,223,1624.8,223.1,1625,223.1z M1627.5,219.3c0.2-0.1,0.5-0.1,0.3-0.3s-0.1-0.3-0.5-0.2s-0.6,0.4-0.4,0.6
			C1627.2,219.5,1627.3,219.4,1627.5,219.3z M1626.7,220c0-0.1-0.3-0.1-0.5-0.1c-0.3,0-0.4,0.2-0.2,0.3c0.2,0.2,0.3,0.2,0.4,0.2
			S1626.7,220.2,1626.7,220z M1625.6,220.7c-0.2-0.1-0.1-0.6-0.5-0.3s-0.6,0.4-0.3,0.6c0.4,0.2,0.4,0.1,0.7,0.1
			C1625.6,221.2,1625.8,220.8,1625.6,220.7z M1643.7,167.4c-0.3-0.8-1.6-1.1-2.4-1.2c-0.8-0.2-1.1-0.1-0.7,0.6
			c0.5,0.7-1.1-0.8-1.9-0.8s-1,0.5-0.7,1.3s0.2,1-0.7,0.8c-0.8-0.2-1.3-0.5-2.1-0.5c-0.8,0-4,1.9-4.9,2.3c-1,0.4-1,1.2-0.5,1.4
			s0.6,0.7,0.3,1.1c-0.4,0.4-0.8,0.4-1.7,0.5c-0.9,0.1-1.2,0.9-2.1,1c-1,0.1,0.1,1,0.9,2s2.5,0.1,1.8,0.5s-1,1.3-0.8,1.6
			s0.6,0.8,1,0.4c0.4-0.3,0.9,0.1,0.4,0.6s0.5,0.5,0.7,0.3s3.7-1.8,4.2-2.4c0.5-0.6,1.1-0.6,1.5-0.4c0.8,0.5,1.3,0.3,1.6-0.1
			c0.2-0.4,0.6-0.7,0.1-1.1c-0.5-0.4-0.5-0.1-1.9,0.1c-1.4,0.1,0.5-0.7-0.4-1.1c-0.9-0.4-0.5-2.4,0.3-2.6c0.8-0.1,1.2-0.6,1.3-1.2
			c0.1-0.6,0.8-0.5,0.8-0.1c0.1,0.4,4.4-0.1,4.6-0.2c0.1-0.2,0.3-0.4,1.2-0.5C1644.2,169.8,1644.1,168.2,1643.7,167.4z
			 M1663.3,213.7c-0.6,0.6-1,1.2-0.5,1.5s2.2-2.6,2.7-3.2c0.1-0.1,0.2-0.4,0.4-0.6c0-0.6-0.1-1.3-0.1-1.9
			C1665.1,211,1663.7,213.2,1663.3,213.7z M1648.6,172c0.3,0.2,0.5,0.3,0.6,0.4c-0.3-0.3-0.5-0.6-0.8-0.9
			C1648.3,171.7,1648.3,171.8,1648.6,172z M1546.8,225c0.1,0.8,2.2,4.1,2.9,5c0.7,0.9,5.3,4.9,6,5.6c0.6,0.7,0.8,2.1,0.9,2.9
			c0.2,0.8,0.1,1.3-0.4,2.3s-0.6,3.1-0.1,4.5c0.8,2.3,4.2,2.1,4.9,3.6c0.1,0.3-1.2,3-0.6,3.6c0.5,0.6,1.4,0.4,1.9,0.5s1.1,0.9,0.4,1
			s-0.3,0.5-0.1,0.8c0.2,0.2,2,2.4,3.4,4.2c1.4,1.8,2.6,1.6,3.2,1.6c0.5,0,1.8,0.2,2.8,0.7s1.8-1.8,1.4-2.1
			c-0.4-0.3,0.6-3.2,1.3-4.1c0.7-0.9,0.5-2.3,0.2-3.5s1.8-4.7,1.6-5.8c-0.2-1-0.6-2-1.1-2.6c-0.5-0.5-0.9-1.2-0.6-1.4
			c0.2-0.2,2.6-6.6,3.2-7.3s-1.4-2.8-0.6-3.9c0.8-1.2,3.9-2,4.9-2.1s1.4,0.5,1.8,0.8s4.1,0.8,5.2,0.9c1.1,0.1,1.4-0.2,1.6-0.6
			c0.2-0.4,3.4-3.9,3.9-4.3c0.5-0.3,1.7-2.8,2.2-3.1s-1-2.5-1.1-3.8s0.9-2.1,0.6-2.3c-0.3-0.3-1.6-2.7-2.3-4.1
			c-0.7-1.4-2.1-1.4-2.7-2.1c-0.6-0.6-0.1-2.5-0.6-3c-0.4-0.4-2.9-2.1-3.4-2.1s-1.8,0.5-2.8-0.6s-2.8-0.9-4.1-0.8
			c-1.3,0.1-3.2-0.4-4-0.4s-0.4,2.2-0.1,2.2s0.6,0.2,0.4,0.8c-0.2,0.7-1.7,0.5-3,0.6s-1.9,1.5-2.6,1.6s-0.7,1-1.2,0.9
			c-0.5-0.2-0.9-1.1-0.7-1.7c0.2-0.6-0.7-0.8-1.4-0.7c-0.7,0.1-2.4,1.2-3.7,1.5c-1.2,0.3-1.4,0.2-1.9-0.2s-1.3-0.2-2.2-0.2
			c-0.9,0-1.4,0.8-1.3,1.8c0.1,0.9,0.3,1.4,0.6,1.1c0.3-0.2,0.9-1.2,1.2-0.9c0.3,0.4-0.8,1.7-1.3,2.1c-0.5,0.4-0.9,3.2-1.4,3.4
			s-0.7,0.7-0.7,1.2s-0.2,1.8-0.5,2s-0.9,0.6-1,1.4c-0.1,0.8-2.5,2.9-2.9,4.3c-0.4,1.4-1.4,0.7-2.1,0.4s-2-0.3-3-0.6
			C1546.6,223.7,1546.7,224.2,1546.8,225z M1608.7,239.5c0.1,1.7,0.7,1.4,1.1,2.2s1.2,6.6,3.1,8.8c0.5,0.6,3.3,2.2,4.3,2.6
			c1,0.4,1,1.1,0.6,1.9c-0.4,0.8,0.6,1.3,0.9,2.2s3.5,5.3,4.1,6.6c1.1,2.1,2.6,2.1,3.2,2.7s0.5,3.2,1.8,3.7s0.4,1.7,0.1,1.7
			s-0.5,0.1-0.5,0.5c0,0.3,0.4,1.1,0.9,1.7c1.5-0.7,2.9-1.4,4.4-2.2c0-0.2,0-0.4-0.1-0.4c-0.2-0.2-0.4-3.3,0-3.8
			c0.4-0.4,0.9-1.1,0.8-1.4c-0.1-0.3,0.1-2.9-0.3-4.9s-0.1-3.6,0-4.1c0.1-0.4-0.1-6.8-0.2-8.5c0-1.7,3.2-3.3,3.4-3.5
			c0.3-0.1,1.3-0.8,1.2-1.5c0-0.7,3.6-6.3,3.8-6.6c0.7-0.9,0.3-3.4,0.1-3.6c-0.3-0.2-2.5-4.6-2.6-4.9c-0.3-0.6,0.2-0.5,0.5-1.5
			c0-0.1,1-1,1.9-0.4c0.8,0.6,0.7,0.4,1.5,0.2s3-2.4,3.3-3.1c0.3-0.7,0.9-1.2,1.8-1.2s2.3-0.9,2.8-1.4c0.4-0.5,1.1-1.2,1.4-0.6
			c0.4,0.5,0.9,0.4,1.3,0.3c0.4-0.2,6.7-3.1,6.5-4.1s0.3-1.4,1.2-2.6c0.8-1,3.5-5,4.6-6.1c-1.5-13.3-7.1-25.3-15.5-34.8
			c-0.9,0.2-0.5,0.9-1.2,0.6c-0.9-0.3-1.7-2.7-1.1-3.1c-0.5-0.5-1.1-1.1-1.6-1.6c-0.3,0.3-0.6,0.6-0.8,0.7c-0.4,0.3,0.4,0.6,0.3,1
			s-0.6,0.2-1.2,0.1c-0.7-0.1-1,0.4-0.9,0.9s0.2,1.5-0.4,1.7s-1.4-2.6-2.5-2.5c-0.5,0.1-0.7,0.2-1.4,0.3c-0.7,0.1,0.1,2.4,0.6,2.8
			c0.5,0.4,1.5,0.5,2,0.1s0.8,0.2,1,0.4c0.2,0.3,4.6,4.3,5.3,4.7c0.6,0.5-0.2,4.6-0.8,4.6c-0.6,0.1-1.6,0.1-2,0.5
			c-0.4,0.3-3.7,2.5-4,2.8s0,1.3-0.3,1.7c-0.3,0.5-0.7,1.3-1.4,0.9c-0.7-0.3-1.1-0.6-1.1-1s0.1-0.9,0.6-1.6c0.5-0.7-0.1-0.7-1.1-1.6
			c-1-0.8-0.6-4.5-0.1-4.9s-0.8-2.3-1.1-2.3c-0.3,0-5,0.8-4.8,2.9c0.1,0.5-2.2,0.7-2.5,0.3c-1.2-1.6-3.2,2.2-4.2,3.1
			c-1.4,1.4-1.8,3-2.5,4.1s-1,3.4-1.6,3.6c-0.6,0.1-0.4,0.9-0.2,1.3c0.2,0.4,0.8,0.8,1.2,0.4c0.4-0.4,1.4-0.8,2.1-0.7
			s1.4,0.3,1.4-0.2c0-0.6-0.6-3.3-0.3-2.8c0.3,0.5,1,0.4,1.6,0.4c0.7,0,2-0.2,2.8-0.1c0.8,0.1,0.6,1.2,0.3,1
			c-0.4-0.1-1.3,0.4-1.3,1.1c0,0.7-0.1,1.7-1,1.6c-1.1-0.1-1.5,1-1.1,1.2c0.5,0.2,3.1,2,3.5,2c0.4-0.1,3.4-0.5,3.4,0.8
			c0,1.2,2,3.9,4,5.4c1,0.8,4.2,3.7,4.3,4.3c0.1,0.6-0.6,2.3-0.9,3.2c-0.4,0.8-0.1,1.8,0.4,1.9c0.4,0.1,1.1-0.6,1.5-1.4
			c0.4-0.7,0.2-1.7,0.6-2.4c0.4-0.8,4.5,0.7,5.4,0.3c1-0.3,3.2,0.5,3.7,0.8s0.8,1,0.9,1.9s-0.2,4.6-1,5.7c-0.8,1.1-3.5,0.6-3.8-0.1
			c-0.3-0.7-0.4-1.3-1.7-1.5c-1.3-0.3-0.5,1-0.6,2c0,1,0.6,1,0.9,1.7c0.3,0.6-2.8,0.6-3.8,0.6s0,1.9,0.1,3s-1.6,2.3-2.5,2.1
			c-1-0.2-1.5-0.2-2,0.3c-0.1,0.1-0.2,0.2-0.2,0.3c-0.4-0.4-1.1-0.6-1.2-1.1c-0.1-0.8-0.9-0.8-1.4-0.8s-0.6-0.9-1-0.9
			s-0.9,0.5-1.4,0.8c-0.5,0.2-3.9,0.7-4.8,0.7s-0.9,1.2-2,1.4c-1.1,0.3-2.3,2-4.1,2.1c-1.8,0.1-2.7,3.7-3.3,4.5
			c-0.7,0.8-4.1,1.6-5.3,1.8c-1.1,0.3-4.1,2.6-4.8,2.3C1609.2,237.1,1608.7,237.8,1608.7,239.5z M1630.4,158.4
			c0.3,0.3,0.8,0.5,1.4,0.7C1631.3,158.8,1630.8,158.5,1630.4,158.4C1630.4,158.3,1630.4,158.3,1630.4,158.4z M1638.3,163
			c-1.6-1.1-3.2-2.1-4.9-3.1c0,0.2-0.1,0.4,0,0.5c0.1,0.3,0.8,0.6,1.4,0.5c0.5,0,0.4,0.7,0.9,0.7c0.4,0,0.5,0.3,0.2,0.6
			s-0.5,0.4-0.3,0.6c0.3,0.3,0.6,0.2,1.3,0.4c0.7,0.3,0.6-0.2,0.9-0.4C1637.8,162.8,1638.1,162.9,1638.3,163z M1636.3,173.6
			c0.3,0,0.6-0.1,0.3-0.6c-0.2-0.5-0.6-1.1-1-0.7c-0.4,0.4-1,0.6-0.4,1C1635.8,173.7,1636.1,173.6,1636.3,173.6z M1636.9,216.7
			c-0.1-0.3-0.7-0.3-0.8,0c-0.1,0.3,0.2,0.4,0.4,0.4C1636.8,217.1,1637,216.8,1636.9,216.7z M1578,201.4c0.5-0.3,0.2-1,0.2-1.5
			c-0.1-0.6-0.6-0.1-0.7-0.1s-0.4,0.5-0.5,0.8C1576.9,201.3,1577.5,201.7,1578,201.4z M1573.7,158.3c0.2,0,0.3-0.1,0.4-0.2
			C1573.9,158.2,1573.8,158.3,1573.7,158.3z M1591.4,189.1c-0.2-0.2,0-0.7,0.2-0.7c0.2-0.1,0.3-0.6,0.1-0.9
			c-0.2-0.3-0.4-0.3-0.8-0.3c-0.3,0-0.2-0.5-0.6-0.8s-0.9,0-1.1,0.2s-0.5,0.6,0.1,0.9c0.6,0.3,0.2,0.4,0.1,0.9
			c-0.3,1.1,1,1.5,1.7,1.8s0.5,0,0.9-0.4C1592.5,189.2,1591.6,189.3,1591.4,189.1z M1589,184c0-0.8-0.1-0.5-0.3-0.9
			c-0.2-0.4-0.6-0.8-1.2-0.8c-0.7,0-0.4,0.5-0.3,0.6s0.5,0.4,0.5,0.6c0,0.2-0.7,0-1.2,0s-0.3,0.4-0.1,0.6c0.2,0.2,0.3,0.3,0.1,1.2
			c-0.2,0.9-1.4,1.8-2,2.2c-0.3,0.2,0,0.6-0.2,0.9c-0.3,0.3-0.6-0.5-1,0.3c-0.5,0.8,0.9,1.8,1.3,1.8c1.8-0.1,3.4,1.4,4.1,0.9
			c0.3-0.2-0.1-1.6-0.6-2s-0.2-0.9-0.2-1.2s-1.1-0.9-0.7-1.3c0.3-0.4,0.7-0.1,1.1-0.2C1588.6,186.5,1589,184.8,1589,184z
			 M1579.1,158.8c0.5-0.6,0.1-1.6-0.2-2.6v-0.1c-1.4,0.5-2.8,1.1-4.1,1.8c0.1,0.2,0,0.6-0.3,1c-0.4,0.5-0.8,1.3-1.3,2
			s-0.4,1.3,0.2,1.4c0.6,0,1.1-0.2,1.2-1.2c0-0.9,0.3-0.9,0.5-0.7c0.2,0.3,0.5,1.6,0.6,2.3c0.1,0.6,0.4,1.1,0.5,1
			c0.3-0.1,0.7-0.7,1.1-1.4c0.5-0.7,0.4-1.1,0.4-1.8C1577.7,159.7,1578.6,159.4,1579.1,158.8z M1596.7,177.4
			c0.8,0.5,1.8,0.4,2.8,0.3c1-0.1,0.5-0.9,0.7-1.1c0.2-0.2,1.1-0.5,0.7-0.5s-0.2-0.4,0.3-0.6c0.6-0.2-0.3-0.5-0.8-1
			s-0.7-0.2-0.9,0.3c-0.1,0.5-0.4,0.4-0.6-0.1s-1.1-0.1-1.7,0c-0.7,0.2-0.9-0.1-1.3-0.4c-0.4-0.3-1,0.6-1.5,0.9
			c-0.5,0.3-0.1,0.9,0.4,1.1C1595.3,176.6,1596,177,1596.7,177.4z M1576.9,186.6c0.2-0.2,0.5-0.6,0.2-1s-0.5-0.8-0.8-0.1
			s0,0.9,0.2,1.1C1576.7,186.8,1576.8,186.7,1576.9,186.6z M1538.1,213.5c0.7,0.1,1.3,0.2,1.5-0.1s0.5-0.3,1.4-0.1s1.2-0.3,1.3-0.8
			c0.2-0.4,1-0.4,1.9-0.2c1,0.2,1.7-0.3,1.9-0.8c0.2-0.5,1.3-1.1,1.5-1.6c0.2-0.4,0.4-1.3,1.1-0.8s0.4,0.9,0.1,1.5s-1,1.3-1.6,1.4
			c-0.6,0.1-0.6,0.2-0.7,1.2c0,0.9-0.4,0.9-1.1,0.9c-0.7-0.1-1.2-1-1.6-1.3s-0.8,0.4-0.9,0.9c-0.1,0.6-1,0.4-1.6,1.2
			c-0.6,0.7-0.5,1.2-0.2,1.7c0.3,0.4,0.9,0.7,1.2,1.3c0.3,0.6,0.6,1.2,1.3,1.4c0.7,0.2,2.8,1.6,4,2.3s2.9,1.4,4.1,1.6
			c1.2,0.2,0.7-0.6,1.1-1.1c0.4-0.6,0.2-1.9,0.4-2.6c0.1-0.7,0.5-1.5,1.3-1.9s1.1-1.3,1.3-2.5c0.2-1.2,1.2-1.5,1.6-2.1
			s0.8-1.4,1.1-1.9c0.4-0.5-0.1-1.7,0.2-2.3c0.2-0.5,0.6-0.8,0.5-1.4c-0.1-0.6-0.6-1.2-0.6-1.9c0-0.6-0.1-2.4,0.7-1.9
			c0.9,0.4,1,0.1,1.9-0.1c1-0.2,1.3,0.4,1.7,0.1c0.4-0.3,1.4-0.7,2.1-1.4s-0.2-1.5-0.6-1.5c-0.5-0.1-2.6-1.2-3.1-1.5
			c-0.4-0.3-0.6-0.7-1.7-0.7s-2.2,0.7-3.2,0.8c-1.1,0.1-1.4,0.2-1.9-0.3c-0.5-0.6,0.3-1.1,0.9-1.3c0.7-0.2,2.6-1.7,2.1-2.1
			c-0.5-0.5,0-1,0.6-1c0.7,0,1.3,0.7,0.8,0.7c-0.5,0.1,0.9,1.8,1.3,1.5s0.6-0.6,0.4-1s0.2-0.9,0.9-1.1c0.7-0.2,0.7,0.2,0.9,0.9
			c0.2,0.6,1.3,1.8,1.6,2c0.2,0.1,0.1,1.4-0.4,1.8c-0.5,0.3,0.5,0.4,1.2,0.8c0.7,0.3,0.6-0.3,1.5-0.4c0.9-0.1,1.6,0.8,1.3,1.3
			c-0.3,0.5-0.7,0.7-1,1.3c-0.3,0.5,0.9,0.8,1.4,1c0.4,0.2,0.8-0.2,0.8-0.7s0.4-1.2,0.8-1.7s0.9-0.8,0.5-1.3s1.7-1.5,2-1.7
			s1.3-0.9,1.5-1.5s1.1-0.1,1.1-0.5s0.1-0.6,0.6-0.4c0.5,0.2,0.2,0.3,0.4,0.8c0.2,0.5-0.1,0.6-0.4,0.8c-0.4,0.1-1.4,1.8-2,1.9
			c-0.6,0-0.4,0.3-0.6,0.5c-0.2,0.1-0.7,0.4-1,0.5c-0.2,0.1-0.5,0.5-0.4,0.6s0.4-0.1,0.6-0.2c0.2-0.1,0.5-0.2,0.6,0.1
			c0.2,0.2,0.1,0.5-0.2,0.7c-0.4,0.2,0.1,1,0.5,1.4c0.5,0.4,0.4-0.1,0.2-0.4c-0.2-0.4-0.1-0.9,0-1s2.2-1.6,2.5-1.8s0.9-0.8,1.3-1.5
			c0.3-0.7,1.5-1.3,1.6-1.1s0.3,0.4,0.4,0.4s1.3,0.6,1.7,0.3c0.3-0.2,1.6,0.2,1.7,0.8c0,0.6,0.2,0.7,0.7,0.9c0.4,0.2,1.8,1.6,1.5,2
			s1.5,1.6,1.8,2.2c0.3,0.5,2.5,0.4,2.7,0s1.1-0.3,1.5-0.3s0.8-1.6,0.7-2c-0.1-0.4-0.4-1.1-0.3-1.4c0.1-0.3,0.6-2,0.2-2.2
			s-0.5-0.1-1-0.2c-0.5-0.2-0.9-0.1-1.4,0c-0.6,0.1-3.1,0.5-3.1,0c0-0.4-0.2-0.6-0.3-1.1c-0.1-0.5,1.9-2.6,2.4-2.8
			c0.5-0.1,0.7-0.8,0.3-0.8c-0.4,0-2.2,0-2.1-0.4s-0.1-0.6-0.4-0.5s-1.5-0.5-1.6-1s-2.5-2.1-2.9-2.3c-0.5-0.2-1.6-0.5-2-0.4
			c-0.4,0-0.3-0.5-0.2-1c0-0.6,0.5-1,0.7-1.9s-0.8-1-1.2-1.4c-0.3-0.3-0.7-0.5-0.6-0.1c0,0.3,0.1,0.9,0.1,1.3c0,0.4,0.5,1.3,0.2,1.8
			s-0.6,0.6-0.9,0.8c-0.2,0.2-0.2,0.3-0.6-0.1c-0.4-0.4-0.6-0.2-0.9-0.2c-0.3,0.1-0.6,0.3-0.9,0.2s-0.8-0.3-1.5-0.4
			c-0.7-0.2-0.8-0.2-1.1-0.1c-0.4,0.1-0.7-0.1-1-0.6c0,0,0,0-0.1,0c-0.4-0.3-1-0.3-0.6-0.6s0.4-0.9,0-1.4c-0.3-0.5-0.2-1.5-0.8-1.7
			c-0.6-0.1-0.2,0.7-0.3,1.3c-0.1,0.6-1.1,0.4-1.2-0.4c-0.1-0.8,0.6-0.8,0.6-1.5c0.1-0.7-0.9-0.4-2-0.3c-1,0.1-2-0.5-2-0.8
			s0.8-0.7,1.6-0.5c0.8,0.1,1.9,0.2,2.9,0.9c1.1,0.7,1-0.4,1.5-1.8c0.5-1.4-1.3-2.9-2.1-3.6c-0.8-0.6,0.3-0.9,1.1-0.9
			c0.7,0,1.4,0.4,1.5,1c0.1,0.5,0.7,1.7,1.7,2.1c1,0.4,0.7,1,0.6,1.3s-0.2,0.9-1.1,1.4c-0.9,0.4,0.2,1.2,0.5,1.3
			c0.4,0.1,0.7,0.3,0.4,1.4c-0.3,1,0.5,1,1,1.5c0.5,0.6,0.6,1,1.2,1.2s0.8-0.9,0.9-1.3c0.1-0.4,0.9-1.3,0.8-2s0.7-1.5,0.8-0.9
			c0.2,0.6,0.9,1.2,2.2,1.4c1.3,0.2,1.3-1.4,1.3-2.6c0.1-1.2-0.1-2.1-1.9-2.6s-1.6-1.6-2-2.5c-0.5-0.8-1.9-2.5-3.5-4.5
			s-4.1-2-6.6-2.1c-2.5-0.2-2.6,1.5-3.3,1.6c-0.7,0.2-3.9,1.3-4.7,1.6c-0.9,0.4-1.9,1-0.8,1.8c1.1,0.9,1.8,0.3,2.7,0
			c0.9-0.3,1.6,0,1,0.4s-0.1,1.6-1.3,1.8c-1.2,0.2-2.6-1.2-2.9-1.5s-1.2-0.8-1.6-0.9c-0.5-0.1-0.7-0.8-0.2-1.2
			c0.4-0.3-0.1-0.8-0.5-0.9C1545.1,182.8,1538.6,197.4,1538.1,213.5z M1549.3,244c0,0.7-0.4,1,0,1.4s0.7,0.9,0.9,1.7
			c0.2,0.8,0.2,1.2,0.9,1.8c0.7,0.6,0.3,0.8,0.6,2.1c0.2,1.3,0.7,1.6,1.3,2.1c0.6,0.5,1.1,0.6,1.5,0.2c0.4-0.4,0.5-0.9,0.6-2
			c0.2-1.1-0.1-1.1-1-1.9c-0.9-0.8,0.1-1.9,0.1-2.2s-0.7-1.4-1.3-1.5c-0.7-0.1-1.9-0.8-2.2-1.5C1549.5,242,1549.3,243.3,1549.3,244z
			 M1573.9,203.4c0.3-0.2,0.7,0,1.4-0.5c0.7-0.5-0.9-0.5-1.5-0.6s-0.3,0.6-0.6,0.9C1572.9,203.5,1573.5,203.6,1573.9,203.4z
			 M1636.8,219c-0.2,0-0.1-0.7-0.4-0.9c-0.2-0.2-1-0.3-1.6-0.1c-0.6,0.1-1.6,0.4-1.9,0.6c-0.2,0.2-0.3,0.7,0.3,0.7
			c0.6,0,0.7,0,1,0.3s0.6,0.1,1.2,0s1,0,1.3,0C1637.2,219.7,1637,219,1636.8,219z M1639.6,213.2c0,0.3,0.1,0.6,0,0.7
			c-0.2,0.1-0.7,0.1-0.4,0.3c0.3,0.2,0.4,0.3,0.6,0.1s0.3-0.4,0.4-0.4c0.4,0,0.3-0.5-0.1-0.7C1639.8,213,1639.6,212.9,1639.6,213.2z
			 M1639.5,212.7c-0.1-0.2-0.3-0.3-0.1-0.6c0.2-0.3,0-0.4-0.3-0.3c-0.3,0.1-0.7,0.3-0.6,0.7s0.1,0.5-0.1,0.6s0.1,0.1,0.4,0
			C1639.2,213.1,1639.6,212.8,1639.5,212.7z M1620.7,171.6c0.3-0.4,0.5-0.6-0.1-1.3s-0.3-1.1-1.1-0.6c-0.8,0.6-1.5,1-0.5,1.6
			C1620.1,171.8,1620.2,172.1,1620.7,171.6z M1638.2,214.2c0.2,0,0.3-0.3,0.1-0.4c-0.2-0.1-0.3-0.3-0.5-0.1
			c-0.1,0.2,0.2,0.4,0.2,0.5C1638.1,214.2,1638.2,214.2,1638.2,214.2z M1638.4,217.7c0.6,0,1.1-0.2,1.1-0.5s0.5-0.6,0.9-0.7
			c0.4-0.1,0.8-0.1,1-0.4c0.2-0.3,0.5-0.5,1-0.5s1.6-0.2,1.2,0.2c-0.5,0.4-0.1,0.7,0.4,0.6c0.5-0.1,0.8-0.1,1-0.3s0.1-0.5-0.2-0.5
			c-0.3,0-0.8-0.6-1.3-0.5c-0.5,0-1.6,0.1-1.9,0.1c-0.4,0-0.5,0.1-0.7,0.3s-1.3,0.8-1.6,0.9c-0.4,0.1-1.1,0.4-1.4,0.6
			c-0.3,0.2-0.8,0.3-0.6,0.5C1637.5,217.8,1637.8,217.7,1638.4,217.7z M1638.8,219.1c-0.3,0.2-0.6,0.4-0.3,0.5
			c0.2,0.1,0.6,0.1,0.7,0s0.5-0.2,0.9-0.6c0.4-0.4-0.4-0.4-0.7-0.3C1639.1,218.8,1639.1,218.9,1638.8,219.1z M1630.1,218.3
			c-0.5,0,0.2,0.3,0.4,0.5c0.2,0.1,0.6,0.4,1,0.6c0.5,0.1,0.5-0.1,0.7-0.4c0.1-0.3-0.4-0.5-0.8-0.5
			C1631.2,218.5,1630.6,218.3,1630.1,218.3z M1611.8,176.4c0,0.4,1.7,3.2,2.2,4.6c0.6,1.4,0.9,0.5,1.2,0c0.2-0.5,0.9-0.3,1.5-0.3
			s3.9-5.4,4-6.5s-0.6-1.4-1.9-1.9s-1-2-0.2-3.1s1.9,0.1,2.5,0.1s0.2-0.9,0.2-2.1c0-1.1,1.4-2.6,2.3-3.2c0.9-0.5,3.2-0.8,3.9-0.4
			c0.7,0.4,1.2,0.5,1.3,0.2c0.1-0.3,1.9-2.1,2.6-2.7c0.7-0.6-3.8-1.1-4.6-1.7c-0.8-0.6,1.3-0.4,1.2-1.2c-0.2-1.3-11.3-3.1-12.3-3
			s-4.7-1.3-5.3-1.6c-0.7-0.2-2.8,0.3-3.7,0.1c-0.9-0.2-5.9,1-7.2,1.2c-1.3,0.2,1.5,2,2.1,2.4s0.3,0.8-0.2,0.5
			c-0.5-0.2-6.6-2.4-7.2-1.6c-0.6,0.8-0.2,0.8,0.7,1.2c1,0.4,2.8,3.7,3.5,4.8s-0.4,3.3-0.1,3.6s1.4,1.1,1.8,1.9
			c0.4,0.8-0.2,0.4-0.5,1.4C1599.4,169.9,1611.8,175.9,1611.8,176.4z M1636.7,215.1c0.1,0.1,0.5,0,0.6-0.2c0.2-0.2,0.3,0.1,0.4-0.2
			c-0.1-0.2-0.1-0.4-0.4-0.4s-0.2,0.2-0.4,0.3C1636.8,215,1636.6,215.1,1636.7,215.1z M1640,212c-0.1,0.2,0.1,0.4,0.3,0.4
			c0,0,0.2,0.1,0.4-0.1c0.2-0.2-0.1-0.4-0.3-0.5C1640.2,211.7,1640.1,211.9,1640,212z"/>
	</g>
</g>
<g>
	<path class="st29" d="M812.5,235.1C812.5,235.1,812.5,235.1,812.5,235.1c0,12.1-22.2,21.9-49.5,21.9c-27.4,0-49.5-9.8-49.6-21.9
		c0,0,0,0,0,0c-4.8,53.1,20.6,101.2,20.7,101.6c1.4,6.5,13.8,11.6,28.9,11.6c15,0,27.4-5.1,28.8-11.6
		C792,336.3,818.5,282.5,812.5,235.1z"/>
	<path class="st96" d="M713.4,235.1C713.4,235.1,713.4,235.1,713.4,235.1c-4.8,53,20.6,101.2,20.7,101.6c1,4.6,7.5,8.5,16.6,10.4
		c-4.5-28.3-8.4-63.2-9.3-92.2h0C724.9,251.3,713.4,243.8,713.4,235.1z"/>
	<path class="st10" d="M713.4,235.1c0,12.1,22.2,22,49.6,22c27.4,0,49.5-9.8,49.5-22c0-12.1-22.2-21.9-49.5-21.9
		C735.6,213.1,713.4,223,713.4,235.1z"/>
	<path class="st96" d="M712.8,255.1c0.1,3.5,0.3,7.1,0.7,10.6c-8,0.8-14.3,7.3-14.3,15.5v3.2c0,8.8,7.1,15.8,15.8,15.8h5.3
		c1,3.5,2.1,7.1,3.3,10.6h-8.6c-14.5,0-26.4-11.8-26.4-26.4v-3.2C688.7,267.5,699.4,256.3,712.8,255.1z"/>
	<path class="st10" d="M713.4,235.1c0,12.1,22.2,22,49.6,22c27.4,0,49.5-9.8,49.5-22c0-12.1-22.2-21.9-49.5-21.9
		C735.6,213.1,713.4,223,713.4,235.1z"/>
	<path class="st97" d="M763,230.4c-18.1,0-33.6,4.9-40,11.9c6.4,7,21.9,11.9,40,11.9c18.1,0,33.6-4.9,40-11.9
		C796.5,235.3,781.1,230.4,763,230.4z"/>
	<path class="st6" d="M713.4,235.1c0,12.1,22.2,22,49.6,22c27.4,0,49.5-9.8,49.5-22c0-12.1-22.2-21.9-49.5-21.9
		C735.6,213.1,713.4,223,713.4,235.1z M719.8,235.1c0-10.5,19.3-19.1,43.2-19.1c23.8,0,43.2,8.6,43.2,19.1
		c0,10.6-19.3,19.1-43.2,19.1C739.1,254.2,719.8,245.6,719.8,235.1z"/>
</g>
</svg>
