<?xml version="1.0" encoding="utf-8"?>
<!-- Generator: Adobe Illustrator 24.1.1, SVG Export Plug-In . SVG Version: 6.00 Build 0)  -->
<svg version="1.1" id="Layer_1" xmlns="http://www.w3.org/2000/svg" xmlns:xlink="http://www.w3.org/1999/xlink" x="0px" y="0px"
	 viewBox="0 0 1920 360" style="enable-background:new 0 0 1920 360;" xml:space="preserve">
<style type="text/css">
	.st0{fill:url(#SVGID_1_);}
	.st1{fill:none;stroke:#FFFFFF;stroke-width:2;stroke-miterlimit:10;}
	.st2{fill:url(#SVGID_2_);stroke:#FAFAFA;stroke-width:3;stroke-miterlimit:10;}
	.st3{fill:#A6CE39;}
	.st4{fill:url(#SVGID_3_);stroke:#FAFAFA;stroke-width:3;stroke-miterlimit:10;}
	.st5{fill:#006991;}
	.st6{fill:url(#SVGID_4_);stroke:#FAFAFA;stroke-width:3;stroke-miterlimit:10;}
	.st7{fill:#D71920;}
	.st8{fill:url(#SVGID_5_);stroke:#FAFAFA;stroke-width:3;stroke-miterlimit:10;}
	.st9{fill:#009FDA;}
	.st10{fill:url(#SVGID_6_);stroke:#FAFAFA;stroke-width:1.35;stroke-miterlimit:10;}
	.st11{fill:#FAA61A;}
	.st12{fill:url(#SVGID_7_);stroke:#FAFAFA;stroke-width:1.35;stroke-miterlimit:10;}
	.st13{fill:#2E368F;}
	.st14{fill:none;}
	.st15{fill:url(#SVGID_8_);stroke:#FAFAFA;stroke-width:1.8;stroke-miterlimit:10;}
	.st16{fill:#B9529F;}
	.st17{fill:url(#SVGID_9_);stroke:#FAFAFA;stroke-width:1.8;stroke-miterlimit:10;}
	.st18{fill:#6FCCDD;}
	.st19{fill:url(#SVGID_10_);stroke:#FAFAFA;stroke-width:1.35;stroke-miterlimit:10;}
	.st20{fill:#0D71BA;}
	.st21{fill:url(#SVGID_11_);stroke:#FAFAFA;stroke-width:1.35;stroke-miterlimit:10;}
	.st22{fill:#4D4D4E;}
	.st23{fill:url(#SVGID_12_);stroke:#FAFAFA;stroke-width:1.8;stroke-miterlimit:10;}
	.st24{fill:#F79420;}
	.st25{fill:url(#SVGID_13_);stroke:#FAFAFA;stroke-width:1.8;stroke-miterlimit:10;}
	.st26{fill:#ED2024;}
	.st27{fill:url(#SVGID_14_);stroke:#FAFAFA;stroke-width:1.35;stroke-miterlimit:10;}
</style>
<g>
	
		<radialGradient id="SVGID_1_" cx="972" cy="502.9703" r="833.6775" gradientTransform="matrix(1 0 0 -0.8417 0 303.012)" gradientUnits="userSpaceOnUse">
		<stop  offset="0" style="stop-color:#ED1C24"/>
		<stop  offset="1" style="stop-color:#790000"/>
	</radialGradient>
	<path class="st0" d="M0,0h1920v280L0,360V0z"/>
</g>
<g>
	<line class="st1" x1="588" y1="135" x2="383" y2="0"/>
	<line class="st1" x1="105" y1="206" x2="0" y2="279"/>
	<line class="st1" x1="204" y1="0" x2="235" y2="85"/>
	<polyline class="st1" points="588,135 631,0 802,76 	"/>
	<line class="st1" x1="1082" y1="129" x2="960" y2="0"/>
	<polyline class="st1" points="1205,0 1268.5,65.5 1491.5,93.5 1708,128.2 1767.5,-0.5 1857.5,79.5 	"/>
	<polyline class="st1" points="1626.5,-0.5 1491.5,93.5 1403.5,-0.5 	"/>
	<line class="st1" x1="105" y1="206" x2="365" y2="219"/>
	<polyline class="st1" points="235,85 588,135 851,260 	"/>
	<polyline class="st1" points="805,76 1082,130 1328,233 	"/>
	<polyline class="st1" points="0,159 105,206 235,85 365.5,218.5 587.5,134.5 801.5,75.5 851.5,260.5 1082.5,129.5 1268.5,65.5 
		1328.5,232.5 1496.5,93.1 1588.5,234.5 1704.9,129.2 1856.5,79.5 1920.5,141.5 	"/>
</g>
<g>
	
		<radialGradient id="SVGID_2_" cx="587.8" cy="225" r="100" gradientTransform="matrix(1 0 0 -1 0 360)" gradientUnits="userSpaceOnUse">
		<stop  offset="0" style="stop-color:#FFFFFF"/>
		<stop  offset="0.5918" style="stop-color:#FDFDFD"/>
		<stop  offset="0.8047" style="stop-color:#F6F6F6"/>
		<stop  offset="0.9562" style="stop-color:#EBEBEB"/>
		<stop  offset="1" style="stop-color:#E6E6E6"/>
	</radialGradient>
	<circle class="st2" cx="587.8" cy="135" r="100"/>
	<path class="st3" d="M610.8,108.1c-48.6,30.5-53.8,65.4-53.8,65.4c23.1,0,80.8-11.5,80.8-88.5c-100,0-100,84.6-100,100
		C561.3,118.2,610.8,108.1,610.8,108.1z"/>
</g>
<g>
	
		<radialGradient id="SVGID_3_" cx="851.3" cy="99.5" r="100" gradientTransform="matrix(1 0 0 -1 0 360)" gradientUnits="userSpaceOnUse">
		<stop  offset="0" style="stop-color:#FFFFFF"/>
		<stop  offset="0.5918" style="stop-color:#FDFDFD"/>
		<stop  offset="0.8047" style="stop-color:#F6F6F6"/>
		<stop  offset="0.9562" style="stop-color:#EBEBEB"/>
		<stop  offset="1" style="stop-color:#E6E6E6"/>
	</radialGradient>
	<circle class="st4" cx="851.3" cy="260.5" r="100"/>
	<g>
		<path class="st5" d="M858.9,291.8c0,2.1-1.7,3.8-3.8,3.8h-7.7c-2.1,0-3.8-1.7-3.8-3.8h-42.3c0,4.2,3.4,7.7,7.7,7.7h84.6
			c4.2,0,7.7-3.4,7.7-7.7H858.9z"/>
		<path class="st5" d="M866.6,230.3h-57.7c-2.1,0-3.8,1.7-3.8,3.8V288h3.8v-52c0-1.1,0.9-1.9,1.9-1.9h55.8V230.3z"/>
		<rect x="893.6" y="238" class="st5" width="3.8" height="50"/>
		<path class="st5" d="M832,253.3v3.8c0,2.1-1.7,3.8-3.8,3.8v3.8c2.1,0,3.8,1.7,3.8,3.8v3.8c0,4.3,3.4,7.7,7.7,7.7h3.8v-3.8h-3.8
			c-2.1,0-3.8-1.7-3.8-3.8v-3.8c0-2.3-1-4.4-2.6-5.8c1.6-1.4,2.6-3.5,2.6-5.8v-3.8c0-2.1,1.7-3.8,3.8-3.8h3.8v-3.8h-3.8
			C835.5,245.7,832,249.1,832,253.3z"/>
		<path class="st5" d="M874.3,261c-2.1,0-3.8-1.7-3.8-3.8v-3.8c0-4.3-3.4-7.7-7.7-7.7H859v3.8h3.8c2.1,0,3.8,1.7,3.8,3.8v3.8
			c0,2.3,1,4.4,2.6,5.8c-1.6,1.4-2.6,3.5-2.6,5.8v3.8c0,2.1-1.7,3.8-3.8,3.8H859v3.8h3.8c4.3,0,7.7-3.4,7.7-7.7v-3.8
			c0-2.1,1.7-3.8,3.8-3.8V261L874.3,261z"/>
		<path class="st5" d="M872.4,226.4h9.6c1.1,0,1.9,0.9,1.9,1.9v7.7c0,1.1-0.9,1.9-1.9,1.9h-9.6c-1.1,0-1.9-0.9-1.9-1.9v-7.7
			C870.5,227.3,871.3,226.4,872.4,226.4z M872.4,229.3v5.8c0,0.5,0.4,1,1,1h7.7c0.5,0,1-0.4,1-1v-5.8c0-0.5-0.4-1-1-1h-7.7
			C872.8,228.3,872.4,228.8,872.4,229.3z"/>
		<path class="st5" d="M895.9,234.1h-6.5c-0.8,0-1.5-0.7-1.5-1.5V228c0-0.8,0.7-1.5,1.5-1.5h6.5c0.8,0,1.5,0.7,1.5,1.5v4.6
			C897.4,233.4,896.7,234.1,895.9,234.1z M895.7,231.6v-2.7c0-0.5-0.4-1-1-1h-4.2c-0.5,0-1,0.4-1,1v2.7c0,0.5,0.4,1,1,1h4.2
			C895.2,232.6,895.7,232.1,895.7,231.6z"/>
		<path class="st5" d="M867.6,222.6h-11.5c-1.6,0-2.9-1.3-2.9-2.9v-9.6c0-1.6,1.3-2.9,2.9-2.9h11.5c1.6,0,2.9,1.3,2.9,2.9v9.6
			C870.5,221.3,869.2,222.6,867.6,222.6z M867.6,218.2v-6.5c0-0.8-0.7-1.5-1.5-1.5h-8.5c-0.8,0-1.5,0.7-1.5,1.5v6.5
			c0,0.8,0.7,1.5,1.5,1.5h8.5C866.9,219.7,867.6,219,867.6,218.2z"/>
		<path class="st5" d="M897.4,222.6h-19.2c-2.1,0-3.8-1.7-3.8-3.8v-15.4c0-2.1,1.7-3.8,3.8-3.8h19.2c2.1,0,3.8,1.7,3.8,3.8v15.4
			C901.3,220.9,899.5,222.6,897.4,222.6z M897.9,217.3v-12.5c0-1.1-0.9-1.9-1.9-1.9h-16.3c-1.1,0-1.9,0.9-1.9,1.9v12.5
			c0,1.1,0.9,1.9,1.9,1.9H896C897,219.2,897.9,218.4,897.9,217.3z"/>
	</g>
</g>
<g>
	
		<radialGradient id="SVGID_4_" cx="1082.3" cy="226.5" r="100" gradientTransform="matrix(1 0 0 -1 0 360)" gradientUnits="userSpaceOnUse">
		<stop  offset="0" style="stop-color:#FFFFFF"/>
		<stop  offset="0.5918" style="stop-color:#FDFDFD"/>
		<stop  offset="0.8047" style="stop-color:#F6F6F6"/>
		<stop  offset="0.9562" style="stop-color:#EBEBEB"/>
		<stop  offset="1" style="stop-color:#E6E6E6"/>
	</radialGradient>
	<circle class="st6" cx="1082.3" cy="133.5" r="100"/>
	<g>
		<path class="st7" d="M1132.3,152.4v-7.7h-23.1v-15.4h-7.7l-23.1-19.2v16.5l3.8,2.7h-3.8l-23.1-19.2v16.5l3.8,2.7h-3.8l-23.1-19.2
			v65.4h100v-7.7h-23.1V164h23.1v-7.7h-23.1v-3.8h23.2L1132.3,152.4L1132.3,152.4z M1055.3,165.9c0,1.1-0.9,1.9-1.9,1.9h-11.5
			c-1.1,0-1.9-0.9-1.9-1.9v-7.7c0-1.1,0.9-1.9,1.9-1.9h11.5c1.1,0,1.9,0.9,1.9,1.9V165.9z M1055.3,146.7c0,1.1-0.9,1.9-1.9,1.9
			h-11.5c-1.1,0-1.9-0.9-1.9-1.9V139c0-1.1,0.9-1.9,1.9-1.9h11.5c1.1,0,1.9,0.9,1.9,1.9V146.7z M1078.4,165.9c0,1.1-0.9,1.9-1.9,1.9
			H1065c-1.1,0-1.9-0.9-1.9-1.9v-7.7c0-1.1,0.9-1.9,1.9-1.9h11.5c1.1,0,1.9,0.9,1.9,1.9V165.9z M1078.4,146.7c0,1.1-0.9,1.9-1.9,1.9
			H1065c-1.1,0-1.9-0.9-1.9-1.9V139c0-1.1,0.9-1.9,1.9-1.9h11.5c1.1,0,1.9,0.9,1.9,1.9V146.7z M1101.5,165.9c0,1.1-0.9,1.9-1.9,1.9
			H1088c-1.1,0-1.9-0.9-1.9-1.9v-7.7c0-1.1,0.9-1.9,1.9-1.9h11.5c1.1,0,1.9,0.9,1.9,1.9L1101.5,165.9L1101.5,165.9z M1101.5,146.7
			c0,1.1-0.9,1.9-1.9,1.9H1088c-1.1,0-1.9-0.9-1.9-1.9V139c0-1.1,0.9-1.9,1.9-1.9h11.5c1.1,0,1.9,0.9,1.9,1.9L1101.5,146.7
			L1101.5,146.7z"/>
		<polygon class="st7" points="1117.8,87 1113,140.9 1132.3,140.9 1127.5,87 		"/>
		<polygon class="st7" points="1104.6,94.7 1101.5,125.5 1113,125.5 1109.9,94.7 		"/>
		<polygon class="st7" points="1109.6,90.9 1109.2,87 1105.3,87 1104.9,90.9 		"/>
		<polygon class="st7" points="1127.2,83.2 1126.5,75.5 1118.8,75.5 1118.1,83.2 		"/>
	</g>
</g>
<g>
	
		<radialGradient id="SVGID_5_" cx="1332.3" cy="129.5" r="100" gradientTransform="matrix(1 0 0 -1 0 360)" gradientUnits="userSpaceOnUse">
		<stop  offset="0" style="stop-color:#FFFFFF"/>
		<stop  offset="0.5918" style="stop-color:#FDFDFD"/>
		<stop  offset="0.8047" style="stop-color:#F6F6F6"/>
		<stop  offset="0.9562" style="stop-color:#EBEBEB"/>
		<stop  offset="1" style="stop-color:#E6E6E6"/>
	</radialGradient>
	<circle class="st8" cx="1332.3" cy="230.5" r="100"/>
	<g>
		<path class="st9" d="M1382.3,261.3c0,10.6-8.6,19.2-19.2,19.2h-63.5c-9.6,0-17.3-7.7-17.3-17.3c0-9.6,7.7-17.3,17.3-17.3
			c0.7,0,1.3,0,1.9,0.1v-0.1c0-10.6,8.6-19.2,19.2-19.2c2,0,3.9,0.3,5.8,0.9c3.3-7.3,10.7-12.4,19.2-12.4c11.7,0,21.2,9.5,21.2,21.2
			c0,2.1-0.3,4.1-0.9,6C1375.2,243.7,1382.3,251.7,1382.3,261.3z M1363,245.9c-1.1,0-2.1,0.1-3.2,0.3c2-2.8,3.2-6.2,3.2-9.9
			c0-9.6-7.7-17.3-17.3-17.3c-8.4,0-15.3,5.9-17,13.8c-2.3-1.4-5.1-2.3-8-2.3c-8.5,0-15.4,6.9-15.4,15.4c0,2,0.4,4,1.1,5.8
			c-2-1.2-4.4-1.9-6.9-1.9c-7.4,0-13.5,6-13.5,13.5c0,7.4,6,13.5,13.5,13.5h63.5c8.5,0,15.4-6.9,15.4-15.4
			C1378.4,252.8,1371.5,245.9,1363,245.9z"/>
		<rect x="1293.8" y="238.2" class="st9" width="3.8" height="3.8"/>
		<rect x="1293.8" y="230.5" class="st9" width="3.8" height="3.8"/>
		<rect x="1293.8" y="222.8" class="st9" width="3.8" height="3.8"/>
		<rect x="1370.7" y="234.3" class="st9" width="3.8" height="3.8"/>
		<rect x="1370.7" y="226.7" class="st9" width="3.8" height="3.8"/>
		<rect x="1370.7" y="219" class="st9" width="3.8" height="3.8"/>
		<rect x="1370.7" y="211.3" class="st9" width="3.8" height="3.8"/>
		<path class="st9" d="M1305.3,180.5h-19.2c-2.1,0-3.8,1.7-3.8,3.8v30.8c0,2.1,1.7,3.8,3.8,3.8h19.2c2.1,0,3.8-1.7,3.8-3.8v-30.8
			C1309.2,182.2,1307.5,180.5,1305.3,180.5z M1295.7,217c-1.1,0-1.9-0.9-1.9-1.9c0-1.1,0.9-1.9,1.9-1.9c1.1,0,1.9,0.9,1.9,1.9
			C1297.6,216.2,1296.8,217,1295.7,217z M1303.4,211.3H1288c-1.1,0-1.9-0.9-1.9-1.9v-23.1c0-1.1,0.9-1.9,1.9-1.9h15.4
			c1.1,0,1.9,0.9,1.9,1.9v23.1C1305.3,210.4,1304.5,211.3,1303.4,211.3z"/>
		<path class="st9" d="M1328.4,215.1c0,2.1-1.7,3.8-3.8,3.8c-2.1,0-3.8-1.7-3.8-3.8s1.7-3.8,3.8-3.8
			C1326.7,211.3,1328.4,213,1328.4,215.1z M1324.6,213.2c-1.1,0-1.9,0.9-1.9,1.9s0.9,1.9,1.9,1.9c1.1,0,1.9-0.9,1.9-1.9
			S1325.6,213.2,1324.6,213.2z"/>
		<path class="st9" d="M1324.6,205.5c0,3.2-2.6,5.8-5.8,5.8s-5.8-2.6-5.8-5.8s2.6-5.8,5.8-5.8S1324.6,202.3,1324.6,205.5z
			 M1318.8,202.6c-1.6,0-2.9,1.3-2.9,2.9c0,1.6,1.3,2.9,2.9,2.9s2.9-1.3,2.9-2.9C1321.7,203.9,1320.4,202.6,1318.8,202.6z"/>
		<path class="st9" d="M1336.1,190.1c0,5.3-4.3,9.6-9.6,9.6s-9.6-4.3-9.6-9.6s4.3-9.6,9.6-9.6S1336.1,184.8,1336.1,190.1z
			 M1326.5,184.3c-3.2,0-5.8,2.6-5.8,5.8s2.6,5.8,5.8,5.8s5.8-2.6,5.8-5.8S1329.7,184.3,1326.5,184.3z"/>
		<path class="st9" d="M1378.4,207.4h-34.6c-2.1,0-3.8-1.7-3.8-3.8v-19.2c0-2.1,1.7-3.8,3.8-3.8h34.6c2.1,0,3.8,1.7,3.8,3.8v19.2
			C1382.3,205.7,1380.5,207.4,1378.4,207.4z M1378.4,201.7v-15.4c0-1.1-0.9-1.9-1.9-1.9h-30.8c-1.1,0-1.9,0.9-1.9,1.9v15.4
			c0,1.1,0.9,1.9,1.9,1.9h30.8C1377.5,203.6,1378.4,202.7,1378.4,201.7z"/>
	</g>
</g>
<g>
	
		<radialGradient id="SVGID_6_" cx="801.5" cy="284.5" r="45" gradientTransform="matrix(1 0 0 -1 0 360)" gradientUnits="userSpaceOnUse">
		<stop  offset="0" style="stop-color:#FFFFFF"/>
		<stop  offset="0.5918" style="stop-color:#FDFDFD"/>
		<stop  offset="0.8047" style="stop-color:#F6F6F6"/>
		<stop  offset="0.9562" style="stop-color:#EBEBEB"/>
		<stop  offset="1" style="stop-color:#E6E6E6"/>
	</radialGradient>
	<circle class="st10" cx="801.5" cy="75.5" r="45"/>
	<g id="idea_1_">
		<g>
			<g>
				<path class="st11" d="M811.6,75.3c-0.5,0-0.8-0.4-0.8-0.8c0-5.2-4.2-9.4-9.4-9.4c-0.5,0-0.8-0.4-0.8-0.8c0-0.5,0.4-0.8,0.8-0.8
					c6.1,0,11.1,5,11.1,11.1C812.4,74.9,812,75.3,811.6,75.3z"/>
			</g>
		</g>
		<g>
			<g>
				<g>
					<polygon class="st11" points="804.5,96.4 803.3,96.2 805.8,81.1 807,81.3 					"/>
				</g>
				<g>
					<polygon class="st11" points="798.2,96.4 795.7,81.3 796.9,81.1 799.4,96.2 					"/>
				</g>
			</g>
			<g>
				<path class="st11" d="M806.3,83.2c-0.5,0-0.8-0.5-0.9-0.9c-0.1-0.2-0.2-0.5-0.3-0.5s-0.2,0.3-0.3,0.5c-0.2,0.4-0.4,0.9-0.9,0.9
					s-0.8-0.5-0.9-0.9c-0.1-0.2-0.2-0.5-0.3-0.5s-0.2,0.3-0.3,0.5c-0.2,0.4-0.4,0.9-0.9,0.9s-0.7-0.5-0.9-0.9
					c-0.1-0.2-0.2-0.5-0.3-0.5s-0.2,0.3-0.3,0.5c-0.2,0.4-0.4,0.9-0.9,0.9s-0.7-0.5-0.9-0.9c-0.1-0.2-0.2-0.5-0.3-0.5
					s-0.2,0.3-0.3,0.5c-0.2,0.4-0.4,0.9-0.9,0.9v-0.7c0.1,0,0.2-0.3,0.3-0.5c0.2-0.4,0.4-0.9,0.9-0.9s0.8,0.5,0.9,0.9
					c0.1,0.2,0.2,0.5,0.3,0.5s0.2-0.3,0.3-0.5c0.2-0.4,0.4-0.9,0.9-0.9s0.8,0.5,0.9,0.9c0.1,0.2,0.2,0.5,0.3,0.5s0.2-0.3,0.3-0.5
					c0.2-0.4,0.4-0.9,0.9-0.9s0.7,0.5,0.9,0.9c0.1,0.2,0.2,0.5,0.3,0.5s0.2-0.3,0.3-0.5c0.2-0.4,0.4-0.9,0.9-0.9s0.8,0.5,0.9,0.9
					c0.1,0.2,0.2,0.5,0.3,0.5V83.2L806.3,83.2z"/>
			</g>
		</g>
		<g>
			<path class="st11" d="M801.4,56c-0.5,0-0.8-0.4-0.8-0.8v-8.8c0-0.5,0.4-0.8,0.8-0.8c0.5,0,0.8,0.4,0.8,0.8v8.8
				C802.2,55.6,801.8,56,801.4,56z"/>
		</g>
		<g>
			<path class="st11" d="M811.4,58.6c-0.1,0-0.3,0-0.4-0.1c-0.4-0.2-0.5-0.7-0.3-1.1l4.4-7.6c0.2-0.4,0.7-0.5,1.1-0.3
				c0.4,0.2,0.5,0.7,0.3,1.1l-4.4,7.6C812,58.5,811.7,58.6,811.4,58.6z"/>
		</g>
		<g>
			<path class="st11" d="M818.7,66c-0.3,0-0.6-0.1-0.7-0.4c-0.2-0.4-0.1-0.9,0.3-1.1l7.6-4.4c0.4-0.2,0.9-0.1,1.1,0.3
				c0.2,0.4,0.1,0.9-0.3,1.1l-7.6,4.4C819,66,818.9,66,818.7,66z"/>
		</g>
		<g>
			<path class="st11" d="M830.5,76h-9.1c-0.5,0-0.8-0.4-0.8-0.8c0-0.5,0.4-0.8,0.8-0.8h9.1c0.5,0,0.8,0.4,0.8,0.8S831,76,830.5,76z"
				/>
		</g>
		<g>
			<path class="st11" d="M826.4,90.4c-0.1,0-0.3,0-0.4-0.1l-7.6-4.4c-0.4-0.2-0.5-0.7-0.3-1.1s0.7-0.5,1.1-0.3l7.6,4.4
				c0.4,0.2,0.5,0.7,0.3,1.1C826.9,90.3,826.6,90.4,826.4,90.4z"/>
		</g>
		<g>
			<path class="st11" d="M791.3,58.6c-0.3,0-0.6-0.2-0.7-0.4l-4.4-7.6c-0.2-0.4-0.1-0.9,0.3-1.1c0.4-0.2,0.9-0.1,1.1,0.3l4.4,7.6
				c0.2,0.4,0.1,0.9-0.3,1.1C791.6,58.6,791.5,58.6,791.3,58.6z"/>
		</g>
		<g>
			<path class="st11" d="M784,66c-0.1,0-0.3,0-0.4-0.1l-7.6-4.4c-0.4-0.2-0.5-0.7-0.3-1.1c0.2-0.4,0.7-0.5,1.1-0.3l7.6,4.4
				c0.4,0.2,0.5,0.7,0.3,1.1C784.5,65.8,784.3,66,784,66z"/>
		</g>
		<g>
			<path class="st11" d="M781.3,76h-8.8c-0.5,0-0.8-0.4-0.8-0.8c0-0.5,0.4-0.8,0.8-0.8h8.8c0.5,0,0.8,0.4,0.8,0.8
				C782.1,75.7,781.8,76,781.3,76z"/>
		</g>
		<g>
			<path class="st11" d="M776.4,90.5c-0.3,0-0.6-0.1-0.7-0.4c-0.2-0.4-0.1-0.9,0.3-1.1l7.6-4.4c0.4-0.2,0.9-0.1,1.1,0.3
				c0.2,0.4,0.1,0.9-0.3,1.1l-7.6,4.4C776.7,90.4,776.5,90.5,776.4,90.5z"/>
		</g>
		<g>
			<g>
				<path class="st11" d="M808.8,96.6L808.8,96.6h-14.9c-0.8,0-1.4-0.6-1.4-1.4c0-0.1,0-0.1,0-0.2c0.1-1,0-4.1-1-5.4
					c-6-7.7-6.1-15.1-6.1-15.1c0-8.8,7.2-16,16-16s16,7.2,16,16c0,0.1-0.2,7.5-6.1,15.2c-1.1,1.4-1.1,4.5-1.1,5.3c0,0.1,0,0.2,0,0.2
					C810.2,96,809.6,96.6,808.8,96.6z M793.9,93.8c-0.8,0-1.3,0.6-1.4,1.2C792.6,94.3,793.2,93.8,793.9,93.8z M809,93.8
					c0.2,0,0.4,0.1,0.5,0.2C809.4,94,809.2,93.9,809,93.8z M795.3,93.8h12.1c0-0.6,0.1-1.2,0.1-1.2c0.2-2,0.7-3.6,1.5-4.7
					c5.4-6.9,5.6-13.4,5.6-13.5c0-7.3-5.9-13.2-13.2-13.2s-13.2,5.9-13.2,13.2c0,0.1,0.2,6.6,5.6,13.5c0.8,1.1,1.3,2.7,1.5,4.7
					C795.3,92.7,795.3,93.2,795.3,93.8z"/>
			</g>
			<g>
				<path class="st11" d="M808.3,99.6h-13.9c-0.8,0-1.4-0.6-1.4-1.4s0.6-1.4,1.4-1.4h13.9c0.8,0,1.4,0.6,1.4,1.4
					S809.1,99.6,808.3,99.6z"/>
			</g>
			<g>
				<path class="st11" d="M807.3,102.6h-11.8c-0.8,0-1.4-0.6-1.4-1.4s0.6-1.4,1.4-1.4h11.8c0.8,0,1.4,0.6,1.4,1.4
					S808.1,102.6,807.3,102.6z"/>
			</g>
			<g>
				<path class="st11" d="M805.5,105.5h-8.4c-0.8,0-1.4-0.6-1.4-1.4s0.6-1.4,1.4-1.4h8.4c0.8,0,1.4,0.6,1.4,1.4
					S806.3,105.5,805.5,105.5z"/>
			</g>
		</g>
	</g>
</g>
<g>
	
		<radialGradient id="SVGID_7_" cx="1268.5" cy="294.5" r="45" gradientTransform="matrix(1 0 0 -1 0 360)" gradientUnits="userSpaceOnUse">
		<stop  offset="0" style="stop-color:#FFFFFF"/>
		<stop  offset="0.5918" style="stop-color:#FDFDFD"/>
		<stop  offset="0.8047" style="stop-color:#F6F6F6"/>
		<stop  offset="0.9562" style="stop-color:#EBEBEB"/>
		<stop  offset="1" style="stop-color:#E6E6E6"/>
	</radialGradient>
	<circle class="st12" cx="1268.5" cy="65.5" r="45"/>
	<g>
		<rect x="1250.7" y="54.5" class="st13" width="8.8" height="32.9"/>
		<rect x="1263.8" y="70" class="st13" width="9.9" height="17.4"/>
		<rect x="1278" y="61.8" class="st13" width="8.8" height="25.6"/>
		<g>
			<g>
				<line class="st14" x1="1243" y1="87.4" x2="1294" y2="87.4"/>
				<rect x="1243" y="86.9" class="st13" width="51" height="1"/>
			</g>
			<g>
				<line class="st14" x1="1243" y1="87.4" x2="1243" y2="43.1"/>
				<rect x="1243" y="43.6" class="st13" width="1" height="44.3"/>
			</g>
		</g>
	</g>
</g>
<g>
	
		<radialGradient id="SVGID_8_" cx="365" cy="141" r="60" gradientTransform="matrix(1 0 0 -1 0 360)" gradientUnits="userSpaceOnUse">
		<stop  offset="0" style="stop-color:#FFFFFF"/>
		<stop  offset="0.5918" style="stop-color:#FDFDFD"/>
		<stop  offset="0.8047" style="stop-color:#F6F6F6"/>
		<stop  offset="0.9562" style="stop-color:#EBEBEB"/>
		<stop  offset="1" style="stop-color:#E6E6E6"/>
	</radialGradient>
	<circle class="st15" cx="365" cy="219" r="60"/>
	<g>
		<g>
			<g>
				<g>
					<polygon class="st16" points="337,245.7 345.4,236.7 379.5,236.7 379.5,227.1 348.6,227.1 346.9,227.1 346.9,225.4 
						346.9,204.8 332,204.8 332,236.7 337,236.7 					"/>
					<path class="st16" d="M384.1,225.3l8.6,9.5v-9.5h5.3v-33h-49.3v12.4v20.6h30.9H384.1z M389.9,205.4c2.1,0,3.8,1.7,3.8,3.8
						s-1.7,3.8-3.8,3.8c-2.1,0-3.8-1.7-3.8-3.8C386.1,207.1,387.8,205.4,389.9,205.4 M358.3,212.9c-2.1,0-3.8-1.7-3.8-3.8
						s1.7-3.8,3.8-3.8c2.1,0,3.8,1.7,3.8,3.8C362.1,211.2,360.4,212.9,358.3,212.9 M368.8,212.9c-2.1,0-3.8-1.7-3.8-3.8
						s1.7-3.8,3.8-3.8c2.1,0,3.8,1.7,3.8,3.8C372.6,211.2,370.9,212.9,368.8,212.9 M379.3,212.9c-2.1,0-3.8-1.7-3.8-3.8
						s1.7-3.8,3.8-3.8c0.1,0,0.1,0,0.2,0c2,0.1,3.5,1.7,3.5,3.7s-1.6,3.6-3.5,3.7C379.5,212.9,379.4,212.9,379.3,212.9"/>
				</g>
			</g>
		</g>
	</g>
</g>
<g>
	
		<radialGradient id="SVGID_9_" cx="1492" cy="265" r="60" gradientTransform="matrix(1 0 0 -1 0 360)" gradientUnits="userSpaceOnUse">
		<stop  offset="0" style="stop-color:#FFFFFF"/>
		<stop  offset="0.5918" style="stop-color:#FDFDFD"/>
		<stop  offset="0.8047" style="stop-color:#F6F6F6"/>
		<stop  offset="0.9562" style="stop-color:#EBEBEB"/>
		<stop  offset="1" style="stop-color:#E6E6E6"/>
	</radialGradient>
	<circle class="st17" cx="1492" cy="95" r="60"/>
	<g>
		<path class="st18" d="M1491.2,102.6c-5.4,0-9.7,4.3-9.7,9.7c0,5.4,4.3,9.7,9.7,9.7c5.4,0,9.7-4.3,9.7-9.7
			C1500.9,106.9,1496.6,102.6,1491.2,102.6z"/>
		<path class="st18" d="M1491.4,86.4c-8,0-16,3.8-21.2,9.9l4.6,4c4.1-4.8,10.3-7.8,16.6-7.8c7,0,13.3,3.7,17.3,9.5l5-3.5
			C1508.6,91.1,1500.4,86.4,1491.4,86.4z"/>
		<path class="st18" d="M1491,68c-12.2,0-24,5.4-32,13l4.7,4.3c6.8-6.4,16.9-11.2,27.3-11.2c11.6,0,22.2,5.7,28.9,13.4l5.1-3.8
			C1517.1,74.5,1504.6,68,1491,68z"/>
	</g>
</g>
<g>
	
		<radialGradient id="SVGID_10_" cx="102" cy="152" r="45" gradientTransform="matrix(1 0 0 -1 0 360)" gradientUnits="userSpaceOnUse">
		<stop  offset="0" style="stop-color:#FFFFFF"/>
		<stop  offset="0.5918" style="stop-color:#FDFDFD"/>
		<stop  offset="0.8047" style="stop-color:#F6F6F6"/>
		<stop  offset="0.9562" style="stop-color:#EBEBEB"/>
		<stop  offset="1" style="stop-color:#E6E6E6"/>
	</radialGradient>
	<circle class="st19" cx="102" cy="208" r="45"/>
	<g>
		<path class="st20" d="M102,183c-13.8,0-25,11.2-25,25s11.2,25,25,25s25-11.2,25-25S115.8,183,102,183z M123.6,215.4
			c-0.1,0-0.1,0-0.1,0.2c0,0.1,0,0.1,0,0.2c-0.6,1.6-1.4,3.2-2.3,4.6c-0.2,0.1-0.3,0.2-0.4,0.3c-0.6-0.1-0.7,0.2-1.1,0.4
			c-0.2,0-0.2-0.2-0.5-0.2c-0.1-0.4,0.1-0.6,0.1-1c0-0.2-0.1-0.4-0.2-0.4c0.2-0.4,0-0.9-0.1-1.3c0.1-0.2,0.4-0.1,0.6-0.3
			c0.3-0.1,0.2-0.7,0.4-0.9c0.2-0.2,0.1,0,0.3,0.1c0.2,0,0-0.5,0.2-0.5s0.4-0.2,0.6,0c0.3-0.1,0.2-0.5,0.3-0.8
			c0.2-0.1,0.5-0.2,0.8-0.3c0.2,0,0-0.4,0.2-0.4c0.4,0.2,1,0,1.4,0.2C123.7,215.3,123.6,215.4,123.6,215.4z M84.4,193.4
			c0.1,0,0.2,0.1,0.3,0.1c0.3,0,0.3-0.4,0.7-0.4c0,0.2,0,0.4,0.2,0.4c0.2-0.2,0.3-0.9,0-1c-0.1-0.3,0.1-0.2,0.1-0.4
			c0.4-0.1,0.3,0.2,0.6,0.2c0.1,0.4,0.4,0.6,0.6,0.8c0.1,0.3-0.3,0.3-0.1,0.5c0.1-0.2,0.3-0.4,0.4-0.6c0-0.2-0.3,0-0.4-0.1
			c-0.5-0.5,0-1.4,0.4-1.7c0.2,0,0.3,0.2,0.3,0.5c0.1-0.3,0.7-0.5,0.7,0.1c0.3,0,0.4-0.1,0.8-0.1c0,0.2,0.3,0.2,0.2,0.4
			c0.2,0,0.5,0,0.7,0c0,0.4,0.2,0.4,0.3,0.6c0,0.2-0.2,0.2-0.2,0.4c0.2,0.1,0.4,0.2,0.7,0.3c0.1,0.1,0,0.3,0.2,0.3
			c0,0.2-0.1,0.3-0.1,0.5c-0.3-0.1-0.3,0.1-0.2,0.4c-0.2-0.1-0.3-0.3-0.6-0.4c0,0.3,0.2,0.3,0.2,0.5c0,0.5-0.2,0.5-0.1,1
			c-0.6-0.1-0.8-0.6-1.3-0.9c-0.3,0-0.6,0-0.8-0.2c0.1-0.6,0.9-0.4,1-1.1c0-0.4-0.4-0.2-0.3-0.6c-0.2,0.1-0.5-0.3-0.6,0
			c-0.1-0.2-0.4-0.2-0.7-0.2c0.1,0.1,0.3,0.1,0.4,0.3c-0.1,0.2-0.1,0.5-0.1,0.9c-0.3,0.2-0.6,0.2-1.1,0.4c0,0.2,0.1,0.2,0.1,0.4
			c-0.4,0-0.5,0.4-0.7,0.7c-0.3,0.2-0.4,0.5-0.6,0.6c0,0.1,0,0.3-0.2,0.3c0,0.3,0.4,0.2,0.2,0.6c0.4,0.1,0.6,0.4,0.8,0.6
			c0.2,0,0.2-0.2,0.3,0.1c0.2,0,0.2-0.3,0.3-0.1c0.1,0.4,0.1,0.8,0.3,1.1c0.1-0.4,0.1-0.9,0.4-1.1c0-0.1-0.2,0.1-0.3-0.2
			c0.1-0.3,0.3,0,0.5,0c-0.1-0.7,0.2-1.2,0.1-2.1c0.2,0.1,0.2-0.1,0.4-0.1c0.2,0,0.2,0.3,0.4,0.1c0.4,0.1,0.3,0.5,0.7,0.3
			c0,0.3,0,0.6,0,0.9c0,0.2,0.4,0,0.5,0.1c0.2,0,0-0.3,0.1-0.4c0.4,0,0.3,0.7,0.6,0.9c0,0.2,0,0.3-0.1,0.4c0,0.4,0.4,0.4,0.4,0.8
			c0.2,0,0.2-0.2,0.4,0c0,0.6,0,0.6,0,1.2c0.1,0.2,0.2,0.5,0.5,0.5c-0.2,0.2,0,0.4,0,0.6c-0.2,0.1-0.5-0.2-0.5,0
			c-0.1,0-0.1-0.2-0.1-0.4c-0.3-0.1-0.3,0.2-0.6,0.1c0.1-0.5,0.5-0.8,0.7-1.3c-0.3-0.2-0.7,0.6-1.1,0.3c-0.1,0.3,0.1,0.2,0.1,0.4
			c-0.2,0.1-0.4,0.1-0.5,0.4c0,0.4,0.3,0.3,0.5,0.4c-0.2,0.3-0.5,0.4-0.8,0.5c0-0.2,0.2-0.1,0.1-0.4c-0.4,0.2-0.8,0.3-1.1,0.5
			c-0.1,0.3,0.2,0.3,0.2,0.5c-0.3,0.1-0.5,0.2-0.8,0.4c0.1,0.6-0.3,0.5-0.1,1c-0.1,0.1-0.2,0.1-0.4,0.1c0.1,0.3,0.1,0.3,0,0.5
			c-0.5,0.1-0.9,0.5-1,1.1c0,0.2,0.1,0.3,0.2,0.4c-0.1,0.3-0.1,0.4,0,0.9c-0.4,0-0.6-0.3-0.5-0.8c-0.1-0.4-0.6-0.2-0.9-0.3
			c-0.1,0-0.1,0.1-0.1,0.3c-0.4,0-0.5-0.3-0.9-0.3c-0.3,0.1-0.4,0.3-0.7,0.4c0.2,0.7-0.4,2.3,0.6,2.2c0.2-0.1,0.2-0.5,0.3-0.7
			c0.4,0,0.4,0,0.8,0c0.1,0.6-0.2,0.8-0.2,1.2c0.3,0.2,0.8,0,0.9,0.4c0.1,0.6-0.2,1,0,1.4c0.3,0,0.3-0.3,0.5-0.4
			c0.2,0,0.3,0.2,0.3,0.4c0.2-0.3,0.5-0.4,0.6-0.8c0.2,0,0.3-0.1,0.4-0.3c0.2,0.1,0.2,0.3,0.4,0.4c0.2,0,0.1-0.3,0.3-0.3
			c0.1,0.4,0.4,0.4,0.5,0.7c0.1,0,0.1-0.1,0.2-0.2c0.4,0.1,0.7,0.4,1.1,0.5c0,0.4,0.2,0.6,0.5,0.8c0.7-0.4,1.1,0.7,0.9,1.2
			c0,0.2,0.3,0.2,0.5,0.2c0,0.4,0.6,0.2,0.7,0.4c0.2,0,0.4,0,0.5,0c0.3,0.1,0.6,0.2,0.7,0.5c0.2,0,0.2-0.3,0.4-0.1
			c0.1,0.2,0.2,0.5,0.2,0.8c0,0.2-0.1,0.3-0.1,0.5c-0.2,0.1,0,0.3-0.2,0.5c-0.1,0.2-0.3,0.3-0.3,0.6c-0.1,0-0.1,0.1-0.2,0.1
			c0,0.2,0,0.4-0.1,0.4c0.2,0.6-0.1,1.1-0.2,1.7c-0.3,0.1-0.3,0.1-0.7,0.3c-0.1,0.2-0.2,0.4-0.4,0.5c0,0.2,0,0.4,0,0.6
			c-0.2,0.3-0.5,0.4-0.5,0.9c-0.2,0-0.3,0.2-0.3,0.4c-0.1,0-0.2,0-0.2,0.1c-0.2,0-0.4,0-0.6,0c0,0.3,0.2,0.5,0.2,0.9
			c-0.3,0.1-0.4,0.4-0.8,0.4c-0.1,0.3-0.1,0.8-0.6,0.6c0.5,0.1,0.2,1,0,1.2c0,0.3,0.3,0.2,0.2,0.5c0,0.2-0.1,0.3-0.3,0.4
			c0,0.3-0.3,0.4-0.2,0.8c-0.1,0.3,0.3,0.1,0.2,0.4c0.1,0.2,0.3,0.3,0.5,0.4c-0.1,0.3-0.6,0.1-0.8,0.2c-0.1-0.1-0.3-0.2-0.4-0.3l0,0
			c0-0.2-0.1-0.2-0.1-0.4c-0.3-0.2-0.2-0.7-0.5-0.9c0.2-0.5-0.1-0.8-0.2-1.4c0.2-0.3-0.1-0.5,0.1-0.7c0.1-0.3-0.2-0.1-0.1-0.4
			c0.1-0.2,0.4-0.2,0.4-0.6c-0.1-0.2-0.3,0.2-0.4-0.1c0.2-0.6,0-1.6,0.4-1.9c0.1-0.6-0.2-1,0-1.4c0-0.2,0-0.3-0.2-0.4
			c0.1-0.1,0.1-0.3,0.2-0.4c0-0.6-0.2-0.9-0.4-1.3c-0.5-0.1-0.6-0.5-0.8-0.8c-0.1-0.3,0.1-0.2,0.1-0.4c-0.4-0.2-0.7-0.4-0.7-1.2
			c0.1-0.1,0.3,0,0.4-0.2c-0.2-0.2-0.4-0.2-0.5-0.4c0.3-0.3-0.1-0.6,0-1.2c0.1-0.3,0.3-0.4,0.3-0.9c-0.1-0.2,0.2-0.2,0.2-0.4
			c-0.1-0.3-0.2-0.5-0.2-0.8c-0.2,0-0.1,0.2-0.2,0.4c-0.4-0.1-0.5-0.6-0.9-0.6c0-0.1,0-0.2,0-0.3c-0.2-0.1-0.3-0.2-0.4-0.5
			c-0.2,0-0.3-0.2-0.6-0.1c-0.1-0.2-0.2-0.4-0.3-0.6c-0.8,0.2-1.1-0.3-1.8-0.5c-0.2-0.4-0.4-0.7-0.3-1.3c-0.2-0.3-0.4-0.5-0.6-0.7
			c0-0.1,0-0.3-0.1-0.3c0,0.5,0.2,0.4,0.1,0.8c-0.2,0.1-0.2-0.2-0.5-0.1c-0.1-0.3-0.2-0.8-0.5-0.9c0-0.1,0-0.3,0.1-0.3
			c-0.3-0.3-0.3-0.9-0.5-1.3c-0.1-0.1-0.1-0.1-0.2-0.2C80.2,200,82,196.4,84.4,193.4z M87.2,190.6c1.3-1.1,2.7-2,4.1-2.8
			c0,0.1,0.2,0,0.2,0.2c-0.1,0.5-0.6,0.3-0.9,0.4c-0.2,0,0.1,0.2,0,0.4c-0.3,0-0.4,0.1-0.5,0.4c-0.5-0.1-0.5,0.3-0.9,0.4
			c0.1,0.6-0.4,0.5-0.4,1c-0.2,0-0.4,0-0.5,0c-0.1,0.2,0.4-0.1,0.3,0.2c0,0.2-0.1,0.3-0.3,0.3c-0.2,0.7-0.9,0.2-1.5,0.3
			c0-0.1,0-0.2-0.1-0.2c0.1-0.1,0.2-0.2,0.3-0.3c0.2,0.1,0.5,0.2,0.7,0.1C87.6,190.7,87.4,190.6,87.2,190.6z M122.2,197.4
			c-0.1,0.1-0.2,0.2-0.3,0.4c0.1,0.4,0.4,0.2,0.6,0.1c0.1,0.3,0.3,0.5,0.4,0.8c0,0.4,0.1,0.9,0,1.4c-0.3,0.3-0.4,0.7-0.6,1.2
			c-0.2,0.1-0.5,0.2-0.6,0.4c-0.2,0.7,0.2,1.7-0.2,2.1c-0.2-0.1-0.5-0.2-0.4-0.7c-0.1-0.3-0.4-0.3-0.5-0.6c-0.5,0,0.1,0.4-0.2,0.5
			c0,0.2-0.1,0.2-0.2,0.2c0.1,0.3-0.1,0.2-0.1,0.4c0,0.3,0.2,0.3,0.3,0.5c0,0.3,0.1,0.5,0.2,0.5c-0.2,0.2-0.1,0.9-0.2,1.2
			c-0.1,0-0.1,0.1-0.2,0.1c-0.1,0.6-0.4,0.9-0.7,1.3c-0.4,0-0.8,0-0.8,0.4c0.1,0,0.2,0,0.3,0.1c-0.1,0.2-0.1,0.5-0.3,0.5
			c0.1,1.1-0.1,1.9-0.8,2c0-0.2,0-0.3-0.1-0.4c-0.3-0.1-0.4-0.4-0.6-0.6c-0.3,0-0.1,0.5-0.1,0.8c0.1,0.3,0.3,0.5,0.5,0.6
			c0,0.5,0.4,0.7,0.4,1.3c-0.4-0.3-0.8-0.7-1.1-1.1c0.1-0.4-0.1-0.5-0.2-0.7c-0.1-0.3,0.1-0.3,0.2-0.4c0-0.3-0.2-0.4-0.4-0.5
			c0.1-0.3,0-0.3,0.1-0.5c-0.2-0.2-0.7,0-0.8-0.3c-0.1-0.3,0.1-0.2,0.1-0.4c-0.3-0.1-0.3-0.6-0.5-0.8c-0.3,0-0.5,0.2-0.7,0.4
			c-0.1,0.3-0.4,0.3-0.4,0.7c-0.2-0.1-0.1,0.3-0.4,0.2c0,0.1,0,0.2,0,0.4c-0.1,0-0.2,0-0.3,0c0.1,0.8-0.2,1.1-0.3,1.7
			c-0.2,0-0.4,0-0.5-0.1c0-0.2,0-0.4,0-0.5c-0.1-0.3-0.2-0.5-0.4-0.6c-0.1-0.4-0.2-0.9-0.5-1.2c0.1-0.3-0.1-0.3-0.1-0.6
			c-0.1-0.1-0.4-0.1-0.5-0.3c0-0.1,0-0.2,0.2-0.2c-0.3-0.1-0.5-0.5-1-0.4c-0.2,0-0.2-0.1-0.2-0.2c-0.3,0-0.4,0.3-0.8,0.3
			c0.1-0.3-0.1-0.3-0.2-0.4c-0.8,0.1-0.6-0.9-1.1-1.2c-0.1,0-0.2,0.1-0.3,0.2c0.2,0.1,0.1,0.4,0.4,0.4c0,0.5,0.2,0.6,0.3,0.9
			c0.1-0.2,0.3-0.2,0.6-0.2c-0.1,0.6,0.3,0.6,0.5,0.9c0,0.3-0.3,0.3-0.2,0.7c-0.3,0.1-0.4,0.4-0.8,0.4c-0.1,0,0,0.3-0.2,0.4
			c-0.6,0.1-1,0.5-1.5,0.7c-0.4-0.3-0.4-0.9-0.5-1.2c-0.3-0.4-0.5-0.9-0.8-1.3c0.1-0.2-0.1-0.6-0.3-0.8c-0.1,0,0.1,0.4,0,0.7
			c0.1,0.2,0.3,0.3,0.5,0.5c-0.1,0.7,0.4,0.6,0.3,1.2c0.3,0.3,0.6,0.5,0.7,1.2c0.2,0,0.5,0,0.7,0c0.3,0,0.3-0.3,0.6-0.3
			c0.2,0.2,0.1,0.7,0.1,1c-0.4,0.6-0.7,1.3-1.1,1.9c-0.2,0.1-0.4,0.3-0.5,0.5c-0.1,0.4-0.2,0.8-0.4,1.2c0.1,0.7,0.1,1.8,0,2.5
			c-0.6,0.4-0.9,1-0.9,2.1c-0.3-0.1-0.3,0.1-0.5,0.2c0.1,0.4-0.1,0.5-0.1,0.8c-0.3,0.2-0.6,0.6-0.7,1.1c-0.7,0.2-1,0.7-1.8,0.7
			c-0.3-0.5-0.3-1.3-0.7-1.8c0-0.3,0-0.5,0-0.8c-0.1-0.6-0.4-1.1-0.7-1.4c0.2-0.4,0.1-1.1,0.3-1.5c-0.1-0.4-0.1-0.9-0.3-1.2
			c0.1-0.6-0.2-1-0.5-1.4c0-0.6,0.2-0.9,0.2-1.6c-0.3-0.1-0.3,0.1-0.5,0.2c-0.3,0-0.4-0.2-0.8-0.2c-0.1-0.1,0-0.3-0.2-0.4
			c-0.3,0-0.3,0.3-0.5,0.4c-0.4,0-0.8,0-1.1,0.1c-0.5-0.1-0.7-0.5-1.1-0.7c-0.1-0.5-0.3-0.9-0.6-1.2c0-0.8,0-1.5,0-2.3
			c0.2-0.3,0.4-0.6,0.4-1.2c0.2-0.2,0.6-0.5,0.7-0.7c0.2-0.4,0.1-0.9,0.3-1.3c0.2-0.2,0.5-0.2,0.5-0.5c0.2,0,0.4,0.1,0.5,0.3
			c0.3-0.3,0.8-0.4,1.4-0.4c0.3-0.2,0.7-0.3,1.1-0.3c0.1,0.1,0.1,0.3-0.1,0.4c0.1,0.2,0.2,0.2,0.2,0.5c0.3,0.5,1,0.5,1.4,0.9
			c0.2-0.1,0.2-0.5,0.4-0.5c0.7,0,1.4,0.1,2,0.4c0.3-0.1,0.2-0.7,0.4-0.8c0-0.2,0-0.4,0-0.5c-0.4-0.1-0.1,0.5-0.4,0.4
			c-0.4,0,0.1-0.3-0.2-0.4c-0.2,0.2-0.7,0.2-1,0c-0.1-0.1-0.1-0.4-0.2-0.4c0.1-0.4,0-0.4,0.1-0.7c-0.1,0-0.1,0-0.2,0
			c-0.2,0.3,0.1,0.8-0.1,1.1c0.3,0,0.4,0,0.4,0.4c-0.2-0.2-0.4,0-0.5-0.3c0,0,0.1,0,0.1-0.1c-0.2,0-0.4,0-0.5-0.1c0-0.2,0-0.4,0-0.5
			s-0.1-0.2-0.1-0.4c0-0.1-0.1-0.3-0.2-0.4c-0.3-0.4-0.7-0.6-0.9-1c-0.2,0.7,0.7,0.8,0.9,1.2c-0.1,0.3-0.2-0.3-0.4,0
			c0,0.1,0.2,0.1,0.2,0.3c-0.2,0.2-0.4,0.2-0.4,0.6c-0.1-0.2-0.4-0.1-0.4-0.4c0.2,0,0.4,0,0.4-0.2c-0.1-0.4-0.3-0.5-0.7-0.5
			c-0.1-0.1-0.1-0.3-0.2-0.4c0,0.5,0.3,0.9-0.2,1c-0.1-0.4-0.2-1,0-1.3c-0.3,0-0.4,0.3-0.8,0.1c-0.4,0-0.3,0.6-0.7,0.7
			c0.1,0.6-0.2,0.9-0.4,1.2c-0.3-0.2-0.3-0.2-0.6,0c-0.2-0.1-0.3-0.3-0.7-0.2c0.1-0.4-0.1-0.5-0.2-0.8c0.3,0,0.1-0.7,0.2-1
			c0.5,0.1,0.8-0.2,1.1,0c0.2,0,0.2-0.2,0.2-0.4c0-0.4-0.3-0.3-0.3-0.7c-0.2,0-0.4,0-0.5-0.1c0-0.3,0.2-0.3,0.4-0.4
			c0.2-0.1,0.3-0.4,0.6-0.4c0.1,0,0.1-0.1,0.1-0.2c-0.5,0-0.8,0-1.2,0.1c0-0.3,0.3-0.2,0.4-0.3c-0.1-0.2-0.2-0.4-0.2-0.8
			c0.1,0.1,0.4-0.1,0.4-0.4c-0.1,0-0.2,0-0.4-0.2c0-0.5,0.1-0.7,0.1-1.2c0.2-0.1,0.3-0.2,0.6-0.2c0,0.2-0.1,0.3-0.2,0.4
			c0.1,0.1,0.2,0.2,0.3,0.3c-0.3,0.5,0.3,0.5,0.2,1.1c0.1,0.1,0.2,0.2,0.3,0.3c-0.3,0.3-0.2,0.5-0.3,0.9c0.4,0.1,0.1-0.6,0.5-0.4
			c-0.1-0.3,0.1-0.4,0.2-0.5c0.2,0,0.4-0.2,0.7-0.2c0-0.1,0-0.3-0.2-0.3c0-0.3,0.1-0.4,0.3-0.6c-0.1-0.2-0.5,0-0.6-0.3
			c0-0.4,0-0.8-0.1-1c0.2-0.4,0.2-1,0.7-1c0-0.1,0-0.2,0-0.4c0.1,0,0.2,0,0.2,0.1c0.2-0.3,0.4-0.6,0.5-1c0.3-0.3,0.6-0.6,0.9-0.9
			c0.1,0,0.2-0.1,0.2,0c0.2-0.2,0.4-0.4,0.6-0.5c0.2,0,0.5,0,0.7,0c0.2,0.1,0.3,0.3,0.4,0.5c0.3,0,0.5,0.1,0.6,0.4
			c0.5,0,1.1,0.3,0.9,0.9c0.5,0.1,0.5-0.4,0.5-0.9c0.1,0.1,0.3,0.1,0.5,0.1c0,0.2,0,0.4,0,0.5c0.4-0.1,0.6-0.5,0.9-0.6
			c0.5,0,0.8-0.1,1.1,0c0.1-0.4-0.4-0.1-0.3-0.5c0.5,0,0.5,0.2,1,0.2c0.3-0.3,0.6-0.6,0.8-1c0.4-0.1,0.3,0.2,0.5,0.4
			c0.3,0.1,0.2-0.3,0.5-0.3c0,0.2,0,0.4,0.1,0.5c0.2,0,0.2-0.3,0.2-0.5c0.4-0.1,0.5,0.3,0.8,0.4c0.1-0.4-0.4-0.2-0.4-0.5
			c-0.1-0.3,0.3-0.1,0.5-0.2c0.2,0,0.1-0.3,0.2-0.4c0.3,0,0.3-0.2,0.5-0.3c0.4,0,0.7-0.1,0.9-0.4c0.2-0.1,0.2,0.2,0.3,0.3
			c0.3,0,0.2-0.4,0.5-0.3c0-0.3,0.1-0.5,0.2-0.6c0.3,0,0.3,0.3,0.5,0.4c0.3,0,0.7,0,0.9-0.1c0.1,0.3,0.4,0.4,0.5,0.6
			c0,0.3-0.2,0.3-0.2,0.5c0.4-0.1,0.6,0.1,0.8,0.2c0.1,0,0.2,0,0.3,0c0.2,0.1,0.3,0.2,0.6,0.2C119.7,193.4,121.1,195.3,122.2,197.4z
			 M123.9,201.5C123.9,201.5,123.9,201.6,123.9,201.5c-0.2,0.1-0.1-0.2-0.3-0.2c-0.3-0.1-0.3,0.4-0.5,0.2c0-0.4,0.1-0.6,0.1-1
			c0.1,0,0.3,0.1,0.4,0.1C123.7,200.9,123.8,201.2,123.9,201.5z M121.2,209.5c0.1-0.2,0.2-0.4,0.5-0.3c0-0.2,0-0.5,0.1-0.6
			c0.2,0,0.3,0.2,0.3,0.4c0.1,0.2,0.5,0.1,0.4,0.5c-0.4-0.1-0.6,0.1-0.7,0.4c-0.2-0.1-0.1-0.2-0.1-0.5
			C121.4,209.5,121.3,209.7,121.2,209.5z M121.4,213.2c-0.3,0.2-0.3-0.1-0.5-0.3c-0.1,0.1-0.2,0.3-0.2,0.5c-0.6-0.3-0.3-1.3,0.1-1.7
			c0.1,0.3,0.6,0.1,0.6,0.5c-0.1,0.1-0.3,0.1-0.4,0C121.1,212.7,121.4,212.8,121.4,213.2z M120.4,212.2c-0.3,0.1-0.1,0.7-0.4,0.8
			c0,0.1,0.1,0.1,0.2,0.1c0,0.2-0.3,0.1-0.2,0.3c-0.5,0.1-0.4-0.4-0.9-0.3c0-0.5-0.3-0.5-0.4-0.9c0.1-0.9,1.2-0.7,1.2-1.6
			c0.3,0,0.5,0.2,0.7,0.4c0,0.3-0.1,0.4-0.2,0.5C120.5,211.6,120.2,211.9,120.4,212.2z M120,214.4c-0.8,0.1-1.2-0.3-1.9-0.4
			c-0.1-0.3,0.1-0.4,0.2-0.5c0.5,0.2,0.9,0.4,1.5,0.4C119.7,214.1,120,214,120,214.4z M120.5,206.9c0-0.2-0.1-0.4-0.2-0.5
			c0.1-0.2,0.3-0.5,0.5-0.3C120.8,206.5,120.8,206.9,120.5,206.9z M121.3,207.7c0,0.4-0.2,0.5-0.3,0.8c-0.2-0.1-0.3-0.3-0.5-0.5
			C120.6,207.5,121.1,207.3,121.3,207.7z M123.2,211.9c0,0.4-0.6,0.5-0.8,0.3C122.3,211.8,122.9,211.8,123.2,211.9z M122.9,204.1
			c-0.1,0-0.1-0.1-0.2-0.1c-0.2,0.1-0.4,0.3-0.5,0.6c-0.1-0.2-0.3-0.2-0.3-0.5c0.2,0,0.3,0,0.5,0c0-0.3-0.4,0.1-0.4-0.2
			c0-0.5,0.5-0.4,0.8-0.5c0.3-0.3,0.4-0.4,0.7-0.5c0-0.1,0-0.2,0.1-0.2c-0.1-0.5,0-0.7-0.1-1.1c0.1,0,0.2,0,0.3,0
			c0,0.7,0.1,1.2,0.2,1.8C123.6,203.7,123.1,203.7,122.9,204.1z M123.2,199.4c0.1,0.3,0.2,0.6,0.3,0.9
			C123.3,200.2,123.2,199.8,123.2,199.4z M116.2,210.9c0.2-0.1,0.4,0.3,0.4-0.1c0.2,0,0.1,0.2,0.3,0.2c-0.1,0.3,0.2,0.4,0.3,0.6
			c0.1,0.2,0.4,0.4,0.6,0.6c0,0.4,0.3,0.8,0.2,1.2c-0.4,0.2-0.5-0.4-0.8-0.4C117.3,211.7,116.2,211.9,116.2,210.9z M113.6,209.8
			c0.2,0.2,0.3,0.3,0.4,0.6c-0.2,0-0.1,0.3-0.4,0.3C113.3,210.4,113.7,210.3,113.6,209.8z M108,217c-0.1,0-0.1,0.1-0.2,0.2
			c0,0.1,0,0.3,0,0.4c-0.2,0.4-0.1,0.6-0.3,1c-0.3-0.1-0.4,0.1-0.6,0.1c-0.3-0.3-0.1-0.7-0.2-1.1c0.1-0.1,0.2-0.3,0.2-0.5
			c0-0.3-0.1-0.3-0.1-0.6c0.2-0.3,0.4-0.5,0.7-0.6c0.1-0.4,0.2-0.6,0.3-0.9c0.3,0,0,0.6,0.3,0.6C108.1,216.3,107.8,216.6,108,217z
			 M90.8,225.1c0-0.3,0.4-0.3,0.3,0C91,225.1,90.9,225.1,90.8,225.1z M93.7,196.1c-0.2,0.1-0.2,0.3-0.3,0.4c-0.3,0-0.2-0.3-0.4-0.4
			c-0.2,0-0.4,0-0.5,0c-0.4-0.6,0-1.6-0.5-2.1c-0.1-0.3,0.4-0.3,0.2-0.4c0.1-0.2,0.4-0.3,0.5-0.4c-0.1-0.4-0.6-0.2-0.7-0.6
			c0.2,0,0.5,0,0.5-0.3c-0.2-0.3-0.2,0.3-0.5,0.1c0-0.3,0.1-0.4,0.1-0.6c-0.1-0.2-0.2-0.4-0.2-0.8c-0.4,0.1-0.7-0.1-0.9-0.3
			c-0.2-0.1-0.1,0.2-0.4,0.2c-0.2-0.1-0.5-0.2-0.6-0.5c0.2-0.2,0.7,0,1-0.1c0-0.5-0.3-0.1-0.5-0.1c0-0.2-0.4-0.2-0.4,0
			c-0.1,0-0.1-0.3-0.4-0.2c0.1-0.4,0.3-0.4,0.5-0.3c0.2-0.2,0.6-0.2,0.8-0.4c0-0.3-0.4,0-0.3-0.4c0.8-0.1,1.2-0.7,1.9-0.8
			c0.5,0.1,0.8,0,1.4,0.1c0.1,0-0.1-0.4-0.1-0.6c0.1-0.3,0.6-0.2,0.9-0.2c0.3-0.2,1.1,0,1.4-0.2c0.1,0,0.3,0,0.4,0.2
			c0.1-0.2,0.4-0.1,0.7,0c0.4,0,0.8,0,0.9,0.3c-0.1,0.4-0.7,0.2-0.8,0.6c0.2,0.1,0.5-0.2,0.8-0.2c0.2,0,0.2,0.2,0.4,0.3
			c0.1,0.2,0.5-0.1,0.4,0.3c0,0.4-0.4,0.1-0.6,0.2c-0.3,0-0.2,0.3-0.5,0.3c-0.1,0.3,0.1,0.3,0.1,0.5c-0.3-0.1-0.2,0.2-0.5,0.2
			c0.2,0.2,0.6,0.1,0.6,0.5c-0.3,0-0.5,0-0.7,0.1c0.1,0.5,0.3,1.4-0.3,1.4c0.1,0.2,0.2,0.2,0.2,0.5c-0.1,0-0.2-0.1-0.3-0.2
			c-0.2,0.1,0.4,0.3,0.2,0.5c-0.4,0-0.6-0.2-0.8-0.4c-0.2-0.1-0.2,0.2-0.3,0.2c0.2,0,0.5,0.4,0.7,0.2c0.2,0.3-0.4,0.4-0.5,0.7
			c-0.4,0.1-0.5,0.4-0.9,0.5c-0.1,0.1-0.3,0.2-0.4,0.4c-0.3-0.2-0.3,0.2-0.6,0c-0.2,0-0.1,0.3-0.3,0.4
			C94.1,195.4,93.6,195.4,93.7,196.1z M102.1,189.2c0.1,0,0.3,0.3,0.3,0.1c0.2,0.3,0.7,0.4,0.6,1.1c-0.5,0.1-0.6-0.2-0.8-0.4
			c-0.1,0.3-0.2,0.6-0.2,1c-0.2,0-0.4,0-0.4-0.3c-0.3,0.1-0.4-0.1-0.5-0.2c0-0.4,0.4-0.4,0.4-0.8c-0.4,0-0.4,0.3-0.7,0.4
			c-0.1-0.2,0-0.2,0-0.4s-0.3-0.2-0.4-0.5c0-0.8,0.8-0.4,0.9,0c0.2-0.1-0.1-0.4,0.1-0.5c0.3-0.1,0.6,0.2,0.4,0.4
			C101.8,189.1,101.9,189.2,102.1,189.2z M102,188.4c0.6,0,1.3,0,2,0.2c0.1,0.4-0.3,0.3-0.3,0.5c-0.7,0.1-1.1-0.2-1.6-0.4
			C102,188.7,102,188.5,102,188.4z M98.1,198.6c-0.2,0.1-0.4,0.1-0.6,0.2c-0.1-0.1-0.1-0.5-0.1-0.7c0.1-0.2,0.3,0.1,0.3-0.3
			c0.1,0,0.3,0,0.4,0C98,198.2,98,198.2,98.1,198.6z M97.5,195.2c-0.2,0-0.2-0.5-0.5-0.4c-0.1-0.3,0.2-0.3,0.2-0.5
			c-0.2,0-0.2,0.2-0.4,0.1c0-0.3,0.4-0.2,0.3-0.6c0.3,0,0.2,0.3,0.5,0.4c0.3-0.1,0.4,0,0.8-0.1c0,0.4,0.2,0.4,0.1,0.9
			c-0.1,0.1-0.4,0-0.4,0.3C98,195.1,97.5,195,97.5,195.2z M107.8,191c0.5-0.2,0.9-0.5,1.4-0.5c0.1,0,0.1-0.1,0.1-0.2
			c0.1,0,0.3,0,0.4,0c0,0.5-0.3,0.7-0.8,0.6c-0.4,0.2-0.6,0.7-1.1,0.7c-0.1,0.6,0.3,0.8,0.4,1.2c-0.1,0-0.2,0.1-0.2,0.2
			c-0.3-0.2-0.5-0.4-0.8-0.5c0-0.3,0.2-0.3,0.3-0.5C107.4,191.4,107.8,191.4,107.8,191z M107.8,189c0-0.5,0.7-0.6,0.7-0.1
			C108.2,188.9,108,189.3,107.8,189z M112.8,188.9c0.4-0.2,1.1-0.1,1.3,0.3c-0.1,0.6-0.8,0.1-1.4,0.3
			C112.8,189.3,112.6,188.9,112.8,188.9z M87.6,195.2c-0.1,0.6-0.6-0.4-0.6,0.3c-0.3,0-0.5,0-0.5-0.4c0.3,0.1,0.3-0.3,0.4-0.4
			c0.2-0.1,0.2,0.2,0.5,0.1C87.5,194.9,87.3,195.1,87.6,195.2z M88.9,207.7c0.1,0.4-0.2,0.4-0.5,0.4c0-0.1,0-0.2,0-0.4
			C88.6,207.7,88.8,207.7,88.9,207.7z M86.8,207.5c-0.3-0.1-0.4-0.5-0.7-0.5c-0.4-0.1-0.4,0.2-0.7,0.2c0-0.2,0.1-0.3,0.2-0.5
			c0.4,0,0.8,0,1.1,0c0,0.3,0.3,0.3,0.5,0.4c0,0.2,0.2,0.1,0.2,0.4c0.5,0,0.9-0.1,1,0.5c-0.2,0-0.5-0.1-0.5,0.2
			c-0.2-0.1-0.3-0.2-0.5-0.2c0-0.2-0.1-0.3,0.1-0.4C87.4,207.4,87,207.5,86.8,207.5z M87,208c-0.3,0.1-0.3,0-0.5,0.1
			c0-0.1,0-0.2,0-0.4C86.7,207.8,87,207.7,87,208z M86.5,206.5c0-0.1,0-0.2,0-0.4c0.2,0,0.3,0.1,0.3,0.4
			C86.7,206.5,86.6,206.5,86.5,206.5z M87,206.1c0.1,0,0.1,0,0.2,0c0.1,0.1,0.1,0.2,0.1,0.5C87,206.7,87,206.4,87,206.1z
			 M87.4,206.9c0-0.1,0-0.3,0-0.4c0.2,0,0.3,0.1,0.3,0.4c0.1,0,0.3,0,0.3,0.1c0.1,0.3-0.5,0.2-0.3-0.1
			C87.6,206.9,87.6,207,87.4,206.9z M124,214.2c0-0.2,0-0.3,0-0.5c-0.3-0.4-0.7-0.6-1.1-0.9c-0.2-0.1-0.4,0.2-0.4,0
			c-0.1-0.3,0.3-0.1,0.2-0.4c0.2-0.1,0.1,0.3,0.4,0.2c0.2,0,0.2-0.1,0.3-0.3c0.2,0,0.4,0,0.5,0c0.2,0,0.3,0.1,0.4,0.3
			C124.3,213.1,124.2,213.6,124,214.2z"/>
		<path class="st20" d="M88.1,190.9C88.1,190.9,88,190.9,88.1,190.9C88,191,88.1,190.9,88.1,190.9z"/>
		<path class="st20" d="M120.2,202.7c-0.1,0-0.1-0.2-0.1-0.4c-0.3,0-0.3,0.2-0.5,0.4C119.9,202.6,120.1,202.9,120.2,202.7z"/>
		<path class="st20" d="M115.8,191.7C115.8,191.7,115.9,191.6,115.8,191.7C115.8,191.6,115.7,191.6,115.8,191.7z"/>
		<path class="st20" d="M116,191.6C116,191.6,116.1,191.5,116,191.6C116,191.5,116,191.5,116,191.6z"/>
		<path class="st20" d="M110.7,193c0,0.2,0.2,0.2,0.3,0.3C111.1,193,110.8,193.2,110.7,193z"/>
		<path class="st20" d="M80.9,205.8C80.9,205.8,80.9,205.7,80.9,205.8C80.8,205.7,80.9,205.8,80.9,205.8z"/>
		<path class="st20" d="M101,201.6c0-0.1,0-0.1,0-0.2C100.9,201.4,100.9,201.6,101,201.6z"/>
		<path class="st20" d="M102.9,194.4c-0.3,0.6-0.8,0.9-0.8,1.7c0.1,0.2,0.1,0.3,0.2,0.5c-0.2,0.4-0.3,0.8-0.5,1.2
			c-0.7,0.4-0.5-0.8-0.9-0.9c0,0.4,0.1,0.7,0.3,0.9c-0.2,0-0.2,0.2,0,0.3c0-0.2,0.3,0,0.2,0.1c0.2,0,0.2-0.2,0.5-0.3
			c0.2,0,0.4,0,0.6,0c0.2-0.2,0.1-0.8,0.3-1.2c0.3-0.2,0.1,0.3,0.3,0.4c0-0.3,0-0.6,0-0.9c-0.3-0.1-0.5-0.2-0.6-0.4
			c-0.1-0.8,0.6-0.7,0.6-1.3C103.1,194.4,103,194.3,102.9,194.4z"/>
		<path class="st20" d="M90.6,198.4C90.6,198.3,90.5,198.4,90.6,198.4C90.6,198.5,90.7,198.4,90.6,198.4z"/>
		<path class="st20" d="M118.2,207.4c-0.2,0.3,0.3,0.2,0.2,0.6c0.1,0.1,0.3,0.1,0.4,0.2c-0.1-0.5-0.1-0.3,0-0.6
			C118.4,207.7,118.4,207.1,118.2,207.4z"/>
		<path class="st20" d="M104.7,194c0,0.2,0,0.9,0.5,0.8c0.2-0.1-0.1-0.2,0.1-0.4c0.2-0.1,0.5,0,0.5-0.4
			C105.4,194,105.1,194,104.7,194z"/>
		<path class="st20" d="M103.9,192.9C104,193,104.1,192.9,103.9,192.9C104,192.8,103.9,192.9,103.9,192.9z"/>
		<path class="st20" d="M105.3,205.8C105.3,205.8,105.4,205.7,105.3,205.8C105.4,205.7,105.3,205.7,105.3,205.8z"/>
		<path class="st20" d="M105.4,194.7C105.4,194.7,105.5,194.7,105.4,194.7C105.4,194.6,105.4,194.7,105.4,194.7z"/>
		<path class="st20" d="M110.7,193C110.8,192.7,110.5,193,110.7,193L110.7,193z"/>
		<path class="st20" d="M103.3,196.4c0.2,0,0.5,0,0.5-0.3C103.6,196.2,103.3,196.1,103.3,196.4z"/>
		<path class="st20" d="M116.2,191.4C116.2,191.4,116.3,191.4,116.2,191.4C116.3,191.3,116.2,191.4,116.2,191.4z"/>
		<path class="st20" d="M97,188.4c0.1-0.1,0.3-0.2,0.3-0.4c-0.3,0-1-0.1-1.3,0.3C96.4,188.2,96.7,188.2,97,188.4z"/>
		<path class="st20" d="M96.7,192.2c0-0.2,0.2-0.3,0.2-0.5C96.7,191.6,96.5,192.1,96.7,192.2z"/>
		<path class="st20" d="M80.8,205.4c-0.1-0.1-0.1-0.3-0.3-0.4C80.5,205.3,80.7,205.6,80.8,205.4z"/>
		<path class="st20" d="M80.5,204.9C80.5,204.8,80.5,204.8,80.5,204.9C80.5,204.9,80.5,205,80.5,204.9z"/>
	</g>
</g>
<g>
	
		<radialGradient id="SVGID_11_" cx="1588.5" cy="124.5" r="45" gradientTransform="matrix(1 0 0 -1 0 360)" gradientUnits="userSpaceOnUse">
		<stop  offset="0" style="stop-color:#FFFFFF"/>
		<stop  offset="0.5918" style="stop-color:#FDFDFD"/>
		<stop  offset="0.8047" style="stop-color:#F6F6F6"/>
		<stop  offset="0.9562" style="stop-color:#EBEBEB"/>
		<stop  offset="1" style="stop-color:#E6E6E6"/>
	</radialGradient>
	<circle class="st21" cx="1588.5" cy="235.5" r="45"/>
	<g>
		<g>
			<path class="st22" d="M1605.2,237c-2.9-0.8-8.6-2-16.8-2c-12.1,0-18.6,2.7-18.6,2.7v14.8c0,0,9.1-2.7,18.7-2.7l0,0
				c6.2,0,12.2,1.1,15.7,1.9c1.9,0.4,3,0.8,3,0.8l0,0v-14.8l0,0C1607.2,237.6,1606.5,237.3,1605.2,237z"/>
			<path class="st22" d="M1569.1,236.9c0,0,7-2.9,19.9-2.9c8.7,0,14.9,1.3,17.9,2.2c1.4,0.4,2.2,0.7,2.2,0.7l0,0v2.1l10.9-5.2
				l-31.5-15.2l-31.5,15.2l12.1,5.8V236.9z"/>
			<path class="st22" d="M1614.3,249.6c-0.4-0.5-0.5-1.5-0.7-4.3c0-0.4-0.2-0.8-0.5-1v-0.8c0.3-0.2,0.4-0.6,0.4-1
				c0-0.5-0.3-0.9-0.6-1.1v-10.9c0-0.2-0.2-0.4-0.4-0.4c-0.2,0-0.3,0.2-0.3,0.4v10.9c-0.4,0.2-0.6,0.6-0.6,1.1c0,0.4,0.2,0.8,0.4,1
				v0.8c-0.2,0.2-0.4,0.6-0.5,1c-0.2,2.8-0.3,3.8-0.7,4.3c-0.1,0.6,0.6,1.4,1.7,1.4l0,0l0,0C1613.7,251,1614.4,250.3,1614.3,249.6z"
				/>
		</g>
	</g>
</g>
<g>
	
		<radialGradient id="SVGID_12_" cx="1708" cy="230" r="60" gradientTransform="matrix(1 0 0 -1 0 360)" gradientUnits="userSpaceOnUse">
		<stop  offset="0" style="stop-color:#FFFFFF"/>
		<stop  offset="0.5918" style="stop-color:#FDFDFD"/>
		<stop  offset="0.8047" style="stop-color:#F6F6F6"/>
		<stop  offset="0.9562" style="stop-color:#EBEBEB"/>
		<stop  offset="1" style="stop-color:#E6E6E6"/>
	</radialGradient>
	<circle class="st23" cx="1708" cy="130" r="60"/>
	<g>
		<g>
			<path class="st24" d="M1700.1,100v60.4h31.8L1700.1,100z M1704.9,123.4l16.6,29h-16.6V123.4z"/>
			<rect x="1684.1" y="99.6" class="st24" width="8" height="59.2"/>
		</g>
	</g>
</g>
<g>
	
		<radialGradient id="SVGID_13_" cx="235" cy="275" r="60" gradientTransform="matrix(1 0 0 -1 0 360)" gradientUnits="userSpaceOnUse">
		<stop  offset="0" style="stop-color:#FFFFFF"/>
		<stop  offset="0.5918" style="stop-color:#FDFDFD"/>
		<stop  offset="0.8047" style="stop-color:#F6F6F6"/>
		<stop  offset="0.9562" style="stop-color:#EBEBEB"/>
		<stop  offset="1" style="stop-color:#E6E6E6"/>
	</radialGradient>
	<circle class="st25" cx="235" cy="85" r="60"/>
	<g>
		<g>
			<g>
				<g>
					<polygon class="st26" points="230,105.5 225.5,117.4 220.3,117.4 215.8,105.5 215.8,57.4 230,57.4 					"/>
					<path class="st26" d="M230,56.7c0,3.9-3.1,7-7,7h-0.2c-3.9,0-7-3.1-7-7v-6.5c0-3.9,3.1-3.1,7-3.1h0.2c3.9,0,7-0.8,7,3.1V56.7z"
						/>
					<rect x="215" y="53.4" class="st26" width="15.8" height="15"/>
				</g>
				<path class="st26" d="M220.1,117.1c0,0,1.3,3.9,1.9,5.1c0.6,1.1,1.4,2,3.5-4.8C225.5,117.4,223.3,115.4,220.1,117.1z"/>
			</g>
		</g>
		<g>
			<g>
				<g>
					<g>
						<polygon class="st26" points="251.3,105.5 246.8,117.4 241.6,117.4 237.1,105.5 237.1,57.4 251.3,57.4 						"/>
						<path class="st26" d="M251.3,56.7c0,3.9-3.1,7-7,7h-0.2c-3.9,0-7-3.1-7-7v-6.5c0-3.9,3.1-3.1,7-3.1h0.2c3.9,0,7-0.8,7,3.1
							V56.7z"/>
						<rect x="236.3" y="53.4" class="st26" width="15.8" height="15"/>
					</g>
					<path class="st26" d="M241.4,117.1c0,0,1.3,3.9,1.9,5.1c0.6,1.1,1.4,2,3.5-4.8C246.8,117.4,244.6,115.4,241.4,117.1z"/>
				</g>
				<path class="st26" d="M250.5,56.3c0,0,3.8,1.9,4.1,3.3c0.3,1.4,0.3,25.2,0.3,25.2s0.5,1.8-1.5,1.8V66.9l-1.6-2.2L250.5,56.3"/>
			</g>
		</g>
	</g>
</g>
<g>
	
		<radialGradient id="SVGID_14_" cx="1853.5" cy="280.5" r="45" gradientTransform="matrix(1 0 0 -1 0 360)" gradientUnits="userSpaceOnUse">
		<stop  offset="0" style="stop-color:#FFFFFF"/>
		<stop  offset="0.5918" style="stop-color:#FDFDFD"/>
		<stop  offset="0.8047" style="stop-color:#F6F6F6"/>
		<stop  offset="0.9562" style="stop-color:#EBEBEB"/>
		<stop  offset="1" style="stop-color:#E6E6E6"/>
	</radialGradient>
	<circle class="st27" cx="1853.5" cy="79.5" r="45"/>
	<g>
		<g>
			<path class="st18" d="M1833.7,59.7c-6.1,6.1-6.1,16.1,0,22.3c6.1,6.1,16.1,6.1,22.3,0c6.1-6.1,6.1-16.1,0-22.3
				C1849.9,53.6,1839.9,53.6,1833.7,59.7z M1853.9,79.9c-5,5-13.1,5-18.1,0s-5-13.1,0-18.1s13.1-5,18.1,0S1858.9,74.9,1853.9,79.9z"
				/>
			
				<rect x="1858.1" y="78.6" transform="matrix(0.7071 -0.7071 0.7071 0.7071 483.8513 1340.6493)" class="st18" width="4.3" height="15.3"/>
			<path class="st18" d="M1873.3,94.4c1.3,1.3,1.3,3.5,0,4.8l0,0c-1.3,1.3-3.5,1.3-4.8,0L1858.2,89c-1.3-1.3-1.3-3.5,0-4.8l0,0
				c1.3-1.3,3.5-1.3,4.8,0L1873.3,94.4z"/>
		</g>
	</g>
</g>
</svg>
